<svg width="38" height="42" viewBox="0 0 38 42" fill="none" xmlns="http://www.w3.org/2000/svg">
<path d="M36.0521 11.4093L19.1708 21M19.1708 21L1.94934 11.4077M19.1708 21L19.0028 40.1944M36.25 29.8625V12.1377C36.25 11.8826 36.1821 11.6322 36.0534 11.412C35.9246 11.1918 35.7396 11.0099 35.5173 10.8848L19.7048 1.99027C19.4896 1.86924 19.2469 1.80566 19 1.80566C18.7531 1.80566 18.5104 1.86924 18.2952 1.99027L2.48275 10.8848C2.26044 11.0099 2.07541 11.1918 1.94664 11.412C1.81787 11.6322 1.75 11.8826 1.75 12.1377V29.8625C1.75 30.1176 1.81787 30.368 1.94664 30.5882C2.07541 30.8084 2.26044 30.9904 2.48275 31.1154L18.2952 40.0099C18.5104 40.131 18.7531 40.1945 19 40.1945C19.2469 40.1945 19.4896 40.131 19.7048 40.0099L35.5173 31.1154C35.7396 30.9904 35.9246 30.8084 36.0534 30.5882C36.1821 30.368 36.25 30.1176 36.25 29.8625Z" stroke="#60606B" stroke-width="2" stroke-linecap="round" stroke-linejoin="round"/>
</svg>
