<svg width="34" height="34" viewBox="0 0 34 34" fill="none" xmlns="http://www.w3.org/2000/svg">
<path d="M28.5 1.1875H5.5C3.11827 1.1875 1.1875 3.11827 1.1875 5.5V28.5C1.1875 30.8817 3.11827 32.8125 5.5 32.8125H28.5C30.8817 32.8125 32.8125 30.8817 32.8125 28.5V5.5C32.8125 3.11827 30.8817 1.1875 28.5 1.1875Z" stroke="#60606B" stroke-width="2" stroke-linecap="round" stroke-linejoin="round"/>
<path d="M11.9688 14.125C13.1596 14.125 14.125 13.1596 14.125 11.9688C14.125 10.7779 13.1596 9.8125 11.9688 9.8125C10.7779 9.8125 9.8125 10.7779 9.8125 11.9688C9.8125 13.1596 10.7779 14.125 11.9688 14.125Z" fill="#60606B"/>
<path d="M22.0312 14.125C23.2221 14.125 24.1875 13.1596 24.1875 11.9688C24.1875 10.7779 23.2221 9.8125 22.0312 9.8125C20.8404 9.8125 19.875 10.7779 19.875 11.9688C19.875 13.1596 20.8404 14.125 22.0312 14.125Z" fill="#60606B"/>
<path d="M11.9688 24.1875C13.1596 24.1875 14.125 23.2221 14.125 22.0312C14.125 20.8404 13.1596 19.875 11.9688 19.875C10.7779 19.875 9.8125 20.8404 9.8125 22.0312C9.8125 23.2221 10.7779 24.1875 11.9688 24.1875Z" fill="#60606B"/>
<path d="M22.0312 24.1875C23.2221 24.1875 24.1875 23.2221 24.1875 22.0312C24.1875 20.8404 23.2221 19.875 22.0312 19.875C20.8404 19.875 19.875 20.8404 19.875 22.0312C19.875 23.2221 20.8404 24.1875 22.0312 24.1875Z" fill="#60606B"/>
</svg>
