<svg width="112" height="45" viewBox="0 0 112 45" fill="none" xmlns="http://www.w3.org/2000/svg">
<rect x="0.421875" y="13.5885" width="109" height="26" rx="4" transform="rotate(-4 0.421875 13.5885)" fill="#F0CF22"/>
<path d="M8.54894 24.3579L6.87303 24.4751C6.71712 22.2455 7.79805 20.5009 10.4466 20.3157C12.3619 20.1817 13.9527 21.2133 14.0909 23.1885C14.3211 26.4804 9.94555 27.3427 9.24017 29.5122L9.24226 29.5422L14.4047 29.1812L14.5072 30.6476L7.08532 31.1666C6.95767 29.341 7.95687 27.9329 9.4729 26.8194C11.2854 25.4296 12.4629 24.8511 12.3603 23.3847C12.3007 22.5317 11.837 21.7071 10.5053 21.8002C8.96405 21.908 8.44953 22.9364 8.54894 24.3579ZM18.8748 30.3422L18.1266 19.6433L22.6905 19.3242C24.8901 19.1704 26.3901 20.1932 26.5262 22.1385C26.6308 23.6348 25.9283 24.556 24.7223 24.9411L24.7244 24.971C27.2258 25.2623 26.6209 29.5148 27.2021 29.6546L27.2094 29.7594L25.339 29.8902C24.8138 29.4758 25.559 25.7247 22.9852 25.9046L20.3666 26.0877L20.6554 30.2177L18.8748 30.3422ZM20.013 21.0301L20.2599 24.5615L22.669 24.393C23.7614 24.3166 24.8839 24.0276 24.7751 22.4714C24.6673 20.9302 23.5144 20.7852 22.4221 20.8616L20.013 21.0301ZM31.589 28.3855C32.8908 28.2945 33.358 27.4498 33.4603 26.9765L35.0314 26.8667C34.7439 28.3453 33.6841 29.5322 31.7239 29.6692C29.3447 29.8356 27.7781 28.2911 27.6107 25.897C27.437 23.413 28.7796 21.7553 31.084 21.5942C33.553 21.4215 34.8854 23.0576 35.0758 25.7809L29.2101 26.1911C29.3001 27.478 30.1974 28.4828 31.589 28.3855ZM31.1709 22.8362C29.899 22.9251 29.0458 23.8418 29.1285 25.024L33.423 24.7237C33.3404 23.5415 32.4428 22.7472 31.1709 22.8362ZM34.9334 21.5355L36.5943 21.4194L38.9432 27.2698L38.9581 27.2687L40.4699 21.1484L42.1308 21.0322L39.9571 28.868L38.1765 28.9925L34.9334 21.5355ZM43.6785 19.6309C43.2446 19.6612 42.7747 19.3933 42.7371 18.8546C42.6994 18.316 43.1284 18.0003 43.5624 17.9699C44.0262 17.9375 44.4801 18.1914 44.5177 18.7301C44.5554 19.2688 44.1424 19.5984 43.6785 19.6309ZM42.9904 20.9721L44.5616 20.8623L45.0963 28.5086L43.5251 28.6185L42.9904 20.9721ZM49.6772 23.5419C51.1068 23.7728 52.655 23.9803 52.7827 25.8058C52.8852 27.2722 51.6921 28.2729 49.8367 28.4027C47.3677 28.5753 46.2247 27.4974 46.0369 25.8866L47.5632 25.7799C47.6955 26.5976 48.1038 27.2758 49.7199 27.1628C50.8122 27.0864 51.2384 26.5153 51.2049 26.0364C51.138 25.0788 50.22 25.0678 49.0789 24.8769C47.847 24.6774 46.1842 24.5531 46.0629 22.8173C45.975 21.5604 47.0122 20.4804 48.9275 20.3465C51.0074 20.201 52.0735 21.2542 52.2713 22.5786L50.7451 22.6854C50.5985 22.0942 50.2563 21.5016 49.0293 21.5874C48.0866 21.6533 47.6029 22.048 47.6406 22.5867C47.695 23.3648 48.5521 23.365 49.6772 23.5419ZM54.2435 18.8921C53.8096 18.9224 53.3398 18.6545 53.3021 18.1159C53.2644 17.5772 53.6935 17.2615 54.1274 17.2311C54.5913 17.1987 55.0451 17.4527 55.0828 17.9913C55.1204 18.53 54.7074 18.8596 54.2435 18.8921ZM53.5554 20.2333L55.1266 20.1235L55.6613 27.7698L54.0901 27.8797L53.5554 20.2333ZM60.7159 27.6419C58.3218 27.8093 56.7542 26.2499 56.5878 23.8707C56.4214 21.4915 57.7567 19.7291 60.1509 19.5616C62.545 19.3942 64.1126 20.9537 64.279 23.3329C64.4454 25.7121 63.1101 27.4745 60.7159 27.6419ZM60.6259 26.355C62.1223 26.2504 62.8177 25.0139 62.7078 23.4427C62.5969 21.8566 61.7372 20.7439 60.2409 20.8485C58.7445 20.9531 58.048 22.1747 58.159 23.7608C58.2688 25.332 59.1296 26.4597 60.6259 26.355ZM69.1974 18.929C70.6189 18.8296 71.7987 19.5742 71.9211 21.3249L72.2905 26.607L70.7043 26.7179L70.3664 21.8847C70.2942 20.8522 69.8142 20.2242 68.7368 20.2995C67.5248 20.3843 66.798 21.1719 66.8775 22.3091L67.2029 26.9627L65.6317 27.0726L65.097 19.4263L66.6682 19.3164L66.7373 20.304L66.7672 20.3019C67.1294 19.6751 67.8806 19.0211 69.1974 18.929ZM78.0971 20.0961L82.7208 19.7728L82.8276 21.299L78.2038 21.6223L78.5219 26.1712L76.7413 26.2958L75.9931 15.5969L83.4749 15.0737L83.5806 16.585L77.8795 16.9837L78.0971 20.0961ZM87.951 17.6477C88.2203 17.6289 88.4159 17.6303 88.6425 17.6445L88.746 19.1259L88.7161 19.128C87.187 18.9793 86.0461 20.0815 86.1602 21.7126L86.4333 25.618L84.8621 25.7279L84.3274 18.0816L85.8986 17.9717L85.999 19.4082L86.029 19.4061C86.366 18.4202 86.9484 17.7178 87.951 17.6477ZM93.2548 24.0734C94.5566 23.9824 95.0238 23.1377 95.1261 22.6644L96.6972 22.5546C96.4097 24.0332 95.3499 25.2201 93.3897 25.3571C91.0105 25.5235 89.4439 23.979 89.2765 21.5849C89.1028 19.1009 90.4455 17.4432 92.7498 17.2821C95.2188 17.1094 96.5512 18.7455 96.7416 21.4688L90.8759 21.879C90.9659 23.1659 91.8632 24.1707 93.2548 24.0734ZM92.8367 18.5241C91.5648 18.613 90.7117 19.5297 90.7943 20.7119L95.0888 20.4116C95.0062 19.2294 94.1086 18.4351 92.8367 18.5241ZM101.365 23.5063C102.667 23.4153 103.134 22.5706 103.236 22.0973L104.807 21.9875C104.52 23.4661 103.46 24.653 101.5 24.79C99.1206 24.9564 97.554 23.4119 97.3866 21.0178C97.2129 18.5338 98.5555 16.8761 100.86 16.715C103.329 16.5423 104.661 18.1784 104.852 20.9017L98.986 21.3119C99.076 22.5988 99.9733 23.6036 101.365 23.5063ZM100.947 17.957C99.6749 18.0459 98.8217 18.9626 98.9044 20.1447L103.199 19.8444C103.116 18.6623 102.219 17.868 100.947 17.957Z" fill="#0A0A0A"/>
</svg>
