<svg width="38" height="38" viewBox="0 0 38 38" fill="none" xmlns="http://www.w3.org/2000/svg">
<path d="M36.8125 19C36.8125 20.52 34.9452 21.7728 34.5711 23.1741C34.1852 24.6228 35.1619 26.6416 34.4286 27.9092C33.6834 29.1977 31.442 29.352 30.397 30.397C29.352 31.442 29.1977 33.6834 27.9092 34.4286C26.6416 35.1619 24.6228 34.1852 23.1741 34.5711C21.7728 34.9452 20.52 36.8125 19 36.8125C17.48 36.8125 16.2272 34.9452 14.8259 34.5711C13.3772 34.1852 11.3584 35.1619 10.0908 34.4286C8.80234 33.6834 8.64797 31.442 7.60297 30.397C6.55797 29.352 4.31656 29.1977 3.57141 27.9092C2.83812 26.6416 3.81484 24.6228 3.42891 23.1741C3.05484 21.7728 1.1875 20.52 1.1875 19C1.1875 17.48 3.05484 16.2272 3.42891 14.8259C3.81484 13.3772 2.83812 11.3584 3.57141 10.0908C4.31656 8.80234 6.55797 8.64797 7.60297 7.60297C8.64797 6.55797 8.80234 4.31656 10.0908 3.57141C11.3584 2.83812 13.3772 3.81484 14.8259 3.42891C16.2272 3.05484 17.48 1.1875 19 1.1875C20.52 1.1875 21.7728 3.05484 23.1741 3.42891C24.6228 3.81484 26.6416 2.83812 27.9092 3.57141C29.1977 4.31656 29.352 6.55797 30.397 7.60297C31.442 8.64797 33.6834 8.80234 34.4286 10.0908C35.1619 11.3584 34.1852 13.3772 34.5711 14.8259C34.9452 16.2272 36.8125 17.48 36.8125 19Z" fill="#F0CF22"/>
<path d="M24.1474 13.6919L17.3668 20.4725L13.8518 16.9604C13.0888 16.1975 11.8508 16.1975 11.0879 16.9604C10.3249 17.7234 10.3249 18.9614 11.0879 19.7244L16.0189 24.6555C16.7611 25.3976 17.9664 25.3976 18.7086 24.6555L26.9083 16.4558C27.6713 15.6928 27.6713 14.4548 26.9083 13.6919C26.1454 12.9289 24.9104 12.9289 24.1474 13.6919Z" fill="#FFFCEE"/>
</svg>
