<svg width="152" height="162" viewBox="0 0 152 162" fill="none" xmlns="http://www.w3.org/2000/svg">
<g clip-path="url(#clip0_2755_994)" filter="url(#filter0_f_2755_994)">
<path d="M81.7906 124.639C68.301 127.895 60.0336 141.423 63.457 154.732C65.6591 163.272 72.1736 169.575 80.1202 172.052C76.887 169 74.457 165.051 73.2757 160.449C69.8523 147.14 78.1197 133.612 91.6093 130.356C94.2673 129.714 96.9299 129.528 99.5066 129.715L93.0505 102.969C90.4704 103.205 87.8639 103.623 85.3056 104.24C85.1727 104.272 85.073 104.297 84.9401 104.329L89.6879 123.998C87.1112 123.811 84.4486 123.997 81.7906 124.639Z" fill="#F00044"/>
<path d="M120.739 30.3572L120.54 30.4053L113.629 32.0735C118.036 41.5931 125.753 48.9428 135.022 52.9643C128.228 47.3961 123.051 39.6443 120.739 30.3572Z" fill="#F00044"/>
<path d="M171.233 61.2419C168.608 61.8755 166.018 62.2192 163.414 62.3555L168.042 81.5266C159.004 83.7081 149.808 84.0644 140.718 82.5315C134.856 81.5553 129.208 79.8597 123.814 77.4698L138.215 136.546C141.356 149.852 139.114 163.579 131.881 175.275C125.984 184.786 117.362 192.036 107.106 196.164C104.703 197.131 102.193 197.948 99.6341 198.565C88.271 201.308 76.5493 200.234 66.1005 195.549C67.386 196.504 68.7299 197.41 70.1654 198.259C82.0121 205.386 95.9633 207.538 109.486 204.274C112.044 203.657 114.555 202.84 116.958 201.873C127.214 197.745 135.836 190.495 141.733 180.984C148.966 169.288 151.208 155.561 148.066 142.255L133.301 83.267C138.661 85.665 144.318 87.3938 150.204 88.3287C159.32 89.8204 168.524 89.4973 177.528 87.3239" fill="#F00044"/>
<path d="M53.0066 127.613C60.2062 115.924 71.5395 107.668 84.9386 104.328L83.2303 97.2513C80.6502 97.4873 78.0437 97.9055 75.4853 98.5231C61.9293 101.795 50.4631 110.083 43.1879 121.896C36.0387 133.502 33.7359 147.559 36.9691 160.808C40.1931 174.165 48.4995 185.416 60.3209 192.583C62.2102 193.709 64.1086 194.728 66.0746 195.59C56.4083 188.464 49.6269 178.287 46.7546 166.533C43.5878 153.268 45.8574 139.219 53.0066 127.613Z" fill="#08FFF9"/>
<path d="M163.413 62.3553L161.697 55.245L161.63 55.2611C152.394 57.4906 143.15 56.487 135.055 52.9559C142.895 59.3616 152.947 62.8422 163.413 62.3553Z" fill="#08FFF9"/>
<path d="M101.779 178.462C104.975 177.867 107.894 176.705 110.469 175.134C119.342 169.652 124.121 159.005 121.571 148.439L112.06 108.893L94.6246 36.6607L113.63 32.0732C112.53 29.7016 111.654 27.2406 110.988 24.6238L84.8059 30.9436L102.233 103.143L111.744 142.689C114.294 153.255 109.515 163.902 100.642 169.384C98.0756 170.988 95.1564 172.15 91.9518 172.712C87.8754 173.45 83.8322 173.16 80.1109 172.019C85.7215 177.345 93.7334 179.947 101.779 178.462Z" fill="#08FFF9"/>
<path d="M107.106 196.163C117.361 192.035 125.984 184.785 131.881 175.275C139.114 163.578 141.356 149.852 138.214 136.545L123.814 77.4695C129.175 79.8674 134.831 81.5963 140.718 82.5312C149.833 84.0229 159.037 83.6998 168.042 81.5264L163.414 62.3553C152.948 62.8422 142.896 59.3616 135.055 52.956C125.787 48.9345 118.037 41.5929 113.663 32.0652L94.6246 36.6606L112.052 108.86L121.563 148.406C124.113 158.972 119.334 169.619 110.461 175.101C107.894 176.705 104.975 177.867 101.771 178.429C93.6922 179.922 85.7135 177.312 80.111 172.019C72.1724 169.575 65.6499 163.238 63.4479 154.698C60.0245 141.39 68.2919 127.861 81.7814 124.605C84.4394 123.963 87.1021 123.778 89.6788 123.965L84.9309 104.295C71.5319 107.635 60.1986 115.891 52.999 127.579C45.8498 139.185 43.547 153.243 46.7721 166.459C49.6112 178.221 56.3927 188.398 66.0922 195.515C76.5743 200.193 88.2628 201.274 99.6259 198.532C102.192 197.947 104.702 197.13 107.106 196.163Z" fill="white"/>
</g>
<defs>
<filter id="filter0_f_2755_994" x="-24" y="-14.0001" width="259.176" height="259.177" filterUnits="userSpaceOnUse" color-interpolation-filters="sRGB">
<feFlood flood-opacity="0" result="BackgroundImageFix"/>
<feBlend mode="normal" in="SourceGraphic" in2="BackgroundImageFix" result="shape"/>
<feGaussianBlur stdDeviation="12" result="effect1_foregroundBlur_2755_994"/>
</filter>
<clipPath id="clip0_2755_994">
<rect width="175" height="175" fill="white" transform="translate(0 51.0623) rotate(-13.5705)"/>
</clipPath>
</defs>
</svg>
