<svg width="107" height="130" viewBox="0 0 107 130" fill="none" xmlns="http://www.w3.org/2000/svg">
<path d="M62.1062 164.163C72.3614 160.035 80.984 152.785 86.8809 143.275C94.1137 131.578 96.3559 117.852 93.2143 104.545L78.8139 45.4695C84.1746 47.8674 89.831 49.5963 95.7176 50.5312C104.833 52.0229 114.037 51.6998 123.042 49.5264L118.414 30.3553C107.948 30.8422 97.8956 27.3616 90.0555 20.956C80.7867 16.9345 73.0372 9.59287 68.6628 0.0651877L49.6246 4.66064L67.0521 76.8595L76.5626 116.406C79.113 126.972 74.3343 137.619 65.4608 143.101C62.8944 144.705 59.9751 145.867 56.7706 146.429C48.6922 147.922 40.7135 145.312 35.111 140.019C27.1724 137.575 20.6499 131.238 18.4479 122.698C15.0245 109.39 23.2919 95.8611 36.7814 92.605C39.4394 91.9634 42.1021 91.7778 44.6788 91.9646L39.9309 72.2951C26.5319 75.6348 15.1986 83.8908 7.999 95.5793C0.849812 107.185 -1.45304 121.243 1.77214 134.459C4.61122 146.221 11.3927 156.398 21.0922 163.515C31.5743 168.193 43.2628 169.274 54.6259 166.532C57.1923 165.947 59.7025 165.13 62.1062 164.163Z" fill="white"/>
</svg>
