<svg width="29" height="30" viewBox="0 0 29 30" fill="none" xmlns="http://www.w3.org/2000/svg">
<g clip-path="url(#clip0_454_4001)">
<path d="M28.9997 15.1002C28.9997 7.14729 22.5526 0.700195 14.5997 0.700195C6.6468 0.700195 0.199707 7.14729 0.199707 15.1002C0.199707 22.2875 5.46555 28.245 12.3497 29.3253V19.2627H8.69346V15.1002H12.3497V11.9277C12.3497 8.3187 14.4996 6.32519 17.7888 6.32519C19.3638 6.32519 21.0122 6.60644 21.0122 6.60644V10.1502H19.1965C17.4077 10.1502 16.8497 11.2603 16.8497 12.4002V15.1002H20.8435L20.205 19.2627H16.8497V29.3253C23.7339 28.245 28.9997 22.2875 28.9997 15.1002Z" fill="#98A2B3"/>
</g>
<defs>
<clipPath id="clip0_454_4001">
<rect width="28.8" height="28.8" fill="white" transform="translate(0.199707 0.700195)"/>
</clipPath>
</defs>
</svg>
