<svg width="62" height="62" viewBox="0 0 62 62" fill="none" xmlns="http://www.w3.org/2000/svg">
<g clip-path="url(#clip0_795_1087)">
<path d="M50.9411 55.046C57.7021 49.6036 62 41.4489 62 32.3323C62 15.947 48.1209 2.66406 31.0001 2.66406C13.8793 2.66406 0 15.9471 0 32.3324C0 37.6976 1.48836 42.73 4.09107 47.0725L50.9411 55.046Z" fill="#73C3F9"/>
<path d="M13.1719 56.6056C18.2148 60.0045 24.3636 62.0015 31.0004 62.0015C37.6371 62.0015 43.7859 60.0044 48.8289 56.6055H13.1719V56.6056Z" fill="#2A428C"/>
<path d="M28.2398 56.6055H13.1719C17.4018 59.4565 22.41 61.3204 27.8313 61.8475C25.3555 60.9484 25.5567 57.1876 28.2398 56.6055Z" fill="#1C2E7A"/>
<path d="M42.2231 37.3613H11.3656C10.318 37.3613 9.46094 38.1816 9.46094 39.1841V40.499H44.1276V39.1841C44.1277 38.1816 43.2706 37.3613 42.2231 37.3613Z" fill="#3C58A0"/>
<path d="M22.8252 37.3613H11.3656C10.318 37.3613 9.46094 38.1816 9.46094 39.1841V40.499H22.4703C22.6863 40.4148 22.8252 40.3831 22.8252 40.3831C20.8956 38.9496 22.8252 37.3613 22.8252 37.3613Z" fill="#2A428C"/>
<path d="M18.916 18.9473L29.4455 6.92381L43.9265 18.5393L33.3971 30.5627L18.916 18.9473Z" fill="#FFB332"/>
<path d="M35.2851 11.8988C35.4117 11.9414 35.5402 11.926 35.6478 11.8735L29.4658 6.91406L18.9297 18.9433L24.9319 23.7585C25.0173 23.6351 25.0385 23.4721 24.9641 23.3231C24.1838 21.7604 25.2018 20.7454 25.2018 20.7454C25.2018 20.7454 30.5633 14.8926 32.1661 12.834C33.209 11.4946 34.5062 11.6364 35.2851 11.8988Z" fill="#FF9100"/>
<path d="M31.4277 4.6406C33.0185 5.91669 44.3469 15.0049 45.9481 16.2893C45.9481 16.2893 44.9981 14.4906 46.3846 12.9075C43.6248 10.6936 36.4573 4.94358 34.8307 3.63867C33.4442 5.22173 31.4277 4.6406 31.4277 4.6406Z" fill="#3C58A0"/>
<path d="M38.0121 9.54042C37.9574 8.31289 38.8441 7.93677 39.3866 7.82149C39.539 7.78904 39.6543 7.68357 39.7074 7.55097C37.5499 5.82006 35.5887 4.2468 34.8307 3.63867C33.4442 5.22161 31.4277 4.6406 31.4277 4.6406C32.1592 5.22742 34.9501 7.46632 37.9072 9.83867C37.9771 9.75754 38.0171 9.65279 38.0121 9.54042Z" fill="#2A428C"/>
<path d="M16.9717 21.1484C18.5624 22.4245 29.8908 31.5127 31.4921 32.7973C31.4921 32.7973 29.4756 32.2162 28.0891 33.7992C25.3292 31.5851 18.1617 25.8351 16.5352 24.5303C17.9217 22.9473 16.9717 21.1484 16.9717 21.1484Z" fill="#3C58A0"/>
<path d="M16.9717 21.1484C16.9717 21.1484 17.9217 22.9472 16.5352 24.5302C17.2669 25.1173 19.1202 26.604 21.1889 28.2637C21.3038 28.171 21.3697 28.028 21.3491 27.8757C21.1899 26.7011 22.1198 26.3872 22.7128 26.3056C22.8773 26.2829 23.0074 26.1769 23.0674 26.0387C20.2558 23.7831 17.6714 21.7098 16.9717 21.1484Z" fill="#2A428C"/>
<path d="M44.2328 24.7489L42.6063 24.6484C42.1492 25.1704 40.2465 27.3427 39.4824 28.215L39.87 29.7301C40.4224 31.89 42.0992 33.6186 44.3026 34.3239C45.9099 34.8385 47.7976 35.8373 49.8714 37.2642C49.944 37.0519 50.0579 36.8489 50.2169 36.6672L53.177 33.2876C53.336 33.106 53.525 32.9632 53.7308 32.8577C51.9004 31.1526 50.5432 29.5483 49.7332 28.1236C48.6227 26.1705 46.5514 24.8923 44.2328 24.7489Z" fill="#3C58A0"/>
<path d="M46.6065 31.2805C46.0436 31.0837 45.6072 30.8012 45.2692 30.4881C44.3222 29.6107 44.2551 28.1749 45.0601 27.1761L46.5653 25.3084C45.8393 24.9946 45.0521 24.7997 44.2328 24.7489L42.6063 24.6484C42.1492 25.1704 40.2465 27.3427 39.4824 28.215L39.87 29.7301C40.4224 31.89 42.0992 33.6186 44.3026 34.3239C45.9099 34.8385 47.7976 35.8373 49.8714 37.2642C49.944 37.0521 50.0579 36.8489 50.2169 36.6672L51.8497 34.8032C50.7028 33.8254 48.2748 31.8637 46.6065 31.2805Z" fill="#2A428C"/>
<path d="M61.2429 38.8604L56.1363 34.7637C56.0642 34.9833 55.9473 35.1933 55.7832 35.3808L52.8232 38.7604C52.6591 38.9478 52.4633 39.0946 52.25 39.2009L59.1603 44.7447C60.0593 42.8795 60.762 40.9103 61.2429 38.8604Z" fill="#3C58A0"/>
<path d="M57.243 39.5259C56.4644 38.9013 56.3435 37.7931 56.9809 37.0361C56.9884 37.0273 56.9951 37.0194 57.0009 37.0127L57.8412 36.1314L56.1363 34.7637C56.0642 34.9833 55.9473 35.1933 55.7832 35.3808L52.8232 38.7604C52.6591 38.9478 52.4633 39.0946 52.25 39.2009L59.1603 44.7447C59.5916 43.8498 59.9764 42.9304 60.3146 41.9902L57.243 39.5259Z" fill="#2A428C"/>
<path d="M46.2287 18.4045C45.6489 19.0664 44.6185 19.1531 43.927 18.5984L29.4066 6.94954C28.715 6.39469 28.6244 5.4085 29.204 4.74672C29.7838 4.08483 30.8142 3.99812 31.5057 4.55285L46.0261 16.2017C46.7177 16.7564 46.8084 17.7426 46.2287 18.4045Z" fill="#FFDD40"/>
<path d="M31.5057 4.55285C30.8142 3.99812 29.7836 4.08483 29.204 4.74672C28.6244 5.4085 28.715 6.39481 29.4066 6.94954L35.5792 11.9014C35.7523 11.8478 35.8879 11.7 35.8991 11.508C35.9644 10.3857 37.0023 10.0786 37.6168 9.99541C37.7779 9.97361 37.9077 9.87299 37.9707 9.7393L31.5057 4.55285Z" fill="#FFB332"/>
<path d="M49.4157 12.735C48.6333 13.6282 47.2425 13.7454 46.3092 12.9966L34.7553 3.72769C33.8221 2.97897 33.6997 1.6479 34.482 0.754717C35.2644 -0.13847 36.6552 -0.255689 37.5885 0.493155L49.1422 9.76216C50.0756 10.5109 50.198 11.8418 49.4157 12.735Z" fill="#4F71B6"/>
<path d="M37.5885 0.493105C36.6552 -0.255618 35.2644 -0.13852 34.482 0.754667C33.6997 1.64785 33.8221 2.97892 34.7553 3.72764L39.6518 7.65568C39.7166 7.57079 39.7507 7.46387 39.7415 7.35246C39.5485 5.00385 41.4699 4.61586 42.2865 4.55653C42.3801 4.54974 42.465 4.51451 42.5346 4.4611L37.5885 0.493105Z" fill="#3C58A0"/>
<path d="M33.715 32.6936C34.2946 32.0317 34.204 31.0455 33.5124 30.4908L18.992 18.8419C18.3006 18.2872 17.27 18.3739 16.6903 19.0358C16.1107 19.6976 16.2013 20.6839 16.8929 21.2386L31.4133 32.8875C32.1048 33.4423 33.1352 33.3555 33.715 32.6936Z" fill="#FFDD40"/>
<path d="M18.992 18.8419C18.3006 18.2872 17.27 18.3739 16.6903 19.0358C16.1107 19.6976 16.2013 20.6839 16.8929 21.2386L23.0061 26.1428C23.0762 26.0566 23.1131 25.9454 23.1011 25.829C22.9561 24.4179 23.8962 24.0399 24.6078 23.9527C24.7949 23.9298 24.9342 23.8056 24.987 23.6513L18.992 18.8419Z" fill="#FFB332"/>
<path d="M28.4391 36.6842C29.2214 35.791 29.0991 34.4599 28.1658 33.7112L16.6119 24.4423C15.6786 23.6936 14.2878 23.8107 13.5055 24.7039C12.7231 25.5971 12.8455 26.9281 13.7788 27.6769L25.3327 36.9457C26.2661 37.6946 27.6568 37.5775 28.4391 36.6842Z" fill="#4F71B6"/>
<path d="M16.6119 24.4423C15.6786 23.6936 14.2878 23.8107 13.5055 24.7039C12.7231 25.5971 12.8455 26.928 13.7788 27.6769L18.4893 31.4558C18.5274 31.3832 18.5458 31.301 18.5363 31.2163C18.2906 29.0241 20.0641 28.4934 20.9577 28.365C21.0889 28.3461 21.1987 28.2754 21.2692 28.1786L16.6119 24.4423Z" fill="#3C58A0"/>
<path d="M43.8896 40.3809H9.6992C6.61517 40.3809 4.0918 42.7958 4.0918 45.7474V47.0707C5.6371 49.6489 7.57642 51.9826 9.82927 53.9995H49.4969V45.7473C49.497 42.7958 46.9736 40.3809 43.8896 40.3809Z" fill="#4F71B6"/>
<path d="M21.4019 53.768C19.9785 53.2187 19.9785 51.6532 19.9785 51.6532C19.9785 51.6532 19.9785 47.5663 19.9785 44.2968C19.9785 41.0273 22.8254 40.3809 22.8254 40.3809H9.6992C6.61517 40.3809 4.0918 42.7958 4.0918 45.7474V47.0707C5.6371 49.6489 7.57642 51.9826 9.82927 53.9995H21.1787C21.3064 53.8529 21.4019 53.768 21.4019 53.768Z" fill="#3C58A0"/>
<path d="M51.2523 54.7922C51.022 54.1957 50.4243 53.7695 49.7209 53.7695H9.56836C10.82 54.9158 12.1718 55.9627 13.6101 56.8969H48.3854C49.3842 56.2481 50.3414 55.5451 51.2523 54.7922Z" fill="#FFDD40"/>
<path d="M21.399 53.7695H9.56836C10.82 54.9158 12.1718 55.9627 13.6101 56.8969H21.399C19.4378 55.5092 21.399 53.7695 21.399 53.7695Z" fill="#FFB332"/>
<path d="M35.9961 27.4444L37.5118 28.6604C38.0988 29.1313 38.9816 29.057 39.4735 28.4952L42.8927 24.5915C43.3848 24.0298 43.3071 23.1849 42.7201 22.7141L41.2044 21.498L35.9961 27.4444Z" fill="#FFDD40"/>
<path d="M55.6454 32.9154C54.8482 32.2757 53.6602 32.3759 52.992 33.1388L50.032 36.5184C49.3636 37.2814 49.4681 38.4183 50.2654 39.0578C51.0627 39.6975 52.2507 39.5974 52.9189 38.8344L55.8789 35.4548C56.5471 34.6919 56.4426 33.555 55.6454 32.9154Z" fill="#FFDD40"/>
<path d="M52.7021 36.2217C52.0859 35.7274 51.8458 34.9644 52.009 34.2617L50.032 36.5189C49.3636 37.2819 49.4681 38.4189 50.2654 39.0584C51.0627 39.698 52.2507 39.598 52.9189 38.8349L54.9949 36.4647C54.272 36.8221 53.3649 36.7535 52.7021 36.2217Z" fill="#FFB332"/>
<path d="M41.2962 21.5703C38.3251 22.1499 36.1653 24.6157 36.0879 27.5167L38.8717 24.699L41.2962 21.5703Z" fill="#FFDD40"/>
</g>
<defs>
<clipPath id="clip0_795_1087">
<rect width="62" height="62" fill="white"/>
</clipPath>
</defs>
</svg>
