<svg width="68" height="68" viewBox="0 0 68 68" fill="none" xmlns="http://www.w3.org/2000/svg">
<g clip-path="url(#clip0_2477_2209)">
<g filter="url(#filter0_f_2477_2209)">
<circle cx="34" cy="64" r="32" fill="#197278"/>
</g>
<g clip-path="url(#clip1_2477_2209)">
<path d="M46.4756 22.5547C44.1811 21.5019 41.7206 20.7262 39.1479 20.2819C39.1011 20.2733 39.0543 20.2948 39.0301 20.3376C38.7137 20.9004 38.3632 21.6346 38.1177 22.2118C35.3507 21.7975 32.5978 21.7975 29.8875 22.2118C29.642 21.6218 29.2788 20.9004 28.9609 20.3376C28.9368 20.2962 28.89 20.2747 28.8431 20.2819C26.2719 20.7247 23.8114 21.5004 21.5154 22.5547C21.4955 22.5633 21.4785 22.5775 21.4672 22.5961C16.8001 29.5686 15.5216 36.3698 16.1488 43.0866C16.1516 43.1195 16.1701 43.1509 16.1956 43.1709C19.2748 45.4323 22.2576 46.805 25.1849 47.715C25.2317 47.7293 25.2814 47.7122 25.3112 47.6736C26.0036 46.728 26.6209 45.7309 27.1501 44.6823C27.1814 44.6209 27.1515 44.548 27.0877 44.5237C26.1086 44.1524 25.1763 43.6995 24.2795 43.1853C24.2085 43.1439 24.2029 43.0424 24.2682 42.9938C24.4569 42.8524 24.6457 42.7053 24.8259 42.5567C24.8585 42.5295 24.9039 42.5238 24.9423 42.5409C30.8339 45.2309 37.2123 45.2309 43.0344 42.5409C43.0727 42.5224 43.1181 42.5281 43.1521 42.5552C43.3324 42.7038 43.5211 42.8523 43.7113 42.9937C43.7765 43.0423 43.7722 43.1438 43.7014 43.1852C42.8045 43.7095 41.8722 44.1523 40.8917 44.5223C40.8279 44.5465 40.7995 44.6208 40.8308 44.6822C41.3714 45.7293 41.9887 46.7264 42.6683 47.6721C42.6967 47.7121 42.7478 47.7293 42.7946 47.7149C45.7361 46.805 48.7189 45.4322 51.7981 43.1709C51.8251 43.1509 51.8421 43.1209 51.8449 43.088C52.5956 35.3227 50.5877 28.5772 46.5223 22.5975C46.5124 22.5775 46.4954 22.5633 46.4756 22.5547ZM28.0301 38.9968C26.2563 38.9968 24.7947 37.3683 24.7947 35.3684C24.7947 33.3685 26.2279 31.7399 28.0301 31.7399C29.8463 31.7399 31.2938 33.3827 31.2654 35.3684C31.2654 37.3683 29.8321 38.9968 28.0301 38.9968ZM39.9922 38.9968C38.2185 38.9968 36.7569 37.3683 36.7569 35.3684C36.7569 33.3685 38.19 31.7399 39.9922 31.7399C41.8085 31.7399 43.2558 33.3827 43.2275 35.3684C43.2275 37.3683 41.8085 38.9968 39.9922 38.9968Z" fill="#5865F2"/>
</g>
</g>
<rect x="0.5" y="0.5" width="67" height="67" rx="14.5" stroke="#197278"/>
<defs>
<filter id="filter0_f_2477_2209" x="-98" y="-68" width="264" height="264" filterUnits="userSpaceOnUse" color-interpolation-filters="sRGB">
<feFlood flood-opacity="0" result="BackgroundImageFix"/>
<feBlend mode="normal" in="SourceGraphic" in2="BackgroundImageFix" result="shape"/>
<feGaussianBlur stdDeviation="50" result="effect1_foregroundBlur_2477_2209"/>
</filter>
<clipPath id="clip0_2477_2209">
<rect width="68" height="68" rx="15" fill="white"/>
</clipPath>
<clipPath id="clip1_2477_2209">
<rect width="36" height="36" fill="white" transform="translate(16 16)"/>
</clipPath>
</defs>
</svg>
