<svg width="68" height="68" viewBox="0 0 68 68" fill="none" xmlns="http://www.w3.org/2000/svg">
<g clip-path="url(#clip0_2474_2110)">
<g filter="url(#filter0_f_2474_2110)">
<circle cx="34" cy="64" r="32" fill="#197278"/>
</g>
<g clip-path="url(#clip1_2474_2110)">
<path d="M29.1786 33.0547C27.1017 33.0547 25.4121 34.7443 25.4121 36.8212V46.2334C25.4121 48.3103 27.1017 49.9999 29.1786 49.9999C31.2555 50 32.9451 48.3104 32.9451 46.2335V36.8212C32.9451 34.7443 31.2555 33.0547 29.1786 33.0547Z" fill="#FF4340"/>
<path d="M23.3026 33.0547H19.6562C17.6455 33.0547 16.0098 34.6905 16.0098 36.7011C16.0098 38.7117 17.6456 40.3475 19.6562 40.3475C21.6668 40.3475 23.3026 38.7117 23.3026 36.7011V33.0547Z" fill="#FF4340"/>
<path d="M16 27.1789C16 29.2557 17.6896 30.9454 19.7665 30.9454H29.1787C31.2557 30.9454 32.9453 29.2557 32.9453 27.1789C32.9453 25.102 31.2557 23.4124 29.1788 23.4124H19.7665C17.6896 23.4123 16 25.102 16 27.1789Z" fill="#36C6FF"/>
<path d="M29.2987 21.3028H32.9452V17.6564C32.9452 15.6458 31.3093 14.01 29.2987 14.01C27.2881 14.01 25.6523 15.6458 25.6523 17.6564C25.6523 19.667 27.2881 21.3028 29.2987 21.3028Z" fill="#36C6FF"/>
<path d="M38.8212 30.9453C40.8981 30.9453 42.5877 29.2557 42.5877 27.1788V17.7665C42.5878 15.6896 40.8981 14 38.8212 14C36.7443 14 35.0547 15.6896 35.0547 17.7665V27.1787C35.0547 29.2557 36.7443 30.9453 38.8212 30.9453Z" fill="#0DC46E"/>
<path d="M44.6973 30.9453H48.3437C50.3543 30.9453 51.9901 29.3095 51.9901 27.2989C51.9901 25.2882 50.3543 23.6525 48.3437 23.6525C46.3331 23.6525 44.6973 25.2883 44.6973 27.2989V30.9453Z" fill="#0DC46E"/>
<path d="M52 36.8212C52 34.7443 50.3104 33.0547 48.2335 33.0547H38.8212C36.7443 33.0547 35.0547 34.7443 35.0547 36.8212C35.0547 38.8981 36.7443 40.5877 38.8212 40.5877H48.2334C50.3104 40.5878 52 38.8981 52 36.8212Z" fill="#FDCB02"/>
<path d="M38.7011 42.6971H35.0547V46.3436C35.0547 48.3542 36.6905 49.99 38.7011 49.99C40.7117 49.99 42.3475 48.3541 42.3475 46.3436C42.3475 44.333 40.7117 42.6971 38.7011 42.6971Z" fill="#FDCB02"/>
</g>
</g>
<rect x="0.5" y="0.5" width="67" height="67" rx="14.5" stroke="#197278"/>
<defs>
<filter id="filter0_f_2474_2110" x="-98" y="-68" width="264" height="264" filterUnits="userSpaceOnUse" color-interpolation-filters="sRGB">
<feFlood flood-opacity="0" result="BackgroundImageFix"/>
<feBlend mode="normal" in="SourceGraphic" in2="BackgroundImageFix" result="shape"/>
<feGaussianBlur stdDeviation="50" result="effect1_foregroundBlur_2474_2110"/>
</filter>
<clipPath id="clip0_2474_2110">
<rect width="68" height="68" rx="15" fill="white"/>
</clipPath>
<clipPath id="clip1_2474_2110">
<rect width="36" height="36" fill="white" transform="translate(16 14)"/>
</clipPath>
</defs>
</svg>
