<svg width="68" height="68" viewBox="0 0 68 68" fill="none" xmlns="http://www.w3.org/2000/svg">
<g clip-path="url(#clip0_2477_2196)">
<g filter="url(#filter0_f_2477_2196)">
<circle cx="34" cy="64" r="32" fill="#197278"/>
</g>
<path d="M46.2495 28.9172C48.3364 28.9172 50.0342 27.2147 50.0342 25.1228C49.8265 20.0889 42.6722 20.0903 42.4648 25.1228C42.4648 27.2147 44.163 28.9172 46.2495 28.9172Z" fill="#464EB8"/>
<path d="M48.7453 29.9356H41.9899H41.977C41.9752 29.9356 41.9759 29.9356 41.9737 29.9356C41.5695 29.9356 36.2839 29.9356 34.5801 29.9356V28.6108C34.8623 28.6609 35.1579 28.6943 35.4682 28.7073C35.5017 28.7077 35.5351 28.7051 35.5686 28.7048C35.6975 28.7026 35.8253 28.6965 35.9513 28.6857C35.9945 28.6817 36.0373 28.6781 36.0798 28.6731C36.2249 28.6569 36.3682 28.6357 36.5093 28.6079C36.5179 28.6061 36.5273 28.6051 36.5359 28.6036C37.2048 28.4672 37.8355 28.2004 38.3961 27.8224C38.9145 27.4729 39.3634 27.0293 39.7255 26.521C39.8191 26.3983 39.9045 26.2701 39.984 26.1391C39.9916 26.1261 39.9999 26.1139 40.0074 26.1005C40.0686 25.9972 40.1226 25.8903 40.1752 25.7823C40.1982 25.7355 40.222 25.6887 40.2436 25.6412C40.299 25.517 40.3501 25.3906 40.3951 25.2621C40.3991 25.2513 40.4031 25.2409 40.4067 25.2304C40.9204 23.7155 40.6853 21.9343 39.8033 20.6023C39.57 20.2606 39.2932 19.9521 38.9868 19.6756C38.9235 19.6205 38.863 19.5626 38.7964 19.5111C38.5393 19.2994 38.2618 19.1119 37.9669 18.9524C37.8193 18.8725 37.6678 18.7994 37.5123 18.7339C37.356 18.6647 37.1929 18.6079 37.0273 18.5564C36.9323 18.5272 36.8337 18.5056 36.7365 18.4819C36.6504 18.461 36.5655 18.4383 36.4783 18.4221C36.4063 18.4084 36.3325 18.3998 36.2598 18.389C36.1331 18.371 36.0064 18.3544 35.8782 18.3454C35.8343 18.3422 35.79 18.3411 35.7457 18.3389C35.6154 18.3325 35.4847 18.3328 35.3541 18.3364C34.6053 18.38 33.9407 18.5373 33.3586 18.7828C33.2398 18.8365 33.1195 18.8887 33.0076 18.952C31.8405 19.5878 30.9477 20.6699 30.5355 21.9375C30.2496 22.8839 30.2251 23.906 30.4681 24.8639C30.4707 24.8729 30.4728 24.8823 30.4753 24.8913C30.4869 24.9327 30.4987 24.9741 30.5103 25.0155C30.5243 25.0648 30.5409 25.1138 30.5563 25.1627C30.5704 25.2023 30.5851 25.2416 30.5999 25.2812H19.1591C18.1345 25.2812 17.3008 26.1149 17.3008 27.1395V40.7014C17.3008 41.7263 18.1345 42.5597 19.1591 42.5597H26.403C26.4124 42.6022 26.4243 42.6433 26.4343 42.6854C27.4315 46.609 30.921 49.3839 35.0445 49.484C38.4655 49.4008 41.4042 47.4244 42.8755 44.5909C42.8975 44.5988 42.9202 44.6045 42.9421 44.6121C46.6077 45.9985 50.7729 43.0897 50.6987 39.1649V31.8839C50.6991 30.8097 49.8225 29.9356 48.7453 29.9356Z" fill="#464EB8"/>
<path d="M43.8799 31.9235C43.9047 30.8539 43.0566 29.9622 41.9895 29.9359C41.9852 29.9359 34.274 29.9359 34.274 29.9359C33.99 29.9359 33.7596 30.1667 33.7596 30.4518V40.926C33.7596 41.4091 33.3675 41.8019 32.8855 41.8019H26.8717C26.7172 41.8019 26.5707 41.8717 26.4732 41.9916C26.3756 42.1118 26.3367 42.2695 26.368 42.4214C27.2202 46.5834 30.7773 49.5628 35.044 49.6668C40.0322 49.5444 43.9958 45.3778 43.8799 40.3907V31.9235Z" fill="#7B83EB"/>
<path d="M35.4678 28.7073C35.5013 28.7076 35.5348 28.7051 35.5683 28.7047C35.6972 28.7029 35.825 28.6965 35.9513 28.6857C35.9945 28.6817 36.0374 28.6781 36.0798 28.6731C36.2246 28.6569 36.3682 28.6356 36.5093 28.6079C36.518 28.6061 36.5273 28.605 36.536 28.6032C37.2048 28.4668 37.8356 28.2 38.3961 27.822C38.9148 27.4725 39.3634 27.0289 39.7259 26.5206C39.8195 26.3979 39.9048 26.2697 39.9844 26.1387C39.992 26.1257 40.0002 26.1135 40.0078 26.1001C40.069 25.9968 40.123 25.8895 40.1756 25.7819C40.1986 25.7351 40.2224 25.6887 40.244 25.6408C40.2994 25.5166 40.3509 25.3902 40.3955 25.2617C40.3995 25.2509 40.4034 25.2405 40.407 25.23C40.9208 23.7151 40.6857 21.9335 39.8037 20.6019C39.5704 20.2602 39.2936 19.9517 38.9872 19.6752C38.9238 19.6201 38.8634 19.5622 38.7968 19.5107C38.5397 19.299 38.2622 19.1115 37.9673 18.952C37.8197 18.8721 37.6682 18.799 37.5126 18.7335C37.3564 18.6643 37.1933 18.6075 37.0277 18.556C36.9327 18.5268 36.834 18.5056 36.7368 18.4815C36.6508 18.4606 36.5658 18.4379 36.4787 18.4217C36.4067 18.408 36.3333 18.3994 36.2602 18.3886C36.1335 18.3706 36.0068 18.354 35.8786 18.345C35.8347 18.3418 35.7904 18.3407 35.7465 18.3385C35.6162 18.3328 35.4855 18.3331 35.3548 18.3367C34.606 18.3803 33.9414 18.5373 33.3593 18.7831C33.2405 18.8368 33.1203 18.889 33.0083 18.9523C31.8412 19.5885 30.948 20.6706 30.5362 21.9382C30.2504 22.8846 30.2259 23.9067 30.4689 24.8646C30.4714 24.8736 30.4736 24.883 30.4761 24.892C30.4876 24.9334 30.4995 24.9748 30.511 25.0162C30.525 25.0655 30.5416 25.1145 30.5571 25.1634C30.5787 25.225 30.6014 25.2858 30.6244 25.347H30.6147C31.2537 27.1387 32.8712 28.5975 35.4678 28.7073Z" fill="#7B83EB"/>
<path d="M32.7217 25.2819H19.1591C18.1345 25.2819 17.3008 26.1156 17.3008 27.1402V40.7021C17.3008 41.727 18.1345 42.5604 19.1591 42.5604H32.7217C33.7463 42.5604 34.5797 41.7267 34.5797 40.7021V27.1402C34.5801 26.1156 33.7467 25.2819 32.7217 25.2819Z" fill="#464EB8"/>
<path d="M29.359 29.0575H22.4182C22.1407 29.0575 21.916 29.2825 21.916 29.5601V30.8251C21.916 31.1027 22.1407 31.3277 22.4182 31.3277H24.6574V38.3747C24.6574 38.6522 24.8821 38.8772 25.1596 38.8772H26.6479C26.9254 38.8772 27.1501 38.6522 27.1501 38.3747V31.3277H29.359C29.6366 31.3277 29.8612 31.1027 29.8612 30.8251V29.5601C29.8612 29.2825 29.6366 29.0575 29.359 29.0575Z" fill="white"/>
</g>
<rect x="0.5" y="0.5" width="67" height="67" rx="14.5" stroke="#197278"/>
<defs>
<filter id="filter0_f_2477_2196" x="-98" y="-68" width="264" height="264" filterUnits="userSpaceOnUse" color-interpolation-filters="sRGB">
<feFlood flood-opacity="0" result="BackgroundImageFix"/>
<feBlend mode="normal" in="SourceGraphic" in2="BackgroundImageFix" result="shape"/>
<feGaussianBlur stdDeviation="50" result="effect1_foregroundBlur_2477_2196"/>
</filter>
<clipPath id="clip0_2477_2196">
<rect width="68" height="68" rx="15" fill="white"/>
</clipPath>
</defs>
</svg>
