<svg width="613" height="36" viewBox="0 0 613 36" fill="none" xmlns="http://www.w3.org/2000/svg">
<g style="mix-blend-mode:luminosity">
<g clip-path="url(#clip0_2474_2075)">
<path d="M25.0336 10.7314H26.174L29.4241 7.48135L29.5837 6.1015C27.7219 4.45818 25.4718 3.31661 23.0461 2.78465C20.6204 2.25269 18.0992 2.3479 15.7205 3.06127C13.3418 3.77464 11.1843 5.08263 9.45167 6.86169C7.71906 8.64074 6.46858 10.8321 5.81836 13.2288C6.18043 13.0804 6.58151 13.0564 6.95873 13.1604L13.4589 12.0885C13.4589 12.0885 13.7896 11.5411 13.9606 11.5753C15.3534 10.0457 17.2782 9.10627 19.3409 8.94939C21.4037 8.79251 23.4484 9.43002 25.0564 10.7314H25.0336Z" fill="#EA4335"/>
<path d="M34.0544 13.2287C33.3074 10.4777 31.7736 8.00461 29.6412 6.11279L25.0797 10.6743C26.0304 11.4511 26.7922 12.4336 27.3078 13.5477C27.8234 14.6619 28.0792 15.8785 28.0561 17.106V17.9156C28.5892 17.9156 29.1171 18.0207 29.6097 18.2247C30.1022 18.4287 30.5497 18.7277 30.9267 19.1047C31.3037 19.4817 31.6027 19.9292 31.8068 20.4218C32.0108 20.9143 32.1158 21.4422 32.1158 21.9754C32.1158 22.5085 32.0108 23.0364 31.8068 23.529C31.6027 24.0215 31.3037 24.469 30.9267 24.846C30.5497 25.223 30.1022 25.522 29.6097 25.7261C29.1171 25.9301 28.5892 26.0351 28.0561 26.0351H19.9366L19.127 26.8562V31.7256L19.9366 32.5352H28.0561C30.3234 32.5529 32.5362 31.8403 34.3671 30.5028C36.1981 29.1654 37.5499 27.2741 38.2226 25.1088C38.8954 22.9435 38.8533 20.6192 38.1026 18.4796C37.352 16.3401 35.9326 14.499 34.0544 13.2287Z" fill="#4285F4"/>
<path d="M11.8044 32.4896H19.9238V25.9894H11.8044C11.2259 25.9893 10.6542 25.8649 10.128 25.6245L8.98765 25.978L5.71478 29.2281L5.42969 30.3685C7.26504 31.7544 9.50456 32.4995 11.8044 32.4896Z" fill="#34A853"/>
<path d="M11.8054 11.4041C9.60538 11.4173 7.46444 12.1172 5.68156 13.4062C3.89868 14.6951 2.5629 16.5088 1.86079 18.5937C1.15868 20.6787 1.1253 22.9309 1.76532 25.0358C2.40533 27.1407 3.68678 28.9931 5.43068 30.3343L10.1404 25.6246C9.54191 25.3542 9.01794 24.9426 8.61346 24.4252C8.20898 23.9077 7.93608 23.2999 7.81816 22.6538C7.70024 22.0077 7.74083 21.3427 7.93644 20.7157C8.13206 20.0888 8.47686 19.5186 8.94125 19.0542C9.40565 18.5898 9.97579 18.245 10.6027 18.0494C11.2297 17.8538 11.8947 17.8132 12.5408 17.9312C13.1869 18.0491 13.7947 18.322 14.3122 18.7265C14.8296 19.1309 15.2412 19.6549 15.5116 20.2534L20.2213 15.5437C19.2328 14.2514 17.9587 13.2052 16.4987 12.4871C15.0387 11.769 13.4324 11.3983 11.8054 11.4041Z" fill="#FBBC05"/>
<path d="M60.315 27.951C58.917 27.9688 57.5299 27.7043 56.2366 27.1732C54.9434 26.6422 53.7706 25.8556 52.7885 24.8606C51.7756 23.9078 50.9717 22.7548 50.4279 21.4749C49.8841 20.1949 49.6123 18.8159 49.6297 17.4253C49.613 16.0349 49.8851 14.6561 50.4289 13.3763C50.9726 12.0964 51.7761 10.9434 52.7885 9.99012C53.7658 8.98477 54.9364 8.18762 56.2299 7.64671C57.5234 7.10579 58.913 6.83229 60.315 6.84269C61.6509 6.82489 62.977 7.0728 64.2162 7.57201C65.4554 8.07123 66.583 8.81179 67.5335 9.75064L65.5037 11.8147C64.1136 10.4713 62.2479 9.73324 60.315 9.76205C59.3123 9.74973 58.318 9.94614 57.3953 10.3388C56.4725 10.7314 55.6416 11.3117 54.9552 12.0428C54.2419 12.7505 53.6792 13.5952 53.3009 14.5261C52.9227 15.457 52.7367 16.4549 52.7543 17.4596C52.7459 18.4528 52.9364 19.4376 53.3143 20.3561C53.6923 21.2746 54.2502 22.1083 54.9552 22.8079C56.3674 24.2152 58.2731 25.0158 60.2667 25.0392C62.2603 25.0627 64.1842 24.3071 65.6291 22.9333C66.5236 21.9538 67.0724 20.708 67.1914 19.3868H60.3492V16.4674H70.031C70.1261 17.0554 70.1643 17.6511 70.145 18.2464C70.2052 19.4785 70.0149 20.71 69.5857 21.8664C69.1564 23.0228 68.4971 24.0802 67.6476 24.9746C66.703 25.958 65.5619 26.7313 64.2984 27.2442C63.035 27.757 61.6777 27.9978 60.315 27.951ZM82.8259 26.0124C81.5266 27.2578 79.7963 27.9532 77.9965 27.9532C76.1966 27.9532 74.4663 27.2578 73.167 26.0124C72.5203 25.3853 72.0109 24.6307 71.6713 23.7963C71.3317 22.962 71.1692 22.0662 71.1941 21.1658C71.1699 20.2654 71.3327 19.3698 71.6723 18.5356C72.0119 17.7014 72.5208 16.9467 73.167 16.3192C74.4676 15.0763 76.1974 14.3827 77.9965 14.3827C79.7955 14.3827 81.5253 15.0763 82.8259 16.3192C83.4721 16.9467 83.981 17.7014 84.3206 18.5356C84.6602 19.3698 84.823 20.2654 84.7988 21.1658C84.8222 22.0671 84.6579 22.9634 84.3163 23.7977C83.9747 24.6321 83.4633 25.3863 82.8145 26.0124H82.8259ZM75.2995 24.1079C75.6451 24.477 76.0628 24.7712 76.5267 24.9724C76.9906 25.1735 77.4908 25.2773 77.9965 25.2773C78.5021 25.2773 79.0023 25.1735 79.4662 24.9724C79.9301 24.7712 80.3478 24.477 80.6934 24.1079C81.0703 23.7185 81.3653 23.2575 81.5612 22.7522C81.757 22.2469 81.8497 21.7075 81.8338 21.1658C81.8506 20.6222 81.7584 20.0809 81.5625 19.5736C81.3666 19.0663 81.0711 18.6034 80.6934 18.2122C80.3433 17.8469 79.9228 17.5562 79.4573 17.3576C78.9919 17.1591 78.4911 17.0567 77.9851 17.0567C77.479 17.0567 76.9782 17.1591 76.5128 17.3576C76.0473 17.5562 75.6269 17.8469 75.2767 18.2122C74.899 18.6034 74.6035 19.0663 74.4076 19.5736C74.2117 20.0809 74.1195 20.6222 74.1363 21.1658C74.1219 21.7083 74.2164 22.2481 74.4142 22.7535C74.612 23.2588 74.9092 23.7194 75.2881 24.1079H75.2995ZM97.6736 26.0124C96.3742 27.2578 94.644 27.9532 92.8441 27.9532C91.0442 27.9532 89.314 27.2578 88.0146 26.0124C87.3679 25.3853 86.8586 24.6307 86.519 23.7963C86.1793 22.962 86.0168 22.0662 86.0418 21.1658C86.0175 20.2654 86.1804 19.3698 86.5199 18.5356C86.8595 17.7014 87.3685 16.9467 88.0146 16.3192C89.314 15.0737 91.0442 14.3783 92.8441 14.3783C94.644 14.3783 96.3742 15.0737 97.6736 16.3192C98.3197 16.9467 98.8287 17.7014 99.1683 18.5356C99.5078 19.3698 99.6707 20.2654 99.6464 21.1658C99.6713 22.0662 99.5089 22.962 99.1692 23.7963C98.8296 24.6307 98.3203 25.3853 97.6736 26.0124ZM90.1471 24.1079C90.4927 24.477 90.9104 24.7712 91.3743 24.9724C91.8382 25.1735 92.3385 25.2773 92.8441 25.2773C93.3497 25.2773 93.85 25.1735 94.3139 24.9724C94.7778 24.7712 95.1955 24.477 95.5411 24.1079C95.9179 23.7185 96.213 23.2575 96.4088 22.7522C96.6047 22.2469 96.6974 21.7075 96.6815 21.1658C96.6983 20.6222 96.606 20.0809 96.4101 19.5736C96.2143 19.0663 95.9188 18.6034 95.5411 18.2122C95.1909 17.8469 94.7704 17.5562 94.305 17.3576C93.8395 17.1591 93.3387 17.0567 92.8327 17.0567C92.3267 17.0567 91.8259 17.1591 91.3604 17.3576C90.895 17.5562 90.4745 17.8469 90.1243 18.2122C89.7466 18.6034 89.4511 19.0663 89.2552 19.5736C89.0594 20.0809 88.9671 20.6222 88.9839 21.1658C88.9695 21.7083 89.064 22.2481 89.2619 22.7535C89.4597 23.2588 89.7568 23.7194 90.1357 24.1079H90.1471ZM107.435 34.0406C106.068 34.084 104.728 33.6574 103.638 32.8318C102.67 32.1041 101.907 31.1374 101.425 30.0265L104.025 28.9431C104.308 29.607 104.751 30.1907 105.314 30.6423C105.917 31.128 106.673 31.3828 107.447 31.3607C107.937 31.3905 108.428 31.3143 108.887 31.1372C109.346 30.9601 109.76 30.6863 110.104 30.3344C110.791 29.5056 111.13 28.4429 111.05 27.3694V26.3887H110.948C110.513 26.9048 109.964 27.3126 109.345 27.5799C108.725 27.8471 108.052 27.9663 107.378 27.9282C106.522 27.9308 105.675 27.7558 104.889 27.4142C104.104 27.0727 103.398 26.5721 102.817 25.9439C102.185 25.3208 101.687 24.5761 101.352 23.7548C101.017 22.9335 100.852 22.0527 100.867 21.1658C100.851 20.2736 101.015 19.3875 101.351 18.5606C101.686 17.7336 102.184 16.9829 102.817 16.3534C103.397 15.7226 104.102 15.2195 104.888 14.8759C105.673 14.5324 106.521 14.3559 107.378 14.3577C108.104 14.3565 108.82 14.5162 109.476 14.8253C110.044 15.0732 110.55 15.4431 110.959 15.9087H111.062V14.8253H113.89V26.9703C113.964 27.931 113.842 28.8968 113.53 29.8086C113.218 30.7204 112.724 31.559 112.076 32.273C111.46 32.8627 110.732 33.3229 109.935 33.6265C109.138 33.93 108.288 34.0709 107.435 34.0406ZM107.64 25.2825C108.127 25.2932 108.611 25.1966 109.056 24.9995C109.502 24.8024 109.898 24.5097 110.218 24.1421C110.921 23.3358 111.292 22.2923 111.255 21.2228C111.298 20.1352 110.927 19.072 110.218 18.2464C109.899 17.8782 109.502 17.5851 109.057 17.388C108.611 17.1908 108.127 17.0945 107.64 17.106C107.14 17.0958 106.643 17.1922 106.183 17.3888C105.723 17.5854 105.31 17.8778 104.972 18.2464C104.218 19.0423 103.808 20.1037 103.832 21.2C103.82 21.7377 103.915 22.2725 104.11 22.7734C104.306 23.2744 104.599 23.7318 104.972 24.1193C105.309 24.4915 105.721 24.7878 106.181 24.9883C106.641 25.1889 107.139 25.2892 107.64 25.2825ZM118.919 7.60674V27.5404H115.942V7.60674H118.919ZM127.084 27.951C126.192 27.9739 125.306 27.8125 124.48 27.477C123.654 27.1414 122.906 26.6389 122.283 26.0009C121.651 25.3676 121.154 24.6125 120.823 23.7813C120.491 22.9501 120.332 22.0602 120.356 21.1658C120.322 20.2691 120.469 19.3748 120.788 18.5363C121.108 17.6977 121.593 16.9321 122.214 16.285C122.8 15.6674 123.509 15.179 124.294 14.8511C125.08 14.5231 125.925 14.3629 126.776 14.3806C127.558 14.3723 128.334 14.5236 129.057 14.8253C129.707 15.0878 130.3 15.4753 130.801 15.9657C131.232 16.3814 131.615 16.8443 131.942 17.3455C132.206 17.7687 132.432 18.2154 132.615 18.6798L132.922 19.4552L123.799 23.207C124.075 23.841 124.537 24.3764 125.123 24.7429C125.709 25.1093 126.393 25.2895 127.084 25.2597C127.756 25.2615 128.417 25.0892 129.002 24.7594C129.588 24.4296 130.078 23.9537 130.425 23.3781L132.706 24.9176C132.124 25.7503 131.379 26.4564 130.516 26.9931C129.49 27.6412 128.297 27.9743 127.084 27.951ZM123.275 20.9605L129.342 18.4403C129.155 17.9959 128.821 17.6294 128.395 17.4025C127.919 17.1336 127.38 16.9959 126.833 17.0034C125.905 17.0274 125.024 17.4168 124.381 18.0868C123.997 18.4548 123.698 18.9032 123.507 19.4C123.316 19.8967 123.236 20.4296 123.275 20.9605ZM148.511 27.951C147.246 27.9728 145.988 27.7387 144.815 27.2626C143.642 26.7865 142.578 26.0782 141.685 25.1804C140.792 24.2825 140.091 23.2136 139.621 22.0377C139.152 20.8618 138.926 19.6033 138.955 18.3376C138.926 17.072 139.152 15.8135 139.621 14.6376C140.091 13.4617 140.792 12.3928 141.685 11.4949C142.578 10.5971 143.642 9.88883 144.815 9.41272C145.988 8.93661 147.246 8.70246 148.511 8.72431C149.793 8.68425 151.066 8.93422 152.237 9.45554C153.408 9.97685 154.446 10.756 155.274 11.7349L153.632 13.3314C153.024 12.5672 152.245 11.9572 151.357 11.551C150.469 11.1448 149.498 10.9538 148.523 10.9936C147.584 10.9725 146.65 11.1414 145.778 11.4902C144.906 11.8391 144.114 12.3606 143.448 13.0235C142.756 13.7192 142.216 14.5503 141.861 15.4648C141.505 16.3793 141.343 17.3574 141.384 18.3376C141.343 19.3179 141.505 20.2959 141.861 21.2104C142.216 22.125 142.756 22.9561 143.448 23.6518C144.114 24.3147 144.906 24.8362 145.778 25.1851C146.65 25.5339 147.584 25.7028 148.523 25.6816C149.613 25.6939 150.691 25.4603 151.678 24.9983C152.665 24.5363 153.536 23.8578 154.225 23.0132L155.867 24.6553C155.007 25.6835 153.928 26.5057 152.708 27.0615C151.393 27.6684 149.959 27.9724 148.511 27.951ZM160.28 27.5404H157.919V9.12344H160.28V27.5404ZM164.134 16.456C165.371 15.2276 167.044 14.5382 168.787 14.5382C170.53 14.5382 172.203 15.2276 173.44 16.456C174.045 17.0947 174.517 17.8466 174.831 18.6686C175.144 19.4906 175.291 20.3664 175.265 21.2456C175.291 22.1248 175.144 23.0006 174.831 23.8226C174.517 24.6446 174.045 25.3965 173.44 26.0352C172.203 27.2636 170.53 27.953 168.787 27.953C167.044 27.953 165.371 27.2636 164.134 26.0352C163.53 25.3965 163.057 24.6446 162.744 23.8226C162.431 23.0006 162.283 22.1248 162.31 21.2456C162.283 20.3664 162.431 19.4906 162.744 18.6686C163.057 17.8466 163.53 17.0947 164.134 16.456ZM165.891 24.5527C166.263 24.9457 166.711 25.2588 167.208 25.4728C167.705 25.6868 168.24 25.7971 168.781 25.7971C169.323 25.7971 169.858 25.6868 170.355 25.4728C170.852 25.2588 171.3 24.9457 171.672 24.5527C172.085 24.1099 172.405 23.5895 172.615 23.0218C172.824 22.454 172.919 21.8502 172.893 21.2456C172.919 20.641 172.824 20.0372 172.615 19.4694C172.405 18.9017 172.085 18.3812 171.672 17.9385C171.3 17.5454 170.852 17.2324 170.355 17.0184C169.858 16.8044 169.323 16.6941 168.781 16.6941C168.24 16.6941 167.705 16.8044 167.208 17.0184C166.711 17.2324 166.263 17.5454 165.891 17.9385C165.478 18.3812 165.158 18.9017 164.948 19.4694C164.739 20.0372 164.644 20.641 164.67 21.2456C164.647 21.8491 164.744 22.4512 164.956 23.017C165.167 23.5827 165.489 24.1008 165.902 24.5413L165.891 24.5527ZM188.345 27.5404H186.064V25.7957H185.995C185.589 26.4584 185.015 27.0014 184.33 27.3694C183.62 27.781 182.814 27.9974 181.993 27.9966C181.326 28.0422 180.658 27.9367 180.038 27.6879C179.418 27.439 178.862 27.0534 178.412 26.5597C177.548 25.4671 177.114 24.096 177.192 22.7053V14.9507H179.552V22.2719C179.552 24.6211 180.59 25.7957 182.666 25.7957C183.127 25.8101 183.585 25.7141 184.001 25.5157C184.418 25.3174 184.781 25.0224 185.06 24.6553C185.672 23.8799 185.998 22.9174 185.984 21.9298V14.9507H188.345V27.5404ZM196.361 27.951C195.561 27.9536 194.769 27.7827 194.04 27.45C193.312 27.1173 192.664 26.6307 192.142 26.0238C190.96 24.7179 190.327 23.0065 190.374 21.2456C190.327 19.4847 190.96 17.7732 192.142 16.4674C192.664 15.8604 193.312 15.3738 194.04 15.0412C194.769 14.7085 195.561 14.5375 196.361 14.5402C197.259 14.526 198.145 14.7378 198.939 15.156C199.636 15.507 200.227 16.0387 200.649 16.6955H200.752L200.649 14.9507V9.12344H203.01V27.5404H200.729V25.7957H200.626C200.204 26.4525 199.613 26.9842 198.916 27.3352C198.129 27.7497 197.251 27.9613 196.361 27.951ZM196.749 25.7957C197.283 25.8034 197.812 25.6977 198.301 25.4853C198.791 25.273 199.23 24.959 199.589 24.5641C200.391 23.651 200.8 22.4587 200.729 21.2456C200.8 20.0325 200.391 18.8402 199.589 17.9271C199.227 17.5301 198.787 17.2129 198.296 16.9959C197.805 16.7788 197.274 16.6667 196.738 16.6667C196.201 16.6667 195.67 16.7788 195.179 16.9959C194.688 17.2129 194.248 17.5301 193.887 17.9271C193.488 18.3762 193.183 18.8995 192.987 19.467C192.791 20.0345 192.71 20.635 192.746 21.2342C192.71 21.8333 192.791 22.4339 192.987 23.0014C193.183 23.5689 193.488 24.0922 193.887 24.5413C194.246 24.9432 194.688 25.2632 195.182 25.4796C195.675 25.6961 196.21 25.8038 196.749 25.7957Z" fill="white"/>
</g>
<g clip-path="url(#clip1_2474_2075)">
<path d="M279.115 12.9096C279.115 13.6036 279.19 14.1664 279.323 14.579C279.475 14.9917 279.665 15.4418 279.93 15.9295C280.025 16.0796 280.063 16.2296 280.063 16.3609C280.063 16.5485 279.949 16.736 279.703 16.9236L278.508 17.7114C278.337 17.8239 278.166 17.8802 278.015 17.8802C277.825 17.8802 277.635 17.7864 277.446 17.6176C277.18 17.3363 276.953 17.0362 276.763 16.736C276.573 16.4172 276.384 16.0608 276.175 15.6294C274.696 17.355 272.837 18.2178 270.599 18.2178C269.006 18.2178 267.735 17.7677 266.806 16.8673C265.876 15.967 265.402 14.7666 265.402 13.266C265.402 11.6717 265.971 10.3775 267.128 9.4021C268.285 8.42674 269.821 7.93906 271.775 7.93906C272.42 7.93906 273.083 7.99533 273.785 8.08911C274.487 8.1829 275.208 8.33295 275.966 8.50177V7.13251C275.966 5.70699 275.663 4.71287 275.075 4.13141C274.468 3.54994 273.444 3.26859 271.983 3.26859C271.32 3.26859 270.637 3.34361 269.935 3.51243C269.233 3.68124 268.551 3.88757 267.887 4.15016C267.583 4.28146 267.356 4.35649 267.223 4.394C267.09 4.43152 266.995 4.45027 266.92 4.45027C266.654 4.45027 266.521 4.2627 266.521 3.86881V2.94972C266.521 2.64961 266.559 2.42453 266.654 2.29323C266.749 2.16193 266.92 2.03063 267.185 1.89933C267.849 1.56171 268.645 1.28035 269.575 1.05527C270.504 0.811432 271.49 0.698891 272.533 0.698891C274.79 0.698891 276.44 1.20533 277.503 2.2182C278.546 3.23107 279.077 4.76914 279.077 6.8324V12.9096H279.115ZM271.415 15.7607C272.04 15.7607 272.685 15.6481 273.368 15.4231C274.051 15.198 274.658 14.7853 275.17 14.2226C275.473 13.8662 275.701 13.4723 275.815 13.0222C275.928 12.572 276.004 12.0281 276.004 11.3903V10.6025C275.454 10.4712 274.866 10.3587 274.259 10.2837C273.652 10.2086 273.065 10.1711 272.477 10.1711C271.206 10.1711 270.277 10.415 269.651 10.9214C269.025 11.4278 268.721 12.1406 268.721 13.0785C268.721 13.96 268.949 14.6165 269.423 15.0667C269.878 15.5356 270.542 15.7607 271.415 15.7607ZM286.644 17.7864C286.303 17.7864 286.075 17.7302 285.923 17.5989C285.772 17.4863 285.639 17.2237 285.525 16.8673L281.068 2.36826C280.954 1.99312 280.897 1.74928 280.897 1.61798C280.897 1.31787 281.049 1.14906 281.353 1.14906H283.211C283.572 1.14906 283.818 1.20533 283.951 1.33663C284.103 1.44917 284.216 1.71176 284.33 2.06815L287.516 14.4852L290.475 2.06815C290.57 1.69301 290.684 1.44917 290.835 1.33663C290.987 1.22408 291.253 1.14906 291.594 1.14906H293.111C293.472 1.14906 293.718 1.20533 293.87 1.33663C294.022 1.44917 294.155 1.71176 294.23 2.06815L297.227 14.6353L300.508 2.06815C300.622 1.69301 300.755 1.44917 300.887 1.33663C301.039 1.22408 301.286 1.14906 301.627 1.14906H303.391C303.694 1.14906 303.865 1.29911 303.865 1.61798C303.865 1.71176 303.846 1.80555 303.827 1.91809C303.808 2.03063 303.77 2.18069 303.694 2.38701L299.124 16.8861C299.01 17.2612 298.877 17.5051 298.725 17.6176C298.574 17.7302 298.327 17.8052 298.005 17.8052H296.374C296.013 17.8052 295.767 17.7489 295.615 17.6176C295.463 17.4863 295.33 17.2425 295.255 16.8673L292.315 4.76914L289.394 16.8486C289.299 17.2237 289.185 17.4676 289.034 17.5989C288.882 17.7302 288.616 17.7864 288.275 17.7864H286.644ZM311.015 18.2929C310.029 18.2929 309.043 18.1803 308.094 17.9552C307.146 17.7302 306.406 17.4863 305.913 17.205C305.61 17.0362 305.401 16.8486 305.325 16.6798C305.25 16.511 305.212 16.3234 305.212 16.1546V15.198C305.212 14.8041 305.363 14.6165 305.648 14.6165C305.762 14.6165 305.875 14.6353 305.989 14.6728C306.103 14.7103 306.274 14.7853 306.463 14.8604C307.108 15.1417 307.81 15.3668 308.55 15.5169C309.308 15.6669 310.048 15.7419 310.806 15.7419C312.001 15.7419 312.931 15.5356 313.576 15.123C314.22 14.7103 314.562 14.1101 314.562 13.341C314.562 12.8159 314.391 12.3844 314.05 12.0281C313.708 11.6717 313.063 11.3528 312.134 11.0527L309.384 10.2086C308 9.77724 306.975 9.1395 306.35 8.29544C305.724 7.47014 305.401 6.55105 305.401 5.57569C305.401 4.7879 305.572 4.09389 305.913 3.49367C306.255 2.89345 306.71 2.36826 307.279 1.9556C307.848 1.52419 308.493 1.20533 309.251 0.980244C310.01 0.755161 310.806 0.661377 311.641 0.661377C312.058 0.661377 312.494 0.680134 312.912 0.736405C313.348 0.792675 313.746 0.867703 314.144 0.942731C314.524 1.03652 314.884 1.1303 315.226 1.24284C315.567 1.35538 315.832 1.46792 316.022 1.58047C316.288 1.73052 316.477 1.88058 316.591 2.04939C316.705 2.19944 316.762 2.40577 316.762 2.66837V3.54994C316.762 3.94384 316.61 4.15016 316.326 4.15016C316.174 4.15016 315.927 4.07513 315.605 3.92508C314.524 3.4374 313.31 3.19356 311.963 3.19356C310.882 3.19356 310.029 3.36237 309.441 3.71875C308.853 4.07513 308.55 4.61908 308.55 5.38812C308.55 5.91331 308.739 6.36348 309.119 6.71986C309.498 7.07624 310.2 7.43262 311.205 7.75149L313.898 8.59555C315.263 9.02696 316.25 9.62718 316.838 10.3962C317.426 11.1652 317.71 12.0468 317.71 13.0222C317.71 13.8287 317.539 14.5602 317.217 15.198C316.876 15.8357 316.42 16.3984 315.832 16.8486C315.244 17.3175 314.543 17.6551 313.727 17.899C312.874 18.1616 311.982 18.2929 311.015 18.2929Z" fill="white"/>
<path fill-rule="evenodd" clip-rule="evenodd" d="M314.598 27.4089C308.358 31.9668 299.293 34.3864 291.498 34.3864C280.573 34.3864 270.73 30.3912 263.296 23.7513C262.708 23.2261 263.239 22.5133 263.94 22.926C271.982 27.5402 281.901 30.335 292.162 30.335C299.084 30.335 306.689 28.9094 313.688 25.9834C314.731 25.5144 315.622 26.6586 314.598 27.4089Z" fill="#FF9900"/>
<path fill-rule="evenodd" clip-rule="evenodd" d="M317.195 24.4828C316.399 23.4699 311.923 23.9951 309.894 24.2389C309.287 24.3139 309.192 23.7888 309.742 23.3949C313.307 20.9189 319.168 21.6317 319.851 22.457C320.533 23.3011 319.661 29.097 316.323 31.873C315.811 32.3044 315.318 32.0793 315.545 31.5166C316.304 29.6597 317.992 25.4769 317.195 24.4828Z" fill="#FF9900"/>
</g>
<g clip-path="url(#clip2_2474_2075)">
<path d="M380.271 5.78095L393.559 3.95441V16.7769H380.273L380.271 5.78095ZM393.559 18.4178V31.0952L380.273 29.2715L380.273 18.4184H393.559L393.559 18.4178ZM395.028 3.75286L412.709 1.32227V16.7769H395.028V3.75286ZM412.709 18.4178V33.7253L395.028 31.2965V18.4178H412.709Z" fill="#0DADEA"/>
<path d="M442.969 27.1021H439.897V15.2257C439.897 14.2522 439.958 13.0633 440.08 11.6543H440.028C439.836 12.4562 439.667 13.0318 439.52 13.3829L433.951 27.1021H431.816L426.233 13.4857C426.077 13.085 425.912 12.4746 425.738 11.6558H425.687C425.757 12.3898 425.791 13.5882 425.791 15.2517V27.1021H422.928V8.74991H427.287L432.194 20.9723C432.567 21.9106 432.81 22.611 432.922 23.071H432.987C433.308 22.1067 433.568 21.3895 433.768 20.9203L438.766 8.74991H442.97L442.969 27.1021H442.969ZM448.735 11.245C448.24 11.245 447.816 11.0878 447.466 10.7719C447.114 10.4562 446.939 10.0547 446.939 9.56867C446.939 9.08268 447.114 8.67712 447.466 8.35231C447.818 8.02872 448.24 7.866 448.735 7.866C449.246 7.866 449.681 8.02872 450.036 8.35231C450.392 8.67712 450.57 9.08115 450.57 9.56867C450.57 10.0287 450.392 10.4238 450.036 10.7523C449.679 11.0814 449.246 11.245 448.735 11.245ZM450.23 27.1021H447.212V13.9965H450.231V27.1021H450.23ZM463.727 26.5005C462.661 27.1061 461.397 27.4089 459.94 27.4089C457.961 27.4089 456.365 26.8009 455.15 25.5857C453.936 24.3706 453.328 22.7942 453.328 20.8567C453.328 18.698 453.981 16.9644 455.287 15.6542C456.592 14.3445 458.338 13.6894 460.525 13.6894C461.739 13.6894 462.811 13.8986 463.739 14.3173V17.0813C462.81 16.3992 461.821 16.0573 460.772 16.0573C459.497 16.0573 458.452 16.4824 457.636 17.3308C456.821 18.1796 456.412 19.2907 456.412 20.6643C456.412 22.0211 456.796 23.0918 457.564 23.8766C458.331 24.6618 459.362 25.0542 460.655 25.0542C461.739 25.0542 462.762 24.6749 463.726 23.9158L463.727 26.5005ZM474.463 16.8253C474.098 16.5433 473.574 16.4032 472.888 16.4032C471.994 16.4032 471.248 16.7993 470.649 17.5933C470.05 18.386 469.751 19.466 469.751 20.8307V27.1021H466.731V13.9965H469.751V16.6968H469.802C470.097 15.7753 470.55 15.0565 471.162 14.5406C471.773 14.0249 472.457 13.7662 473.212 13.7662C473.759 13.7662 474.175 13.8481 474.462 14.0093L474.463 16.8253ZM482.532 27.4089C480.476 27.4089 478.834 26.7969 477.606 25.5726C476.378 24.3486 475.763 22.7251 475.763 20.7035C475.763 18.5016 476.403 16.7825 477.684 15.5453C478.964 14.3081 480.687 13.6894 482.857 13.6894C484.94 13.6894 486.561 14.2913 487.724 15.4945C488.887 16.698 489.468 18.3652 489.468 20.4979C489.468 22.589 488.841 24.2629 487.587 25.5206C486.334 26.7801 484.649 27.4089 482.532 27.4089ZM482.675 16.0573C481.495 16.0573 480.562 16.4628 479.877 17.2724C479.191 18.0832 478.849 19.2008 478.849 20.6252C478.849 21.9987 479.197 23.0802 479.89 23.869C480.584 24.6578 481.513 25.0526 482.676 25.0526C483.866 25.0526 484.779 24.6642 485.416 23.8886C486.053 23.1114 486.372 22.0067 486.372 20.5732C486.372 19.132 486.054 18.0184 485.416 17.2333C484.777 16.4497 483.864 16.0573 482.675 16.0573ZM491.721 26.6929V23.9418C492.849 24.7866 494.094 25.2086 495.455 25.2086C497.278 25.2086 498.188 24.6798 498.188 23.6219C498.188 23.3231 498.11 23.0698 497.954 22.8603C497.798 22.6511 497.588 22.4655 497.322 22.3043C497.057 22.1431 496.745 21.9975 496.386 21.869C496.025 21.7403 495.624 21.5959 495.182 21.4335C494.675 21.2389 494.182 21.0124 493.704 20.7551C493.265 20.516 492.902 20.2459 492.611 19.9431C492.325 19.6475 492.101 19.2969 491.955 18.9124C491.807 18.5292 491.734 18.0805 491.734 17.5688C491.734 16.9372 491.886 16.3809 492.19 15.8989C492.494 15.4165 492.901 15.0113 493.412 14.6837C493.925 14.3549 494.505 14.1081 495.156 13.9417C495.816 13.7743 496.493 13.6904 497.173 13.6921C498.405 13.6921 499.507 13.8753 500.478 14.2418V16.8396C499.541 16.2081 498.466 15.8921 497.251 15.8921C496.869 15.8921 496.524 15.9313 496.217 16.0065C495.909 16.0833 495.646 16.19 495.429 16.3264C495.212 16.4628 495.043 16.6265 494.921 16.8189C494.801 17.0078 494.737 17.2277 494.739 17.452C494.739 17.7336 494.8 17.9728 494.921 18.1692C495.043 18.3652 495.223 18.538 495.462 18.6876C495.7 18.8372 495.987 18.9736 496.321 19.0968C496.655 19.2204 497.038 19.3556 497.473 19.4999C497.999 19.7088 498.513 19.9439 499.015 20.2043C499.471 20.4432 499.86 20.7135 500.181 21.0163C500.497 21.312 500.749 21.6694 500.922 22.0663C501.096 22.4627 501.183 22.9346 501.183 23.4803C501.183 24.1458 501.027 24.7251 500.714 25.2206C500.402 25.7157 499.984 26.125 499.465 26.4485C498.944 26.7734 498.343 27.0138 497.662 27.171C496.98 27.3297 496.263 27.4077 495.508 27.4077C494.049 27.4089 492.787 27.171 491.721 26.6929ZM509.967 27.4089C507.911 27.4089 506.268 26.7969 505.04 25.5726C503.812 24.3486 503.199 22.7251 503.199 20.7035C503.199 18.5016 503.839 16.7825 505.12 15.5453C506.399 14.3081 508.123 13.6894 510.292 13.6894C512.375 13.6894 513.996 14.2913 515.159 15.4945C516.322 16.698 516.903 18.3652 516.903 20.4979C516.903 22.589 516.277 24.2629 515.023 25.5206C513.769 26.7801 512.083 27.4089 509.967 27.4089ZM510.11 16.0573C508.929 16.0573 507.996 16.4628 507.311 17.2724C506.625 18.0832 506.282 19.2008 506.282 20.6252C506.282 21.9987 506.63 23.0802 507.324 23.869C508.018 24.6578 508.946 25.0526 510.11 25.0526C511.297 25.0526 512.211 24.6642 512.849 23.8886C513.487 23.1114 513.806 22.0067 513.806 20.5732C513.806 19.132 513.487 18.0184 512.849 17.2333C512.211 16.4497 511.297 16.0573 510.11 16.0573ZM527.523 10.1195C527.116 9.88951 526.651 9.7739 526.13 9.7739C524.663 9.7739 523.931 10.5887 523.931 12.2183V13.9974H527.029V16.3264H523.944V27.1021H520.925V16.3264H518.648V13.9974H520.925V11.8726C520.925 10.4902 521.385 9.40107 522.304 8.6031C523.224 7.80483 524.374 7.40601 525.754 7.40601C526.5 7.40601 527.09 7.48675 527.523 7.64916V10.1195ZM536.229 26.9618C535.64 27.2517 534.863 27.3973 533.899 27.3973C531.314 27.3973 530.022 26.1769 530.022 23.7378V16.3277H527.797V13.9989H530.022V10.9655L533.042 10.121V13.9989H536.23V16.3277H533.042V22.8796C533.042 23.6555 533.184 24.2103 533.471 24.5431C533.758 24.8759 534.235 25.0422 534.903 25.0422C535.414 25.0422 535.857 24.8979 536.229 24.6067V26.9618ZM561.842 27.1021H558.445L556.767 22.4303H549.427L547.814 27.1021H544.429L551.417 8.74991H554.905L561.841 27.1021H561.842ZM555.946 19.9483L553.357 12.6278C553.279 12.3886 553.196 12.0054 553.11 11.4763H553.059C552.981 11.9626 552.894 12.347 552.798 12.6278L550.235 19.9483H555.946ZM573.919 15.2385L566.722 24.785H573.892V27.1021H562.491V25.9885L569.844 16.3133H563.195V13.9962H573.919V15.2385ZM588.091 27.1021H585.072V25.0282H585.021C584.145 26.6149 582.782 27.4089 580.935 27.4089C577.785 27.4089 576.21 25.5493 576.21 21.8287V13.9962H579.23V21.5219C579.23 23.877 580.153 25.0542 582.003 25.0542C582.896 25.0542 583.631 24.7306 584.208 24.0822C584.785 23.4338 585.073 22.585 585.073 21.5351V13.9962H588.093L588.091 27.1021ZM599.765 16.8253C599.4 16.5433 598.875 16.4032 598.19 16.4032C597.296 16.4032 596.55 16.7993 595.951 17.5933C595.352 18.386 595.052 19.466 595.052 20.8307V27.1021H592.034V13.9965H595.052V16.6968H595.104C595.399 15.7753 595.852 15.0565 596.464 14.5406C597.076 14.0249 597.759 13.7662 598.513 13.7662C599.059 13.7662 599.477 13.8481 599.762 14.0093L599.765 16.8253H599.765ZM613.209 21.3555H604.124C604.159 22.5667 604.538 23.5011 605.263 24.1586C605.987 24.815 606.983 25.1438 608.25 25.1438C609.673 25.1438 610.979 24.7254 612.167 23.8898V26.2822C610.953 27.0333 609.347 27.4089 607.351 27.4089C605.39 27.4089 603.853 26.8137 602.738 25.6234C601.622 24.433 601.066 22.7591 601.066 20.6007C601.066 18.5616 601.679 16.8993 602.909 15.6153C604.136 14.3314 605.661 13.6894 607.484 13.6894C609.306 13.6894 610.714 14.2653 611.712 15.4165C612.71 16.5681 613.21 18.1676 613.21 20.2159L613.208 21.3555H613.209ZM610.293 19.2568C610.28 18.19 610.029 17.3605 609.526 16.7681C609.022 16.1756 608.328 15.8793 607.443 15.8793C606.576 15.8793 605.84 16.1912 605.237 16.8137C604.635 17.4361 604.263 18.2511 604.125 19.258H610.293V19.2568Z" fill="white"/>
</g>
</g>
<defs>
<clipPath id="clip0_2474_2075">
<rect width="203.011" height="35.5675" fill="white"/>
</clipPath>
<clipPath id="clip1_2474_2075">
<rect width="58.192" height="33.7249" fill="white" transform="translate(262.525 0.661377)"/>
</clipPath>
<clipPath id="clip2_2474_2075">
<rect width="232.768" height="32.4024" fill="white" transform="translate(380.232 1.32251)"/>
</clipPath>
</defs>
</svg>
