<svg width="56" height="56" viewBox="0 0 56 56" fill="none" xmlns="http://www.w3.org/2000/svg">
<rect width="56" height="56" rx="28" fill="#84E296"/>
<path fill-rule="evenodd" clip-rule="evenodd" d="M7.396 27.9987C7.396 16.6193 16.6208 7.39453 28.0002 7.39453C39.3796 7.39453 48.6043 16.6193 48.6043 27.9987C48.6043 39.3781 39.3796 48.6029 28.0002 48.6029C16.6208 48.6029 7.396 39.3781 7.396 27.9987ZM28.0002 10.2695C18.2086 10.2695 10.271 18.2071 10.271 27.9987C10.271 37.7902 18.2086 45.7279 28.0002 45.7279C37.7916 45.7279 45.7293 37.7902 45.7293 27.9987C45.7293 18.2071 37.7916 10.2695 28.0002 10.2695Z" fill="#282828"/>
<path fill-rule="evenodd" clip-rule="evenodd" d="M22.5731 34.0557C22.2153 33.3521 21.3561 33.068 20.6489 33.4216C19.9389 33.7766 19.651 34.64 20.0061 35.3502L21.2918 34.7073C20.0061 35.3502 20.0058 35.3496 20.0061 35.3502L20.0074 35.3529L20.009 35.3559L20.0126 35.3632L20.0222 35.3816L20.0505 35.4351C20.0736 35.4776 20.105 35.5338 20.1451 35.6018C20.2251 35.7377 20.3404 35.9215 20.4931 36.1372C20.7975 36.5669 21.2577 37.1327 21.8941 37.6985C23.1789 38.8404 25.1834 39.9782 28.0001 39.9782C30.8168 39.9782 32.8213 38.8404 34.1062 37.6985C34.7426 37.1327 35.2028 36.5669 35.5071 36.1372C35.6599 35.9215 35.7751 35.7377 35.8552 35.6018C35.8952 35.5338 35.9267 35.4776 35.9497 35.4351L35.978 35.3816L35.9876 35.3632L35.9913 35.3559L35.9928 35.3529C35.9932 35.3523 35.9941 35.3502 34.7084 34.7073L35.9941 35.3502C36.3493 34.64 36.0614 33.7766 35.3513 33.4216C34.6442 33.068 33.785 33.3521 33.4271 34.0557L33.4218 34.0658C33.4145 34.0794 33.3999 34.1055 33.3783 34.1423C33.3348 34.2161 33.2629 34.3317 33.1611 34.4754C32.9564 34.7644 32.6379 35.157 32.1961 35.5497C31.3248 36.3242 29.975 37.1032 28.0001 37.1032C26.0252 37.1032 24.6755 36.3242 23.8041 35.5497C23.3624 35.157 23.0439 34.7644 22.8392 34.4754C22.7374 34.3317 22.6655 34.2161 22.622 34.1423C22.6003 34.1055 22.5859 34.0794 22.5785 34.0658L22.5731 34.0557Z" fill="#282828"/>
<path fill-rule="evenodd" clip-rule="evenodd" d="M19.6967 22.5528C19.338 21.8512 18.4801 21.5685 17.7739 21.9216C17.0639 22.2766 16.776 23.1401 17.1311 23.8502L18.4168 23.2073C17.1311 23.8502 17.1308 23.8497 17.1311 23.8502L17.1321 23.8523L17.1333 23.8546L17.1359 23.8597L17.1422 23.8721L17.1597 23.9053C17.1734 23.9311 17.1914 23.9639 17.2136 24.0029C17.2581 24.0807 17.3203 24.1839 17.4004 24.3042C17.5592 24.5423 17.7973 24.8603 18.1191 25.1821C18.755 25.818 19.8178 26.5615 21.2918 26.5615C22.7659 26.5615 23.8287 25.818 24.4646 25.1821C24.7864 24.8603 25.0245 24.5423 25.1832 24.3042C25.2633 24.1839 25.3256 24.0807 25.3701 24.0029C25.3923 23.9639 25.4103 23.9311 25.4239 23.9053L25.4414 23.8721L25.4477 23.8597L25.4504 23.8546L25.4515 23.8523C25.4517 23.8518 25.4525 23.8502 24.1668 23.2073L25.4525 23.8502C25.8076 23.1401 25.5198 22.2766 24.8096 21.9216C24.1035 21.5685 23.2456 21.8512 22.887 22.5528L22.8738 22.5765C22.8583 22.6036 22.8307 22.65 22.7911 22.7094C22.7102 22.8307 22.5889 22.9919 22.4316 23.1492C22.1091 23.4717 21.7344 23.6865 21.2918 23.6865C20.8492 23.6865 20.4745 23.4717 20.152 23.1492C19.9947 22.9919 19.8734 22.8307 19.7926 22.7094C19.753 22.65 19.7253 22.6036 19.7098 22.5765L19.6967 22.5528Z" fill="#282828"/>
<path fill-rule="evenodd" clip-rule="evenodd" d="M33.1132 22.5528C32.7546 21.8512 31.8967 21.5685 31.1904 21.9216C30.4803 22.2766 30.1926 23.1401 30.5476 23.8502L31.8333 23.2073C30.5476 23.8502 30.5474 23.8497 30.5476 23.8502L30.5485 23.8523L30.5497 23.8546L30.5524 23.8597L30.5587 23.8721L30.5761 23.9053C30.5899 23.9311 30.6079 23.9639 30.6302 24.0029C30.6746 24.0807 30.7367 24.1839 30.8168 24.3042C30.9757 24.5423 31.2138 24.8603 31.5356 25.1821C32.1714 25.818 33.2343 26.5615 34.7083 26.5615C36.1824 26.5615 37.2452 25.818 37.8811 25.1821C38.2029 24.8603 38.441 24.5423 38.5997 24.3042C38.6798 24.1839 38.7421 24.0807 38.7865 24.0029C38.8088 23.9639 38.8268 23.9311 38.8404 23.9053L38.8578 23.8721L38.8642 23.8597L38.8668 23.8546L38.868 23.8523C38.8682 23.8518 38.869 23.8502 37.5833 23.2073L38.869 23.8502C39.2241 23.1401 38.9362 22.2766 38.2261 21.9216C37.52 21.5685 36.6621 21.8512 36.3035 22.5528L36.2903 22.5765C36.2748 22.6036 36.2472 22.65 36.2075 22.7094C36.1268 22.8307 36.0055 22.9919 35.8481 23.1492C35.5255 23.4717 35.151 23.6865 34.7083 23.6865C34.2657 23.6865 33.891 23.4717 33.5686 23.1492C33.4113 22.9919 33.2899 22.8307 33.209 22.7094C33.1694 22.65 33.1418 22.6036 33.1262 22.5765L33.1132 22.5528Z" fill="#282828"/>
</svg>
