<svg width="1728" height="386" viewBox="0 0 1728 386" fill="none" xmlns="http://www.w3.org/2000/svg">
<path fill-rule="evenodd" clip-rule="evenodd" d="M-89.5607 321.06H-34.0801C-34.7182 317.052 -35.061 312.943 -35.061 308.751C-35.061 266.128 -0.501633 231.563 42.1267 231.563C57.8743 231.563 72.5198 236.288 84.7287 244.384C90.1712 224.29 108.529 209.518 130.337 209.518C137.419 209.518 144.133 211.08 150.166 213.864C165.133 153.468 219.691 108.699 284.717 108.699C332.445 108.699 374.536 132.821 399.471 169.538C413.43 154.412 433.423 144.93 455.626 144.93C477.65 144.93 497.495 154.254 511.434 169.163C523.168 73.8229 604.432 0 702.947 0C809.521 0 895.917 86.4011 895.917 192.975C895.917 197.167 895.785 201.328 895.516 205.458L896.107 205.357C898.633 172.433 926.141 146.507 959.714 146.507C994.954 146.507 1023.52 175.07 1023.52 210.304C1023.52 214.513 1023.1 218.626 1022.33 222.608C1026.41 221.269 1030.78 220.535 1035.33 220.535C1058.39 220.535 1077.08 239.226 1077.08 262.283C1077.08 266.386 1076.48 270.352 1075.38 274.096H1165.28C1164.26 270.6 1163.71 266.898 1163.71 263.069C1163.71 245.143 1175.69 230.007 1192.09 225.245C1192.93 196.402 1216.58 173.282 1245.62 173.282C1257.69 173.282 1268.82 177.274 1277.78 184.009C1294.38 163.077 1320.02 149.65 1348.81 149.65C1352.01 149.65 1355.17 149.814 1358.28 150.14C1381.67 77.6518 1449.68 25.2036 1529.96 25.2036C1610.07 25.2036 1677.96 77.425 1701.48 149.682C1704.88 149.144 1708.36 148.864 1711.9 148.864C1741.61 148.864 1766.74 168.435 1775.1 195.39C1781.34 193.813 1787.88 192.975 1794.6 192.975C1832.03 192.975 1863.4 218.816 1871.88 253.629H1874.15V255.517C1879.2 254.283 1884.47 253.629 1889.9 253.629C1926.44 253.629 1956.06 283.246 1956.06 319.784C1956.06 320.216 1956.06 320.638 1956.05 321.065H2010.56C2028.41 321.065 2043 335.663 2043 353.504C2043 371.346 2028.41 385.944 2010.56 385.944H1889.9H1874.15H1709.45H42.1267H-89.5607C-107.402 385.944 -122 371.341 -122 353.504C-122 335.653 -107.402 321.06 -89.5607 321.06Z" fill="#212028"/>
<path fill-rule="evenodd" clip-rule="evenodd" d="M1318.85 67.6211H1319.46C1331.86 67.6211 1342 77.7627 1342 90.1562C1342 102.55 1331.85 112.691 1319.46 112.691H1318.85C1306.45 112.691 1296.32 102.544 1296.32 90.1562C1296.31 77.7627 1306.45 67.6211 1318.85 67.6211Z" fill="#212028"/>
</svg>
