<svg width="135" height="27" viewBox="0 0 135 27" fill="none" xmlns="http://www.w3.org/2000/svg">
<path d="M11.9783 4.68328C12.4573 3.20919 14.5427 3.20918 15.0217 4.68328L16.1717 8.2227C16.3859 8.88193 17.0002 9.32827 17.6934 9.32827H21.415C22.9649 9.32827 23.6094 11.3117 22.3554 12.2227L19.3446 14.4102C18.7838 14.8176 18.5492 15.5398 18.7634 16.199L19.9134 19.7384C20.3924 21.2125 18.7052 22.4383 17.4513 21.5273L14.4405 19.3398C13.8797 18.9324 13.1203 18.9324 12.5595 19.3398L9.54874 21.5273C8.2948 22.4383 6.60763 21.2125 7.08659 19.7384L8.23662 16.199C8.45081 15.5398 8.21616 14.8176 7.65538 14.4102L4.64458 12.2227C3.39063 11.3117 4.03507 9.32827 5.58503 9.32827H9.30659C9.99975 9.32827 10.6141 8.88193 10.8283 8.2227L11.9783 4.68328Z" fill="#84E296"/>
<path d="M38.9783 4.68328C39.4573 3.20919 41.5427 3.20918 42.0217 4.68328L43.1717 8.2227C43.3859 8.88193 44.0002 9.32827 44.6934 9.32827H48.415C49.9649 9.32827 50.6094 11.3117 49.3554 12.2227L46.3446 14.4102C45.7838 14.8176 45.5492 15.5398 45.7634 16.199L46.9134 19.7384C47.3924 21.2125 45.7052 22.4383 44.4513 21.5273L41.4405 19.3398C40.8797 18.9324 40.1203 18.9324 39.5595 19.3398L36.5487 21.5273C35.2948 22.4383 33.6076 21.2125 34.0866 19.7384L35.2366 16.199C35.4508 15.5398 35.2162 14.8176 34.6554 14.4102L31.6446 12.2227C30.3906 11.3117 31.0351 9.32827 32.585 9.32827H36.3066C36.9998 9.32827 37.6141 8.88193 37.8283 8.2227L38.9783 4.68328Z" fill="#84E296"/>
<path d="M65.9783 4.68328C66.4573 3.20919 68.5427 3.20918 69.0217 4.68328L70.1717 8.2227C70.3859 8.88193 71.0002 9.32827 71.6934 9.32827H75.415C76.9649 9.32827 77.6094 11.3117 76.3554 12.2227L73.3446 14.4102C72.7838 14.8176 72.5492 15.5398 72.7634 16.199L73.9134 19.7384C74.3924 21.2125 72.7052 22.4383 71.4513 21.5273L68.4405 19.3398C67.8797 18.9324 67.1203 18.9324 66.5595 19.3398L63.5487 21.5273C62.2948 22.4383 60.6076 21.2125 61.0866 19.7384L62.2366 16.199C62.4508 15.5398 62.2162 14.8176 61.6554 14.4102L58.6446 12.2227C57.3906 11.3117 58.0351 9.32827 59.585 9.32827H63.3066C63.9998 9.32827 64.6141 8.88193 64.8283 8.2227L65.9783 4.68328Z" fill="#84E296"/>
<path d="M92.9783 4.68328C93.4573 3.20919 95.5427 3.20918 96.0217 4.68328L97.1717 8.2227C97.3859 8.88193 98.0002 9.32827 98.6934 9.32827H102.415C103.965 9.32827 104.609 11.3117 103.355 12.2227L100.345 14.4102C99.7838 14.8176 99.5492 15.5398 99.7634 16.199L100.913 19.7384C101.392 21.2125 99.7052 22.4383 98.4513 21.5273L95.4405 19.3398C94.8797 18.9324 94.1203 18.9324 93.5595 19.3398L90.5487 21.5273C89.2948 22.4383 87.6076 21.2125 88.0866 19.7384L89.2366 16.199C89.4508 15.5398 89.2162 14.8176 88.6554 14.4102L85.6446 12.2227C84.3906 11.3117 85.0351 9.32827 86.585 9.32827H90.3066C90.9998 9.32827 91.6141 8.88193 91.8283 8.2227L92.9783 4.68328Z" fill="#84E296"/>
<path d="M119.978 4.68328C120.457 3.20919 122.543 3.20918 123.022 4.68328L124.172 8.2227C124.386 8.88193 125 9.32827 125.693 9.32827H129.415C130.965 9.32827 131.609 11.3117 130.355 12.2227L127.345 14.4102C126.784 14.8176 126.549 15.5398 126.763 16.199L127.913 19.7384C128.392 21.2125 126.705 22.4383 125.451 21.5273L122.44 19.3398C121.88 18.9324 121.12 18.9324 120.56 19.3398L117.549 21.5273C116.295 22.4383 114.608 21.2125 115.087 19.7384L116.237 16.199C116.451 15.5398 116.216 14.8176 115.655 14.4102L112.645 12.2227C111.391 11.3117 112.035 9.32827 113.585 9.32827H117.307C118 9.32827 118.614 8.88193 118.828 8.2227L119.978 4.68328Z" fill="#84E296"/>
</svg>
