<svg width="24" height="25" viewBox="0 0 24 25" fill="none" xmlns="http://www.w3.org/2000/svg">
<path d="M12.001 9.1001C11.2053 9.1001 10.4423 9.41617 9.87966 9.97878C9.31705 10.5414 9.00098 11.3044 9.00098 12.1001C9.00098 12.8957 9.31705 13.6588 9.87966 14.2214C10.4423 14.784 11.2053 15.1001 12.001 15.1001C12.7966 15.1001 13.5597 14.784 14.1223 14.2214C14.6849 13.6588 15.001 12.8957 15.001 12.1001C15.001 11.3044 14.6849 10.5414 14.1223 9.97878C13.5597 9.41617 12.7966 9.1001 12.001 9.1001ZM12.001 7.1001C13.3271 7.1001 14.5988 7.62688 15.5365 8.56456C16.4742 9.50225 17.001 10.774 17.001 12.1001C17.001 13.4262 16.4742 14.698 15.5365 15.6356C14.5988 16.5733 13.3271 17.1001 12.001 17.1001C10.6749 17.1001 9.40313 16.5733 8.46544 15.6356C7.52776 14.698 7.00098 13.4262 7.00098 12.1001C7.00098 10.774 7.52776 9.50225 8.46544 8.56456C9.40313 7.62688 10.6749 7.1001 12.001 7.1001ZM18.501 6.8501C18.501 7.18162 18.3693 7.49956 18.1349 7.73398C17.9004 7.9684 17.5825 8.1001 17.251 8.1001C16.9195 8.1001 16.6015 7.9684 16.3671 7.73398C16.1327 7.49956 16.001 7.18162 16.001 6.8501C16.001 6.51858 16.1327 6.20063 16.3671 5.96621C16.6015 5.73179 16.9195 5.6001 17.251 5.6001C17.5825 5.6001 17.9004 5.73179 18.1349 5.96621C18.3693 6.20063 18.501 6.51858 18.501 6.8501ZM12.001 4.1001C9.52698 4.1001 9.12298 4.1071 7.97198 4.1581C7.18798 4.1951 6.66198 4.3001 6.17398 4.4901C5.76559 4.64004 5.39639 4.88036 5.09398 5.1931C4.78098 5.4955 4.54033 5.86468 4.38998 6.2731C4.19998 6.7631 4.09498 7.2881 4.05898 8.0711C4.00698 9.1751 3.99998 9.5611 3.99998 12.1001C3.99998 14.5751 4.00698 14.9781 4.05798 16.1291C4.09498 16.9121 4.19998 17.4391 4.38898 17.9261C4.55898 18.3611 4.75898 18.6741 5.09098 19.0061C5.42798 19.3421 5.74098 19.5431 6.17098 19.7091C6.66498 19.9001 7.19098 20.0061 7.97098 20.0421C9.07498 20.0941 9.46098 20.1001 12 20.1001C14.475 20.1001 14.878 20.0931 16.029 20.0421C16.811 20.0051 17.337 19.9001 17.826 19.7111C18.234 19.5604 18.603 19.3202 18.906 19.0081C19.243 18.6721 19.444 18.3591 19.61 17.9281C19.8 17.4361 19.906 16.9101 19.942 16.1281C19.994 15.0251 20 14.6381 20 12.1001C20 9.6261 19.993 9.2221 19.942 8.0711C19.905 7.2891 19.799 6.7611 19.61 6.2731C19.4592 5.86512 19.219 5.49608 18.907 5.1931C18.6047 4.87994 18.2355 4.63926 17.827 4.4891C17.337 4.2991 16.811 4.1941 16.029 4.1581C14.926 4.1061 14.541 4.1001 12.001 4.1001ZM12.001 2.1001C14.718 2.1001 15.057 2.1101 16.124 2.1601C17.188 2.2101 17.914 2.3771 18.551 2.6251C19.211 2.8791 19.767 3.2231 20.323 3.7781C20.8315 4.27799 21.2249 4.88269 21.476 5.5501C21.723 6.1871 21.891 6.9131 21.941 7.9781C21.988 9.0441 22.001 9.3831 22.001 12.1001C22.001 14.8171 21.991 15.1561 21.941 16.2221C21.891 17.2871 21.723 18.0121 21.476 18.6501C21.2256 19.3179 20.8321 19.9227 20.323 20.4221C19.8229 20.9304 19.2183 21.3239 18.551 21.5751C17.914 21.8221 17.188 21.9901 16.124 22.0401C15.057 22.0871 14.718 22.1001 12.001 22.1001C9.28398 22.1001 8.94498 22.0901 7.87798 22.0401C6.81398 21.9901 6.08898 21.8221 5.45098 21.5751C4.7833 21.3246 4.1785 20.931 3.67898 20.4221C3.17041 19.9223 2.77694 19.3176 2.52598 18.6501C2.27798 18.0131 2.11098 17.2871 2.06098 16.2221C2.01298 15.1561 2.00098 14.8171 2.00098 12.1001C2.00098 9.3831 2.01098 9.0441 2.06098 7.9781C2.11098 6.9121 2.27798 6.1881 2.52598 5.5501C2.77621 4.88228 3.16978 4.27742 3.67898 3.7781C4.17865 3.26933 4.78341 2.87583 5.45098 2.6251C6.08798 2.3771 6.81298 2.2101 7.87798 2.1601C8.94498 2.1131 9.28398 2.1001 12.001 2.1001Z" fill="#98A2B3"/>
</svg>
