<svg width="30" height="30" viewBox="0 0 30 30" fill="none" xmlns="http://www.w3.org/2000/svg">
<g clip-path="url(#clip0_454_4003)">
<path d="M27.4679 0.700195H2.92605C1.75043 0.700195 0.799805 1.62832 0.799805 2.77582V27.4189C0.799805 28.5664 1.75043 29.5002 2.92605 29.5002H27.4679C28.6436 29.5002 29.5998 28.5664 29.5998 27.4246V2.77582C29.5998 1.62832 28.6436 0.700195 27.4679 0.700195ZM9.34418 25.2421H5.06918V11.4946H9.34418V25.2421ZM7.20668 9.62145C5.83418 9.62145 4.72605 8.51332 4.72605 7.14645C4.72605 5.77957 5.83418 4.67145 7.20668 4.67145C8.57355 4.67145 9.68168 5.77957 9.68168 7.14645C9.68168 8.5077 8.57355 9.62145 7.20668 9.62145ZM25.3417 25.2421H21.0723V18.5596C21.0723 16.9677 21.0442 14.9146 18.8504 14.9146C16.6286 14.9146 16.2911 16.6527 16.2911 18.4471V25.2421H12.0273V11.4946H16.1223V13.3733H16.1786C16.7467 12.2933 18.1417 11.1514 20.2173 11.1514C24.5429 11.1514 25.3417 13.9977 25.3417 17.6989V25.2421Z" fill="#98A2B3"/>
</g>
<defs>
<clipPath id="clip0_454_4003">
<rect width="28.8" height="28.8" fill="white" transform="translate(0.799805 0.700195)"/>
</clipPath>
</defs>
</svg>
