<svg width="19" height="25" viewBox="0 0 19 25" fill="none" xmlns="http://www.w3.org/2000/svg">
<g clip-path="url(#clip0_454_4014)">
<path d="M10.1621 0.404785C5.35273 0.404785 0.599609 3.61104 0.599609 8.8001C0.599609 12.1001 2.45586 13.9751 3.58086 13.9751C4.04492 13.9751 4.31211 12.6813 4.31211 12.3157C4.31211 11.8798 3.20117 10.9517 3.20117 9.1376C3.20117 5.36885 6.06992 2.69697 9.78242 2.69697C12.9746 2.69697 15.3371 4.51104 15.3371 7.84385C15.3371 10.3329 14.3387 15.0017 11.1043 15.0017C9.93711 15.0017 8.93867 14.1579 8.93867 12.9485C8.93867 11.1767 10.1762 9.46104 10.1762 7.63291C10.1762 4.52979 5.77461 5.09229 5.77461 8.84229C5.77461 9.62979 5.87305 10.5017 6.22461 11.2188C5.57773 14.0032 4.25586 18.1517 4.25586 21.0204C4.25586 21.9063 4.38242 22.7782 4.4668 23.6642C4.62617 23.8423 4.54648 23.8235 4.79023 23.7345C7.15273 20.5001 7.06836 19.8673 8.13711 15.6345C8.71367 16.7313 10.2043 17.322 11.3855 17.322C16.3637 17.322 18.5996 12.4704 18.5996 8.09697C18.5996 3.44229 14.5777 0.404785 10.1621 0.404785Z" fill="#98A2B3"/>
</g>
<defs>
<clipPath id="clip0_454_4014">
<rect width="18" height="24" fill="white" transform="translate(0.599609 0.100098)"/>
</clipPath>
</defs>
</svg>
