<svg width="55" height="55" viewBox="0 0 55 55" fill="none" xmlns="http://www.w3.org/2000/svg">
<path d="M27.5 0C12.3372 0 0 12.3372 0 27.5C0 42.6628 12.3372 55 27.5 55C42.6628 55 55 42.6628 55 27.5C55 12.3372 42.6628 0 27.5 0ZM27.5 51.5625C14.2347 51.5625 3.4375 40.7687 3.4375 27.5C3.4375 14.2313 14.2347 3.4375 27.5 3.4375C40.7653 3.4375 51.5625 14.2313 51.5625 27.5C51.5625 40.7687 40.7653 51.5625 27.5 51.5625Z" fill="#84E296"/>
<path d="M36.0946 20.625H34.2005C33.9427 19.3462 33.3721 18.1912 32.6124 17.1875H36.0946C37.0434 17.1875 37.8134 16.4175 37.8134 15.4688C37.8134 14.52 37.0434 13.75 36.0946 13.75H25.7821H18.9071C17.9584 13.75 17.1884 14.52 17.1884 15.4688C17.1884 16.4175 17.9584 17.1875 18.9071 17.1875H25.7821C28.0199 17.1875 29.9105 18.6278 30.6221 20.625H18.9071C17.9584 20.625 17.1884 21.395 17.1884 22.3438C17.1884 23.2925 17.9584 24.0625 18.9071 24.0625H30.6221C29.9105 26.0597 28.0199 27.5 25.7821 27.5H18.9071C18.6837 27.5 18.4602 27.5447 18.2505 27.6306C17.8312 27.8059 17.4943 28.1394 17.319 28.5622C17.1437 28.9816 17.1437 29.4559 17.319 29.8753C17.4049 30.0884 17.5321 30.2775 17.6937 30.4356L31.4402 44.1822C31.7771 44.5191 32.2171 44.6875 32.6571 44.6875C33.0971 44.6875 33.5371 44.5191 33.874 44.1856C34.5443 43.5153 34.5443 42.4256 33.874 41.7553L23.0562 30.9375H25.7821C29.9346 30.9375 33.403 27.9812 34.2005 24.0625H36.0946C37.0434 24.0625 37.8134 23.2925 37.8134 22.3438C37.8134 21.395 37.0434 20.625 36.0946 20.625Z" fill="#84E296"/>
</svg>
