<svg width="512" height="512" viewBox="0 0 512 512" fill="none" xmlns="http://www.w3.org/2000/svg">
<g clip-path="url(#clip0_85_15)">
<path d="M512 256C512 264.47 511.59 272.83 510.78 281.08C510.573 283.264 504.861 283.139 504.596 285.298C504.412 286.795 509.689 290.583 509.48 292.07C507.32 307.37 503.81 322.23 499.07 336.54C498.316 338.818 496.347 340.434 495.532 342.681C494.78 344.754 495.186 347.461 494.38 349.51C491.13 357.78 487.47 365.83 483.4 373.66C482.454 375.502 476.867 372.658 475.872 374.468C475.09 375.891 478.91 381.976 478.1 383.38C451.04 430.46 409.45 468.12 359.44 490.24C356.476 491.55 352.004 489.184 348.979 490.383C346.207 491.482 344.887 496.156 342.07 497.16C315.17 506.77 286.2 512 256 512C225.8 512 196.83 506.77 169.93 497.16C167.113 496.156 165.368 491.674 162.596 490.575C159.571 489.376 155.524 491.55 152.56 490.24C102.55 468.12 60.96 430.46 33.9 383.38C32.982 381.789 40.733 375.572 39.851 373.957C38.965 372.334 29.447 375.314 28.6 373.669C24.53 365.829 20.87 357.779 17.62 349.509C16.78 347.374 17.973 344.267 17.191 342.105C16.41 339.944 13.655 338.729 12.93 336.539C8.19 322.229 4.68 307.369 2.52 292.069C2.243 290.099 9.445 286.965 9.213 284.978C9.017 283.303 1.38 282.777 1.22 281.089C0.41 272.83 0 264.47 0 256C0 247.53 0.41 239.17 1.22 230.92C1.404 228.969 7.513 227.03 7.745 225.1C7.953 223.369 2.279 221.646 2.52 219.93C4.68 204.63 8.19 189.77 12.93 175.46C13.703 173.126 15.972 171.876 16.808 169.574C17.541 167.557 16.835 164.484 17.62 162.49C20.87 154.22 24.53 146.17 28.6 138.34C29.445 136.695 35.903 136.727 36.787 135.107C37.671 133.487 32.98 130.216 33.9 128.621C60.96 81.541 102.55 43.881 152.56 21.761C155.524 20.451 160.018 23.392 163.043 22.192C165.815 21.093 167.114 15.845 169.93 14.84C196.83 5.23 225.8 0 256 0C286.2 0 315.17 5.23 342.07 14.84C345.341 16.007 347.244 19.866 350.455 21.16C353.025 22.196 356.915 20.644 359.44 21.76C409.45 43.88 451.04 81.54 478.1 128.62C478.867 129.949 474.811 136.25 475.553 137.596C476.591 139.48 482.414 136.417 483.4 138.33C487.47 146.17 491.13 154.22 494.38 162.49C495.306 164.845 494.804 167.443 495.66 169.83C496.355 171.771 498.42 173.496 499.07 175.46C503.81 189.77 507.32 204.63 509.48 219.93C509.764 221.95 502.635 224.792 502.872 226.83C503.061 228.455 510.624 229.273 510.78 230.91C511.59 239.17 512 247.53 512 256Z" fill="#141318"/>
<path d="M132.673 57.223C137.835 57.223 142.02 53.0382 142.02 47.876C142.02 42.7138 137.835 38.529 132.673 38.529C127.511 38.529 123.326 42.7138 123.326 47.876C123.326 53.0382 127.511 57.223 132.673 57.223Z" fill="#141318"/>
<path d="M132.673 116.7C137.835 116.7 142.02 112.515 142.02 107.353C142.02 102.191 137.835 98.006 132.673 98.006C127.511 98.006 123.326 102.191 123.326 107.353C123.326 112.515 127.511 116.7 132.673 116.7Z" fill="#141318"/>
<path d="M71.01 116.7C76.1722 116.7 80.357 112.515 80.357 107.353C80.357 102.191 76.1722 98.006 71.01 98.006C65.8478 98.006 61.663 102.191 61.663 107.353C61.663 112.515 65.8478 116.7 71.01 116.7Z" fill="#141318"/>
<path d="M113.256 79.7758C114.447 74.753 111.34 69.7158 106.318 68.5248C101.295 67.3339 96.2576 70.4403 95.0666 75.4631C93.8757 80.4859 96.9821 85.5232 102.005 86.7141C107.028 87.905 112.065 84.7986 113.256 79.7758Z" fill="#141318"/>
<path d="M110.769 143.701C114.419 140.051 114.419 134.132 110.769 130.482C107.119 126.832 101.2 126.832 97.5503 130.482C93.9001 134.132 93.9001 140.051 97.5503 143.701C101.2 147.351 107.119 147.351 110.769 143.701Z" fill="#141318"/>
<path d="M47.21 137.09C47.21 142.25 43.02 146.44 37.86 146.44C33.12 146.44 29.21 142.91 28.6 138.34C30.29 135.05 32.06 131.81 33.9 128.62C35.1 128.06 36.44 127.74 37.86 127.74C43.02 127.74 47.21 131.93 47.21 137.09Z" fill="#141318"/>
<path d="M256 57.223C261.162 57.223 265.347 53.0382 265.347 47.876C265.347 42.7138 261.162 38.529 256 38.529C250.838 38.529 246.653 42.7138 246.653 47.876C246.653 53.0382 250.838 57.223 256 57.223Z" fill="#141318"/>
<path d="M194.337 57.223C199.499 57.223 203.684 53.0382 203.684 47.876C203.684 42.7138 199.499 38.529 194.337 38.529C189.175 38.529 184.99 42.7138 184.99 47.876C184.99 53.0382 189.175 57.223 194.337 57.223Z" fill="#141318"/>
<path d="M170.53 18.14C170.53 23.3 166.35 27.48 161.19 27.48C157.3 27.48 153.98 25.12 152.56 21.76C158.24 19.25 164.04 16.94 169.93 14.84C170.32 15.86 170.53 16.98 170.53 18.14Z" fill="#141318"/>
<path d="M227.487 27.485C232.649 27.485 236.834 23.3002 236.834 18.138C236.834 12.9758 232.649 8.79102 227.487 8.79102C222.325 8.79102 218.14 12.9758 218.14 18.138C218.14 23.3002 222.325 27.485 227.487 27.485Z" fill="#141318"/>
<path d="M256 116.7C261.162 116.7 265.347 112.515 265.347 107.353C265.347 102.191 261.162 98.006 256 98.006C250.838 98.006 246.653 102.191 246.653 107.353C246.653 112.515 250.838 116.7 256 116.7Z" fill="#141318"/>
<path d="M194.337 116.7C199.499 116.7 203.684 112.515 203.684 107.353C203.684 102.191 199.499 98.006 194.337 98.006C189.175 98.006 184.99 102.191 184.99 107.353C184.99 112.515 189.175 116.7 194.337 116.7Z" fill="#141318"/>
<path d="M170.283 79.778C171.473 74.7551 168.367 69.7179 163.344 68.527C158.321 67.336 153.284 70.4424 152.093 75.4652C150.902 80.4881 154.009 85.5253 159.032 86.7162C164.054 87.9071 169.092 84.8008 170.283 79.778Z" fill="#141318"/>
<path d="M231.048 86.2638C235.822 84.2996 238.1 78.8372 236.136 74.0631C234.172 69.2891 228.709 67.0114 223.935 68.9756C219.161 70.9398 216.883 76.4022 218.848 81.1762C220.812 85.9502 226.274 88.228 231.048 86.2638Z" fill="#141318"/>
<path d="M231.047 145.742C235.821 143.778 238.099 138.316 236.135 133.542C234.171 128.768 228.708 126.49 223.934 128.454C219.16 130.418 216.883 135.881 218.847 140.655C220.811 145.429 226.273 147.706 231.047 145.742Z" fill="#141318"/>
<path d="M167.793 143.701C171.444 140.051 171.444 134.133 167.793 130.483C164.143 126.833 158.225 126.833 154.575 130.483C150.925 134.133 150.925 140.051 154.575 143.701C158.225 147.352 164.143 147.352 167.793 143.701Z" fill="#141318"/>
<path d="M18.6899 166.83C18.6899 170.72 16.3099 174.06 12.9299 175.46C14.3799 171.08 15.9399 166.76 17.6199 162.49C18.2999 163.79 18.6899 165.26 18.6899 166.83Z" fill="#141318"/>
<path d="M141.766 168.995C142.957 163.972 139.85 158.935 134.828 157.744C129.805 156.553 124.768 159.659 123.577 164.682C122.386 169.705 125.492 174.742 130.515 175.933C135.538 177.124 140.575 174.018 141.766 168.995Z" fill="#141318"/>
<path d="M74.5661 175.479C79.3401 173.515 81.6179 168.052 79.6537 163.278C77.6895 158.504 72.2271 156.227 67.4531 158.191C62.6791 160.155 60.4013 165.617 62.3655 170.391C64.3297 175.165 69.7921 177.443 74.5661 175.479Z" fill="#141318"/>
<path d="M18.69 226.31C18.69 231.47 14.51 235.65 9.34997 235.65C5.85997 235.65 2.81997 233.75 1.21997 230.92C1.56997 227.22 2.00997 223.56 2.51997 219.93C4.21997 218.1 6.64997 216.96 9.34997 216.96C14.51 216.96 18.69 221.15 18.69 226.31Z" fill="#141318"/>
<path d="M80.2446 227.794C81.069 222.697 77.606 217.898 72.5099 217.074C67.4138 216.249 62.6142 219.712 61.7898 224.808C60.9654 229.904 64.4283 234.704 69.5245 235.528C74.6206 236.353 79.4201 232.89 80.2446 227.794Z" fill="#141318"/>
<path d="M37.8599 205.916C43.0221 205.916 47.2069 201.731 47.2069 196.569C47.2069 191.407 43.0221 187.222 37.8599 187.222C32.6977 187.222 28.5129 191.407 28.5129 196.569C28.5129 201.731 32.6977 205.916 37.8599 205.916Z" fill="#141318"/>
<path d="M104.161 205.916C109.323 205.916 113.508 201.731 113.508 196.569C113.508 191.407 109.323 187.222 104.161 187.222C98.9988 187.222 94.814 191.407 94.814 196.569C94.814 201.731 98.9988 205.916 104.161 205.916Z" fill="#141318"/>
<path d="M37.8599 265.393C43.0221 265.393 47.2069 261.208 47.2069 256.046C47.2069 250.884 43.0221 246.699 37.8599 246.699C32.6977 246.699 28.5129 250.884 28.5129 256.046C28.5129 261.208 32.6977 265.393 37.8599 265.393Z" fill="#141318"/>
<path d="M379.327 57.223C384.489 57.223 388.674 53.0382 388.674 47.876C388.674 42.7138 384.489 38.529 379.327 38.529C374.165 38.529 369.98 42.7138 369.98 47.876C369.98 53.0382 374.165 57.223 379.327 57.223Z" fill="#141318"/>
<path d="M317.663 57.223C322.825 57.223 327.01 53.0382 327.01 47.876C327.01 42.7138 322.825 38.529 317.663 38.529C312.501 38.529 308.316 42.7138 308.316 47.876C308.316 53.0382 312.501 57.223 317.663 57.223Z" fill="#141318"/>
<path d="M284.513 27.485C289.675 27.485 293.86 23.3002 293.86 18.138C293.86 12.9758 289.675 8.79102 284.513 8.79102C279.351 8.79102 275.166 12.9758 275.166 18.138C275.166 23.3002 279.351 27.485 284.513 27.485Z" fill="#141318"/>
<path d="M359.44 21.76C358.02 25.12 354.7 27.48 350.81 27.48C345.65 27.48 341.47 23.3 341.47 18.14C341.47 16.98 341.68 15.86 342.07 14.84C347.96 16.94 353.76 19.25 359.44 21.76Z" fill="#141318"/>
<path d="M379.327 116.7C384.489 116.7 388.674 112.515 388.674 107.353C388.674 102.191 384.489 98.006 379.327 98.006C374.165 98.006 369.98 102.191 369.98 107.353C369.98 112.515 374.165 116.7 379.327 116.7Z" fill="#141318"/>
<path d="M317.663 116.7C322.825 116.7 327.01 112.515 327.01 107.353C327.01 102.191 322.825 98.006 317.663 98.006C312.501 98.006 308.316 102.191 308.316 107.353C308.316 112.515 312.501 116.7 317.663 116.7Z" fill="#141318"/>
<path d="M288.076 86.2641C292.85 84.2999 295.127 78.8375 293.163 74.0635C291.199 69.2895 285.736 67.0117 280.962 68.9759C276.188 70.9402 273.911 76.4026 275.875 81.1766C277.839 85.9506 283.302 88.2284 288.076 86.2641Z" fill="#141318"/>
<path d="M357.421 84.2259C361.071 80.5757 361.071 74.6575 357.421 71.0073C353.77 67.3571 347.852 67.3571 344.202 71.0073C340.552 74.6575 340.552 80.5756 344.202 84.2258C347.852 87.876 353.77 87.876 357.421 84.2259Z" fill="#141318"/>
<path d="M359.913 139.262C361.104 134.239 357.997 129.202 352.974 128.011C347.952 126.82 342.914 129.926 341.723 134.949C340.533 139.972 343.639 145.009 348.662 146.2C353.685 147.391 358.722 144.285 359.913 139.262Z" fill="#141318"/>
<path d="M288.075 145.743C292.849 143.778 295.127 138.316 293.162 133.542C291.198 128.768 285.736 126.49 280.962 128.454C276.188 130.419 273.91 135.881 275.874 140.655C277.838 145.429 283.301 147.707 288.075 145.743Z" fill="#141318"/>
<path d="M440.99 116.7C446.152 116.7 450.337 112.515 450.337 107.353C450.337 102.191 446.152 98.006 440.99 98.006C435.828 98.006 431.643 102.191 431.643 107.353C431.643 112.515 435.828 116.7 440.99 116.7Z" fill="#141318"/>
<path d="M414.445 84.2266C418.095 80.5764 418.095 74.6582 414.445 71.008C410.795 67.3579 404.877 67.3579 401.227 71.0081C397.576 74.6583 397.576 80.5764 401.227 84.2266C404.877 87.8768 410.795 87.8768 414.445 84.2266Z" fill="#141318"/>
<path d="M483.4 138.33C482.79 142.91 478.88 146.44 474.14 146.44C468.98 146.44 464.79 142.25 464.79 137.09C464.79 131.93 468.98 127.74 474.14 127.74C475.56 127.74 476.9 128.06 478.1 128.62C479.94 131.81 481.71 135.05 483.4 138.33Z" fill="#141318"/>
<path d="M416.939 139.264C418.13 134.241 415.024 129.204 410.001 128.013C404.978 126.822 399.941 129.928 398.75 134.951C397.559 139.974 400.666 145.011 405.688 146.202C410.711 147.393 415.748 144.287 416.939 139.264Z" fill="#141318"/>
<path d="M385.932 173.44C389.582 169.79 389.582 163.872 385.932 160.222C382.282 156.572 376.364 156.572 372.714 160.222C369.064 163.872 369.064 169.79 372.714 173.44C376.364 177.091 382.282 177.091 385.932 173.44Z" fill="#141318"/>
<path d="M499.07 175.46C495.69 174.06 493.31 170.72 493.31 166.83C493.31 165.26 493.7 163.79 494.38 162.49C496.06 166.76 497.62 171.08 499.07 175.46Z" fill="#141318"/>
<path d="M444.555 175.483C449.329 173.519 451.607 168.057 449.643 163.283C447.678 158.509 442.216 156.231 437.442 158.195C432.668 160.159 430.39 165.622 432.354 170.396C434.319 175.17 439.781 177.447 444.555 175.483Z" fill="#141318"/>
<path d="M510.78 230.91C509.18 233.75 506.14 235.65 502.65 235.65C497.49 235.65 493.31 231.47 493.31 226.31C493.31 221.15 497.49 216.96 502.65 216.96C505.35 216.96 507.78 218.1 509.48 219.93C509.99 223.56 510.43 227.22 510.78 230.91Z" fill="#141318"/>
<path d="M450.218 227.779C451.042 222.683 447.579 217.884 442.483 217.059C437.387 216.235 432.588 219.698 431.763 224.794C430.939 229.89 434.402 234.69 439.498 235.514C444.594 236.338 449.394 232.876 450.218 227.779Z" fill="#141318"/>
<path d="M407.839 205.916C413.001 205.916 417.186 201.731 417.186 196.569C417.186 191.407 413.001 187.222 407.839 187.222C402.677 187.222 398.492 191.407 398.492 196.569C398.492 201.731 402.677 205.916 407.839 205.916Z" fill="#141318"/>
<path d="M474.14 205.916C479.302 205.916 483.487 201.731 483.487 196.569C483.487 191.407 479.302 187.222 474.14 187.222C468.978 187.222 464.793 191.407 464.793 196.569C464.793 201.731 468.978 205.916 474.14 205.916Z" fill="#141318"/>
<path d="M474.14 265.393C479.302 265.393 483.487 261.208 483.487 256.046C483.487 250.884 479.302 246.699 474.14 246.699C468.978 246.699 464.793 250.884 464.793 256.046C464.793 261.208 468.978 265.393 474.14 265.393Z" fill="#141318"/>
<path d="M18.69 285.69C18.69 290.85 14.51 295.04 9.34997 295.04C6.64997 295.04 4.21997 293.9 2.51997 292.07C2.00997 288.44 1.56997 284.78 1.21997 281.09C2.81997 278.25 5.85997 276.35 9.34997 276.35C14.51 276.35 18.69 280.53 18.69 285.69Z" fill="#141318"/>
<path d="M74.5649 294.345C79.3389 292.381 81.6167 286.918 79.6525 282.144C77.6883 277.37 72.2259 275.092 67.4518 277.057C62.6778 279.021 60.4 284.483 62.3643 289.257C64.3285 294.031 69.7909 296.309 74.5649 294.345Z" fill="#141318"/>
<path d="M18.6899 345.17C18.6899 346.74 18.2999 348.21 17.6199 349.51C15.9399 345.24 14.3799 340.92 12.9299 336.54C16.3099 337.94 18.6899 341.28 18.6899 345.17Z" fill="#141318"/>
<path d="M139.279 351.778C142.929 348.128 142.929 342.21 139.279 338.56C135.629 334.909 129.711 334.909 126.061 338.56C122.41 342.21 122.41 348.128 126.061 351.778C129.711 355.428 135.629 355.428 139.279 351.778Z" fill="#141318"/>
<path d="M80.2492 346.654C81.0736 341.558 77.6107 336.759 72.5146 335.934C67.4184 335.11 62.6189 338.573 61.7945 343.669C60.9701 348.765 64.433 353.564 69.5291 354.389C74.6253 355.213 79.4248 351.75 80.2492 346.654Z" fill="#141318"/>
<path d="M37.8599 324.778C43.0221 324.778 47.2069 320.593 47.2069 315.431C47.2069 310.269 43.0221 306.084 37.8599 306.084C32.6977 306.084 28.5129 310.269 28.5129 315.431C28.5129 320.593 32.6977 324.778 37.8599 324.778Z" fill="#141318"/>
<path d="M104.161 324.778C109.323 324.778 113.508 320.593 113.508 315.431C113.508 310.269 109.323 306.084 104.161 306.084C98.9988 306.084 94.814 310.269 94.814 315.431C94.814 320.593 98.9988 324.778 104.161 324.778Z" fill="#141318"/>
<path d="M113.269 377.03C114.45 372.004 111.334 366.973 106.308 365.792C101.283 364.61 96.2516 367.727 95.0705 372.752C93.8894 377.778 97.0058 382.809 102.031 383.99C107.057 385.171 112.088 382.055 113.269 377.03Z" fill="#141318"/>
<path d="M47.21 374.91C47.21 380.07 43.02 384.26 37.86 384.26C36.44 384.26 35.1 383.94 33.9 383.38C32.06 380.19 30.29 376.95 28.6 373.67C29.21 369.09 33.12 365.56 37.86 365.56C43.02 365.56 47.21 369.75 47.21 374.91Z" fill="#141318"/>
<path d="M236.724 376.386C237.549 371.29 234.086 366.491 228.99 365.666C223.894 364.842 219.094 368.305 218.27 373.401C217.445 378.497 220.908 383.297 226.004 384.121C231.1 384.946 235.9 381.483 236.724 376.386Z" fill="#141318"/>
<path d="M170.292 377.028C171.474 372.002 168.357 366.971 163.332 365.79C158.306 364.609 153.275 367.725 152.094 372.751C150.913 377.776 154.029 382.807 159.054 383.989C164.08 385.17 169.111 382.053 170.292 377.028Z" fill="#141318"/>
<path d="M132.673 413.994C137.835 413.994 142.02 409.809 142.02 404.647C142.02 399.485 137.835 395.3 132.673 395.3C127.511 395.3 123.326 399.485 123.326 404.647C123.326 409.809 127.511 413.994 132.673 413.994Z" fill="#141318"/>
<path d="M71.01 413.994C76.1722 413.994 80.357 409.809 80.357 404.647C80.357 399.485 76.1722 395.3 71.01 395.3C65.8478 395.3 61.663 399.485 61.663 404.647C61.663 409.809 65.8478 413.994 71.01 413.994Z" fill="#141318"/>
<path d="M132.673 473.471C137.835 473.471 142.02 469.286 142.02 464.124C142.02 458.962 137.835 454.777 132.673 454.777C127.511 454.777 123.326 458.962 123.326 464.124C123.326 469.286 127.511 473.471 132.673 473.471Z" fill="#141318"/>
<path d="M110.766 440.992C114.416 437.342 114.416 431.424 110.766 427.773C107.116 424.123 101.198 424.123 97.5477 427.773C93.8975 431.424 93.8976 437.342 97.5478 440.992C101.198 444.642 107.116 444.642 110.766 440.992Z" fill="#141318"/>
<path d="M256 413.994C261.162 413.994 265.347 409.809 265.347 404.647C265.347 399.485 261.162 395.3 256 395.3C250.838 395.3 246.653 399.485 246.653 404.647C246.653 409.809 250.838 413.994 256 413.994Z" fill="#141318"/>
<path d="M194.337 413.994C199.499 413.994 203.684 409.809 203.684 404.647C203.684 399.485 199.499 395.3 194.337 395.3C189.175 395.3 184.99 399.485 184.99 404.647C184.99 409.809 189.175 413.994 194.337 413.994Z" fill="#141318"/>
<path d="M256 473.471C261.162 473.471 265.347 469.286 265.347 464.124C265.347 458.962 261.162 454.777 256 454.777C250.838 454.777 246.653 458.962 246.653 464.124C246.653 469.286 250.838 473.471 256 473.471Z" fill="#141318"/>
<path d="M194.337 473.471C199.499 473.471 203.684 469.286 203.684 464.124C203.684 458.962 199.499 454.777 194.337 454.777C189.175 454.777 184.99 458.962 184.99 464.124C184.99 469.286 189.175 473.471 194.337 473.471Z" fill="#141318"/>
<path d="M167.791 440.993C171.441 437.342 171.441 431.424 167.791 427.774C164.141 424.124 158.223 424.124 154.572 427.774C150.922 431.424 150.922 437.343 154.572 440.993C158.223 444.643 164.141 444.643 167.791 440.993Z" fill="#141318"/>
<path d="M236.726 435.863C237.551 430.766 234.088 425.967 228.992 425.142C223.896 424.318 219.096 427.781 218.272 432.877C217.447 437.973 220.91 442.773 226.006 443.597C231.102 444.422 235.902 440.959 236.726 435.863Z" fill="#141318"/>
<path d="M227.487 503.209C232.649 503.209 236.834 499.024 236.834 493.862C236.834 488.7 232.649 484.515 227.487 484.515C222.325 484.515 218.14 488.7 218.14 493.862C218.14 499.024 222.325 503.209 227.487 503.209Z" fill="#141318"/>
<path d="M170.53 493.86C170.53 495.02 170.32 496.14 169.93 497.16C164.04 495.06 158.24 492.75 152.56 490.24C153.98 486.88 157.3 484.52 161.19 484.52C166.35 484.52 170.53 488.7 170.53 493.86Z" fill="#141318"/>
<path d="M388.425 347.282C389.606 342.257 386.489 337.225 381.464 336.044C376.439 334.863 371.407 337.98 370.226 343.005C369.045 348.03 372.161 353.062 377.187 354.243C382.212 355.424 387.243 352.308 388.425 347.282Z" fill="#141318"/>
<path d="M357.418 381.517C361.068 377.867 361.068 371.949 357.418 368.299C353.768 364.648 347.85 364.648 344.199 368.299C340.549 371.949 340.549 377.867 344.199 381.517C347.85 385.167 353.768 385.167 357.418 381.517Z" fill="#141318"/>
<path d="M293.749 376.384C294.573 371.288 291.11 366.488 286.014 365.664C280.918 364.839 276.118 368.302 275.294 373.398C274.47 378.494 277.932 383.294 283.029 384.118C288.125 384.943 292.924 381.48 293.749 376.384Z" fill="#141318"/>
<path d="M510.78 281.08C510.43 284.78 509.99 288.44 509.48 292.07C507.78 293.9 505.35 295.04 502.65 295.04C497.49 295.04 493.31 290.85 493.31 285.69C493.31 280.53 497.49 276.35 502.65 276.35C506.14 276.35 509.18 278.25 510.78 281.08Z" fill="#141318"/>
<path d="M444.554 294.349C449.328 292.385 451.606 286.922 449.641 282.148C447.677 277.374 442.215 275.097 437.441 277.061C432.667 279.025 430.389 284.487 432.353 289.261C434.317 294.035 439.78 296.313 444.554 294.349Z" fill="#141318"/>
<path d="M499.07 336.54C497.62 340.92 496.06 345.24 494.38 349.51C493.7 348.21 493.31 346.74 493.31 345.17C493.31 341.28 495.69 337.94 499.07 336.54Z" fill="#141318"/>
<path d="M450.223 346.64C451.047 341.544 447.584 336.744 442.488 335.92C437.392 335.096 432.592 338.559 431.768 343.655C430.943 348.751 434.406 353.55 439.503 354.375C444.599 355.199 449.398 351.736 450.223 346.64Z" fill="#141318"/>
<path d="M407.839 324.778C413.001 324.778 417.186 320.593 417.186 315.431C417.186 310.269 413.001 306.084 407.839 306.084C402.677 306.084 398.492 310.269 398.492 315.431C398.492 320.593 402.677 324.778 407.839 324.778Z" fill="#141318"/>
<path d="M474.14 324.778C479.302 324.778 483.487 320.593 483.487 315.431C483.487 310.269 479.302 306.084 474.14 306.084C468.978 306.084 464.793 310.269 464.793 315.431C464.793 320.593 468.978 324.778 474.14 324.778Z" fill="#141318"/>
<path d="M483.4 373.66C481.71 376.95 479.94 380.19 478.1 383.38C476.9 383.94 475.56 384.26 474.14 384.26C468.98 384.26 464.79 380.07 464.79 374.91C464.79 369.75 468.98 365.56 474.14 365.56C478.88 365.56 482.79 369.09 483.4 373.66Z" fill="#141318"/>
<path d="M414.443 381.518C418.093 377.868 418.093 371.949 414.443 368.299C410.793 364.649 404.874 364.649 401.224 368.299C397.574 371.949 397.574 377.868 401.224 381.518C404.874 385.168 410.793 385.168 414.443 381.518Z" fill="#141318"/>
<path d="M379.327 413.994C384.489 413.994 388.674 409.809 388.674 404.647C388.674 399.485 384.489 395.3 379.327 395.3C374.165 395.3 369.98 399.485 369.98 404.647C369.98 409.809 374.165 413.994 379.327 413.994Z" fill="#141318"/>
<path d="M317.663 413.994C322.825 413.994 327.01 409.809 327.01 404.647C327.01 399.485 322.825 395.3 317.663 395.3C312.501 395.3 308.316 399.485 308.316 404.647C308.316 409.809 312.501 413.994 317.663 413.994Z" fill="#141318"/>
<path d="M379.327 473.471C384.489 473.471 388.674 469.286 388.674 464.124C388.674 458.962 384.489 454.777 379.327 454.777C374.165 454.777 369.98 458.962 369.98 464.124C369.98 469.286 374.165 473.471 379.327 473.471Z" fill="#141318"/>
<path d="M317.663 473.471C322.825 473.471 327.01 469.286 327.01 464.124C327.01 458.962 322.825 454.777 317.663 454.777C312.501 454.777 308.316 458.962 308.316 464.124C308.316 469.286 312.501 473.471 317.663 473.471Z" fill="#141318"/>
<path d="M293.751 435.86C294.575 430.764 291.112 425.964 286.016 425.14C280.92 424.315 276.121 427.778 275.296 432.874C274.472 437.971 277.935 442.77 283.031 443.594C288.127 444.419 292.926 440.956 293.751 435.86Z" fill="#141318"/>
<path d="M359.915 436.496C361.096 431.47 357.98 426.439 352.955 425.258C347.929 424.077 342.898 427.193 341.717 432.219C340.536 437.244 343.652 442.275 348.677 443.457C353.703 444.638 358.734 441.521 359.915 436.496Z" fill="#141318"/>
<path d="M359.44 490.24C353.76 492.75 347.96 495.06 342.07 497.16C341.68 496.14 341.47 495.02 341.47 493.86C341.47 488.7 345.65 484.52 350.81 484.52C354.7 484.52 358.02 486.88 359.44 490.24Z" fill="#141318"/>
<path d="M284.513 503.209C289.675 503.209 293.86 499.024 293.86 493.862C293.86 488.7 289.675 484.515 284.513 484.515C279.351 484.515 275.166 488.7 275.166 493.862C275.166 499.024 279.351 503.209 284.513 503.209Z" fill="#141318"/>
<path d="M440.99 413.994C446.152 413.994 450.337 409.809 450.337 404.647C450.337 399.485 446.152 395.3 440.99 395.3C435.828 395.3 431.643 399.485 431.643 404.647C431.643 409.809 435.828 413.994 440.99 413.994Z" fill="#141318"/>
<path d="M416.939 436.494C418.12 431.469 415.003 426.437 409.978 425.256C404.952 424.075 399.921 427.192 398.74 432.217C397.559 437.242 400.675 442.274 405.701 443.455C410.726 444.636 415.757 441.52 416.939 436.494Z" fill="#141318"/>
<path d="M374.073 257.935C366.901 267.229 335.319 305.847 293.572 322.3C281.852 326.922 267.21 317.4 254.234 317.4C241.258 317.4 230.93 326.922 219.235 322.313C177.464 305.847 145.882 267.229 138.709 257.935C137.764 256.704 137.764 255.086 138.709 253.855C145.882 244.561 177.464 205.943 219.21 189.49C230.93 184.868 243.415 202.093 256.391 202.093C269.368 202.093 281.852 184.868 293.547 189.477C335.319 205.943 366.901 244.561 374.073 253.855C375.019 255.086 375.019 256.704 374.073 257.935Z" fill="white"/>
<path d="M332.482 255.895C332.482 284.417 316.794 309.268 293.572 322.3C281.852 326.922 269.368 329.79 256.391 329.79C243.415 329.79 230.93 326.922 219.235 322.313C195.989 309.268 180.3 284.417 180.3 255.895C180.3 227.373 195.989 202.522 219.211 189.49C230.93 184.868 243.415 182 256.391 182C269.368 182 281.852 184.868 293.547 189.477C316.794 202.522 332.482 227.373 332.482 255.895Z" fill="#8664FF"/>
<path d="M256.391 298.341C279.834 298.341 298.837 279.337 298.837 255.895C298.837 232.453 279.834 213.449 256.391 213.449C232.949 213.449 213.945 232.453 213.945 255.895C213.945 279.337 232.949 298.341 256.391 298.341Z" fill="black"/>
</g>
<defs>
<clipPath id="clip0_85_15">
<rect width="512" height="512" fill="white"/>
</clipPath>
</defs>
</svg>
