<svg width="25" height="25" viewBox="0 0 25 25" fill="none" xmlns="http://www.w3.org/2000/svg">
<path d="M23.3999 9.80959C23.4494 8.37825 23.1364 6.95761 22.4899 5.67959C22.0513 5.15519 21.4426 4.8013 20.7699 4.67959C17.9875 4.42712 15.1935 4.32364 12.3999 4.36959C9.61658 4.32155 6.83264 4.42169 4.05993 4.66959C3.51175 4.76931 3.00445 5.02644 2.59993 5.40959C1.69993 6.23959 1.59993 7.65959 1.49993 8.85959C1.35484 11.0172 1.35484 13.182 1.49993 15.3396C1.52886 16.015 1.62942 16.6854 1.79993 17.3396C1.9205 17.8447 2.16445 18.3119 2.50993 18.6996C2.9172 19.103 3.43631 19.3748 3.99993 19.4796C6.15585 19.7457 8.32815 19.856 10.4999 19.8096C13.9999 19.8596 17.0699 19.8096 20.6999 19.5296C21.2774 19.4312 21.8111 19.1591 22.2299 18.7496C22.5099 18.4695 22.719 18.1267 22.8399 17.7496C23.1976 16.6522 23.3732 15.5037 23.3599 14.3496C23.3999 13.7896 23.3999 10.4096 23.3999 9.80959ZM10.1399 14.9496V8.75959L16.0599 11.8696C14.3999 12.7896 12.2099 13.8296 10.1399 14.9496Z" fill="#98A2B3"/>
</svg>
