<?xml version="1.0" encoding="UTF-8"?> <svg xmlns="http://www.w3.org/2000/svg" width="102" height="101" viewBox="0 0 102 101" fill="none"><rect x="0.1875" width="101" height="101" rx="25.25" fill="white"></rect><g clip-path="url(#clip0_731_1753)"><path d="M30.5829 18.9438H72.3702C78.7057 18.9438 83.8281 24.0684 83.8281 30.4065V70.5932C83.8281 76.9313 78.7057 82.0559 72.3702 82.0559H30.5829C24.2474 82.0559 19.125 76.9313 19.125 70.5932V30.4065C19.125 24.0684 24.2474 18.9438 30.5829 18.9438Z" fill="#00005B"></path><path d="M45.1125 56.7037H35.0835L33.0345 63.0688C32.9807 63.3114 32.7648 63.4732 32.5223 63.4463H27.454C27.1574 63.4463 27.0767 63.2845 27.1574 62.9608L35.8385 38.0666C35.9192 37.7968 36.0003 37.5542 36.1082 37.2305C36.2161 36.6643 36.2699 36.0708 36.2699 35.4774C36.243 35.3425 36.3507 35.2076 36.4855 35.1807H43.468C43.6567 35.1807 43.7915 35.2614 43.8185 35.3963L53.6588 62.9067C53.7398 63.2035 53.6588 63.3383 53.3891 63.3383H47.7545C47.5658 63.3653 47.3771 63.2304 47.323 63.0416L45.1123 56.5686V56.7035L45.1125 56.7037ZM36.6473 51.3366H43.4949C43.3332 50.7703 43.1176 50.0958 42.8748 49.3947C42.6321 48.6666 42.3896 47.8844 42.1471 47.0752C41.8774 46.2392 41.6349 45.4301 41.3652 44.594C41.0955 43.7579 40.853 42.9757 40.6374 42.1935C40.4218 41.4383 40.2331 40.7371 40.0442 40.0898H39.9904C39.7476 41.2495 39.4513 42.4092 39.0737 43.5692C38.6694 44.8638 38.2649 46.2123 37.8334 47.561C37.483 48.9364 37.0516 50.2041 36.6473 51.3368V51.3366ZM69.538 54.2764H60.9917C61.0996 55.1124 61.3691 55.9485 61.8274 56.6768C62.3127 57.4049 62.9866 57.9714 63.7954 58.2951C64.8739 58.7536 66.06 58.9962 67.2462 58.9693C68.1898 58.9424 69.1334 58.8613 70.0499 58.6726C70.8856 58.5646 71.6944 58.3489 72.4493 58.0522C72.5842 57.9442 72.6649 57.9984 72.6649 58.2679V62.3946C72.6649 62.5026 72.638 62.6103 72.6111 62.7182C72.5573 62.7993 72.5032 62.8531 72.4224 62.907C71.5598 63.2845 70.67 63.5543 69.7264 63.7161C68.4592 63.9587 67.1921 64.0667 65.898 64.0398C63.849 64.0398 62.1238 63.7161 60.7218 63.0957C59.4008 62.5292 58.2416 61.6393 57.3249 60.5335C56.4622 59.4817 55.8421 58.2948 55.4648 57.0002C55.0874 55.7325 54.8985 54.411 54.8985 53.0625C54.8985 51.6061 55.1141 50.1766 55.5724 48.774C56.0039 47.4256 56.6778 46.1848 57.5943 45.079C58.4841 44 59.5892 43.1371 60.8563 42.5167C62.1235 41.8963 63.6331 41.6806 65.3587 41.6806C66.7876 41.6537 68.2165 41.9235 69.5374 42.5167C70.6428 43.0022 71.6134 43.7305 72.3683 44.6743C73.0692 45.5914 73.6355 46.6162 73.9859 47.749C74.3363 48.8279 74.4981 49.9335 74.4981 51.0393C74.4981 51.6866 74.4712 52.2532 74.4443 52.7656C74.3904 53.278 74.3633 53.6557 74.3363 53.8983C74.3094 54.0871 74.1477 54.2489 73.959 54.2489C73.7972 54.2489 73.5006 54.2758 73.0692 54.3028C72.6378 54.3566 72.1256 54.3838 71.5054 54.3838C70.8853 54.3838 70.2383 54.2758 69.5374 54.2758L69.538 54.2764ZM60.9917 50.3387H66.6801C67.381 50.3387 67.8935 50.3387 68.2167 50.3118C68.4323 50.2848 68.6482 50.2307 68.8368 50.0961V49.8263C68.8368 49.4757 68.783 49.1521 68.6751 48.8284C68.1898 47.3181 66.7609 46.293 65.1702 46.3472C63.6875 46.2661 62.2855 47.0483 61.5846 48.397C61.2611 49.0174 61.0725 49.6647 60.9915 50.3389L60.9917 50.3387Z" fill="#9999FF"></path></g><defs><clipPath id="clip0_731_1753"><rect width="64.7031" height="63.125" fill="white" transform="translate(19.125 18.9375)"></rect></clipPath></defs></svg> 