<?xml version="1.0" encoding="UTF-8"?> <svg xmlns="http://www.w3.org/2000/svg" width="102" height="101" viewBox="0 0 102 101" fill="none"><rect x="0.875" width="101" height="101" rx="25.25" fill="white"></rect><g clip-path="url(#clip0_731_1778)"><path d="M31.2703 18.9438H73.0578C79.3933 18.9438 84.5156 24.0683 84.5156 30.4065V70.5932C84.5156 76.9314 79.3933 82.0559 73.0578 82.0559H31.2703C24.9348 82.0559 19.8125 76.9314 19.8125 70.5932V30.4065C19.8125 24.0683 24.9348 18.9438 31.2703 18.9438Z" fill="#330000"></path><path d="M51.0896 56.7048H41.0607L39.0117 63.043C38.9578 63.2857 38.7421 63.4475 38.4995 63.4205H33.4311C33.1345 63.4205 33.0536 63.2587 33.1345 62.9351L41.8155 37.933C41.8964 37.6633 41.9773 37.3666 42.0851 37.0429C42.193 36.4766 42.2469 35.8832 42.2469 35.2898C42.2199 35.155 42.3278 35.0201 42.4626 34.9932H49.4451C49.6608 34.9932 49.7686 35.0741 49.7956 35.2089L59.6358 62.989C59.7167 63.2857 59.6358 63.4205 59.3662 63.4205H53.7317C53.543 63.4475 53.3542 63.3127 53.3003 63.1239L51.0896 56.7048ZM42.6243 51.2297H49.4721C49.3103 50.6633 49.0946 49.989 48.852 49.2878C48.6093 48.5595 48.3667 47.7774 48.1241 46.9683C47.8545 46.1322 47.6118 45.323 47.3422 44.4869C47.0726 43.6508 46.83 42.8687 46.6143 42.0865C46.3987 41.3313 46.2099 40.6301 46.0212 39.9828H45.9673C45.7247 41.1425 45.4281 42.3023 45.0507 43.462C44.6463 44.7566 44.2419 46.1052 43.8105 47.4537C43.4331 48.8293 43.0287 50.0969 42.6243 51.2297ZM65.6478 39.7131C64.7582 39.74 63.8955 39.3894 63.2484 38.7691C62.6284 38.0948 62.3048 37.2048 62.3318 36.2878C62.3048 35.3707 62.6553 34.5077 63.3024 33.8873C63.9494 33.267 64.8121 32.9434 65.7018 32.9434C66.7532 32.9434 67.562 33.267 68.1551 33.8873C68.7482 34.5346 69.0717 35.3977 69.0448 36.2878C69.0717 37.2048 68.7482 38.0948 68.1012 38.7691C67.4811 39.4164 66.5645 39.767 65.6478 39.7131ZM62.6284 63.1239V42.3562C62.6284 42.0865 62.7362 41.9786 62.9788 41.9786H68.3168C68.5595 41.9786 68.6673 42.1135 68.6673 42.3562V63.1239C68.6673 63.4205 68.5595 63.5554 68.3168 63.5554H63.0328C62.7632 63.5554 62.6284 63.3936 62.6284 63.1239Z" fill="#FF9A00"></path></g><defs><clipPath id="clip0_731_1778"><rect width="64.7031" height="63.125" fill="white" transform="translate(19.8125 18.9375)"></rect></clipPath></defs></svg> 