<?xml version="1.0" encoding="UTF-8"?> <svg xmlns="http://www.w3.org/2000/svg" width="102" height="101" viewBox="0 0 102 101" fill="none"><rect x="0.3125" width="101" height="101" rx="25.25" fill="white"></rect><g clip-path="url(#clip0_731_1765)"><path d="M27.2955 76.8628L22.4062 19.0454L80.7969 19.1616L75.627 76.8628L51.8219 83.5324L27.2955 76.8628Z" fill="#E34F26"></path><path d="M51.8232 77.95V24.5532L75.8689 24.6307L71.5809 72.4045L51.8232 77.95Z" fill="#EF652A"></path><path d="M69.2568 37.8928L69.9377 30.835H32.9478L34.9914 52.4731H60.5199L59.5188 61.702L51.3432 63.8343L43.0475 61.5079L42.6067 56.0015H35.2721L36.2741 67.2471L51.3427 71.3186L66.5313 67.2471L68.575 45.2991H41.7647L41.0033 37.8928H69.2568Z" fill="white"></path></g><defs><clipPath id="clip0_731_1765"><rect width="58.3906" height="64.7031" fill="white" transform="translate(22.4062 18.9375)"></rect></clipPath></defs></svg> 