<?xml version="1.0" encoding="UTF-8"?> <svg xmlns="http://www.w3.org/2000/svg" width="102" height="101" viewBox="0 0 102 101" fill="none"><rect x="0.84375" width="101" height="101" rx="25.25" fill="white"></rect><g clip-path="url(#clip0_731_1760)"><path d="M31.2391 18.9438H73.0265C79.362 18.9438 84.4844 24.0683 84.4844 30.4065V70.5932C84.4844 76.9314 79.362 82.0559 73.0265 82.0559H31.2391C24.9036 82.0559 19.7812 76.9314 19.7812 70.5932V30.4065C19.7812 24.0683 24.9036 18.9438 31.2391 18.9438Z" fill="#001E36"></path><path d="M34.3398 63.2058V35.4526C34.3398 35.2639 34.4207 35.156 34.6094 35.156C35.0678 35.156 35.4991 35.156 36.1192 35.129C36.7662 35.102 37.4402 35.102 38.1681 35.0751C38.896 35.0481 39.6779 35.0481 40.5136 35.0211C41.3493 34.9941 42.1581 34.9941 42.9669 34.9941C45.1776 34.9941 47.0109 35.2638 48.5206 35.8302C49.8686 36.2887 51.1087 37.0439 52.1332 38.0419C52.9959 38.9049 53.6699 39.9568 54.1013 41.1165C54.5057 42.2493 54.7213 43.4091 54.7213 44.6228C54.7213 46.9423 54.1821 48.8572 53.1037 50.3676C52.0254 51.878 50.5156 53.0107 48.7632 53.658C46.93 54.3323 44.908 54.5751 42.6973 54.5751C42.0503 54.5751 41.6189 54.5751 41.3493 54.5481C41.0798 54.5211 40.7023 54.5211 40.1901 54.5211V63.1788C40.217 63.3676 40.0822 63.5294 39.8935 63.5564H34.6634C34.4477 63.5564 34.3398 63.4485 34.3398 63.2058ZM40.217 40.3614V49.4236C40.5945 49.4506 40.945 49.4775 41.2685 49.4775H42.6973C43.7488 49.4775 44.8002 49.3157 45.7977 48.9921C46.6604 48.7493 47.4153 48.2369 48.0084 47.5626C48.5745 46.8883 48.8441 45.9713 48.8441 44.7846C48.8711 43.9485 48.6554 43.1124 48.2241 42.3842C47.7657 41.6829 47.1187 41.1435 46.3369 40.8468C45.3394 40.4423 44.261 40.2804 43.1556 40.3074C42.4547 40.3074 41.8346 40.3074 41.3224 40.3344C40.7832 40.3074 40.4058 40.3344 40.217 40.3614ZM71.5441 47.7784C70.7353 47.3468 69.8726 47.0502 68.956 46.8614C67.9585 46.6456 66.961 46.5107 65.9365 46.5107C65.3973 46.4838 64.8312 46.5647 64.319 46.6995C63.9685 46.7805 63.6719 46.9692 63.4832 47.239C63.3484 47.4547 63.2675 47.7244 63.2675 47.9672C63.2675 48.2099 63.3754 48.4527 63.5371 48.6684C63.7798 48.9651 64.1033 49.2078 64.4538 49.3966C65.0738 49.7203 65.7209 50.017 66.3679 50.2867C67.8237 50.7722 69.2256 51.4464 70.5197 52.2556C71.4093 52.8219 72.1373 53.5771 72.6495 54.4941C73.0808 55.3572 73.2965 56.3012 73.2696 57.2722C73.2965 58.5398 72.9191 59.8074 72.2181 60.8593C71.4633 61.9381 70.4118 62.7742 69.1987 63.2597C67.8776 63.8261 66.26 64.1228 64.319 64.1228C63.0788 64.1228 61.8656 64.0149 60.6524 63.7722C59.7089 63.6103 58.7653 63.3137 57.9026 62.9091C57.7138 62.8012 57.579 62.6124 57.606 62.3966V57.7037C57.606 57.6228 57.633 57.5149 57.7138 57.461C57.7947 57.407 57.8756 57.434 57.9565 57.4879C59.0079 58.1083 60.1133 58.5398 61.2995 58.8095C62.3239 59.0792 63.4023 59.2141 64.4807 59.2141C65.5052 59.2141 66.2331 59.0792 66.7184 58.8365C67.1497 58.6477 67.4463 58.1892 67.4463 57.7037C67.4463 57.3261 67.2306 56.9755 66.7992 56.6249C66.3679 56.2742 65.4782 55.8697 64.1572 55.3572C62.7823 54.8717 61.5152 54.2244 60.3289 53.4153C59.4932 52.8219 58.7922 52.0398 58.28 51.1228C57.8486 50.2597 57.633 49.3157 57.6599 48.3717C57.6599 47.212 57.9834 46.1062 58.5766 45.1083C59.2505 44.0294 60.2481 43.1663 61.4073 42.6269C62.6744 41.9796 64.265 41.6829 66.1792 41.6829C67.2845 41.6829 68.4168 41.7639 69.5222 41.9257C70.331 42.0336 71.1128 42.2493 71.8407 42.546C71.9485 42.573 72.0564 42.6809 72.1103 42.7887C72.1373 42.8966 72.1642 43.0045 72.1642 43.1124V47.5087C72.1642 47.6166 72.1103 47.7244 72.0294 47.7784C71.7868 47.8323 71.652 47.8323 71.5441 47.7784Z" fill="#31A8FF"></path></g><defs><clipPath id="clip0_731_1760"><rect width="64.7031" height="63.125" fill="white" transform="translate(19.7812 18.9375)"></rect></clipPath></defs></svg> 