<?xml version="1.0" encoding="UTF-8"?> <svg xmlns="http://www.w3.org/2000/svg" width="102" height="101" viewBox="0 0 102 101" fill="none"><rect x="0.53125" width="101" height="101" rx="25.25" fill="white"></rect><g clip-path="url(#clip0_731_1746)"><path d="M30.9266 18.9438H72.714C79.0495 18.9438 84.1719 24.0683 84.1719 30.4065V70.5932C84.1719 76.9314 79.0495 82.0559 72.714 82.0559H30.9266C24.5911 82.0559 19.4688 76.9314 19.4688 70.5932V30.4065C19.4688 24.0683 24.5911 18.9438 30.9266 18.9438Z" fill="#470137"></path><path d="M53.4918 35.5316L45.4039 48.8822L54.031 63.042C54.0849 63.1499 54.1119 63.2577 54.0849 63.3656C54.058 63.4735 53.9501 63.3926 53.7884 63.4196H47.6146C47.1833 63.4196 46.8867 63.3926 46.698 63.1229C46.1318 61.9901 45.5387 60.8843 44.9726 59.7515C44.4064 58.6457 43.7863 57.5129 43.1393 56.3532C42.4923 55.1934 41.8452 54.0337 41.1982 52.847H41.1443C40.5781 54.0067 39.9581 55.1665 39.338 56.3262C38.7179 57.486 38.0979 58.6457 37.5047 59.7785C36.8847 60.9113 36.2646 62.071 35.6445 63.1768C35.5367 63.4465 35.321 63.4735 35.0245 63.4735H29.0933C28.9855 63.4735 28.9046 63.5275 28.9046 63.3926C28.8777 63.2847 28.9046 63.1768 28.9585 63.0959L37.343 49.3407L29.1742 35.5046C29.0933 35.3967 29.0664 35.2889 29.1203 35.2349C29.1742 35.154 29.2821 35.127 29.3899 35.127H35.5097C35.6445 35.127 35.7793 35.154 35.8872 35.181C35.995 35.2349 36.0759 35.3158 36.1568 35.4237C36.669 36.5835 37.2621 37.7432 37.8822 38.903C38.5292 40.0627 39.1493 41.1955 39.8233 42.3283C40.4703 43.4611 41.0634 44.5938 41.6296 45.7536H41.6835C42.2496 44.5669 42.8428 43.4071 43.4359 42.2743C44.029 41.1416 44.649 40.0088 45.2691 38.876C45.8892 37.7432 46.4823 36.5835 47.0754 35.4777C47.1024 35.3698 47.1563 35.2619 47.2372 35.2079C47.345 35.154 47.4529 35.127 47.5876 35.154H53.2761C53.4109 35.127 53.5457 35.2079 53.5727 35.3428C53.5996 35.3698 53.5457 35.4777 53.4918 35.5316ZM65.9472 63.986C63.9521 64.0129 61.9571 63.6084 60.1508 62.7723C58.4524 61.9901 57.0505 60.6955 56.0799 59.1042C55.0824 57.459 54.5972 55.4092 54.5972 52.9548C54.5702 50.959 55.0824 48.9901 56.0799 47.264C57.1044 45.5109 58.5872 44.0544 60.3665 43.0835C62.2537 42.0316 64.5183 41.5192 67.1873 41.5192C67.3221 41.5192 67.5108 41.5192 67.7535 41.5461C67.9961 41.5731 68.2657 41.5731 68.5892 41.6001V33.0772C68.5892 32.8884 68.6701 32.7806 68.8588 32.7806H74.3316C74.4664 32.7536 74.5742 32.8615 74.6012 32.9694V58.6997C74.6012 59.1851 74.6282 59.7246 74.6551 60.3179C74.709 60.8843 74.736 61.4237 74.763 61.8822C74.763 62.071 74.6821 62.2329 74.4934 62.3138C73.0915 62.9071 71.6087 63.3387 70.0989 63.6084C68.724 63.8511 67.3491 63.986 65.9472 63.986ZM68.5892 58.5918V46.7245C68.3466 46.6706 68.1039 46.6167 67.8613 46.5897C67.5647 46.5627 67.2682 46.5358 66.9716 46.5358C65.9202 46.5358 64.8688 46.7515 63.9252 47.237C63.0086 47.6955 62.2267 48.3698 61.6336 49.2328C61.0405 50.0959 60.744 51.2557 60.744 52.6582C60.717 53.6021 60.8787 54.5461 61.2023 55.4362C61.4719 56.1644 61.8763 56.8117 62.4154 57.3511C62.9277 57.8366 63.5478 58.2142 64.2487 58.4299C64.9766 58.6727 65.7315 58.7806 66.4864 58.7806C66.8907 58.7806 67.2682 58.7536 67.6187 58.7266C67.9691 58.7536 68.2657 58.6997 68.5892 58.5918Z" fill="#FF61F6"></path></g><defs><clipPath id="clip0_731_1746"><rect width="64.7031" height="63.125" fill="white" transform="translate(19.4688 18.9375)"></rect></clipPath></defs></svg> 