<svg width="144" height="98" viewBox="0 0 144 98" fill="none" xmlns="http://www.w3.org/2000/svg">
<path d="M59.6726 34.6899L55.9825 41.7449V46.0202H54.5032V41.7449L50.7969 34.6899H52.4387L55.2347 40.4282L58.0307 34.6899H59.6726Z" fill="#F0CF22"/>
<path d="M62.7121 35.8928V39.6804H66.8411V40.8996H62.7121V44.801H67.3288V46.0202H61.2329V34.6736H67.3288V35.8928H62.7121Z" fill="#F0CF22"/>
<path d="M76.2645 43.5005H71.3228L70.4124 46.0202H68.8519L72.9483 34.7549H74.6552L78.7354 46.0202H77.1749L76.2645 43.5005ZM75.8419 42.2976L73.7936 36.5756L71.7454 42.2976H75.8419Z" fill="#F0CF22"/>
<path d="M86.4866 46.0202L83.7882 41.3873H82V46.0202H80.5208V34.6899H84.1783C85.0345 34.6899 85.7551 34.8362 86.3403 35.1288C86.9364 35.4214 87.3807 35.817 87.6733 36.3155C87.9659 36.814 88.1122 37.3829 88.1122 38.0223C88.1122 38.8026 87.8846 39.4908 87.4295 40.0868C86.9852 40.6829 86.3132 41.0784 85.4138 41.2735L88.2585 46.0202H86.4866ZM82 40.2006H84.1783C84.9803 40.2006 85.5817 40.0055 85.9827 39.6154C86.3837 39.2144 86.5842 38.6834 86.5842 38.0223C86.5842 37.3504 86.3837 36.8302 85.9827 36.4618C85.5926 36.0933 84.9911 35.9091 84.1783 35.9091H82V40.2006Z" fill="#F0CF22"/>
<path d="M94.0033 46.134C93.2555 46.134 92.5836 46.0039 91.9876 45.7438C91.4024 45.4729 90.9418 45.1044 90.6058 44.6384C90.2699 44.1616 90.0965 43.6143 90.0857 42.9966H91.6625C91.7167 43.5276 91.9334 43.9774 92.3127 44.3458C92.7028 44.7035 93.2664 44.8823 94.0033 44.8823C94.7077 44.8823 95.2604 44.7089 95.6614 44.3621C96.0732 44.0045 96.2791 43.5493 96.2791 42.9966C96.2791 42.5631 96.1599 42.2109 95.9215 41.94C95.6831 41.669 95.3851 41.4631 95.0274 41.3223C94.6698 41.1814 94.1875 41.0296 93.5807 40.8671C92.8329 40.672 92.2314 40.477 91.7763 40.2819C91.3319 40.0868 90.9472 39.7834 90.6221 39.3716C90.3078 38.9489 90.1507 38.3854 90.1507 37.681C90.1507 37.0632 90.3078 36.516 90.6221 36.0391C90.9364 35.5623 91.3753 35.1938 91.9388 34.9337C92.5132 34.6736 93.1688 34.5436 93.9058 34.5436C94.9678 34.5436 95.8348 34.8091 96.5067 35.3401C97.1894 35.8711 97.5742 36.5756 97.6609 37.4534H96.0353C95.9811 37.0199 95.7535 36.6406 95.3525 36.3155C94.9516 35.9795 94.4205 35.8115 93.7595 35.8115C93.1418 35.8115 92.6378 35.9741 92.2477 36.2992C91.8575 36.6135 91.6625 37.0578 91.6625 37.6322C91.6625 38.044 91.7763 38.38 92.0038 38.64C92.2423 38.9001 92.5294 39.1006 92.8654 39.2415C93.2122 39.3716 93.6944 39.5233 94.3122 39.6967C95.0599 39.9026 95.6614 40.1085 96.1166 40.3144C96.5717 40.5095 96.9619 40.8183 97.287 41.241C97.6121 41.6528 97.7747 42.2163 97.7747 42.9316C97.7747 43.4843 97.6283 44.0045 97.3357 44.4921C97.0431 44.9798 96.6097 45.3754 96.0353 45.6788C95.4609 45.9823 94.7836 46.134 94.0033 46.134Z" fill="#F0CF22"/>
<path d="M109.422 46.134C108.371 46.134 107.412 45.8901 106.545 45.4025C105.678 44.904 104.99 44.2158 104.48 43.338C103.982 42.4493 103.733 41.4523 103.733 40.3469C103.733 39.2415 103.982 38.2499 104.48 37.3721C104.99 36.4834 105.678 35.7953 106.545 35.3076C107.412 34.8091 108.371 34.5598 109.422 34.5598C110.484 34.5598 111.449 34.8091 112.316 35.3076C113.183 35.7953 113.865 36.478 114.364 37.3558C114.862 38.2336 115.112 39.2307 115.112 40.3469C115.112 41.4631 114.862 42.4602 114.364 43.338C113.865 44.2158 113.183 44.904 112.316 45.4025C111.449 45.8901 110.484 46.134 109.422 46.134ZM109.422 44.8498C110.213 44.8498 110.923 44.6655 111.552 44.2971C112.191 43.9286 112.69 43.403 113.047 42.7203C113.416 42.0375 113.6 41.2464 113.6 40.3469C113.6 39.4366 113.416 38.6455 113.047 37.9736C112.69 37.2908 112.197 36.7652 111.568 36.3967C110.939 36.0283 110.224 35.844 109.422 35.844C108.62 35.844 107.905 36.0283 107.276 36.3967C106.648 36.7652 106.149 37.2908 105.781 37.9736C105.423 38.6455 105.244 39.4366 105.244 40.3469C105.244 41.2464 105.423 42.0375 105.781 42.7203C106.149 43.403 106.648 43.9286 107.276 44.2971C107.916 44.6655 108.631 44.8498 109.422 44.8498Z" fill="#F0CF22"/>
<path d="M123.469 34.6899V35.8928H118.544V39.7129H122.543V40.9159H118.544V46.0202H117.065V34.6899H123.469Z" fill="#F0CF22"/>
<path d="M53.219 52.1486V55.9362H57.348V57.1554H53.219V61.0568H57.8356V62.276H51.7397V50.9294H57.8356V52.1486H53.219Z" fill="#F0CF22"/>
<path d="M64.7069 56.619L68.1856 62.276H66.5113L63.7966 57.8544L61.2119 62.276H59.5701L63.0326 56.619L59.5538 50.9457H61.2119L63.9429 55.3835L66.5438 50.9457H68.2019L64.7069 56.619Z" fill="#F0CF22"/>
<path d="M69.6177 56.6027C69.6177 55.4973 69.8669 54.5057 70.3654 53.6279C70.864 52.7393 71.5413 52.0457 72.3974 51.5472C73.2644 51.0486 74.2235 50.7994 75.2747 50.7994C76.5101 50.7994 77.5884 51.0974 78.5096 51.6935C79.4308 52.2895 80.1027 53.1348 80.5253 54.2294H78.7534C78.4392 53.5466 77.984 53.021 77.388 52.6526C76.8027 52.2841 76.0983 52.0999 75.2747 52.0999C74.4836 52.0999 73.7738 52.2841 73.1452 52.6526C72.5166 53.021 72.0235 53.5466 71.6659 54.2294C71.3083 54.9013 71.1295 55.6924 71.1295 56.6027C71.1295 57.5022 71.3083 58.2933 71.6659 58.9761C72.0235 59.648 72.5166 60.1682 73.1452 60.5366C73.7738 60.9051 74.4836 61.0893 75.2747 61.0893C76.0983 61.0893 76.8027 60.9105 77.388 60.5529C77.984 60.1844 78.4392 59.6588 78.7534 58.9761H80.5253C80.1027 60.0598 79.4308 60.8997 78.5096 61.4957C77.5884 62.0809 76.5101 62.3735 75.2747 62.3735C74.2235 62.3735 73.2644 62.1297 72.3974 61.642C71.5413 61.1435 70.864 60.4553 70.3654 59.5775C69.8669 58.6997 69.6177 57.7081 69.6177 56.6027Z" fill="#F0CF22"/>
<path d="M84.2066 52.1486V55.9362H88.3356V57.1554H84.2066V61.0568H88.8233V62.276H82.7274V50.9294H88.8233V52.1486H84.2066Z" fill="#F0CF22"/>
<path d="M92.5409 61.0731H96.5073V62.276H91.0616V50.9457H92.5409V61.0731Z" fill="#F0CF22"/>
<path d="M99.5576 61.0731H103.524V62.276H98.0783V50.9457H99.5576V61.0731Z" fill="#F0CF22"/>
<path d="M106.574 52.1486V55.9362H110.703V57.1554H106.574V61.0568H111.191V62.276H105.095V50.9294H111.191V52.1486H106.574Z" fill="#F0CF22"/>
<path d="M122.337 62.276H120.858L114.909 53.254V62.276H113.429V50.9294H114.909L120.858 59.9352V50.9294H122.337V62.276Z" fill="#F0CF22"/>
<path d="M124.306 56.6027C124.306 55.4973 124.556 54.5057 125.054 53.6279C125.553 52.7393 126.23 52.0457 127.086 51.5472C127.953 51.0486 128.912 50.7994 129.963 50.7994C131.199 50.7994 132.277 51.0974 133.198 51.6935C134.12 52.2895 134.791 53.1348 135.214 54.2294H133.442C133.128 53.5466 132.673 53.021 132.077 52.6526C131.492 52.2841 130.787 52.0999 129.963 52.0999C129.172 52.0999 128.463 52.2841 127.834 52.6526C127.205 53.021 126.712 53.5466 126.355 54.2294C125.997 54.9013 125.818 55.6924 125.818 56.6027C125.818 57.5022 125.997 58.2933 126.355 58.9761C126.712 59.648 127.205 60.1682 127.834 60.5366C128.463 60.9051 129.172 61.0893 129.963 61.0893C130.787 61.0893 131.492 60.9105 132.077 60.5529C132.673 60.1844 133.128 59.6588 133.442 58.9761H135.214C134.791 60.0598 134.12 60.8997 133.198 61.4957C132.277 62.0809 131.199 62.3735 129.963 62.3735C128.912 62.3735 127.953 62.1297 127.086 61.642C126.23 61.1435 125.553 60.4553 125.054 59.5775C124.556 58.6997 124.306 57.7081 124.306 56.6027Z" fill="#F0CF22"/>
<path d="M138.895 52.1486V55.9362H143.024V57.1554H138.895V61.0568H143.512V62.276H137.416V50.9294H143.512V52.1486H138.895Z" fill="#F0CF22"/>
<path d="M25.3018 97.5352H12.9199V11.1973H0V0H25.3018V97.5352ZM68.4102 97.5352H56.0283V72.4736H68.4102V97.5352ZM68.4102 24.3838H56.0283V11.1973H43.1084V0H68.4102V24.3838Z" fill="#F0CF22"/>
</svg>
