<svg xmlns="http://www.w3.org/2000/svg" fill="none" viewBox="0 0 114 24" height="24" width="114">
<g clip-path="url(#clip0_1676_84442)">
<path fill="white" d="M9.60397 7.3674C9.60397 7.3674 8.66638 7.25263 7.37451 7.31744C7.1428 7.32959 6.90975 7.3539 6.67939 7.39035L6.03953 7.48891C5.87248 7.50377 5.71083 7.55372 5.54782 7.59152C5.24877 7.65903 4.9551 7.74814 4.67086 7.85616C4.15492 8.05328 3.65648 8.28822 3.19982 8.6055C2.97216 8.76482 2.75931 8.93899 2.56129 9.13072C2.36731 9.31704 2.18949 9.51686 2.02784 9.73289C1.8608 9.95567 1.72204 10.1933 1.6035 10.4431C1.46609 10.7334 1.36506 11.0385 1.28828 11.3531C1.2317 11.584 1.21284 11.8202 1.17108 12.0538C1.16165 12.1024 1.16838 12.1551 1.16704 12.205C1.16299 12.3711 1.16165 12.5385 1.16704 12.706C1.16704 12.706 1.16973 12.9719 1.22631 13.3878C1.28289 13.8104 1.39604 14.2222 1.57117 14.6097C1.61158 14.7015 1.65604 14.7919 1.70588 14.8811C1.98473 15.378 2.3525 15.7938 2.80646 16.1313C3.20386 16.427 3.64437 16.6431 4.10373 16.8186C4.23978 16.8699 4.37854 16.9117 4.51729 16.955C4.65605 16.9981 4.79345 17.0413 4.9349 17.0778C5.0238 17.1021 5.11675 17.1156 5.20835 17.1359C5.39022 17.1763 5.57342 17.2074 5.75798 17.2344C9.08264 17.7016 9.46925 17.9054 9.51371 17.9501C9.52583 17.9608 9.53796 17.9743 9.55008 17.9851C9.62687 18.0567 9.67132 18.1444 9.66862 18.2565C9.66728 18.293 9.66728 18.3295 9.66862 18.3659C9.67536 18.5076 9.61474 18.6197 9.52179 18.7209C9.4046 18.8506 9.25641 18.9342 9.09879 18.991C8.82399 19.0896 8.53975 19.1489 8.24609 19.153C8.0777 19.1557 7.90796 19.1543 7.73957 19.1543L6.76561 19.0586C6.62417 19.0518 6.49081 19.0071 6.35609 18.9735C6.00046 18.8829 5.65424 18.7587 5.31613 18.6157C4.96991 18.4685 4.63584 18.2984 4.31657 18.0985C4.10238 17.9649 3.88549 17.8325 3.674 17.6949C3.52448 17.5963 3.36148 17.5341 3.18905 17.4936C3.15268 17.4856 3.11091 17.4802 3.07454 17.4882C2.96272 17.5126 2.84957 17.5395 2.76335 17.6232C2.66502 17.7191 2.56398 17.8137 2.48046 17.9243C2.32959 18.1282 2.18007 18.3307 2.03727 18.5414C1.80152 18.8911 1.55635 19.2354 1.32195 19.585L0.819482 20.4856C0.819482 20.4856 0.664565 20.8245 0.948804 21.1243C1.03367 21.2323 1.12662 21.3322 1.2317 21.424C1.44993 21.609 1.68837 21.7615 1.92816 21.9114C2.41715 22.2179 2.94657 22.4433 3.48945 22.6324C3.79928 22.739 4.1145 22.8281 4.43512 22.901C4.89852 23.0078 5.36462 23.0928 5.83341 23.167C7.22228 23.2818 8.81321 23.2804 8.81321 23.2804C8.81321 23.2804 9.36014 23.2427 9.67806 23.1873C9.94209 23.1468 10.2048 23.0901 10.4661 23.0334C10.7288 22.9753 10.9807 22.8876 11.2353 22.8065C11.7997 22.6256 12.3306 22.3745 12.8316 22.0586C13.1455 21.8601 13.4284 21.6251 13.7019 21.3767C13.7234 21.3579 13.7544 21.3241 13.7733 21.3024C13.8944 21.1512 14.0359 21.0162 14.1504 20.8569C14.2933 20.6571 14.4388 20.4599 14.5465 20.2386C14.6664 19.9902 14.7795 19.739 14.8657 19.4757C14.8967 19.3812 14.9264 19.2853 14.9466 19.1894C14.9682 19.0855 15.0166 18.9856 15.0086 18.8749C15.0745 18.675 15.0571 18.4657 15.0799 18.2606C15.1069 18.0148 15.0476 17.7704 15.053 17.5234C15.053 17.5098 15.0517 17.495 15.0463 17.4828C14.9938 17.3276 15.0166 17.1589 14.9546 17.0063C14.9412 16.8537 14.8941 16.7078 14.8497 16.562C14.7728 16.3042 14.6678 16.0571 14.5384 15.8221C14.3808 15.5305 14.1868 15.2645 13.9484 15.0323C13.8487 14.9351 13.7531 14.8366 13.6466 14.7488C13.4634 14.5962 13.2681 14.4584 13.066 14.3356C12.5434 14.017 11.9803 13.801 11.3862 13.6632C11.0966 13.5957 10.8042 13.5322 10.5079 13.4904C10.2358 13.4526 9.9623 13.4134 9.69018 13.3756C9.57703 13.3595 9.46252 13.3487 9.34802 13.3365C9.04491 13.3027 8.74048 13.2704 8.43603 13.2379C8.2838 13.2217 8.13158 13.2095 7.97935 13.1907C7.88102 13.1772 7.78402 13.1596 7.68434 13.1542C7.4917 13.1408 7.04042 13.0583 6.87338 13.0044C6.64572 12.9315 6.46117 12.8019 6.36956 12.5683C6.33319 12.475 6.33992 12.3023 6.37899 12.2092C6.45578 12.0323 6.58914 11.9067 6.75349 11.8162C7.01078 11.611 7.8433 11.5867 7.8433 11.5867C8.02785 11.584 8.21106 11.5853 8.39562 11.5853C8.39562 11.5853 9.4019 11.692 9.7279 11.7932C10.3139 11.9742 10.8931 12.1659 11.4495 12.4265C11.6367 12.5142 11.8307 12.5872 12.022 12.6614C12.1877 12.7262 12.3561 12.7735 12.5352 12.7708C12.7818 12.7681 12.9799 12.6723 13.1186 12.463C13.1442 12.4251 13.1684 12.386 13.1927 12.3468C13.3179 12.1457 13.4365 11.9391 13.5523 11.7311C13.8056 11.2761 14.0561 10.8184 14.2851 10.3499C14.3646 10.1839 14.4442 10.0178 14.5169 9.84901C14.5909 9.67348 14.595 9.49121 14.5573 9.30624C14.5533 9.28329 14.5465 9.26033 14.5343 9.24143C14.4818 9.14827 14.4306 9.0551 14.3552 8.97544C14.2326 8.84583 14.0939 8.73782 13.9444 8.6433C13.6386 8.45023 13.3152 8.29497 12.9785 8.16399C12.7778 8.08704 12.5744 8.02223 12.375 7.94797C12.1163 7.85076 11.8523 7.76975 11.5856 7.70629L9.60397 7.3674Z"></path>
<path fill="white" d="M37.8331 7.30944C37.8331 7.30944 36.5682 7.22843 35.5861 7.49036C35.4379 7.53087 35.2884 7.55112 35.1402 7.58892C34.6539 7.71044 34.1946 7.89946 33.7553 8.13439C33.1506 8.45708 32.601 8.86078 32.1227 9.35494C32.0257 9.45486 31.9273 9.55206 31.829 9.64929C31.802 9.67629 31.7724 9.70059 31.7428 9.72489C31.7172 9.7465 31.6593 9.73704 31.6377 9.71004C31.6202 9.68574 31.6013 9.66008 31.5852 9.63443C31.4289 9.39545 31.2404 9.18482 31.045 8.97825C30.8968 8.82298 30.7298 8.68797 30.5601 8.55565C30.2058 8.28156 29.8177 8.06823 29.4124 7.88191C29.12 7.74689 28.8128 7.65238 28.5084 7.55247C28.4141 7.52142 28.3144 7.50656 28.2201 7.47956C27.5991 7.29594 25.7509 7.34319 25.7509 7.34319C25.2807 7.34319 24.8065 7.49171 24.8065 7.49171C24.5506 7.54437 24.304 7.62672 24.0616 7.71988C23.6749 7.86841 23.3046 8.05338 22.9448 8.25726C22.7104 8.38958 22.4842 8.53269 22.2942 8.72711C22.2511 8.77032 22.1986 8.80272 22.1487 8.83918C22.1204 8.86078 22.0813 8.84188 22.0787 8.80677C22.0747 8.72306 22.0679 8.638 22.0693 8.55429C22.0719 8.43818 22.0557 8.32476 22.0288 8.21271C21.987 8.04123 21.8712 7.93186 21.7244 7.85761C21.653 7.8198 21.5627 7.809 21.4805 7.79955L20.1038 7.74824C19.3898 7.74824 18.6759 7.73339 17.9632 7.76309L17.2991 7.7982C17.1927 7.81305 17.0876 7.8333 17.0001 7.90486C16.9018 7.98452 16.8478 8.09389 16.7885 8.2019C16.7467 8.27885 16.7279 8.35717 16.7333 8.44493C16.7361 8.50569 16.7333 8.56779 16.7333 8.62856C16.7333 10.7821 16.7333 12.9342 16.7333 15.0877C16.7333 16.7552 16.7319 18.424 16.7347 20.0928C16.7361 20.6451 16.7455 21.1986 16.7509 21.7522C16.7521 21.79 16.7455 21.8319 16.7575 21.867C16.7926 21.9723 16.7885 22.0789 16.7831 22.1856C16.7777 22.3328 16.829 22.4516 16.9166 22.5676C17.0055 22.6852 17.1172 22.7541 17.2573 22.781C17.3019 22.7905 17.3489 22.7891 17.3948 22.7891C17.5106 22.7905 17.6265 22.781 17.7396 22.7945C17.8932 22.812 18.0467 22.8094 18.199 22.8094C18.4914 22.8108 18.7822 22.8094 19.0746 22.8108C19.2268 22.8108 19.3817 22.7986 19.5326 22.8324C19.5622 22.8391 19.5946 22.8364 19.6242 22.8364C20.062 22.8242 20.4985 22.8566 20.935 22.8134C21.102 22.7972 21.2717 22.7986 21.4402 22.7932C21.5587 22.7891 21.6638 22.7459 21.7715 22.7094C21.7931 22.7027 21.8133 22.6878 21.8295 22.673C21.944 22.5636 22.0261 22.4434 22.0248 22.2734C22.0248 21.9979 22.0369 21.7211 22.0436 21.4443C22.0436 21.4214 22.0423 21.3984 22.0477 21.3754C22.0773 21.254 22.0693 21.1311 22.0693 21.0082C22.0693 19.3327 22.0693 17.6572 22.0693 15.9802C22.0693 15.1472 22.1932 14.3115 22.1932 14.3115C22.3131 13.8861 22.5138 13.5 22.7994 13.1597C22.8923 13.049 22.996 12.9436 23.1065 12.8505C23.3314 12.6628 23.582 12.517 23.8528 12.4036C24.1316 12.2888 24.4267 12.2443 24.7189 12.1889C24.7419 12.1849 24.7647 12.1876 24.7891 12.1876C24.9723 12.1876 25.1568 12.1849 25.3413 12.1876C25.3938 12.1889 25.4464 12.1997 25.4989 12.2093C25.5447 12.2159 25.5892 12.2335 25.635 12.2349C25.7132 12.2362 25.7832 12.2632 25.8587 12.2794C26.225 12.3591 26.5457 12.536 26.8461 12.7507C27.04 12.8897 27.1693 13.0369 27.2488 13.1273C27.6233 13.5594 27.785 13.9996 27.8389 14.2642C27.9493 14.8164 27.9493 14.8164 27.9709 15.6481L27.9803 19.9915C27.9803 20.5303 27.9803 21.069 27.9817 21.6064L27.9965 22.3084C27.9978 22.4084 28.0248 22.5718 28.08 22.6406C28.1891 22.7743 28.3562 22.8485 28.5299 22.8472L32.877 22.8228C32.9188 22.8228 32.9619 22.8148 32.9997 22.7972C33.2893 22.669 33.2449 22.291 33.2449 22.291L33.2893 14.9312C33.2907 14.5935 33.393 14.3033 33.393 14.3033C33.3984 14.2885 33.4024 14.2736 33.4064 14.2588C33.4779 14.0225 33.5789 13.7983 33.6988 13.5836C33.8928 13.238 34.1541 12.9504 34.476 12.7169C34.6822 12.567 34.9099 12.4577 35.1456 12.3658C35.3315 12.2942 35.5254 12.2592 35.7248 12.2308C35.9403 12.1997 36.1627 12.1889 36.3795 12.1984C36.4361 12.2011 36.8766 12.2375 36.9332 12.2484C37.1757 12.2902 37.4047 12.3739 37.627 12.4805C37.8155 12.5697 37.9839 12.6885 38.1496 12.814C38.248 12.8883 38.3369 12.9734 38.4164 13.0666C38.6764 13.3744 38.8703 13.7214 39.0104 14.0981C39.0778 14.279 39.1101 14.4681 39.1277 14.6584C39.1425 14.8339 39.1707 15.0243 39.1627 15.185C39.1681 15.3848 39.1788 15.5846 39.1788 15.7845C39.1815 16.8754 39.1802 17.9676 39.1802 19.0599L39.2314 21.8008C39.23 21.925 39.2246 21.9885 39.234 22.1734C39.234 22.1734 39.2112 22.7607 39.6867 22.7851L43.7105 22.7932C43.7105 22.7932 44.1605 22.8296 44.3504 22.669C44.5309 22.515 44.5174 22.1762 44.5174 22.1762V21.8197C44.5188 19.8431 44.5969 17.5288 44.5174 15.555C44.4177 13.0814 44.2116 12.3159 44.2116 12.3159C44.1901 12.2335 44.1713 12.1512 44.1483 12.0715C44.0526 11.7474 43.9422 11.4288 43.8116 11.1169C43.724 10.9117 43.6297 10.7105 43.5192 10.5174C43.2956 10.1232 43.0477 9.74514 42.7366 9.4103C42.5695 9.23073 42.4011 9.05386 42.2152 8.89184C41.9324 8.6434 41.6278 8.42333 41.3005 8.23835C41.3005 8.23835 40.1366 7.52817 37.8331 7.30944Z"></path>
<path fill="white" d="M52.9691 12.563C52.6404 12.7371 52.3562 12.9707 52.1096 13.2475C52.0221 13.3448 51.9453 13.45 51.8699 13.5567C51.8038 13.6499 51.7419 13.7484 51.688 13.8497C51.6315 13.9577 51.5843 14.0725 51.5384 14.1859C51.4711 14.3493 51.4388 14.522 51.3943 14.6922C51.3943 14.6922 51.2368 15.2485 51.3781 15.7925C51.4079 15.9019 51.4281 16.0113 51.455 16.1206C51.5116 16.3516 51.6112 16.5663 51.723 16.7768C51.8712 17.059 52.0666 17.3048 52.2902 17.5249C52.5488 17.78 52.8492 17.9798 53.1833 18.1257C53.38 18.212 53.5793 18.2945 53.7949 18.3174C53.9848 18.339 54.1734 18.3741 54.3715 18.3592C54.5897 18.3754 54.8093 18.3296 55.0302 18.3107C55.0747 18.3079 55.1191 18.2985 55.1622 18.2863C55.5138 18.1891 55.8411 18.0419 56.1375 17.8286C56.2372 17.7571 56.3315 17.6774 56.4257 17.5991C56.7693 17.3142 57.0279 16.9673 57.2031 16.5581C57.2677 16.4056 57.3338 16.2502 57.3594 16.0829L57.4348 15.6062C57.4455 15.5455 57.459 15.4847 57.4604 15.424C57.4604 15.2957 57.4698 15.1661 57.4496 15.0378C57.4348 14.942 57.4213 14.8461 57.4118 14.7503C57.4011 14.6476 57.3594 14.549 57.3512 14.4465C57.2825 14.2602 57.2259 14.0685 57.1316 13.8916C57.0347 13.7093 56.9296 13.5297 56.8003 13.3677C56.7047 13.2489 56.609 13.1273 56.4918 13.0275C56.3463 12.9019 56.1981 12.7817 56.0338 12.6804C56.0338 12.6804 55.4263 12.1215 53.9202 12.2389C53.9202 12.2389 53.4272 12.2605 52.9691 12.563ZM62.186 22.7865L58.1892 22.7851C58.0787 22.7878 57.979 22.7527 57.8752 22.727C57.8537 22.7216 57.8349 22.7068 57.816 22.6932C57.6894 22.6001 57.5816 22.4759 57.5345 22.3274C57.49 22.1896 57.4523 22.0533 57.4604 21.9034C57.4617 21.8805 57.4563 21.8575 57.4523 21.8359C57.4509 21.8292 57.4455 21.8184 57.4415 21.8184C57.4267 21.817 57.4078 21.813 57.3984 21.8211C57.3634 21.8495 57.3297 21.8805 57.2974 21.9128C57.2044 22.0047 57.1114 22.0951 57.0091 22.1788C56.7357 22.403 56.4393 22.5907 56.116 22.7379C55.8708 22.8486 55.6202 22.9404 55.3615 23.016C55.0665 23.1024 54.7675 23.1605 54.463 23.2023C54.463 23.2023 53.3261 23.3886 52.3266 23.151C51.8348 23.07 51.3553 22.9431 50.8892 22.7595C50.5887 22.6419 50.2978 22.5097 50.0149 22.3557C49.7172 22.1951 49.4356 22.0101 49.1662 21.8089C48.9695 21.6631 48.7809 21.5065 48.6018 21.3377C48.4617 21.2067 48.3176 21.0798 48.1841 20.9421C47.815 20.5614 47.4756 20.155 47.1968 19.704C46.93 19.2734 46.6984 18.8237 46.5286 18.3444C46.3858 17.9407 46.2847 17.6235 46.1878 17.1806C46.1582 17.0468 46.1097 16.9146 46.1002 16.7782L46.0234 16.1869C45.9924 16.0505 45.9898 15.9127 45.9898 15.7737C45.9898 15.6832 45.9776 15.5914 45.9763 15.4983C45.9736 15.3066 45.975 15.1148 45.975 14.923C45.9763 14.8934 45.9898 14.4775 45.9884 14.4478C46.0032 14.1346 46.0867 13.7578 46.0867 13.7578L46.2012 13.1976C46.2188 13.0774 46.2605 12.9612 46.2969 12.8438C46.371 12.6035 46.4438 12.3617 46.5353 12.1282C46.7064 11.6908 46.9085 11.2695 47.1509 10.8685C47.3705 10.508 47.6143 10.1624 47.8999 9.85049C48.1532 9.5737 48.4199 9.30772 48.7109 9.06873C49.2537 8.62319 49.8411 8.25729 50.4824 7.9697C50.8475 7.80633 51.2232 7.67806 51.6031 7.55926L52.0464 7.44719C53.5161 7.15825 54.3109 7.34323 54.3109 7.34323C54.4778 7.34323 55.0126 7.43233 55.0126 7.43233C55.1259 7.45528 55.2336 7.49039 55.3441 7.5201C55.8963 7.67131 56.4069 7.91165 56.865 8.25729C57.0064 8.3626 57.133 8.48682 57.2651 8.60293C57.3108 8.64344 57.3526 8.68799 57.3998 8.7285C57.4078 8.73525 57.4267 8.7312 57.4415 8.72985C57.4455 8.72985 57.4509 8.71904 57.4523 8.71365C57.4563 8.69879 57.4617 8.68259 57.4604 8.66774C57.4442 8.52597 57.4981 8.39501 57.5331 8.26269C57.5573 8.17223 57.6018 8.09797 57.6584 8.03181C57.7635 7.913 57.9076 7.83468 58.0639 7.80499C58.1514 7.78743 58.2673 7.77122 58.4154 7.76313C58.8129 7.75772 59.2116 7.74963 59.6103 7.74692C60.0091 7.74422 60.4091 7.74422 60.808 7.74692L61.9112 7.76718C61.9947 7.77258 62.0701 7.78068 62.1362 7.79148C62.4204 7.83604 62.6575 8.03856 62.7424 8.314L62.745 8.31939C62.7572 8.3626 62.7518 8.41121 62.7532 8.45712L62.7989 9.88289L62.7935 14.3776L62.7787 19.7944L62.7868 21.9912C62.7868 21.9912 62.7895 22.0749 62.7289 22.2842C62.6736 22.4732 62.5471 22.6353 62.3719 22.7244C62.3638 22.7297 62.3544 22.7338 62.3463 22.7379C62.2709 22.7729 62.186 22.7865 62.0998 22.7851"></path>
<path fill="white" d="M70.0661 14.9472C70.0661 15.3468 70.0378 20.2628 70.0364 20.6625C70.0364 21.139 70.0095 21.6157 70.0189 22.0923C70.0202 22.1463 70.0189 22.2462 70.0148 22.3474C70.0054 22.5824 69.8411 22.7795 69.6134 22.8322L69.608 22.8336L65.7997 22.8106C65.6219 22.816 65.4468 22.7889 65.2717 22.7877C65.2501 22.7863 65.2313 22.7769 65.2111 22.7755C64.6238 22.7404 64.714 21.9302 64.714 21.9302C64.714 17.9486 64.7288 14.1115 64.7315 10.1298C64.7315 9.79226 64.7517 9.45472 64.7477 9.11718C64.7288 8.56631 64.8312 8.1113 64.8312 8.1113C64.8474 8.02624 64.8904 7.95333 64.9686 7.90743C65.0077 7.88313 65.0481 7.86152 65.0885 7.83856C65.1356 7.81156 65.1868 7.79672 65.2421 7.79672C65.5142 7.68599 67.6991 7.74676 67.6991 7.74676C68.044 7.75081 68.3902 7.75756 68.7351 7.76296C68.9088 7.79401 69.0853 7.78726 69.2605 7.80211C69.4302 7.81831 69.5851 7.89122 69.6916 8.03704C69.7239 8.08025 69.7481 8.12616 69.763 8.18016C69.7967 8.30707 69.8141 8.43399 69.8127 8.56631C69.8115 8.74318 69.8155 8.92005 69.8195 9.09557C69.8209 9.10637 69.8383 9.11853 69.8505 9.12663C69.8545 9.12932 69.8653 9.12393 69.8721 9.12123C69.8788 9.11853 69.8855 9.11448 69.8909 9.10907C69.9111 9.08748 69.934 9.06452 69.9528 9.04157C70.1442 8.79854 70.3731 8.59601 70.6291 8.42453C70.8016 8.30843 70.9767 8.19907 71.1585 8.1005C71.4967 7.91552 71.8523 7.77781 72.2187 7.6671C72.3723 7.62119 72.5272 7.57528 72.6862 7.55233C72.891 7.52398 73.093 7.49428 73.3059 7.49292L74.2946 7.51453C74.5519 7.51992 74.785 7.6698 74.8927 7.90472L74.8955 7.91013C74.9291 7.98438 74.9628 8.06 74.9587 8.1437L74.9614 8.30573L75.0018 9.3251C75.0032 9.85572 75.0018 10.3863 75.0018 10.917L74.956 12.3859C74.956 12.4305 74.9426 12.5007 74.9264 12.5425C74.8496 12.7288 74.7136 12.8612 74.5479 12.9678C74.5008 12.9989 74.2636 13.061 74.1962 13.0623L73.5779 13.0853L72.3372 13.1136C72.3372 13.1136 71.3458 13.2068 71.0427 13.3702C70.6682 13.52 70.4042 13.7847 70.2358 14.1492C70.2304 14.1628 70.2224 14.1776 70.217 14.1911C70.2088 14.2141 70.1994 14.2371 70.1914 14.26C70.1091 14.4787 70.0661 14.7096 70.0661 14.9432V14.9472Z"></path>
<path fill="white" d="M89.5169 11.5043C89.5115 11.7703 89.3862 11.9742 89.1802 12.1294C89.0872 12.1997 88.974 12.232 88.8568 12.2347L84.8559 12.2888C84.8021 12.2888 84.7481 12.2888 84.6943 12.2888C84.5555 12.2888 84.5179 12.3063 84.5327 12.4615C84.5434 12.5763 84.5353 12.6924 84.5353 12.8072C84.5353 13.4296 84.5353 14.0521 84.5353 14.6745C84.5353 15.4049 84.5367 16.1354 84.5353 16.8658C84.5353 17.0603 84.5771 17.2466 84.635 17.4288C84.6822 17.5773 84.7617 17.7097 84.8667 17.8231C84.9502 17.9136 85.0499 17.9865 85.1658 18.0337C85.4366 18.1445 85.714 18.1633 86.001 18.1107C86.207 18.0716 86.3983 17.9959 86.5843 17.9054C86.7298 17.8366 86.8725 17.761 87.01 17.6772C87.1567 17.5881 87.3144 17.5314 87.4787 17.4963C87.5892 17.4721 87.7077 17.4639 87.8168 17.518C87.8384 17.5274 87.8614 17.5314 87.8829 17.5382C87.9839 17.5638 88.062 17.6246 88.1254 17.7043C88.2305 17.8366 88.3382 17.9675 88.4406 18.0999C88.6292 18.3429 88.8205 18.5832 89.0023 18.8303C89.3431 19.2921 89.688 19.7525 89.9992 20.2359C90.1003 20.3951 90.1514 20.5694 90.1904 20.7503C90.1958 20.7731 90.1972 20.7975 90.1932 20.8191C90.1676 20.9474 90.1433 21.0756 90.0733 21.1891C89.9668 21.3592 89.8415 21.5144 89.6906 21.6468C89.5303 21.7885 89.3553 21.9141 89.1748 22.0302C88.8299 22.2489 88.4607 22.4164 88.0822 22.5648C87.7549 22.6945 87.4155 22.793 87.0732 22.8673C86.7594 22.9362 86.4442 23.0009 86.1235 23.0307C85.9336 23.0496 85.7424 23.0644 85.5523 23.086C85.2156 23.1239 84.8788 23.1009 84.5421 23.1063C84.4356 23.1076 84.3278 23.0914 84.2215 23.0806C83.9008 23.0482 83.583 23.0037 83.269 22.9308C82.9485 22.8565 82.6319 22.7687 82.3261 22.6445C81.9058 22.4731 81.5084 22.2584 81.146 21.9829C80.8025 21.7224 80.5007 21.4199 80.2475 21.0675C79.9619 20.6719 79.7477 20.2453 79.5888 19.7836C79.2574 18.8033 79.225 16.7943 79.225 16.7943C79.225 16.5715 79.2263 16.3488 79.225 16.1259L79.1697 13.2946C79.1739 12.9867 79.1563 12.6803 79.1805 12.3738C79.1833 12.3387 79.1469 12.2982 79.1105 12.2955C79.0728 12.2914 79.0338 12.2901 78.996 12.2888C78.8196 12.2888 78.6431 12.2901 78.4666 12.2888L77.0279 12.1807C76.9754 12.1672 76.9282 12.143 76.8864 12.1078C76.7154 11.9647 76.6278 11.7797 76.609 11.5596C76.6076 11.5408 76.6076 11.5218 76.6076 11.5029C76.6076 10.4863 76.6076 9.47094 76.6076 8.45561C76.6076 8.44346 76.6062 8.42591 76.6036 8.41511C76.5793 8.23688 76.6696 8.10052 76.7827 7.98035C76.8851 7.87234 77.0117 7.80078 77.168 7.79673L77.4401 7.76433C77.6233 7.75757 77.8079 7.74812 77.991 7.74678C78.3063 7.74407 78.6201 7.74542 78.9354 7.74542C78.9893 7.74542 79.0432 7.74542 79.097 7.74407C79.1523 7.74137 79.1631 7.71032 79.1617 7.65632C79.1577 7.57936 79.1697 7.50375 79.1697 7.42679C79.1685 6.66934 79.1685 5.91055 79.1685 5.1531C79.1685 5.12744 79.1685 5.10044 79.1685 5.0748L79.2048 3.83534C79.2115 3.74082 79.2924 3.65981 79.3611 3.59365C79.4513 3.5086 79.5496 3.43839 79.6682 3.39788C79.6897 3.38978 79.7113 3.38033 79.7343 3.37763C79.8392 3.36413 79.9457 3.35063 80.0521 3.34253L84.0059 3.38438C84.2417 3.44108 84.3898 3.59501 84.4679 3.82048C84.4815 3.86369 84.4827 3.91095 84.4855 3.95685L84.5273 7.67116C84.5273 7.71302 84.5542 7.74137 84.5972 7.74273C84.674 7.74407 84.7509 7.74542 84.8277 7.74542C86.1087 7.74542 87.3912 7.74542 88.6723 7.74542C88.7181 7.74542 88.7639 7.74542 88.8097 7.74542C88.8097 7.74542 89.0657 7.74542 89.234 7.89935C89.2529 7.9169 89.2731 7.9331 89.2947 7.9493C89.3916 8.02221 89.4456 8.12212 89.4765 8.24229C89.4981 8.34355 89.5102 8.44616 89.5115 8.54877L89.5169 11.5043Z"></path>
<path fill="white" d="M96.5564 14.9345C96.5551 15.3342 96.5268 20.2501 96.5268 20.6498C96.5254 21.1264 96.4984 21.603 96.5092 22.0782C96.5106 22.1337 96.5092 22.2335 96.5052 22.3348C96.4958 22.5697 96.3301 22.7668 96.1025 22.8195C96.1025 22.8195 96.0997 22.8209 96.0971 22.8209L92.2888 22.7979C92.1123 22.8033 91.9372 22.7763 91.7607 22.7736C91.7406 22.7736 91.7216 22.7641 91.7014 22.7628C91.1128 22.7276 91.2044 21.9176 91.2044 21.9176C91.2044 17.9359 91.2192 14.0987 91.2219 10.1171C91.2219 9.77957 91.2407 9.44202 91.2367 9.10448C91.2192 8.55361 91.3215 8.0986 91.3215 8.0986C91.3364 8.01355 91.3808 7.94064 91.4576 7.89473C91.498 7.87043 91.5371 7.84882 91.5775 7.82587C91.6247 7.79752 91.6758 7.78402 91.7311 7.78402C92.0046 7.6733 94.1895 7.73406 94.1895 7.73406C94.5344 7.73811 94.8792 7.74486 95.2242 7.75026C95.3979 7.78132 95.5757 7.77457 95.7495 7.78941C95.9206 7.80562 96.0741 7.87853 96.1819 8.02435C96.2142 8.06755 96.2372 8.11346 96.252 8.16746C96.287 8.29438 96.3032 8.42129 96.3032 8.55361C96.3005 8.73048 96.3059 8.90601 96.3099 9.08288C96.3099 9.09367 96.3287 9.10583 96.3409 9.11394C96.3449 9.11663 96.3543 9.11123 96.3611 9.10853C96.3679 9.10583 96.3759 9.10178 96.3799 9.09638C96.4015 9.07478 96.4231 9.05183 96.4419 9.02887C96.6345 8.78584 96.8635 8.58332 97.1195 8.41049C97.2906 8.29574 97.4657 8.18637 97.6489 8.0878C97.9857 7.90283 98.3414 7.76511 98.7078 7.6544C98.8613 7.6085 99.0175 7.56259 99.1752 7.53963C99.38 7.51129 99.5833 7.48158 99.7962 7.48022L100.784 7.50183C101.041 7.50723 101.275 7.65709 101.383 7.89203L101.386 7.89743C101.418 7.97034 101.453 8.0473 101.449 8.13101L101.45 8.29303L101.491 9.3124C101.492 9.84303 101.492 10.3736 101.491 10.9043L101.445 12.3733C101.445 12.4178 101.433 12.488 101.415 12.5299C101.339 12.7162 101.203 12.8486 101.038 12.9552C100.99 12.9862 100.753 13.0483 100.687 13.0497L100.067 13.0726L98.8263 13.101C98.8263 13.101 97.8348 13.1941 97.5318 13.3575C97.1585 13.5074 96.8931 13.772 96.7262 14.1366C96.7194 14.15 96.7127 14.1636 96.7073 14.1784C96.6979 14.2014 96.6898 14.2243 96.6803 14.2473C96.5981 14.466 96.5564 14.6968 96.5564 14.9305V14.9345Z"></path>
<path fill="white" d="M108.288 14.9345C108.287 15.3342 108.258 20.2501 108.258 20.6498C108.257 21.1264 108.23 21.603 108.241 22.0782C108.242 22.1337 108.241 22.2335 108.237 22.3348C108.227 22.5697 108.062 22.7668 107.834 22.8195C107.834 22.8195 107.831 22.8209 107.829 22.8209L104.02 22.7979C103.844 22.8033 103.669 22.7763 103.492 22.7736C103.472 22.7736 103.453 22.7641 103.433 22.7628C102.844 22.7276 102.935 21.9176 102.935 21.9176C102.935 17.9359 102.951 14.0987 102.953 10.1171C102.953 9.77957 102.972 9.44202 102.968 9.10448C102.951 8.55361 103.053 8.0986 103.053 8.0986C103.068 8.01355 103.113 7.94064 103.189 7.89473C103.23 7.87043 103.269 7.84882 103.309 7.82587C103.356 7.79752 103.408 7.78402 103.463 7.78402C103.736 7.6733 105.921 7.73406 105.921 7.73406C106.266 7.73811 106.611 7.74486 106.956 7.75026C107.13 7.78132 107.306 7.77457 107.481 7.78941C107.652 7.80562 107.806 7.87853 107.914 8.02435C107.946 8.06755 107.969 8.11346 107.984 8.16746C108.019 8.29438 108.035 8.42129 108.033 8.55361C108.032 8.73048 108.037 8.90601 108.041 9.08288C108.041 9.09367 108.06 9.10583 108.071 9.11394C108.075 9.11663 108.086 9.11123 108.093 9.10853C108.099 9.10583 108.106 9.10178 108.112 9.09638C108.133 9.07478 108.155 9.05183 108.174 9.02887C108.366 8.78584 108.594 8.58332 108.851 8.41049C109.022 8.29574 109.197 8.18637 109.379 8.0878C109.717 7.90283 110.073 7.76511 110.439 7.6544C110.593 7.6085 110.749 7.56259 110.907 7.53963C111.112 7.51129 111.315 7.48158 111.528 7.48022L112.515 7.50183C112.773 7.50723 113.007 7.65709 113.115 7.89203L113.117 7.89743C113.15 7.97034 113.185 8.0473 113.181 8.13101L113.182 8.29303L113.223 9.3124C113.224 9.84303 113.224 10.3736 113.223 10.9043L113.177 12.3733C113.177 12.4178 113.165 12.488 113.147 12.5299C113.07 12.7162 112.934 12.8486 112.77 12.9552C112.721 12.9862 112.484 13.0483 112.418 13.0497L111.799 13.0726L110.558 13.101C110.558 13.101 109.566 13.1941 109.263 13.3575C108.89 13.5074 108.625 13.772 108.458 14.1366C108.451 14.15 108.444 14.1636 108.439 14.1784C108.431 14.2014 108.421 14.2243 108.413 14.2473C108.33 14.466 108.288 14.6968 108.288 14.9305V14.9345Z"></path>
<path fill="white" d="M113.125 5.32448C113.101 5.446 113.055 5.55806 112.961 5.64717C112.861 5.74033 112.747 5.79163 112.611 5.79569C112.557 5.79704 112.503 5.79704 112.449 5.79704C109.511 5.79704 106.573 5.79704 103.635 5.79704C103.488 5.79704 103.343 5.79434 103.208 5.73088C103.1 5.68092 103.022 5.59721 102.974 5.48921C102.961 5.46219 102.957 5.4298 102.956 5.39874C102.952 5.33798 102.953 5.27587 102.953 5.21511C102.953 3.81635 102.953 2.41757 102.953 1.01879C102.953 0.956684 102.953 0.895927 102.955 0.833819C102.959 0.737957 102.998 0.656947 103.068 0.589438C103.118 0.540832 103.177 0.504378 103.239 0.474674C103.265 0.461173 103.297 0.457122 103.326 0.455772C103.395 0.451722 103.465 0.453071 103.534 0.453071C105.006 0.453071 106.48 0.453071 107.952 0.453071C109.402 0.453071 110.851 0.453071 112.302 0.453071C112.348 0.453071 112.394 0.457122 112.44 0.453071C112.592 0.435519 112.728 0.494927 112.857 0.558385C113.028 0.642094 113.115 0.793314 113.128 0.983688C113.132 1.03634 113.129 1.09035 113.129 1.14436L113.125 5.32448Z"></path>
</g>
<defs>
<clipPath id="clip0_1676_84442">
<rect transform="translate(0.777344 0.449951)" fill="white" height="23" width="112.444"></rect>
</clipPath>
</defs>
</svg>
