<svg xmlns="http://www.w3.org/2000/svg" fill="none" viewBox="0 0 152 22" height="22" width="152">
<g clip-path="url(#clip0_1676_84451)">
<mask height="22" width="152" y="0" x="0" maskUnits="userSpaceOnUse" style="mask-type:luminance" id="mask0_1676_84451">
<path fill="white" d="M151.953 0.449951H0V21.4354H151.953V0.449951Z"></path>
</mask>
<g mask="url(#mask0_1676_84451)">
<mask height="18" width="22" y="0" x="0" maskUnits="userSpaceOnUse" style="mask-type:luminance" id="mask1_1676_84451">
<path fill="white" d="M21.8955 0.449951H0V17.0462H21.8955V0.449951Z"></path>
</mask>
<g mask="url(#mask1_1676_84451)">
<path fill="white" d="M15.0193 16.5746C15.0486 16.8315 14.8447 17.0449 14.5919 17.0449H8.20157C7.95489 17.0449 7.76194 16.8489 7.76194 16.5982V7.54437C7.76194 7.31353 7.58854 7.11749 7.36019 7.08148C6.01446 6.8693 1.69399 5.79465 0.024656 1.04063C-0.0730372 0.763906 0.132118 0.457397 0.419092 0.449951H5.25489C9.25056 0.627404 12.2485 3.22467 13.455 6.75388L13.4623 6.74645C14.4661 9.68745 14.9058 14.9738 15.0193 16.5746Z" clip-rule="evenodd" fill-rule="evenodd"></path>
<path fill="white" d="M21.8741 0.963697C20.3 5.56506 17.0639 6.63228 15.1931 7.03186C14.9928 7.06289 14.8023 6.94126 14.7498 6.74521C14.1539 4.60335 13.3247 3.42942 12.2489 2.41807C12.0669 2.24806 12.0742 1.94776 12.2843 1.81249C13.5433 0.966178 15.0978 0.454915 17.0383 0.452433V0.449951H21.5078C21.7715 0.449951 21.9632 0.71427 21.8741 0.963697Z" clip-rule="evenodd" fill-rule="evenodd"></path>
</g>
<path fill="white" d="M29.5234 3.60888V1.21265H41.9159V3.60888H37.1156V16.9961H34.3252V3.60888H29.5248H29.5234Z"></path>
<path fill="white" d="M42.546 16.997V5.15971H45.2083V7.1328H45.3291C45.5417 6.44906 45.9055 5.9229 46.4208 5.5531C46.941 5.17834 47.5359 4.99097 48.2026 4.99097C48.3541 4.99097 48.5238 4.9984 48.7106 5.01454C48.9023 5.02446 49.0622 5.04308 49.1881 5.06789V7.63415C49.0719 7.5932 48.8876 7.55719 48.6347 7.52616C48.387 7.49019 48.1464 7.47281 47.9144 7.47281C47.4135 7.47281 46.9643 7.58325 46.5649 7.80414C46.1706 8.02008 45.859 8.32038 45.632 8.70631C45.4049 9.09224 45.2902 9.5365 45.2902 10.0391V16.9982H42.5449L42.546 16.997Z"></path>
<path fill="white" d="M50.5837 16.9963V5.15903H53.329V16.9963H50.5837ZM51.9637 3.4788C51.5289 3.4788 51.1539 3.33238 50.8412 3.03951C50.5274 2.74169 50.3711 2.3843 50.3711 1.96859C50.3711 1.55287 50.5274 1.19052 50.8412 0.897663C51.1553 0.599839 51.5289 0.450928 51.9637 0.450928C52.3982 0.450928 52.7781 0.599839 53.0859 0.897663C53.3997 1.19052 53.556 1.54791 53.556 1.96859C53.556 2.38926 53.3997 2.74169 53.0859 3.03951C52.777 3.33238 52.4031 3.4788 51.9637 3.4788Z"></path>
<path fill="white" d="M55.7266 21.4348V5.15879H58.4264V7.11574H58.5852C58.7269 6.82784 58.927 6.52257 59.1848 6.19867C59.4425 5.86983 59.7917 5.58937 60.2314 5.35856C60.6711 5.12278 61.2326 5.00366 61.9153 5.00366C62.8154 5.00366 63.6273 5.23696 64.3503 5.70479C65.0782 6.16767 65.6544 6.85266 66.0794 7.76226C66.5093 8.66689 66.7241 9.7763 66.7241 11.0917C66.7241 12.4071 66.5142 13.4966 66.0941 14.405C65.674 15.3146 65.1038 16.0082 64.3797 16.486C63.6567 16.9638 62.8374 17.202 61.9227 17.202C61.2559 17.202 60.7015 17.0891 60.2618 16.8632C59.8221 16.6374 59.4681 16.3644 59.1994 16.0467C58.9368 15.7228 58.7318 15.4176 58.5852 15.1297H58.4715V21.4336H55.7266V21.4348ZM58.4191 11.0768C58.4191 11.8424 58.5254 12.5125 58.7377 13.0883C58.9553 13.6641 59.2666 14.1134 59.6707 14.4372C60.0799 14.7561 60.5756 14.915 61.157 14.915C61.7383 14.915 62.2718 14.7499 62.681 14.4211C63.09 14.0873 63.3989 13.6319 63.6066 13.0573C63.819 12.4765 63.9253 11.8164 63.9253 11.0768C63.9253 10.3372 63.8214 9.68943 63.614 9.11983C63.4062 8.54901 63.0987 8.10227 62.6884 7.7784C62.2791 7.4545 61.7688 7.29319 61.157 7.29319C60.5452 7.29319 60.0726 7.44953 59.6622 7.7635C59.2533 8.07745 58.9417 8.51674 58.7293 9.08136C58.5216 9.64599 58.418 10.3124 58.418 11.078L58.4191 11.0768Z"></path>
<path fill="white" d="M71.3937 1.21265V16.9961H68.6484V1.21265H71.3937Z"></path>
<path fill="white" d="M78.9468 17.2268C77.7794 17.2268 76.7706 16.9799 75.9206 16.4872C75.0769 15.9884 74.4259 15.2848 73.9718 14.3752C73.5164 13.4606 73.2891 12.3847 73.2891 11.1463C73.2891 9.90783 73.5164 8.86048 73.9718 7.93971C74.4322 7.01521 75.0744 6.29547 75.8989 5.78174C76.7231 5.26301 77.6913 5.00366 78.804 5.00366C79.5219 5.00366 80.1998 5.12154 80.836 5.35856C81.4783 5.58937 82.0436 5.94924 82.5347 6.43694C83.0304 6.92464 83.4187 7.54632 83.702 8.30207C83.9853 9.05158 84.127 9.94629 84.127 10.9837V11.8387H74.5787V9.95869H81.4954C81.4905 9.42386 81.3769 8.94859 81.1547 8.53288C80.9323 8.11094 80.621 7.77961 80.2218 7.53889C79.8272 7.29692 79.3669 7.17653 78.8418 7.17653C78.28 7.17653 77.7879 7.31551 77.3629 7.59224C76.9379 7.864 76.607 8.22387 76.369 8.67062C76.1368 9.11239 76.0172 9.59761 76.0123 10.1275V11.7692C76.0123 12.4579 76.1357 13.0486 76.3834 13.5413C76.6314 14.029 76.977 14.405 77.4227 14.6668C77.8673 14.9237 78.3888 15.0527 78.9846 15.0527C79.384 15.0527 79.7454 14.9957 80.069 14.8827C80.3925 14.7648 80.6734 14.5923 80.9105 14.3665C81.1485 14.1407 81.3279 13.8602 81.4489 13.5264L84.0123 13.8192C83.851 14.508 83.5421 15.1086 83.0864 15.6223C82.6372 16.1311 82.0607 16.527 81.3573 16.8086C80.6552 17.0866 79.8503 17.2244 78.9457 17.2244L78.9468 17.2268Z"></path>
<path fill="white" d="M94.2806 16.9961L89.8965 1.21265H92.9226L95.7214 12.8116H95.8655L98.8539 1.21265H101.606L104.602 12.8191H104.739L107.537 1.21265H110.564L106.18 16.9961H103.404L100.295 5.92198H100.174L97.0563 16.9961H94.2806Z"></path>
<path fill="white" d="M114.712 10.0593V16.9948H111.967V1.21265H114.652V7.17035H114.789C115.062 6.50274 115.484 5.97534 116.055 5.59065C116.631 5.19977 117.364 5.00494 118.255 5.00494C119.064 5.00494 119.769 5.17742 120.371 5.52116C120.973 5.86489 121.438 6.36873 121.767 7.03139C122.1 7.69402 122.267 8.50313 122.267 9.45863V16.9961H119.522V9.89048C119.522 9.09381 119.319 8.47459 118.915 8.03281C118.516 7.58606 117.954 7.36272 117.231 7.36272C116.745 7.36272 116.312 7.47067 115.927 7.68659C115.548 7.89755 115.249 8.20283 115.032 8.60362C114.819 9.00445 114.713 9.48966 114.713 10.0605L114.712 10.0593Z"></path>
<path fill="white" d="M127.988 17.235C127.25 17.235 126.585 17.101 125.994 16.8342C125.408 16.5612 124.942 16.1616 124.598 15.6317C124.26 15.1031 124.09 14.4504 124.09 13.6748C124.09 13.0071 124.211 12.4549 124.454 12.0181C124.697 11.5813 125.028 11.2326 125.448 10.9695C125.868 10.7077 126.34 10.5092 126.866 10.3764C127.397 10.2374 127.945 10.1369 128.512 10.0761C129.194 10.0041 129.748 9.93957 130.173 9.88372C130.598 9.82169 130.905 9.72984 131.098 9.60575C131.295 9.47671 131.394 9.27939 131.394 9.01258V8.96669C131.394 8.38592 131.224 7.93669 130.886 7.61779C130.548 7.29887 130.059 7.14002 129.422 7.14002C128.749 7.14002 128.216 7.28892 127.822 7.58676C127.432 7.88458 127.17 8.23702 127.033 8.64279L124.47 8.27299C124.672 7.55325 125.006 6.95265 125.471 6.46992C125.936 5.98223 126.505 5.61741 127.177 5.37541C127.85 5.12847 128.592 5.00562 129.407 5.00562C129.969 5.00562 130.527 5.07262 131.082 5.20542C131.638 5.33943 132.147 5.56032 132.606 5.86808C133.067 6.17087 133.436 6.58531 133.714 7.10899C133.997 7.63266 134.139 8.28789 134.139 9.07464V16.9968H131.5V15.3711H131.408C131.241 15.7 131.007 16.0077 130.703 16.2956C130.405 16.5786 130.027 16.8069 129.573 16.9819C129.124 17.1518 128.595 17.2362 127.988 17.2362V17.235ZM128.701 15.185C129.252 15.185 129.73 15.0745 130.135 14.8536C130.539 14.6278 130.85 14.33 131.068 13.9602C131.29 13.5904 131.401 13.1871 131.401 12.7503V11.3555C131.315 11.4274 131.169 11.4945 130.961 11.5553C130.759 11.6173 130.531 11.6707 130.279 11.7166C130.026 11.7625 129.776 11.8035 129.528 11.8394C129.28 11.8754 129.065 11.9064 128.883 11.9325C128.474 11.9896 128.106 12.0814 127.784 12.2105C127.46 12.3395 127.205 12.5182 127.018 12.7503C126.832 12.9761 126.737 13.269 126.737 13.6289C126.737 14.1426 126.922 14.531 127.291 14.7929C127.659 15.0547 128.129 15.1862 128.701 15.1862V15.185Z"></path>
<path fill="white" d="M139.22 1.21265V16.9961H136.475V1.21265H139.22Z"></path>
<path fill="white" d="M146.773 17.2268C145.605 17.2268 144.597 16.9799 143.748 16.4872C142.903 15.9884 142.253 15.2848 141.798 14.3752C141.342 13.4606 141.115 12.3847 141.115 11.1463C141.115 9.90783 141.342 8.86048 141.798 7.93971C142.258 7.01521 142.901 6.29547 143.725 5.78174C144.548 5.26301 145.516 5.00366 146.629 5.00366C147.347 5.00366 148.025 5.12154 148.661 5.35856C149.303 5.58937 149.868 5.94924 150.36 6.43694C150.854 6.92464 151.244 7.54632 151.525 8.30207C151.809 9.05158 151.952 9.94629 151.952 10.9837V11.8387H142.404V9.95869H149.32C149.315 9.42386 149.202 8.94859 148.978 8.53288C148.756 8.11094 148.446 7.77961 148.047 7.53889C147.652 7.29692 147.192 7.17653 146.665 7.17653C146.104 7.17653 145.612 7.31551 145.187 7.59224C144.762 7.864 144.432 8.22387 144.194 8.67062C143.961 9.11239 143.842 9.59761 143.836 10.1275V11.7692C143.836 12.4579 143.959 13.0486 144.207 13.5413C144.455 14.029 144.801 14.405 145.246 14.6668C145.691 14.9237 146.212 15.0527 146.809 15.0527C147.209 15.0527 147.57 14.9957 147.894 14.8827C148.217 14.7648 148.498 14.5923 148.735 14.3665C148.973 14.1407 149.153 13.8602 149.274 13.5264L151.837 13.8192C151.674 14.508 151.367 15.1086 150.911 15.6223C150.461 16.1311 149.886 16.527 149.182 16.8086C148.48 17.0866 147.675 17.2244 146.771 17.2244L146.773 17.2268Z"></path>
</g>
</g>
<defs>
<clipPath id="clip0_1676_84451">
<rect transform="translate(0 0.449951)" fill="white" height="21" width="152"></rect>
</clipPath>
</defs>
</svg>
