<svg xmlns="http://www.w3.org/2000/svg" fill="none" viewBox="0 0 32 32" height="32" width="32">
<path fill="url(#paint0_linear_4477_25858)" d="M26.7083 22.7075L22.7083 26.7075C22.5206 26.8951 22.2661 27.0006 22.0008 27.0006C21.7354 27.0006 21.4809 26.8951 21.2933 26.7075C21.1056 26.5199 21.0002 26.2654 21.0002 26C21.0002 25.7346 21.1056 25.4801 21.2933 25.2925L23.587 23H6.00079C5.73557 23 5.48122 22.8947 5.29368 22.7071C5.10614 22.5196 5.00079 22.2652 5.00079 22C5.00079 21.7348 5.10614 21.4804 5.29368 21.2929C5.48122 21.1054 5.73557 21 6.00079 21H23.587L21.2933 18.7075C21.1056 18.5199 21.0002 18.2654 21.0002 18C21.0002 17.7346 21.1056 17.4801 21.2933 17.2925C21.4809 17.1049 21.7354 16.9994 22.0008 16.9994C22.2661 16.9994 22.5206 17.1049 22.7083 17.2925L26.7083 21.2925C26.8013 21.3854 26.875 21.4957 26.9253 21.6171C26.9757 21.7385 27.0016 21.8686 27.0016 22C27.0016 22.1314 26.9757 22.2615 26.9253 22.3829C26.875 22.5043 26.8013 22.6146 26.7083 22.7075ZM9.29329 14.7075C9.48093 14.8951 9.73542 15.0006 10.0008 15.0006C10.2662 15.0006 10.5206 14.8951 10.7083 14.7075C10.8959 14.5199 11.0013 14.2654 11.0013 14C11.0013 13.7346 10.8959 13.4801 10.7083 13.2925L8.41454 11H26.0008C26.266 11 26.5204 10.8946 26.7079 10.7071C26.8954 10.5196 27.0008 10.2652 27.0008 10C27.0008 9.73479 26.8954 9.48044 26.7079 9.2929C26.5204 9.10536 26.266 9.00001 26.0008 9.00001H8.41454L10.7083 6.70751C10.8959 6.51987 11.0013 6.26537 11.0013 6.00001C11.0013 5.73464 10.8959 5.48015 10.7083 5.29251C10.5206 5.10487 10.2662 4.99945 10.0008 4.99945C9.73542 4.99945 9.48093 5.10487 9.29329 5.29251L5.29329 9.29251C5.20031 9.38538 5.12655 9.49567 5.07623 9.61707C5.0259 9.73846 5 9.86859 5 10C5 10.1314 5.0259 10.2615 5.07623 10.3829C5.12655 10.5043 5.20031 10.6146 5.29329 10.7075L9.29329 14.7075Z"></path>
<defs>
<linearGradient gradientUnits="userSpaceOnUse" y2="15.9173" x2="27.0016" y1="15.9173" x1="5" id="paint0_linear_4477_25858">
<stop stop-color="#F7D379"></stop>
<stop stop-color="#E9BE65" offset="0.130208"></stop>
<stop stop-color="#F5E583" offset="0.234375"></stop>
<stop stop-color="#C89447" offset="0.387985"></stop>
<stop stop-color="#DCAB57" offset="0.4606"></stop>
<stop stop-color="#D6A453" offset="0.546183"></stop>
<stop stop-color="#F7D87B" offset="0.639546"></stop>
<stop stop-color="#A57331" offset="0.735503"></stop>
<stop stop-color="#C18D42" offset="0.834053"></stop>
<stop stop-color="#C08A41" offset="1"></stop>
</linearGradient>
</defs>
</svg>
