<svg xmlns="http://www.w3.org/2000/svg" fill="none" viewBox="0 0 250 132" height="132" width="250">
<rect fill="white" height="132" width="250"></rect>
<g clip-path="url(#clip0_846_298)">
<path fill="black" d="M144.109 64.2022L144.114 64.198C144.377 64.0158 144.595 63.7769 144.752 63.4991C144.91 63.2213 145.003 62.9117 145.025 62.593C145.044 62.2699 144.985 61.947 144.853 61.6514C144.721 61.3559 144.52 61.0963 144.267 60.8947C143.761 60.5025 143.039 60.3063 142.1 60.3063C141.595 60.3053 141.093 60.3725 140.605 60.5061C140.206 60.6017 139.826 60.7671 139.484 60.9947V64.5536H143C143.398 64.5576 143.786 64.4345 144.109 64.2022V64.2022Z"></path>
<path fill="black" d="M192.633 46.5812L126.142 49.1037L126.203 60.7635L115.332 66.2846L126.249 69.524L126.301 79.6273L194.999 85.4187L192.633 46.5812ZM147.826 72.3726C146.851 73.0606 145.418 73.4048 143.528 73.4051C142.179 73.4051 140.761 73.3607 139.274 73.2718C137.786 73.1829 136.661 73.0793 135.899 72.961V58.4635C136.503 58.0736 137.168 57.7884 137.866 57.6198C138.67 57.3858 139.489 57.2114 140.318 57.0982C140.901 57.0147 141.488 56.9664 142.077 56.9537C143.182 56.9289 144.284 57.0598 145.353 57.3426C146.122 57.5466 146.843 57.9013 147.474 58.386C147.984 58.7884 148.375 59.3217 148.606 59.929C148.823 60.5039 148.935 61.113 148.936 61.7273C148.948 62.5202 148.759 63.3033 148.387 64.0032C148.018 64.6785 147.499 65.2596 146.87 65.7012C147.395 65.9118 147.87 66.2295 148.266 66.634C148.634 67.0004 148.909 67.4496 149.068 67.944C149.209 68.3818 149.283 68.8383 149.288 69.2982C149.288 70.6597 148.801 71.6845 147.826 72.3726ZM166.446 68.109C166.155 69.1206 165.666 70.0641 165.006 70.8843C164.349 71.6853 163.513 72.3204 162.565 72.7382C161.505 73.1984 160.358 73.4257 159.202 73.4048C158.314 73.399 157.432 73.2605 156.585 72.994C155.671 72.7081 154.833 72.2185 154.134 71.5621C153.414 70.9092 152.841 70.1108 152.452 69.2196C152.096 68.423 151.845 67.5834 151.705 66.7221C151.595 66.0243 151.536 65.3193 151.529 64.6129C151.514 63.5227 151.685 62.4378 152.035 61.4051C152.341 60.4999 152.844 59.6735 153.507 58.9851C154.19 58.3021 155.021 57.7856 155.936 57.4754C156.994 57.114 158.105 56.9375 159.223 56.9535C160.338 56.9367 161.447 57.1172 162.499 57.4868C163.416 57.8011 164.247 58.3249 164.926 59.0167C165.606 59.7085 166.114 60.5491 166.412 61.4718C166.761 62.5126 166.931 63.6046 166.918 64.7021C166.926 65.8546 166.768 67.0023 166.446 68.109V68.109ZM179.405 73.4043L175.843 67.5432L172.809 73.4043L168.368 72.6493L173.271 64.9676L168.478 57.7532L173.205 56.9537L176.019 62.7707L179.054 56.9537L183.671 57.6865L178.635 64.9685L183.977 72.5615L179.405 73.4043Z"></path>
<path fill="black" d="M142.826 67.3212H139.484V70.2079C139.689 70.2373 140.195 70.2744 141.001 70.319C141.808 70.3636 142.526 70.3859 143.156 70.3857C144.724 70.3857 145.508 69.7009 145.508 68.8857C145.508 67.8557 144.614 67.3212 142.826 67.3212Z"></path>
<path fill="black" d="M159.224 60.3508C157.993 60.3508 157.058 60.7282 156.421 61.483C155.783 62.2378 155.464 63.3109 155.464 64.7022C155.436 65.6937 155.585 66.6824 155.904 67.6216C156.143 68.3241 156.583 68.9414 157.168 69.3977C157.768 69.8207 158.49 70.0353 159.224 70.0088C159.943 70.0311 160.65 69.8164 161.235 69.3977C161.827 68.9351 162.276 68.3159 162.533 67.6105C162.873 66.6796 163.033 65.6927 163.005 64.7022C163.005 63.3107 162.682 62.2376 162.038 61.483C161.393 60.7284 160.455 60.351 159.224 60.3508Z"></path>
<path fill="black" d="M68.3794 69.9437C68.0769 64.8007 61.5722 64.1626 61.5533 64.1621L61.4081 64.1571C61.4081 64.1571 67.3481 63.1329 67.5339 58.3793C67.6017 56.6434 67.1172 55.2126 66.0944 54.1293C64.7994 52.7546 62.6472 51.9971 59.8697 51.9387C59.8 51.9371 59.7275 51.9362 59.6531 51.9357C58.3706 51.926 56.3053 52.0535 55 52.1857C55.2475 58.9423 55.3589 68.2568 55.2917 76.5301H58.7694C58.8994 76.5301 59.0275 76.5243 59.1553 76.5254C62.1522 76.5479 64.3353 76.0868 65.8289 75.0759C67.4814 73.9576 68.5453 72.4573 68.3794 69.9437Z"></path>
<path fill="black" d="M108.914 66.4495L108.989 66.3884C109.026 66.3581 115.625 61.4803 120.276 57.9034L118.101 54.1811L106.874 57.805L106.842 51.8884H101.676C101.676 51.8884 102.102 66.0061 101.676 76.5273H107.489C107.246 75.0991 107.078 73.6592 106.987 72.2134L106.982 72.0053L117.325 76.4639L119.753 73.3725C115.649 70.7411 109.275 66.7973 108.983 66.5156L108.914 66.4495Z"></path>
<path fill="black" d="M72.7467 51.9124C71.767 59.6735 69.8072 69.5651 68.3245 76.5001H73.2689L74.8014 68.8474L77.2736 68.3574L77.2909 68.4424C77.302 68.4979 78.3442 73.6707 79.2836 77.0751L84.3545 77.0143C82.6084 70.7582 81.0181 59.8982 79.9261 51.9124H72.7467Z"></path>
<path fill="black" d="M95.2434 65.3708L95.302 65.3291C95.41 65.2524 95.513 65.1689 95.6104 65.0791C96.5449 64.3948 97.3066 63.5015 97.8347 62.4707C98.3628 61.4398 98.6428 60.2998 98.6523 59.1416C98.6523 53.1349 93.6823 51.8877 89.7712 51.8877C88.2269 51.8796 86.6835 51.9601 85.1484 52.1288C85.4459 61.0535 85.5904 68.8035 85.5915 76.5008H90.2582C90.2565 73.9435 90.1926 71.9208 90.1307 69.993C90.0951 68.8924 90.0784 68.3149 90.0554 67.2296L90.4201 67.2216C91.0051 68.3946 94.327 74.3241 97.0665 77.0549L100.918 74.6458C98.2979 71.5191 96.0543 67.118 95.274 65.4369L95.2434 65.3708Z"></path>
</g>
<defs>
<clipPath id="clip0_846_298">
<rect transform="translate(55 46.5812)" fill="white" height="38.8375" width="140"></rect>
</clipPath>
</defs>
</svg>
