<svg xmlns="http://www.w3.org/2000/svg" fill="none" viewBox="0 0 250 132" height="132" width="250">
<rect fill="white" height="132" width="250"></rect>
<path fill="black" d="M65.0001 60.5894C65.3473 59.8574 65.3334 59.038 65.632 58.2714C66.0598 57.1756 66.8959 56.5964 67.7986 56.0909C70.3208 54.677 72.9943 54.6964 75.6318 55.645C77.69 56.3853 78.8428 57.945 79.0219 60.181C79.1164 61.3588 79.0164 62.5296 79.0358 63.7032C79.0428 64.1324 78.8525 64.3379 78.4108 64.3379C76.8831 64.3379 75.3568 64.349 73.829 64.3587C73.354 64.3615 73.3374 64.0282 73.336 63.6921C73.3304 62.3296 73.3443 60.9671 73.3207 59.6047C73.3013 58.5519 72.7471 58.1714 71.7194 58.4228C71.211 58.5464 71.0208 58.8825 70.9249 59.3519C70.7888 60.0241 70.9569 60.6838 70.9583 61.3505C70.9638 64.6754 70.961 68.0003 70.9597 71.3267C70.9597 71.5114 70.9541 71.6961 70.9347 71.8794C70.8208 72.978 71.2791 73.4405 72.3513 73.3419C73.1152 73.2711 73.2915 72.7391 73.311 72.128C73.3443 71.1128 73.3276 70.0961 73.3318 69.0809C73.3346 68.1309 73.3332 68.1031 74.2804 68.0837C75.5984 68.0573 76.9178 68.0767 78.2372 68.0753C78.7386 68.0753 78.9567 68.3156 79.0456 68.8198C79.3122 70.3406 79.0261 71.8128 78.6608 73.2627C78.4567 74.0766 77.7442 74.5863 77.1275 75.1238C75.6359 76.4266 73.8332 76.646 71.9513 76.6654C71.0388 76.6752 70.1625 76.5307 69.2847 76.3182C67.0167 75.7696 65.432 74.3738 65.2806 71.8447C65.2542 71.4058 65.1834 70.9739 65.0015 70.5683C65.0001 67.2406 65.0001 63.9157 65.0001 60.5894Z"></path>
<path fill="black" d="M184.997 75.8321C184.739 76.1363 184.386 76.1154 184.038 76.1141C181.656 76.1127 179.272 76.1113 176.891 76.1168C176.545 76.1182 176.196 76.1349 175.855 76.1821C174.973 76.3043 174.716 76.1002 174.716 75.1974C174.711 71.1586 174.714 67.1198 174.714 63.081C174.714 60.8671 174.725 58.6533 174.706 56.4394C174.7 55.8103 174.955 55.5867 175.575 55.5895C178.304 55.5978 181.034 55.577 183.763 55.5631C184.358 55.5603 184.672 55.7895 184.586 56.4381C184.477 57.2603 184.421 58.0894 184.446 58.92C184.458 59.3449 184.207 59.4769 183.825 59.4741C182.946 59.4699 182.067 59.4894 181.189 59.4672C180.697 59.4547 180.511 59.6227 180.471 60.1366C180.396 61.0838 180.46 62.0282 180.417 62.9727C180.389 63.5782 180.757 63.7907 181.245 63.7032C181.986 63.5713 182.718 63.7768 183.457 63.6712C184.024 63.5907 184.317 63.8824 184.306 64.4754C184.292 65.2143 184.3 65.9518 184.306 66.6906C184.308 67.1656 184.132 67.4073 183.606 67.392C182.847 67.3698 182.092 67.5184 181.327 67.3962C180.738 67.3031 180.417 67.5587 180.428 68.2031C180.446 69.31 180.414 70.4183 180.429 71.5253C180.439 72.2141 180.697 72.428 181.402 72.3197C182.37 72.1697 183.34 72.2711 184.31 72.2391C184.578 72.2308 184.81 72.3114 185 72.5044C184.997 73.6155 184.997 74.7238 184.997 75.8321Z"></path>
<path fill="black" d="M143.886 35.0912C144.057 35.9439 143.892 36.1453 143.062 36.1564C140.311 36.1911 137.56 36.2397 134.808 36.1384C134.303 36.1203 134.02 36.337 134.031 36.8731C134.065 38.5577 133.995 40.241 134.074 41.9271C134.1 42.5007 134.324 42.6243 134.822 42.6188C137.251 42.5952 139.681 42.5896 142.108 42.5785C142.317 42.5771 142.525 42.5841 142.733 42.5896C143.033 42.5979 143.201 42.7604 143.253 43.0479C143.31 43.3563 143.083 43.4424 142.864 43.5299C142.557 43.6507 142.236 43.6813 141.91 43.6743C139.554 43.6243 137.192 43.8243 134.843 43.4868C134.307 43.4104 134.051 43.7396 134.046 44.2146C134.028 46.1993 134.036 48.1853 134.042 50.17C134.043 50.7381 134.46 50.7492 134.872 50.7492C136.954 50.7506 139.037 50.7797 141.119 50.7395C141.949 50.7228 142.767 50.9742 143.604 50.7867C143.947 50.7103 144.268 50.8686 144.272 51.2936C144.276 51.7339 143.923 51.7186 143.623 51.7186C140.801 51.7242 137.978 51.7228 135.156 51.7255C134.854 51.7255 134.554 51.72 134.253 51.7297C133.203 51.763 133.202 51.7658 133.202 50.745C133.197 45.5284 133.195 40.3105 133.19 35.0939C136.757 35.0912 140.321 35.0912 143.886 35.0912Z"></path>
<path fill="black" d="M118.886 35.0912C118.868 37.3064 118.853 39.5216 118.827 41.7382C118.82 42.2618 119.106 42.4257 119.568 42.4257C120.725 42.4257 121.882 42.4341 123.039 42.4257C124.865 42.4146 126.693 42.3577 128.519 42.3938C129.169 42.4063 129.336 42.1632 129.317 41.5952C129.244 39.4258 129.403 37.2606 129.442 35.0925C129.673 35.0925 129.904 35.0925 130.136 35.0925C130.351 39.73 130.25 44.3701 130.279 49.0089C130.283 49.7047 130.215 50.3895 130.143 51.0783C130.114 51.3561 130.14 51.6769 129.744 51.6867C129.303 51.6964 129.312 51.3519 129.312 51.0478C129.311 48.8534 129.314 46.6604 129.315 44.466C129.315 44.2576 129.317 44.0507 129.305 43.8424C129.289 43.5188 129.157 43.3521 128.786 43.3549C125.708 43.3799 122.631 43.3924 119.553 43.3938C119.013 43.3938 118.845 43.5938 118.853 44.1424C118.888 46.2659 118.875 48.3909 118.868 50.5158C118.867 50.7895 118.811 51.0658 118.752 51.3339C118.709 51.5228 118.59 51.6742 118.361 51.6519C118.149 51.6325 118.017 51.4908 117.985 51.2992C117.942 51.0506 117.928 50.7964 117.927 50.5436C117.921 45.3937 117.918 40.2438 117.915 35.0939C118.238 35.0912 118.563 35.0912 118.886 35.0912Z"></path>
<path fill="black" d="M115.971 35.0912C115.98 36.1884 115.98 36.2022 114.856 36.1856C113.584 36.1675 112.31 36.2606 111.041 36.1231C110.33 36.0453 110.273 36.5022 110.274 37.0481C110.283 41.5521 110.285 46.0548 110.267 50.5589C110.266 50.9797 110.53 51.6992 109.749 51.6686C109.034 51.6408 109.33 50.9589 109.328 50.5617C109.308 46.0812 109.301 41.6007 109.324 37.1203C109.328 36.4495 109.153 36.1411 108.441 36.1606C107.17 36.1953 105.898 36.1981 104.626 36.1745C103.786 36.1592 103.634 35.9384 103.749 35.0912C107.823 35.0912 111.898 35.0912 115.971 35.0912Z"></path>
<path fill="black" d="M131.776 63.0585C131.585 63.7793 131.649 64.4432 131.647 65.089C131.63 68.0431 131.662 70.9972 131.658 73.9513C131.658 74.5027 131.567 75.0541 131.531 75.6055C131.509 75.9457 131.334 76.1055 131.001 76.1082C129.683 76.1221 128.363 76.1291 127.045 76.1541C126.788 76.1596 126.713 76.0249 126.694 75.8277C126.669 75.5763 126.662 75.3207 126.662 75.068C126.661 68.857 126.67 62.646 126.647 56.435C126.644 55.7503 126.799 55.5517 127.53 55.5711C129.587 55.6253 131.647 55.5781 133.705 55.5406C134.201 55.5309 134.219 55.9031 134.272 56.1725C134.497 57.3253 134.68 58.4878 134.862 59.6475C135.108 61.2113 135.334 62.7779 135.58 64.3418C135.613 64.5529 135.594 64.889 135.895 64.8723C136.134 64.8585 136.078 64.546 136.126 64.3515C136.74 61.8169 136.796 59.1975 137.296 56.6447C137.499 55.6073 137.455 55.6003 138.541 55.6003C140.416 55.6017 142.289 55.5975 144.164 55.6031C144.995 55.6045 145.153 55.7711 145.12 56.5642C144.87 62.5168 145.062 68.4737 145.021 74.4277C145.01 76.1152 145.067 76.1124 143.395 76.1166C142.47 76.118 141.542 76.0957 140.62 76.1527C140.119 76.1832 140.012 75.961 140.013 75.5541C140.014 74.8388 140.01 74.1222 140.012 73.4069C140.013 70.9625 139.945 68.5153 140.052 66.0765C140.095 65.1112 139.839 64.1446 140.091 63.1863C140.126 63.0557 140.114 62.8724 139.957 62.8321C139.701 62.7668 139.742 63.0113 139.703 63.146C139.251 64.7237 139.067 66.3473 138.877 67.9709C138.727 69.2445 138.48 70.507 138.287 71.7764C138.11 72.9361 137.923 74.0944 137.791 75.2596C137.721 75.8735 137.492 76.1096 136.833 76.1555C136.091 76.2068 135.359 76.0374 134.628 76.1443C134.238 76.2013 134.103 76.0332 134.012 75.6819C133.71 74.5152 133.67 73.3125 133.474 72.1319C133.231 70.6597 132.992 69.1875 132.748 67.7167C132.624 66.9723 132.392 66.2279 132.394 65.4848C132.392 64.6362 132.176 63.8863 131.776 63.0585Z"></path>
<path fill="black" d="M124.346 65.917C124.346 69.1031 124.341 72.2877 124.353 75.4738C124.354 75.9196 124.159 76.1321 123.748 76.1363C122.199 76.1488 120.65 76.1446 119.1 76.1446C118.624 76.1446 118.477 75.9099 118.506 75.4349C118.657 72.9461 118.666 70.4572 118.502 67.9684C118.474 67.5378 118.299 67.3934 117.914 67.3934C117.637 67.3934 117.359 67.3864 117.081 67.3948C116.63 67.4073 116.398 67.6531 116.401 68.0961C116.412 70.4739 116.406 72.8516 116.457 75.228C116.476 76.0668 116.43 76.1502 115.574 76.1321C114.233 76.1029 112.89 76.0988 111.548 76.1265C110.942 76.139 110.695 75.9654 110.669 75.3113C110.434 69.4725 110.628 63.6323 110.577 57.7936C110.572 57.2436 110.723 56.6992 110.663 56.1394C110.627 55.8117 110.816 55.6214 111.159 55.6103C112.777 55.5589 114.395 55.652 116.014 55.5603C116.485 55.5339 116.484 56.1311 116.46 56.4283C116.316 58.3436 116.445 60.256 116.41 62.1699C116.396 62.9143 116.503 63.0601 117.266 63.0851C117.52 63.0935 117.776 63.0865 118.03 63.081C118.327 63.0754 118.484 62.9601 118.499 62.624C118.588 60.7352 118.712 58.8477 118.498 56.9589C118.471 56.7311 118.481 56.4978 118.488 56.2672C118.503 55.7617 118.734 55.5117 119.277 55.5506C120.755 55.6561 122.236 55.6214 123.716 55.5783C124.077 55.5672 124.242 55.6839 124.268 56.0186C124.292 56.3172 124.304 56.6172 124.306 56.9172C124.309 59.9185 124.307 62.9199 124.307 65.9226C124.32 65.917 124.332 65.917 124.346 65.917Z"></path>
<path fill="black" d="M169.35 65.338C169.793 65.7866 170.322 65.856 170.771 66.0685C171.792 66.5504 172.286 67.2713 172.386 68.4157C172.586 70.7004 172.425 72.9836 172.508 75.2641C172.533 75.9461 172.257 76.1461 171.611 76.1252C170.41 76.0891 169.206 76.1183 168.003 76.1141C167.113 76.1114 167.086 76.0808 167.086 75.16C167.086 73.0364 167.089 70.9128 167.082 68.7893C167.081 68.4685 167.072 68.1379 166.993 67.8296C166.775 66.9713 166.349 66.6657 165.477 66.6754C165.107 66.6796 165.118 66.9352 165.093 67.2018C164.938 68.9296 165.027 70.6601 165.007 72.3892C164.995 73.4503 164.995 74.5128 164.996 75.5753C164.996 75.9197 164.922 76.1266 164.493 76.1294C163.038 76.1391 161.582 76.0433 160.127 76.203C159.489 76.2739 159.178 75.8836 159.211 75.2003C159.398 71.3017 159.375 67.3963 159.242 63.5033C159.167 61.3353 159.455 59.1728 159.217 57.0103C159.185 56.7201 159.28 56.4159 159.309 56.1173C159.341 55.7854 159.524 55.602 159.849 55.609C162.784 55.6618 165.722 55.4507 168.653 55.7326C171.025 55.9604 172.501 58.1534 172.503 60.2228C172.503 61.2658 172.419 62.2963 172.299 63.3255C172.19 64.2449 171.483 64.6505 170.729 64.9588C170.315 65.1296 169.861 65.2018 169.35 65.338ZM167.085 61.3519C167.086 61.3519 167.086 61.3519 167.088 61.3519C167.088 60.8922 167.088 60.4325 167.088 59.9728C167.088 59.927 167.085 59.8811 167.078 59.8353C166.981 59.1186 166.472 58.7686 165.614 58.8034C164.829 58.8353 165.046 59.4186 165.002 59.8658C164.902 60.8658 165.164 61.8644 164.972 62.8783C164.911 63.2005 164.964 63.7672 165.493 63.8824C166.279 64.0519 167.058 63.4033 167.083 62.5936C167.095 62.1797 167.085 61.7644 167.085 61.3519Z"></path>
<path fill="black" d="M87.1489 55.5992C88.3517 55.5992 89.5544 55.6131 90.7572 55.5922C91.2669 55.5839 91.4752 55.7506 91.553 56.2867C91.8988 58.6769 92.2877 61.0616 92.6807 63.4449C93.3404 67.4392 94.0182 71.4308 94.6821 75.4252C94.7876 76.0571 94.589 76.2793 94.0015 76.2057C92.5266 76.0224 91.0461 76.1099 89.5697 76.1502C89.0697 76.1641 88.9031 76.0252 88.8836 75.5585C88.8531 74.7988 88.7683 74.0405 88.7517 73.2808C88.7406 72.7794 88.5642 72.5461 88.042 72.4614C87.5295 72.378 87.0281 72.4864 86.524 72.4252C86.2129 72.3877 86.1434 72.6127 86.117 72.8655C86.0267 73.7363 85.9226 74.6058 85.8462 75.478C85.8017 75.9849 85.6198 76.1793 85.0546 76.1543C83.6699 76.0932 82.2796 76.1168 80.8922 76.1224C80.0616 76.1266 79.8116 75.8793 79.9366 75.0641C80.5811 70.8794 81.263 66.7004 81.8685 62.5102C82.0574 61.1991 82.2616 59.888 82.4032 58.5672C82.4852 57.7978 82.6504 57.0339 82.6782 56.252C82.6949 55.7742 82.9935 55.5881 83.4713 55.5936C84.6976 55.6103 85.924 55.5992 87.1489 55.5992ZM88.4558 68.3378C88.2531 66.624 88.0697 64.9087 87.8378 63.199C87.7225 62.3532 87.8836 61.4893 87.6323 60.6574C87.5864 60.506 87.5878 60.2991 87.3837 60.2908C87.1087 60.2797 87.1559 60.5227 87.1295 60.6935C86.7448 63.1421 86.3781 65.5934 86.1323 68.0614C86.049 68.9031 86.2406 69.092 87.0989 68.9781C87.3503 68.9448 87.6073 68.9031 87.8559 68.9267C88.3128 68.9698 88.5086 68.7906 88.4558 68.3378Z"></path>
<path fill="black" d="M105.61 61.6907C105.009 61.6907 104.406 61.6671 103.806 61.6977C103.226 61.7268 103.02 61.4741 103.045 60.9157C103.073 60.2713 103.076 59.6283 102.84 59.0019C102.679 58.5755 102.422 58.3713 101.968 58.3602C101.497 58.3491 101.13 58.4269 100.895 58.9199C100.238 60.3019 100.801 61.9352 102.115 62.7032C103.659 63.606 105.277 64.4018 106.681 65.5323C108.308 66.842 108.881 68.5906 108.799 70.6114C108.783 71.0266 108.74 71.4433 108.763 71.8558C108.887 74.0863 107.763 75.4113 105.801 76.0668C103.13 76.9599 100.434 77.039 97.8718 75.6516C96.5288 74.9238 95.7399 73.7835 95.551 72.2183C95.451 71.3891 95.5399 70.5669 95.4774 69.7433C95.4427 69.2836 95.6677 68.9489 96.1413 68.9406C97.5288 68.9156 98.9176 68.9225 100.305 68.942C100.662 68.9461 100.808 69.1753 100.802 69.5489C100.791 70.4225 100.809 71.2975 100.831 72.1711C100.851 72.9641 101.104 73.2822 101.722 73.3377C102.552 73.4113 103.186 73.0349 103.288 72.3211C103.423 71.378 103.344 70.4294 103.143 69.5003C103.079 69.2045 102.88 68.9086 102.627 68.7822C101.413 68.1739 100.386 67.2726 99.1787 66.6559C98.2496 66.1809 97.4538 65.5198 96.658 64.8518C95.5038 63.8823 95.4733 62.5088 95.2955 61.2018C95.1677 60.263 95.2733 59.3088 95.5052 58.3922C95.8955 56.8464 97.0871 56.1158 98.4704 55.5839C100.045 54.9784 101.694 54.9075 103.317 55.0936C104.805 55.2631 106.213 55.8033 107.373 56.8436C107.919 57.3339 108.033 58.0033 108.149 58.6436C108.284 59.388 108.276 60.1574 108.335 60.9143C108.38 61.4838 108.109 61.7088 107.555 61.6935C106.908 61.6754 106.259 61.6893 105.612 61.6893C105.61 61.6893 105.61 61.6893 105.61 61.6907Z"></path>
<path fill="black" d="M147.351 65.8307C147.351 62.6904 147.364 59.5488 147.34 56.4086C147.336 55.7711 147.571 55.5545 148.193 55.56C150.878 55.5878 153.562 55.5864 156.247 55.5975C157.13 55.6017 157.21 55.6767 157.218 56.5336C157.223 57.2267 157.19 57.9211 157.228 58.6114C157.265 59.2919 156.961 59.51 156.318 59.4822C155.51 59.4489 154.699 59.4863 153.889 59.4697C153.393 59.46 153.172 59.6558 153.182 60.1641C153.201 61.1099 153.201 62.0585 153.183 63.0043C153.172 63.5904 153.4 63.7501 153.987 63.6877C154.743 63.6071 155.512 63.6557 156.276 63.646C156.737 63.6404 156.953 63.8599 156.947 64.3224C156.939 65.1307 156.935 65.939 156.95 66.7473C156.96 67.3015 156.676 67.4751 156.168 67.4501C155.453 67.4154 154.735 67.4181 154.019 67.382C153.443 67.3529 153.169 67.5584 153.181 68.1751C153.201 69.3514 153.174 70.5306 153.158 71.7069C153.153 72.1416 153.315 72.3208 153.785 72.2958C154.754 72.2458 155.726 72.2472 156.697 72.2403C157.308 72.2361 157.65 72.5097 157.628 73.1666C157.601 73.9722 157.612 74.7791 157.59 75.5846C157.579 75.9777 157.361 76.1457 156.955 76.136C156.035 76.1124 155.111 76.1013 154.19 76.1138C152.294 76.1402 150.397 76.0582 148.5 76.1652C147.47 76.2221 147.357 76.0638 147.357 75.0402C147.357 71.9694 147.357 68.8973 147.357 65.8265C147.353 65.8307 147.353 65.8307 147.351 65.8307Z"></path>
<path fill="black" d="M138.745 88.4718C138.745 86.0705 138.74 83.6692 138.748 81.2692C138.752 80.3345 138.768 80.297 139.691 80.2887C142.722 80.2651 145.753 80.272 148.784 80.2651C149.112 80.2637 149.388 80.2956 149.402 80.7248C149.416 81.1484 149.146 81.2345 148.819 81.2317C145.974 81.2081 143.129 81.3387 140.286 81.1623C139.774 81.1303 139.556 81.2748 139.562 81.7998C139.579 83.5317 139.583 85.2622 139.574 86.9941C139.572 87.5524 139.706 87.7982 140.37 87.7844C142.937 87.7316 145.506 87.7607 148.074 87.7552C148.446 87.7538 148.831 87.7844 148.821 88.2566C148.812 88.7274 148.374 88.6593 148.076 88.6621C145.881 88.6885 143.687 88.6954 141.492 88.7066C141.308 88.7079 141.122 88.7107 140.937 88.7024C139.576 88.6441 139.579 88.6441 139.581 90.0468C139.584 91.6857 139.574 93.3245 139.586 94.9648C139.591 95.8398 139.647 95.8314 140.488 95.8231C143.334 95.7967 146.18 95.8009 149.026 95.8134C149.348 95.8148 149.796 95.7953 149.798 96.2967C149.799 96.7911 149.395 96.88 149.009 96.8758C146.051 96.8411 143.09 97.0231 140.133 96.78C140.041 96.7731 139.948 96.7661 139.855 96.7661C138.819 96.7606 138.755 96.7161 138.749 95.6745C138.738 93.2731 138.747 90.8732 138.747 88.4718C138.748 88.4718 138.747 88.4718 138.745 88.4718Z"></path>
<path fill="black" d="M103.403 80.2513C105.305 80.2847 106.789 80.6666 108.095 81.6597C108.762 82.1666 109.084 82.8568 109.306 83.6179C109.357 83.7915 109.391 84.0054 109.156 84.0902C108.948 84.1652 108.803 84.0443 108.695 83.8763C108.595 83.7207 108.477 83.5735 108.4 83.4068C107.713 81.9207 106.302 81.5694 104.91 81.2569C103.623 80.968 102.319 81.1499 101.091 81.5722C100.026 81.9374 99.1257 82.8513 99.166 84.3624C99.1993 85.6304 99.8938 86.5498 101.052 86.9804C102.881 87.6595 104.81 87.8818 106.688 88.3331C107.248 88.4679 107.746 88.7623 108.23 89.0873C110.396 90.547 110.348 92.608 109.573 94.2344C108.97 95.4997 107.78 96.2482 106.446 96.5677C104.556 97.0205 102.609 96.976 100.78 96.3246C99.1938 95.7594 98.1119 94.5747 97.7452 92.8608C97.6897 92.6011 97.5813 92.2733 98.0049 92.2067C98.3688 92.1497 98.5952 92.3872 98.6674 92.6941C99.1424 94.7163 100.619 95.4233 102.481 95.8357C104.073 96.1871 105.589 96.0719 107.026 95.4608C108.964 94.6358 109.516 92.8997 108.819 91.0359C108.494 90.1664 107.51 89.672 106.591 89.4276C105.033 89.0137 103.476 88.5873 101.896 88.2373C100.759 87.9859 99.659 87.4345 98.9035 86.5054C97.8244 85.1749 97.9424 83.0193 99.3521 81.7471C100.592 80.6263 102.11 80.3555 103.403 80.2513Z"></path>
<path fill="black" d="M117.683 80.2708C118.181 80.2916 118.474 80.4527 118.68 81.0041C119.33 82.7499 120.109 84.4457 120.803 86.1748C121.696 88.3984 122.549 90.6386 123.434 92.8663C123.833 93.8719 124.278 94.8594 124.677 95.8649C124.788 96.1454 125.123 96.5093 124.714 96.7524C124.323 96.9857 123.771 96.6565 123.651 96.1621C123.294 94.7038 122.492 93.4108 122.091 91.9719C121.955 91.4872 121.624 91.3525 121.148 91.3552C118.973 91.3705 116.798 91.3539 114.623 91.3664C113.569 91.3719 113.47 91.5108 113.172 92.5358C112.93 93.3649 112.68 94.1969 112.204 94.9469C112.03 95.2218 112.016 95.6024 111.95 95.9371C111.9 96.1913 111.858 96.4538 111.608 96.5843C111.368 96.7107 111.059 96.9051 110.841 96.6954C110.68 96.5399 110.925 96.294 111.002 96.0843C111.486 94.7968 111.862 93.4663 112.405 92.2066C113.544 89.5608 114.345 86.7928 115.454 84.1346C115.819 83.2582 116.279 82.3957 116.466 81.4304C116.64 80.5402 117.022 80.2499 117.683 80.2708ZM119.617 90.7622C120.056 90.7622 120.497 90.783 120.935 90.7567C121.491 90.7247 121.627 90.4955 121.391 89.9386C120.603 88.0748 119.877 86.1859 119.113 84.3123C118.741 83.3999 118.345 82.4957 117.945 81.5957C117.766 81.193 117.523 81.1624 117.331 81.5818C116.979 82.3554 116.62 83.129 116.322 83.9235C115.926 84.9762 115.655 86.079 115.202 87.1039C114.759 88.1095 114.356 89.122 114.009 90.1622C113.852 90.6317 114.023 90.7969 114.422 90.7525C116.156 90.558 117.885 90.7275 119.617 90.7622Z"></path>
<path fill="black" d="M127.92 88.0747C127.92 90.3594 127.916 92.6441 127.923 94.9288C127.926 95.794 128.089 95.9815 128.941 95.8996C131.112 95.6912 133.285 95.8551 135.456 95.7996C135.859 95.7898 136.307 95.7648 136.311 96.3357C136.316 96.9093 135.852 96.887 135.459 96.8884C132.824 96.9009 130.191 96.9148 127.559 96.7676C127.188 96.7468 127.053 96.6273 126.994 96.2496C126.883 95.5468 127.076 94.8704 127.076 94.1815C127.074 90.0747 127.077 85.9664 127.074 81.8596C127.074 81.5151 127.031 81.1693 127.024 80.8249C127.02 80.5943 127.012 80.3513 127.358 80.336C127.701 80.3207 127.883 80.4721 127.909 80.8082C127.923 80.9693 127.921 81.1304 127.921 81.2929C127.92 83.5512 127.92 85.8136 127.92 88.0747Z"></path>
</svg>
