<svg xmlns="http://www.w3.org/2000/svg" fill="none" viewBox="0 0 250 132" height="132" width="250">
<rect fill="white" height="132" width="250"></rect>
<path fill="#151515" d="M179.453 94.9384C179.093 95.3072 178.653 95.5 178.139 95.5C177.624 95.5 177.187 95.3072 176.822 94.9384C176.462 94.5623 176.285 94.1091 176.285 93.5716C176.285 93.0461 176.46 92.5953 176.827 92.2241C177.192 91.8505 177.624 91.6697 178.136 91.6697C178.651 91.6697 179.09 91.8505 179.451 92.2241C179.811 92.5929 180 93.0485 180 93.5716C180.002 94.1091 179.815 94.5623 179.453 94.9384ZM177.014 92.4073C176.701 92.7351 176.547 93.1208 176.547 93.5764C176.547 94.0368 176.701 94.4346 177.01 94.7551C177.32 95.0757 177.699 95.2397 178.141 95.2397C178.585 95.2397 178.964 95.0782 179.273 94.7551C179.584 94.4346 179.738 94.0368 179.738 93.5764C179.738 93.1208 179.584 92.7351 179.273 92.4073C178.964 92.0867 178.585 91.9252 178.141 91.9252C177.699 91.9252 177.32 92.0867 177.014 92.4073ZM178.104 92.5158C178.356 92.5158 178.539 92.5423 178.66 92.5929C178.875 92.6821 178.983 92.8605 178.983 93.1256C178.983 93.3137 178.91 93.4559 178.777 93.5402C178.709 93.5885 178.609 93.627 178.483 93.6439C178.642 93.6704 178.756 93.7403 178.831 93.8488C178.906 93.9621 178.941 94.0682 178.941 94.1742V94.3309C178.941 94.3791 178.941 94.4321 178.945 94.4876C178.95 94.5454 178.955 94.5768 178.969 94.5961L178.983 94.6202H178.639C178.637 94.6153 178.63 94.6081 178.63 94.6033C178.628 94.5961 178.627 94.584 178.625 94.5768L178.623 94.5117V94.3405C178.623 94.1019 178.557 93.9404 178.429 93.8633C178.349 93.8175 178.218 93.7958 178.027 93.7958H177.748V94.6226H177.384V92.5158H178.104ZM178.49 92.8484C178.398 92.7978 178.253 92.7737 178.055 92.7737H177.753V93.5354H178.073C178.223 93.5354 178.338 93.521 178.412 93.492C178.555 93.4318 178.625 93.3233 178.625 93.1618C178.625 93.0027 178.581 92.8991 178.49 92.8484Z"></path>
<path fill="#151515" d="M178.328 36.5101L178.344 46.2582L175.45 47.4538L175.454 42.0952L173.465 42.9413L173.476 88.5748L175.136 89.2739V93.4079L167.474 90.3369L167.477 86.3475L169.326 86.9911L169.321 44.5154L167.332 45.2096V50.4308L164.547 51.4095L164.549 42.1435L178.328 36.5101Z"></path>
<path fill="#151515" d="M163.149 43.7338C163.149 46.7421 163.149 51.8452 163.149 51.8452L159.987 52.9227V47.3809L157.645 47.9787C157.645 47.9787 157.645 54.1665 157.645 55.6032C157.645 55.8322 157.638 56.148 157.762 56.5047C158.781 59.4528 163.609 66.2215 164.385 68.4006C164.442 68.5694 164.488 69.0442 164.488 69.1985C164.488 72.2189 164.495 85.6768 164.495 87.557C164.495 88.4489 163.567 89.013 162.847 88.8563C161.437 88.5525 157.373 87.4654 155.751 86.9737C155.393 86.8628 154.722 86.1951 154.722 85.3032C154.715 82.9698 154.717 76.7434 154.717 76.7434L158.143 77.5196L158.14 83.6592L160.392 84.2305C160.392 84.2305 160.392 72.8577 160.392 70.3483C160.392 70.182 160.338 69.7722 160.296 69.6565C159.506 67.5594 154.818 60.6195 153.731 58.0113C153.525 57.5147 153.492 57.0857 153.492 56.7072C153.492 54.4582 153.49 48.9357 153.49 46.6722C153.49 45.8744 154.201 44.9921 154.888 44.7414C156.251 44.2376 160.03 43.0782 161.867 42.6587C162.503 42.5117 163.149 43.0203 163.149 43.7338Z"></path>
<path fill="#151515" d="M90.527 44.0334V47.9312L89.2247 47.6058C89.2247 47.6058 91.191 68.6471 91.2869 68.6013C91.2776 68.6158 92.8441 48.4663 92.8441 48.4663L91.6844 48.2012V44.3154L98.0044 45.6677L98.0021 49.5077L96.7488 49.2738L93.0826 86.8514L89.3696 87.7625L85.002 46.4608L83.8516 46.1233V42.158L90.527 44.0334Z"></path>
<path fill="#151515" d="M109.936 47.347L109.94 55.5789L107.1 55.28V50.8423L104.96 50.5843V61.8872L108.671 61.88L108.675 66.0671H104.958L104.96 80.9231L107.237 80.6531L107.245 73.9302L110.537 73.5927V84.0953L98.7874 85.6887V81.856L100.679 81.545V49.9648L99.2597 49.7286V45.8959L109.936 47.347Z"></path>
<path fill="#151515" d="M133.343 47.7454L133.341 51.5227L131.622 51.6119L131.627 79.8944L134.068 80.0342L134.07 72.7738L137.414 72.9618V84.0695L126.085 83.4933V79.7281L127.481 79.7498L127.491 51.7541L125.749 51.7806V48.0202L133.343 47.7454Z"></path>
<path fill="#151515" d="M124.874 79.7177C123.761 79.708 123.75 78.7945 123.75 78.7945C123.75 76.7455 123.747 70.0684 123.747 68.0098C123.726 65.539 122.305 64.9822 122.305 64.9822C122.917 64.5146 123.712 63.7625 123.717 62.5548C123.717 61.1953 123.715 55.2148 123.715 51.963C123.626 50.7336 123.397 48.3328 119.766 47.9953C118.571 47.8555 111.299 47.4674 111.299 47.4674V51.2495L113.195 51.3989L113.184 80.101L111.785 80.2046L111.793 83.9843L118.627 83.5745L118.622 79.8117L117.142 79.8671V66.9926C117.142 66.9878 120.034 66.9926 120.034 66.9926L120.037 79.156C120.135 82.0101 120.292 83.6324 124.874 83.4709C124.874 83.4709 124.877 79.7249 124.874 79.7177ZM117.187 62.3138V51.6304L119.794 51.7292L119.796 62.3138H117.187Z"></path>
<path fill="#151515" d="M153.43 82.5969L152.116 82.3341L147.594 46.1523L144.148 46.673L140.091 80.5431L138.709 80.4105L138.711 84.1902L145.317 85.0074V81.1867L144.227 81.0349L144.622 76.0041L147.239 76.3729L147.631 81.5338L146.439 81.3458V85.1737L153.425 86.4561L153.43 82.5969ZM144.982 71.6917L145.943 60.948C145.936 60.948 146.998 71.9689 146.998 71.9689L144.982 71.6917Z"></path>
<path fill="#151515" d="M82.6377 41.767V50.7365L79.5139 49.9049V44.6933L77.0659 43.8015V60.8703L81.5364 60.8727V65.6311L77.0098 65.6359L77.0144 87.7211L79.5349 86.7978L79.5373 78.3273L83.131 77.0714V89.5796L70.007 95.0008V90.7559L72.3545 89.6374L72.3475 41.861L70.0023 40.757L70 36.5L82.6377 41.767Z"></path>
</svg>
