<svg xmlns="http://www.w3.org/2000/svg" fill="none" viewBox="0 0 250 132" height="132" width="250">
<rect fill="white" height="132" width="250"></rect>
<path fill="black" d="M92.2109 52.4424C98.3295 52.4425 104.866 56.0015 104.873 65.9834C104.873 74.4818 100.14 79.5575 92.2109 79.5576C84.2813 79.5576 79.5479 74.4819 79.5479 65.9834C79.5479 56.0013 86.0921 52.4424 92.2109 52.4424ZM145.959 52.9951L146.083 53.2041L155.065 71.7754L163.897 53.002H168.14V79.1094H163.583V58.6045L153.634 79.5195L143.919 59.3857V79.1094H141.808V56.4443C141.801 55.0128 140.795 53.9461 138.971 53.4385L138.709 53.3662V52.9951H145.959ZM74.8857 54.6016H62.6553V64.8311H72.8662V66.4385H62.6553V79.1143H58.0986V56.8662C58.0986 55.4411 57.0653 53.905 55.2676 53.4365L55 53.3652V53.001H74.8857V54.6016ZM121.32 53.001C127.942 53.001 131.956 55.7402 131.956 60.7246C131.956 66.3339 127.445 68.3515 125.092 68.9307L134.467 79.1084H129.309L118.149 67.0234L119.071 67.082C119.078 67.082 119.268 67.0957 119.588 67.0957C120.431 67.0957 122.399 67.0046 124.262 66.1719C126.465 65.1828 127.583 63.0868 127.583 60.7246C127.583 55.6297 123.994 54.6016 120.51 54.6016H116.934V79.1016H112.377V56.4434C112.377 55.1095 111.423 53.6323 109.593 53.4043L109.278 53.3652V53.001H121.32ZM195 54.6016H182.769V64.8311H192.98V66.4385H182.769V77.501H195V79.1084H178.213V56.4561C178.213 55.0179 177.205 53.9441 175.375 53.4365L175.114 53.3652V53.001H195V54.6016ZM92.2109 53.7568C87.3079 53.7568 84.2617 58.4418 84.2617 65.9902C84.2618 73.6428 87.2362 78.2178 92.2109 78.2178C97.1855 78.2176 100.16 73.6424 100.16 65.9834C100.16 58.4417 97.1135 53.757 92.2109 53.7568Z"></path>
</svg>
