<svg xmlns="http://www.w3.org/2000/svg" fill="none" viewBox="0 0 250 132" height="132" width="250">
<rect fill="white" height="132" width="250"></rect>
<g clip-path="url(#clip0_846_374)">
<path fill="black" d="M174.129 52.9054L173.613 54.7859L173.091 52.9054H172.222V55.6622H172.762V53.4921L173.331 55.6622H173.89L174.461 53.4921V55.6622H175V52.9054H174.129ZM170.833 53.3717H171.352V55.6622H171.705V53.3717H172.222V52.9054H170.833V53.3717ZM131.764 66.1164C131.764 68.2341 131.242 69.9139 130.201 71.1549C129.159 72.3981 127.722 73.0185 125.889 73.0185C122.597 73.0185 120.951 70.7796 120.951 66.2989V52.9054H113.889V66.5439C113.889 74.9322 117.409 79.1258 124.451 79.1258C129.994 79.1258 132.139 75.8283 132.139 75.8283V76.1086C132.139 82.5413 129.097 85.7593 123.014 85.7593C118.553 85.7593 115.731 84.2565 115.676 84.2565V89.879C118.311 90.9559 120.986 91.5 123.701 91.5C129.242 91.5 133.159 89.9733 135.451 86.9196C137.742 83.8649 138.889 79.4265 138.889 73.6039V52.9054H131.824L131.764 66.1164ZM104.167 79.0946H111.111V52.9054H104.167V79.0946ZM106.967 40.5C105.708 40.5 104.696 40.8788 103.929 41.6377C103.161 42.3959 102.778 43.4023 102.778 44.657C102.778 45.9109 103.161 46.9105 103.929 47.6544C104.696 48.3983 105.708 48.7703 106.967 48.7703C108.226 48.7703 109.231 48.3908 109.983 47.6324C110.735 46.8736 111.111 45.8823 111.111 44.657C111.111 43.4318 110.735 42.4322 109.983 41.6596C109.231 40.8864 108.226 40.5 106.967 40.5ZM89.7836 53.2388C85.7586 53.2388 83.6111 54.2922 81.9108 56.2973V40.5H75V79.0946H81.8519L81.9108 66.0868C81.9505 64.1498 82.5213 62.5982 83.6236 61.4274C84.7253 60.2589 86.1975 59.6735 88.0407 59.6735C91.486 59.6735 93.2091 61.8319 93.2091 66.1465V79.0946H100V66.0263C100 57.7577 96.5941 53.2388 89.7836 53.2388ZM159.398 71.4855C158.256 72.883 156.724 73.5811 154.801 73.5811C152.917 73.5811 151.415 72.883 150.294 71.4855C149.172 70.0889 148.611 68.26 148.611 65.9994C148.611 63.6988 149.172 61.8606 150.294 60.4837C151.415 59.1078 152.898 58.4189 154.741 58.4189C156.703 58.4189 158.256 59.0654 159.398 60.36C160.54 61.6545 161.111 63.4939 161.111 65.8769C161.111 68.2187 160.54 70.0889 159.398 71.4855ZM169.699 73.5548C169.319 73.5218 168.895 73.4641 168.579 73.2378C168.311 73.0461 168.154 72.7531 168.074 72.4434C167.932 71.8897 167.862 70.9787 167.862 69.7116V53.5584L163.017 53.5675L162.062 56.3989C160.051 54.3004 156.621 52.9054 153.355 52.9054C149.293 52.9054 146.62 54.5275 144.85 56.5581C142.728 58.9921 141.667 62.1505 141.667 66.0292C141.667 69.8704 142.697 73.0069 144.759 75.4421C146.821 77.8771 149.63 79.0946 153.188 79.0946C160.177 79.0946 162.344 74.4031 162.344 74.4031C162.425 75.8279 162.819 76.9562 163.527 77.7877C164.233 78.6193 165.517 79.0351 167.377 79.0351H170.833V73.5763C170.456 73.5742 170.075 73.5874 169.699 73.5548Z"></path>
</g>
<defs>
<clipPath id="clip0_846_374">
<rect transform="translate(75 40.5)" fill="white" height="51" width="100"></rect>
</clipPath>
</defs>
</svg>
