<svg xmlns="http://www.w3.org/2000/svg" fill="none" viewBox="0 0 250 132" height="132" width="250">
<rect fill="white" height="132" width="250"></rect>
<path fill="black" d="M111.457 72.7176C111.457 72.4214 111.264 72.2022 110.87 72.1168V71.9252C111.088 71.9252 111.816 71.9545 112.02 71.9545C112.197 71.9545 112.902 71.9252 113.121 71.9252V72.1168C112.755 72.1883 112.563 72.4045 112.563 72.7176V76.4778C112.563 77.6686 113.216 78.3417 114.584 78.3417C115.763 78.3417 116.68 77.8125 116.68 76.5664V72.703C116.68 72.4237 116.504 72.2022 116.063 72.1168V71.9252C116.223 71.9252 116.825 71.9545 117.03 71.9545C117.206 71.9545 117.837 71.9252 117.999 71.9252V72.1168C117.573 72.2184 117.383 72.409 117.383 72.703V76.3592C117.383 78.0002 116.429 78.9426 114.369 78.9426C112.451 78.9426 111.457 78.0709 111.457 76.5292V72.7176Z"></path>
<path fill="black" d="M119.684 78.648C120.13 78.5649 120.306 78.3389 120.306 78.0618V72.8647C120.306 72.4239 120.072 72.2256 119.672 72.1163V71.9247C119.898 71.9416 120.278 71.9515 120.472 71.9515C120.648 71.9515 120.922 71.9485 121.106 71.9247L125.614 77.225V72.7032C125.614 72.4245 125.437 72.2031 124.997 72.1163V71.9247C125.159 71.9247 125.739 71.9546 125.945 71.9546C126.124 71.9546 126.746 71.9247 126.91 71.9247V72.1163C126.48 72.2177 126.272 72.4101 126.272 72.7032V78.9426H126C125.829 78.9034 125.506 78.7196 125.014 78.1796L120.981 73.4817V78.0618C120.981 78.3403 121.142 78.561 121.582 78.648V78.8403C121.42 78.8403 120.84 78.8097 120.634 78.8097C120.456 78.8097 119.848 78.8403 119.684 78.8403V78.648Z"></path>
<path fill="black" d="M155.254 77.2464H155.444C155.545 77.6348 155.767 77.9888 156.079 78.1934C156.403 78.4218 156.912 78.5311 157.322 78.5311C158.229 78.5311 158.804 78.0819 158.804 77.371C158.804 76.6348 158.068 76.2525 157.185 75.8117C156.529 75.4833 155.24 74.9411 155.24 73.6947C155.24 72.5338 156.125 71.8116 157.542 71.8116C158.476 71.8116 158.915 72.04 159.545 72.0107L159.533 73.4193H159.341C159.088 72.5892 158.335 72.3 157.509 72.3C156.586 72.3 156.241 72.8279 156.241 73.3647C156.241 74.1333 156.993 74.5208 157.845 74.901C158.804 75.3279 159.844 75.8671 159.844 77.068C159.844 78.2049 158.955 79.0282 157.329 79.0282C156.362 79.0282 155.782 78.752 155.274 78.6894L155.254 77.2464Z"></path>
<path fill="black" d="M174.619 75.9791L172.784 73.0345C172.471 72.5175 172.231 72.245 171.881 72.1159V71.9249C172.133 71.9249 172.812 71.9551 173.005 71.9551C173.18 71.9551 173.913 71.9249 174.178 71.9249V72.1159C173.943 72.1574 173.833 72.275 173.833 72.452C173.833 72.6081 173.939 72.809 174.046 72.9836C174.151 73.1566 175.399 75.2276 175.399 75.2276L176.703 72.9845C176.835 72.7597 176.928 72.5367 176.928 72.3896C176.928 72.2558 176.833 72.145 176.611 72.1159V71.9249C176.832 71.9249 177.295 71.9551 177.443 71.9551C177.591 71.9551 178.124 71.9249 178.343 71.9249V72.1028C177.842 72.3082 177.529 72.7482 177.225 73.2582L175.556 76.0469M175.67 75.6953V78.0476C175.67 78.2808 175.848 78.5738 176.249 78.6475V78.8401C176.025 78.8401 175.295 78.8092 175.083 78.8092C174.905 78.8092 174.204 78.8401 173.951 78.8401V78.6475C174.354 78.5738 174.548 78.2808 174.548 78.0476V75.7984"></path>
<path fill="black" d="M140.52 71.9253H144.824C144.957 71.9253 145.19 71.91 145.323 71.8523H145.516L145.485 73.2507H145.295C145.131 72.8108 144.961 72.4585 144.128 72.4585H142.259V74.8955H143.699C143.909 74.8955 144.164 74.8778 144.274 74.8516C144.598 74.7809 144.74 74.6007 144.806 74.3247H144.998C144.984 74.5354 144.984 75.0163 144.984 75.1586C144.984 75.3017 144.998 75.8078 144.998 76.0371H144.806C144.713 75.7617 144.587 75.5524 144.274 75.4756C144.164 75.4463 143.905 75.4224 143.699 75.4224H142.259V78.2811H144.292C145.179 78.2811 145.437 77.9111 145.658 77.388L145.848 77.4324L145.658 78.8689C144.998 78.8103 144.602 78.8103 143.852 78.8103H141.705C141.498 78.8103 140.738 78.8404 140.518 78.8404V78.6488C140.905 78.5749 141.132 78.3832 141.132 78.0118V72.7247C141.132 72.397 140.955 72.1922 140.52 72.1192V71.9253Z"></path>
<path fill="black" d="M129.524 72.762C129.524 72.4074 129.313 72.2121 128.898 72.1227V71.9328C129.129 71.9328 129.876 71.9619 130.094 71.9619C130.276 71.9619 131.044 71.9328 131.277 71.9328V72.1227C130.865 72.2121 130.649 72.3887 130.649 72.762V78.0123C130.649 78.3668 130.861 78.5599 131.277 78.6475V78.8401C131.044 78.8401 130.308 78.8099 130.094 78.8099C129.908 78.8099 129.129 78.8401 128.897 78.8401V78.6475C129.321 78.5684 129.524 78.383 129.524 78.0123V72.762Z"></path>
<path fill="black" d="M162.173 72.762C162.173 72.4074 161.959 72.2121 161.545 72.1227V71.9328C161.776 71.9328 162.524 71.9619 162.74 71.9619C162.924 71.9619 163.692 71.9328 163.925 71.9328V72.1227C163.513 72.2121 163.297 72.3887 163.297 72.762V78.0123C163.297 78.3668 163.509 78.5599 163.925 78.6475V78.8401C163.693 78.8401 162.958 78.8099 162.74 78.8099C162.558 78.8099 161.776 78.8401 161.545 78.8401V78.6475C161.969 78.5684 162.173 78.383 162.173 78.0123V72.762Z"></path>
<path fill="black" d="M168.155 71.9542C165.796 71.9542 165.419 71.9103 164.936 71.8803L164.94 73.3051H165.132C165.308 72.6734 165.66 72.5266 166.115 72.5266H167.595V78.0123C167.595 78.3829 167.392 78.5684 166.968 78.6475V78.8401C167.201 78.8401 167.987 78.8099 168.169 78.8099C168.385 78.8099 169.123 78.8401 169.353 78.8401V78.6475C168.936 78.5599 168.725 78.3668 168.725 78.0123V72.5266H170.193C170.665 72.5266 171.003 72.6874 171.179 73.3051H171.369L171.373 71.8803C170.893 71.9103 170.516 71.9542 168.155 71.9542Z"></path>
<path fill="black" d="M149.332 78.0119C149.332 78.3665 149.558 78.5589 149.974 78.6472V78.8397C149.743 78.8397 148.988 78.8096 148.773 78.8096C148.588 78.8096 147.852 78.8397 147.619 78.8397V78.6472C148.005 78.5735 148.233 78.3827 148.233 78.0119V72.708C148.233 72.3818 148.055 72.1764 147.621 72.1025V71.9117C147.852 71.9117 148.581 71.9408 148.788 71.9408C149.126 71.9408 150.085 71.884 150.463 71.884C152.117 71.884 153.038 72.5679 153.038 73.7401C153.038 74.6617 152.352 75.2849 151.297 75.5395C151.297 75.5395 151.538 75.6794 151.778 75.9587C152.069 76.3025 152.857 77.4328 153.184 77.8279C153.51 78.2243 153.928 78.6665 154.375 78.6866V78.8411C154.161 78.888 153.817 78.9289 153.554 78.9289C152.992 78.9289 152.544 78.7305 152.109 78.2036C151.732 77.745 151.093 76.7935 150.716 76.3126C150.476 76.0064 150.184 75.7672 149.65 75.6794C149.547 75.6618 149.449 75.6472 149.332 75.6334V78.0119ZM149.332 75.1933C149.552 75.2232 149.876 75.2372 150.196 75.2372C151.491 75.2372 151.899 74.4925 151.899 73.8334C151.899 72.901 151.276 72.3232 150.143 72.3232C149.909 72.3232 149.569 72.3525 149.332 72.3969V75.1933Z"></path>
<path fill="black" d="M132.939 72.7845C132.788 72.4507 132.557 72.2061 132.162 72.1193V71.9245C132.407 71.9245 133.257 71.9553 133.444 71.9553C133.616 71.9553 134.359 71.9245 134.611 71.9245V72.1137C134.387 72.1567 134.132 72.2806 134.132 72.5099C134.132 72.6737 134.231 72.8969 134.421 73.317L136.203 77.3708L137.889 73.31C138.022 72.9823 138.118 72.7284 138.118 72.5345C138.118 72.32 137.921 72.1714 137.64 72.1137V71.9245C137.864 71.9245 138.414 71.9553 138.584 71.9553C138.741 71.9553 139.385 71.9245 139.631 71.9245V72.1193C139.211 72.2331 138.954 72.4646 138.718 73.0131L136.237 78.8647H135.675L132.939 72.7845Z"></path>
<path fill="black" d="M139.303 54.3296C139.016 53.6965 138.576 53.2349 137.83 53.0696V52.701C138.294 52.701 139.834 52.7564 140.188 52.7564C140.514 52.7564 142.006 52.701 142.481 52.701V53.0603C142.06 53.1427 141.575 53.3781 141.575 53.8127C141.575 54.1195 141.766 54.5436 142.12 55.3381L145.499 63.0208L148.697 55.3251C148.946 54.702 149.132 54.2258 149.132 53.8573C149.132 53.448 148.754 53.1704 148.224 53.0603V52.701C148.647 52.701 149.675 52.7564 150.002 52.7564C150.299 52.7564 151.521 52.701 151.985 52.701V53.0488C151.188 53.2651 150.701 53.7228 150.257 54.7619L145.556 65.8541H144.492L139.303 54.3296Z"></path>
<path fill="black" d="M93.7931 65.4319C94.4069 65.2919 94.8385 65.0127 94.8385 64.3173V54.1483C94.8385 53.4806 94.4369 53.2036 93.7931 53.036V52.6751C94.1154 52.6751 95.5039 52.7298 95.8416 52.7298C96.2308 52.7298 97.6862 52.6751 98.0063 52.6751V53.036C97.3932 53.1752 96.9386 53.4536 96.9386 54.1483V58.3962H104.514V54.1483C104.514 53.4536 104.11 53.1752 103.47 53.036V52.6751C103.79 52.6751 105.22 52.7298 105.608 52.7298C105.943 52.7298 107.364 52.6751 107.681 52.6751V53.036C107.067 53.1752 106.613 53.4536 106.613 54.1483V64.3173C106.613 64.985 107.04 65.265 107.681 65.4319V65.7649C107.364 65.7649 105.943 65.7374 105.608 65.7374C105.22 65.7374 103.79 65.7649 103.47 65.7649V65.4319C104.08 65.2919 104.514 65.0127 104.514 64.3173V59.5115H96.9386V64.3173C96.9386 65.0127 97.3648 65.265 98.0063 65.4319V65.7649C97.6862 65.7649 96.2308 65.7374 95.8416 65.7374C95.5039 65.7374 94.1154 65.7649 93.7931 65.7649V65.4319Z"></path>
<path fill="black" d="M181.424 65.4319C182.21 65.2918 182.643 64.9796 182.643 64.2619V54.1483C182.643 53.4513 182.216 53.1752 181.456 53.0359V52.6751C181.894 52.6751 183.318 52.7298 183.713 52.7298C184.35 52.7298 186.127 52.5906 187.51 52.5906C192.17 52.5906 194.999 55.193 194.999 59.1501C194.999 62.9964 192.055 65.8466 187.251 65.8466C185.865 65.8466 184.222 65.7374 183.579 65.7374C183.188 65.7374 181.86 65.7926 181.424 65.7926V65.4319ZM184.741 64.7618C185.216 64.848 186.093 64.9019 186.784 64.9019C190.699 64.9019 192.737 62.5457 192.737 59.2594C192.737 55.8523 190.587 53.4552 186.927 53.4552C186.179 53.4552 185.245 53.5113 184.741 53.593V64.7618Z"></path>
<path fill="black" d="M128.666 64.2247C128.666 64.8987 129.093 65.2647 129.879 65.4317V65.7925C129.441 65.7925 128.015 65.7371 127.606 65.7371C127.259 65.7371 125.861 65.7925 125.424 65.7925V65.4317C126.153 65.2917 126.583 64.9286 126.583 64.2247V54.1836C126.583 53.5657 126.249 53.1751 125.425 53.0357V52.6748C125.863 52.6748 127.245 52.7295 127.632 52.7295C128.273 52.7295 130.09 52.6227 130.807 52.6227C133.941 52.6227 135.686 53.9189 135.686 56.1359C135.686 57.8837 134.384 59.0598 132.387 59.5452C132.387 59.5452 132.84 59.8092 133.296 60.3406C133.849 60.9907 135.375 63.1755 135.992 63.9238C136.609 64.6732 137.4 65.5101 138.247 65.5486V65.8434C137.841 65.9309 137.192 66.0056 136.696 66.0056C135.627 66.0056 134.779 65.6317 133.953 64.6316C133.242 63.7639 131.997 61.9192 131.284 61.0085C130.829 60.4282 130.28 59.9761 129.271 59.8092C129.072 59.7752 128.886 59.7491 128.666 59.7245V64.2247ZM128.666 58.8915C129.081 58.946 129.694 58.9737 130.302 58.9737C132.753 58.9737 133.523 57.5629 133.523 56.3166C133.523 54.5467 132.344 53.4549 130.197 53.4549C129.755 53.4549 129.11 53.5112 128.666 53.5927V58.8915Z"></path>
<path fill="black" d="M169.982 64.2247C169.982 64.8987 170.41 65.2647 171.196 65.4317V65.7925C170.76 65.7925 169.335 65.7371 168.926 65.7371C168.573 65.7371 167.179 65.7925 166.741 65.7925V65.4317C167.469 65.2917 167.899 64.9286 167.899 64.2247V54.1836C167.899 53.5657 167.562 53.1751 166.743 53.0357V52.6748C167.182 52.6748 168.559 52.7295 168.95 52.7295C169.592 52.7295 171.409 52.6227 172.121 52.6227C175.26 52.6227 177 53.9189 177 56.1359C177 57.8837 175.701 59.0598 173.702 59.5452C173.702 59.5452 174.157 59.8092 174.61 60.3406C175.168 60.9907 176.694 63.1755 177.309 63.9238C177.928 64.6732 178.72 65.5101 179.561 65.5486V65.8434C179.161 65.9309 178.508 66.0056 178.017 66.0056C176.947 66.0056 176.094 65.6317 175.271 64.6316C174.559 63.7639 173.319 61.9192 172.599 61.0085C172.144 60.4282 171.597 59.9761 170.59 59.8092C170.389 59.7752 170.204 59.7491 169.982 59.7245V64.2247ZM169.982 58.8915C170.402 58.946 171.011 58.9737 171.619 58.9737C174.071 58.9737 174.839 57.5629 174.839 56.3166C174.839 54.5467 173.659 53.4549 171.517 53.4549C171.07 53.4549 170.429 53.5112 169.982 53.5927V58.8915Z"></path>
<path fill="black" d="M109.675 65.4293C110.504 65.2355 110.959 64.6985 111.262 63.98L115.457 53.885C115.636 53.4673 115.843 52.6087 115.843 52.6087H117.017C117.017 52.6087 117.227 53.4696 117.402 53.8881L121.836 64.0077C122.152 64.7046 122.494 65.2078 123.376 65.4293L123.374 65.7655C122.894 65.7655 121.401 65.7378 121.062 65.7378C120.724 65.7378 119.299 65.7655 118.82 65.7655L118.821 65.4293C119.467 65.2709 119.67 64.9424 119.67 64.6246C119.67 64.3547 119.559 64.05 119.424 63.7339L118.47 61.5598H113.585L112.712 63.7461C112.614 63.9939 112.498 64.3439 112.498 64.58C112.498 64.9447 112.689 65.2355 113.421 65.4293L113.419 65.7655C112.986 65.7655 111.84 65.7378 111.572 65.7378L109.674 65.7655L109.675 65.4293ZM118.028 60.529L115.942 55.6681L113.999 60.529H118.028Z"></path>
<path fill="black" d="M151.238 65.4293C152.066 65.2355 152.523 64.6985 152.824 63.98L157.021 53.885C157.2 53.4673 157.41 52.6087 157.41 52.6087H158.583C158.583 52.6087 158.791 53.4696 158.965 53.8881L163.401 64.0077C163.714 64.7046 164.06 65.2078 164.938 65.4293L164.936 65.7655C164.458 65.7655 162.964 65.7378 162.622 65.7378C162.288 65.7378 160.863 65.7655 160.383 65.7655V65.4293C161.032 65.2709 161.233 64.9424 161.233 64.6246C161.233 64.3547 161.123 64.05 160.99 63.7339L160.033 61.5598H155.147L154.273 63.7461C154.176 63.9939 154.06 64.3439 154.06 64.58C154.06 64.9447 154.251 65.2355 154.983 65.4293V65.7655C154.548 65.7655 153.404 65.7378 153.134 65.7378L151.236 65.7655L151.238 65.4293ZM159.591 60.529L157.504 55.6681L155.562 60.529H159.591Z"></path>
<path fill="black" d="M55.0606 48.5936H84.3138V59.6441C84.3138 64.7073 82.4291 75.4447 69.7964 83.4359C69.7964 83.4359 56.1083 77.7194 55.0606 59.6441V48.5936Z"></path>
<path stroke-width="0.306667" stroke="black" d="M55.0008 48.564H84.2825V59.6222C84.2825 64.6871 82.3955 75.4304 69.7513 83.4271C69.7513 83.4271 56.0501 77.7068 55.0008 59.6222V48.564Z"></path>
<path fill="white" d="M77.2011 62.7935C77.2011 62.7935 76.9402 63.625 75.7804 62.7703L71.7979 62.6741C71.7979 62.6741 71.2764 62.8419 71.2055 62.2964C71.2055 62.2964 71.3009 61.2065 71.2525 61.1111C71.2525 61.1111 71.2764 60.8034 70.7531 60.8034C70.7531 60.8034 69.9485 60.898 69.9247 60.1857C69.9247 60.1857 69.7841 59.4272 70.8971 59.4525C70.8971 59.4525 71.2525 59.6178 71.2764 59.1664C71.2764 59.1664 71.2295 56.0839 71.2525 55.8486C71.2525 55.8486 71.3478 55.5654 70.8016 55.517C70.8016 55.517 70.0201 55.6823 69.9247 55.1624C69.9247 55.1624 69.8778 54.3801 70.4001 54.3316C70.4001 54.3316 71.0394 54.3801 71.1577 54.2132C71.1577 54.2132 71.3009 54.3069 71.2764 53.7408L71.3009 52.7668C71.3009 52.7668 71.3694 52.5068 71.7733 52.5323C71.7733 52.5323 72.5086 52.5792 72.6047 52.5068C72.6047 52.5068 72.7687 52.2946 72.8171 52.1983C72.8171 52.1983 73.1971 52.1753 73.2672 52.2706C73.2672 52.2706 73.8364 52.6499 75.9933 52.5068C75.9933 52.5068 76.3257 52.5068 76.3949 52.6023C76.3949 52.6023 76.7995 52.9099 77.0357 52.5792C77.0357 52.5792 77.3912 52.5068 78.4573 52.5323C78.4573 52.5323 79.6203 52.8391 80.4243 52.1753L80.6858 52.223C80.6858 52.223 81.0174 52.7668 81.2543 52.6023C81.2543 52.6023 81.9659 52.5323 82.0835 52.6738C82.0835 52.6738 82.3198 53.0269 82.202 53.9546C82.202 53.9546 82.0614 54.3562 82.7482 54.3562C82.7482 54.3562 83.5314 54.2132 83.435 54.9477C83.435 54.9477 83.6481 55.7778 82.3459 55.66C82.3459 55.66 82.179 55.897 82.202 56.0632C82.202 56.0632 82.179 58.7641 82.1551 59.074C82.1551 59.074 82.1319 59.5011 82.6998 59.4764C82.6998 59.4764 83.4591 59.4272 83.4844 60.1156C83.4844 60.1156 83.5783 61.0164 82.4867 60.8495C82.4867 60.8495 82.1551 60.898 82.1058 61.1111L82.0614 62.2964C82.0614 62.2964 82.0835 62.8888 81.4212 62.7458C81.3266 62.7458 77.7241 62.8189 77.415 62.7243C77.415 62.7243 77.2473 62.7005 77.2011 62.7935Z"></path>
<path fill="white" d="M69.5473 66.7551C69.5473 66.7551 69.7135 66.6851 69.7604 66.5682C69.7604 66.5682 70.2589 66.5196 70.3287 66.449L71.8942 66.5682C71.8942 66.5682 73.4343 66.6851 74.0981 66.2089C74.0981 66.2089 74.3367 66.2089 74.5027 66.2812C74.5027 66.2812 74.8327 66.3535 74.9273 66.4936L75.829 66.4697C75.829 66.4697 76.3505 66.6373 76.302 66.9696V67.3951C76.302 67.3951 76.2067 68.249 76.4437 68.2975H77.1328C77.1328 68.2975 77.7022 68.5576 77.6306 68.889C77.6306 68.889 77.6545 69.3614 77.1575 69.4576C77.1575 69.4576 76.6575 69.599 76.4935 69.5767C76.4935 69.5767 76.3266 69.7891 76.302 70.0498L76.2329 73.1554C76.2329 73.1554 76.1844 73.487 76.6829 73.4399C76.6829 73.4399 77.4159 73.3685 77.6306 73.7731C77.6306 73.7731 77.8205 74.4592 77.4414 74.5777L77.1575 74.7185L76.5397 74.8171C76.5397 74.8171 76.2806 74.8385 76.2559 75.2886V76.1169C76.2559 76.1169 76.2806 76.6879 75.829 76.6879L75.1652 76.7355C75.1652 76.7355 74.9996 76.8756 74.6682 76.7809C74.6682 76.7809 70.638 76.854 70.4957 76.8057L70.0212 76.9017C70.0212 76.9017 69.5002 77.3756 69.0734 77.0186L68.7418 76.7578C68.7418 76.7578 68.5041 76.8057 68.4111 76.7809C68.3158 76.7578 63.954 76.8294 63.954 76.8294C63.954 76.8294 63.0293 76.9256 62.9593 76.6156C62.9593 76.6156 62.841 75.4078 62.8878 75.2632C62.8878 75.2632 62.8878 74.9093 62.6747 74.8863C62.6747 74.8863 61.7501 74.8385 61.7262 74.7424C61.7262 74.7424 61.2277 74.3887 61.3701 74.0337C61.3701 74.0337 61.537 73.5577 62.0339 73.5107C62.0339 73.5107 62.7924 73.6307 62.7924 73.4169C62.7924 73.4169 62.841 73.2746 62.841 73.0385C62.841 73.0385 62.8878 70.216 62.864 70.0268C62.864 70.0268 62.9347 69.6713 62.6263 69.6713C62.6263 69.6713 62.2947 69.7653 62.0823 69.6238C62.0823 69.6238 61.5131 69.6477 61.3946 69.1967C61.3946 69.1967 61.2993 68.9129 61.4408 68.6737C61.4408 68.6737 61.7025 68.1529 62.461 68.3196C62.461 68.3196 62.8878 68.439 62.9347 68.132L62.9124 66.9919C62.9124 66.9919 62.8162 66.6851 63.4093 66.5196C63.4093 66.5196 64.1678 66.732 64.404 66.3535C64.404 66.3535 64.6656 65.8303 64.8764 66.1859C64.8764 66.1859 65.3287 66.6136 66.5611 66.5682C66.5611 66.5682 68.6949 66.4006 68.7418 66.4936C68.7418 66.4936 69.2635 66.5682 69.4049 66.732L69.5473 66.7551Z"></path>
<path fill="white" d="M63.101 62.7934C63.101 62.7934 62.8395 63.6248 61.678 62.7695L57.6962 62.674C57.6962 62.674 57.1747 62.8418 57.1031 62.2957C57.1031 62.2957 57.1986 61.2064 57.1493 61.1109C57.1493 61.1109 57.1747 60.8017 56.6524 60.8017C56.6524 60.8017 55.8478 60.8985 55.8246 60.1871C55.8246 60.1871 55.6815 59.4262 56.7954 59.4524C56.7954 59.4524 57.1493 59.6177 57.1747 59.1671C57.1747 59.1671 57.127 56.0861 57.1493 55.8477C57.1493 55.8477 57.2462 55.5662 56.7008 55.5175C56.7008 55.5175 55.9176 55.6822 55.8246 55.1607C55.8246 55.1607 55.7761 54.3799 56.2969 54.3315C56.2969 54.3315 56.9371 54.3799 57.0563 54.216C57.0563 54.216 57.1986 54.3076 57.1747 53.7382L57.1986 52.7675C57.1986 52.7675 57.27 52.5067 57.6708 52.5306C57.6708 52.5306 58.4078 52.5775 58.5031 52.5067C58.5031 52.5067 58.6686 52.2945 58.7139 52.1981C58.7139 52.1981 59.0955 52.1758 59.1662 52.2682C59.1662 52.2682 59.7339 52.6498 61.8932 52.5067C61.8932 52.5067 62.2232 52.5067 62.2948 52.6022C62.2948 52.6022 62.6971 52.9097 62.9341 52.5775C62.9341 52.5775 63.2895 52.5067 64.3571 52.5306C64.3571 52.5306 65.5164 52.8383 66.3235 52.1758L66.5835 52.2244C66.5835 52.2244 66.915 52.7675 67.1542 52.6022C67.1542 52.6022 67.8643 52.5306 67.9834 52.6736C67.9834 52.6736 68.2211 53.0291 68.1003 53.9545C68.1003 53.9545 67.9596 54.3568 68.6466 54.3568C68.6466 54.3568 69.428 54.216 69.3343 54.9476C69.3343 54.9476 69.5481 55.7777 68.2443 55.6599C68.2443 55.6599 68.0773 55.8976 68.1003 56.0631C68.1003 56.0631 68.0773 58.7639 68.0542 59.0739C68.0542 59.0739 68.0312 59.4978 68.5997 59.4762C68.5997 59.4762 69.3582 59.4262 69.3812 60.1164C69.3812 60.1164 69.4758 61.0163 68.3864 60.8494C68.3864 60.8494 68.0542 60.8985 68.0057 61.1109L67.9596 62.2957C67.9596 62.2957 67.9834 62.8887 67.318 62.7472C67.2234 62.7472 63.6227 62.8172 63.3132 62.7242C63.3132 62.7242 63.1479 62.7003 63.101 62.7934Z"></path>
<path fill="black" d="M77.2011 62.7935C77.2011 62.7935 76.9402 63.625 75.7804 62.7703L71.7979 62.6741C71.7979 62.6741 71.2764 62.8419 71.2055 62.2964C71.2055 62.2964 71.3009 61.2065 71.2525 61.1111C71.2525 61.1111 71.2764 60.8034 70.7531 60.8034C70.7531 60.8034 69.9485 60.898 69.9247 60.1857C69.9247 60.1857 69.7841 59.4272 70.8971 59.4525C70.8971 59.4525 71.2525 59.6178 71.2764 59.1664C71.2764 59.1664 71.2295 56.0839 71.2525 55.8486C71.2525 55.8486 71.3478 55.5654 70.8016 55.517C70.8016 55.517 70.0201 55.6823 69.9247 55.1624C69.9247 55.1624 69.8778 54.3801 70.4001 54.3316C70.4001 54.3316 71.0394 54.3801 71.1577 54.2132C71.1577 54.2132 71.3009 54.3069 71.2764 53.7408L71.3009 52.7668C71.3009 52.7668 71.3694 52.5068 71.7733 52.5323C71.7733 52.5323 72.5086 52.5792 72.6047 52.5068C72.6047 52.5068 72.7687 52.2946 72.8171 52.1983C72.8171 52.1983 73.1971 52.1753 73.2672 52.2706C73.2672 52.2706 73.8364 52.6499 75.9933 52.5068C75.9933 52.5068 76.3257 52.5068 76.3949 52.6023C76.3949 52.6023 76.7995 52.9099 77.0357 52.5792C77.0357 52.5792 77.3912 52.5068 78.4573 52.5323C78.4573 52.5323 79.6203 52.8391 80.4243 52.1753L80.6858 52.223C80.6858 52.223 81.0174 52.7668 81.2543 52.6023C81.2543 52.6023 81.9659 52.5323 82.0835 52.6738C82.0835 52.6738 82.3198 53.0269 82.202 53.9546C82.202 53.9546 82.0614 54.3562 82.7482 54.3562C82.7482 54.3562 83.5314 54.2132 83.435 54.9477C83.435 54.9477 83.6481 55.7778 82.3459 55.66C82.3459 55.66 82.179 55.897 82.202 56.0632C82.202 56.0632 82.179 58.7641 82.1551 59.074C82.1551 59.074 82.1319 59.5011 82.6998 59.4764C82.6998 59.4764 83.4591 59.4272 83.4844 60.1156C83.4844 60.1156 83.5783 61.0164 82.4867 60.8495C82.4867 60.8495 82.1551 60.898 82.1058 61.1111L82.0614 62.2964C82.0614 62.2964 82.0835 62.8888 81.4212 62.7458C81.3266 62.7458 77.7241 62.8189 77.415 62.7243C77.415 62.7243 77.2473 62.7005 77.2011 62.7935Z"></path>
<path stroke-width="0.0133333" stroke="black" d="M77.2018 62.7945C77.2018 62.7945 76.941 63.6261 75.7811 62.7715L71.7977 62.6753C71.7977 62.6753 71.2762 62.8429 71.2055 62.2968C71.2055 62.2968 71.3017 61.2068 71.2524 61.1113C71.2524 61.1113 71.2762 60.8036 70.7539 60.8036C70.7539 60.8036 69.9485 60.8991 69.9247 60.1867C69.9247 60.1867 69.7839 59.4282 70.8969 59.4528C70.8969 59.4528 71.2524 59.6183 71.2762 59.1675C71.2762 59.1675 71.2294 56.0849 71.2524 55.8488C71.2524 55.8488 71.3485 55.565 70.8023 55.5173C70.8023 55.5173 70.02 55.6828 69.9247 55.1627C69.9247 55.1627 69.8785 54.3795 70.4 54.3319C70.4 54.3319 71.0393 54.3795 71.1579 54.2134C71.1579 54.2134 71.3017 54.3072 71.2762 53.7402L71.3017 52.7664C71.3017 52.7664 71.3693 52.5064 71.7747 52.5319C71.7747 52.5319 72.5093 52.5787 72.6048 52.5064C72.6048 52.5064 72.7687 52.2949 72.8179 52.1985C72.8179 52.1985 73.1972 52.1748 73.2679 52.2703C73.2679 52.2703 73.8364 52.6495 75.994 52.5064C75.994 52.5064 76.3264 52.5064 76.3956 52.6017C76.3956 52.6017 76.8002 52.9094 77.0364 52.5787C77.0364 52.5787 77.3919 52.5064 78.458 52.5319C78.458 52.5319 79.6211 52.8387 80.4257 52.1748L80.6874 52.2217C80.6874 52.2217 81.0188 52.7664 81.255 52.6017C81.255 52.6017 81.9666 52.5319 82.0842 52.6725C82.0842 52.6725 82.3212 53.0272 82.2036 53.9533C82.2036 53.9533 82.0621 54.3565 82.7496 54.3565C82.7496 54.3565 83.5321 54.2134 83.4358 54.9473C83.4358 54.9473 83.6489 55.7781 82.3466 55.6596C82.3466 55.6596 82.1804 55.8966 82.2036 56.0635C82.2036 56.0635 82.1804 58.7643 82.1565 59.0736C82.1565 59.0736 82.1327 59.5005 82.7012 59.4775C82.7012 59.4775 83.4612 59.4282 83.4858 60.1159C83.4858 60.1159 83.579 61.0167 82.4881 60.8498C82.4881 60.8498 82.1565 60.8991 82.1074 61.1113L82.0621 62.2968C82.0621 62.2968 82.0842 62.89 81.4228 62.7469C81.3282 62.7469 77.7248 62.8192 77.4158 62.7246C77.4158 62.7246 77.248 62.7014 77.2018 62.7945Z"></path>
<path fill="white" d="M72.7216 53.028C72.7216 53.028 72.7685 53.5026 72.7685 53.6227C72.7685 53.7403 72.6986 60.4715 72.6986 60.4715C72.6986 60.4715 72.7685 60.9929 72.32 61.2545C72.32 61.2545 72.2 61.3006 72.1777 60.9691L72.224 53.8603C72.224 53.8603 72.2716 52.981 72.7216 53.028"></path>
<path stroke-width="0.016" stroke="black" d="M72.7239 53.0272C72.7239 53.0272 72.7701 53.5018 72.7701 53.6219C72.7701 53.7402 72.7009 60.4722 72.7009 60.4722C72.7009 60.4722 72.7701 60.9937 72.3216 61.2544C72.3216 61.2544 72.2015 61.3014 72.1777 60.9698L72.2254 53.8595C72.2254 53.8595 72.2723 52.9802 72.7239 53.0272V53.0272Z"></path>
<path fill="white" d="M71.9441 61.3246C71.9441 61.3246 71.9912 54.6405 71.9689 54.522C71.9441 54.4051 71.9912 54.6189 71.9912 54.6189C71.9912 54.6189 71.9203 53.4556 72.2288 52.9803C72.2288 52.9803 72.1327 52.5796 71.588 53.0765L71.5641 54.0472C71.5641 54.0472 71.5641 54.5934 71.0672 54.5695C71.0672 54.5695 70.498 54.545 70.2372 54.8058C70.2372 54.8058 70.095 55.328 70.6395 55.2343C70.6395 55.2343 71.4934 55.2343 71.5411 55.5873L71.4934 59.1675C71.4934 59.1675 71.6833 59.7629 71.0203 59.7629C71.0203 59.7629 70.2119 59.7122 70.2372 60.21C70.2372 60.21 70.4041 60.636 71.0911 60.4952C71.0911 60.4952 71.588 60.5882 71.5641 61.0644V61.9645C71.5641 61.9645 71.5164 62.3223 71.9912 62.3446H75.6888C75.6888 62.3446 75.8773 62.3676 75.8773 62.1306C75.8773 62.1306 75.8543 61.9415 75.5703 61.9415L72.4895 61.8938C72.4895 61.8938 71.9912 62.0607 71.9441 61.3246Z"></path>
<path fill="white" d="M72.6548 61.3139C72.6548 61.3139 72.5595 61.6455 72.9148 61.5762H75.3565L76.0188 61.7201C76.0188 61.7201 76.7058 61.5525 76.0188 61.1738C76.0188 61.1738 73.8387 61.1954 73.6495 61.1493C73.6495 61.1493 73.1988 61.0315 73.1017 61.0078C73.1017 61.0078 72.8672 60.9132 72.6548 61.3139Z"></path>
<path stroke-width="0.016" stroke="black" d="M72.6548 61.3132C72.6548 61.3132 72.5595 61.6455 72.9148 61.5763H75.3572L76.0197 61.7201C76.0197 61.7201 76.7072 61.5518 76.0197 61.1724C76.0197 61.1724 73.8394 61.1939 73.6494 61.1486C73.6494 61.1486 73.1988 61.0301 73.1026 61.0062C73.1026 61.0062 72.8672 60.9116 72.6548 61.3132Z"></path>
<path fill="white" d="M76.7044 61.6458C76.7044 61.6458 76.2544 61.6458 76.2775 62.2396C76.2775 62.2396 76.3251 62.6881 76.799 62.6881C76.799 62.6881 77.2243 62.6182 77.179 62.1443C77.179 62.1443 76.9175 61.5519 76.7044 61.6458"></path>
<path fill="white" d="M77.0398 61.4097C77.0398 61.4097 77.2529 61.1737 77.3959 61.1737C77.3959 61.1737 79.7661 61.3859 80.1661 61.102C80.1661 61.102 80.5238 61.0313 80.6191 61.102C80.6191 61.102 80.9739 61.3859 80.9739 61.5521C80.9739 61.5521 80.9507 61.7666 80.5238 61.6451C80.5238 61.6451 77.8453 61.6713 77.7029 61.6713C77.7029 61.6713 76.9668 61.8359 77.0398 61.4097"></path>
<path stroke-width="0.016" stroke="black" d="M77.0398 61.4091C77.0398 61.4091 77.2529 61.1721 77.3959 61.1721C77.3959 61.1721 79.7668 61.3845 80.1677 61.1005C80.1677 61.1005 80.5252 61.0298 80.6207 61.1005C80.6207 61.1005 80.9753 61.3845 80.9753 61.5522C80.9753 61.5522 80.9523 61.7668 80.5252 61.6452C80.5252 61.6452 77.8453 61.6713 77.7029 61.6713C77.7029 61.6713 76.9668 61.836 77.0398 61.4091V61.4091Z"></path>
<path fill="white" d="M77.3463 62.1786C77.3463 62.1786 77.3463 61.9869 77.6786 61.9869L80.9957 61.9639C80.9957 61.9639 81.3049 62.1301 81.3049 61.5623C81.3049 61.5623 81.4264 58.9785 81.4372 56.1337C81.441 55.2868 81.4795 54.3983 81.4495 53.575C81.4495 53.575 81.3757 53.2189 81.2804 53.1466C81.2804 53.1466 81.2804 52.7681 81.6841 52.9105C81.6841 52.9105 82.0395 52.9344 81.9449 53.4813L81.9695 54.3074C81.9695 54.3074 81.898 54.6651 82.5364 54.5691C82.5364 54.5691 83.1757 54.6651 83.2011 54.9005C83.2011 54.9005 83.3903 55.3767 82.6333 55.3282H82.0857C82.0857 55.3282 81.8496 55.4699 81.9203 55.7553L81.8496 59.193C81.8496 59.193 81.8018 59.7845 82.3711 59.7622C82.3711 59.7622 82.9626 59.7377 83.0818 59.9278C83.0818 59.9278 83.4872 60.52 82.6087 60.4724C82.6087 60.4724 82.0634 60.4477 81.9449 60.5439C81.9449 60.5439 81.8496 60.6615 81.7787 61.7769C81.7787 61.7769 81.8271 62.4408 81.3286 62.3678C81.3286 62.3678 78.0333 62.4146 77.7256 62.3448C77.7256 62.3448 77.394 62.4408 77.3463 62.1786"></path>
<path fill="white" d="M73.0812 52.8125L73.0096 60.4236C73.0096 60.4236 72.9866 60.7768 73.579 60.8482C73.579 60.8482 74.2658 60.9189 74.4305 60.8482C74.4305 60.8482 74.8836 60.8236 76.0428 60.8721C76.0428 60.8721 76.3289 61.159 76.3528 60.8006C76.3528 60.8006 76.5405 54.6403 76.4483 53.3572C76.4483 53.3572 76.4221 52.8125 76.0205 52.7887C76.0205 52.7887 74.2189 52.9341 74.0529 52.7887L73.3413 52.601C73.3413 52.601 73.0566 52.624 73.0812 52.8125Z"></path>
<path fill="white" d="M76.8254 53.193C76.8254 53.193 76.7547 56.7724 76.7784 56.8909L76.7315 59.9003L76.6354 60.9442C76.6354 60.9442 76.7784 61.1571 76.8971 61.0156C76.8971 61.0156 77.6555 60.8232 78.1292 60.898C78.1292 60.898 79.6479 61.0388 79.9547 60.8002C79.9547 60.8002 80.1924 60.9187 80.2617 60.5394C80.2617 60.5394 80.3555 53.9046 80.3117 53.7861C80.3117 53.7861 80.4032 52.8353 80.3555 52.743C80.3555 52.743 80.3347 52.5299 79.9308 52.7184C79.9308 52.7184 79.977 52.9092 77.7269 52.8353C77.7269 52.8353 76.8739 52.8121 76.8254 53.193Z"></path>
<path fill="white" d="M80.5958 53.0991L80.5728 60.5879C80.5728 60.5879 80.7621 61.254 81.0698 61.1841C81.0698 61.1841 81.1159 61.0402 81.1389 60.8032L81.2351 53.6677C81.2351 53.6677 80.9966 52.5322 80.5958 53.0991Z"></path>
<path stroke-width="0.016" stroke="black" d="M80.5958 53.0982L80.5728 60.5885C80.5728 60.5885 80.7628 61.2547 81.0705 61.1847C81.0705 61.1847 81.1175 61.0408 81.1405 60.8038L81.2358 53.6667C81.2358 53.6667 80.9974 52.5312 80.5958 53.0982Z"></path>
<path fill="black" d="M77.6785 55.3411C77.6077 55.1519 78.0815 55.128 78.0815 55.128L78.3193 55.1749C78.4855 55.1519 78.6516 55.2233 78.6516 55.2233C78.8171 55.4834 78.5324 55.6249 78.5324 55.6249L78.4378 55.9342C78.4132 56.1957 78.4378 58.4474 78.4378 58.4474C78.4855 58.5643 78.6747 58.7767 78.6747 58.7767C78.6747 58.9912 78.4132 58.9443 78.4132 58.9443L77.7269 58.9682C77.5131 58.9443 77.5838 58.7065 77.5838 58.7065C77.8208 58.5882 77.8924 58.1604 77.8924 58.1604V55.815L77.6785 55.3411Z"></path>
<path fill="black" d="M74.4866 57.5457L74.4397 58.2803L74.6512 58.635C74.7951 58.8243 74.5573 58.9682 74.5573 58.9682L73.7988 58.8973C73.6581 58.8243 73.7988 58.588 73.7988 58.588C73.9889 58.4713 74.0126 58.1611 74.0126 58.1611L73.9889 56.7866L74.0126 55.7911C74.0126 55.6718 73.8234 55.4603 73.8234 55.4603C73.6581 55.4364 73.7049 55.2233 73.7049 55.2233C73.752 55.1041 74.1534 55.1749 74.1534 55.1749H75.1504C76.0989 55.4834 75.9566 56.171 75.9566 56.171C76.0282 56.8573 75.2934 57.1434 75.2934 57.1434L75.2443 57.5227L75.9327 58.6112C76.0512 58.7065 76.0282 58.8027 76.0282 58.8027C75.9327 59.0635 75.5527 58.8027 75.5527 58.8027L74.7005 57.4743C74.6289 57.3788 74.4866 57.5457 74.4866 57.5457ZM74.5104 55.6718C74.5334 56.1948 74.5334 56.9057 74.5334 56.9057C74.985 57.2619 75.2443 56.7627 75.2443 56.7627C75.8358 56.1948 75.2443 55.6718 75.1504 55.531C75.0542 55.3879 74.5805 55.5064 74.5805 55.5064L74.5104 55.6718Z"></path>
<path fill="black" d="M69.5473 66.7551C69.5473 66.7551 69.7135 66.6851 69.7604 66.5682C69.7604 66.5682 70.2589 66.5196 70.3287 66.449L71.8942 66.5682C71.8942 66.5682 73.4343 66.6851 74.0981 66.2089C74.0981 66.2089 74.3367 66.2089 74.5027 66.2812C74.5027 66.2812 74.8327 66.3535 74.9273 66.4936L75.829 66.4697C75.829 66.4697 76.3505 66.6373 76.302 66.9696V67.3951C76.302 67.3951 76.2067 68.249 76.4437 68.2975H77.1328C77.1328 68.2975 77.7022 68.5576 77.6306 68.889C77.6306 68.889 77.6545 69.3614 77.1575 69.4576C77.1575 69.4576 76.6575 69.599 76.4935 69.5767C76.4935 69.5767 76.3266 69.7891 76.302 70.0498L76.2329 73.1554C76.2329 73.1554 76.1844 73.487 76.6829 73.4399C76.6829 73.4399 77.4159 73.3685 77.6306 73.7731C77.6306 73.7731 77.8205 74.4592 77.4414 74.5777L77.1575 74.7185L76.5397 74.8171C76.5397 74.8171 76.2806 74.8385 76.2559 75.2886V76.1169C76.2559 76.1169 76.2806 76.6879 75.829 76.6879L75.1652 76.7355C75.1652 76.7355 74.9996 76.8756 74.6682 76.7809C74.6682 76.7809 70.638 76.854 70.4957 76.8057L70.0212 76.9017C70.0212 76.9017 69.5002 77.3756 69.0734 77.0186L68.7418 76.7578C68.7418 76.7578 68.5041 76.8057 68.4111 76.7809C68.3158 76.7578 63.954 76.8294 63.954 76.8294C63.954 76.8294 63.0293 76.9256 62.9593 76.6156C62.9593 76.6156 62.841 75.4078 62.8878 75.2632C62.8878 75.2632 62.8878 74.9093 62.6747 74.8863C62.6747 74.8863 61.7501 74.8385 61.7262 74.7424C61.7262 74.7424 61.2277 74.3887 61.3701 74.0337C61.3701 74.0337 61.537 73.5577 62.0339 73.5107C62.0339 73.5107 62.7924 73.6307 62.7924 73.4169C62.7924 73.4169 62.841 73.2746 62.841 73.0385C62.841 73.0385 62.8878 70.216 62.864 70.0268C62.864 70.0268 62.9347 69.6713 62.6263 69.6713C62.6263 69.6713 62.2947 69.7653 62.0823 69.6238C62.0823 69.6238 61.5131 69.6477 61.3946 69.1967C61.3946 69.1967 61.2993 68.9129 61.4408 68.6737C61.4408 68.6737 61.7025 68.1529 62.461 68.3196C62.461 68.3196 62.8878 68.439 62.9347 68.132L62.9124 66.9919C62.9124 66.9919 62.8162 66.6851 63.4093 66.5196C63.4093 66.5196 64.1678 66.732 64.404 66.3535C64.404 66.3535 64.6656 65.8303 64.8764 66.1859C64.8764 66.1859 65.3287 66.6136 66.5611 66.5682C66.5611 66.5682 68.6949 66.4006 68.7418 66.4936C68.7418 66.4936 69.2635 66.5682 69.4049 66.732L69.5473 66.7551Z"></path>
<path stroke-width="0.0133333" stroke="black" d="M69.5456 66.7255C69.5456 66.7255 69.7101 66.6564 69.7587 66.5379C69.7587 66.5379 70.2564 66.4895 70.3271 66.4185L71.8919 66.5379C71.8919 66.5379 73.4327 66.6564 74.0965 66.1802C74.0965 66.1802 74.335 66.1802 74.5011 66.2525C74.5011 66.2525 74.832 66.3239 74.925 66.464L75.8281 66.4408C75.8281 66.4408 76.3488 66.6086 76.3004 66.94V67.3664C76.3004 67.3664 76.2058 68.2202 76.4428 68.2672H77.1312C77.1312 68.2672 77.6997 68.5287 77.6297 68.8603C77.6297 68.8603 77.6535 69.3327 77.1559 69.4288C77.1559 69.4288 76.6567 69.5703 76.4928 69.5472C76.4928 69.5472 76.3258 69.7602 76.3004 70.0211L76.2304 73.1274C76.2304 73.1274 76.1828 73.4574 76.6804 73.4112C76.6804 73.4112 77.4143 73.3414 77.6297 73.7435C77.6297 73.7435 77.8197 74.4305 77.4404 74.5497L77.1559 74.6913L76.5381 74.7875C76.5381 74.7875 76.2781 74.8105 76.2551 75.259V76.0907C76.2551 76.0907 76.2781 76.659 75.8281 76.659L75.1642 76.7068C75.1642 76.7068 74.998 76.8484 74.6666 76.7538C74.6666 76.7538 70.6364 76.8252 70.494 76.7761L70.0187 76.8721C70.0187 76.8721 69.4986 77.3467 69.0717 76.989L68.7395 76.7282C68.7395 76.7282 68.5025 76.7761 68.4088 76.7538C68.3133 76.7282 63.9523 76.8014 63.9523 76.8014C63.9523 76.8014 63.027 76.8969 62.9562 76.5876C62.9562 76.5876 62.8385 75.3782 62.8853 75.2351C62.8853 75.2351 62.8853 74.8813 62.6715 74.8574C62.6715 74.8574 61.7477 74.8105 61.7232 74.715C61.7232 74.715 61.2254 74.3591 61.3676 74.0043C61.3676 74.0043 61.5345 73.529 62.0323 73.4811C62.0323 73.4811 62.79 73.6029 62.79 73.3865C62.79 73.3865 62.8385 73.245 62.8385 73.0096C62.8385 73.0096 62.8853 70.1873 62.8623 69.9979C62.8623 69.9979 62.9331 69.6411 62.6238 69.6411C62.6238 69.6411 62.2924 69.7357 62.0791 69.5949C62.0791 69.5949 61.5108 69.6181 61.3923 69.168C61.3923 69.168 61.2961 68.8842 61.4392 68.6456C61.4392 68.6456 61.6993 68.124 62.4584 68.2902C62.4584 68.2902 62.8853 68.4102 62.9331 68.1025L62.9092 66.9632C62.9092 66.9632 62.8139 66.6564 63.407 66.4895C63.407 66.4895 64.1654 66.7032 64.4024 66.3239C64.4024 66.3239 64.6624 65.8017 64.8747 66.1556C64.8747 66.1556 65.3271 66.5834 66.5586 66.5379C66.5586 66.5379 68.6933 66.3701 68.7395 66.464C68.7395 66.464 69.2618 66.5379 69.4033 66.7032L69.5456 66.7255Z"></path>
<path fill="white" d="M70.1618 76.0709C70.1618 76.0709 70.4472 75.9269 70.6373 75.9763C70.8272 76.0233 73.5996 75.9531 73.5996 75.9531C73.5996 75.9531 74.8081 76.047 74.9989 75.8792L75.2812 75.7855C75.2812 75.7855 75.4004 75.644 75.4004 75.4555C75.4004 75.264 75.4242 74.6238 75.4242 74.6238L75.4965 74.3886C75.4965 74.3886 75.472 74.1515 75.4965 67.8212C75.4965 67.8212 75.5896 67.3259 75.2812 67.0159C75.2812 67.0159 75.2812 66.8281 75.3758 66.8505C75.472 66.876 75.4242 66.876 75.4242 66.876C75.4242 66.876 75.8504 66.7551 75.9204 66.9211C75.9204 66.9211 76.1119 67.4881 75.945 67.8212C75.945 67.8212 75.8973 68.5096 76.2559 68.5096C76.2559 68.5096 76.3958 68.6529 76.6805 68.5806C76.6805 68.5806 77.2966 68.6529 77.2966 68.8405C77.2966 68.8405 77.2966 69.269 76.8697 69.1975L76.2998 69.2435C76.2998 69.2435 75.9204 69.3167 75.9689 69.7654C76.0173 70.216 75.945 73.4399 75.945 73.4399C75.945 73.4399 75.945 73.8208 76.539 73.7969C76.539 73.7969 77.2729 73.7723 77.2729 73.9845C77.2729 73.9845 77.4619 74.4585 76.9413 74.4832C76.9413 74.4832 75.945 74.4585 76.0173 74.7423C76.0173 74.7423 75.945 75.4077 75.8973 75.5246C75.8973 75.5246 75.9943 76.0709 75.8736 76.1663C75.8736 76.1663 75.8035 76.4732 75.1643 76.4263C75.1643 76.4263 71.088 76.4031 70.4472 76.4502C70.4472 76.4502 70.0672 76.4031 70.1618 76.0709"></path>
<path fill="white" d="M69.433 75.6207C69.433 75.6207 69.8353 75.6907 69.8353 76.0708C69.8353 76.4492 69.8592 76.663 69.6208 76.71C69.3846 76.7576 69.1246 76.6877 69.0546 76.3799C68.9816 76.0708 69.0999 75.6907 69.433 75.6207Z"></path>
<path fill="white" d="M69.8996 75.4318C69.8996 75.4318 70.3258 75.1455 70.4918 75.195C70.4918 75.195 72.6482 75.3356 73.3136 75.2194C73.9765 75.1002 73.5735 75.195 73.5735 75.195C73.5735 75.195 74.1429 75.195 74.3074 74.9801C74.3074 74.9801 74.4743 74.9347 74.5689 75.1002L74.9228 75.4809C74.9228 75.4809 74.9497 75.7156 74.5451 75.6917C74.5451 75.6917 70.6804 75.6917 70.5635 75.7156C70.5635 75.7156 69.8289 75.8325 69.8996 75.4318"></path>
<path stroke-width="0.016" stroke="black" d="M69.8996 75.4316C69.8996 75.4316 70.3258 75.1453 70.4918 75.1939C70.4918 75.1939 72.6497 75.3354 73.3143 75.2192C73.9783 75.0993 73.5742 75.1939 73.5742 75.1939C73.5742 75.1939 74.1443 75.1939 74.309 74.9784C74.309 74.9784 74.4752 74.9339 74.5705 75.0993L74.9244 75.4807C74.9244 75.4807 74.9505 75.7163 74.5466 75.6915C74.5466 75.6915 70.6819 75.6915 70.5635 75.7163C70.5635 75.7163 69.8289 75.8332 69.8996 75.4316V75.4316Z"></path>
<path fill="white" d="M64.2876 67.017C64.2876 67.017 64.4539 67.017 64.4298 67.3017L64.3816 74.4595C64.3816 74.4595 64.4539 74.9348 64.0507 75.2419C64.0507 75.2419 63.836 75.5018 63.836 75.1004L63.9329 67.7993C63.9329 67.7993 63.9554 67.2537 64.2876 67.017"></path>
<path stroke-width="0.016" stroke="black" d="M64.2892 67.0162C64.2892 67.0162 64.4554 67.0162 64.433 67.3007L64.3831 74.4603C64.3831 74.4603 64.4554 74.9357 64.0516 75.2427C64.0516 75.2427 63.836 75.5026 63.836 75.101L63.9331 67.7992C63.9331 67.7992 63.9561 67.253 64.2892 67.0162Z"></path>
<path fill="white" d="M63.9058 67.064C63.9058 67.064 63.6211 67.5864 63.645 67.7057L63.6211 69.2918C63.6211 69.2918 63.5973 70.3111 63.6211 70.4303C63.645 70.5481 63.5973 73.5352 63.5973 73.5352C63.5973 73.5352 63.5736 74.1027 63.5973 74.2935V75.5729C63.5973 75.5729 63.5497 76.1429 63.9759 75.9982C63.9759 75.9982 68.1483 75.9045 68.4098 75.9766C68.4098 75.9766 68.7876 76.0468 68.6475 76.2368C68.6475 76.2368 68.6475 76.4039 68.3844 76.3552C68.3844 76.3552 66.4174 76.5436 64.6404 76.4737C64.6404 76.4737 63.4551 76.5436 63.3828 76.4039C63.3828 76.4039 63.1942 76.3798 63.1942 75.6914C63.1942 75.6914 63.1942 75.053 63.1481 74.9343C63.1481 74.9343 63.1942 74.5982 62.602 74.5298C62.602 74.5298 61.7727 74.6728 61.7488 74.1752C61.7488 74.1752 61.8666 73.8197 62.6735 73.8659C62.6735 73.8659 63.2659 73.9612 63.1481 73.4859L63.2181 69.9802C63.2181 69.9802 63.2911 69.3612 62.8865 69.3364C62.8865 69.3364 62.5088 69.3173 62.3881 69.3612C62.3881 69.3612 61.7012 69.3612 61.7488 68.9611C61.7488 68.9611 61.9858 68.5334 62.6735 68.6287C62.6735 68.6287 63.1942 68.7228 63.2181 68.1317C63.2181 68.1317 63.1942 66.9218 63.4781 66.8757C63.4781 66.8757 64.072 66.8971 63.9058 67.064"></path>
<path fill="white" d="M64.6163 74.9094C64.6163 74.9094 64.9486 75.2633 65.4948 75.2425L68.7155 75.2887C68.7155 75.2887 69.0734 75.314 69.0509 75.5016C69.0509 75.5016 69.0002 75.7856 68.5756 75.691L64.6877 75.6441L64.2602 75.6701C64.2602 75.6701 63.9755 75.621 64.4278 75.0763L64.6163 74.9094Z"></path>
<path stroke-width="0.016" stroke="black" d="M64.6134 74.9084C64.6134 74.9084 64.9459 75.263 65.4928 75.2414L68.7144 75.2884C68.7144 75.2884 69.0712 75.313 69.0498 75.5014C69.0498 75.5014 68.9998 75.7861 68.5752 75.6923L64.685 75.6453L64.2573 75.6698C64.2573 75.6698 63.9734 75.6216 64.4249 75.0753L64.6134 74.9084Z"></path>
<path fill="white" d="M74.5738 74.5994C74.5738 74.5994 74.8583 75.1456 75.0007 75.2202C75.0007 75.2202 75.2615 75.5256 75.1908 74.981L75.2376 68.1538C75.2376 68.1538 75.166 67.9161 75.2376 67.5384L74.9538 67.0167C74.9538 67.0167 74.6445 66.7799 74.6445 67.1584L74.5977 74.4363L74.5738 74.5994Z"></path>
<path stroke-width="0.016" stroke="black" d="M74.5738 74.6006C74.5738 74.6006 74.8592 75.146 75.0022 75.2215C75.0022 75.2215 75.2631 75.5276 75.1923 74.9815L75.2392 68.1526C75.2392 68.1526 75.1676 67.9165 75.2392 67.5388L74.9547 67.0166C74.9547 67.0166 74.6445 66.7803 74.6445 67.1588L74.5977 74.4374L74.5738 74.6006Z"></path>
<path fill="white" d="M69.308 71.3541C69.308 71.3541 69.3319 71.921 69.2596 72.465C69.221 72.7657 69.3556 74.1504 69.2357 74.8604C69.2357 74.8604 69.2141 75.0981 68.714 74.8859C68.714 74.8859 65.6809 74.9557 65.5863 74.8604C65.5863 74.8604 64.7571 74.8859 64.6855 74.4581C64.6855 74.4581 64.804 71.211 64.7333 71.0903C64.7333 71.0903 64.6855 69.3132 64.7333 69.1479C64.7333 69.1479 64.804 67.5125 64.7571 67.3231C64.7571 67.3231 64.781 66.9438 64.7094 66.7531C64.7094 66.7531 64.7094 66.5162 65.1133 66.6578C65.1133 66.6578 65.2534 66.9194 66.0364 66.8032C66.0364 66.8032 66.6063 66.8971 67.1518 66.8255C67.1518 66.8255 68.3595 66.7308 68.6687 66.8255C68.6687 66.8255 69.1433 66.7308 69.2832 67.2539L69.2596 68.7224L69.401 69.1963L69.5679 69.0785L69.638 68.7224L69.6619 67.1577C69.6619 67.1577 69.7565 66.8723 70.1372 66.8255C70.1372 66.8255 70.7296 66.7532 70.8258 66.8032C70.9204 66.8486 72.198 66.9194 72.5557 66.8486C72.9103 66.7777 72.9804 67.0854 74.0489 66.5416C74.0489 66.5416 74.3335 66.5655 74.3335 66.7531C74.3335 66.7531 74.2366 68.771 74.3335 69.1479C74.3335 69.1479 74.3335 72.845 74.2596 73.1059L74.308 74.291C74.308 74.291 74.3551 74.8129 73.5273 74.8604C73.5273 74.8604 74.0489 74.9319 70.7758 74.8373C70.7758 74.8373 70.255 74.8129 69.6864 75.0728C69.6864 75.0728 69.5679 75.0497 69.5679 74.742C69.5679 74.742 69.6619 73.6289 69.5679 72.5365L69.522 71.3281L69.308 71.3541Z"></path>
<path fill="black" d="M67.1725 69.672C67.1725 69.672 67.2441 71.4253 67.1725 71.6621L67.1502 72.0423C67.1502 72.0423 67.2441 72.3014 67.3865 72.3976C67.3865 72.3976 67.5056 72.7283 67.2202 72.7053C67.2202 72.7053 66.6287 72.6575 66.4864 72.68C66.4864 72.68 66.1532 72.68 66.4864 72.2559C66.4864 72.2559 66.6048 72.0874 66.5803 71.6621C66.5803 71.6621 66.5803 69.672 66.6287 69.5544C66.6287 69.5544 66.6756 69.292 66.5094 69.2205L66.224 69.2451L65.8701 69.5767C65.8701 69.5767 65.7978 69.9337 65.6317 69.5544V69.3629L65.8464 68.7943L65.9888 68.7696C65.9888 68.7696 66.201 68.9121 66.3902 68.9613H67.5056L67.908 68.7696C67.908 68.7696 68.0733 68.7943 68.028 69.0074C68.028 69.0074 68.0972 69.5544 67.7895 69.6237C67.7895 69.6237 67.5996 69.5544 67.5056 69.292C67.5056 69.292 67.1973 69.1275 67.1725 69.672"></path>
<path fill="black" d="M72.4136 69.0319C72.4136 69.0319 71.5143 68.9603 71.492 69.9319C71.492 69.9319 71.3943 70.5973 72.3913 71.0243C72.3913 71.0243 73.1267 71.3782 73.0774 71.8283C73.0774 71.8283 72.9828 72.6345 72.2005 72.232C72.2005 72.232 71.822 72.0412 71.8473 71.8283C71.8473 71.8283 71.7267 71.5667 71.5851 71.615C71.5851 71.615 71.4182 71.6613 71.492 72.4444C71.492 72.4444 71.492 72.7528 71.8473 72.4444L72.0343 72.4928C72.0343 72.4928 72.6751 73.0143 73.2191 72.3729C73.2191 72.3729 73.8129 71.8283 73.3851 71.1651C73.3851 71.1651 73.0774 70.6928 72.5329 70.4551C72.5329 70.4551 72.0113 70.2159 71.8936 69.8134C71.8936 69.8134 72.0597 69.1011 72.6983 69.4804C72.6983 69.4804 72.9359 69.7651 73.0774 69.8134C73.0774 69.8134 73.2675 69.8134 73.2191 69.3849L73.1743 69.0319C73.1743 69.0319 73.1267 68.768 72.7936 69.0319C72.7936 69.0319 72.4852 69.1488 72.4136 69.0319"></path>
<path fill="black" d="M69.5198 68.5332C69.6852 68.654 69.709 68.8903 69.709 68.8903C70.1829 70.1456 70.5868 71.9725 70.5868 71.9725C70.7044 72.2072 70.9184 72.398 70.9184 72.398C71.3214 72.5395 70.9184 72.6573 70.9184 72.6573C70.7522 72.7296 70.2084 72.6357 70.2084 72.6357C69.9221 72.585 70.0399 72.4926 70.0399 72.4926C70.1598 72.3741 70.0645 71.8986 70.0645 71.8986C70.0399 71.711 69.8284 71.4019 69.8284 71.4019C69.7338 71.354 69.5675 71.5672 69.5675 71.5672C69.5675 71.5672 69.3076 71.6626 69.2822 71.5672C69.2583 71.4709 69.0929 71.3812 69.0929 71.3812C68.8082 71.3812 68.6906 72.0879 68.6906 72.0879C68.856 72.6811 68.6906 72.585 68.6906 72.585C68.5491 72.7766 68.0975 72.6357 68.0975 72.6357C67.8844 72.585 68.0282 72.4196 68.0282 72.4196C68.2874 72.3741 68.3582 72.0879 68.3582 72.0879C68.4775 71.9225 69.2344 68.8418 69.2344 68.8418C69.3076 68.6986 69.3536 68.4148 69.5198 68.5332ZM69.1422 70.0972C69.1175 70.2164 68.9506 70.8802 68.9506 70.8802L69.0929 71.1195C69.0929 71.1195 69.4729 71.1411 69.6144 71.1411C69.7552 71.1411 69.7806 71.0248 69.7806 70.9039C69.7806 70.7865 69.5198 70.0756 69.5198 70.0756L69.3999 69.9332L69.1422 70.0972Z"></path>
<path fill="black" d="M63.101 62.7934C63.101 62.7934 62.8395 63.6248 61.678 62.7695L57.6962 62.674C57.6962 62.674 57.1747 62.8418 57.1031 62.2957C57.1031 62.2957 57.1986 61.2064 57.1493 61.1109C57.1493 61.1109 57.1747 60.8017 56.6524 60.8017C56.6524 60.8017 55.8478 60.8985 55.8246 60.1871C55.8246 60.1871 55.6815 59.4262 56.7954 59.4524C56.7954 59.4524 57.1493 59.6177 57.1747 59.1671C57.1747 59.1671 57.127 56.0861 57.1493 55.8477C57.1493 55.8477 57.2462 55.5662 56.7008 55.5175C56.7008 55.5175 55.9176 55.6822 55.8246 55.1607C55.8246 55.1607 55.7761 54.3799 56.2969 54.3315C56.2969 54.3315 56.9371 54.3799 57.0563 54.216C57.0563 54.216 57.1986 54.3076 57.1747 53.7382L57.1986 52.7675C57.1986 52.7675 57.27 52.5067 57.6708 52.5306C57.6708 52.5306 58.4078 52.5775 58.5031 52.5067C58.5031 52.5067 58.6686 52.2945 58.7139 52.1981C58.7139 52.1981 59.0955 52.1758 59.1662 52.2682C59.1662 52.2682 59.7339 52.6498 61.8932 52.5067C61.8932 52.5067 62.2232 52.5067 62.2948 52.6022C62.2948 52.6022 62.6971 52.9097 62.9341 52.5775C62.9341 52.5775 63.2895 52.5067 64.3571 52.5306C64.3571 52.5306 65.5164 52.8383 66.3235 52.1758L66.5835 52.2244C66.5835 52.2244 66.915 52.7675 67.1542 52.6022C67.1542 52.6022 67.8643 52.5306 67.9834 52.6736C67.9834 52.6736 68.2211 53.0291 68.1003 53.9545C68.1003 53.9545 67.9596 54.3568 68.6466 54.3568C68.6466 54.3568 69.428 54.216 69.3343 54.9476C69.3343 54.9476 69.5481 55.7777 68.2443 55.6599C68.2443 55.6599 68.0773 55.8976 68.1003 56.0631C68.1003 56.0631 68.0773 58.7639 68.0542 59.0739C68.0542 59.0739 68.0312 59.4978 68.5997 59.4762C68.5997 59.4762 69.3582 59.4262 69.3812 60.1164C69.3812 60.1164 69.4758 61.0163 68.3864 60.8494C68.3864 60.8494 68.0542 60.8985 68.0057 61.1109L67.9596 62.2957C67.9596 62.2957 67.9834 62.8887 67.318 62.7472C67.2234 62.7472 63.6227 62.8172 63.3132 62.7242C63.3132 62.7242 63.1479 62.7003 63.101 62.7934Z"></path>
<path stroke-width="0.0133333" stroke="black" d="M63.1016 62.7944C63.1016 62.7944 62.8401 63.6261 61.6786 62.7705L57.6961 62.6752C57.6961 62.6752 57.1745 62.8429 57.103 62.2961C57.103 62.2961 57.1992 61.2068 57.1499 61.1113C57.1499 61.1113 57.1745 60.8029 56.6521 60.8029C56.6521 60.8029 55.8475 60.8998 55.8245 60.1882C55.8245 60.1882 55.6822 59.4266 56.796 59.4527C56.796 59.4527 57.1499 59.6182 57.1745 59.1682C57.1745 59.1682 57.1267 56.0857 57.1499 55.8481C57.1499 55.8481 57.2468 55.5656 56.7007 55.5179C56.7007 55.5179 55.9176 55.6827 55.8245 55.1604C55.8245 55.1604 55.7761 54.3794 56.2976 54.3319C56.2976 54.3319 56.9368 54.3794 57.0569 54.2149C57.0569 54.2149 57.1992 54.308 57.1745 53.7386L57.1992 52.767C57.1992 52.767 57.27 52.5064 57.6714 52.5309C57.6714 52.5309 58.4077 52.5771 58.503 52.5064C58.503 52.5064 58.6693 52.2948 58.7146 52.1985C58.7146 52.1985 59.0953 52.1755 59.1669 52.2685C59.1669 52.2685 59.7338 52.6494 61.8938 52.5064C61.8938 52.5064 62.2238 52.5064 62.2954 52.6017C62.2954 52.6017 62.6978 52.9094 62.9347 52.5771C62.9347 52.5771 63.2908 52.5064 64.3577 52.5309C64.3577 52.5309 65.5179 52.8371 66.3241 52.1755L66.5848 52.2239C66.5848 52.2239 66.9163 52.767 67.1549 52.6017C67.1549 52.6017 67.8649 52.5309 67.9856 52.6724C67.9856 52.6724 68.2217 53.0287 68.1018 53.9532C68.1018 53.9532 67.9602 54.3571 68.6472 54.3571C68.6472 54.3571 69.4302 54.2149 69.3349 54.9473C69.3349 54.9473 69.5487 55.778 68.2456 55.6595C68.2456 55.6595 68.078 55.8972 68.1018 56.0634C68.1018 56.0634 68.078 58.7643 68.0557 59.0736C68.0557 59.0736 68.0318 59.4989 68.6003 59.4774C68.6003 59.4774 69.3588 59.4266 69.3826 60.1174C69.3826 60.1174 69.4764 61.0167 68.3871 60.8497C68.3871 60.8497 68.0557 60.8998 68.0072 61.1113L67.9602 62.2961C67.9602 62.2961 67.9856 62.8899 67.3195 62.7482C67.2249 62.7482 63.6233 62.8176 63.3138 62.7245C63.3138 62.7245 63.1485 62.7014 63.1016 62.7944Z"></path>
<path fill="white" d="M58.6209 53.0292C58.6209 53.0292 58.6686 53.5022 58.6686 53.6207C58.6686 53.7392 58.5963 60.471 58.5963 60.471C58.5963 60.471 58.6686 60.9941 58.2172 61.2534C58.2172 61.2534 58.0994 61.3018 58.0748 60.9702L58.1232 53.8592C58.1232 53.8592 58.1701 52.9814 58.6209 53.0292"></path>
<path stroke-width="0.016" stroke="black" d="M58.6217 53.0284C58.6217 53.0284 58.6693 53.5015 58.6693 53.62C58.6693 53.7384 58.597 60.471 58.597 60.471C58.597 60.471 58.6693 60.9941 58.2172 61.2549C58.2172 61.2549 58.0994 61.3026 58.0748 60.9711L58.1217 53.8592C58.1217 53.8592 58.1694 52.9814 58.6217 53.0284V53.0284Z"></path>
<path fill="white" d="M57.8379 61.3243C57.8379 61.3243 57.8841 54.6402 57.8618 54.5208C57.8379 54.4039 57.8841 54.617 57.8841 54.617C57.8841 54.617 57.8149 53.4569 58.1225 52.9816C58.1225 52.9816 58.0272 52.5784 57.4818 53.0753L57.4602 54.0478C57.4602 54.0478 57.4602 54.5931 56.961 54.5693C56.961 54.5693 56.3918 54.5447 56.1303 54.8071C56.1303 54.8071 55.9886 55.3277 56.5326 55.234C56.5326 55.234 57.3872 55.234 57.4341 55.587L57.3872 59.1672C57.3872 59.1672 57.5771 59.7596 56.9126 59.7596C56.9126 59.7596 56.1071 59.7141 56.1303 60.2119C56.1303 60.2119 56.2963 60.6388 56.9849 60.4958C56.9849 60.4958 57.4818 60.5911 57.4602 61.0627V61.9658C57.4602 61.9658 57.4102 62.322 57.8841 62.3436H61.5826C61.5826 62.3436 61.772 62.3673 61.772 62.1296C61.772 62.1296 61.748 61.9426 61.465 61.9426L58.3849 61.8935C58.3849 61.8935 57.8841 62.0597 57.8379 61.3243Z"></path>
<path fill="white" d="M58.4765 61.3731C58.4765 61.3731 58.3826 61.7063 58.7364 61.6331H61.178L61.8418 61.7748C61.8418 61.7748 62.5311 61.6092 61.8418 61.2292C61.8418 61.2292 59.6611 61.2547 59.471 61.2069C59.471 61.2069 59.0218 61.0886 58.9265 61.0646C58.9265 61.0646 58.6889 60.9708 58.4765 61.3731Z"></path>
<path stroke-width="0.016" stroke="black" d="M58.4765 61.3718C58.4765 61.3718 58.3826 61.7063 58.7364 61.6317H61.1789L61.8436 61.7748C61.8436 61.7748 62.5327 61.6094 61.8436 61.2287C61.8436 61.2287 59.6618 61.254 59.4719 61.2048C59.4719 61.2048 59.0218 61.087 58.9265 61.064C58.9265 61.064 58.6887 60.9694 58.4765 61.3718Z"></path>
<path fill="white" d="M62.5338 61.7056C62.5338 61.7056 62.0823 61.7056 62.106 62.2948C62.106 62.2948 62.1538 62.7478 62.6268 62.7478C62.6268 62.7478 63.0539 62.6741 63.0077 62.2025C63.0077 62.2025 62.746 61.6087 62.5338 61.7056"></path>
<path fill="white" d="M62.8642 61.466C62.8642 61.466 63.0765 61.229 63.2203 61.229C63.2203 61.229 65.5897 61.443 65.9927 61.159C65.9927 61.159 66.3496 61.0882 66.4428 61.159C66.4428 61.159 66.7982 61.443 66.7982 61.6083C66.7982 61.6083 66.775 61.8237 66.3496 61.7052C66.3496 61.7052 63.6688 61.7275 63.528 61.7275C63.528 61.7275 62.7925 61.8929 62.8642 61.466"></path>
<path stroke-width="0.016" stroke="black" d="M62.8642 61.4673C62.8642 61.4673 63.0772 61.2296 63.2203 61.2296C63.2203 61.2296 65.5904 61.4443 65.9934 61.1602C65.9934 61.1602 66.3511 61.0888 66.4442 61.1602C66.4442 61.1602 66.7996 61.4443 66.7996 61.6103C66.7996 61.6103 66.7766 61.8258 66.3511 61.7065C66.3511 61.7065 63.6703 61.7297 63.528 61.7297C63.528 61.7297 62.7925 61.895 62.8642 61.4673V61.4673Z"></path>
<path fill="white" d="M63.2471 62.1781C63.2471 62.1781 63.2471 61.9895 63.5771 61.9895L66.898 61.965C66.898 61.965 67.2049 62.1288 67.2049 61.5618C67.2049 61.5618 67.3265 58.9771 67.3373 56.1324C67.3418 55.2863 67.3788 54.3978 67.3465 53.5745C67.3465 53.5745 67.2758 53.22 67.1812 53.1468C67.1812 53.1468 67.1812 52.7677 67.5857 52.9114C67.5857 52.9114 67.9387 52.9339 67.8448 53.4784L67.868 54.3084C67.868 54.3084 67.7973 54.6639 68.4372 54.5693C68.4372 54.5693 69.0765 54.6639 69.0995 54.9008C69.0995 54.9008 69.2912 55.3762 68.5334 55.3277H67.9888C67.9888 55.3277 67.7511 55.4694 67.8218 55.7548L67.7511 59.1909C67.7511 59.1909 67.7018 59.7833 68.2726 59.7617C68.2726 59.7617 68.865 59.7372 68.9819 59.9264C68.9819 59.9264 69.3865 60.5195 68.5088 60.4719C68.5088 60.4719 67.9633 60.4472 67.8448 60.5418C67.8448 60.5418 67.7511 60.6625 67.6795 61.7751C67.6795 61.7751 67.7264 62.4389 67.2287 62.3673C67.2287 62.3673 63.9339 62.4135 63.6271 62.3434C63.6271 62.3434 63.294 62.4389 63.2471 62.1781"></path>
<path fill="white" d="M58.972 52.8134L58.9028 60.4229C58.9028 60.4229 58.879 60.776 59.4712 60.8475C59.4712 60.8475 60.1598 60.9191 60.3244 60.8475C60.3244 60.8475 60.7736 60.8245 61.9359 60.8722C61.9359 60.8722 62.2206 61.1552 62.2436 60.8015C62.2436 60.8015 62.4337 54.6373 62.3389 53.358C62.3389 53.358 62.3159 52.8134 61.9114 52.7895C61.9114 52.7895 60.1113 52.9312 59.9451 52.7895L59.2351 52.5994C59.2351 52.5994 58.949 52.6219 58.972 52.8134Z"></path>
<path stroke-width="0.016" stroke="black" fill="white" d="M66.4892 53.0989L66.4661 60.5899C66.4661 60.5899 66.6562 61.2555 66.9654 61.1846C66.9654 61.1846 67.0123 61.0415 67.0355 60.803L67.1317 53.6674C67.1317 53.6674 66.8938 52.5295 66.4892 53.0989Z"></path>
<path stroke-width="0.016" stroke="black" d="M66.4892 53.0989L66.4661 60.5899C66.4661 60.5899 66.6562 61.2555 66.9654 61.1846C66.9654 61.1846 67.0123 61.0415 67.0355 60.803L67.1317 53.6674C67.1317 53.6674 66.8938 52.5295 66.4892 53.0989Z"></path>
<path fill="white" d="M62.7261 53.1622C62.7261 53.1622 62.6547 56.7408 62.677 56.8609L62.6322 59.8717L62.5362 60.9117C62.5362 60.9117 62.677 61.128 62.7961 60.9848C62.7961 60.9848 63.5554 60.7962 64.0292 60.8664C64.0292 60.8664 65.547 61.0095 65.854 60.7717C65.854 60.7717 66.0909 60.8894 66.1624 60.5101C66.1624 60.5101 66.2563 53.8745 66.2092 53.7553C66.2092 53.7553 66.3047 52.8083 66.2563 52.7146C66.2563 52.7146 66.2324 52.499 65.8317 52.6875C65.8317 52.6875 65.8777 52.879 63.6269 52.8083C63.6269 52.8083 62.7731 52.7837 62.7261 53.1622"></path>
<path fill="black" d="M61.9947 55.3548L61.7802 55.8071C61.7802 55.8071 61.2608 58.1049 60.977 58.578C60.977 58.578 60.9292 59.0535 60.5262 58.6733C60.5262 58.6733 59.6009 55.7586 59.5538 55.6633L59.2454 55.4501C59.2454 55.4501 59.0585 55.1894 59.3885 55.1662L60.2654 55.1894C60.2654 55.1894 60.5492 55.4255 60.1708 55.6893C60.1708 55.6893 60.2178 56.0679 60.7154 57.5118C60.7154 57.5118 60.8569 58.0572 61.0231 57.654L61.4978 55.9709L61.3554 55.4732C61.3554 55.4732 61.2124 55.2363 61.427 55.2133C61.427 55.2133 61.9248 55.1662 61.9947 55.3548"></path>
<path fill="black" d="M63.3673 55.7347L63.3419 58.2472L63.2727 58.4364C63.2727 58.4364 63.035 58.7434 63.2004 58.768C63.2004 58.768 62.9889 58.911 64.7166 58.934C64.7166 58.934 65.382 59.0518 65.2151 58.1988C65.2151 58.1988 65.1443 57.8909 64.9058 58.3418C64.9058 58.3418 64.8351 58.7194 63.9836 58.6018C63.9836 58.6018 63.7935 58.4364 63.7935 58.2472V57.2033C63.7935 57.2033 63.7682 56.9416 64.1719 56.9686C64.1719 56.9686 64.622 57.2518 64.6936 57.1317C64.6936 57.1317 64.8589 56.754 64.6936 56.5163C64.6936 56.5163 64.4796 56.494 64.4566 56.5886C64.4566 56.5886 64.3143 56.8716 63.9113 56.7055C63.9113 56.7055 63.7221 56.3271 63.8404 56.0185C63.8404 56.0185 63.7935 55.4256 64.1967 55.4739C64.1967 55.4739 64.6704 55.5678 64.7166 55.7117C64.7166 55.7117 64.8351 55.9971 64.9551 55.6648L64.8351 55.2601C64.8351 55.2601 64.7659 55.0938 64.6465 55.1416C64.6465 55.1416 63.8404 55.2601 63.7444 55.1639L63.1042 55.2362C63.1042 55.2362 63.0105 55.4739 63.2959 55.5909C63.2959 55.5909 63.3673 55.6394 63.3673 55.7347Z"></path>
</svg>
