<svg xmlns="http://www.w3.org/2000/svg" fill="none" viewBox="0 0 250 132" height="132" width="250">
<rect fill="white" height="132" width="250"></rect>
<path stroke-width="1.63642" stroke="black" d="M136.234 70.1721C139.551 71.2324 142.547 73.236 142.295 77.1939C142.118 79.9927 140.669 81.8525 137.948 82.7731C130.661 85.2391 124.533 79.3208 121.494 73.3531C121.467 73.3031 121.424 73.2637 121.371 73.2414C121.319 73.219 121.26 73.215 121.206 73.23C121.151 73.245 121.102 73.2781 121.069 73.3239C121.035 73.3698 121.017 73.4257 121.019 73.4826L121.71 84.0801C121.713 84.1266 121.729 84.1714 121.756 84.2092C121.783 84.247 121.821 84.2763 121.864 84.2937C121.907 84.3111 121.954 84.316 122 84.3076C122.046 84.2992 122.089 84.2781 122.123 84.2465C123.75 82.7176 125.988 82.5635 128.01 83.2601C131.629 84.5054 135.334 84.789 139.107 83.9444C144.563 82.7238 148.533 78.8707 148.274 72.9586C148.139 69.7405 146.61 66.7752 143.848 65.2217C142.147 64.2661 140.297 63.366 138.404 62.8173C135.525 61.9851 130.045 60.5117 128.43 58.2738C127.082 56.4038 126.901 54.3735 127.887 52.1829C128.865 50.017 130.906 48.858 134.009 48.7059C139.724 48.4285 143.238 53.083 145.833 57.5217C146.076 57.9368 146.191 57.9039 146.178 57.4231L145.975 47.8243C145.974 47.799 145.966 47.7744 145.951 47.7537C145.937 47.733 145.916 47.7171 145.892 47.7079C145.869 47.6987 145.843 47.6966 145.818 47.702C145.793 47.7074 145.771 47.7199 145.753 47.738C143.996 49.6121 141.949 49.2546 139.779 48.5148C134.379 46.6715 127.258 47.3804 123.418 51.9979C120.366 55.6661 120.594 62.3057 124.768 65.4498C128.017 67.891 132.369 68.9391 136.234 70.1721Z"></path>
<path stroke-width="1.63642" stroke="black" d="M78.3119 83.5318C76.6104 82.2803 75.8151 80.9179 75.8213 78.7232C75.8377 71.7733 75.813 64.2028 75.7473 56.0117C75.7226 52.8984 75.6795 50.1489 78.4229 48.3425C78.7229 48.1453 78.6941 48.0466 78.3365 48.0466H65.3964C64.9032 48.0466 64.8703 48.172 65.2978 48.4227C66.9541 49.3885 67.7946 51.0058 67.8192 53.2745C67.9137 62.4026 67.9096 70.9348 67.8069 78.8711C67.7822 81.0165 66.9479 82.5926 65.3039 83.5996C64.934 83.8256 64.9669 83.9387 65.4026 83.9387H78.1763C78.6366 83.9387 78.6818 83.803 78.3119 83.5318Z"></path>
<path stroke-width="1.63642" stroke="black" d="M97.2298 69.0187C100.049 69.1133 102.881 69.0989 105.725 68.9756C112.155 68.692 118.449 65.3876 118.073 57.9959C117.697 50.7706 110.817 48.1506 104.615 48.0889C98.4628 48.0231 92.3862 48.017 86.3857 48.0704C85.9788 48.0745 85.946 48.1855 86.2871 48.4033C88.451 49.7596 88.7777 51.5289 88.8085 53.9579C88.8784 60.2707 88.8866 67.4405 88.8332 75.4672C88.8085 79.3079 89.1599 81.6629 86.2563 83.6973C86.2327 83.7126 86.2151 83.735 86.2061 83.7612C86.197 83.7875 86.197 83.8162 86.206 83.8431C86.2149 83.87 86.2325 83.8937 86.2559 83.9108C86.2794 83.9278 86.3076 83.9373 86.3364 83.9378H100.047C100.865 83.9378 100.904 83.7652 100.164 83.4199C98.2943 82.5486 97.2586 81.3999 97.0572 79.9737C96.5886 76.5831 96.8599 72.9396 96.8044 69.4379C96.8003 69.1461 96.9421 69.0064 97.2298 69.0187Z"></path>
<path stroke-width="1.63642" stroke="black" d="M169.851 66.7509C167.57 62.8547 164.995 58.6174 162.126 54.0389C160.906 52.097 160.4 50.0502 162.601 48.4597C162.987 48.1843 162.942 48.0466 162.465 48.0466H149.057C148.638 48.0466 148.59 48.1781 148.915 48.4412C150.501 49.7358 151.854 51.2791 152.972 53.071C156.124 58.1057 159.379 63.2739 162.737 68.5757C162.852 68.7566 162.911 68.9559 162.915 69.1737C162.973 72.3219 162.979 75.3099 162.934 78.1375C162.885 81.1583 162.25 81.9905 160.24 83.5934C159.948 83.8236 159.987 83.9387 160.357 83.9387H173.081C173.455 83.9387 173.497 83.8236 173.205 83.5934C171.491 82.2248 170.665 81.3062 170.628 78.9081C170.578 75.6859 170.56 72.4966 170.572 69.3402C170.572 69.0854 170.64 68.8511 170.776 68.6374C174.01 63.4178 177.302 58.1899 180.652 52.9539C181.716 51.2894 183.069 49.8242 184.708 48.5583C185.148 48.2213 185.091 48.0528 184.536 48.0528L177.107 48.0466C176.659 48.0466 176.62 48.1761 176.99 48.435C180.504 50.8702 178.334 53.8601 176.676 56.4371C174.395 59.9798 172.233 63.4178 170.19 66.7509C170.173 66.7803 170.148 66.8046 170.118 66.8215C170.088 66.8384 170.055 66.8473 170.021 66.8473C169.986 66.8473 169.953 66.8384 169.923 66.8215C169.893 66.8046 169.868 66.7803 169.851 66.7509Z"></path>
<path stroke-width="1.63642" stroke="black" d="M96.7848 49.5566L96.8465 67.6074C96.8465 67.6466 96.8621 67.6843 96.8898 67.712C96.9175 67.7398 96.9552 67.7554 96.9944 67.7554L102.105 67.7369C103.175 67.7337 104.234 67.517 105.221 67.0991C106.209 66.6812 107.105 66.0703 107.859 65.3014C108.613 64.5325 109.21 63.6207 109.616 62.6179C110.022 61.6151 110.228 60.5412 110.224 59.4574L110.212 57.6079C110.204 55.4214 109.339 53.3276 107.807 51.7866C106.275 50.2457 104.202 49.3837 102.043 49.3901L96.9328 49.4086C96.8935 49.4086 96.8559 49.4242 96.8281 49.452C96.8004 49.4797 96.7848 49.5174 96.7848 49.5566Z"></path>
<path fill="black" d="M136.234 70.1717C132.369 68.9387 128.017 67.8907 124.768 65.4494C120.594 62.3053 120.366 55.6657 123.418 51.9976C127.258 47.3801 134.379 46.6711 139.779 48.5144C141.949 49.2542 143.996 49.6118 145.753 47.7376C145.771 47.7195 145.793 47.707 145.818 47.7016C145.843 47.6963 145.869 47.6983 145.892 47.7075C145.916 47.7167 145.937 47.7326 145.951 47.7533C145.966 47.774 145.974 47.7986 145.975 47.8239L146.178 57.4227C146.191 57.9036 146.076 57.9364 145.833 57.5213C143.238 53.0826 139.724 48.4281 134.009 48.7055C130.906 48.8576 128.865 50.0166 127.887 52.1825C126.901 54.3731 127.082 56.4034 128.43 58.2734C130.045 60.5113 135.525 61.9847 138.404 62.817C140.297 63.3657 142.147 64.2657 143.848 65.2213C146.61 66.7748 148.139 69.7402 148.274 72.9582C148.533 78.8704 144.563 82.7234 139.107 83.9441C135.334 84.7887 131.629 84.5051 128.01 83.2598C125.988 82.5631 123.75 82.7173 122.123 84.2462C122.089 84.2777 122.046 84.2989 122 84.3072C121.954 84.3156 121.907 84.3108 121.864 84.2934C121.821 84.2759 121.783 84.2466 121.756 84.2088C121.729 84.171 121.713 84.1262 121.71 84.0797L121.019 73.4822C121.017 73.4253 121.035 73.3694 121.069 73.3236C121.102 73.2777 121.151 73.2446 121.206 73.2296C121.26 73.2146 121.319 73.2186 121.371 73.241C121.424 73.2633 121.467 73.3027 121.494 73.3528C124.533 79.3204 130.661 85.2387 137.948 82.7727C140.669 81.8521 142.118 79.9924 142.295 77.1935C142.547 73.2356 139.551 71.2321 136.234 70.1717Z"></path>
<path fill="black" d="M75.8213 78.7228C75.8151 80.9175 76.6104 82.2799 78.3119 83.5314C78.6818 83.8027 78.6366 83.9383 78.1763 83.9383H65.4026C64.9669 83.9383 64.934 83.8253 65.3039 83.5992C66.9479 82.5923 67.7822 81.0161 67.8069 78.8707C67.9096 70.9345 67.9137 62.4023 67.8192 53.2741C67.7946 51.0054 66.9541 49.3882 65.2978 48.4223C64.8703 48.1716 64.9032 48.0463 65.3964 48.0463H78.3365C78.6941 48.0463 78.7229 48.1449 78.4229 48.3422C75.6795 50.1485 75.7226 52.898 75.7473 56.0113C75.813 64.2024 75.8377 71.7729 75.8213 78.7228Z"></path>
<path fill="black" d="M96.8044 69.4372C96.8599 72.9388 96.5886 76.5823 97.0572 79.973C97.2586 81.3991 98.2943 82.5478 100.164 83.4192C100.904 83.7644 100.865 83.937 100.047 83.937H86.3364C86.3076 83.9365 86.2794 83.9271 86.2559 83.91C86.2325 83.893 86.2149 83.8692 86.206 83.8423C86.197 83.8154 86.197 83.7867 86.2061 83.7605C86.2151 83.7342 86.2327 83.7118 86.2563 83.6966C89.1599 81.6622 88.8085 79.3072 88.8332 75.4664C88.8866 67.4397 88.8784 60.27 88.8085 53.9571C88.7777 51.5282 88.451 49.7588 86.2871 48.4026C85.946 48.1847 85.9788 48.0738 86.3857 48.0696C92.3862 48.0162 98.4628 48.0224 104.615 48.0881C110.817 48.1498 117.697 50.7699 118.073 57.9951C118.449 65.3868 112.155 68.6912 105.725 68.9748C102.881 69.0981 100.049 69.1125 97.2298 69.018C96.9421 69.0056 96.8003 69.1454 96.8044 69.4372ZM96.7859 49.5554L96.8476 67.6062C96.8476 67.6454 96.8632 67.6831 96.8909 67.7108C96.9187 67.7386 96.9563 67.7542 96.9955 67.7542L102.106 67.7357C103.176 67.7325 104.235 67.5158 105.222 67.0979C106.21 66.68 107.106 66.0691 107.86 65.3002C108.614 64.5313 109.211 63.6194 109.617 62.6167C110.023 61.6139 110.23 60.54 110.225 59.4562L110.213 57.6067C110.205 55.4202 109.34 53.3264 107.808 51.7854C106.276 50.2445 104.203 49.3825 102.045 49.3889L96.9339 49.4074C96.8946 49.4074 96.857 49.423 96.8293 49.4508C96.8015 49.4785 96.7859 49.5161 96.7859 49.5554Z"></path>
<path fill="black" d="M169.851 66.7506C169.868 66.7799 169.893 66.8043 169.923 66.8212C169.953 66.8381 169.986 66.847 170.021 66.847C170.055 66.847 170.088 66.8381 170.118 66.8212C170.148 66.8043 170.173 66.7799 170.19 66.7506C172.233 63.4174 174.395 59.9794 176.676 56.4367C178.334 53.8598 180.504 50.8698 176.99 48.4347C176.62 48.1757 176.659 48.0463 177.107 48.0463L184.536 48.0524C185.091 48.0524 185.148 48.2209 184.708 48.558C183.069 49.8238 181.716 51.289 180.652 52.9535C177.302 58.1896 174.01 63.4174 170.776 68.637C170.64 68.8507 170.572 69.085 170.572 69.3398C170.56 72.4962 170.578 75.6855 170.628 78.9077C170.665 81.3059 171.491 82.2244 173.205 83.5931C173.497 83.8232 173.455 83.9383 173.081 83.9383H160.357C159.987 83.9383 159.948 83.8232 160.24 83.5931C162.25 81.9902 162.885 81.1579 162.934 78.1371C162.979 75.3095 162.973 72.3216 162.915 69.1734C162.911 68.9555 162.852 68.7562 162.737 68.5754C159.379 63.2736 156.124 58.1053 152.972 53.0707C151.854 51.2787 150.501 49.7354 148.915 48.4408C148.59 48.1778 148.638 48.0463 149.057 48.0463H162.465C162.942 48.0463 162.987 48.1839 162.601 48.4593C160.4 50.0499 160.906 52.0966 162.126 54.0385C164.995 58.617 167.57 62.8543 169.851 66.7506Z"></path>
<path fill="white" d="M96.7882 49.5562C96.7882 49.517 96.8037 49.4794 96.8315 49.4516C96.8592 49.4239 96.8969 49.4083 96.9361 49.4083L102.047 49.3898C104.206 49.3833 106.279 50.2453 107.81 51.7863C109.342 53.3272 110.207 55.421 110.215 57.6076L110.228 59.457C110.232 60.5408 110.025 61.6148 109.619 62.6175C109.213 63.6203 108.616 64.5322 107.862 65.3011C107.108 66.07 106.212 66.6808 105.225 67.0987C104.237 67.5166 103.178 67.7333 102.108 67.7365L96.9978 67.755C96.9585 67.755 96.9209 67.7394 96.8931 67.7117C96.8654 67.6839 96.8498 67.6463 96.8498 67.607L96.7882 49.5562Z"></path>
</svg>
