<svg xmlns="http://www.w3.org/2000/svg" fill="none" viewBox="0 0 250 132" height="132" width="250">
<rect fill="white" height="132" width="250"></rect>
<path fill="black" d="M73.9326 43.8013C76.6698 43.8167 79.4087 43.8013 82.1457 43.8111C82.9446 43.8474 83.7796 44.171 84.0708 44.9793C84.0689 45.2224 84.061 45.4658 84.0478 45.709C81.8565 55.9523 79.6865 66.2033 77.4952 76.4504C77.2061 77.7989 76.9417 79.151 76.6352 80.4974C80.332 80.6085 84.0343 80.5069 87.7348 80.5474C88.0317 79.4516 88.1983 78.3272 88.4932 77.2319C90.8435 77.2412 93.1957 77.184 95.5458 77.2662C96.1374 77.2395 96.624 77.6303 96.8922 78.1264C96.8867 78.6014 96.9248 79.0801 96.8443 79.5493C96.3138 82.1331 95.7488 84.7111 95.2124 87.2932C94.9712 88.5305 93.7395 89.4882 92.4791 89.3694C84.3697 89.3542 76.2578 89.3618 68.1462 89.3653C66.9263 89.3464 65.6256 88.7565 65.1698 87.5516C64.6891 85.9219 65.3557 84.2785 65.6372 82.6753C68.1214 70.9188 70.6268 59.1682 73.1148 47.4117C73.3849 46.207 73.5744 44.9832 73.9326 43.8013Z"></path>
<path fill="black" d="M100.727 54.7627C104.412 54.755 108.133 54.7609 111.818 54.7587C112.318 54.7511 112.812 54.8259 113.308 54.8871C113.973 55.1763 114.285 55.841 114.251 56.5459C112.54 64.707 110.782 72.857 109.085 81.0202C108.602 83.1845 108.189 85.3643 107.665 87.519C107.474 88.469 106.635 89.1737 105.716 89.3577C103.413 89.371 101.111 89.3501 98.8089 89.3673C98.2171 89.4151 97.5755 89.1221 97.3073 88.5741C96.9989 87.6608 97.3724 86.724 97.5274 85.8199C98.604 80.7118 99.7074 75.6113 100.774 70.5011C101.117 68.9038 101.468 67.3082 101.808 65.7109C101.947 65.0367 102.048 64.3509 102.264 63.6941C101.374 63.6921 100.404 63.8281 99.623 63.2956C99.1421 62.8759 99.1078 62.1714 99.2265 61.5872C99.6631 59.4821 100.104 57.5373 100.575 55.2799C100.613 55.0996 100.658 54.9312 100.727 54.7627Z"></path>
<path fill="black" d="M106.718 42.6293C109.505 42.6254 112.29 42.6313 115.077 42.6234C115.462 42.6102 115.828 42.7442 116.197 42.8361C116.989 43.3705 116.883 44.376 116.736 45.1977C116.387 46.6726 116.119 48.1646 115.765 49.6375C115.575 50.442 114.954 51.0473 114.242 51.417C112.436 51.7846 110.585 51.5605 108.756 51.6219C107.598 51.6027 106.178 51.8018 105.335 50.8137C105.138 50.582 105.119 50.2148 105.18 49.9171C105.684 47.463 106.195 45.0561 106.718 42.6293Z"></path>
<path fill="black" d="M135.135 68.8003C134.322 72.7191 133.46 76.6282 132.652 80.5472C130.882 80.5396 129.112 80.5414 127.343 80.5472C126.437 80.5587 125.531 80.3458 124.722 79.9419C123.261 79.03 122.92 77.1856 123.088 75.5922C123.11 74.0176 123.596 72.5066 123.901 70.9744C124.305 69.011 124.768 67.0016 125.862 65.2895C126.713 63.9066 128.204 62.9279 129.821 62.74C130.681 62.6885 131.543 62.7135 132.403 62.7652C132.604 62.8455 132.811 62.9144 133.02 62.9758C133.976 63.3549 134.803 64.1518 135.056 65.169C135.387 66.3487 135.244 67.5975 135.135 68.8003ZM150.846 44.6977C150.93 44.3146 150.952 43.8951 150.746 43.5445C150.513 42.8187 149.645 42.6961 148.992 42.6386C146.303 42.6156 140.771 42.6213 140.572 42.6213C140.521 43.4699 139 50.7327 138.425 53.3588C138.312 53.7553 138.253 54.2609 137.843 54.4678C137.096 54.7072 136.358 54.3279 135.682 54.0465C134.876 53.6728 133.97 53.6728 133.104 53.581C130.727 53.6596 128.339 53.9506 126.083 54.736C123.878 55.5424 121.811 56.7317 120.055 58.2927C117.553 60.4839 115.749 63.3799 114.548 66.4618C113.778 68.5915 113.372 70.8248 112.91 73.035C112.332 75.7969 112.274 78.6818 113.012 81.4207C113.529 83.1502 114.45 84.7475 115.697 86.0538C117.697 87.9232 120.367 88.9976 123.077 89.2333C124.035 89.4632 125.023 89.331 125.996 89.3617C131.972 89.3617 137.95 89.3617 143.928 89.3617C144.928 89.3617 145.564 88.3866 145.778 87.454C146.165 85.8489 146.484 84.3217 146.83 82.6158C146.931 82.1166 146.956 81.6244 146.675 81.164C146.445 80.8263 146.205 80.5644 145.728 80.5644C144.872 80.5644 144.045 80.5546 143.204 80.5375C143.819 77.7087 144.435 74.8778 145.023 72.0412C146.968 62.9279 148.919 53.8146 150.846 44.6977Z"></path>
<path fill="black" d="M159.808 54.9309C164.152 53.4811 168.789 53.5385 173.315 53.5883C174.467 53.7032 175.631 53.5807 176.778 53.7473C177.238 53.8182 177.6 54.1954 177.82 54.5842C177.993 55.0727 177.927 55.6167 177.807 56.1108C177.452 57.5876 177.194 59.0873 176.816 60.5582C176.798 60.6541 176.761 60.8435 176.742 60.9394C176.315 61.8033 175.48 62.5541 174.47 62.5446C171.72 62.5465 168.969 62.5369 166.223 62.6116C164.922 62.7455 163.562 62.6825 162.363 63.2877C161.524 63.7665 161.057 64.7798 161.274 65.7278C161.434 66.2929 162.017 66.4882 162.49 66.72C163.723 67.0054 164.98 67.1775 166.246 67.1605C167.244 67.4134 168.282 67.2484 169.281 67.4726C170.557 67.6374 171.806 67.9478 173.032 68.3328C173.352 68.4648 173.677 68.5892 174.001 68.7197C174.518 68.98 175.035 69.2463 175.52 69.5681C176.717 70.4107 177.772 71.5447 178.261 72.9485C179.054 75.2643 178.686 77.7888 177.973 80.0756C177.88 80.3975 177.776 80.7174 177.676 81.0371C176.87 82.803 175.911 84.5729 174.371 85.8083C173.308 86.7507 172.049 87.4382 170.743 87.9785C168.372 88.848 165.861 89.2139 163.357 89.367C158.5 89.3517 153.642 89.3631 148.783 89.3631C147.975 89.3631 147.821 89.2336 147.475 88.7465C147.294 88.4914 147.087 88.308 147.295 87.4363C148.267 83.3653 148.711 80.7383 149.408 77.4861C149.475 77.1714 149.84 77.1281 150.122 77.1281C152.043 77.1281 153.968 77.1413 155.891 77.1413C156.711 77.1413 156.977 77.2197 157.163 77.304C157.507 77.4601 157.795 77.7599 157.912 78.1392C158.174 78.9285 157.776 79.7252 157.761 80.5201C160.258 80.5106 162.761 80.6119 165.253 80.3727C166.422 80.3955 167.644 79.8574 168.13 78.7347C168.146 78.281 168.148 77.829 168.138 77.3751C167.678 76.5361 166.767 76.1607 165.934 75.8064C164.07 75.3966 162.147 75.427 160.274 75.0554C158.95 74.839 157.642 74.5173 156.366 74.1016C154.589 73.462 152.761 72.5387 151.718 70.8971C150.965 69.8017 150.699 68.4341 150.706 67.1279C150.867 65.6606 151.235 64.2223 151.714 62.8278C152.784 59.8994 154.866 57.2984 157.68 55.8868C157.774 55.8388 157.962 55.745 158.054 55.6972C158.63 55.4212 159.214 55.1684 159.808 54.9309Z"></path>
<path fill="black" d="M184.296 53.3631C184.21 54.1215 184.138 54.9162 183.602 55.4852C182.831 56.3883 181.41 56.7134 180.358 56.128C179.839 55.8383 179.56 55.2286 179.619 54.6194C179.684 53.9502 179.872 53.1217 180.127 52.7758C180.587 52.1523 181.147 51.8211 182.004 51.6933C182.898 51.5601 184.431 52.1806 184.296 53.3631ZM182.018 50.9959C180.907 51.1615 180.181 51.5908 179.585 52.3988C179.255 52.8471 179.01 53.9209 178.926 54.7881C178.85 55.578 179.212 56.3682 179.884 56.7438C181.248 57.5022 183.09 57.0809 184.088 55.9104C184.784 55.1731 184.876 54.143 184.989 53.1602C185.164 51.6273 183.176 50.823 182.018 50.9959Z"></path>
<path fill="black" d="M181.578 53.8169C181.776 53.8169 181.875 53.8169 182.074 53.8169C182.17 53.8196 182.265 53.801 182.356 53.7669C182.449 53.7315 182.51 53.6504 182.528 53.5252C182.542 53.4319 182.519 53.3559 182.463 53.3102C182.402 53.2606 182.277 53.2364 182.099 53.2364C181.922 53.2364 181.834 53.2366 181.656 53.2366C181.624 53.4686 181.608 53.5844 181.578 53.8169ZM180.885 52.542C181.566 52.542 181.907 52.542 182.588 52.542C182.85 52.542 183.065 52.6114 183.23 52.7498C183.395 52.8883 183.467 53.101 183.434 53.376C183.415 53.529 183.361 53.6807 183.272 53.8128C183.184 53.9448 182.892 54.1063 182.892 54.1063C182.892 54.1266 183.232 54.4675 183.228 54.8397C183.228 54.8737 183.226 54.9214 183.222 54.9753C183.218 55.0288 183.215 55.0911 183.21 55.1536C183.2 55.2849 183.213 55.3952 183.24 55.4757C182.89 55.4757 182.714 55.4757 182.364 55.4757C182.344 55.3241 182.339 55.1706 182.352 55.0169C182.357 54.944 182.359 54.8712 182.355 54.7999C182.352 54.7345 182.34 54.6731 182.32 54.6182C182.3 54.5641 182.266 54.519 182.216 54.4876C182.166 54.4565 182.093 54.4411 182 54.4411C181.8 54.4411 181.699 54.4411 181.499 54.4411C181.448 54.8514 181.425 55.0575 181.376 55.4757C181.026 55.4757 180.852 55.4757 180.502 55.4757C180.63 54.2794 180.678 53.7114 180.885 52.542Z"></path>
</svg>
