<svg xmlns="http://www.w3.org/2000/svg" fill="none" viewBox="0 0 250 132" height="132" width="250">
<rect fill="white" height="132" width="250"></rect>
<g clip-path="url(#clip0_846_308)">
<path fill="black" d="M62.0766 54C69.1352 54 74.5094 59.1771 74.5094 65.9743C74.5094 72.6762 69.1672 77.9486 62.2707 77.9486C55.1151 77.9486 50 72.4533 50 66.0695C50 59.2724 55.3742 54 62.0766 54ZM83.9305 54.5714V75.1533H92.8664V77.3771H81.599V54.5714H83.9305ZM108.504 54.5714L119.35 77.3771H116.858L113.199 69.881H103.162L99.5359 77.3771H96.9453L107.954 54.5714H108.504ZM130.747 54.5714C133.175 54.5714 134.988 54.7305 136.121 55.1438C138.484 56.0324 139.942 58.0657 139.942 60.6381C139.942 62.7981 138.906 64.6086 137.254 65.6248C135.675 66.5971 133.414 66.7552 130.416 66.7676L127.703 66.7686V77.3771H125.373V54.5714H130.747ZM149.331 54.5714V75.1533H158.267V77.3771H146.999V54.5714H149.331ZM177.693 54.5714V56.7952H166.75V63.9419H177.693V66.1648H166.75V75.1533H177.693V77.3771H164.418V54.5714H177.693ZM185.69 54.5714L191.258 63.4648L196.859 54.5714H199.547L192.618 65.6248L200 77.3771H197.28L191.258 67.8162L185.172 77.3771H182.452L189.866 65.6248L182.97 54.5714H185.69ZM62.2057 56.2238C57.0906 56.2238 52.4285 60.2257 52.4285 66.0695C52.4285 71.6914 56.9615 75.7248 62.2057 75.7248C67.6459 75.7248 72.0809 71.66 72.0809 65.9429C72.0809 60.1619 67.3538 56.2238 62.2057 56.2238ZM108.213 59.4L104.198 67.6581H112.163L108.213 59.4ZM131.815 56.7952H127.703V64.5448C129.03 64.5762 130.358 64.5448 131.556 64.5448C133.563 64.5448 135.118 64.4181 136.154 63.5924C136.963 62.9571 137.513 61.7819 137.513 60.6381C137.513 59.4629 136.93 58.32 136.057 57.6524C135.021 56.8905 133.628 56.7952 131.815 56.7952Z" clip-rule="evenodd" fill-rule="evenodd"></path>
</g>
<defs>
<clipPath id="clip0_846_308">
<rect transform="translate(50 54)" fill="white" height="24" width="150"></rect>
</clipPath>
</defs>
</svg>
