<svg xmlns="http://www.w3.org/2000/svg" fill="none" viewBox="0 0 250 132" height="132" width="250">
<rect fill="white" height="132" width="250"></rect>
<path fill="black" d="M196.444 49.7706C194.648 48.8621 191.852 47.8116 188.516 47.8116C187.401 47.8116 186.28 47.9323 185.194 48.1665C184.37 48.3155 183.37 48.642 182.348 49.1744C182.333 49.1815 182.021 49.3518 182.007 49.3589C181.985 48.8124 181.964 48.3794 181.964 48.3439L181.765 46.1294L179.863 46.4985C177.819 46.9244 174.235 47.1515 169.5 47.1515C165.405 47.1515 161.87 46.9811 161.835 46.9811L159.868 46.8889L159.797 48.1736C158.264 48.2233 157.136 48.202 156.014 48.202C154.63 48.202 153.033 48.1026 153.033 48.1026L153.487 50.6437C153.502 50.7217 154.836 58.3591 154.786 66.6849V66.7204V66.7559C154.857 69.2686 154.268 76.6149 150.733 77.4028L150.698 77.4098C150.698 77.4098 150.542 77.4453 150.293 77.4453C149.151 77.4453 145.382 76.622 144.892 65.9822C144.785 63.1573 144.693 55.0656 145.58 51.6019L146.177 49.2809L143.785 49.1318C143.685 49.1247 141.364 48.9827 139.618 48.9827C139.107 48.9827 138.702 48.9969 138.369 49.0182H138.333L138.511 47.8045L136.161 47.8542C133.741 47.9039 131.051 48.0174 130.355 48.0742C129.582 48.131 128.261 48.2233 128.261 48.2233L128.574 50.303C128.581 50.3526 128.844 52.1413 129.106 54.9308C129.397 58.0965 129.695 62.5468 129.66 67.1818C127.466 62.1423 124.798 55.2786 123.662 49.5648L123.336 47.9252L121.668 47.9606C121.469 47.9677 116.784 48.0742 115.613 48.1381L113.654 48.2375L113.725 50.1965C113.732 50.3526 114.201 63.0366 113.647 74.301C112.085 68.1684 110.233 59.4025 109.48 49.9055L109.353 48.3155L107.777 48.0955C107.678 48.0813 105.314 47.7548 102.546 47.7548C101.226 47.7548 100.026 47.8258 98.9684 47.9748L97.5205 48.1807L97.2862 49.6216C97.2578 49.8061 94.8517 64.2858 91.6789 75.4579L90.1386 75.6283C90.1031 75.6354 86.3271 76.04 82.9343 76.04C82.0258 76.04 81.3088 76.0116 80.7339 75.969C80.6842 74.7978 80.67 73.3073 80.7978 72.0296C81.7631 71.9799 83.1188 71.9232 84.652 71.9232C86.6678 71.9232 88.5345 72.0083 90.2096 72.1858L91.9628 72.3703L92.3532 70.6526C92.3745 70.5462 92.9423 67.998 92.6797 65.2937L92.4951 63.4057L90.6 63.498C90.5645 63.498 86.7033 63.6896 82.8846 63.6896C82.2742 63.6896 81.6921 63.6825 81.1527 63.6754C81.2521 61.397 81.4295 58.2384 81.7063 56.2155C83.0478 56.0948 85.163 55.9529 87.3705 55.9529C89.1591 55.9529 90.7136 56.0523 91.9699 56.2368L94.1277 56.5562L94.2412 54.3772C94.3051 53.1492 94.4826 51.1831 94.7097 49.9481C94.9368 48.713 95.3201 47.3928 95.3201 47.3928L92.6939 47.4993C92.5732 47.5064 80.23 48.0174 75.1905 47.9606L73.1179 47.9394L73.1818 50.0048C73.1818 50.0332 73.2244 51.3534 73.2385 53.5751C72.3442 52.0987 71.0595 50.6507 69.2069 49.6357C68.5113 49.1815 65.4876 47.4496 59.6957 47.4496C57.2044 47.4496 54.5072 47.7761 51.6822 48.422L50 48.8053L50.1491 50.523C50.1704 50.7501 52.0868 73.286 51.3557 83.1166L51.1783 85.5157L53.5632 85.2317C58.5104 84.6 60.7036 84.9478 60.7036 84.9478L60.441 82.6765C60.1713 80.4477 59.93 77.8641 59.8448 76.1535C66.5452 76.1535 69.8174 73.7402 71.1943 72.2497C71.4499 72.0083 72.0816 71.3553 72.7772 70.2765C72.621 72.5052 72.3868 75.4224 72.1455 77.7009C71.9467 79.525 71.677 81.7609 71.5847 82.5771C71.4854 83.3792 71.3363 84.6923 71.3363 84.6923L73.6857 84.6639C73.7354 84.6639 79.0659 84.5858 83.8996 84.5858C85.7309 84.5858 87.2569 84.6 88.4635 84.6142L87.9383 85.8705H98.9046C98.9046 85.8705 98.9613 82.0448 99.4795 79.2411C100.573 79.1772 102.17 79.0992 103.745 79.0992C104.462 79.0992 105.108 79.1133 105.683 79.1488C105.889 80.4123 106.166 82.279 106.258 83.8973L106.372 85.828L108.302 85.757C108.331 85.757 110.893 85.6931 112.717 85.6789C114.47 85.6647 117.104 85.7996 117.104 85.7996L116.6 84.309C118.019 84.3019 118.85 84.2664 119.559 84.2522C120.269 84.2451 122.47 84.238 122.47 84.238L122.335 82.1229C122.115 79.3121 121.753 73.6692 121.604 68.6226C123.896 74.1164 126.657 80.7955 127.857 83.9541L128.361 85.2814L129.78 85.2317C129.802 85.2317 132.023 85.1537 133.684 85.1537C134.635 85.1537 137.553 85.1892 137.553 85.1892L137.467 83.1875C137.467 83.0811 137.318 78.4248 137.283 72.4484L137.311 72.6401C137.467 73.8609 137.837 76.7284 139.469 79.4611C141.527 82.9107 144.949 85.0259 149.356 85.5653C149.541 85.5937 149.953 85.6434 150.535 85.6434C153.125 85.6434 161.65 84.5716 162.58 70.7804C162.601 70.3829 163.027 62.8308 162.793 55.4915C163.836 55.2857 165.256 55.165 166.917 55.1437C167.137 63.0934 165.745 81.2285 165.724 81.4273L165.54 83.798L167.903 83.5495C169.692 83.365 173.056 83.294 173.092 83.294L175.243 83.2514L175.051 81.3279C176.052 82.5061 179.21 85.395 186.159 85.395C186.982 85.395 187.848 85.3524 188.729 85.2672C196.373 84.5432 199.347 78.3184 199.851 75.1527C199.865 75.0746 201.008 68.9988 196.522 65.528C195.337 64.6052 194.35 64.0871 191.717 63.4696C189.46 62.9372 187.082 62.2274 185.847 61.4467C185.4 61.1627 185.009 60.8079 184.782 60.2116C184.527 59.5444 184.519 58.6856 184.81 57.9971C185.038 57.4647 185.506 57.0105 186.216 56.6485C186.514 56.4923 187.536 56.1729 188.558 56.2865C189.964 56.4426 192.065 57.1737 194.009 58.7282C195.088 59.5941 196.054 60.6162 196.054 60.6162L198.509 55.0089L200 51.6232L196.444 49.7706ZM101.084 71.0004C101.609 68.2607 102.312 65.3434 102.986 62.7882C103.582 65.8687 104.122 69.0556 104.455 71.0998C103.376 71.0856 102.127 71.043 101.084 71.0004ZM66.2329 65.0311L66.2116 65.0737C65.5941 66.2519 64.0184 67.6573 60.0152 67.6573C59.7809 67.6573 59.5538 67.6502 59.3479 67.6431C59.0853 63.8316 59.1705 58.5791 59.2273 56.0736C59.9513 55.9174 60.6469 55.8322 61.3141 55.8322C62.1871 55.8322 62.9324 55.9458 63.5215 56.1516C65.3102 56.7904 66.0696 58.1603 66.2755 58.6146C67.8015 61.9932 66.3039 64.9033 66.2329 65.0311ZM174.838 78.3823C174.192 68.8143 175.037 58.6643 175.427 54.8314C175.463 54.8314 175.491 54.8314 175.526 54.8314C176.066 54.8314 176.648 54.8527 177.209 54.8811C176.669 56.3007 176.364 57.9829 176.435 59.949C176.435 60.4175 176.492 62.2487 177.528 64.3213C178.387 66.039 180.069 68.1968 183.334 69.5667C184.463 70.0422 186.691 70.5817 187.366 70.7733C188.707 71.1424 189.885 71.6251 190.624 72.129C191.184 72.5123 191.497 72.9595 191.596 73.286C191.724 73.7047 191.71 74.2158 191.49 74.6701C191.199 75.2876 190.432 75.898 189.296 76.2529C188.913 76.3735 187.579 76.8065 185.861 76.4019C184.434 76.0683 182.553 75.5715 180.594 73.9035C179.288 72.7962 177.847 71.2347 177.847 71.2347L176.712 73.9319C176.705 73.939 175.498 76.8065 174.838 78.3823Z"></path>
<path fill="white" d="M73.2799 59.9274C73.2303 59.0899 72.5631 53.6671 68.1978 51.3248C68.1978 51.3248 63.2932 47.8042 52.1495 50.3453C52.1495 50.3453 54.1085 73.1508 53.3561 83.2582C53.3561 83.2582 57.2813 82.7969 58.495 82.9104C58.495 82.9104 57.9698 78.5736 57.8775 75.8622C57.8491 75.0885 57.8491 74.5562 57.8491 74.0735C57.8491 74.0735 58.715 74.1658 59.9217 74.1587C62.5763 74.1516 67.2254 73.6974 69.8091 70.8369C69.8162 70.8369 73.7413 67.4299 73.2799 59.9274ZM67.9707 65.989C65.4297 70.8369 57.5226 69.4528 57.5226 69.4528C56.9477 64.3139 57.2955 54.5543 57.2955 54.5543C60.9935 53.3122 63.6268 53.9794 65.2593 54.746C65.5503 54.8808 66.8776 55.6474 67.6442 56.9108C70.4621 61.5954 67.9707 65.989 67.9707 65.989Z"></path>
<path fill="white" d="M75.1891 49.9335C75.1891 49.9335 75.4163 57.2656 75.0188 67.0252C75.0188 67.0252 74.6142 73.6121 74.1528 77.9347C74.1528 77.9347 73.7695 81.6611 73.6915 82.669C73.6915 82.669 85.7011 82.4987 90.258 82.669C90.258 82.669 90.3148 78.5096 90.3715 77.5869C90.3715 77.5869 82.4006 78.4529 78.88 77.7005C78.88 77.7005 78.4187 72.9094 79.1143 70.1341C79.1143 70.1341 84.8849 69.616 90.4283 70.1909C90.4283 70.1909 90.9465 67.877 90.7193 65.4566C90.7193 65.4566 83.7918 65.8044 79.1143 65.5702C79.1143 65.5702 79.3414 57.0811 80.037 54.3697C80.037 54.3697 87.2556 53.5037 92.2738 54.2561C92.2738 54.2561 92.4512 50.9059 92.7919 49.465C92.799 49.4792 80.3209 49.9974 75.1891 49.9335Z"></path>
<path fill="white" d="M107.512 50.0544C107.512 50.0544 102.955 49.4227 99.2571 49.9408C99.2571 49.9408 95.4455 73.0942 90.9454 83.8901H96.9502V83.7765C96.9502 83.7765 97.4116 78.5809 97.9298 77.3671C97.9298 77.3671 104.048 76.849 107.398 77.3103C107.398 77.3103 108.094 80.8877 108.264 83.7765C108.264 83.7765 113.112 83.6062 114.326 83.7197C114.326 83.7126 108.96 68.296 107.512 50.0544ZM98.7389 72.8599C99.9526 65.1232 103.182 54.8455 103.182 54.8455C104.68 59.5798 106.76 72.9735 106.76 72.9735C105.092 73.2645 98.7389 72.8599 98.7389 72.8599Z"></path>
<path fill="white" d="M115.719 50.1107C115.719 50.1107 116.471 69.9139 115.023 82.321C115.023 82.321 119.644 82.321 120.389 82.2642C120.389 82.2642 119.005 64.2497 119.871 59.2883C119.871 59.2883 127.494 77.3028 129.744 83.2437C129.744 83.2437 132.292 83.1727 134.024 83.194C134.677 83.2011 134.989 83.2082 135.536 83.194C135.536 83.194 134.762 59.5722 136.21 49.8197C136.21 49.8197 131.015 49.9333 130.553 49.99C130.553 49.99 132.512 63.7884 131.185 75.1663C131.185 75.1663 123.853 60.7292 121.716 49.9333C121.716 49.9404 116.868 50.0539 115.719 50.1107Z"></path>
<path fill="white" d="M138.524 50.9769C138.524 50.9769 138.091 63.5615 139.276 72.1074C139.532 73.96 140.213 82.4561 149.668 83.5989C150.619 83.7551 159.704 84.5074 160.634 70.6665C160.634 70.6665 161.329 58.5433 160.52 50.1181C160.52 50.1181 155.9 50.3452 155.438 50.2884C155.438 50.2884 156.822 58.0819 156.766 66.6846C156.766 66.6846 157.113 77.9987 151.165 79.326C151.009 79.3615 143.599 81.2211 142.91 66.0458C142.91 66.0458 142.506 55.5977 143.656 51.0905C143.656 51.0905 140.022 50.8634 138.524 50.9769Z"></path>
<path fill="white" d="M167.738 81.576C167.738 81.576 169.413 59.9203 168.831 53.1702C168.831 53.1702 164.444 52.9999 161.79 53.6884C161.79 53.6884 161.676 49.9336 161.733 48.9541C161.733 48.9541 174.58 49.5929 180.131 48.4359C180.131 48.4359 180.358 50.977 179.953 53.1134C179.953 53.1134 175.127 52.5953 173.629 52.9999C173.629 52.9999 171.762 68.2107 173.097 81.3134C173.09 81.3134 169.626 81.3844 167.738 81.576Z"></path>
<path fill="white" d="M188.577 83.2934C194.795 82.7042 196.974 78.0622 197.656 75.9115C197.862 75.2443 198.053 74.1229 198.011 73.0937C197.954 71.7309 197.599 69.7506 196.293 68.1251C195.533 67.1811 194.518 66.3862 192.914 65.8325C192.417 65.6622 190.863 65.3002 190.104 65.1014C188.478 64.6685 185.66 63.7883 184.141 62.5746C183.495 62.0564 183.02 61.4886 182.807 60.6581C182.693 60.211 182.566 59.6361 182.608 58.9759C182.708 57.5706 183.204 55.9593 185.334 54.8805C186.264 54.412 187.584 54.192 188.641 54.2913C190.345 54.4546 193.028 55.0934 195.384 57.2654L197.407 52.6517C197.407 52.6517 192.212 48.6698 185.575 50.1107C185.575 50.1107 179.521 51.1967 178.534 57.6061C178.349 58.8127 178.243 60.8853 178.875 62.6527C179.485 64.3704 180.983 66.4004 184.141 67.7561C185.412 68.3026 186.555 68.5652 187.456 68.8207C188.698 69.1827 190.515 69.7719 191.949 70.6094C192.779 71.0921 193.205 71.8232 193.411 72.3981C193.936 73.8674 193.908 77.5512 188.35 78.3958C188.35 78.3958 183.211 79.3185 178.534 74.7049C178.534 74.7049 176.909 78.5662 176.397 79.7799C176.397 79.787 179.308 84.1806 188.577 83.2934Z"></path>
<path fill="#D1D2D4" d="M68.1776 51.6874C68.1776 51.6874 61.5269 48.8838 53.3075 51.2261C53.3075 51.2261 55.0323 76.2036 53.996 82.0877L52.3848 50.5731C52.3848 50.5731 61.5695 48.1882 68.1776 51.6874Z" opacity="0.8"></path>
<path fill="#D1D2D4" d="M56.9557 69.6733C56.9557 69.6733 57.6087 69.7514 57.6442 69.9785C57.6442 69.9785 63.0812 71.6962 66.7934 68.8642C69.7177 66.6354 70.5198 62.0999 69.0221 58.7922C69.0221 58.7922 70.2926 64.2079 66.7153 67.9414C64.7492 69.9998 61.108 70.0921 56.9557 69.6733Z" opacity="0.8"></path>
<path fill="#D1D2D4" d="M91.0865 49.998C91.0865 49.998 85.5501 50.9208 76.3299 51.0343C76.3299 51.0343 76.4861 69.9786 74.3709 80.7036C74.3709 80.7036 75.102 70.3264 75.3717 63.9099C75.6414 57.4934 75.4072 50.2323 75.4072 50.2323L91.0865 49.998Z" opacity="0.8"></path>
<path fill="#D1D2D4" d="M89.9709 65.9821C89.9709 65.9821 85.3714 67.352 78.4865 66.1666L89.9709 65.9821Z" opacity="0.8"></path>
<path fill="#D1D2D4" d="M89.7014 78.0918C89.7014 78.0918 81.4394 80.1289 78.4796 78.0918C78.4796 78.0918 86.5925 78.5106 89.7014 78.0918Z" opacity="0.8"></path>
<path fill="#D1D2D4" d="M107.122 50.4869C107.122 50.4869 104.027 50.3165 100.195 50.9198C100.195 50.9198 96.3688 72.7317 92.5786 80.731C92.5786 80.731 95.2048 71.2695 96.8799 64.129C98.555 56.9885 99.4635 50.281 99.4635 50.281C99.4635 50.281 104.759 50.0965 107.122 50.4869Z" opacity="0.8"></path>
<path fill="#D1D2D4" d="M103.639 54.6606C103.639 54.6606 106.265 62.4896 107.94 73.8463C107.94 73.8463 106.13 74.1941 103.986 74.0592C101.836 73.9315 98.2655 73.3281 98.2655 73.3281L106.953 73.2855L106.996 72.4693L103.639 54.6606Z" opacity="0.8"></path>
<path fill="#D1D2D4" d="M107.809 77.0683L108.668 83.2222C108.668 83.2222 109.917 82.2285 107.809 77.0683Z" opacity="0.8"></path>
<path fill="#D1D2D4" d="M121.362 50.4879C121.362 50.4879 120.028 51.006 116.891 51.219C116.891 51.219 117.409 70.9653 115.819 79.6532C115.819 79.6532 116.16 72.683 116.16 66.1458C116.16 59.6087 115.947 50.3601 115.947 50.3601L121.362 50.4879Z" opacity="0.8"></path>
<path fill="#D1D2D4" d="M135.43 50.2681C135.43 50.2681 135.345 50.5662 131.732 50.9991C131.732 50.9991 133.712 65.5782 131.604 75.6928C131.604 75.6928 132.165 66.0964 131.689 59.2611C131.221 52.4258 130.83 50.4455 130.83 50.4455L135.43 50.2681Z" opacity="0.8"></path>
<path fill="#D1D2D4" d="M129.667 81.5908C129.667 81.5908 127.346 72.8178 121.319 61.6315L129.667 81.5908Z" opacity="0.8"></path>
<path fill="#D1D2D4" d="M143.039 51.5174C143.039 51.5174 140.59 51.8155 139.597 52.0355C139.597 52.0355 139.171 63.3496 140.115 70.49C141.059 77.6305 142.649 79.7812 144.672 81.286C144.672 81.286 140.761 80.0367 139.597 72.4633C138.44 64.8898 138.823 51.3399 138.823 51.3399L143.039 51.5174Z" opacity="0.8"></path>
<path fill="#D1D2D4" d="M160.118 50.6158C160.118 50.6158 159.344 50.9636 156.675 51.3043C156.675 51.3043 158.571 61.1136 157.492 71.2636C156.519 80.4625 150.309 80.8103 148.634 79.696C148.634 79.696 152.807 80.427 154.915 77.2472C157.023 74.0602 157.023 66.3235 156.981 63.7399C156.938 61.1562 155.774 50.6655 155.774 50.6655L160.118 50.6158Z" opacity="0.8"></path>
<path fill="#D1D2D4" d="M179.132 49.1533C179.132 49.1533 175.902 50.0548 170.274 50.0548C164.638 50.0548 162.743 50.0973 162.743 50.0973C162.743 50.0973 162.267 52.8513 162.31 53.2346L162.012 49.3237C162.012 49.3237 173.368 49.7992 179.132 49.1533Z" opacity="0.8"></path>
<path fill="#D1D2D4" d="M169.28 52.8513C169.28 52.8513 170.011 56.8119 169.841 63.3916C169.671 69.9714 168.94 77.1545 168.294 81.2003C168.294 81.2003 168.769 69.1126 168.94 66.1031C169.11 63.0864 169.28 52.8513 169.28 52.8513Z" opacity="0.8"></path>
<path fill="#D1D2D4" d="M194.272 51.5168C194.272 51.5168 188.338 49.8417 184.505 51.4742C180.679 53.1067 179.175 56.5918 179.345 59.9917C179.515 63.3916 181.453 65.4571 182.567 66.3159C182.567 66.3159 178.614 65.0241 178.699 59.1754C178.784 53.3268 183.604 50.5302 186.443 50.3599C189.282 50.1824 190.531 50.0121 194.272 51.5168Z" opacity="0.8"></path>
<path fill="#D1D2D4" d="M192.256 70.0848C192.256 70.0848 196.04 71.9515 194.102 76.0825C192.164 80.2135 184.768 80.8594 179.991 76.5581C179.991 76.5581 184.697 79.9367 190.276 78.4532C194.961 77.1969 194.152 71.1424 192.256 70.0848Z" opacity="0.8"></path>
<path fill="white" d="M92.8202 49.6641C92.8202 49.6641 92.1743 51.4101 91.8549 53.6176C91.8549 53.6176 89.3777 53.3763 86.2689 53.4401C83.5149 53.4969 79.6394 53.9512 79.6394 53.9512C79.6394 53.9512 78.7947 57.2375 79.1496 65.2227C80.2711 57.3582 80.7041 55.1011 80.7041 55.1011L93.53 55.5269L92.8202 49.6641Z" opacity="0.8"></path>
<path fill="white" d="M90.7703 65.8124C90.7703 65.8124 90.5858 68.3889 90.0179 69.6523C90.0179 69.6523 88.7616 69.4962 85.7166 69.4465C82.4729 69.3897 78.7962 69.7304 78.7962 69.7304C78.7962 69.7304 78.1077 73.3645 78.8884 77.4742L79.8466 70.6815L91.1181 70.6673L91.3169 67.6578L90.7703 65.8124Z" opacity="0.8"></path>
<path fill="white" d="M90.4574 77.7079C90.4574 77.7079 90.1025 81.1078 89.8115 82.1157C89.8115 82.1157 82.7491 82.0377 73.969 82.7688L90.4006 83.3508L90.8265 82.5558L90.4574 77.7079Z" opacity="0.8"></path>
<path fill="white" d="M68.4116 58.5649C68.4116 58.5649 67.5669 54.952 63.9541 53.8022C60.32 52.6452 56.6503 54.1854 56.6503 54.1854C56.6503 54.1854 56.6148 61.1769 57.4595 68.5942L57.9209 54.9165L62.8752 54.6823L65.757 55.7612L68.4116 58.5649Z" opacity="0.8"></path>
<path fill="white" d="M53.1503 83.2795C53.1503 83.2795 55.663 82.4632 57.8633 82.2006C57.8633 82.2006 57.0968 76.1035 57.3026 73.4914C57.3026 73.4914 64.578 74.4639 68.7302 71.2911C71.1435 69.4385 72.8825 66.0174 73.3439 63.1427L73.3936 67.7067L69.3478 72.5758L65.813 74.2154L58.4312 74.9323L59.4533 83.6982L53.7182 84.259L53.3633 83.2582" opacity="0.8"></path>
<path fill="white" d="M103.494 56.0591C103.494 56.0591 103.118 54.526 102.941 54.0575C102.941 54.0575 99.3918 66.9828 99.1078 70.9789L103.494 56.0591Z" opacity="0.8"></path>
<path fill="white" d="M108.953 61.3326C108.953 61.3326 109.954 70.4392 113.659 83.1444C113.659 83.1444 109.72 83.4354 108.222 83.8542L114.83 84.0104L108.953 61.3326Z" opacity="0.8"></path>
<path fill="white" d="M107.257 77.3175C107.257 77.3175 104.226 76.8561 101.763 76.8206C99.3214 76.7851 97.5398 76.9484 97.5398 76.9484C97.5398 76.9484 97.0217 78.0414 96.6384 83.3507C96.6384 83.3507 92.6422 83.6417 90.8181 84.0037L97.334 84.2521L98.5051 78.0272L107.257 77.3175Z" opacity="0.8"></path>
<path fill="white" d="M121.854 50.2108C121.854 50.2108 121.911 56.4783 127.852 67.8917L121.854 50.2108Z" opacity="0.8"></path>
<path fill="white" d="M119.624 64.2787C119.624 64.2787 119.525 74.2158 119.794 81.6685C119.794 81.6685 117.005 81.9383 114.932 82.3996L120.753 82.6694L119.624 64.2787Z" opacity="0.8"></path>
<path fill="white" d="M129.611 83.3368C129.611 83.3368 132.28 82.7051 134.856 82.4353C134.856 82.4353 134.622 66.4438 135.815 54.2283L136.028 83.7626L129.611 83.3368Z" opacity="0.8"></path>
<path fill="white" d="M143.772 51.3036C143.772 51.3036 142.31 55.9953 142.423 63.7959C142.537 71.5965 143.651 78.3253 149.422 79.2835L146.157 75.9759L143.623 68.6012L143.353 61.0703L143.772 51.3036Z" opacity="0.8"></path>
<path fill="white" d="M160.835 53.4547C160.835 53.4547 161.488 70.44 158.641 77.1688C157.392 80.1286 155.107 82.4709 151.189 83.1239C149.464 83.415 147.526 83.0459 145.233 82.4709C145.233 82.4709 151.728 87.1626 158.031 81.1649C164.334 75.1672 161.261 56.6488 160.835 53.4547Z" opacity="0.8"></path>
<path fill="white" d="M168.622 53.1997C168.622 53.1997 166.039 52.7951 164.584 52.9228C162.419 53.1145 161.567 53.8598 161.567 53.8598L168.622 53.1997Z" opacity="0.8"></path>
<path fill="white" d="M180.185 48.4225C180.185 48.4225 179.93 51.5385 179.61 52.6102C179.61 52.6102 178.744 52.5464 177.211 52.6102C174.443 52.7238 173.676 53.0432 173.676 53.0432C173.676 53.0432 171.32 68.1121 172.527 80.7676C172.527 80.7676 167.657 81.4348 166.862 81.9743C168.069 81.9743 173.783 82.0523 173.783 82.0523L174.095 53.6323L179.965 53.4975L180.405 52.8374L180.135 48.4438" opacity="0.8"></path>
<path fill="white" d="M197.559 52.6027C197.559 52.6027 196.054 54.5759 195.067 56.5988C195.067 56.5988 191.774 53.4047 187.544 53.7809C183.924 54.1003 181.198 56.9324 183.122 61.3473L183.824 57.4434L186.081 55.3283L188.431 55.0018L195.479 58.6217L197.218 54.5759L197.559 52.6027Z" opacity="0.8"></path>
<path fill="white" d="M197.281 69.4316C197.281 69.4316 199.02 73.7117 196.529 77.6084C194.052 81.491 190.794 82.7331 185.62 82.8751C180.445 83.017 177.393 80.8025 176.825 80.4263C176.825 80.4263 182.376 86.6795 192.15 83.2938C201.931 79.9152 197.281 69.4316 197.281 69.4316Z" opacity="0.8"></path>
</svg>
