<svg xmlns="http://www.w3.org/2000/svg" fill="none" viewBox="0 0 32 33" height="33" width="32">
<path fill="black" d="M26.8596 23.015C26.792 23.128 26.7027 23.2265 26.597 23.3049C26.4912 23.3833 26.371 23.44 26.2432 23.4718C26.1155 23.5036 25.9827 23.5099 25.8525 23.4903C25.7223 23.4707 25.5973 23.4256 25.4846 23.3575L17.0021 18.2663V27.5C17.0021 27.7652 16.8968 28.0196 16.7092 28.2071C16.5217 28.3946 16.2673 28.5 16.0021 28.5C15.7369 28.5 15.4825 28.3946 15.295 28.2071C15.1075 28.0196 15.0021 27.7652 15.0021 27.5V18.2663L6.51711 23.3575C6.40445 23.4267 6.2792 23.4729 6.14858 23.4934C6.01796 23.5139 5.88458 23.5082 5.75615 23.4768C5.62772 23.4454 5.50679 23.3889 5.40036 23.3104C5.29393 23.232 5.20412 23.1332 5.1361 23.0198C5.06809 22.9065 5.02324 22.7807 5.00414 22.6499C4.98504 22.5191 4.99208 22.3858 5.02483 22.2577C5.05759 22.1296 5.11543 22.0093 5.19499 21.9037C5.27455 21.7981 5.37426 21.7093 5.48836 21.6425L14.0584 16.5L5.48836 11.3575C5.37426 11.2907 5.27455 11.2019 5.19499 11.0963C5.11543 10.9907 5.05759 10.8704 5.02483 10.7423C4.99208 10.6142 4.98504 10.4809 5.00414 10.3501C5.02324 10.2193 5.06809 10.0935 5.1361 9.98015C5.20412 9.86677 5.29393 9.768 5.40036 9.68956C5.50679 9.61112 5.62772 9.55457 5.75615 9.52317C5.88458 9.49177 6.01796 9.48614 6.14858 9.50663C6.2792 9.52711 6.40445 9.57329 6.51711 9.6425L15.0021 14.7338V5.5C15.0021 5.23478 15.1075 4.98043 15.295 4.79289C15.4825 4.60536 15.7369 4.5 16.0021 4.5C16.2673 4.5 16.5217 4.60536 16.7092 4.79289C16.8968 4.98043 17.0021 5.23478 17.0021 5.5V14.7338L25.4871 9.6425C25.5998 9.57329 25.725 9.52711 25.8556 9.50663C25.9863 9.48614 26.1196 9.49177 26.2481 9.52317C26.3765 9.55457 26.4974 9.61112 26.6039 9.68956C26.7103 9.768 26.8001 9.86677 26.8681 9.98015C26.9361 10.0935 26.981 10.2193 27.0001 10.3501C27.0192 10.4809 27.0121 10.6142 26.9794 10.7423C26.9466 10.8704 26.8888 10.9907 26.8092 11.0963C26.7297 11.2019 26.6299 11.2907 26.5159 11.3575L17.9459 16.5L26.5159 21.6425C26.6286 21.71 26.7269 21.7991 26.8052 21.9046C26.8835 22.0101 26.9403 22.13 26.9722 22.2575C27.0041 22.385 27.0106 22.5175 26.9913 22.6475C26.972 22.7774 26.9272 22.9023 26.8596 23.015Z"></path>
</svg>
