<svg xmlns="http://www.w3.org/2000/svg" fill="none" viewBox="0 0 250 132" height="132" width="250">
<rect fill="white" height="132" width="250"></rect>
<path fill="black" d="M188.337 56.1684L145.129 56.1652C143.671 46.3439 135.23 38.7859 124.995 38.7859C114.765 38.7859 106.323 46.3439 104.869 56.1652L61.6564 56.1684C57.9878 56.1684 55 59.1634 55 62.8379V86.5446C55 90.2175 57.9878 93.2141 61.6564 93.2141H188.337C192.011 93.2141 195 90.2175 195 86.5446V62.8379C195 59.1634 192.011 56.1684 188.337 56.1684Z"></path>
<path fill="white" d="M187.941 60.3527H62.0552C60.4781 60.3527 59.194 61.6404 59.194 63.221V86.1675C59.194 87.7466 60.4781 89.0216 62.0552 89.0216H187.941C189.517 89.0216 190.805 87.7466 190.805 86.1675V63.221C190.805 61.6404 189.517 60.3527 187.941 60.3527Z"></path>
<path fill="black" d="M68.3534 84.7384C65.5683 84.7384 64.3174 82.7935 64.0403 79.4833L67.017 78.9543C67.234 81.3205 67.6583 81.9018 68.3534 81.9018C69.1324 81.9018 69.4633 81.3981 69.4633 80.1485C69.4633 78.2827 68.8838 77.4132 67.1279 75.4683C65.1519 73.4663 64.1765 71.6307 64.1765 69.4006C64.1765 66.6701 65.5144 64.6365 68.184 64.6365C70.9121 64.6365 71.9951 66.4801 72.3561 69.3484L69.438 69.9581C69.2132 68.0449 68.8838 67.4589 68.184 67.4589C67.5174 67.4589 67.1817 67.9324 67.1817 69.1504C67.1817 70.5188 67.6583 71.3266 69.1894 72.9722C71.4393 75.2497 72.5018 77.1978 72.5018 79.8697C72.5018 82.7412 70.9992 84.7384 68.3534 84.7384Z"></path>
<path fill="black" d="M74.1953 84.4368V64.9446H81.4835V67.8478H77.3098V72.7149H80.5113V75.6101H77.3098V81.5384H81.7368V84.4368H74.1953Z"></path>
<path fill="black" d="M87.1074 84.7384C84.3255 84.7384 83.073 82.7935 82.788 79.4833L85.7711 78.9543C86.0022 81.3205 86.4139 81.9018 87.1074 81.9018C87.888 81.9018 88.2173 81.3981 88.2173 80.1485C88.2173 78.2827 87.6378 77.4132 85.8835 75.4683C83.9027 73.4663 82.9321 71.6307 82.9321 69.4006C82.9321 66.6701 84.2685 64.6365 86.9364 64.6365C89.6677 64.6365 90.7523 66.4801 91.1149 69.3484L88.1936 69.9581C87.9672 68.0449 87.6378 67.4589 86.9364 67.4589C86.2698 67.4589 85.9405 67.9324 85.9405 69.1504C85.9405 70.5188 86.4139 71.3266 87.9418 72.9722C90.1981 75.2497 91.2526 77.1978 91.2526 79.8697C91.2526 82.7412 89.7437 84.7384 87.1074 84.7384Z"></path>
<path fill="black" d="M101.577 84.4368L98.4914 64.9446H95.1521L92.0646 84.4368H95.1521L95.6556 80.1494H97.9325L98.4661 84.4368H101.577ZM97.6301 77.3444H95.901L96.319 73.8014C96.4869 72.4092 96.68 70.7984 96.737 69.2653C96.821 70.7984 97.0157 72.3823 97.1804 73.7745L97.6301 77.3444Z"></path>
<path fill="black" d="M111.259 84.4366V79.343C111.259 76.9799 111.34 74.7214 111.399 72.7147C111.119 74.2525 110.512 77.1478 110.009 79.1181L108.617 85.0226L107.25 79.1181C106.777 77.2301 106.171 74.1908 105.893 72.7147C105.92 74.5582 106.028 77.0623 106.028 79.343V84.4366H103.245V64.9444H106.307L107.584 70.8774C108.002 72.6402 108.447 74.8861 108.617 76.4715C108.781 74.8861 109.253 72.6101 109.671 70.8552L110.982 64.9444H114.041V84.4366H111.259Z"></path>
<path fill="black" d="M116.575 84.4364V64.9442H123.869V67.8473H119.697V72.7145H122.895V75.6097H119.697V81.538H124.115V84.4364H116.575Z"></path>
<path fill="black" d="M134.689 84.7384C131.906 84.7384 130.653 82.7935 130.376 79.4833L133.353 78.9543C133.575 81.3205 133.997 81.9018 134.689 81.9018C135.47 81.9018 135.801 81.3981 135.801 80.1485C135.801 78.2827 135.221 77.4132 133.467 75.4683C131.488 73.4663 130.511 71.6307 130.511 69.4006C130.511 66.6701 131.852 64.6365 134.529 64.6365C137.25 64.6365 138.334 66.4801 138.694 69.3484L135.776 69.9581C135.548 68.0449 135.221 67.4589 134.529 67.4589C133.853 67.4589 133.524 67.9324 133.524 69.1504C133.524 70.5188 133.997 71.3266 135.532 72.9722C137.78 75.2497 138.836 77.1978 138.836 79.8697C138.836 82.7412 137.338 84.7384 134.689 84.7384Z"></path>
<path fill="black" d="M145.101 67.8478V84.4368H141.985V67.8478H139.369V64.9446H147.747V67.8478H145.101Z"></path>
<path fill="black" d="M157.928 84.4368L156.007 74.975C157.096 74.1055 157.736 72.5755 157.736 70.3265C157.736 66.2576 155.763 64.9446 153.344 64.9446H149.278V84.4368H152.364V75.8635H153.144L154.759 84.4368H157.928ZM154.588 70.4595C154.588 72.5232 154.06 73.3025 153.003 73.3025H152.364V67.5944H153.087C154.177 67.5944 154.588 68.3213 154.588 70.4595"></path>
<path fill="black" d="M159.986 84.4364V64.9442H167.281V67.8473H163.101V72.7145H166.302V75.6097H163.101V81.538H167.528V84.4364H159.986Z"></path>
<path fill="black" d="M169.533 84.4368V64.9446H176.821V67.8478H172.649V72.7149H175.845V75.6101H172.649V81.5384H177.069V84.4368H169.533Z"></path>
<path fill="black" d="M183.757 67.8478V84.4368H180.644V67.8478H178.023V64.9446H186.402V67.8478H183.757Z"></path>
<path fill="black" d="M188.318 85.8035C188.318 85.954 188.226 86.0348 188.071 86.0348H187.646V85.5834H188.071C188.218 85.5834 188.318 85.6483 188.318 85.8035ZM188.696 85.7956C188.696 85.4202 188.427 85.2397 188.091 85.2397H187.274V87.0056H187.646V86.361H187.952L188.264 87.0056H188.684L188.34 86.3119C188.533 86.2359 188.696 86.1013 188.696 85.7956M189.537 86.1583C189.537 85.2381 188.843 84.5349 187.927 84.5349C187.013 84.5349 186.315 85.2381 186.315 86.1583C186.315 87.0674 187.013 87.7706 187.927 87.7706C188.843 87.7706 189.537 87.0674 189.537 86.1583M189.252 86.1583C189.252 86.9059 188.682 87.4776 187.927 87.4776C187.176 87.4776 186.601 86.9059 186.601 86.1583C186.601 85.3996 187.176 84.8263 187.927 84.8263C188.682 84.8263 189.252 85.3996 189.252 86.1583Z"></path>
<path fill="white" d="M140.064 54.9539C138.794 48.24 132.184 42.9785 124.995 42.9785C117.812 42.9785 111.184 48.24 109.923 54.9539C109.914 55.9548 110.693 56.1655 110.987 56.1655H138.978C139.279 56.1655 140.07 55.9548 140.07 54.9966V54.9697L140.064 54.9539Z"></path>
<path fill="black" d="M118.944 53.6418V48.7145H118.048V47.9764C118.703 47.9035 118.984 47.5108 119.118 47.0245H120.128V53.6418H118.944Z"></path>
<path stroke-width="0.2" stroke="black" d="M118.944 53.6418V48.7145H118.048V47.9764C118.703 47.9035 118.984 47.5108 119.118 47.0245H120.128V53.6418H118.944Z"></path>
<path fill="black" d="M122.423 53.6418C122.494 51.6192 123.123 50.7766 124.378 49.8802C124.833 49.5476 125.002 49.272 125.002 48.8697C125.002 48.347 124.731 48.1031 124.245 48.1031C123.829 48.1031 123.5 48.3343 123.183 48.6955L122.45 47.8323C122.89 47.2779 123.482 46.9152 124.29 46.9152C125.431 46.9152 126.201 47.5503 126.201 48.705C126.201 49.6236 125.745 50.1858 125.111 50.6642C124.215 51.3325 123.81 51.7808 123.764 52.4824H126.22V53.6418H122.423Z"></path>
<path stroke-width="0.2" stroke="black" d="M122.423 53.6418C122.494 51.6192 123.123 50.7766 124.378 49.8802C124.833 49.5476 125.002 49.272 125.002 48.8697C125.002 48.347 124.731 48.1031 124.245 48.1031C123.829 48.1031 123.5 48.3343 123.183 48.6955L122.45 47.8323C122.89 47.2779 123.482 46.9152 124.29 46.9152C125.431 46.9152 126.201 47.5503 126.201 48.705C126.201 49.6236 125.745 50.1858 125.111 50.6642C124.215 51.3325 123.81 51.7808 123.764 52.4824H126.22V53.6418H122.423Z"></path>
<path fill="black" d="M129.805 53.7477C128.912 53.7477 128.29 53.3708 127.769 52.5393L128.704 51.8757C129.064 52.3888 129.395 52.5868 129.838 52.5868C130.411 52.5868 130.725 52.2209 130.725 51.6872C130.725 51.0125 130.285 50.7337 129.675 50.7337H129.218V49.5839H129.685C130.229 49.5839 130.543 49.3415 130.543 48.8664C130.543 48.434 130.337 48.0935 129.764 48.0935C129.408 48.0935 129.153 48.2408 128.807 48.5829L128.009 47.7799C128.489 47.243 128.953 46.9167 129.838 46.9167C130.991 46.9167 131.733 47.631 131.733 48.7238C131.733 49.4698 131.35 49.8927 130.802 50.0954C131.384 50.2586 131.928 50.7337 131.928 51.6571C131.928 52.9542 131.133 53.7477 129.805 53.7477Z"></path>
<path stroke-width="0.2" stroke="black" d="M129.805 53.7477C128.912 53.7477 128.29 53.3708 127.769 52.5393L128.704 51.8757C129.064 52.3888 129.395 52.5868 129.838 52.5868C130.411 52.5868 130.725 52.2209 130.725 51.6872C130.725 51.0125 130.285 50.7337 129.675 50.7337H129.218V49.5839H129.685C130.229 49.5839 130.543 49.3415 130.543 48.8664C130.543 48.434 130.337 48.0935 129.764 48.0935C129.408 48.0935 129.153 48.2408 128.807 48.5829L128.009 47.7799C128.489 47.243 128.953 46.9167 129.838 46.9167C130.991 46.9167 131.733 47.631 131.733 48.7238C131.733 49.4698 131.35 49.8927 130.802 50.0954C131.384 50.2586 131.928 50.7337 131.928 51.6571C131.928 52.9542 131.133 53.7477 129.805 53.7477Z"></path>
</svg>
