<svg xmlns="http://www.w3.org/2000/svg" fill="none" viewBox="0 0 250 132" height="132" width="250">
<rect fill="white" height="132" width="250"></rect>
<path fill="black" d="M90.9582 34.8578C88.8334 34.9959 87.5675 35.4099 86.9949 36.1726C86.1208 37.3202 85.9098 38.8747 86.0455 43.2039C86.1283 46.044 86.1886 46.4871 86.6407 47.3805C87.0551 48.2086 88.3738 49.2182 90.5815 50.4095C91.1014 50.6855 91.9076 51.1213 92.3673 51.3683C92.8344 51.6225 93.3016 51.9203 93.3996 52.0365C93.7236 52.3997 93.7612 52.821 93.7311 55.298C93.6934 57.7458 93.6633 57.9783 93.3091 58.356C93.1132 58.5594 93.0982 58.5666 92.9399 58.4577C92.8495 58.3923 92.7139 58.1744 92.6385 57.9637C92.533 57.6369 92.5104 57.1865 92.4803 54.7314L92.4577 51.884H89.2553H86.0605V55.574C86.0605 59.9758 86.1359 60.7385 86.6483 61.7481C86.9195 62.2929 87.7257 63.012 88.2909 63.2081C89.391 63.6076 91.3048 63.7675 94.1229 63.6948C97.0088 63.6222 98.0712 63.3752 98.9603 62.5762C99.3898 62.184 99.7063 61.6828 99.9097 61.0363C100.204 60.0993 100.241 59.402 100.211 55.0074C100.181 51.0196 100.173 50.809 100.023 50.2715C99.9323 49.9664 99.7741 49.5596 99.6762 49.3635C99.1563 48.3829 97.7849 47.366 95.4792 46.2546C93.7085 45.4048 93.1057 44.9762 92.7289 44.3225L92.5029 43.9302V42.4049C92.5029 41.1628 92.5255 40.8068 92.631 40.4727C92.842 39.8117 93.166 39.6664 93.4071 40.124C93.6708 40.6107 93.7462 41.2063 93.7462 42.9642V44.6929H96.9937H100.241L100.204 41.5841C100.173 39.1798 100.143 38.3662 100.053 37.974C99.6234 36.0491 98.7418 35.2646 96.6848 34.9595C96.1423 34.8796 91.8022 34.807 90.9582 34.8578Z"></path>
<path fill="black" d="M121.781 35.1773C118.76 35.4098 117.675 36.4049 117.403 39.2087C117.358 39.7172 117.328 44.3514 117.328 51.8984V63.7964H120.568H123.808L123.823 61.0507L123.846 58.3123L124.358 58.2905C124.675 58.276 124.916 58.305 124.984 58.3559C125.074 58.4212 125.089 58.9006 125.089 61.1161V63.7964L128.314 63.7819L131.531 63.7601L131.554 52.9008C131.562 46.3271 131.547 41.4096 131.494 40.4435C131.388 38.1627 131.14 37.233 130.424 36.4485C129.814 35.7802 129.143 35.4679 127.877 35.279C127.003 35.1483 123.04 35.0829 121.781 35.1773ZM124.629 40.3636C124.743 40.4217 124.893 40.5961 124.961 40.7486C125.082 41.0028 125.089 41.504 125.074 47.0898L125.051 53.155H124.449H123.846L123.786 52.0292C123.755 51.4117 123.74 48.6443 123.748 45.8913C123.77 41.0973 123.778 40.8721 123.914 40.6469C124.034 40.4653 124.238 40.3055 124.396 40.2692C124.411 40.2619 124.509 40.3055 124.629 40.3636Z"></path>
<path fill="black" d="M101.772 35.4098C101.749 35.5042 101.741 41.9181 101.749 49.6684L101.772 63.7601L104.951 63.7819L108.139 63.7964L108.154 56.4455L108.176 49.0874L108.726 49.0656C109.073 49.051 109.322 49.0801 109.389 49.1309C109.48 49.2036 109.495 50.3222 109.495 56.5036V63.7964H112.735H115.975V49.5232V35.25H112.735H109.495L109.48 39.5864L109.457 43.9301L108.907 43.9519C108.561 43.9664 108.312 43.9374 108.244 43.8865C108.154 43.8139 108.139 43.1166 108.139 39.5283V35.25H104.974H101.809L101.772 35.4098Z"></path>
<path fill="black" d="M133.078 49.5232V63.7964H136.318H139.558L139.573 57.4188L139.596 51.0486L139.995 51.0558C140.214 51.0631 140.44 51.1067 140.5 51.1575C140.779 51.3827 140.794 51.6224 140.817 57.782L140.847 63.7964H144.087H147.319V58.0726C147.319 54.7966 147.281 52.0582 147.244 51.666C147.161 50.896 146.942 50.0534 146.716 49.6321C146.528 49.2835 145.812 48.528 145.466 48.3247C145.172 48.1431 145.142 48.0632 145.36 47.9978C145.443 47.9687 145.714 47.7726 145.955 47.562C146.52 47.0535 146.897 46.3489 147.101 45.4192C147.297 44.5112 147.379 41.5767 147.251 39.768C147.116 37.8286 146.837 37.015 146.083 36.3613C145.594 35.94 145.126 35.7148 144.358 35.5405C143.25 35.2935 142.301 35.25 137.629 35.25H133.078V49.5232ZM140.417 40.4145C140.764 40.567 140.794 40.7559 140.824 42.688C140.854 44.8235 140.817 45.0342 140.304 45.2303C139.95 45.3683 139.769 45.3756 139.649 45.2594C139.543 45.1577 139.513 40.3999 139.618 40.3055C139.686 40.2401 140.161 40.3055 140.417 40.4145Z"></path>
<path fill="black" d="M148.902 49.5232V63.7964H152.105H155.307V57.7167C155.307 54.3753 155.337 51.666 155.367 51.7096C155.405 51.7459 155.541 52.6393 155.676 53.6998C155.812 54.7603 156 56.0678 156.098 56.6053C156.965 61.5156 157.364 63.6947 157.394 63.7383C157.409 63.7746 158.848 63.7964 160.589 63.7964C163.302 63.7964 163.746 63.7819 163.746 63.6874C163.746 63.6293 162.88 60.1573 161.825 55.9734C160.77 51.7895 159.843 48.114 159.768 47.8017L159.625 47.2496L159.836 46.5668C159.949 46.1964 160.491 44.4023 161.034 42.5863C161.584 40.7704 162.277 38.446 162.586 37.4291C162.895 36.4122 163.143 35.5115 163.143 35.417V35.25H159.986H156.829L156.701 35.9182C156.633 36.2887 156.415 37.3928 156.211 38.3734C156.008 39.354 155.752 40.8576 155.646 41.7147C155.533 42.5718 155.413 43.3054 155.375 43.3417C155.337 43.3853 155.307 41.7437 155.307 39.3322V35.25H152.105H148.902V49.5232Z"></path>
<path fill="black" d="M109.313 65.4019C108.906 65.4382 108.228 65.5326 107.814 65.6198C105.606 66.0483 104.619 66.9563 104.129 68.9974L103.963 69.7165L103.941 83.5394L103.918 97.355H108.175H112.432L112.448 94.2824L112.47 91.2171L113.254 91.1953C113.759 91.1808 114.068 91.2026 114.135 91.2607C114.226 91.3261 114.241 91.8636 114.241 94.3478V97.355H118.498H122.755V84.4764C122.755 76.2103 122.725 71.2492 122.672 70.6027C122.59 69.4914 122.341 68.4091 122.024 67.7989C121.715 67.1888 120.879 66.3897 120.239 66.0847C118.95 65.4818 118.084 65.3801 113.676 65.3583C111.686 65.3438 109.727 65.3656 109.313 65.4019ZM113.713 71.1693C113.834 71.2346 114 71.3872 114.068 71.5179C114.196 71.7358 114.203 72.1862 114.203 78.5783V85.4062L113.42 85.428C112.96 85.4425 112.606 85.4207 112.545 85.3698C112.47 85.3117 112.44 83.9026 112.395 78.847C112.365 75.3023 112.365 72.2516 112.395 72.0554C112.515 71.271 113.118 70.8715 113.713 71.1693Z"></path>
<path fill="black" d="M86.1367 68.2275V70.9877H88.0054C89.3617 70.9877 89.8967 71.0095 89.9645 71.0748C90.0323 71.1402 90.0549 74.1692 90.0549 84.2585V97.355H94.3498H98.6447L98.6598 84.1931L98.6824 71.024L100.626 71.0022L102.563 70.9877V68.2275V65.4672H94.3498H86.1367V68.2275Z"></path>
<path fill="black" d="M124.266 81.4111V97.355H127.882H131.499V90.331C131.499 86.256 131.529 83.336 131.567 83.3796C131.605 83.4159 131.725 84.0624 131.831 84.8251C132.177 87.2221 132.411 88.4932 132.712 89.7644C132.878 90.4399 133.338 92.4011 133.722 94.1081C134.114 95.8151 134.453 97.246 134.475 97.2896C134.506 97.3259 136.209 97.355 138.853 97.355H143.178V81.4111V65.4672H139.411H135.643V72.6511C135.643 76.6098 135.613 79.8567 135.583 79.8785C135.545 79.9003 135.455 79.4644 135.387 78.9197C135.086 76.7115 134.732 74.7285 134.4 73.3484C134.069 71.9537 132.629 65.5907 132.629 65.5108C132.629 65.4818 130.746 65.4672 128.448 65.4672H124.266V81.4111Z"></path>
<path fill="black" d="M144.832 81.4111V97.355H149.089H153.347V90.2583C153.347 86.3577 153.377 83.1907 153.407 83.2343C153.444 83.2706 153.633 84.3747 153.836 85.6967C154.032 87.0114 154.409 89.1252 154.68 90.3818C155.419 93.8902 156.134 97.3041 156.134 97.3332C156.134 97.3477 158.033 97.355 160.354 97.355C163.797 97.355 164.574 97.3405 164.574 97.2606C164.574 97.1589 164.483 96.8393 164.152 95.7642L163.963 95.1613L163.345 95.1759C162.381 95.2122 162.162 95.1904 162.11 95.0596C162.087 94.9943 162.147 94.8635 162.275 94.74C162.404 94.6093 162.517 94.3769 162.584 94.1081C162.765 93.3599 162.878 93.418 161.318 93.4398C159.925 93.4544 159.601 93.4108 159.601 93.1856C159.601 93.0549 160.701 92.1324 160.927 92.0815C161.025 92.0597 161.108 91.9944 161.108 91.9508C161.108 91.8636 160.452 91.7329 159.043 91.5367C158.764 91.4932 158.44 91.4278 158.335 91.3915C158.146 91.3188 158.154 91.3188 158.629 90.9774C158.892 90.7958 159.435 90.4762 159.827 90.2729C160.723 89.8152 160.768 89.7063 160.075 89.5828C159.503 89.4811 157.762 89.1107 157.31 88.9944L157.024 88.9218L157.235 88.6966C157.355 88.5804 157.604 88.3988 157.792 88.2899C158.515 87.8831 158.998 87.5417 158.998 87.4182C158.998 87.3165 158.711 87.2003 157.672 86.8662C156.805 86.5901 156.368 86.4231 156.421 86.3722C156.458 86.3359 157.061 85.9509 157.762 85.5296C158.463 85.1011 159.043 84.7016 159.058 84.6362C159.073 84.5418 158.983 84.5055 158.568 84.4619C157.815 84.382 156.519 84.1641 156.451 84.106C156.421 84.0769 156.489 83.9825 156.594 83.8953C158.146 82.6387 158.252 82.5297 158.003 82.3409C157.928 82.2828 156.715 81.7961 155.856 81.4692C155.803 81.4474 155.758 81.4038 155.758 81.3748C155.758 81.3022 156.707 80.9971 157.566 80.7937C157.92 80.7138 158.47 80.554 158.794 80.4523C159.352 80.2707 159.374 80.2489 159.374 80.0383C159.374 79.8494 159.239 79.6823 158.546 79.0141L157.717 78.2151L158.696 77.7066C159.57 77.2563 159.683 77.1836 159.759 76.9512C159.857 76.6606 159.864 76.6752 159.156 76.2539L158.749 76.0142L159.495 75.7817C159.902 75.6582 160.249 75.542 160.256 75.5348C160.294 75.4984 163.82 65.6053 163.82 65.5399C163.82 65.4963 162.245 65.4672 159.616 65.4672H155.411L155.125 66.7166C154.967 67.4067 154.703 68.4962 154.537 69.1354C154.153 70.6318 154.145 70.6681 153.791 72.9852C153.625 74.0602 153.46 74.9755 153.422 75.0118C153.369 75.0626 153.347 73.3629 153.347 70.2758V65.4672H149.089H144.832V81.4111Z"></path>
</svg>
