<svg xmlns="http://www.w3.org/2000/svg" fill="none" viewBox="0 0 250 132" height="132" width="250">
<rect fill="white" height="132" width="250"></rect>
<path fill="#231F20" d="M84.3807 57.674C82.5657 59.5957 82.3095 60.0014 82.9928 59.7666C83.2277 59.7025 84.1672 59.5103 85.0853 59.3395C88.1174 58.763 88.5872 58.464 88.5872 57.2256C88.5872 56.4142 87.8825 55.8163 86.943 55.8163C86.2384 55.8163 85.9821 55.9872 84.3807 57.674Z"></path>
<path fill="#231F20" d="M39.2705 61.3885C37.6904 61.6661 36.3879 62.328 35.7046 63.2248C35.2349 63.8227 35.1281 64.207 35.1281 65.1252C35.1281 67.0469 36.2171 68.2213 40.6798 71.0825C42.6442 72.3423 43.2634 73.2178 42.9645 74.2427C42.815 74.7765 42.5588 75.0114 41.7901 75.3317C40.872 75.6947 40.6584 75.7161 39.5481 75.4598C38.5445 75.2463 38.1175 75.0114 37.3274 74.2C36.3452 73.2178 35.6406 71.6377 35.6406 70.3993C35.6406 70.1003 35.5125 69.9082 35.3203 69.9082C35.0427 69.9082 35 70.3993 35 73.0043C35 76.0577 35.1708 76.7837 35.6406 75.5666C35.8755 74.926 35.8755 74.926 37.3488 75.4812C40.8293 76.8264 45.5055 76.1004 46.7866 74.0079C47.1283 73.4527 47.2564 72.9189 47.2564 72.1502C47.2137 70.1857 46.4877 69.3316 42.6869 66.8761C41.3417 66.0006 39.9538 64.9757 39.6335 64.57C38.331 63.0326 39.4413 61.6447 41.8115 61.8796C43.84 62.0718 45.2065 63.3529 45.7403 65.6163C45.8685 66.2142 46.1033 66.7053 46.2528 66.7053C46.4663 66.7053 46.5304 66.1074 46.5304 64.3778C46.5304 63.0967 46.5944 61.9009 46.6585 61.7088C46.7439 61.4952 46.6799 61.3671 46.4663 61.3671C46.2955 61.3671 46.082 61.602 46.0179 61.9009C45.8471 62.5415 45.6763 62.5629 44.6514 62.0291C43.84 61.6234 41.7047 61.1322 40.8933 61.175C40.6371 61.1963 39.9111 61.2817 39.2705 61.3885Z"></path>
<path fill="#231F20" d="M55.673 61.3891C53.1106 61.7521 50.7832 63.3749 49.7156 65.5315C49.2672 66.471 49.2031 66.8981 49.2031 68.9479C49.2031 71.19 49.2458 71.3608 49.8651 72.4711C51.4024 75.1829 54.9043 76.5922 58.9613 76.0797C61.8011 75.7167 64.1286 74.1793 65.2603 71.8519C65.7941 70.8056 65.8581 70.4213 65.8581 68.6277C65.8581 66.8981 65.7727 66.4283 65.303 65.4248C65.004 64.7842 64.4275 63.9301 64.0218 63.5244C63.0396 62.5208 61.0325 61.6454 59.2388 61.3678C57.552 61.1329 57.3812 61.1329 55.673 61.3891ZM59.0467 62.35C59.9221 62.9906 60.5627 64.3358 60.9897 66.4283C61.2673 67.7949 61.2887 68.4568 61.1179 70.1437C60.7762 73.2825 59.7299 75.2256 58.1499 75.6526C55.5448 76.3573 53.5804 72.8128 53.8366 67.8163C54.1142 62.8838 56.463 60.4069 59.0467 62.35Z"></path>
<path fill="#231F20" d="M162.342 61.3673C158.947 61.8584 156.47 63.652 155.509 66.2997C155.104 67.4314 155.039 70.1005 155.402 71.3389C155.915 73.1752 158.007 75.161 159.972 75.6949C162.662 76.4422 165.46 76.2927 167.638 75.3105C168.961 74.734 169.517 74.7767 169.517 75.46C169.517 75.6949 169.666 75.887 169.837 75.887C170.114 75.887 170.157 75.4173 170.157 73.0044C170.157 70.3567 170.2 70.1005 170.584 69.8656C170.819 69.7161 171.011 69.524 171.011 69.4385C171.011 69.3318 169.282 69.2677 167.168 69.2677C163.538 69.2677 162.299 69.4813 164.178 69.7802C164.691 69.8656 165.097 70.0791 165.246 70.314C165.353 70.5489 165.46 71.6806 165.46 72.855C165.46 75.3105 165.246 75.6735 163.837 75.6735C162.513 75.6735 161.403 74.9048 160.677 73.4742C160.121 72.3852 160.036 71.9582 159.951 69.8656C159.822 67.0684 160.1 65.6378 161.018 64.2712C162.278 62.3495 164.883 61.4954 166.677 62.3922C167.787 62.9687 168.556 63.8869 169.025 65.2107C169.666 67.0044 169.944 66.5987 169.944 63.9296C169.944 61.5808 169.751 61.0256 169.324 62.2214C169.047 63.0328 168.833 63.0114 167.573 62.2214C166.976 61.8157 166.079 61.474 165.331 61.3673C163.944 61.1324 163.922 61.1324 162.342 61.3673Z"></path>
<path fill="#231F20" d="M67.2427 61.7741C67.2427 61.8809 67.5416 62.0304 67.8833 62.1158C68.2463 62.2012 68.6306 62.4361 68.7374 62.6496C68.8655 62.8845 68.9509 65.3827 68.9509 68.7351C68.9509 72.0874 68.8655 74.5857 68.7374 74.8205C68.6306 75.0341 68.2463 75.269 67.8833 75.3544C66.2605 75.7174 67.5416 75.8882 71.7267 75.8882C75.9972 75.8882 77.3211 75.696 75.3353 75.3544C73.7125 75.0768 73.3495 74.2013 73.4776 70.7636L73.5417 68.9486L74.2677 68.9913C75.2286 69.034 76.0186 69.6319 76.5311 70.7209C76.7659 71.212 77.0222 71.6177 77.1076 71.6177C77.2143 71.6177 77.2784 70.3152 77.2784 68.7351C77.2784 66.5144 77.2143 65.8525 77.0008 65.8525C76.8513 65.8525 76.5951 66.1941 76.467 66.5998C76.0827 67.6034 75.0791 68.4148 74.1609 68.4148H73.4349V65.8738C73.4349 64.4646 73.5203 63.0766 73.6485 62.7777C73.8406 62.2652 73.9688 62.2225 75.0364 62.2225C76.9368 62.2225 78.0471 63.0339 78.7517 64.913C79.3496 66.493 79.6272 66.3649 79.6272 64.5073C79.6272 63.6318 79.6912 62.6069 79.7553 62.2439L79.9048 61.582H73.5631C69.8477 61.582 67.2427 61.6674 67.2427 61.7741Z"></path>
<path fill="#231F20" d="M80.9101 61.7741C80.9101 61.8809 81.209 62.0304 81.5507 62.1158C81.9137 62.2012 82.298 62.4361 82.4048 62.6496C82.5329 62.8845 82.6183 65.3827 82.6183 68.7351C82.6183 72.0874 82.5329 74.5857 82.4048 74.8205C82.298 75.0341 81.9137 75.269 81.5507 75.3544C79.9919 75.696 81.1663 75.8882 84.8603 75.8882C88.7038 75.8882 89.4938 75.7387 88.17 75.269C87.7856 75.1408 87.444 74.8205 87.3159 74.5003C87.0383 73.7529 87.0383 63.6959 87.3159 62.9699C87.444 62.6496 87.807 62.2866 88.17 62.1585C88.533 62.0304 88.8105 61.8382 88.8105 61.7528C88.8105 61.6674 87.0383 61.582 84.8603 61.582C82.5969 61.582 80.9101 61.6674 80.9101 61.7741Z"></path>
<path fill="#231F20" d="M93.5078 67.6888C91.458 72.4291 90.6466 74.0305 90.0487 74.6711C89.6003 75.1408 89.2373 75.6106 89.2373 75.7174C89.2373 75.8028 90.3476 75.8882 91.6929 75.8882C93.0381 75.8882 94.1484 75.8028 94.1484 75.7174C94.1484 75.6106 93.7854 75.4184 93.3156 75.2903C92.8672 75.1408 92.3548 74.8846 92.2053 74.6924C91.821 74.2227 91.8637 72.8988 92.3334 71.7244L92.6964 70.7636H94.8744H97.0737L97.7783 72.3009C98.6965 74.3935 98.7178 74.8419 97.8424 75.2262C97.458 75.3971 97.1378 75.6106 97.1378 75.7174C97.1378 75.8028 98.8673 75.8882 100.981 75.8882C103.095 75.8882 104.825 75.8241 104.825 75.7387C104.825 75.6533 104.568 75.333 104.27 75.0127C103.971 74.7138 102.412 71.575 100.789 68.0731L97.8424 61.6887L97.0096 61.6247L96.1555 61.5606L93.5078 67.6888ZM96.1769 68.6497L96.9029 70.3365H94.8957H92.8672L93.4224 69.0981C93.7213 68.4361 94.1698 67.4112 94.4046 66.8347L94.853 65.8098L95.152 66.3863C95.3228 66.6852 95.7925 67.7101 96.1769 68.6497Z"></path>
<path fill="#231F20" d="M107.809 61.7528C107.809 61.8595 108.022 62.1371 108.3 62.3934C108.577 62.6496 110.243 65.7884 111.994 69.3756L115.175 75.8882L116.008 75.8455L116.862 75.7814L119.254 69.9522C121.496 64.4859 122.478 62.5215 123.118 62.2866C123.268 62.2225 123.396 62.0517 123.396 61.8809C123.396 61.646 122.905 61.582 120.94 61.582C119.595 61.582 118.485 61.6674 118.485 61.7528C118.485 61.8382 118.827 62.0517 119.232 62.2012C119.638 62.3506 120.086 62.6709 120.214 62.9058C120.684 63.7813 120.321 65.8311 119.254 68.5215C118.677 69.9308 118.143 71.1693 118.058 71.2547C117.844 71.5109 113.937 63.1407 114.086 62.7563C114.15 62.5642 114.492 62.3079 114.855 62.2012C116.179 61.7314 115.41 61.582 111.652 61.582C109.538 61.582 107.809 61.6674 107.809 61.7528Z"></path>
<path fill="#231F20" d="M123.831 61.7741C123.831 61.8809 124.087 62.0304 124.408 62.1158C125.561 62.3934 125.539 62.2652 125.539 68.7351C125.539 75.2049 125.561 75.0768 124.408 75.3544C122.849 75.7601 124.344 75.8882 130.344 75.8882H136.856V73.4326C136.856 71.5109 136.792 70.9771 136.579 70.9771C136.408 70.9771 136.173 71.3828 136.023 71.8739C135.361 74.1373 133.974 75.2476 131.753 75.2476C130.813 75.2476 130.472 75.1622 130.365 74.906C130.301 74.7138 130.237 73.2618 130.237 71.6817V68.7991L131.048 68.9486C131.988 69.1194 132.927 69.9308 133.269 70.913C133.504 71.575 133.995 71.7885 133.952 71.2333C133.931 71.0838 133.909 69.824 133.909 68.4148C133.867 65.7671 133.675 65.2973 133.141 66.5571C132.756 67.518 131.646 68.4148 130.856 68.4148H130.237V65.6603C130.237 64.1443 130.301 62.7563 130.365 62.5642C130.536 62.0944 132.607 62.1158 133.589 62.5855C134.401 62.9699 135.169 64.0161 135.575 65.2546C136.023 66.7493 136.322 66.2368 136.365 63.824L136.408 61.582H130.13C126.586 61.582 123.831 61.6674 123.831 61.7741Z"></path>
<path fill="#231F20" d="M138.562 61.7733C138.562 61.88 138.861 62.0295 139.203 62.1149C139.566 62.2003 139.95 62.4352 140.057 62.6487C140.185 62.8836 140.27 65.3819 140.27 68.7342C140.27 72.0866 140.185 74.5848 140.057 74.8197C139.95 75.0332 139.566 75.2681 139.203 75.3535C137.644 75.6951 138.818 75.8873 142.512 75.8873C144.69 75.8873 146.462 75.8019 146.462 75.7165C146.462 75.6097 146.142 75.3962 145.779 75.2254C144.925 74.8624 144.818 74.4353 144.776 71.5527L144.754 69.4815H145.48C146.526 69.4815 146.911 70.1008 147.53 72.6417C148.128 75.204 148.576 75.7806 150.199 76.0795C151.544 76.3357 153.317 76.0581 154.149 75.4603C155.025 74.841 154.961 74.6275 153.957 74.7556C152.996 74.8837 152.868 74.7343 152.441 72.898C151.907 70.5492 151.48 70.1435 149.003 69.5029C148.128 69.268 147.679 69.0758 147.978 69.0758C148.918 69.0331 150.818 68.3926 151.544 67.8587C152.441 67.1755 152.868 66.3 152.868 65.1897C152.868 63.3534 151.544 62.243 148.811 61.816C147.082 61.5384 138.562 61.4957 138.562 61.7733ZM147.338 62.5633C148.107 63.2679 148.405 65.5313 147.957 67.1755C147.637 68.2644 146.847 68.841 145.672 68.841H144.711L144.776 65.7662C144.882 62.243 145.01 61.9014 146.206 62.0936C146.612 62.1576 147.124 62.3711 147.338 62.5633Z"></path>
<path fill="#231F20" d="M175.2 67.881C173.001 72.9415 172.296 74.3294 171.72 74.8205C171.335 75.1622 171.015 75.5465 171.015 75.6747C171.015 75.8028 171.933 75.8882 173.471 75.8882C174.816 75.8882 175.926 75.8028 175.926 75.7174C175.926 75.6106 175.563 75.4184 175.093 75.2903C174.069 74.97 173.748 74.607 173.748 73.7102C173.748 72.9415 174.111 71.4682 174.389 71.0198C174.517 70.8276 175.158 70.7636 176.759 70.8063L178.937 70.8703L179.706 72.6212C180.111 73.6035 180.41 74.543 180.325 74.7138C180.261 74.906 179.919 75.1622 179.556 75.269C178.232 75.7387 179.001 75.8882 182.759 75.8882C184.873 75.8882 186.603 75.8241 186.603 75.7387C186.603 75.6533 186.368 75.333 186.069 75.0341C185.77 74.7351 184.211 71.5963 182.588 68.0731L179.642 61.6887L178.787 61.6247L177.955 61.5606L175.2 67.881ZM177.763 68.1372L178.681 70.2297L176.844 70.2938C175.841 70.3365 174.965 70.2938 174.901 70.2297C174.837 70.187 175.2 69.1621 175.713 67.9877C176.204 66.792 176.674 65.8952 176.738 65.9592C176.802 66.0019 177.25 67.0055 177.763 68.1372Z"></path>
<path fill="#231F20" d="M187.034 61.7742C187.034 61.8809 187.333 62.0304 187.674 62.1158C188.037 62.2012 188.422 62.4361 188.528 62.6496C188.656 62.8845 188.742 65.3827 188.742 68.7351C188.742 72.0875 188.656 74.5857 188.528 74.8206C188.422 75.0341 188.037 75.269 187.674 75.3544C186.115 75.696 187.29 75.8882 190.984 75.8882C193.162 75.8882 194.934 75.8028 194.934 75.7174C194.934 75.6106 194.614 75.3971 194.251 75.2263C193.397 74.8419 193.269 74.4362 193.247 71.6604L193.226 69.4824H193.952C194.998 69.4824 195.404 70.123 195.959 72.6213C196.343 74.3081 196.557 74.8633 197.027 75.2903C197.838 76.0377 198.35 76.1871 198.35 75.6747C198.35 75.4398 198.607 75.1195 198.948 74.9487C199.568 74.6284 200.699 72.8134 200.699 72.1302C200.699 71.4255 199.867 70.3152 199.076 69.9949C198.649 69.8241 197.774 69.5678 197.112 69.4397L195.916 69.1835L197.219 68.9273C199.888 68.3935 201.34 67.091 201.34 65.2333C201.34 63.3543 200.037 62.2439 197.283 61.8169C195.553 61.5393 187.034 61.4966 187.034 61.7742ZM195.745 62.5001C196.301 62.9486 196.642 64.0802 196.642 65.4255C196.642 67.6888 195.831 68.8419 194.251 68.8419H193.439V65.639C193.439 62.8418 193.482 62.4361 193.824 62.2226C194.251 61.9663 195.276 62.1158 195.745 62.5001Z"></path>
<path fill="#231F20" d="M203.598 67.881C201.398 72.9629 200.715 74.3081 200.139 74.8205C199.733 75.1622 199.413 75.5465 199.413 75.6747C199.413 75.8028 200.331 75.8882 201.868 75.8882C204.217 75.8882 204.986 75.6747 203.747 75.3544C202.551 75.0768 202.188 74.6711 202.188 73.6889C202.188 73.1764 202.338 72.3009 202.53 71.7458L202.872 70.7422L205.114 70.8063L207.356 70.8703L208.103 72.6212C208.53 73.5821 208.808 74.5216 208.722 74.7138C208.658 74.906 208.317 75.1622 207.954 75.269C206.63 75.7387 207.398 75.8882 211.157 75.8882C213.27 75.8882 215 75.8241 215 75.7387C215 75.6533 214.765 75.3544 214.466 75.0341C214.189 74.7351 212.608 71.6177 210.986 68.0945L208.039 61.6887L207.185 61.6247L206.352 61.5606L203.598 67.881ZM206.181 68.1585L207.078 70.2297L205.242 70.2938C204.238 70.3365 203.363 70.2938 203.299 70.2297C203.235 70.187 203.598 69.1621 204.11 67.9877C204.601 66.792 205.071 65.8952 205.135 65.9592C205.199 66.0233 205.669 67.0055 206.181 68.1585Z"></path>
</svg>
