<svg xmlns="http://www.w3.org/2000/svg" fill="none" viewBox="0 0 32 32" height="32" width="32">
<path fill="url(#paint0_linear_5532_30531)" d="M16.002 10.0001C14.8153 10.0001 13.6553 10.352 12.6686 11.0112C11.6819 11.6705 10.9129 12.6076 10.4587 13.704C10.0046 14.8003 9.88579 16.0067 10.1173 17.1706C10.3488 18.3345 10.9203 19.4036 11.7594 20.2427C12.5985 21.0818 13.6676 21.6533 14.8315 21.8848C15.9954 22.1163 17.2018 21.9975 18.2981 21.5433C19.3945 21.0892 20.3315 20.3202 20.9908 19.3335C21.6501 18.3468 22.002 17.1867 22.002 16.0001C22.0004 14.4093 21.3677 12.8841 20.2428 11.7592C19.118 10.6344 17.5928 10.0017 16.002 10.0001ZM16.002 20.0001C15.2109 20.0001 14.4375 19.7655 13.7797 19.3259C13.1219 18.8864 12.6092 18.2617 12.3065 17.5308C12.0037 16.7999 11.9245 15.9956 12.0789 15.2197C12.2332 14.4438 12.6142 13.731 13.1736 13.1716C13.733 12.6122 14.4457 12.2313 15.2216 12.0769C15.9976 11.9226 16.8018 12.0018 17.5327 12.3045C18.2636 12.6073 18.8884 13.12 19.3279 13.7778C19.7674 14.4356 20.002 15.2089 20.002 16.0001C20.002 17.0609 19.5806 18.0783 18.8304 18.8285C18.0803 19.5786 17.0629 20.0001 16.002 20.0001ZM27.002 16.2701C27.007 16.0901 27.007 15.9101 27.002 15.7301L28.867 13.4001C28.9648 13.2777 29.0325 13.1341 29.0646 12.9808C29.0968 12.8276 29.0924 12.6689 29.052 12.5176C28.7463 11.3683 28.2889 10.2649 27.692 9.23631C27.6139 9.1017 27.5054 8.9872 27.3751 8.90192C27.2449 8.81664 27.0966 8.76292 26.942 8.74506L23.977 8.41506C23.8537 8.28506 23.7287 8.16006 23.602 8.04006L23.252 5.06756C23.234 4.91282 23.1801 4.76443 23.0946 4.63422C23.0091 4.50401 22.8943 4.39557 22.7595 4.31756C21.7306 3.72174 20.6272 3.26485 19.4783 2.95881C19.3269 2.91855 19.1681 2.91444 19.0148 2.94679C18.8615 2.97914 18.718 3.04705 18.5958 3.14506L16.272 5.00006C16.092 5.00006 15.912 5.00006 15.732 5.00006L13.402 3.13881C13.2797 3.04102 13.1361 2.97333 12.9828 2.9412C12.8295 2.90906 12.6708 2.91338 12.5195 2.95381C11.3704 3.26009 10.2671 3.71741 9.23826 4.31381C9.10366 4.39196 8.98916 4.50046 8.90387 4.63067C8.81859 4.76087 8.76488 4.90919 8.74701 5.06381L8.41701 8.03381C8.28701 8.15797 8.16201 8.28297 8.04201 8.40881L5.06951 8.75006C4.91478 8.76806 4.76639 8.82196 4.63617 8.90747C4.50596 8.99298 4.39752 9.10772 4.31951 9.24256C3.72369 10.2715 3.2668 11.3749 2.96076 12.5238C2.92051 12.6752 2.91639 12.834 2.94874 12.9872C2.98109 13.1405 3.04901 13.2841 3.14701 13.4063L5.00201 15.7301C5.00201 15.9101 5.00201 16.0901 5.00201 16.2701L3.14076 18.6001C3.04297 18.7224 2.97528 18.866 2.94315 19.0193C2.91102 19.1726 2.91534 19.3312 2.95576 19.4826C3.2615 20.6318 3.71885 21.7352 4.31576 22.7638C4.39392 22.8984 4.50242 23.0129 4.63262 23.0982C4.76283 23.1835 4.91114 23.2372 5.06576 23.2551L8.03076 23.5851C8.15493 23.7151 8.27993 23.8401 8.40576 23.9601L8.75201 26.9326C8.77001 27.0873 8.82392 27.2357 8.90942 27.3659C8.99493 27.4961 9.10967 27.6045 9.24451 27.6826C10.2735 28.2784 11.3768 28.7353 12.5258 29.0413C12.6772 29.0816 12.8359 29.0857 12.9892 29.0533C13.1425 29.021 13.286 28.9531 13.4083 28.8551L15.732 27.0001C15.912 27.0051 16.092 27.0051 16.272 27.0001L18.602 28.8651C18.7243 28.9628 18.8679 29.0305 19.0212 29.0627C19.1745 29.0948 19.3332 29.0905 19.4845 29.0501C20.6338 28.7443 21.7372 28.287 22.7658 27.6901C22.9004 27.6119 23.0149 27.5034 23.1001 27.3732C23.1854 27.243 23.2391 27.0947 23.257 26.9401L23.587 23.9751C23.717 23.8517 23.842 23.7267 23.962 23.6001L26.9345 23.2501C27.0892 23.2321 27.2376 23.1782 27.3678 23.0926C27.4981 23.0071 27.6065 22.8924 27.6845 22.7576C28.2803 21.7286 28.7372 20.6253 29.0433 19.4763C29.0835 19.3249 29.0876 19.1662 29.0553 19.0129C29.0229 18.8596 28.955 18.716 28.857 18.5938L27.002 16.2701ZM24.9895 15.4576C25.0108 15.8189 25.0108 16.1812 24.9895 16.5426C24.9746 16.79 25.0521 17.0341 25.207 17.2276L26.9808 19.4438C26.7772 20.0906 26.5166 20.7181 26.202 21.3188L23.377 21.6388C23.131 21.6661 22.9038 21.7837 22.7395 21.9688C22.4989 22.2394 22.2426 22.4957 21.972 22.7363C21.7869 22.9006 21.6693 23.1278 21.642 23.3738L21.3283 26.1963C20.7276 26.5111 20.1002 26.7717 19.4533 26.9751L17.2358 25.2013C17.0583 25.0595 16.8379 24.9824 16.6108 24.9826H16.5508C16.1894 25.0038 15.8271 25.0038 15.4658 24.9826C15.2184 24.9677 14.9743 25.0452 14.7808 25.2001L12.5583 26.9751C11.9114 26.7715 11.284 26.5109 10.6833 26.1963L10.3633 23.3751C10.336 23.129 10.2184 22.9019 10.0333 22.7376C9.76265 22.4969 9.50637 22.2407 9.26576 21.9701C9.10143 21.7849 8.87428 21.6674 8.62826 21.6401L5.80576 21.3251C5.491 20.7244 5.23039 20.0969 5.02701 19.4501L6.80076 17.2326C6.95564 17.0391 7.03315 16.795 7.01826 16.5476C6.99701 16.1862 6.99701 15.8239 7.01826 15.4626C7.03315 15.2152 6.95564 14.971 6.80076 14.7776L5.02701 12.5563C5.23054 11.9095 5.49115 11.282 5.80576 10.6813L8.62701 10.3613C8.87303 10.334 9.10018 10.2164 9.26451 10.0313C9.50512 9.76069 9.7614 9.50442 10.032 9.26381C10.2179 9.09937 10.3359 8.8717 10.3633 8.62506L10.677 5.80381C11.2776 5.48905 11.9051 5.22843 12.552 5.02506L14.7695 6.79881C14.963 6.95369 15.2071 7.0312 15.4545 7.01631C15.8159 6.99506 16.1782 6.99506 16.5395 7.01631C16.7869 7.0312 17.031 6.95369 17.2245 6.79881L19.4458 5.02506C20.0926 5.22859 20.7201 5.4892 21.3208 5.80381L21.6408 8.62506C21.6681 8.87108 21.7857 9.09822 21.9708 9.26256C22.2414 9.50317 22.4976 9.75944 22.7383 10.0301C22.9026 10.2152 23.1297 10.3327 23.3758 10.3601L26.1983 10.6738C26.513 11.2744 26.7736 11.9019 26.977 12.5488L25.2033 14.7663C25.0469 14.9614 24.9693 15.2081 24.9858 15.4576H24.9895Z"></path>
<defs>
<linearGradient gradientUnits="userSpaceOnUse" y2="15.9036" x2="29.0859" y1="15.9036" x1="2.92187" id="paint0_linear_5532_30531">
<stop stop-color="#F7D379"></stop>
<stop stop-color="#E9BE65" offset="0.130208"></stop>
<stop stop-color="#F5E583" offset="0.234375"></stop>
<stop stop-color="#C89447" offset="0.387985"></stop>
<stop stop-color="#DCAB57" offset="0.4606"></stop>
<stop stop-color="#D6A453" offset="0.546183"></stop>
<stop stop-color="#F7D87B" offset="0.639546"></stop>
<stop stop-color="#A57331" offset="0.735503"></stop>
<stop stop-color="#C18D42" offset="0.834053"></stop>
<stop stop-color="#C08A41" offset="1"></stop>
</linearGradient>
</defs>
</svg>
