<svg xmlns="http://www.w3.org/2000/svg" fill="none" viewBox="0 0 32 32" height="32" width="32">
<path stroke-linecap="round" stroke-width="1.83333" stroke="url(#paint0_linear_5532_14362)" d="M13.9974 22.9368C13.9974 23.4576 13.9974 23.8829 13.9974 24.2122C13.9974 24.7791 13.9974 25.6294 13.9974 26.7631C13.9974 27.1266 13.7155 27.4214 13.3678 27.4214H3.29369C2.94596 27.4214 2.66406 27.1266 2.66406 26.7631V5.03964C2.66406 4.67608 2.94596 4.38135 3.29369 4.38135H13.3678C13.7155 4.38135 13.9974 4.67608 13.9974 5.03964C13.9974 6.17335 13.9974 7.02365 13.9974 7.5905C13.9974 7.91991 13.9974 8.34506 13.9974 8.86589"></path>
<path stroke-linecap="round" stroke-width="1.83333" stroke="url(#paint1_linear_5532_14362)" d="M18 8.86589C18 8.34506 18 7.91991 18 7.5905C18 7.02365 18 6.17335 18 5.03964C18 4.67608 18.2819 4.38135 18.6296 4.38135H28.7037C29.0515 4.38135 29.3333 4.67608 29.3333 5.03964V26.7631C29.3333 27.1266 29.0515 27.4214 28.7037 27.4214H18.6296C18.2819 27.4214 18 27.1266 18 26.7631C18 25.6294 18 24.7791 18 24.2122C18 23.8829 18 23.4576 18 22.9368"></path>
<path fill="url(#paint2_linear_5532_14362)" d="M8.33333 24.8613C9.06973 24.8613 9.66667 24.2882 9.66667 23.5813C9.66667 22.8743 9.06973 22.3013 8.33333 22.3013C7.59693 22.3013 7 22.8743 7 23.5813C7 24.2882 7.59693 24.8613 8.33333 24.8613Z"></path>
<path fill="url(#paint3_linear_5532_14362)" d="M23.6693 24.8613C24.4057 24.8613 25.0026 24.2882 25.0026 23.5813C25.0026 22.8743 24.4057 22.3013 23.6693 22.3013C22.9329 22.3013 22.3359 22.8743 22.3359 23.5813C22.3359 24.2882 22.9329 24.8613 23.6693 24.8613Z"></path>
<path stroke-linecap="round" stroke-width="1.83333" stroke="url(#paint4_linear_5532_14362)" d="M10.6641 15.5811H21.3307"></path>
<path stroke-linejoin="round" stroke-linecap="round" stroke-width="1.83333" stroke="url(#paint5_linear_5532_14362)" d="M18.1484 18.6358L19.2091 17.6175L21.3304 15.581L19.2091 13.5446L18.1484 12.5264"></path>
<defs>
<linearGradient gradientUnits="userSpaceOnUse" y2="15.8148" x2="13.9974" y1="15.8148" x1="2.66406" id="paint0_linear_5532_14362">
<stop stop-color="#F7D379"></stop>
<stop stop-color="#E9BE65" offset="0.130208"></stop>
<stop stop-color="#F5E583" offset="0.234375"></stop>
<stop stop-color="#C89447" offset="0.387985"></stop>
<stop stop-color="#DCAB57" offset="0.4606"></stop>
<stop stop-color="#D6A453" offset="0.546183"></stop>
<stop stop-color="#F7D87B" offset="0.639546"></stop>
<stop stop-color="#A57331" offset="0.735503"></stop>
<stop stop-color="#C18D42" offset="0.834053"></stop>
<stop stop-color="#C08A41" offset="1"></stop>
</linearGradient>
<linearGradient gradientUnits="userSpaceOnUse" y2="15.8148" x2="29.3333" y1="15.8148" x1="18" id="paint1_linear_5532_14362">
<stop stop-color="#F7D379"></stop>
<stop stop-color="#E9BE65" offset="0.130208"></stop>
<stop stop-color="#F5E583" offset="0.234375"></stop>
<stop stop-color="#C89447" offset="0.387985"></stop>
<stop stop-color="#DCAB57" offset="0.4606"></stop>
<stop stop-color="#D6A453" offset="0.546183"></stop>
<stop stop-color="#F7D87B" offset="0.639546"></stop>
<stop stop-color="#A57331" offset="0.735503"></stop>
<stop stop-color="#C18D42" offset="0.834053"></stop>
<stop stop-color="#C08A41" offset="1"></stop>
</linearGradient>
<linearGradient gradientUnits="userSpaceOnUse" y2="23.5716" x2="9.66667" y1="23.5716" x1="7" id="paint2_linear_5532_14362">
<stop stop-color="#F7D379"></stop>
<stop stop-color="#E9BE65" offset="0.130208"></stop>
<stop stop-color="#F5E583" offset="0.234375"></stop>
<stop stop-color="#C89447" offset="0.387985"></stop>
<stop stop-color="#DCAB57" offset="0.4606"></stop>
<stop stop-color="#D6A453" offset="0.546183"></stop>
<stop stop-color="#F7D87B" offset="0.639546"></stop>
<stop stop-color="#A57331" offset="0.735503"></stop>
<stop stop-color="#C18D42" offset="0.834053"></stop>
<stop stop-color="#C08A41" offset="1"></stop>
</linearGradient>
<linearGradient gradientUnits="userSpaceOnUse" y2="23.5716" x2="25.0026" y1="23.5716" x1="22.3359" id="paint3_linear_5532_14362">
<stop stop-color="#F7D379"></stop>
<stop stop-color="#E9BE65" offset="0.130208"></stop>
<stop stop-color="#F5E583" offset="0.234375"></stop>
<stop stop-color="#C89447" offset="0.387985"></stop>
<stop stop-color="#DCAB57" offset="0.4606"></stop>
<stop stop-color="#D6A453" offset="0.546183"></stop>
<stop stop-color="#F7D87B" offset="0.639546"></stop>
<stop stop-color="#A57331" offset="0.735503"></stop>
<stop stop-color="#C18D42" offset="0.834053"></stop>
<stop stop-color="#C08A41" offset="1"></stop>
</linearGradient>
<linearGradient gradientUnits="userSpaceOnUse" y2="16.0773" x2="21.3307" y1="16.0773" x1="10.6641" id="paint4_linear_5532_14362">
<stop stop-color="#F7D379"></stop>
<stop stop-color="#E9BE65" offset="0.130208"></stop>
<stop stop-color="#F5E583" offset="0.234375"></stop>
<stop stop-color="#C89447" offset="0.387985"></stop>
<stop stop-color="#DCAB57" offset="0.4606"></stop>
<stop stop-color="#D6A453" offset="0.546183"></stop>
<stop stop-color="#F7D87B" offset="0.639546"></stop>
<stop stop-color="#A57331" offset="0.735503"></stop>
<stop stop-color="#C18D42" offset="0.834053"></stop>
<stop stop-color="#C08A41" offset="1"></stop>
</linearGradient>
<linearGradient gradientUnits="userSpaceOnUse" y2="15.5581" x2="21.3304" y1="15.5581" x1="18.1484" id="paint5_linear_5532_14362">
<stop stop-color="#F7D379"></stop>
<stop stop-color="#E9BE65" offset="0.130208"></stop>
<stop stop-color="#F5E583" offset="0.234375"></stop>
<stop stop-color="#C89447" offset="0.387985"></stop>
<stop stop-color="#DCAB57" offset="0.4606"></stop>
<stop stop-color="#D6A453" offset="0.546183"></stop>
<stop stop-color="#F7D87B" offset="0.639546"></stop>
<stop stop-color="#A57331" offset="0.735503"></stop>
<stop stop-color="#C18D42" offset="0.834053"></stop>
<stop stop-color="#C08A41" offset="1"></stop>
</linearGradient>
</defs>
</svg>
