<svg xmlns="http://www.w3.org/2000/svg" fill="none" viewBox="0 0 107 31" height="31" width="107">
<g clip-path="url(#clip0_657_15220)">
<path fill="black" d="M68.0106 14.3714L68.015 14.3682C68.2142 14.2268 68.3797 14.0417 68.4995 13.8263C68.6192 13.6109 68.69 13.3708 68.7067 13.1237C68.721 12.8731 68.6762 12.6227 68.576 12.3936C68.4758 12.1644 68.3232 11.9632 68.131 11.8068C67.7471 11.5027 67.1988 11.3506 66.4861 11.3506C66.1027 11.3498 65.7209 11.4019 65.3511 11.5055C65.0478 11.5796 64.7597 11.7079 64.5 11.8843V14.6439H67.1692C67.4709 14.647 67.7657 14.5515 68.0106 14.3714V14.3714Z"></path>
<path fill="black" d="M104.85 0.705078L54.3711 2.661L54.4168 11.7019L46.1641 15.9829L54.4518 18.4947L54.4915 26.3288L106.646 30.8194L104.85 0.705078ZM70.8329 20.7035C70.0928 21.237 69.0051 21.5038 67.5697 21.5041C66.546 21.5041 65.4695 21.4696 64.3402 21.4007C63.2108 21.3318 62.3567 21.2515 61.7779 21.1597V9.91846C62.2363 9.61614 62.7414 9.39499 63.2718 9.26433C63.8816 9.08285 64.5036 8.94765 65.1329 8.85983C65.5754 8.79507 66.0213 8.75766 66.4682 8.74783C67.307 8.72854 68.1442 8.83006 68.9552 9.04937C69.5391 9.20755 70.0866 9.48253 70.5657 9.85836C70.953 10.1704 71.2501 10.5839 71.4255 11.0548C71.5899 11.5006 71.6747 11.9729 71.6758 12.4492C71.6851 13.064 71.5416 13.6712 71.2587 14.2139C70.9791 14.7375 70.5849 15.1881 70.1068 15.5306C70.5055 15.6938 70.8664 15.9402 71.1667 16.2538C71.4462 16.538 71.6551 16.8862 71.776 17.2696C71.8828 17.6091 71.9391 17.963 71.9428 18.3196C71.9428 19.3753 71.5728 20.1699 70.8329 20.7035ZM84.9689 17.3975C84.7482 18.1819 84.3765 18.9135 83.8757 19.5495C83.3771 20.1706 82.7424 20.663 82.0228 20.987C81.2176 21.3438 80.3468 21.5201 79.4692 21.5039C78.7953 21.4994 78.1258 21.392 77.4829 21.1853C76.7884 20.9636 76.1522 20.584 75.6221 20.075C75.0752 19.5688 74.64 18.9497 74.3452 18.2587C74.0747 17.641 73.8839 16.99 73.7777 16.3221C73.694 15.781 73.6494 15.2344 73.6442 14.6867C73.6327 13.8413 73.7625 13.0002 74.028 12.1994C74.2607 11.4975 74.6424 10.8567 75.1457 10.323C75.6644 9.79337 76.2955 9.39282 76.9901 9.15233C77.7929 8.87213 78.637 8.73522 79.4853 8.74761C80.3316 8.73459 81.1736 8.8746 81.9722 9.16116C82.6685 9.40487 83.2996 9.81105 83.8153 10.3474C84.3311 10.8838 84.7172 11.5356 84.9432 12.2511C85.2078 13.0581 85.3375 13.9048 85.327 14.7558C85.3337 15.6495 85.2131 16.5394 84.9689 17.3975V17.3975ZM94.8069 21.5035L92.1029 16.9588L89.7994 21.5035L86.428 20.918L90.1501 14.9617L86.5115 9.36771L90.0999 8.74783L92.2364 13.2582L94.5409 8.74783L98.0458 9.31602L94.2227 14.9624L98.2784 20.85L94.8069 21.5035Z"></path>
<path fill="black" d="M67.0369 16.7852H64.5V19.0235C64.6556 19.0463 65.0395 19.075 65.6516 19.1096C66.2638 19.1442 66.809 19.1614 67.2873 19.1613C68.4779 19.1613 69.073 18.6304 69.073 17.9982C69.073 17.1996 68.3944 16.7852 67.0369 16.7852Z"></path>
<path fill="black" d="M79.4817 11.3809C78.547 11.3809 77.8377 11.6735 77.3536 12.2588C76.8696 12.8441 76.6276 13.6761 76.6276 14.7549C76.6061 15.5237 76.7192 16.2903 76.9614 17.0186C77.1432 17.5633 77.4767 18.042 77.9211 18.3958C78.3766 18.7237 78.9248 18.8902 79.4817 18.8696C80.0278 18.8869 80.5644 18.7204 81.0089 18.3958C81.4576 18.037 81.7988 17.5569 81.9937 17.01C82.2518 16.2882 82.3734 15.523 82.3522 14.7549C82.3522 13.6759 82.1075 12.8439 81.6179 12.2588C81.1284 11.6736 80.4163 11.381 79.4817 11.3809Z"></path>
<path fill="black" d="M10.5168 18.8211C10.2872 14.8332 5.3489 14.3385 5.33456 14.3381L5.22427 14.3342C5.22427 14.3342 9.73382 13.5401 9.8749 9.85415C9.92636 8.5082 9.55857 7.39874 8.7821 6.55874C7.79895 5.49279 6.16502 4.90543 4.05639 4.8602C4.00346 4.8589 3.94842 4.85826 3.8919 4.85783C2.91825 4.85029 1.35032 4.94915 0.359375 5.05168C0.547273 10.2907 0.631838 17.5131 0.580804 23.9282H3.22108C3.31977 23.9282 3.41699 23.9236 3.51399 23.9245C5.78923 23.9419 7.44657 23.5844 8.58049 22.8006C9.83504 21.9335 10.6427 20.7702 10.5168 18.8211Z"></path>
<path fill="black" d="M41.2882 16.1128L41.3449 16.0654C41.373 16.042 46.3829 12.2598 49.9142 9.48625L48.2626 6.60007L39.739 9.41L39.7154 4.82227H35.793C35.793 4.82227 36.1167 15.7691 35.793 23.9271H40.2064C40.0217 22.8197 39.8945 21.7032 39.8253 20.5821L39.8217 20.4208L47.6736 23.878L49.5171 21.4809C46.4015 19.4406 41.5621 16.3825 41.3403 16.1641L41.2882 16.1128Z"></path>
<path fill="black" d="M13.8338 4.83984C13.0901 10.8577 11.6023 18.5277 10.4766 23.905H14.2303L15.3938 17.9711L17.2706 17.5912L17.2837 17.6571C17.2921 17.7001 18.0834 21.7111 18.7966 24.3509L22.6463 24.3037C21.3207 19.4527 20.1133 11.032 19.2844 4.83984H13.8338Z"></path>
<path fill="black" d="M30.9061 15.2774L30.9506 15.245C31.0326 15.1856 31.1108 15.1208 31.1847 15.0512C31.8942 14.5206 32.4724 13.828 32.8734 13.0287C33.2743 12.2293 33.4869 11.3454 33.4941 10.4473C33.4941 5.78978 29.721 4.8227 26.7517 4.8227C25.5793 4.81641 24.4076 4.87883 23.2422 5.00965C23.468 11.9298 23.5777 17.9391 23.5785 23.9075H27.1214C27.1201 21.9246 27.0716 20.3562 27.0246 18.8614C26.9976 18.008 26.985 17.5602 26.9675 16.7187L27.2444 16.7125C27.6885 17.6221 30.2104 22.2197 32.2902 24.3372L35.2139 22.4691C33.225 20.0447 31.5217 16.6321 30.9293 15.3286L30.9061 15.2774Z"></path>
</g>
<defs>
<clipPath id="clip0_657_15220">
<rect transform="translate(0.359375 0.705078)" fill="white" height="30.1143" width="106.286"></rect>
</clipPath>
</defs>
</svg>
