<svg width="6" height="36" viewBox="0 0 6 36" fill="none" xmlns="http://www.w3.org/2000/svg">
<path d="M0.0277303 3C0.0277303 4.47276 1.22164 5.66667 2.6944 5.66667C4.16716 5.66667 5.36106 4.47276 5.36106 3C5.36106 1.52724 4.16716 0.333333 2.6944 0.333333C1.22164 0.333333 0.0277303 1.52724 0.0277303 3ZM0.0277303 33.1716C0.0277303 34.6444 1.22164 35.8383 2.6944 35.8383C4.16716 35.8383 5.36106 34.6444 5.36106 33.1716C5.36106 31.6988 4.16716 30.5049 2.6944 30.5049C1.22164 30.5049 0.0277303 31.6988 0.0277303 33.1716ZM2.1944 3V5.5143H3.1944V3H2.1944ZM2.1944 10.5429V15.5715H3.1944V10.5429H2.1944ZM2.1944 20.6001V25.6287H3.1944V20.6001H2.1944ZM2.1944 30.6573V33.1716H3.1944V30.6573H2.1944Z" fill="black"/>
</svg>
