<svg xmlns="http://www.w3.org/2000/svg" fill="none" viewBox="0 0 32 32" height="32" width="32">
<path fill="black" d="M15.2933 13.7073C15.3862 13.8003 15.4964 13.874 15.6178 13.9244C15.7392 13.9747 15.8694 14.0006 16.0008 14.0006C16.1322 14.0006 16.2623 13.9747 16.3837 13.9244C16.5051 13.874 16.6154 13.8003 16.7083 13.7073L21.7083 8.70731C21.8013 8.61444 21.875 8.50415 21.9253 8.38275C21.9757 8.26135 22.0016 8.13123 22.0016 7.99981C22.0016 7.86839 21.9757 7.73827 21.9253 7.61687C21.875 7.49547 21.8013 7.38518 21.7083 7.29231L16.7083 2.29231C16.6154 2.19933 16.5051 2.12557 16.3837 2.07525C16.2623 2.02493 16.1322 1.99902 16.0008 1.99902C15.8694 1.99902 15.7392 2.02493 15.6178 2.07525C15.4964 2.12557 15.3862 2.19933 15.2933 2.29231L10.2933 7.29231C10.2003 7.38518 10.1266 7.49547 10.0762 7.61687C10.0259 7.73827 10 7.86839 10 7.99981C10 8.13123 10.0259 8.26135 10.0762 8.38275C10.1266 8.50415 10.2003 8.61444 10.2933 8.70731L15.2933 13.7073ZM16.0008 4.41356L19.587 7.99981L16.0008 11.5861L12.4145 7.99981L16.0008 4.41356ZM16.7083 18.2886C16.6154 18.1956 16.5051 18.1218 16.3837 18.0715C16.2623 18.0212 16.1322 17.9953 16.0008 17.9953C15.8694 17.9953 15.7392 18.0212 15.6178 18.0715C15.4964 18.1218 15.3862 18.1956 15.2933 18.2886L10.2933 23.2886C10.2003 23.3814 10.1266 23.4917 10.0762 23.6131C10.0259 23.7345 10 23.8646 10 23.9961C10 24.1275 10.0259 24.2576 10.0762 24.379C10.1266 24.5004 10.2003 24.6107 10.2933 24.7036L15.2933 29.7036C15.3862 29.7965 15.4964 29.8703 15.6178 29.9206C15.7392 29.9709 15.8694 29.9968 16.0008 29.9968C16.1322 29.9968 16.2623 29.9709 16.3837 29.9206C16.5051 29.8703 16.6154 29.7965 16.7083 29.7036L21.7083 24.7036C21.8013 24.6107 21.875 24.5004 21.9253 24.379C21.9757 24.2576 22.0016 24.1275 22.0016 23.9961C22.0016 23.8646 21.9757 23.7345 21.9253 23.6131C21.875 23.4917 21.8013 23.3814 21.7083 23.2886L16.7083 18.2886ZM16.0008 27.5861L12.4145 23.9998L16.0008 20.4136L19.587 23.9998L16.0008 27.5861ZM29.7083 15.2923L24.7083 10.2923C24.6154 10.1993 24.5051 10.1256 24.3837 10.0753C24.2623 10.0249 24.1322 9.99902 24.0008 9.99902C23.8694 9.99902 23.7392 10.0249 23.6178 10.0753C23.4964 10.1256 23.3862 10.1993 23.2933 10.2923L18.2933 15.2923C18.2003 15.3852 18.1265 15.4955 18.0762 15.6169C18.0259 15.7383 18 15.8684 18 15.9998C18 16.1312 18.0259 16.2614 18.0762 16.3828C18.1265 16.5041 18.2003 16.6144 18.2933 16.7073L23.2933 21.7073C23.3862 21.8003 23.4964 21.874 23.6178 21.9244C23.7392 21.9747 23.8694 22.0006 24.0008 22.0006C24.1322 22.0006 24.2623 21.9747 24.3837 21.9244C24.5051 21.874 24.6154 21.8003 24.7083 21.7073L29.7083 16.7073C29.8013 16.6144 29.875 16.5041 29.9253 16.3828C29.9757 16.2614 30.0016 16.1312 30.0016 15.9998C30.0016 15.8684 29.9757 15.7383 29.9253 15.6169C29.875 15.4955 29.8013 15.3852 29.7083 15.2923ZM24.0008 19.5861L20.4145 15.9998L24.0008 12.4136L27.587 15.9998L24.0008 19.5861ZM13.7083 15.2923L8.70829 10.2923C8.61541 10.1993 8.50513 10.1256 8.38373 10.0753C8.26233 10.0249 8.1322 9.99902 8.00079 9.99902C7.86937 9.99902 7.73924 10.0249 7.61785 10.0753C7.49645 10.1256 7.38616 10.1993 7.29329 10.2923L2.29329 15.2923C2.20031 15.3852 2.12655 15.4955 2.07623 15.6169C2.0259 15.7383 2 15.8684 2 15.9998C2 16.1312 2.0259 16.2614 2.07623 16.3828C2.12655 16.5041 2.20031 16.6144 2.29329 16.7073L7.29329 21.7073C7.38616 21.8003 7.49645 21.874 7.61785 21.9244C7.73924 21.9747 7.86937 22.0006 8.00079 22.0006C8.1322 22.0006 8.26233 21.9747 8.38373 21.9244C8.50513 21.874 8.61541 21.8003 8.70829 21.7073L13.7083 16.7073C13.8013 16.6144 13.875 16.5041 13.9253 16.3828C13.9757 16.2614 14.0016 16.1312 14.0016 15.9998C14.0016 15.8684 13.9757 15.7383 13.9253 15.6169C13.875 15.4955 13.8013 15.3852 13.7083 15.2923ZM8.00079 19.5861L4.41454 15.9998L8.00079 12.4136L11.587 15.9998L8.00079 19.5861Z"></path>
</svg>
