<svg xmlns="http://www.w3.org/2000/svg" fill="none" viewBox="0 0 32 32" height="32" width="32">
<path fill="url(#paint0_linear_4964_22873)" d="M9.45455 4C8.37574 4 7.32116 4.31991 6.42416 4.91926C5.52717 5.51861 4.82805 6.3705 4.4152 7.36718C4.00236 8.36387 3.89435 9.4606 4.10481 10.5187C4.31527 11.5768 4.83477 12.5487 5.5976 13.3115C6.36043 14.0743 7.33234 14.5938 8.39042 14.8043C9.4485 15.0147 10.5452 14.9067 11.5419 14.4939C12.5386 14.081 13.3905 13.3819 13.9898 12.4849C14.5892 11.5879 14.9091 10.5334 14.9091 9.45455C14.9091 8.00791 14.3344 6.62053 13.3115 5.5976C12.2886 4.57468 10.9012 4 9.45455 4ZM9.45455 12.7273C8.80726 12.7273 8.17451 12.5353 7.63632 12.1757C7.09812 11.8161 6.67865 11.305 6.43094 10.707C6.18324 10.109 6.11843 9.45092 6.2447 8.81607C6.37098 8.18122 6.68268 7.59808 7.14038 7.14038C7.59808 6.68268 8.18122 6.37098 8.81607 6.2447C9.45092 6.11843 10.109 6.18324 10.707 6.43094C11.305 6.67865 11.8161 7.09812 12.1757 7.63632C12.5353 8.17451 12.7273 8.80726 12.7273 9.45455C12.7273 10.3225 12.3825 11.155 11.7687 11.7687C11.155 12.3825 10.3225 12.7273 9.45455 12.7273ZM22.5455 14.9091C23.6243 14.9091 24.6788 14.5892 25.5758 13.9898C26.4728 13.3905 27.172 12.5386 27.5848 11.5419C27.9976 10.5452 28.1057 9.4485 27.8952 8.39042C27.6847 7.33234 27.1652 6.36043 26.4024 5.5976C25.6396 4.83477 24.6677 4.31527 23.6096 4.10481C22.5515 3.89435 21.4548 4.00236 20.4581 4.4152C19.4614 4.82805 18.6095 5.52717 18.0102 6.42416C17.4108 7.32116 17.0909 8.37574 17.0909 9.45455C17.0909 10.9012 17.6656 12.2886 18.6885 13.3115C19.7114 14.3344 21.0988 14.9091 22.5455 14.9091ZM22.5455 6.18182C23.1927 6.18182 23.8255 6.37376 24.3637 6.73337C24.9019 7.09299 25.3214 7.60412 25.5691 8.20213C25.8168 8.80014 25.8816 9.45818 25.7553 10.093C25.629 10.7279 25.3173 11.311 24.8596 11.7687C24.4019 12.2264 23.8188 12.5381 23.1839 12.6644C22.5491 12.7907 21.891 12.7259 21.293 12.4782C20.695 12.2304 20.1839 11.811 19.8243 11.2728C19.4647 10.7346 19.2727 10.1018 19.2727 9.45455C19.2727 8.58657 19.6175 7.75413 20.2313 7.14038C20.845 6.52662 21.6775 6.18182 22.5455 6.18182ZM9.45455 17.0909C8.37574 17.0909 7.32116 17.4108 6.42416 18.0102C5.52717 18.6095 4.82805 19.4614 4.4152 20.4581C4.00236 21.4548 3.89435 22.5515 4.10481 23.6096C4.31527 24.6677 4.83477 25.6396 5.5976 26.4024C6.36043 27.1652 7.33234 27.6847 8.39042 27.8952C9.4485 28.1057 10.5452 27.9976 11.5419 27.5848C12.5386 27.172 13.3905 26.4728 13.9898 25.5758C14.5892 24.6788 14.9091 23.6243 14.9091 22.5455C14.9091 21.0988 14.3344 19.7114 13.3115 18.6885C12.2886 17.6656 10.9012 17.0909 9.45455 17.0909ZM9.45455 25.8182C8.80726 25.8182 8.17451 25.6262 7.63632 25.2666C7.09812 24.907 6.67865 24.3959 6.43094 23.7979C6.18324 23.1999 6.11843 22.5418 6.2447 21.907C6.37098 21.2721 6.68268 20.689 7.14038 20.2313C7.59808 19.7736 8.18122 19.4619 8.81607 19.3356C9.45092 19.2093 10.109 19.2741 10.707 19.5218C11.305 19.7696 11.8161 20.189 12.1757 20.7272C12.5353 21.2654 12.7273 21.8982 12.7273 22.5455C12.7273 23.4134 12.3825 24.2459 11.7687 24.8596C11.155 25.4734 10.3225 25.8182 9.45455 25.8182ZM28 22.5455C28 22.8348 27.8851 23.1123 27.6805 23.3168C27.4759 23.5214 27.1984 23.6364 26.9091 23.6364H23.6364V26.9091C23.6364 27.1984 23.5214 27.4759 23.3168 27.6805C23.1123 27.8851 22.8348 28 22.5455 28C22.2561 28 21.9786 27.8851 21.7741 27.6805C21.5695 27.4759 21.4545 27.1984 21.4545 26.9091V23.6364H18.1818C17.8925 23.6364 17.615 23.5214 17.4104 23.3168C17.2058 23.1123 17.0909 22.8348 17.0909 22.5455C17.0909 22.2561 17.2058 21.9786 17.4104 21.7741C17.615 21.5695 17.8925 21.4545 18.1818 21.4545H21.4545V18.1818C21.4545 17.8925 21.5695 17.615 21.7741 17.4104C21.9786 17.2058 22.2561 17.0909 22.5455 17.0909C22.8348 17.0909 23.1123 17.2058 23.3168 17.4104C23.5214 17.615 23.6364 17.8925 23.6364 18.1818V21.4545H26.9091C27.1984 21.4545 27.4759 21.5695 27.6805 21.7741C27.8851 21.9786 28 22.2561 28 22.5455Z"></path>
<defs>
<linearGradient gradientUnits="userSpaceOnUse" y2="15.9098" x2="28" y1="15.9098" x1="4" id="paint0_linear_4964_22873">
<stop stop-color="#F7D379"></stop>
<stop stop-color="#E9BE65" offset="0.130208"></stop>
<stop stop-color="#F5E583" offset="0.234375"></stop>
<stop stop-color="#C89447" offset="0.387985"></stop>
<stop stop-color="#DCAB57" offset="0.4606"></stop>
<stop stop-color="#D6A453" offset="0.546183"></stop>
<stop stop-color="#F7D87B" offset="0.639546"></stop>
<stop stop-color="#A57331" offset="0.735503"></stop>
<stop stop-color="#C18D42" offset="0.834053"></stop>
<stop stop-color="#C08A41" offset="1"></stop>
</linearGradient>
</defs>
</svg>
