<svg xmlns="http://www.w3.org/2000/svg" fill="none" viewBox="0 0 32 32" height="32" width="32">
<path fill="url(#paint0_linear_4964_20548)" d="M28.9977 17.0825C28.7853 19.5524 27.8718 21.9104 26.3648 23.8788C24.8578 25.8473 22.8199 27.3443 20.491 28.1939C18.162 29.0435 15.6388 29.2103 13.2183 28.6746C10.7978 28.1389 8.58061 26.9231 6.82763 25.1701C5.07465 23.4171 3.8588 21.1999 3.32311 18.7794C2.78742 16.3589 2.95418 13.8357 3.80378 11.5068C4.65338 9.17781 6.15047 7.13994 8.11892 5.63293C10.0874 4.12591 12.4453 3.21244 14.9152 2.99998C15.0466 2.98915 15.1787 3.00428 15.3042 3.04453C15.4297 3.08477 15.546 3.14934 15.6465 3.23454C15.747 3.31973 15.8298 3.4239 15.8901 3.54108C15.9503 3.65826 15.9869 3.78616 15.9977 3.91748C16.0086 4.0488 15.9934 4.18097 15.9532 4.30644C15.913 4.43191 15.8484 4.54823 15.7632 4.64875C15.678 4.74927 15.5738 4.83202 15.4566 4.89229C15.3395 4.95255 15.2116 4.98915 15.0802 4.99998C12.9897 5.1796 10.994 5.95256 9.32788 7.22793C7.66176 8.5033 6.39457 10.228 5.6754 12.1991C4.95623 14.1703 4.81501 16.3058 5.26835 18.3544C5.72169 20.4031 6.75073 22.2797 8.2344 23.7633C9.71806 25.247 11.5946 26.276 13.6433 26.7294C15.6919 27.1827 17.8275 27.0415 19.7986 26.3223C21.7697 25.6032 23.4944 24.336 24.7698 22.6698C26.0452 21.0037 26.8181 19.008 26.9977 16.9175C27.0196 16.6523 27.146 16.4066 27.349 16.2345C27.552 16.0625 27.815 15.9781 28.0802 16C28.3455 16.0219 28.5911 16.1482 28.7632 16.3512C28.9353 16.5542 29.0196 16.8173 28.9977 17.0825ZM14.9977 8.99998V16C14.9977 16.2652 15.1031 16.5196 15.2906 16.7071C15.4782 16.8946 15.7325 17 15.9977 17H22.9977C23.263 17 23.5173 16.8946 23.7049 16.7071C23.8924 16.5196 23.9977 16.2652 23.9977 16C23.9977 15.7348 23.8924 15.4804 23.7049 15.2929C23.5173 15.1053 23.263 15 22.9977 15H16.9977V8.99998C16.9977 8.73476 16.8924 8.48041 16.7049 8.29287C16.5173 8.10534 16.263 7.99998 15.9977 7.99998C15.7325 7.99998 15.4782 8.10534 15.2906 8.29287C15.1031 8.48041 14.9977 8.73476 14.9977 8.99998ZM19.9977 5.99998C20.2944 5.99998 20.5844 5.91201 20.8311 5.74718C21.0778 5.58236 21.27 5.34809 21.3836 5.074C21.4971 4.79992 21.5268 4.49832 21.4689 4.20734C21.411 3.91637 21.2682 3.6491 21.0584 3.43932C20.8486 3.22954 20.5814 3.08668 20.2904 3.0288C19.9994 2.97092 19.6978 3.00063 19.4237 3.11416C19.1496 3.22769 18.9154 3.41995 18.7505 3.66662C18.5857 3.9133 18.4977 4.20331 18.4977 4.49998C18.4977 4.8978 18.6558 5.27934 18.9371 5.56064C19.2184 5.84194 19.5999 5.99998 19.9977 5.99998ZM24.4977 8.99998C24.7944 8.99998 25.0844 8.91201 25.3311 8.74718C25.5778 8.58236 25.77 8.34809 25.8836 8.074C25.9971 7.79992 26.0268 7.49832 25.9689 7.20734C25.911 6.91637 25.7682 6.6491 25.5584 6.43932C25.3486 6.22954 25.0814 6.08668 24.7904 6.0288C24.4994 5.97092 24.1978 6.00063 23.9237 6.11416C23.6496 6.22769 23.4154 6.41995 23.2505 6.66662C23.0857 6.9133 22.9977 7.20331 22.9977 7.49998C22.9977 7.8978 23.1558 8.27934 23.4371 8.56064C23.7184 8.84194 24.0999 8.99998 24.4977 8.99998ZM27.4977 13.5C27.7944 13.5 28.0844 13.412 28.3311 13.2472C28.5778 13.0824 28.77 12.8481 28.8836 12.574C28.9971 12.2999 29.0268 11.9983 28.9689 11.7073C28.911 11.4164 28.7682 11.1491 28.5584 10.9393C28.3486 10.7295 28.0814 10.5867 27.7904 10.5288C27.4994 10.4709 27.1978 10.5006 26.9237 10.6142C26.6496 10.7277 26.4154 10.92 26.2505 11.1666C26.0857 11.4133 25.9977 11.7033 25.9977 12C25.9977 12.3978 26.1558 12.7793 26.4371 13.0606C26.7184 13.3419 27.0999 13.5 27.4977 13.5Z"></path>
<defs>
<linearGradient gradientUnits="userSpaceOnUse" y2="15.8917" x2="29.0011" y1="15.8917" x1="3.01562" id="paint0_linear_4964_20548">
<stop stop-color="#F7D379"></stop>
<stop stop-color="#E9BE65" offset="0.130208"></stop>
<stop stop-color="#F5E583" offset="0.234375"></stop>
<stop stop-color="#C89447" offset="0.387985"></stop>
<stop stop-color="#DCAB57" offset="0.4606"></stop>
<stop stop-color="#D6A453" offset="0.546183"></stop>
<stop stop-color="#F7D87B" offset="0.639546"></stop>
<stop stop-color="#A57331" offset="0.735503"></stop>
<stop stop-color="#C18D42" offset="0.834053"></stop>
<stop stop-color="#C08A41" offset="1"></stop>
</linearGradient>
</defs>
</svg>
