<svg xmlns="http://www.w3.org/2000/svg" fill="none" viewBox="0 0 120 62" height="62" width="120">
<path fill="black" d="M0.00012207 25.5894C0.347322 24.8574 0.333427 24.038 0.632027 23.2714C1.05983 22.1756 1.89592 21.5964 2.79862 21.0909C5.32082 19.677 7.99432 19.6964 10.6318 20.645C12.69 21.3853 13.8428 22.945 14.0219 25.181C14.1164 26.3588 14.0164 27.5296 14.0358 28.7032C14.0428 29.1324 13.8525 29.3379 13.4108 29.3379C11.8831 29.3379 10.3568 29.349 8.82903 29.3587C8.35403 29.3615 8.33742 29.0282 8.33602 28.6921C8.33042 27.3296 8.34432 25.9671 8.32072 24.6047C8.30132 23.5519 7.74712 23.1714 6.71942 23.4228C6.21102 23.5464 6.02082 23.8825 5.92492 24.3519C5.78882 25.0241 5.95692 25.6838 5.95832 26.3505C5.96382 29.6754 5.96102 33.0003 5.95972 36.3267C5.95972 36.5114 5.95412 36.6961 5.93472 36.8794C5.82082 37.978 6.27913 38.4405 7.35133 38.3419C8.11523 38.2711 8.29152 37.7391 8.31102 37.128C8.34432 36.1128 8.32763 35.0961 8.33183 34.0809C8.33463 33.1309 8.33323 33.1031 9.28043 33.0837C10.5984 33.0573 11.9178 33.0767 13.2372 33.0753C13.7386 33.0753 13.9567 33.3156 14.0456 33.8198C14.3122 35.3406 14.0261 36.8128 13.6608 38.2627C13.4567 39.0766 12.7442 39.5863 12.1275 40.1238C10.6359 41.4266 8.83322 41.646 6.95132 41.6654C6.03882 41.6752 5.16252 41.5307 4.28472 41.3182C2.01672 40.7696 0.432024 39.3738 0.280624 36.8447C0.254224 36.4058 0.183426 35.9739 0.00152588 35.5683C0.000125879 32.2406 0.00012207 28.9157 0.00012207 25.5894Z"></path>
<path fill="black" d="M119.997 40.8321C119.739 41.1363 119.386 41.1154 119.038 41.1141C116.656 41.1127 114.272 41.1113 111.891 41.1168C111.545 41.1182 111.196 41.1349 110.855 41.1821C109.973 41.3043 109.716 41.1002 109.716 40.1974C109.711 36.1586 109.714 32.1198 109.714 28.081C109.714 25.8671 109.725 23.6533 109.706 21.4394C109.7 20.8103 109.955 20.5867 110.575 20.5895C113.304 20.5978 116.034 20.577 118.763 20.5631C119.358 20.5603 119.672 20.7895 119.586 21.4381C119.477 22.2603 119.421 23.0894 119.446 23.92C119.458 24.3449 119.207 24.4769 118.825 24.4741C117.946 24.4699 117.067 24.4894 116.189 24.4672C115.697 24.4547 115.511 24.6227 115.471 25.1366C115.396 26.0838 115.46 27.0282 115.417 27.9727C115.389 28.5782 115.757 28.7907 116.245 28.7032C116.986 28.5713 117.718 28.7768 118.457 28.6712C119.024 28.5907 119.317 28.8824 119.306 29.4754C119.292 30.2143 119.3 30.9518 119.306 31.6906C119.308 32.1656 119.132 32.4073 118.606 32.392C117.847 32.3698 117.092 32.5184 116.327 32.3962C115.738 32.3031 115.417 32.5587 115.428 33.2031C115.446 34.31 115.414 35.4183 115.429 36.5253C115.439 37.2141 115.697 37.428 116.402 37.3197C117.37 37.1697 118.34 37.2711 119.31 37.2391C119.578 37.2308 119.81 37.3114 120 37.5044C119.997 38.6155 119.997 39.7238 119.997 40.8321Z"></path>
<path fill="black" d="M78.8859 0.0911865C79.0569 0.943887 78.8919 1.14528 78.0619 1.15638C75.3109 1.19108 72.5599 1.23969 69.8079 1.13839C69.3029 1.12029 69.0199 1.33699 69.0309 1.87309C69.0649 3.55769 68.9949 5.24099 69.0739 6.92709C69.0999 7.50069 69.3239 7.62429 69.8219 7.61879C72.2509 7.59519 74.6809 7.58958 77.1079 7.57848C77.3169 7.57708 77.5249 7.58408 77.7329 7.58958C78.0329 7.59788 78.2009 7.76039 78.2529 8.04789C78.3099 8.35629 78.0829 8.44238 77.8639 8.52988C77.5569 8.65068 77.2359 8.68129 76.9099 8.67429C74.5539 8.62429 72.1919 8.82429 69.8429 8.48679C69.3069 8.41039 69.0509 8.73958 69.0459 9.21458C69.0279 11.1993 69.0359 13.1853 69.0419 15.17C69.0429 15.7381 69.4599 15.7492 69.8719 15.7492C71.9539 15.7506 74.0369 15.7797 76.1189 15.7395C76.9489 15.7228 77.7669 15.9742 78.6039 15.7867C78.9469 15.7103 79.2679 15.8686 79.2719 16.2936C79.2759 16.7339 78.9229 16.7186 78.6229 16.7186C75.8009 16.7242 72.9779 16.7228 70.1559 16.7255C69.8539 16.7255 69.5539 16.72 69.2529 16.7297C68.2029 16.763 68.2019 16.7658 68.2019 15.745C68.1969 10.5284 68.1949 5.31048 68.1899 0.0938835C71.7569 0.0911835 75.3209 0.0911865 78.8859 0.0911865Z"></path>
<path fill="black" d="M53.886 0.0911865C53.868 2.30639 53.853 4.52159 53.827 6.73819C53.82 7.26179 54.106 7.42569 54.568 7.42569C55.725 7.42569 56.882 7.43409 58.039 7.42569C59.865 7.41459 61.693 7.35768 63.519 7.39378C64.169 7.40628 64.336 7.16318 64.317 6.59518C64.244 4.42578 64.403 2.26058 64.442 0.0924835C64.673 0.0924835 64.904 0.0924835 65.136 0.0924835C65.351 4.72998 65.25 9.37008 65.279 14.0089C65.283 14.7047 65.215 15.3895 65.143 16.0783C65.114 16.3561 65.14 16.6769 64.744 16.6867C64.303 16.6964 64.312 16.3519 64.312 16.0478C64.311 13.8534 64.314 11.6604 64.315 9.46598C64.315 9.25758 64.317 9.05068 64.305 8.84238C64.289 8.51878 64.157 8.35209 63.786 8.35489C60.708 8.37989 57.631 8.39238 54.553 8.39378C54.013 8.39378 53.845 8.59378 53.853 9.14238C53.888 11.2659 53.875 13.3909 53.868 15.5158C53.867 15.7895 53.811 16.0658 53.752 16.3339C53.709 16.5228 53.59 16.6742 53.361 16.6519C53.149 16.6325 53.017 16.4908 52.985 16.2992C52.942 16.0506 52.928 15.7964 52.927 15.5436C52.921 10.3937 52.918 5.24378 52.915 0.0938835C53.238 0.0911835 53.563 0.0911865 53.886 0.0911865Z"></path>
<path fill="black" d="M50.971 0.0911865C50.98 1.18839 50.98 1.20219 49.856 1.18559C48.584 1.16749 47.31 1.26059 46.041 1.12309C45.33 1.04529 45.273 1.50218 45.274 2.04808C45.283 6.55208 45.285 11.0548 45.267 15.5589C45.266 15.9797 45.53 16.6992 44.749 16.6686C44.034 16.6408 44.33 15.9589 44.328 15.5617C44.308 11.0812 44.301 6.60069 44.324 2.12029C44.328 1.44949 44.153 1.14108 43.441 1.16058C42.17 1.19528 40.898 1.19808 39.626 1.17448C38.786 1.15918 38.634 0.938386 38.749 0.0911865C42.823 0.0911865 46.898 0.0911865 50.971 0.0911865Z"></path>
<path fill="black" d="M66.776 28.0585C66.585 28.7793 66.649 29.4432 66.647 30.089C66.63 33.0431 66.662 35.9972 66.658 38.9513C66.658 39.5027 66.567 40.0541 66.531 40.6055C66.509 40.9457 66.334 41.1055 66.001 41.1082C64.683 41.1221 63.363 41.1291 62.045 41.1541C61.788 41.1596 61.713 41.0249 61.694 40.8277C61.669 40.5763 61.662 40.3207 61.662 40.068C61.661 33.857 61.67 27.646 61.647 21.435C61.644 20.7503 61.799 20.5517 62.53 20.5711C64.587 20.6253 66.647 20.5781 68.705 20.5406C69.201 20.5309 69.219 20.9031 69.272 21.1725C69.497 22.3253 69.68 23.4878 69.862 24.6475C70.108 26.2113 70.334 27.7779 70.58 29.3418C70.613 29.5529 70.594 29.889 70.895 29.8723C71.134 29.8585 71.078 29.546 71.126 29.3515C71.74 26.8169 71.796 24.1975 72.296 21.6447C72.499 20.6073 72.455 20.6003 73.541 20.6003C75.416 20.6017 77.289 20.5975 79.164 20.6031C79.995 20.6045 80.153 20.7711 80.12 21.5642C79.87 27.5168 80.062 33.4737 80.021 39.4277C80.01 41.1152 80.067 41.1124 78.395 41.1166C77.47 41.118 76.542 41.0957 75.62 41.1527C75.119 41.1832 75.012 40.961 75.013 40.5541C75.014 39.8388 75.01 39.1222 75.012 38.4069C75.013 35.9625 74.945 33.5153 75.052 31.0765C75.095 30.1112 74.839 29.1446 75.091 28.1863C75.126 28.0557 75.114 27.8724 74.957 27.8321C74.701 27.7668 74.742 28.0113 74.703 28.146C74.251 29.7237 74.067 31.3473 73.877 32.9709C73.727 34.2445 73.48 35.507 73.287 36.7764C73.11 37.9361 72.923 39.0944 72.791 40.2596C72.721 40.8735 72.492 41.1096 71.833 41.1555C71.091 41.2068 70.359 41.0374 69.628 41.1443C69.238 41.2013 69.103 41.0332 69.012 40.6819C68.71 39.5152 68.67 38.3125 68.474 37.1319C68.231 35.6597 67.992 34.1875 67.748 32.7167C67.624 31.9723 67.392 31.2279 67.394 30.4848C67.392 29.6362 67.176 28.8863 66.776 28.0585Z"></path>
<path fill="black" d="M59.346 30.917C59.346 34.1031 59.341 37.2877 59.353 40.4738C59.354 40.9196 59.159 41.1321 58.748 41.1363C57.199 41.1488 55.65 41.1446 54.1 41.1446C53.624 41.1446 53.477 40.9099 53.506 40.4349C53.657 37.9461 53.666 35.4572 53.502 32.9684C53.474 32.5378 53.299 32.3934 52.914 32.3934C52.637 32.3934 52.359 32.3864 52.081 32.3948C51.63 32.4073 51.398 32.6531 51.401 33.0961C51.412 35.4739 51.406 37.8516 51.457 40.228C51.476 41.0668 51.43 41.1502 50.574 41.1321C49.233 41.1029 47.89 41.0988 46.548 41.1265C45.942 41.139 45.695 40.9654 45.669 40.3113C45.434 34.4725 45.628 28.6323 45.577 22.7936C45.572 22.2436 45.723 21.6992 45.663 21.1394C45.627 20.8117 45.816 20.6214 46.159 20.6103C47.777 20.5589 49.395 20.652 51.014 20.5603C51.485 20.5339 51.484 21.1311 51.46 21.4283C51.316 23.3436 51.445 25.256 51.41 27.1699C51.396 27.9143 51.503 28.0601 52.266 28.0851C52.52 28.0935 52.776 28.0865 53.03 28.081C53.327 28.0754 53.484 27.9601 53.499 27.624C53.588 25.7352 53.712 23.8477 53.498 21.9589C53.471 21.7311 53.481 21.4978 53.488 21.2672C53.503 20.7617 53.734 20.5117 54.277 20.5506C55.755 20.6561 57.236 20.6214 58.716 20.5783C59.077 20.5672 59.242 20.6839 59.268 21.0186C59.292 21.3172 59.304 21.6172 59.306 21.9172C59.309 24.9185 59.307 27.9199 59.307 30.9226C59.32 30.917 59.332 30.917 59.346 30.917Z"></path>
<path fill="black" d="M104.35 30.338C104.793 30.7866 105.322 30.856 105.771 31.0685C106.792 31.5504 107.286 32.2713 107.386 33.4157C107.586 35.7004 107.425 37.9836 107.508 40.2641C107.533 40.9461 107.257 41.1461 106.611 41.1252C105.41 41.0891 104.206 41.1183 103.003 41.1141C102.113 41.1114 102.086 41.0808 102.086 40.16C102.086 38.0364 102.089 35.9128 102.082 33.7893C102.081 33.4685 102.072 33.1379 101.993 32.8296C101.775 31.9713 101.349 31.6657 100.477 31.6754C100.107 31.6796 100.118 31.9352 100.093 32.2018C99.938 33.9296 100.027 35.6601 100.007 37.3892C99.995 38.4503 99.995 39.5128 99.996 40.5753C99.996 40.9197 99.922 41.1266 99.493 41.1294C98.038 41.1391 96.582 41.0433 95.127 41.203C94.489 41.2739 94.178 40.8836 94.211 40.2003C94.398 36.3017 94.375 32.3963 94.242 28.5033C94.167 26.3353 94.455 24.1728 94.217 22.0103C94.185 21.7201 94.28 21.4159 94.309 21.1173C94.341 20.7854 94.524 20.602 94.849 20.609C97.784 20.6618 100.722 20.4507 103.653 20.7326C106.025 20.9604 107.501 23.1534 107.503 25.2228C107.503 26.2658 107.419 27.2963 107.299 28.3255C107.19 29.2449 106.483 29.6505 105.729 29.9588C105.315 30.1296 104.861 30.2018 104.35 30.338ZM102.085 26.3519C102.085 26.3519 102.086 26.3519 102.088 26.3519C102.088 25.8922 102.088 25.4325 102.088 24.9728C102.088 24.927 102.085 24.8811 102.078 24.8353C101.981 24.1186 101.472 23.7686 100.614 23.8034C99.829 23.8353 100.046 24.4186 100.002 24.8658C99.902 25.8658 100.164 26.8644 99.972 27.8783C99.911 28.2005 99.964 28.7672 100.493 28.8824C101.279 29.0519 102.058 28.4033 102.083 27.5936C102.095 27.1797 102.085 26.7644 102.085 26.3519Z"></path>
<path fill="black" d="M22.1489 20.5992C23.3517 20.5992 24.5544 20.6131 25.7572 20.5922C26.2669 20.5839 26.4752 20.7506 26.553 21.2867C26.8988 23.6769 27.2877 26.0616 27.6807 28.4449C28.3404 32.4392 29.0182 36.4308 29.6821 40.4252C29.7876 41.0571 29.589 41.2793 29.0015 41.2057C27.5266 41.0224 26.0461 41.1099 24.5697 41.1502C24.0697 41.1641 23.9031 41.0252 23.8836 40.5585C23.8531 39.7988 23.7683 39.0405 23.7517 38.2808C23.7406 37.7794 23.5642 37.5461 23.042 37.4614C22.5295 37.378 22.0281 37.4864 21.524 37.4252C21.2129 37.3877 21.1434 37.6127 21.117 37.8655C21.0267 38.7363 20.9226 39.6058 20.8462 40.478C20.8017 40.9849 20.6198 41.1793 20.0546 41.1543C18.6699 41.0932 17.2796 41.1168 15.8922 41.1224C15.0616 41.1266 14.8116 40.8793 14.9366 40.0641C15.5811 35.8794 16.263 31.7004 16.8685 27.5102C17.0574 26.1991 17.2616 24.888 17.4032 23.5672C17.4852 22.7978 17.6504 22.0339 17.6782 21.252C17.6949 20.7742 17.9935 20.5881 18.4713 20.5936C19.6976 20.6103 20.924 20.5992 22.1489 20.5992ZM23.4558 33.3378C23.2531 31.624 23.0697 29.9087 22.8378 28.199C22.7225 27.3532 22.8836 26.4893 22.6323 25.6574C22.5864 25.506 22.5878 25.2991 22.3837 25.2908C22.1087 25.2797 22.1559 25.5227 22.1295 25.6935C21.7448 28.1421 21.3781 30.5934 21.1323 33.0614C21.049 33.9031 21.2406 34.092 22.0989 33.9781C22.3503 33.9448 22.6073 33.9031 22.8559 33.9267C23.3128 33.9698 23.5086 33.7906 23.4558 33.3378Z"></path>
<path fill="black" d="M40.61 26.6907C40.009 26.6907 39.406 26.6671 38.806 26.6977C38.226 26.7268 38.02 26.4741 38.045 25.9157C38.073 25.2713 38.076 24.6283 37.84 24.0019C37.679 23.5755 37.422 23.3713 36.968 23.3602C36.497 23.3491 36.13 23.4269 35.895 23.9199C35.238 25.3019 35.801 26.9352 37.115 27.7032C38.659 28.606 40.277 29.4018 41.681 30.5323C43.308 31.842 43.881 33.5906 43.799 35.6114C43.783 36.0266 43.74 36.4433 43.763 36.8558C43.887 39.0863 42.763 40.4113 40.801 41.0668C38.13 41.9599 35.434 42.039 32.8718 40.6516C31.5288 39.9238 30.7399 38.7835 30.551 37.2183C30.451 36.3891 30.5399 35.5669 30.4774 34.7433C30.4427 34.2836 30.6677 33.9489 31.1413 33.9406C32.5288 33.9156 33.9176 33.9225 35.305 33.942C35.662 33.9461 35.808 34.1753 35.802 34.5489C35.791 35.4225 35.809 36.2975 35.831 37.1711C35.851 37.9641 36.104 38.2822 36.722 38.3377C37.552 38.4113 38.186 38.0349 38.288 37.3211C38.423 36.378 38.344 35.4294 38.143 34.5003C38.079 34.2045 37.88 33.9086 37.627 33.7822C36.413 33.1739 35.386 32.2726 34.1787 31.6559C33.2496 31.1809 32.4538 30.5198 31.658 29.8518C30.5038 28.8823 30.4733 27.5088 30.2955 26.2018C30.1677 25.263 30.2733 24.3088 30.5052 23.3922C30.8955 21.8464 32.0871 21.1158 33.4704 20.5839C35.045 19.9784 36.694 19.9075 38.317 20.0936C39.805 20.2631 41.213 20.8033 42.373 21.8436C42.919 22.3339 43.033 23.0033 43.149 23.6436C43.284 24.388 43.276 25.1574 43.335 25.9143C43.38 26.4838 43.109 26.7088 42.555 26.6935C41.908 26.6754 41.259 26.6893 40.612 26.6893C40.61 26.6893 40.61 26.6907 40.61 26.6907Z"></path>
<path fill="black" d="M82.351 30.8307C82.351 27.6904 82.364 24.5488 82.34 21.4086C82.336 20.7711 82.571 20.5545 83.193 20.56C85.878 20.5878 88.562 20.5864 91.247 20.5975C92.13 20.6017 92.21 20.6767 92.218 21.5336C92.223 22.2267 92.19 22.9211 92.228 23.6114C92.265 24.2919 91.961 24.51 91.318 24.4822C90.51 24.4489 89.699 24.4863 88.889 24.4697C88.393 24.46 88.172 24.6558 88.182 25.1641C88.201 26.1099 88.201 27.0585 88.183 28.0043C88.172 28.5904 88.4 28.7501 88.987 28.6877C89.743 28.6071 90.512 28.6557 91.276 28.646C91.737 28.6404 91.953 28.8599 91.947 29.3224C91.939 30.1307 91.935 30.939 91.95 31.7473C91.96 32.3015 91.676 32.4751 91.168 32.4501C90.453 32.4154 89.735 32.4181 89.019 32.382C88.443 32.3529 88.169 32.5584 88.181 33.1751C88.201 34.3514 88.174 35.5306 88.158 36.7069C88.153 37.1416 88.315 37.3208 88.785 37.2958C89.754 37.2458 90.726 37.2472 91.697 37.2403C92.308 37.2361 92.65 37.5097 92.628 38.1666C92.601 38.9722 92.612 39.7791 92.59 40.5846C92.579 40.9777 92.361 41.1457 91.955 41.136C91.035 41.1124 90.111 41.1013 89.19 41.1138C87.294 41.1402 85.397 41.0582 83.5 41.1652C82.47 41.2221 82.357 41.0638 82.357 40.0402C82.357 36.9694 82.357 33.8973 82.357 30.8265C82.353 30.8307 82.353 30.8307 82.351 30.8307Z"></path>
<path fill="black" d="M73.7449 53.4718C73.7449 51.0705 73.74 48.6692 73.748 46.2692C73.752 45.3345 73.7679 45.297 74.6909 45.2887C77.7219 45.2651 80.7529 45.272 83.7839 45.2651C84.1119 45.2637 84.3879 45.2956 84.4019 45.7248C84.4159 46.1484 84.146 46.2345 83.819 46.2317C80.974 46.2081 78.1289 46.3387 75.2859 46.1623C74.7739 46.1303 74.5559 46.2748 74.5619 46.7998C74.5789 48.5317 74.583 50.2622 74.574 51.9941C74.572 52.5524 74.7059 52.7982 75.3699 52.7844C77.9369 52.7316 80.506 52.7607 83.074 52.7552C83.446 52.7538 83.831 52.7844 83.821 53.2566C83.812 53.7274 83.374 53.6593 83.076 53.6621C80.881 53.6885 78.687 53.6954 76.492 53.7066C76.308 53.7079 76.1219 53.7107 75.9369 53.7024C74.5759 53.6441 74.5789 53.6441 74.5809 55.0468C74.5839 56.6857 74.574 58.3245 74.586 59.9648C74.591 60.8398 74.647 60.8314 75.488 60.8231C78.334 60.7967 81.18 60.8009 84.026 60.8134C84.348 60.8148 84.796 60.7953 84.798 61.2967C84.799 61.7911 84.395 61.88 84.009 61.8758C81.051 61.8411 78.0899 62.0231 75.1329 61.78C75.0409 61.7731 74.9479 61.7661 74.8549 61.7661C73.8189 61.7606 73.7549 61.7161 73.7489 60.6745C73.7379 58.2731 73.7469 55.8732 73.7469 53.4718C73.7469 53.4718 73.7469 53.4718 73.7449 53.4718Z"></path>
<path fill="black" d="M38.403 45.2513C40.305 45.2847 41.789 45.6666 43.095 46.6597C43.762 47.1666 44.084 47.8568 44.306 48.6179C44.357 48.7915 44.391 49.0054 44.156 49.0902C43.948 49.1652 43.803 49.0443 43.695 48.8763C43.595 48.7207 43.477 48.5735 43.4 48.4068C42.713 46.9207 41.302 46.5694 39.91 46.2569C38.623 45.968 37.319 46.1499 36.091 46.5722C35.026 46.9374 34.1257 47.8513 34.166 49.3624C34.1993 50.6304 34.8938 51.5498 36.052 51.9804C37.881 52.6595 39.81 52.8818 41.688 53.3331C42.248 53.4679 42.746 53.7623 43.23 54.0873C45.396 55.547 45.348 57.608 44.573 59.2344C43.97 60.4997 42.78 61.2482 41.446 61.5677C39.556 62.0205 37.609 61.976 35.78 61.3246C34.1938 60.7594 33.1119 59.5747 32.7452 57.8608C32.6897 57.6011 32.5813 57.2733 33.0049 57.2067C33.3688 57.1497 33.5952 57.3872 33.6674 57.6941C34.1424 59.7163 35.619 60.4233 37.481 60.8357C39.073 61.1871 40.589 61.0719 42.026 60.4608C43.964 59.6358 44.516 57.8997 43.819 56.0359C43.494 55.1664 42.51 54.672 41.591 54.4276C40.033 54.0137 38.476 53.5873 36.896 53.2373C35.759 52.9859 34.659 52.4345 33.9035 51.5054C32.8244 50.1749 32.9424 48.0193 34.3521 46.7471C35.592 45.6263 37.11 45.3555 38.403 45.2513Z"></path>
<path fill="black" d="M52.683 45.2708C53.181 45.2916 53.4741 45.4527 53.6801 46.0041C54.3301 47.7499 55.1091 49.4457 55.8031 51.1748C56.6961 53.3984 57.549 55.6386 58.434 57.8663C58.833 58.8719 59.2781 59.8594 59.6771 60.8649C59.7881 61.1454 60.123 61.5093 59.714 61.7524C59.323 61.9857 58.7711 61.6565 58.6511 61.1621C58.2941 59.7038 57.4921 58.4108 57.0911 56.9719C56.9551 56.4872 56.6241 56.3525 56.1481 56.3552C53.9731 56.3705 51.7981 56.3539 49.6231 56.3664C48.5691 56.3719 48.47 56.5108 48.172 57.5358C47.93 58.3649 47.6801 59.1969 47.2041 59.9469C47.0301 60.2218 47.016 60.6024 46.95 60.9371C46.9 61.1913 46.8581 61.4538 46.6081 61.5843C46.3681 61.7107 46.0591 61.9051 45.8411 61.6954C45.6801 61.5399 45.925 61.294 46.002 61.0843C46.486 59.7968 46.862 58.4663 47.405 57.2066C48.544 54.5608 49.3451 51.7928 50.4541 49.1346C50.8191 48.2582 51.2791 47.3957 51.4661 46.4304C51.6401 45.5402 52.022 45.2499 52.683 45.2708ZM54.617 55.7622C55.056 55.7622 55.497 55.783 55.935 55.7567C56.491 55.7247 56.627 55.4955 56.391 54.9386C55.603 53.0748 54.877 51.1859 54.113 49.3123C53.741 48.3999 53.3451 47.4957 52.9451 46.5957C52.7661 46.193 52.5231 46.1624 52.3311 46.5818C51.9791 47.3554 51.62 48.129 51.322 48.9235C50.926 49.9762 50.6551 51.079 50.2021 52.1039C49.7591 53.1095 49.3561 54.122 49.0091 55.1622C48.8521 55.6317 49.023 55.7969 49.422 55.7525C51.156 55.558 52.885 55.7275 54.617 55.7622Z"></path>
<path fill="black" d="M62.92 53.0747C62.92 55.3594 62.916 57.6441 62.923 59.9288C62.926 60.794 63.089 60.9815 63.941 60.8996C66.112 60.6912 68.285 60.8551 70.456 60.7996C70.859 60.7898 71.307 60.7648 71.311 61.3357C71.316 61.9093 70.852 61.887 70.459 61.8884C67.824 61.9009 65.191 61.9148 62.559 61.7676C62.188 61.7468 62.053 61.6273 61.994 61.2496C61.883 60.5468 62.076 59.8704 62.076 59.1815C62.074 55.0747 62.077 50.9664 62.074 46.8596C62.074 46.5151 62.031 46.1693 62.024 45.8249C62.02 45.5943 62.012 45.3513 62.358 45.336C62.701 45.3207 62.883 45.4721 62.909 45.8082C62.923 45.9693 62.921 46.1304 62.921 46.2929C62.92 48.5512 62.92 50.8136 62.92 53.0747Z"></path>
</svg>
