<svg xmlns="http://www.w3.org/2000/svg" fill="none" viewBox="0 0 32 33" height="33" width="32">
<path fill="black" d="M24 5.5V13.5C24.0001 13.6314 23.9743 13.7615 23.9241 13.8828C23.8739 14.0042 23.8003 14.1146 23.7075 14.2075L17 20.9137V27.0863L19.2925 24.7925C19.4801 24.6049 19.7346 24.4994 20 24.4994C20.2654 24.4994 20.5199 24.6049 20.7075 24.7925C20.8951 24.9801 21.0006 25.2346 21.0006 25.5C21.0006 25.7654 20.8951 26.0199 20.7075 26.2075L16.7075 30.2075C16.6146 30.3005 16.5043 30.3742 16.3829 30.4246C16.2615 30.4749 16.1314 30.5008 16 30.5008C15.8686 30.5008 15.7385 30.4749 15.6171 30.4246C15.4957 30.3742 15.3854 30.3005 15.2925 30.2075L11.2925 26.2075C11.1049 26.0199 10.9994 25.7654 10.9994 25.5C10.9994 25.2346 11.1049 24.9801 11.2925 24.7925C11.4801 24.6049 11.7346 24.4994 12 24.4994C12.2654 24.4994 12.5199 24.6049 12.7075 24.7925L15 27.0863V20.9137L8.2925 14.2075C8.19967 14.1146 8.12605 14.0042 8.07586 13.8828C8.02568 13.7615 7.9999 13.6314 8 13.5V5.5C8 5.23478 8.10536 4.98043 8.29289 4.79289C8.48043 4.60536 8.73478 4.5 9 4.5C9.26522 4.5 9.51957 4.60536 9.70711 4.79289C9.89464 4.98043 10 5.23478 10 5.5V13.0863L16 19.0863L22 13.0863V5.5C22 5.23478 22.1054 4.98043 22.2929 4.79289C22.4804 4.60536 22.7348 4.5 23 4.5C23.2652 4.5 23.5196 4.60536 23.7071 4.79289C23.8946 4.98043 24 5.23478 24 5.5Z"></path>
</svg>
