<svg xmlns="http://www.w3.org/2000/svg" fill="none" viewBox="0 0 32 33" height="33" width="32">
<path fill="black" d="M22.5 18.5H20V14.5H22.5C23.39 14.5 24.26 14.2361 25.0001 13.7416C25.7401 13.2471 26.3169 12.5443 26.6575 11.7221C26.9981 10.8998 27.0872 9.99501 26.9135 9.1221C26.7399 8.24918 26.3113 7.44736 25.682 6.81802C25.0526 6.18868 24.2508 5.7601 23.3779 5.58647C22.505 5.41283 21.6002 5.50195 20.7779 5.84254C19.9557 6.18314 19.2529 6.75991 18.7584 7.49994C18.2639 8.23996 18 9.10999 18 10V12.5H14V10C14 9.10999 13.7361 8.23996 13.2416 7.49994C12.7471 6.75991 12.0443 6.18314 11.2221 5.84254C10.3998 5.50195 9.49501 5.41283 8.6221 5.58647C7.74918 5.7601 6.94736 6.18868 6.31802 6.81802C5.68868 7.44736 5.2601 8.24918 5.08647 9.1221C4.91283 9.99501 5.00195 10.8998 5.34254 11.7221C5.68314 12.5443 6.25991 13.2471 6.99994 13.7416C7.73996 14.2361 8.60999 14.5 9.5 14.5H12V18.5H9.5C8.60999 18.5 7.73996 18.7639 6.99994 19.2584C6.25991 19.7529 5.68314 20.4557 5.34254 21.2779C5.00195 22.1002 4.91283 23.005 5.08647 23.8779C5.2601 24.7508 5.68868 25.5526 6.31802 26.182C6.94736 26.8113 7.74918 27.2399 8.6221 27.4135C9.49501 27.5872 10.3998 27.4981 11.2221 27.1575C12.0443 26.8169 12.7471 26.2401 13.2416 25.5001C13.7361 24.76 14 23.89 14 23V20.5H18V23C18 23.89 18.2639 24.76 18.7584 25.5001C19.2529 26.2401 19.9557 26.8169 20.7779 27.1575C21.6002 27.4981 22.505 27.5872 23.3779 27.4135C24.2508 27.2399 25.0526 26.8113 25.682 26.182C26.3113 25.5526 26.7399 24.7508 26.9135 23.8779C27.0872 23.005 26.9981 22.1002 26.6575 21.2779C26.3169 20.4557 25.7401 19.7529 25.0001 19.2584C24.26 18.7639 23.39 18.5 22.5 18.5ZM20 10C20 9.50555 20.1466 9.0222 20.4213 8.61108C20.696 8.19995 21.0865 7.87952 21.5433 7.6903C22.0001 7.50108 22.5028 7.45158 22.9877 7.54804C23.4727 7.6445 23.9181 7.8826 24.2678 8.23223C24.6174 8.58187 24.8555 9.02732 24.952 9.51228C25.0484 9.99723 24.9989 10.4999 24.8097 10.9567C24.6205 11.4135 24.3001 11.804 23.8889 12.0787C23.4778 12.3534 22.9945 12.5 22.5 12.5H20V10ZM7 10C7 9.33696 7.26339 8.70108 7.73223 8.23223C8.20108 7.76339 8.83696 7.5 9.5 7.5C10.163 7.5 10.7989 7.76339 11.2678 8.23223C11.7366 8.70108 12 9.33696 12 10V12.5H9.5C8.83696 12.5 8.20108 12.2366 7.73223 11.7678C7.26339 11.2989 7 10.663 7 10ZM12 23C12 23.4945 11.8534 23.9778 11.5787 24.3889C11.304 24.8001 10.9135 25.1205 10.4567 25.3097C9.9999 25.4989 9.49723 25.5484 9.01228 25.452C8.52732 25.3555 8.08187 25.1174 7.73223 24.7678C7.3826 24.4181 7.1445 23.9727 7.04804 23.4877C6.95158 23.0028 7.00108 22.5001 7.1903 22.0433C7.37952 21.5865 7.69995 21.196 8.11108 20.9213C8.5222 20.6466 9.00555 20.5 9.5 20.5H12V23ZM14 14.5H18V18.5H14V14.5ZM22.5 25.5C21.837 25.5 21.2011 25.2366 20.7322 24.7678C20.2634 24.2989 20 23.663 20 23V20.5H22.5C23.163 20.5 23.7989 20.7634 24.2678 21.2322C24.7366 21.7011 25 22.337 25 23C25 23.663 24.7366 24.2989 24.2678 24.7678C23.7989 25.2366 23.163 25.5 22.5 25.5Z"></path>
</svg>
