<svg xmlns="http://www.w3.org/2000/svg" fill="none" viewBox="0 0 32 33" height="33" width="32">
<g clip-path="url(#clip0_1054_7125)">
<path fill="black" d="M15 8.54625V2.5C15 2.23478 14.8947 1.98043 14.7071 1.79289C14.5196 1.60536 14.2652 1.5 14 1.5C13.7348 1.5 13.4804 1.60536 13.2929 1.79289C13.1054 1.98043 13 2.23478 13 2.5V8.54625C10.181 8.80359 7.56971 10.1378 5.70931 12.2713C3.8489 14.4048 2.8826 17.1734 3.0114 20.0012C3.14021 22.829 4.3542 25.4983 6.40086 27.4539C8.44752 29.4094 11.1693 30.5007 14 30.5007C16.8307 30.5007 19.5525 29.4094 21.5992 27.4539C23.6458 25.4983 24.8598 22.829 24.9886 20.0012C25.1174 17.1734 24.1511 14.4048 22.2907 12.2713C20.4303 10.1378 17.819 8.80359 15 8.54625ZM22.9425 18.5H18.9713C18.7825 14.955 17.6225 12.455 16.5413 10.8675C18.2398 11.3705 19.7527 12.3626 20.8911 13.7199C22.0294 15.0773 22.7429 16.7398 22.9425 18.5ZM11.03 20.5H16.97C16.72 24.69 14.9538 27.1187 14 28.135C13.045 27.1163 11.2788 24.6887 11.03 20.5ZM11.03 18.5C11.28 14.31 13.0463 11.8812 14 10.865C14.955 11.8837 16.7213 14.3113 16.97 18.5H11.03ZM11.4588 10.8675C10.375 12.455 9.21751 14.955 9.02876 18.5H5.05751C5.25709 16.7398 5.97057 15.0773 7.10895 13.7199C8.24732 12.3626 9.76017 11.3705 11.4588 10.8675ZM5.05751 20.5H9.02876C9.21751 24.045 10.3775 26.545 11.4588 28.1325C9.76017 27.6295 8.24732 26.6374 7.10895 25.2801C5.97057 23.9227 5.25709 22.2602 5.05751 20.5ZM16.5413 28.1325C17.6225 26.545 18.7825 24.045 18.9713 20.5H22.9425C22.7429 22.2602 22.0294 23.9227 20.8911 25.2801C19.7527 26.6374 18.2398 27.6295 16.5413 28.1325ZM32 11.5C32 11.7652 31.8947 12.0196 31.7071 12.2071C31.5196 12.3946 31.2652 12.5 31 12.5H30V13.5C30 13.7652 29.8947 14.0196 29.7071 14.2071C29.5196 14.3946 29.2652 14.5 29 14.5C28.7348 14.5 28.4804 14.3946 28.2929 14.2071C28.1054 14.0196 28 13.7652 28 13.5V12.5H27C26.7348 12.5 26.4804 12.3946 26.2929 12.2071C26.1054 12.0196 26 11.7652 26 11.5C26 11.2348 26.1054 10.9804 26.2929 10.7929C26.4804 10.6054 26.7348 10.5 27 10.5H28V9.5C28 9.23478 28.1054 8.98043 28.2929 8.79289C28.4804 8.60536 28.7348 8.5 29 8.5C29.2652 8.5 29.5196 8.60536 29.7071 8.79289C29.8947 8.98043 30 9.23478 30 9.5V10.5H31C31.2652 10.5 31.5196 10.6054 31.7071 10.7929C31.8947 10.9804 32 11.2348 32 11.5ZM19 5.5C19 5.23478 19.1054 4.98043 19.2929 4.79289C19.4804 4.60536 19.7348 4.5 20 4.5H22V2.5C22 2.23478 22.1054 1.98043 22.2929 1.79289C22.4804 1.60536 22.7348 1.5 23 1.5C23.2652 1.5 23.5196 1.60536 23.7071 1.79289C23.8947 1.98043 24 2.23478 24 2.5V4.5H26C26.2652 4.5 26.5196 4.60536 26.7071 4.79289C26.8947 4.98043 27 5.23478 27 5.5C27 5.76522 26.8947 6.01957 26.7071 6.20711C26.5196 6.39464 26.2652 6.5 26 6.5H24V8.5C24 8.76522 23.8947 9.01957 23.7071 9.20711C23.5196 9.39464 23.2652 9.5 23 9.5C22.7348 9.5 22.4804 9.39464 22.2929 9.20711C22.1054 9.01957 22 8.76522 22 8.5V6.5H20C19.7348 6.5 19.4804 6.39464 19.2929 6.20711C19.1054 6.01957 19 5.76522 19 5.5Z"></path>
</g>
<defs>
<clipPath id="clip0_1054_7125">
<rect transform="translate(0 0.5)" fill="white" height="32" width="32"></rect>
</clipPath>
</defs>
</svg>
