<svg xmlns="http://www.w3.org/2000/svg" fill="none" viewBox="0 0 32 33" height="33" width="32">
<path fill="black" d="M26.8577 23.015C26.79 23.128 26.7008 23.2265 26.595 23.3049C26.4893 23.3833 26.369 23.44 26.2413 23.4718C26.1135 23.5036 25.9808 23.5099 25.8506 23.4903C25.7204 23.4707 25.5954 23.4256 25.4827 23.3575L17.0002 18.2663V27.5C17.0002 27.7652 16.8948 28.0196 16.7073 28.2071C16.5197 28.3946 16.2654 28.5 16.0002 28.5C15.7349 28.5 15.4806 28.3946 15.293 28.2071C15.1055 28.0196 15.0002 27.7652 15.0002 27.5V18.2663L6.51515 23.3575C6.4025 23.4267 6.27724 23.4729 6.14663 23.4934C6.01601 23.5139 5.88263 23.5082 5.7542 23.4768C5.62577 23.4454 5.50484 23.3889 5.39841 23.3104C5.29198 23.232 5.20216 23.1332 5.13415 23.0198C5.06614 22.9065 5.02129 22.7807 5.00219 22.6499C4.98309 22.5191 4.99012 22.3858 5.02288 22.2577C5.05564 22.1296 5.11347 22.0093 5.19304 21.9037C5.2726 21.7981 5.37231 21.7093 5.4864 21.6425L14.0564 16.5L5.4864 11.3575C5.37231 11.2907 5.2726 11.2019 5.19304 11.0963C5.11347 10.9907 5.05564 10.8704 5.02288 10.7423C4.99012 10.6142 4.98309 10.4809 5.00219 10.3501C5.02129 10.2193 5.06614 10.0935 5.13415 9.98015C5.20216 9.86677 5.29198 9.768 5.39841 9.68956C5.50484 9.61112 5.62577 9.55457 5.7542 9.52317C5.88263 9.49177 6.01601 9.48614 6.14663 9.50663C6.27724 9.52711 6.4025 9.57329 6.51515 9.6425L15.0002 14.7338V5.5C15.0002 5.23478 15.1055 4.98043 15.293 4.79289C15.4806 4.60536 15.7349 4.5 16.0002 4.5C16.2654 4.5 16.5197 4.60536 16.7073 4.79289C16.8948 4.98043 17.0002 5.23478 17.0002 5.5V14.7338L25.4852 9.6425C25.5978 9.57329 25.7231 9.52711 25.8537 9.50663C25.9843 9.48614 26.1177 9.49177 26.2461 9.52317C26.3745 9.55457 26.4955 9.61112 26.6019 9.68956C26.7083 9.768 26.7981 9.86677 26.8662 9.98015C26.9342 10.0935 26.979 10.2193 26.9981 10.3501C27.0172 10.4809 27.0102 10.6142 26.9774 10.7423C26.9447 10.8704 26.8868 10.9907 26.8073 11.0963C26.7277 11.2019 26.628 11.2907 26.5139 11.3575L17.9439 16.5L26.5139 21.6425C26.6266 21.71 26.725 21.7991 26.8033 21.9046C26.8816 22.0101 26.9383 22.13 26.9702 22.2575C27.0022 22.385 27.0086 22.5175 26.9893 22.6475C26.97 22.7774 26.9253 22.9023 26.8577 23.015Z"></path>
</svg>
