<svg xmlns="http://www.w3.org/2000/svg" fill="none" viewBox="0 0 32 33" height="33" width="32">
<path fill="black" d="M19 12.5H13C12.7348 12.5 12.4804 12.6054 12.2929 12.7929C12.1054 12.9804 12 13.2348 12 13.5V19.5C12 19.7652 12.1054 20.0196 12.2929 20.2071C12.4804 20.3946 12.7348 20.5 13 20.5H19C19.2652 20.5 19.5196 20.3946 19.7071 20.2071C19.8946 20.0196 20 19.7652 20 19.5V13.5C20 13.2348 19.8946 12.9804 19.7071 12.7929C19.5196 12.6054 19.2652 12.5 19 12.5ZM18 18.5H14V14.5H18V18.5ZM29 18.5H27V14.5H29C29.2652 14.5 29.5196 14.3946 29.7071 14.2071C29.8946 14.0196 30 13.7652 30 13.5C30 13.2348 29.8946 12.9804 29.7071 12.7929C29.5196 12.6054 29.2652 12.5 29 12.5H27V7.5C27 6.96957 26.7893 6.46086 26.4142 6.08579C26.0391 5.71071 25.5304 5.5 25 5.5H20V3.5C20 3.23478 19.8946 2.98043 19.7071 2.79289C19.5196 2.60536 19.2652 2.5 19 2.5C18.7348 2.5 18.4804 2.60536 18.2929 2.79289C18.1054 2.98043 18 3.23478 18 3.5V5.5H14V3.5C14 3.23478 13.8946 2.98043 13.7071 2.79289C13.5196 2.60536 13.2652 2.5 13 2.5C12.7348 2.5 12.4804 2.60536 12.2929 2.79289C12.1054 2.98043 12 3.23478 12 3.5V5.5H7C6.46957 5.5 5.96086 5.71071 5.58579 6.08579C5.21071 6.46086 5 6.96957 5 7.5V12.5H3C2.73478 12.5 2.48043 12.6054 2.29289 12.7929C2.10536 12.9804 2 13.2348 2 13.5C2 13.7652 2.10536 14.0196 2.29289 14.2071C2.48043 14.3946 2.73478 14.5 3 14.5H5V18.5H3C2.73478 18.5 2.48043 18.6054 2.29289 18.7929C2.10536 18.9804 2 19.2348 2 19.5C2 19.7652 2.10536 20.0196 2.29289 20.2071C2.48043 20.3946 2.73478 20.5 3 20.5H5V25.5C5 26.0304 5.21071 26.5391 5.58579 26.9142C5.96086 27.2893 6.46957 27.5 7 27.5H12V29.5C12 29.7652 12.1054 30.0196 12.2929 30.2071C12.4804 30.3946 12.7348 30.5 13 30.5C13.2652 30.5 13.5196 30.3946 13.7071 30.2071C13.8946 30.0196 14 29.7652 14 29.5V27.5H18V29.5C18 29.7652 18.1054 30.0196 18.2929 30.2071C18.4804 30.3946 18.7348 30.5 19 30.5C19.2652 30.5 19.5196 30.3946 19.7071 30.2071C19.8946 30.0196 20 29.7652 20 29.5V27.5H25C25.5304 27.5 26.0391 27.2893 26.4142 26.9142C26.7893 26.5391 27 26.0304 27 25.5V20.5H29C29.2652 20.5 29.5196 20.3946 29.7071 20.2071C29.8946 20.0196 30 19.7652 30 19.5C30 19.2348 29.8946 18.9804 29.7071 18.7929C29.5196 18.6054 29.2652 18.5 29 18.5ZM25 25.5H7V7.5H25V19.4837C25 19.4837 25 19.495 25 19.5C25 19.505 25 19.5113 25 19.5163V25.5Z"></path>
</svg>
