<svg xmlns="http://www.w3.org/2000/svg" fill="none" viewBox="0 0 72 39" height="39" width="72">
<path fill="black" d="M70.9751 38.5869C70.7418 38.8268 70.457 38.9522 70.1237 38.9522C69.7903 38.9522 69.507 38.8268 69.2707 38.5869C69.0373 38.3423 68.9222 38.0474 68.9222 37.6978C68.9222 37.3559 69.0358 37.0627 69.2737 36.8212C69.5101 36.5781 69.7903 36.4605 70.1222 36.4605C70.4555 36.4605 70.7403 36.5781 70.9736 36.8212C71.207 37.0611 71.3297 37.3575 71.3297 37.6978C71.3312 38.0474 71.21 38.3423 70.9751 38.5869ZM69.3949 36.9404C69.1919 37.1536 69.0919 37.4045 69.0919 37.7009C69.0919 38.0004 69.1919 38.2591 69.3919 38.4677C69.5934 38.6763 69.8388 38.7829 70.1252 38.7829C70.413 38.7829 70.6585 38.6778 70.8585 38.4677C71.06 38.2591 71.16 38.0004 71.16 37.7009C71.16 37.4045 71.06 37.1536 70.8585 36.9404C70.6585 36.7318 70.413 36.6267 70.1252 36.6267C69.8388 36.6267 69.5934 36.7318 69.3949 36.9404ZM70.1009 37.0109C70.2646 37.0109 70.3827 37.0282 70.4615 37.0611C70.6009 37.1191 70.6706 37.2352 70.6706 37.4077C70.6706 37.53 70.6236 37.6225 70.5373 37.6774C70.4933 37.7087 70.4282 37.7338 70.3464 37.7448C70.4494 37.7621 70.5236 37.8075 70.5721 37.8781C70.6206 37.9518 70.6433 38.0208 70.6433 38.0898V38.1917C70.6433 38.2231 70.6433 38.2576 70.6464 38.2936C70.6494 38.3313 70.6524 38.3517 70.6615 38.3642L70.6706 38.3799H70.4479C70.4464 38.3767 70.4418 38.372 70.4418 38.3689C70.4403 38.3642 70.4403 38.3564 70.4388 38.3517L70.4373 38.3093V38.198C70.4373 38.0427 70.3949 37.9377 70.3115 37.8875C70.26 37.8577 70.1752 37.8436 70.0509 37.8436H69.8706V38.3815H69.6343V37.0109H70.1009ZM70.3509 37.2273C70.2918 37.1944 70.1979 37.1787 70.0691 37.1787H69.8737V37.6742H70.0812C70.1782 37.6742 70.2524 37.6648 70.3009 37.646C70.3934 37.6068 70.4388 37.5362 70.4388 37.4312C70.4388 37.3277 70.41 37.2603 70.3509 37.2273Z"></path>
<path fill="black" d="M70.2462 0.577848L70.2568 6.91924L68.3812 7.69702L68.3842 4.21114L67.0948 4.76154L67.1024 34.4472L68.1781 34.902V37.5913L63.2132 35.5935L63.2147 32.9983L64.4131 33.417L64.4101 5.78551L63.1208 6.23712V9.63362L61.3163 10.2703L61.3178 4.2425L70.2462 0.577848Z"></path>
<path fill="black" d="M60.4101 5.27707C60.4101 7.23406 60.4101 10.5537 60.4101 10.5537L58.3617 11.2547V7.6496L56.8436 8.03849C56.8436 8.03849 56.8436 12.0638 56.8436 12.9984C56.8436 13.1474 56.8391 13.3528 56.9194 13.5849C57.58 15.5026 60.7086 19.9059 61.2116 21.3234C61.248 21.4332 61.2783 21.7421 61.2783 21.8425C61.2783 23.8073 61.2828 32.562 61.2828 33.7851C61.2828 34.3653 60.6813 34.7323 60.2147 34.6303C59.3011 34.4327 56.6679 33.7255 55.6164 33.4056C55.3846 33.3335 54.9497 32.8991 54.9497 32.319C54.9452 30.801 54.9467 26.7506 54.9467 26.7506L57.1663 27.2556L57.1648 31.2495L58.6238 31.6211C58.6238 31.6211 58.6238 24.2228 58.6238 22.5905C58.6238 22.4823 58.589 22.2157 58.5617 22.1404C58.0496 20.7762 55.0119 16.2616 54.3073 14.5649C54.174 14.2419 54.1528 13.9628 54.1528 13.7166C54.1528 12.2535 54.1513 8.66103 54.1513 7.18858C54.1513 6.66954 54.6119 6.09562 55.0573 5.93254C55.9406 5.6048 58.389 4.85055 59.5799 4.5777C59.992 4.48204 60.4101 4.81291 60.4101 5.27707Z"></path>
<path fill="black" d="M13.3521 5.47193V8.00755L12.5082 7.79586C12.5082 7.79586 13.7824 21.4838 13.8445 21.454C13.8384 21.4634 14.8535 8.35567 14.8535 8.35567L14.1021 8.18318V5.6554L18.1973 6.5351L18.1958 9.03309L17.3837 8.88098L15.0081 33.3261L12.6021 33.9188L9.77192 7.05101L9.02649 6.83147V4.25195L13.3521 5.47193Z"></path>
<path fill="black" d="M25.9287 7.62754L25.9318 12.9826L24.0909 12.7882V9.90128L22.7046 9.7335V17.0863L25.1091 17.0816L25.1121 19.8054H22.7031L22.7046 29.4696L24.1803 29.294L24.1849 24.9205L26.3181 24.701V31.5332L18.7048 32.5697V30.0765L19.9305 29.8742V9.3305L19.0108 9.17682V6.68355L25.9287 7.62754Z"></path>
<path fill="black" d="M41.0965 7.88669L41.0949 10.3439L39.9813 10.4019L39.9844 28.8004L41.5661 28.8914L41.5676 24.1683L43.7342 24.2906V31.5164L36.3936 31.1416V28.6922L37.2981 28.7064L37.3042 10.4944L36.1754 10.5117V8.06546L41.0965 7.88669Z"></path>
<path fill="black" d="M35.6089 28.6855C34.8877 28.6792 34.8801 28.0849 34.8801 28.0849C34.8801 26.752 34.8786 22.4084 34.8786 21.0692C34.8649 19.4619 33.9438 19.0997 33.9438 19.0997C34.3407 18.7955 34.8559 18.3062 34.8589 17.5206C34.8589 16.6362 34.8574 12.7457 34.8574 10.6304C34.7998 9.83062 34.6513 8.26879 32.2984 8.04926C31.5242 7.95831 26.8122 7.70585 26.8122 7.70585V10.1662L28.041 10.2634L28.0334 28.9348L27.1274 29.0022L27.1319 31.461L31.5605 31.1944L31.5575 28.7466L30.5984 28.7827V20.4075C30.5984 20.4043 32.4726 20.4075 32.4726 20.4075L32.4741 28.3201C32.5378 30.1767 32.6393 31.232 35.6089 31.127C35.6089 31.127 35.6104 28.6902 35.6089 28.6855ZM30.6272 17.3638V10.414L32.3166 10.4782L32.3181 17.3638H30.6272Z"></path>
<path fill="black" d="M54.1125 30.5584L53.2611 30.3875L50.3309 6.85034L48.0976 7.18904L45.4689 29.2224L44.5735 29.1362L44.575 31.595L48.8552 32.1265V29.6411L48.1491 29.5423L48.4052 26.2697L50.1006 26.5096L50.3551 29.8669L49.5824 29.7446V32.2347L54.1095 33.069L54.1125 30.5584ZM48.6385 23.4644L49.2612 16.4753C49.2567 16.4753 49.9445 23.6447 49.9445 23.6447L48.6385 23.4644Z"></path>
<path fill="black" d="M8.23986 3.99759V9.83249L6.2157 9.29149V5.90126L4.62939 5.32106V16.4248L7.52625 16.4263V19.5218L4.59303 19.5249L4.59606 33.8918L6.22933 33.2913L6.23085 27.781L8.55955 26.964V35.1008L0.0553263 38.6275V35.8661L1.57648 35.1385L1.57193 4.05874L0.0522955 3.34055L0.0507812 0.571289L8.23986 3.99759Z"></path>
</svg>
