<svg xmlns="http://www.w3.org/2000/svg" fill="none" viewBox="0 0 128 26" height="26" width="128">
<g clip-path="url(#clip0_1676_84491)">
<path fill="white" d="M39.187 9.53979L36.2188 18.5119L33.2505 9.53979H28.4889L29.8493 13.8031L28.3034 18.5119L25.3351 9.53979H20.1406L26.0772 25.3205H30.5296L32.2611 20.2935L33.9926 25.3205H38.445L44.3815 9.53979H39.187Z"></path>
<path fill="white" d="M56.754 14.121V9.53953H52.7966V2.92188L47.8494 4.44903V9.53953H45.941L44.3984 14.121H47.8494V19.2116C47.8494 22.9022 49.2718 25.8293 53.1676 25.8293C54.8372 25.8293 55.9506 25.3202 56.754 24.6839L55.2701 20.7706C53.6932 21.7568 52.7966 21.2478 52.7966 18.8298V14.121H56.754Z"></path>
<path fill="white" d="M66.9147 9.03125C62.0291 9.03125 58.752 12.7855 58.752 17.4306C58.752 22.0757 62.0909 25.83 66.9147 25.83C71.5215 25.83 75.0775 22.0757 75.0775 17.4306C75.0775 12.7855 71.4906 9.03125 66.9147 9.03125ZM66.9147 21.2485C65.1213 21.2485 63.6989 19.5305 63.6989 17.4306C63.6989 15.3308 65.1213 13.6127 66.9147 13.6127C68.7076 13.6127 70.13 15.3308 70.13 17.4306C70.13 19.5305 68.7076 21.2485 66.9147 21.2485Z"></path>
<path fill="white" d="M95.1185 9.03125C93.4184 9.03125 91.6249 9.73119 90.3262 11.322C89.4295 9.89028 88.1617 9.03125 86.4615 9.03125C84.7299 9.03125 83.4312 9.9221 82.5036 11.322V9.54028H77.5566V25.321H82.5036V17.1761C82.5036 14.3127 83.7095 13.6127 84.7299 13.6127C85.8122 13.6127 86.7089 14.1218 86.7089 16.667V25.321H91.6558V17.1761C91.6558 14.3127 92.8618 13.6127 93.8822 13.6127C94.9639 13.6127 95.8607 14.1218 95.8607 16.667V25.321H100.808V16.158C100.808 11.3856 98.2416 9.03125 95.1185 9.03125Z"></path>
<path fill="white" d="M106.511 6.99439C108.15 6.99439 109.479 5.6263 109.479 3.94006C109.479 2.25382 108.15 0.885742 106.511 0.885742C104.873 0.885742 103.543 2.25382 103.543 3.94006C103.543 5.6263 104.873 6.99439 106.511 6.99439ZM104.038 25.3203H108.985V9.53961H104.038V25.3203Z"></path>
<path fill="white" d="M120.007 21.2485C117.966 21.2485 116.42 19.5305 116.42 17.4306C116.42 15.3308 117.966 13.6127 120.007 13.6127C121.12 13.6127 121.862 14.0264 122.542 14.7899L125.324 11.6084C124.119 10.0812 122.202 9.03125 119.697 9.03125C114.689 9.03125 111.473 12.7855 111.473 17.4306C111.473 22.0757 114.689 25.83 119.697 25.83C122.202 25.83 124.119 24.7801 125.324 23.2529L122.542 20.0714C121.862 20.8349 121.12 21.2485 120.007 21.2485Z"></path>
<path fill="white" d="M9.08956 25.3429H22.8313L15.1012 5.01562H10.3773L0.5 25.3429H5.65337L12.5245 11.6441L15.5307 20.9239H11.2362L9.08956 25.3429Z"></path>
</g>
<defs>
<clipPath id="clip0_1676_84491">
<rect transform="translate(0.5 0.849609)" fill="white" height="25" width="127"></rect>
</clipPath>
</defs>
</svg>
