<svg xmlns="http://www.w3.org/2000/svg" fill="none" viewBox="0 0 114 31" height="31" width="114">
<g clip-path="url(#clip0_1676_84791)">
<path fill="white" d="M30.5157 4.5918L28.436 14.315L24.3547 14.7673L26.523 4.5918H21.0629L16.1582 27.5951H21.6196L23.5527 18.4679H27.5454L25.6122 27.5951H31.0725L35.9757 4.5918H30.5157Z"></path>
<path fill="white" d="M50.9106 10.3743C50.7917 8.44651 50.1925 6.95093 49.1113 5.88878C48.0303 4.82662 46.569 4.29492 44.731 4.29492C42.9893 4.29492 41.4091 4.86443 39.9901 6.00345C38.5728 7.14244 37.4566 8.59395 36.6459 10.3579C35.8338 12.1219 35.2308 14.0055 34.8327 16.0101C34.4349 18.0147 34.2949 19.9589 34.41 21.8425C34.5289 23.7703 35.1281 25.2596 36.2093 26.3117C37.2902 27.3638 38.7489 27.8891 40.5883 27.8891C42.33 27.8891 43.9115 27.326 45.3304 26.197C46.7491 25.0693 47.8703 23.6229 48.6934 21.8589C49.5168 20.0962 50.1211 18.2113 50.5066 16.2067C50.8918 14.2021 51.0269 12.2579 50.9106 10.3743ZM44.9801 14.8925C44.5633 17.0723 43.9816 19.1147 43.232 21.021C42.4826 22.9274 41.747 23.8799 41.0238 23.8799C40.6509 23.8799 40.3643 23.7602 40.1653 23.5183C39.9652 23.2777 39.8476 22.8278 39.8114 22.1714C39.75 21.0765 39.9177 19.4499 40.313 17.2915C40.7085 15.1344 41.2853 13.0971 42.0447 11.1794C42.8041 9.26297 43.5787 8.30414 44.3681 8.30414C45.07 8.30414 45.4516 8.87491 45.5156 10.0127C45.5757 11.0862 45.3967 12.7128 44.9811 14.8925H44.9801Z"></path>
<path fill="white" d="M65.36 6.26659C63.9847 5.14898 61.6765 4.58829 59.0639 4.59083H54.3155L49.4121 27.5941H54.8723L56.4751 20.0053C56.4751 20.0053 61.4648 20.2573 64.748 17.314C66.5098 15.7353 67.5532 13.0251 67.5332 10.7344C67.5183 8.8911 66.735 7.38416 65.36 6.26783V6.26659ZM61.2648 14.3506C60.0374 16.0843 57.3735 15.8663 57.3735 15.8663L58.9139 8.69581C58.9139 8.69581 60.474 8.54586 61.4374 9.29304C62.3658 10.0125 62.8401 12.1255 61.2648 14.3506Z"></path>
<path fill="white" d="M75.5978 4.5918H70.1378L65.2344 27.5951H77.0467L77.9826 23.1423L71.4951 23.863L75.5978 4.5918Z"></path>
<path fill="white" d="M83.2426 4.5918L78.3379 27.5951H83.7994L88.7028 4.5918H83.2426Z"></path>
<path fill="white" d="M102.273 4.5918H99.6354H90.1336L85.2305 27.5951H90.6904L92.4073 19.5237H97.8161L98.7445 15.1075L93.2155 15.7161L94.6554 9.04452H98.6993H101.337H102.82L98.8534 27.5951H104.314L108.28 9.04452H112.528L113.464 4.5918H102.273Z"></path>
<path fill="white" d="M16.3757 18.9651C16.2306 18.1637 15.9341 17.4494 15.4836 16.8219C15.0345 16.1944 14.5002 15.6312 13.8834 15.131C13.2653 14.632 12.6134 14.1608 11.9278 13.7186C11.406 13.4174 10.9118 13.0911 10.4426 12.7421C9.9734 12.3931 9.62181 11.9874 9.38908 11.5224C9.15512 11.0575 9.11133 10.5006 9.25397 9.84919C9.34655 9.43087 9.48793 9.07682 9.67688 8.78576C9.86705 8.49598 10.1186 8.27548 10.4313 8.12302C10.7441 7.97183 11.0694 7.89624 11.4048 7.89624C11.909 7.89624 12.2843 8.02979 12.5346 8.29689C12.7836 8.56402 12.9275 8.92436 12.9675 9.37795C13.0075 9.83155 12.975 10.3255 12.8712 10.8597C12.7673 11.3939 12.6147 11.9281 12.412 12.4636L17.7921 11.8714C18.3651 10.2914 18.5403 8.92563 18.3176 7.77652C18.0949 6.62618 17.4793 5.73665 16.4708 5.10919C16.1743 4.92523 15.8427 4.76897 15.4761 4.6392L15.874 2.83493L13.1577 0.963867L10.0122 2.83493L9.66185 4.41996C9.07754 4.54219 8.52576 4.70597 8.01028 4.91765C6.79288 5.41788 5.79443 6.10834 5.01244 6.99158C4.2292 7.87483 3.70994 8.89666 3.45345 10.0583C3.25326 10.9643 3.232 11.7555 3.39215 12.4284C3.55104 13.1024 3.83005 13.7072 4.23043 14.2414C4.62958 14.7757 5.09752 15.2582 5.63302 15.6879C6.16727 16.1188 6.70279 16.5195 7.23579 16.8899C7.84764 17.2855 8.42568 17.7152 8.96744 18.1801C9.50797 18.6451 9.92586 19.1969 10.2186 19.8357C10.5114 20.4758 10.5552 21.2595 10.35 22.1881C10.2374 22.6996 10.0747 23.118 9.8633 23.443C9.65183 23.7681 9.38785 24.0125 9.07256 24.1751C8.756 24.3376 8.40316 24.4195 8.01028 24.4195C7.25457 24.4195 6.7228 24.0188 6.50761 23.4733C6.2924 22.9277 6.31117 22.3519 6.47258 21.4913C6.63397 20.632 7.04436 19.7261 7.45101 18.7723H2.12343C2.12343 18.7723 0.89226 20.9306 0.668298 22.8697C0.545681 23.9281 0.709587 24.8391 1.15626 25.6064C1.60294 26.3737 2.31862 26.966 3.30455 27.3842C3.66741 27.5378 4.07154 27.664 4.51321 27.761L3.86259 30.7067H9.74193L10.4151 27.6563C10.898 27.5368 11.3472 27.3894 11.7626 27.2104C13 26.6761 13.991 25.9264 14.7367 24.9625C15.4811 23.9987 15.9816 22.9353 16.2381 21.7736C16.4733 20.7051 16.5184 19.7689 16.3745 18.9676L16.3757 18.9651Z"></path>
</g>
<defs>
<clipPath id="clip0_1676_84791">
<rect transform="translate(0.5 0.849609)" fill="white" height="30" width="113"></rect>
</clipPath>
</defs>
</svg>
