<svg xmlns="http://www.w3.org/2000/svg" fill="none" viewBox="0 0 24 25" height="25" width="24">
<path fill="#1C1C1C" d="M22.975 7.39654C22.975 13.0058 22.975 18.6149 22.975 24.2241C22.9171 24.3237 22.8248 24.3927 22.6979 24.431C22.0976 24.523 21.4971 24.523 20.8968 24.431C20.0872 23.9212 19.3021 23.3924 18.5416 22.8448C18.4761 22.6509 18.3375 22.5589 18.126 22.5689C17.7824 22.3742 17.4592 22.1444 17.1562 21.8793C12.2846 21.7416 7.38943 21.6956 2.4706 21.7414C1.48025 21.5147 0.810614 20.9169 0.461721 19.9482C0.43634 17.9651 0.367068 15.9881 0.253906 14.0172C0.26082 11.2655 0.26082 8.52992 0.253906 5.81034C0.367138 4.69475 0.436409 3.56831 0.461721 2.43103C0.749212 1.86841 1.14175 1.38565 1.63934 0.982758C2.57111 0.72131 3.51782 0.5604 4.47947 0.5C8.00816 0.681393 11.541 0.681393 15.078 0.5C16.1817 0.600634 17.036 1.10639 17.6411 2.01724C17.894 3.08997 18.0557 4.17042 18.126 5.25861C19.3004 5.25689 20.4549 5.39482 21.5895 5.67241C22.3659 6.00156 22.8277 6.57627 22.975 7.39654ZM17.7103 16.7758C17.9159 16.2856 18.0083 15.7568 17.9874 15.1896C17.9751 12.8678 17.9288 10.5461 17.8489 8.22413C17.9741 8.12633 18.0203 7.9884 17.9874 7.81033C18.8105 7.6844 19.6418 7.63847 20.4812 7.6724C20.6639 9.91806 20.7563 12.1939 20.7583 14.5C20.7351 16.7299 20.7122 18.9597 20.689 21.1896C20.5304 21.3529 20.3687 21.3529 20.2041 21.1896C19.8747 20.8616 19.5052 20.5858 19.0958 20.362C18.713 20.1441 18.3435 19.8913 17.9874 19.6034C12.9537 19.5575 7.91991 19.5114 2.88623 19.4655C2.81695 19.3965 2.74768 19.3276 2.67841 19.2586C2.58604 13.9252 2.58604 8.59199 2.67841 3.25862C2.79386 3.14368 2.90932 3.02873 3.02477 2.91379C7.14075 2.79998 11.2508 2.82298 15.3551 2.98276C15.4819 3.09695 15.5741 3.23488 15.6322 3.39655C15.5435 4.02172 15.4513 4.64241 15.3551 5.25861C14.6598 5.30479 13.967 5.37376 13.277 5.46551C10.9248 5.3281 8.59254 5.28213 6.28053 5.32758C6.07646 5.38318 5.89178 5.47512 5.72636 5.60344C5.49804 9.22357 5.45177 12.8558 5.58782 16.5C5.65709 16.6379 5.72636 16.7758 5.79563 16.9138C6.40286 17.1059 7.02631 17.1979 7.66596 17.1896C10.4598 17.1866 13.2538 17.1866 16.0478 17.1896C16.4173 17.1666 16.7867 17.1437 17.1562 17.1207C17.4083 17.0931 17.593 16.978 17.7103 16.7758ZM8.01232 7.6724C10.5065 7.64937 13.0003 7.6724 15.4936 7.74137C15.4977 10.0345 15.4977 12.3563 15.4936 14.7069C13.0123 14.6619 10.5417 14.708 8.08159 14.8448C7.92157 13.6712 7.8523 12.4757 7.87378 11.2586C7.87572 10.0528 7.92185 8.85737 8.01232 7.6724Z" clip-rule="evenodd" fill-rule="evenodd" opacity="0.999"></path>
<path fill="#5C5C5C" d="M20.4821 7.67249C19.6426 7.63856 18.8114 7.68449 17.9883 7.81042C18.0037 7.72532 18.0498 7.65636 18.1268 7.60353C18.9372 7.4907 19.7221 7.5136 20.4821 7.67249Z" clip-rule="evenodd" fill-rule="evenodd" opacity="0.252"></path>
<path fill="#6F6F6F" d="M17.8471 8.22412C17.927 10.546 17.9733 12.8678 17.9856 15.1896C18.0065 15.7568 17.9141 16.2856 17.7085 16.7758C17.6627 13.9014 17.7089 11.0507 17.8471 8.22412Z" clip-rule="evenodd" fill-rule="evenodd" opacity="0.591"></path>
<path fill="#878787" d="M22.9766 7.39697C23.1046 8.59132 23.197 9.80966 23.2536 11.0521C23.0842 15.0757 23.0842 19.0987 23.2536 23.1211C23.27 23.5329 23.1777 23.9007 22.9766 24.2245C22.9766 18.6153 22.9766 13.0062 22.9766 7.39697Z" clip-rule="evenodd" fill-rule="evenodd" opacity="0.441"></path>
<path fill="#525252" d="M19.0977 20.3623C19.5071 20.586 19.8765 20.8619 20.206 21.1899C19.8283 21.2224 19.5051 21.1075 19.2362 20.8451C19.2197 20.6871 19.1736 20.5262 19.0977 20.3623Z" clip-rule="evenodd" fill-rule="evenodd" opacity="0.792"></path>
<path fill="#5E5E5E" d="M2.46875 21.7417C7.38758 21.6959 12.2827 21.742 17.1543 21.8797C17.0643 21.9216 16.9719 21.9675 16.8772 22.0176C12.0568 21.9266 7.25389 21.8346 2.46875 21.7417Z" clip-rule="evenodd" fill-rule="evenodd" opacity="0.339"></path>
<path fill="#A4A4A4" d="M18.125 22.5693C18.3366 22.5593 18.4751 22.6513 18.5406 22.8452C18.3291 22.8553 18.1905 22.7633 18.125 22.5693Z" clip-rule="evenodd" fill-rule="evenodd" opacity="0.2"></path>
</svg>
