<svg xmlns="http://www.w3.org/2000/svg" fill="none" viewBox="0 0 188 42" height="42" width="188">
<g clip-path="url(#clip0_1676_84799)">
<path fill="white" d="M65.7444 30.3836L65.6615 28.5869C64.7865 30.1098 62.7106 31.0082 60.2261 31.0082C55.1987 31.0082 52.002 26.3542 52.002 21.3203C52.002 15.986 55.0626 11.7148 60.9359 11.7148C65.2534 11.7148 68.5864 14.2717 68.8587 17.8917H65.0346C64.8423 16.2039 63.0117 14.8431 60.9359 14.8431C57.9046 14.8431 55.8819 17.1847 55.8819 21.4824C55.8819 24.4486 57.3842 27.824 60.9094 27.824C63.3963 27.824 65.3363 25.9476 65.3363 23.6884H61.3199V20.6691H68.8881V30.3836H65.7473H65.7444Z"></path>
<path fill="white" d="M71.8496 30.3837V16.9961H75.1821V18.6014C76.3564 16.8047 77.7225 16.6426 79.1714 16.6426H79.636V20.2626C79.3078 20.2094 78.9797 20.1802 78.651 20.1802C76.4658 20.1802 75.4008 21.2699 75.4008 23.4175V30.3837H71.8496Z"></path>
<path fill="white" d="M81.1992 23.6885C81.1992 19.4439 83.849 16.6399 88.1106 16.6399C92.3722 16.6399 94.942 19.4147 94.942 23.6885C94.942 27.9623 92.2922 30.7371 88.1106 30.7371C83.929 30.7371 81.1992 27.8533 81.1992 23.6885ZM91.3631 23.6885C91.3631 20.9669 90.2693 19.6326 88.1129 19.6326C85.9571 19.6326 84.8628 20.9669 84.8628 23.6885C84.8628 26.4101 85.9542 27.7709 88.1129 27.7709C90.2717 27.7709 91.3631 26.4101 91.3631 23.6885Z"></path>
<path fill="white" d="M96.9414 23.6885C96.9414 19.4439 99.5912 16.6399 103.852 16.6399C108.114 16.6399 110.684 19.4147 110.684 23.6885C110.684 27.9623 108.034 30.7371 103.852 30.7371C99.6711 30.7371 96.9414 27.8533 96.9414 23.6885ZM107.105 23.6885C107.105 20.9669 106.011 19.6326 103.855 19.6326C101.699 19.6326 100.605 20.9669 100.605 23.6885C100.605 26.4101 101.696 27.7709 103.855 27.7709C106.014 27.7709 107.105 26.4101 107.105 23.6885Z"></path>
<path fill="white" d="M120.732 21.5674H124.039V25.3761C124.039 28.2067 122.4 30.737 118.603 30.737C114.806 30.737 113.111 28.2333 113.111 25.3496V13.376H116.61V16.9959H124.041V19.4996H116.61V24.9961C116.61 26.6838 117.21 27.6619 118.659 27.6619C120.108 27.6619 120.735 26.7104 120.735 25.0492V21.5648L120.732 21.5674Z"></path>
<path fill="white" d="M138.434 30.3837L137.287 26.6548H130.594L129.311 30.3837H125.295L131.769 12.3157H136.166L142.56 30.3837H138.434ZM133.928 16.3689H133.9L131.579 23.5531H136.196L133.928 16.3689Z"></path>
<path fill="white" d="M144.533 36.7253V16.9961H147.949L147.976 18.628C148.821 17.2672 150.078 16.6426 151.719 16.6426C155.108 16.6426 157.539 19.3084 157.539 23.8268C157.539 27.8826 155.49 30.7398 152.021 30.7398C150.353 30.7398 149.043 30.0594 148.032 28.6454V36.728H144.533V36.7253ZM153.931 23.5796C153.931 21.1849 152.675 19.5237 150.898 19.5237C149.12 19.5237 147.893 21.1024 147.893 23.3617C147.893 26.2747 148.904 27.7152 150.871 27.7152C152.947 27.7152 153.931 26.3278 153.931 23.5796Z"></path>
<path fill="white" d="M160.104 36.7253V16.9961H163.519L163.546 18.628C164.392 17.2672 165.648 16.6426 167.289 16.6426C170.678 16.6426 173.109 19.3084 173.109 23.8268C173.109 27.8826 171.06 30.7398 167.591 30.7398C165.923 30.7398 164.613 30.0594 163.602 28.6454V36.728H160.104V36.7253ZM169.502 23.5796C169.502 21.1849 168.245 19.5237 166.47 19.5237C164.696 19.5237 163.466 21.1024 163.466 23.3617C163.466 26.2747 164.477 27.7152 166.444 27.7152C168.52 27.7152 169.505 26.3278 169.505 23.5796H169.502Z"></path>
<path fill="white" d="M183.495 21.0493C183.303 19.7443 182.593 19.2818 180.982 19.2818C179.642 19.2818 178.879 19.6088 178.879 20.3981C178.879 21.1875 179.615 21.5144 181.064 21.9211C182.593 22.357 184.042 22.6546 185.08 23.0639C186.5 23.6354 187.293 24.5603 187.293 26.3012C187.293 29.076 185.243 30.7371 181.419 30.7371C177.293 30.7371 174.999 28.8049 174.945 26.0833H178.607C178.607 27.3351 179.671 28.0687 181.392 28.0687C182.649 28.0687 183.77 27.6886 183.77 26.6813C183.77 25.7298 182.759 25.4295 181.611 25.1583C179.343 24.6135 178.086 24.2334 177.131 23.6354C175.874 22.846 175.436 21.8121 175.436 20.6161C175.436 18.3569 176.995 16.6426 181.091 16.6426C184.971 16.6426 186.719 18.1656 186.911 21.052H183.495V21.0493Z"></path>
<path stroke-width="2" stroke="white" d="M9.76222 1.4353H32.401C37.1916 1.4353 41.0753 5.30359 41.0753 10.0752V32.624C41.0753 37.3956 37.1916 41.2639 32.401 41.2639H9.76222C4.97161 41.2639 1.08789 37.3956 1.08789 32.624V10.0752C1.08789 5.30359 4.97161 1.4353 9.76222 1.4353Z"></path>
<path fill="white" d="M26.7407 14.0032L24.3231 12.4271C23.8801 12.1401 23.2984 12.1986 22.9248 12.5707L19.5599 15.9196C19.1916 16.2863 18.6153 16.3501 18.175 16.0737L15.5839 14.4391C15.1756 14.1813 14.6473 14.2159 14.2737 14.5242L9.58789 18.3994V24.2227C9.58789 30.458 14.4979 35.7285 20.7554 35.8986C27.2504 36.0767 32.5686 30.8833 32.5686 24.4592V9.85432L28.099 13.8943C27.7227 14.2345 27.1623 14.277 26.738 14.0006L26.7407 14.0032ZM14.1856 23.1728V22.1735C14.1856 20.8818 15.2557 19.8452 16.5579 19.8851C17.8147 19.9223 18.7807 21.0146 18.7807 22.2665V23.1728C18.7807 23.3802 18.6179 23.5423 18.4098 23.5423H14.5566C14.3511 23.5423 14.1856 23.3802 14.1856 23.1728ZM21.0809 30.769C19.3624 30.769 17.8654 29.8361 17.0622 28.454H25.105C24.3017 29.8361 22.8021 30.769 21.0809 30.769ZM27.9762 23.1728C27.9762 23.3802 27.8081 23.5423 27.6053 23.5423H23.7494C23.5439 23.5423 23.3784 23.3802 23.3784 23.1728V22.2665C23.3784 21.0146 24.3498 19.9223 25.6066 19.8851C26.9088 19.8452 27.9789 20.8818 27.9789 22.1735V23.1728H27.9762ZM32.5712 5.15527V7.15395L28.6033 10.7394C27.9735 11.3055 27.0422 11.3799 26.3351 10.9175L23.9175 9.34405C23.768 9.24834 23.5759 9.26961 23.4478 9.3919L20.0856 12.7408C19.4638 13.3547 18.5166 13.4637 17.7774 12.9959L15.1863 11.364C15.0475 11.279 14.8741 11.2896 14.7487 11.3906L9.58789 15.6617V13.7401L13.8014 10.2557C14.4231 9.74005 15.301 9.68423 15.9842 10.1148L18.5752 11.7468C18.7193 11.8398 18.9088 11.8158 19.0369 11.6936L22.4018 8.3447C23.0182 7.7307 24.0002 7.62709 24.734 8.1028L27.1517 9.6816C27.2931 9.77461 27.4799 9.75868 27.6053 9.6444L32.574 5.15527H32.5712Z"></path>
</g>
<defs>
<clipPath id="clip0_1676_84799">
<rect transform="translate(0.5 0.849609)" fill="white" height="41" width="187"></rect>
</clipPath>
</defs>
</svg>
