<svg xmlns="http://www.w3.org/2000/svg" fill="none" viewBox="0 0 150 28" height="28" width="150">
<path fill="white" d="M69.9381 20.3563H66.1689V10.7717L61.8612 17.7717H61.4304L57.1227 10.7717V20.3563H53.3535V3.87939H57.1227L61.6458 11.2025L66.1689 3.87939H69.9381V20.3563Z"></path>
<path fill="white" d="M84.6921 8.61216V20.3506H81.1382V19.2737C80.3844 20.1352 79.1998 20.6737 77.5844 20.6737C74.4613 20.6737 71.9844 17.9814 71.9844 14.4275C71.9844 10.8737 74.569 8.1814 77.5844 8.1814C79.1998 8.1814 80.2767 8.71985 81.1382 9.58139V8.50447H84.6921V8.61216ZM81.1382 14.4275C81.1382 12.7045 79.9536 11.5199 78.3382 11.5199C76.7228 11.5199 75.5382 12.5968 75.5382 14.4275C75.5382 16.1506 76.7228 17.3352 78.3382 17.3352C79.9536 17.3352 81.1382 16.2583 81.1382 14.4275Z"></path>
<path fill="white" d="M91.7987 11.9545V16.1545C91.7987 17.1238 92.6602 17.2315 94.2756 17.1238V20.3545C89.6448 20.7853 88.3525 19.3853 88.3525 16.1545V11.9545H86.4141V8.50838H88.2448V6.24685L91.7987 5.16992V8.50838H94.2756V11.9545H91.7987Z"></path>
<path fill="white" d="M103.541 8.40015V12.3848C102.034 12.1694 99.9874 12.7078 99.9874 15.0771V20.354H96.4336V8.61553H99.9874V10.6617C100.526 9.15399 102.034 8.40015 103.541 8.40015Z"></path>
<path fill="white" d="M104.832 5.38431C104.832 4.1997 105.801 3.23047 106.986 3.23047C108.17 3.23047 109.14 4.1997 109.14 5.38431C109.14 6.56893 108.17 7.53816 106.986 7.53816C105.801 7.53816 104.832 6.56893 104.832 5.38431ZM105.155 8.61508H108.709V20.3535H105.155V8.61508Z"></path>
<path fill="white" d="M118.505 20.3557L116.352 17.2326L114.198 20.3557H110.105L114.305 14.3249L110.213 8.50952H114.305L116.352 11.4172L118.398 8.50952H122.49L118.398 14.3249L122.598 20.3557H118.505Z"></path>
<path fill="white" d="M123.463 5.38431C123.463 4.1997 124.432 3.23047 125.617 3.23047C126.801 3.23047 127.771 4.1997 127.771 5.38431C127.771 6.56893 126.801 7.53816 125.617 7.53816C124.432 7.53816 123.463 6.56893 123.463 5.38431ZM123.786 8.61508H127.34V20.3535H123.786V8.61508Z"></path>
<path fill="white" d="M134.233 8.61441H136.387V12.0606H134.233V20.4606H130.68V12.0606H129.172V8.61441H130.787C130.787 5.27594 132.618 3.33749 136.495 3.55287V6.99902C135.095 6.78364 134.233 7.21441 134.233 8.61441Z"></path>
<path fill="white" d="M149.416 8.6189L145.432 20.0343C144.139 23.8035 141.985 25.3112 138.755 25.0958V21.7574C140.37 21.7574 141.232 21.2189 141.662 19.8189L136.924 8.6189H140.801L143.385 15.8343L145.647 8.6189H149.416Z"></path>
<path fill="white" d="M36.6518 26.1017H29.5331V11.3898H25.2619V26.1017H15.7704V11.3898H11.4992V26.1017H7.70263V23.7288H9.12636V9.01695H18.1433V23.7288H22.8891V9.01695H31.906V23.7288H36.6518V2.37288H4.38059V20.8814H2.00771V0H39.0247V26.1017H36.6518ZM6.2789 28H0.583984V22.3051H6.2789V28Z" clip-rule="evenodd" fill-rule="evenodd"></path>
</svg>
