<svg xmlns="http://www.w3.org/2000/svg" fill="none" viewBox="0 0 120 25" height="25" width="120">
<path fill="white" d="M60.959 0.399902H65.8094V5.45242H71.7714V9.59549H65.8094V16.568C65.8094 17.6795 66.0115 18.3869 66.4157 18.8921C66.921 19.4984 67.7294 19.8016 68.8409 19.8016C69.5483 19.8016 70.4577 19.7005 70.8619 19.5995L71.5693 23.6415C70.963 23.8436 69.4472 24.0457 68.5378 24.0457C65.6073 24.0457 63.4852 23.0352 62.2726 21.4184C61.3632 20.2058 60.959 18.589 60.959 15.9617V0.399902Z"></path>
<path fill="white" d="M72.377 14.5456C72.377 9.29099 76.52 5.04688 81.9767 5.04688C87.4335 5.04688 91.5765 9.29099 91.5765 14.5456C91.5765 19.8002 87.4335 24.0444 81.9767 24.0444C76.52 24.0444 72.377 19.8002 72.377 14.5456ZM77.2274 14.5456C77.2274 17.274 79.1473 19.4971 81.9767 19.4971C84.8062 19.4971 86.7261 17.274 86.7261 14.5456C86.7261 11.8173 84.8062 9.59414 81.9767 9.59414C79.1473 9.59414 77.2274 11.8173 77.2274 14.5456Z" clip-rule="evenodd" fill-rule="evenodd"></path>
<path fill="white" d="M30.1369 5.04688C24.6802 5.04688 20.5371 9.29099 20.5371 14.5456C20.5371 19.8002 24.6802 24.0444 30.1369 24.0444C35.5936 24.0444 39.7367 19.8002 39.7367 14.5456C39.7367 9.29099 35.5936 5.04688 30.1369 5.04688ZM30.1369 19.4971C27.3075 19.4971 25.3875 17.274 25.3875 14.5456C25.3875 11.8173 27.3075 9.59414 30.1369 9.59414C32.9663 9.59414 34.8863 11.8173 34.8863 14.5456C34.8863 17.274 32.9663 19.4971 30.1369 19.4971Z" clip-rule="evenodd" fill-rule="evenodd"></path>
<path fill="white" d="M50.0458 20.4061C47.8227 20.4061 46.3069 19.2945 46.1048 17.6777H41.3555C41.5576 21.6187 44.9933 24.0439 50.0458 24.0439C54.8962 24.0439 58.3319 21.7197 58.3319 18.0819C58.3319 13.9388 54.8962 12.9283 50.7532 12.5241H50.45C48.0248 12.221 46.6101 12.1199 46.6101 10.8063C46.6101 9.59368 47.9237 8.78527 49.7427 8.78527C51.7637 8.78527 53.1784 9.79578 53.2794 11.1094H58.0288C57.8267 7.37057 54.492 5.14746 49.5405 5.14746C44.8922 5.14746 41.7597 7.57267 41.7597 11.2105C41.7597 15.0504 45.0943 15.9599 49.2374 16.4651H49.3385C52.1679 16.7683 53.4815 16.9704 53.4815 18.3851C53.4815 19.6987 52.1679 20.4061 50.0458 20.4061Z"></path>
<path fill="white" d="M18.3157 13.7372V23.6402H13.3642V14.5456C13.3642 11.5141 12.2527 9.59414 9.72642 9.59414C7.20016 9.59414 5.6844 11.4131 5.6844 14.5456V23.6402H0.833984V5.45108H5.58335V7.67419C6.69491 6.25948 8.41277 5.04688 11.1411 5.04688C14.7789 5.04688 18.3157 7.16894 18.3157 13.7372Z"></path>
<path fill="white" d="M109.666 19.7005C109.666 22.3278 111.788 24.4499 114.415 24.4499C117.043 24.4499 119.165 22.3278 119.165 19.7005V3.53246C119.165 1.81461 117.75 0.399902 116.133 0.399902H100.167C97.54 0.399902 95.418 2.52196 95.418 5.14927C95.418 7.77658 97.54 9.89864 100.167 9.89864H103.199L97.9442 15.2543C97.3379 15.8606 97.0348 16.568 97.0348 17.4774C97.0348 18.2858 97.3379 19.0942 97.9442 19.7005L100.268 22.0247C100.875 22.631 101.582 22.9341 102.39 22.9341C103.199 22.9341 104.007 22.631 104.513 22.0247L109.666 16.7701V19.7005ZM114.314 22.3278C112.9 22.3278 111.788 21.2163 111.788 19.7005V11.6165L102.896 20.61C102.694 20.8121 102.492 20.9131 102.289 20.9131C102.087 20.9131 101.784 20.8121 101.683 20.61L99.3589 18.1848C99.0558 17.8816 99.0558 17.2753 99.3589 16.8711L108.352 7.77658H100.167C98.7526 7.77658 97.6411 6.66503 97.6411 5.14927C97.6411 3.73457 98.7526 2.52196 100.167 2.52196H116.032C116.538 2.52196 116.942 2.92616 116.942 3.43141V19.5995C116.942 21.1152 115.729 22.3278 114.314 22.3278Z" clip-rule="evenodd" fill-rule="evenodd"></path>
</svg>
