<svg xmlns="http://www.w3.org/2000/svg" fill="none" viewBox="0 0 173 50" height="50" width="173">
<path fill="white" d="M56.4564 34.573L56.3791 32.823C55.5615 34.3063 53.6222 35.1813 51.3015 35.1813C46.6052 35.1813 43.6189 30.6485 43.6189 25.7455C43.6189 20.5499 46.478 16.3899 51.9645 16.3899C55.9977 16.3899 59.1112 18.8802 59.3654 22.406H55.7933C55.6139 20.7622 53.9039 19.4368 51.9645 19.4368C49.1328 19.4368 47.2433 21.7175 47.2433 25.9034C47.2433 28.7924 48.6467 32.08 51.9396 32.08C54.2628 32.08 56.075 30.2524 56.075 28.052H52.3235V25.1112H59.3928V34.573H56.4589H56.4564Z"></path>
<path fill="white" d="M62.1598 34.5721V21.5328H65.2732V23.0964C66.37 21.3464 67.6463 21.1885 68.9998 21.1885H69.4335V24.7143C69.1269 24.6625 68.8203 24.634 68.5137 24.634C66.4722 24.634 65.4776 25.6954 65.4776 27.7871V34.5721H62.1598Z"></path>
<path fill="white" d="M70.8942 28.0513C70.8942 23.9172 73.3694 21.1861 77.3503 21.1861C81.3312 21.1861 83.7317 23.8887 83.7317 28.0513C83.7317 32.214 81.2564 34.9166 77.3503 34.9166C73.4442 34.9166 70.8942 32.1079 70.8942 28.0513ZM80.3889 28.0513C80.3889 25.4005 79.3669 24.101 77.3528 24.101C75.3387 24.101 74.3167 25.4005 74.3167 28.0513C74.3167 30.7022 75.3362 32.0276 77.3528 32.0276C79.3694 32.0276 80.3889 30.7022 80.3889 28.0513Z"></path>
<path fill="white" d="M85.599 28.0513C85.599 23.9172 88.0743 21.1861 92.0551 21.1861C96.036 21.1861 98.4365 23.8887 98.4365 28.0513C98.4365 32.214 95.9612 34.9166 92.0551 34.9166C88.1491 34.9166 85.599 32.1079 85.599 28.0513ZM95.0938 28.0513C95.0938 25.4005 94.0718 24.101 92.0576 24.101C90.0435 24.101 89.0215 25.4005 89.0215 28.0513C89.0215 30.7022 90.041 32.0276 92.0576 32.0276C94.0742 32.0276 95.0938 30.7022 95.0938 28.0513Z"></path>
<path fill="white" d="M107.824 25.9861H110.913V29.6957C110.913 32.4527 109.382 34.9171 105.835 34.9171C102.288 34.9171 100.705 32.4786 100.705 29.6698V18.0077H103.973V21.5335H110.915V23.9721H103.973V29.3255C103.973 30.9693 104.534 31.922 105.887 31.922C107.241 31.922 107.827 30.9952 107.827 29.3773V25.9835L107.824 25.9861Z"></path>
<path fill="white" d="M124.361 34.5729L123.289 30.941H117.037L115.838 34.5729H112.087L118.134 16.9749H122.242L128.215 34.5729H124.361ZM120.151 20.9227H120.126L117.957 27.92H122.269L120.151 20.9227Z"></path>
<path fill="white" d="M130.057 40.7487V21.5328H133.247L133.272 23.1222C134.062 21.7968 135.237 21.1885 136.77 21.1885C139.935 21.1885 142.206 23.7849 142.206 28.1858C142.206 32.1361 140.292 34.919 137.051 34.919C135.493 34.919 134.269 34.2563 133.325 32.8791V40.7513H130.057V40.7487ZM138.836 27.945C138.836 25.6126 137.662 23.9946 136.002 23.9946C134.342 23.9946 133.195 25.5323 133.195 27.7327C133.195 30.57 134.14 31.973 135.977 31.973C137.916 31.973 138.836 30.6217 138.836 27.945Z"></path>
<path fill="white" d="M144.602 40.7487V21.5328H147.792L147.817 23.1222C148.607 21.7968 149.782 21.1885 151.315 21.1885C154.48 21.1885 156.751 23.7849 156.751 28.1858C156.751 32.1361 154.837 34.919 151.596 34.919C150.038 34.919 148.814 34.2563 147.87 32.8791V40.7513H144.602V40.7487ZM153.381 27.945C153.381 25.6126 152.207 23.9946 150.549 23.9946C148.892 23.9946 147.743 25.5323 147.743 27.7327C147.743 30.57 148.687 31.973 150.524 31.973C152.464 31.973 153.384 30.6217 153.384 27.945H153.381Z"></path>
<path fill="white" d="M166.453 25.4806C166.273 24.2095 165.61 23.7591 164.105 23.7591C162.853 23.7591 162.14 24.0775 162.14 24.8463C162.14 25.6152 162.828 25.9336 164.182 26.3296C165.61 26.7542 166.964 27.0441 167.933 27.4428C169.26 27.9994 170 28.9002 170 30.5958C170 33.2984 168.085 34.9164 164.513 34.9164C160.66 34.9164 158.516 33.0344 158.466 30.3836H161.886C161.886 31.6028 162.881 32.3173 164.488 32.3173C165.663 32.3173 166.709 31.9471 166.709 30.966C166.709 30.0393 165.765 29.7467 164.693 29.4827C162.574 28.952 161.4 28.5818 160.508 27.9994C159.334 27.2305 158.925 26.2235 158.925 25.0586C158.925 22.8582 160.38 21.1885 164.207 21.1885C167.831 21.1885 169.464 22.6718 169.643 25.4831H166.453V25.4806Z"></path>
<path fill="url(#paint0_linear_884_21)" d="M20.0232 18.6178L17.7648 17.0827C17.351 16.8031 16.8076 16.8601 16.4586 17.2225L13.3153 20.4843C12.9713 20.8415 12.4329 20.9036 12.0216 20.6344L9.60114 19.0424C9.21976 18.7912 8.7262 18.8249 8.37722 19.1252L4 22.8995V28.5714C4 34.6445 8.58661 39.7779 14.432 39.9436C20.4993 40.117 25.4673 35.0587 25.4673 28.8018V14.5768L21.292 18.5117C20.9405 18.843 20.4171 18.8844 20.0207 18.6152L20.0232 18.6178ZM8.29496 27.5488V26.5755C8.29496 25.3174 9.29454 24.3078 10.511 24.3466C11.6851 24.3829 12.5874 25.4468 12.5874 26.6661V27.5488C12.5874 27.7508 12.4354 27.9087 12.2409 27.9087H8.64144C8.44951 27.9087 8.29496 27.7508 8.29496 27.5488ZM14.7361 34.9474C13.1308 34.9474 11.7324 34.0387 10.9821 32.6926H18.4952C17.7449 34.0387 16.3439 34.9474 14.7361 34.9474ZM21.1773 27.5488C21.1773 27.7508 21.0203 27.9087 20.8308 27.9087H17.2289C17.0369 27.9087 16.8824 27.7508 16.8824 27.5488V26.6661C16.8824 25.4468 17.7897 24.3829 18.9638 24.3466C20.1802 24.3078 21.1798 25.3174 21.1798 26.5755V27.5488H21.1773ZM25.4698 10V11.9467L21.7631 15.4389C21.1748 15.9903 20.3049 16.0628 19.6443 15.6123L17.3859 14.0798C17.2463 13.9866 17.0668 14.0073 16.9472 14.1264L13.8064 17.3882C13.2256 17.9862 12.3406 18.0923 11.6502 17.6367L9.22973 16.0472C9.10011 15.9644 8.93808 15.9747 8.82092 16.0731L4 20.2332V18.3615L7.936 14.9677C8.51681 14.4655 9.33691 14.4112 9.97505 14.8305L12.3955 16.42C12.5301 16.5106 12.7071 16.4873 12.8267 16.3682L15.97 13.1064C16.5459 12.5085 17.4632 12.4075 18.1487 12.8709L20.4071 14.4086C20.5392 14.4992 20.7137 14.4836 20.8308 14.3723L25.4723 10H25.4698Z"></path>
<defs>
<linearGradient gradientUnits="userSpaceOnUse" y2="39.9487" x2="14.7361" y1="10" x1="14.7361" id="paint0_linear_884_21">
<stop stop-color="white"></stop>
<stop stop-opacity="0.98" stop-color="white" offset="0.22"></stop>
<stop stop-opacity="0.93" stop-color="white" offset="0.46"></stop>
<stop stop-opacity="0.85" stop-color="white" offset="0.69"></stop>
<stop stop-opacity="0.74" stop-color="white" offset="0.93"></stop>
<stop stop-opacity="0.7" stop-color="white" offset="1"></stop>
</linearGradient>
</defs>
</svg>
