<svg xmlns="http://www.w3.org/2000/svg" fill="none" viewBox="0 0 26 26" height="26" width="26">
<path fill="black" d="M25.784 13C25.784 19.9035 20.0953 25.5 13.078 25.5C6.06073 25.5 0.37207 19.9035 0.37207 13C0.37207 6.09644 6.06073 0.5 13.078 0.5C20.0953 0.5 25.784 6.09644 25.784 13ZM10.2184 11.4354L10.0645 11.2727C9.62547 10.853 9.05294 10.6241 8.44803 10.6241C7.16316 10.6241 6.10298 11.6729 6.10298 12.9784C6.10298 14.284 7.16316 15.3328 8.44803 15.3328C9.0555 15.3328 9.63022 15.1019 10.07 14.6787L14.9496 9.82247L14.9545 9.81758L14.9595 9.81283C15.7738 9.0468 16.8409 8.62303 17.9623 8.62303C20.385 8.62303 22.341 10.5917 22.341 12.9954C22.341 15.3991 20.385 17.3679 17.9623 17.3679C16.8409 17.3679 15.7738 16.9442 14.9595 16.1781L14.9558 16.1747L14.9522 16.1712L14.9405 16.1596L14.9363 16.1555L14.9321 16.1512L14.667 15.8784L14.3348 15.5366L14.6717 15.1994L15.4085 14.4619L15.7673 14.1031L16.1207 14.4669L16.3719 14.7256C16.8072 15.1291 17.3705 15.3497 17.9623 15.3497C19.2471 15.3497 20.3072 14.3009 20.3072 12.9952C20.3072 11.6897 19.2471 10.6409 17.9623 10.6409C17.369 10.6409 16.8043 10.8625 16.3686 11.2682L11.4996 16.1144L11.4971 16.1168L11.4945 16.1192C10.6748 16.9122 9.5918 17.351 8.44803 17.351C6.0252 17.351 4.06919 15.3822 4.06919 12.9784C4.06919 10.5747 6.0252 8.60593 8.44803 8.60593C9.5918 8.60593 10.6748 9.04469 11.4945 9.83761L11.5014 9.84416L11.5091 9.8517L11.5165 9.85953L11.6811 10.0335L12.0043 10.375L11.6717 10.7078L10.9349 11.4449L10.5715 11.8084L10.2184 11.4354Z" clip-rule="evenodd" fill-rule="evenodd" id="Vector"></path>
</svg>
