<svg xmlns="http://www.w3.org/2000/svg" fill="none" viewBox="0 0 107 34" height="34" width="107">
<path stroke-width="1.63642" stroke="black" d="M62.9451 20.6223C65.8248 21.543 68.4263 23.2826 68.2068 26.7191C68.0534 29.1492 66.7955 30.764 64.4331 31.5633C58.1062 33.7044 52.7856 28.5658 50.1467 23.3844C50.1231 23.3409 50.0855 23.3067 50.04 23.2873C49.9945 23.2679 49.9438 23.2644 49.8961 23.2774C49.8484 23.2904 49.8065 23.3192 49.7771 23.359C49.7478 23.3988 49.7328 23.4473 49.7345 23.4968L50.334 32.6981C50.3365 32.7385 50.3504 32.7774 50.374 32.8102C50.3977 32.843 50.4302 32.8685 50.4677 32.8836C50.5052 32.8987 50.5463 32.9029 50.5861 32.8957C50.6259 32.8884 50.6629 32.87 50.6926 32.8426C52.1058 31.5151 54.0488 31.3813 55.8045 31.9862C58.9466 33.0674 62.1636 33.3137 65.4394 32.5803C70.1766 31.5205 73.6238 28.175 73.399 23.0418C73.2812 20.2477 71.9537 17.673 69.5557 16.3241C68.0784 15.4944 66.4725 14.7129 64.8292 14.2365C62.3295 13.5139 57.5709 12.2346 56.1685 10.2916C54.998 8.66791 54.841 6.90507 55.6975 5.00307C56.5468 3.12247 58.3185 2.11616 61.0127 1.98413C65.9747 1.74325 69.0258 5.78457 71.2793 9.63853C71.4898 9.99895 71.5897 9.9704 71.579 9.55289L71.4024 1.21869C71.4017 1.19667 71.3945 1.17536 71.3818 1.15738C71.3691 1.13941 71.3513 1.12557 71.3308 1.11759C71.3103 1.10961 71.2878 1.10783 71.2663 1.11248C71.2448 1.11713 71.2251 1.128 71.2097 1.14375C69.6842 2.77098 67.9071 2.46052 66.0229 1.81819C61.3339 0.217725 55.1515 0.833289 51.8167 4.84249C49.1671 8.02736 49.3652 13.7923 52.989 16.5221C55.8099 18.6418 59.5889 19.5518 62.9451 20.6223Z"></path>
<path stroke-width="1.63642" stroke="black" d="M12.6518 32.2215C11.1745 31.1349 10.484 29.9519 10.4893 28.0463C10.5036 22.012 10.4822 15.4389 10.4251 8.32686C10.4037 5.62373 10.3662 3.23641 12.7482 1.66806C13.0087 1.49678 12.9837 1.41113 12.6733 1.41113H1.43785C1.00964 1.41113 0.981088 1.51997 1.35221 1.73765C2.79031 2.57624 3.52007 3.98044 3.54148 5.95025C3.62356 13.8759 3.61999 21.284 3.53078 28.1748C3.50937 30.0375 2.78496 31.4061 1.35756 32.2803C1.0364 32.4766 1.06495 32.5747 1.44321 32.5747H12.5341C12.9338 32.5747 12.973 32.457 12.6518 32.2215Z"></path>
<path stroke-width="1.63642" stroke="black" d="M29.0787 19.6211C31.5267 19.7032 33.9854 19.6907 36.4548 19.5837C42.0377 19.3374 47.5029 16.4684 47.1763 10.0505C46.8498 3.77706 40.8762 1.50215 35.4913 1.44862C30.1493 1.39152 24.8733 1.38617 19.6633 1.43256C19.31 1.43613 19.2814 1.53248 19.5776 1.72161C21.4564 2.89921 21.7401 4.43544 21.7669 6.54442C21.8275 12.0256 21.8347 18.2508 21.7883 25.2201C21.7669 28.5549 22.072 30.5996 19.5508 32.366C19.5304 32.3792 19.5151 32.3987 19.5073 32.4215C19.4994 32.4442 19.4994 32.4692 19.5072 32.4925C19.515 32.5159 19.5302 32.5365 19.5506 32.5513C19.571 32.5661 19.5954 32.5743 19.6204 32.5748H31.5249C32.2351 32.5748 32.269 32.4249 31.6266 32.1251C30.003 31.3686 29.1037 30.3712 28.9288 29.1329C28.522 26.1889 28.7576 23.0255 28.7094 19.9851C28.7058 19.7318 28.8289 19.6104 29.0787 19.6211Z"></path>
<path stroke-width="1.63642" stroke="black" d="M92.132 17.6513C90.1515 14.2684 87.9158 10.5893 85.425 6.61399C84.3652 4.92788 83.9263 3.15077 85.8372 1.76977C86.1726 1.53068 86.1334 1.41113 85.7194 1.41113H74.0772C73.7132 1.41113 73.6722 1.52532 73.9541 1.75371C75.3315 2.87778 76.5056 4.21775 77.4762 5.77361C80.2132 10.145 83.0395 14.6324 85.9549 19.2357C86.0549 19.3927 86.1066 19.5658 86.1102 19.7549C86.1601 22.4884 86.1655 25.0827 86.1262 27.5378C86.0834 30.1607 85.5321 30.8833 83.7871 32.275C83.5337 32.4748 83.5676 32.5747 83.8888 32.5747H94.9368C95.2616 32.5747 95.2973 32.4748 95.0439 32.275C93.5558 31.0867 92.8386 30.2891 92.8065 28.2069C92.7636 25.4092 92.7476 22.6401 92.7583 19.8995C92.7583 19.6782 92.8172 19.4748 92.9349 19.2893C95.7433 14.7573 98.6017 10.2182 101.51 5.67191C102.434 4.22667 103.608 2.9545 105.032 1.85541C105.414 1.56279 105.364 1.41649 104.882 1.41649L98.4322 1.41113C98.0432 1.41113 98.0093 1.52354 98.3305 1.74835C101.382 3.86268 99.4974 6.45876 98.0575 8.6962C96.077 11.7722 94.1999 14.7573 92.4264 17.6513C92.4112 17.6768 92.3897 17.698 92.3639 17.7126C92.3381 17.7273 92.3089 17.735 92.2792 17.735C92.2495 17.735 92.2203 17.7273 92.1945 17.7126C92.1687 17.698 92.1472 17.6768 92.132 17.6513Z"></path>
<path stroke-width="1.63642" stroke="black" d="M28.6914 2.72268L28.7449 18.3955C28.7449 18.4295 28.7585 18.4622 28.7826 18.4863C28.8067 18.5104 28.8393 18.5239 28.8734 18.5239L33.3108 18.5079C34.2399 18.5051 35.1593 18.317 36.0164 17.9541C36.8736 17.5913 37.6518 17.0609 38.3065 16.3933C38.9612 15.7257 39.4795 14.9339 39.832 14.0633C40.1844 13.1926 40.3639 12.2602 40.3604 11.3192L40.3497 9.71335C40.3425 7.81487 39.5914 5.99688 38.2615 4.65893C36.9316 3.32098 35.1317 2.57256 33.2573 2.57816L28.8199 2.59421C28.7858 2.59421 28.7531 2.60775 28.729 2.63184C28.7049 2.65593 28.6914 2.68861 28.6914 2.72268Z"></path>
<path fill="black" d="M62.9451 20.6223C59.5889 19.5518 55.8099 18.6418 52.989 16.5221C49.3652 13.7923 49.1671 8.02736 51.8167 4.84249C55.1515 0.833289 61.3339 0.217725 66.0229 1.81819C67.9071 2.46052 69.6842 2.77098 71.2097 1.14375C71.2251 1.128 71.2448 1.11713 71.2663 1.11248C71.2878 1.10783 71.3103 1.10961 71.3308 1.11759C71.3513 1.12557 71.3691 1.13941 71.3818 1.15738C71.3945 1.17536 71.4017 1.19667 71.4024 1.21869L71.579 9.55289C71.5897 9.9704 71.4898 9.99895 71.2793 9.63853C69.0258 5.78457 65.9747 1.74325 61.0127 1.98413C58.3185 2.11616 56.5468 3.12247 55.6975 5.00307C54.841 6.90507 54.998 8.66791 56.1685 10.2916C57.5709 12.2346 62.3295 13.5139 64.8292 14.2365C66.4725 14.7129 68.0784 15.4944 69.5557 16.3241C71.9537 17.673 73.2812 20.2477 73.399 23.0418C73.6238 28.175 70.1766 31.5205 65.4394 32.5803C62.1636 33.3137 58.9466 33.0674 55.8045 31.9862C54.0488 31.3813 52.1058 31.5151 50.6926 32.8426C50.6629 32.87 50.6259 32.8884 50.5861 32.8957C50.5463 32.9029 50.5052 32.8987 50.4677 32.8836C50.4302 32.8685 50.3977 32.843 50.374 32.8102C50.3504 32.7774 50.3365 32.7385 50.334 32.6981L49.7345 23.4968C49.7328 23.4473 49.7478 23.3988 49.7771 23.359C49.8065 23.3192 49.8484 23.2904 49.8961 23.2774C49.9438 23.2644 49.9945 23.2679 50.04 23.2873C50.0855 23.3067 50.1231 23.3409 50.1467 23.3844C52.7856 28.5658 58.1062 33.7044 64.4331 31.5633C66.7955 30.764 68.0534 29.1492 68.2068 26.7191C68.4263 23.2826 65.8248 21.543 62.9451 20.6223Z"></path>
<path fill="black" d="M10.4893 28.0463C10.484 29.9519 11.1745 31.1349 12.6518 32.2215C12.973 32.457 12.9338 32.5747 12.5341 32.5747H1.44321C1.06495 32.5747 1.0364 32.4766 1.35756 32.2803C2.78496 31.4061 3.50937 30.0375 3.53078 28.1748C3.61999 21.284 3.62356 13.8759 3.54148 5.95025C3.52007 3.98044 2.79031 2.57624 1.35221 1.73765C0.981088 1.51997 1.00964 1.41113 1.43785 1.41113H12.6733C12.9837 1.41113 13.0087 1.49678 12.7482 1.66806C10.3662 3.23641 10.4037 5.62373 10.4251 8.32686C10.4822 15.4389 10.5036 22.012 10.4893 28.0463Z"></path>
<path fill="black" d="M28.7094 19.9851C28.7576 23.0255 28.522 26.1889 28.9288 29.1329C29.1037 30.3712 30.003 31.3686 31.6266 32.1251C32.269 32.4249 32.2351 32.5748 31.5249 32.5748H19.6204C19.5954 32.5743 19.571 32.5661 19.5506 32.5513C19.5302 32.5365 19.515 32.5159 19.5072 32.4925C19.4994 32.4692 19.4994 32.4442 19.5073 32.4215C19.5151 32.3987 19.5304 32.3792 19.5508 32.366C22.072 30.5996 21.7669 28.5549 21.7883 25.2201C21.8347 18.2508 21.8275 12.0256 21.7669 6.54442C21.7401 4.43544 21.4564 2.89921 19.5776 1.72161C19.2814 1.53248 19.31 1.43613 19.6633 1.43256C24.8733 1.38617 30.1493 1.39152 35.4913 1.44862C40.8762 1.50215 46.8498 3.77706 47.1763 10.0505C47.5029 16.4684 42.0377 19.3374 36.4548 19.5837C33.9854 19.6907 31.5267 19.7032 29.0787 19.6211C28.8289 19.6104 28.7058 19.7318 28.7094 19.9851ZM28.6933 2.72257L28.7469 18.3954C28.7469 18.4294 28.7604 18.4621 28.7845 18.4862C28.8086 18.5103 28.8412 18.5238 28.8753 18.5238L33.3127 18.5078C34.2418 18.505 35.1612 18.3168 36.0184 17.954C36.8756 17.5912 37.6537 17.0608 38.3084 16.3932C38.9631 15.7256 39.4815 14.9338 39.8339 14.0632C40.1863 13.1925 40.3659 12.2601 40.3623 11.3191L40.3516 9.71324C40.3444 7.81476 39.5934 5.99677 38.2634 4.65882C36.9335 3.32087 35.1336 2.57245 33.2592 2.57805L28.8218 2.5941C28.7877 2.5941 28.755 2.60764 28.731 2.63173C28.7069 2.65582 28.6933 2.6885 28.6933 2.72257Z"></path>
<path fill="black" d="M92.132 17.6513C92.1472 17.6768 92.1687 17.698 92.1945 17.7126C92.2203 17.7273 92.2495 17.735 92.2792 17.735C92.3089 17.735 92.3381 17.7273 92.3639 17.7126C92.3897 17.698 92.4112 17.6768 92.4264 17.6513C94.1999 14.7573 96.077 11.7722 98.0575 8.6962C99.4974 6.45876 101.382 3.86268 98.3305 1.74835C98.0093 1.52354 98.0432 1.41113 98.4322 1.41113L104.882 1.41649C105.364 1.41649 105.414 1.56279 105.032 1.85541C103.608 2.9545 102.434 4.22667 101.51 5.67191C98.6017 10.2182 95.7433 14.7573 92.9349 19.2893C92.8172 19.4748 92.7583 19.6782 92.7583 19.8995C92.7476 22.6401 92.7636 25.4092 92.8065 28.2069C92.8386 30.2891 93.5558 31.0867 95.0439 32.275C95.2973 32.4748 95.2616 32.5747 94.9368 32.5747H83.8888C83.5676 32.5747 83.5337 32.4748 83.7871 32.275C85.5321 30.8833 86.0834 30.1607 86.1262 27.5378C86.1655 25.0827 86.1601 22.4884 86.1102 19.7549C86.1066 19.5658 86.0549 19.3927 85.9549 19.2357C83.0395 14.6324 80.2132 10.145 77.4762 5.77361C76.5056 4.21775 75.3315 2.87778 73.9541 1.75371C73.6722 1.52532 73.7132 1.41113 74.0772 1.41113H85.7194C86.1334 1.41113 86.1726 1.53068 85.8372 1.76977C83.9263 3.15077 84.3652 4.92788 85.425 6.61399C87.9158 10.5893 90.1515 14.2684 92.132 17.6513Z"></path>
<path fill="white" d="M28.6953 2.72268C28.6953 2.68861 28.7088 2.65593 28.7329 2.63184C28.757 2.60775 28.7897 2.59421 28.8238 2.59421L33.2612 2.57816C35.1356 2.57256 36.9355 3.32098 38.2654 4.65893C39.5953 5.99688 40.3464 7.81487 40.3536 9.71335L40.3643 11.3192C40.3678 12.2602 40.1883 13.1926 39.8359 14.0633C39.4835 14.9339 38.9651 15.7257 38.3104 16.3933C37.6557 17.0609 36.8775 17.5913 36.0204 17.9541C35.1632 18.317 34.2438 18.5051 33.3147 18.5079L28.8773 18.5239C28.8432 18.5239 28.8106 18.5104 28.7865 18.4863C28.7624 18.4622 28.7488 18.4295 28.7488 18.3955L28.6953 2.72268Z"></path>
</svg>
