<svg xmlns="http://www.w3.org/2000/svg" fill="none" viewBox="0 0 69 21" height="21" width="69">
<g clip-path="url(#clip0_13905_37829)" id="klaviyo-logos-id4J04Irer 2">
<g id="Group">
<path fill="black" d="M39.0328 4.68945C39.3933 4.68945 39.7421 4.54992 39.998 4.30573C40.2538 4.06155 40.4049 3.71271 40.4165 3.36387C40.4165 3.00341 40.2654 2.65457 40.0096 2.39876C39.7538 2.14294 39.4049 1.99178 39.0445 1.99178C38.684 2.00341 38.3468 2.14294 38.091 2.41038C37.8352 2.6662 37.6956 3.01503 37.7072 3.36387C37.7072 3.71271 37.8468 4.04992 38.1026 4.30573C38.3468 4.53829 38.684 4.67782 39.0328 4.68945ZM48.4049 5.96852H51.7305V6.23596C51.5445 6.27085 51.37 6.32899 51.2073 6.42201C50.9049 6.56154 50.3003 7.24759 49.8235 8.39875C49.0328 10.3871 48.2072 12.7476 47.3352 15.4453L47.0096 16.4685C46.87 16.9336 46.7421 17.236 46.684 17.4104C46.6259 17.5964 46.5445 17.8755 46.4049 18.2127C46.3235 18.4685 46.2189 18.7243 46.091 18.9569C45.9282 19.2592 45.6259 19.8755 45.3817 20.0615C44.9979 20.3871 44.4282 20.7476 43.7189 20.6894C42.3352 20.6894 41.3003 19.6662 41.2886 18.4569C41.2886 17.6313 41.8119 17.0848 42.6026 17.0848C43.1724 17.0848 43.6724 17.3871 43.6724 18.0267C43.6724 18.4918 43.2072 18.9685 43.2072 19.2127C43.2072 19.8406 43.5677 20.1313 44.277 20.1313C44.8468 20.1313 45.3119 19.7708 45.6607 19.0499C46.1259 18.2243 46.1724 17.3174 45.777 16.3057L42.8584 8.63131C42.184 6.86387 41.684 6.28248 41.0561 6.21271V5.94527H45.6607V6.21271C45.1142 6.27085 44.8352 6.59643 44.8352 7.17782C44.8352 7.59643 44.9979 8.24759 45.3003 9.07317L45.8468 10.5615C46.4747 12.1778 46.9863 13.5848 47.2421 14.4685C47.8352 12.6313 48.3817 11.0267 48.9049 9.61968C49.2886 8.57317 49.4747 7.82899 49.4747 7.38713C49.4747 6.59643 49.0445 6.23596 48.4049 6.23596V5.96852ZM16.3933 15.7708C15.8003 15.6662 15.3003 15.1429 15.3003 14.0383V0.689453L11.9514 1.41038V1.68945C12.5212 1.63131 13.091 2.13131 13.091 3.20108V14.0383C13.091 15.0848 12.5212 15.6895 11.9514 15.7708C11.8933 15.7825 11.8468 15.7825 11.7886 15.7941C11.4979 15.8174 11.2072 15.7592 10.9398 15.6429C10.4863 15.4453 10.1142 15.0964 9.80027 14.5848L8.25376 12.1313C7.92818 11.6081 7.43981 11.2127 6.87004 10.9918C6.30027 10.7708 5.67236 10.736 5.07934 10.8988L6.82353 8.98015C8.13748 7.52666 9.35841 6.60806 10.5096 6.22434V5.95689H6.67236V6.22434C7.66074 6.60806 7.6026 7.45689 6.46306 8.78247L4.0212 11.6197V0.689453L0.672363 1.41038V1.68945C1.24213 1.68945 1.8119 2.24759 1.8119 3.23596V14.0267C1.8119 15.2243 1.25376 15.6895 0.672363 15.7708V16.0383H5.11422V15.7708C4.38167 15.6662 4.0212 15.1081 4.0212 14.0383V12.0499L4.97469 11.0034L7.27701 14.7708C7.82353 15.6778 8.33516 16.0383 9.13748 16.0383H16.8584V15.829C16.87 15.829 16.6491 15.8174 16.3933 15.7708ZM25.6026 14.5034V9.99178C25.5561 7.04992 24.3119 5.70108 21.4631 5.70108C20.5561 5.68945 19.6724 5.99178 18.9514 6.54992C18.1956 7.11968 17.8352 7.75922 17.8352 8.50341C17.8352 9.22433 18.2421 9.77085 18.9049 9.77085C19.6142 9.77085 20.1259 9.36387 20.1259 8.80573C20.1259 8.38713 19.8468 7.7941 19.8468 7.39875C19.8468 6.67782 20.3933 6.04992 21.3468 6.04992C22.5677 6.04992 23.4398 6.95689 23.4398 8.96852V10.1778L22.4282 10.422C21.9049 10.5267 21.4514 10.6313 21.1142 10.7243C20.7654 10.829 20.3235 10.9685 19.8003 11.1662C18.7421 11.5732 18.184 11.9569 17.6956 12.6778C17.4514 13.0267 17.3352 13.4453 17.3352 13.8639C17.3352 15.5383 18.5096 16.3057 20.1491 16.3057C21.4514 16.3057 22.8235 15.6197 23.4514 14.329C23.4631 14.736 23.5561 15.1313 23.7421 15.5034C24.4282 16.8871 26.7072 16.0732 26.7072 16.0732V15.8057C25.684 15.9569 25.6026 14.7825 25.6026 14.5034ZM23.4398 13.1081C23.4398 13.7708 23.1956 14.3174 22.7072 14.7011C22.2421 15.0848 21.7538 15.2825 21.2421 15.2825C20.2538 15.2825 19.6026 14.6429 19.6026 13.4453C19.6026 12.8871 19.9166 12.3639 20.1724 12.0615C20.3817 11.8522 20.6142 11.6778 20.8817 11.5615C21.2305 11.3755 21.3933 11.2825 21.6375 11.1778L22.5677 10.8406C23.0328 10.6546 23.3119 10.5615 23.4398 10.5034V13.1081ZM68.2305 5.96852H60.3468V0.689453H68.2305L66.5793 3.32899L68.2305 5.96852ZM52.1956 14.7476C51.2189 13.7476 50.6724 12.3988 50.6956 10.9918C50.684 10.3057 50.8119 9.61968 51.0677 8.98015C51.3235 8.34061 51.7073 7.75922 52.1956 7.25922C53.1956 6.21271 54.4049 5.68945 55.8352 5.68945C57.2305 5.68945 58.4514 6.21271 59.4514 7.25922C59.9398 7.74759 60.3352 8.32899 60.591 8.96852C60.8584 9.60806 60.9863 10.2941 60.9747 10.9918C60.9863 11.6895 60.8584 12.3755 60.591 13.015C60.3235 13.6546 59.9398 14.2476 59.4514 14.736C58.4514 15.7592 57.2421 16.2941 55.8352 16.2941C54.4166 16.3057 53.1956 15.7825 52.1956 14.7476ZM57.6607 7.43364C57.2654 6.65457 56.7305 6.20108 56.1142 6.07317C54.8584 5.81736 53.7538 7.10806 53.3352 9.14294C53.1607 10.0615 53.1142 10.9918 53.2072 11.9104C53.3003 12.8406 53.5561 13.736 53.9747 14.5732C54.3817 15.3522 54.9049 15.8057 55.5212 15.9336C56.777 16.1895 57.9166 14.8522 58.3352 12.7941C58.684 11.0732 58.5096 8.98015 57.6607 7.43364Z" id="Vector"></path>
<path fill="black" d="M40.2075 14.0394V5.96964H33.068V6.21382C34.0215 6.35336 34.475 7.07429 34.0447 8.22545C31.8122 14.2487 31.9517 13.9813 31.8122 14.458C31.6726 13.9929 31.3471 12.8534 30.8238 11.4231C30.3005 9.99289 29.9517 9.05103 29.8122 8.6208C29.2657 6.94638 29.4517 6.3301 30.3354 6.22545V5.95801H25.7075V6.22545C26.3936 6.36498 27.0098 7.15568 27.5098 8.56266L28.2191 10.3999C28.9982 12.3766 29.9168 15.1092 30.2191 16.0394H31.754C32.254 14.6092 34.2308 8.88824 34.4982 8.30685C34.7889 7.64405 35.1145 7.14405 35.475 6.79522C35.6494 6.60917 35.8587 6.45801 36.1029 6.36498C36.3354 6.27196 36.5912 6.21382 36.8471 6.22545C36.8471 6.22545 37.9633 6.22545 37.9633 7.29522V14.051C37.9633 15.1789 37.4168 15.7022 36.8471 15.7836V16.051H41.2657V15.7836C40.6959 15.6906 40.2075 15.1673 40.2075 14.0394Z" id="Vector_2"></path>
</g>
</g>
<defs>
<clipPath id="clip0_13905_37829">
<rect transform="translate(0.672363 0.689453)" fill="white" height="20" width="67.5581"></rect>
</clipPath>
</defs>
</svg>
