<svg xmlns="http://www.w3.org/2000/svg" fill="none" viewBox="0 0 24 25" height="25" width="24">
<path fill="#5485E5" d="M12.6451 14.0684H15.6725C16.5335 14.0684 17.0787 13.5947 17.0787 12.8309C17.0787 12.1135 16.5335 11.5934 15.6725 11.5934H12.6451C12.5446 11.5934 12.4587 11.6796 12.4587 11.7659V13.8895C12.473 13.99 12.545 14.062 12.6451 14.062V14.0684ZM12.6451 18.9614H15.7726C16.7341 18.9614 17.3079 18.4739 17.3079 17.6125C17.3079 16.8625 16.7626 16.2636 15.7726 16.2636H12.6451C12.5446 16.2636 12.4587 16.3499 12.4587 16.4361V18.775C12.473 18.8897 12.545 18.9614 12.6451 18.9614ZM23.7215 0.466354L14.7684 9.39135H16.232C18.5135 9.39135 19.862 10.8261 19.862 12.3902C19.862 13.6277 19.0295 14.5277 18.137 14.9297C17.9934 14.9871 17.9934 15.1922 18.1512 15.2455C19.1844 15.6467 19.916 16.723 19.916 17.986C19.916 19.765 18.725 21.1855 16.415 21.1855H10.0764C9.97586 21.1855 9.88998 21.0992 9.88998 21.013V14.2551L0.0616078 24.04C-0.0673922 24.169 0.0184828 24.3989 0.205233 24.3989H23.8362C23.9225 24.3989 23.9937 24.3239 23.9937 24.2414V0.595729C24.0369 0.438229 23.8362 0.351979 23.7211 0.466729L23.7215 0.466354Z"></path>
</svg>
