<svg xmlns="http://www.w3.org/2000/svg" fill="none" viewBox="0 0 24 25" height="25" width="24">
<path fill="#9065E5" d="M20.8907 6.40625H2.99607C1.86232 6.40625 0.943359 7.32528 0.943359 8.45896V15.1967C0.943359 16.3305 1.86246 17.2494 2.99607 17.2494H11.5122L15.2865 19.4423L14.5328 17.2494H20.8907C22.0244 17.2494 22.9434 16.3304 22.9434 15.1967V8.45896C22.9434 7.32521 22.0243 6.40625 20.8907 6.40625Z"></path>
<path fill="white" d="M2.65263 16.2272C2.64895 16.2272 2.64544 16.2272 2.64184 16.2272C2.34819 16.2242 2.07484 16.1009 1.90969 15.8968C1.64885 15.5745 1.26646 14.8314 0.619714 11.9218C0.273042 10.3623 0.0124604 8.89361 0.00989059 8.879C-0.063093 8.46655 0.275698 8.08261 0.766538 8.02129C1.25704 7.95989 1.7143 8.24457 1.78728 8.65708C1.78976 8.67141 2.04452 10.1065 2.38348 11.6331C2.57931 12.5149 2.74677 13.1727 2.88589 13.6622C3.73308 12.3503 4.76718 10.5861 5.22239 9.78932C5.38909 9.49766 5.75829 9.32764 6.14085 9.36673C6.52324 9.40581 6.83325 9.64529 6.91189 9.96207C7.06068 10.5601 7.44616 11.8053 7.99379 12.9355C8.19578 11.3286 8.58666 9.28928 9.33183 8.00567C9.54932 7.63094 10.0873 7.47532 10.5332 7.65815C10.9792 7.84098 11.1644 8.29294 10.9468 8.66766C9.76193 10.7087 9.58453 15.3581 9.58281 15.4049C9.57219 15.7061 9.34947 15.9731 9.01625 16.0841C8.68294 16.1953 8.30303 16.1293 8.04947 15.9163C7.24451 15.2399 6.51074 14.0743 5.86836 12.4518C5.84061 12.3816 5.81362 12.3121 5.78733 12.2435C4.99975 13.5606 3.96445 15.2294 3.38324 15.9119C3.21431 16.1098 2.94217 16.2272 2.65263 16.2272Z"></path>
<path fill="white" d="M16.5992 9.85751C16.2251 9.21898 15.5824 8.77746 14.7429 8.58117C13.7852 8.35782 12.7477 8.65487 11.9673 9.3769C11.0408 10.232 10.3651 11.8348 11.2458 13.7662C11.8491 15.0899 12.7979 15.3328 13.411 15.3328C13.4772 15.3328 13.539 15.3298 13.5963 15.3253C15.228 15.1952 16.5984 13.3811 16.8624 12.1372C17.0521 11.2459 16.9636 10.4788 16.5992 9.85751ZM15.0937 11.8716C15.0105 12.2605 14.7214 12.7749 14.3553 13.1818C13.9794 13.6007 13.6106 13.8076 13.4271 13.8218C13.3152 13.8308 13.1076 13.6293 12.9241 13.2261C12.5553 12.4184 12.4318 11.1909 13.2965 10.3922C13.5542 10.1538 13.8541 10.0191 14.1119 10.0191C14.1638 10.0191 14.2139 10.0244 14.2614 10.0357C15.2235 10.2606 15.2449 11.1579 15.0937 11.8716Z"></path>
<path fill="white" d="M23.2714 9.85751C23.0835 9.53864 22.8293 9.26785 22.5178 9.0535C22.2045 8.83914 21.834 8.67971 21.4141 8.58117C20.4573 8.35782 19.4199 8.65487 18.6385 9.3769C17.713 10.232 17.0373 11.8348 17.9171 13.7662C18.5204 15.0899 19.4692 15.3328 20.0823 15.3328C20.1485 15.3328 20.2112 15.3298 20.2684 15.3253C21.8992 15.1952 23.2696 13.3811 23.5336 12.1372C23.7235 11.2459 23.6348 10.4788 23.2714 9.85751ZM21.765 11.8716C21.6827 12.2605 21.3926 12.7749 21.0274 13.1818C20.6506 13.6007 20.2819 13.8076 20.0984 13.8218C19.9873 13.8308 19.7788 13.6293 19.5954 13.2261C19.2274 12.4184 19.104 11.1909 19.9677 10.3922C20.2264 10.1538 20.5262 10.0191 20.7831 10.0191C20.8351 10.0191 20.8852 10.0244 20.9335 10.0357C21.8957 10.2606 21.9163 11.1579 21.765 11.8716Z"></path>
</svg>
