<svg xmlns="http://www.w3.org/2000/svg" fill="none" viewBox="0 0 24 25" height="25" width="24">
<mask height="17" width="24" y="4" x="0" maskUnits="userSpaceOnUse" style="mask-type:luminance" id="mask0_16366_122">
<path fill="white" d="M0.00537109 4.44824H23.9175V20.3645H0.00537109V4.44824Z"></path>
</mask>
<g mask="url(#mask0_16366_122)">
<path fill="#00A1E0" d="M9.93417 6.19069C10.706 5.42503 11.7803 4.9509 12.9671 4.9509C14.5496 4.9509 15.921 5.78859 16.6594 7.03676C17.3149 6.75754 18.0249 6.61338 18.743 6.61373C21.5913 6.61373 23.9034 8.83362 23.9034 11.5729C23.9034 14.3122 21.5913 16.5321 18.743 16.5321C18.3948 16.5321 18.0555 16.4987 17.7232 16.4357C17.077 17.5331 15.8419 18.2786 14.4353 18.2786C13.8626 18.2797 13.2973 18.1559 12.7825 17.9168C12.1276 19.3827 10.6023 20.4131 8.82648 20.4131C6.97153 20.4131 5.3979 19.299 4.79131 17.7325C4.52133 17.7868 4.24614 17.8141 3.97021 17.8139C1.76362 17.8139 -0.0209961 16.0882 -0.0209961 13.9689C-0.0209961 12.5448 0.78252 11.305 1.97461 10.6348C1.72171 10.0797 1.59153 9.48086 1.59219 8.87567C1.59219 6.4296 3.67571 4.45264 6.24274 4.45264C7.74604 4.45264 9.09109 5.13536 9.93505 6.19504" clip-rule="evenodd" fill-rule="evenodd"></path>
</g>
<path fill="#FFFFFE" d="M3.46393 12.7248C3.4489 12.7622 3.4693 12.77 3.47413 12.7766C3.51905 12.8076 3.56468 12.8301 3.61039 12.8553C3.85479 12.9784 4.08512 13.0144 4.326 13.0144C4.81655 13.0144 5.1216 12.7656 5.1216 12.3652V12.3573C5.1216 11.9871 4.77699 11.8522 4.45523 11.7559L4.41312 11.7429C4.1696 11.6677 3.95949 11.6022 3.95949 11.4497V11.4419C3.95949 11.3112 4.08257 11.2149 4.27246 11.2149C4.48345 11.2149 4.73488 11.2818 4.89576 11.3665C4.89576 11.3665 4.94341 11.3958 4.96072 11.352C4.97013 11.3283 5.05215 11.1191 5.06094 11.0957C5.07026 11.0711 5.05391 11.0526 5.03712 11.0431C4.8525 10.9359 4.59756 10.863 4.33382 10.863L4.28486 10.8631C3.83563 10.8631 3.52178 11.122 3.52178 11.4923V11.5002C3.52178 11.8906 3.86815 12.0179 4.19167 12.1059L4.24371 12.1213C4.47932 12.1903 4.68327 12.2503 4.68327 12.4078V12.4156C4.68327 12.5606 4.55053 12.6686 4.33778 12.6686C4.25505 12.6686 3.99141 12.6673 3.70569 12.4952C3.67114 12.476 3.65145 12.4622 3.62481 12.4467C3.61075 12.4386 3.57558 12.4239 3.56028 12.4678L3.46358 12.7242M10.646 12.7242C10.631 12.7615 10.6514 12.7693 10.6564 12.7759C10.7011 12.8069 10.7469 12.8294 10.7926 12.8546C11.037 12.9777 11.2674 13.0138 11.5082 13.0138C11.9988 13.0138 12.3038 12.765 12.3038 12.3645V12.3567C12.3038 11.9864 11.9601 11.8515 11.6375 11.7552L11.5954 11.7422C11.3518 11.667 11.1417 11.6015 11.1417 11.449V11.4412C11.1417 11.3106 11.2648 11.2142 11.4547 11.2142C11.6657 11.2142 11.9162 11.2812 12.078 11.3658C12.078 11.3658 12.1256 11.3952 12.1431 11.3514C12.1524 11.3276 12.2345 11.1185 12.2424 11.095C12.2518 11.0705 12.2354 11.052 12.2187 11.0424C12.034 10.9352 11.7791 10.8623 11.5154 10.8623L11.4663 10.8625C11.0171 10.8625 10.7032 11.1213 10.7032 11.4916V11.4995C10.7032 11.8899 11.0496 12.0172 11.3731 12.1052L11.4251 12.1206C11.6616 12.1896 11.8646 12.2496 11.8646 12.4071V12.415C11.8646 12.5599 11.7319 12.668 11.5191 12.668C11.4362 12.668 11.1719 12.6666 10.8871 12.4946C10.8525 12.4754 10.8323 12.4621 10.8061 12.4461C10.7972 12.4407 10.7558 12.4253 10.7416 12.4672L10.6449 12.7235M15.5504 11.9394C15.5504 12.1656 15.5061 12.344 15.4194 12.4705C15.3329 12.5953 15.2023 12.6565 15.0203 12.6565C14.8384 12.6565 14.7082 12.5958 14.623 12.4714C14.5371 12.3457 14.4937 12.1664 14.4937 11.9403C14.4937 11.7141 14.5373 11.5365 14.623 11.4117C14.7081 11.2877 14.8375 11.2282 15.0203 11.2282C15.2032 11.2282 15.3333 11.2883 15.4194 11.4117C15.5067 11.5365 15.5504 11.7141 15.5504 11.9403M15.9601 11.5206C15.9198 11.3907 15.8573 11.2768 15.7737 11.1813C15.6901 11.0858 15.5847 11.0087 15.459 10.9534C15.3342 10.8977 15.1865 10.8697 15.0194 10.8697C14.8524 10.8697 14.7056 10.8979 14.5799 10.9534C14.4551 11.0091 14.3487 11.0858 14.2652 11.1813C14.1818 11.2768 14.1192 11.3907 14.0788 11.5206C14.0388 11.6496 14.0185 11.7903 14.0185 11.9403C14.0185 12.0902 14.0388 12.2309 14.0788 12.3599C14.119 12.4898 14.1816 12.6037 14.2652 12.6992C14.3488 12.7947 14.4551 12.8709 14.5799 12.9254C14.7056 12.9797 14.8533 13.0073 15.0194 13.0073C15.1856 13.0073 15.3333 12.9797 15.4581 12.9254C15.583 12.8711 15.6893 12.7947 15.7729 12.6992C15.8563 12.6037 15.9188 12.4898 15.9592 12.3599C15.9991 12.2309 16.0194 12.0902 16.0194 11.9403C16.0194 11.7911 15.9991 11.6496 15.9592 11.5206M19.3263 12.5928C19.3128 12.5549 19.274 12.5692 19.274 12.5692C19.2144 12.5909 19.1509 12.611 19.0832 12.621C19.015 12.6313 18.939 12.6364 18.859 12.6364C18.6612 12.6364 18.503 12.5802 18.3904 12.4688C18.277 12.3574 18.2137 12.1782 18.2146 11.9352C18.2152 11.7141 18.2713 11.5482 18.372 11.4209C18.4713 11.2952 18.6243 11.2299 18.8265 11.2299C18.9953 11.2299 19.1245 11.2486 19.2599 11.2889C19.2599 11.2889 19.292 11.3023 19.3074 11.262C19.3433 11.1673 19.3699 11.0995 19.4085 10.9956C19.4194 10.9658 19.3926 10.9533 19.3829 10.9497C19.3298 10.9299 19.2044 10.8975 19.1095 10.8838C19.0207 10.8709 18.9178 10.8642 18.8018 10.8642C18.6295 10.8642 18.4765 10.8923 18.3455 10.9479C18.2145 11.0035 18.1038 11.0803 18.0158 11.1758C17.9279 11.2713 17.8611 11.3852 17.8163 11.515C17.7719 11.644 17.7495 11.7856 17.7495 11.9356C17.7495 12.2589 17.8409 12.5211 18.022 12.7129C18.2031 12.9056 18.4756 13.0028 18.8308 13.0028C19.0409 13.0028 19.2563 12.9623 19.411 12.9039C19.411 12.9039 19.4405 12.8904 19.4277 12.8575L19.3266 12.5928M20.0431 11.7216C20.0627 11.596 20.0988 11.4912 20.1556 11.41C20.2406 11.286 20.3701 11.2182 20.5521 11.2182C20.7341 11.2182 20.8545 11.2863 20.9407 11.41C20.9978 11.4917 21.0228 11.6001 21.0321 11.7216L20.0387 11.7214L20.0431 11.7216ZM21.4233 11.4452C21.3884 11.3204 21.302 11.1939 21.2457 11.1361C21.1561 11.0448 21.069 10.9803 20.982 10.9451C20.8563 10.8942 20.7212 10.868 20.5846 10.8683C20.4114 10.8683 20.2541 10.8961 20.1266 10.9529C19.9991 11.01 19.8919 11.0877 19.8075 11.1849C19.7232 11.2821 19.6598 11.3968 19.6194 11.5284C19.5789 11.6582 19.5585 11.8006 19.5585 11.9497C19.5585 12.1022 19.5797 12.2437 19.6214 12.3719C19.6635 12.5009 19.7313 12.614 19.8227 12.7078C19.9141 12.8025 20.0311 12.8762 20.1717 12.9281C20.3115 12.9797 20.4812 13.0064 20.6754 13.0058C21.0763 13.0045 21.2873 12.9195 21.3735 12.8734C21.3889 12.8652 21.4034 12.8511 21.3853 12.8103L21.2947 12.5682C21.2808 12.5321 21.2425 12.5452 21.2425 12.5452C21.1431 12.5805 21.0025 12.644 20.6728 12.6432C20.4574 12.6428 20.2983 12.5823 20.1981 12.4874C20.0961 12.3902 20.0451 12.2486 20.0372 12.0476L21.4262 12.0486C21.4262 12.0486 21.4628 12.0482 21.4666 12.0142C21.4681 12.0001 21.5141 11.7428 21.4252 11.4454L21.4233 11.4452ZM8.9398 11.7216C8.95941 11.596 8.99563 11.4912 9.05233 11.41C9.13743 11.286 9.26683 11.2182 9.44881 11.2182C9.63079 11.2182 9.75123 11.2863 9.83738 11.41C9.89444 11.4917 9.91941 11.6001 9.92881 11.7216L8.93541 11.7214L8.9398 11.7216ZM10.32 11.4452C10.2852 11.3204 10.1987 11.1939 10.1424 11.1361C10.0528 11.0448 9.96573 10.9803 9.8787 10.9451C9.75305 10.8942 9.61788 10.868 9.48134 10.8683C9.30815 10.8683 9.15079 10.8961 9.02332 10.9529C8.89584 11.01 8.78859 11.0877 8.7042 11.1849C8.62006 11.2821 8.5565 11.3968 8.51606 11.5284C8.47571 11.6582 8.45541 11.8006 8.45541 11.9497C8.45541 12.1022 8.47642 12.2437 8.51835 12.3719C8.56037 12.5009 8.62824 12.614 8.71879 12.7078C8.81022 12.8025 8.92714 12.8762 9.0678 12.9281C9.20758 12.9797 9.37637 13.0064 9.57154 13.0058C9.97242 13.0045 10.1834 12.9195 10.2696 12.8734C10.2849 12.8652 10.2994 12.8511 10.2813 12.8103L10.1907 12.5682C10.1767 12.5321 10.1384 12.5452 10.1384 12.5452C10.0391 12.5805 9.89839 12.644 9.56872 12.6432C9.35422 12.6428 9.19422 12.5823 9.094 12.4874C8.99202 12.3902 8.94103 12.2486 8.93312 12.0476L10.3221 12.0486C10.3221 12.0486 10.3587 12.0482 10.3625 12.0142C10.364 12.0001 10.41 11.7428 10.321 11.4454L10.32 11.4452ZM5.942 12.5844C5.88758 12.5431 5.88002 12.5329 5.862 12.506C5.83448 12.4656 5.82042 12.408 5.82042 12.3343C5.82042 12.2187 5.86086 12.1349 5.94437 12.0788C5.94349 12.079 6.06393 11.98 6.34701 11.9833C6.47301 11.9855 6.59871 11.9957 6.72327 12.0139V12.6145H6.72345C6.72345 12.6145 6.54763 12.6506 6.34894 12.662C6.06675 12.6782 5.94191 12.5846 5.94279 12.5849L5.942 12.5844ZM6.49409 11.6546C6.43782 11.6507 6.36486 11.6487 6.27782 11.6487C6.15914 11.6487 6.04398 11.6628 5.93672 11.6905C5.82859 11.7183 5.73101 11.7613 5.64749 11.8186C5.56375 11.8755 5.49487 11.9501 5.44617 12.0364C5.39703 12.1235 5.37198 12.2257 5.37198 12.3413C5.37198 12.4586 5.39334 12.56 5.43554 12.6429C5.47689 12.7252 5.53914 12.7963 5.61664 12.8498C5.69374 12.9033 5.78894 12.9428 5.89883 12.9663C6.00785 12.99 6.13092 13.0019 6.26631 13.0019C6.40872 13.0019 6.55026 12.9906 6.68741 12.9685C6.80421 12.9493 6.92057 12.9278 7.03642 12.9039C7.08266 12.8937 7.134 12.8804 7.134 12.8804C7.16828 12.8721 7.16565 12.8372 7.16565 12.8372L7.16486 11.6309C7.16486 11.3662 7.09066 11.1693 6.9442 11.0479C6.79826 10.9264 6.58464 10.8652 6.30771 10.8652C6.20398 10.8652 6.03606 10.8786 5.93584 10.8978C5.93584 10.8978 5.63343 10.9538 5.50859 11.0469C5.50859 11.0469 5.48116 11.063 5.49611 11.0995L5.59457 11.3508C5.60679 11.3834 5.64011 11.3722 5.64011 11.3722C5.64011 11.3722 5.65057 11.3683 5.66288 11.3613C5.92925 11.2231 6.26683 11.2273 6.26683 11.2273C6.41628 11.2273 6.53233 11.2562 6.60969 11.3127C6.68538 11.3681 6.72398 11.4518 6.72398 11.6277V11.6836C6.6053 11.6672 6.49541 11.6577 6.49541 11.6577L6.49409 11.6546ZM17.6589 10.9736C17.6609 10.9691 17.662 10.9644 17.662 10.9596C17.662 10.9548 17.661 10.95 17.6591 10.9455C17.6572 10.9411 17.6543 10.9371 17.6507 10.9337C17.6471 10.9304 17.6428 10.9277 17.6381 10.926C17.6144 10.9174 17.4965 10.8937 17.406 10.8884C17.2319 10.878 17.1352 10.9059 17.0482 10.9431C16.9622 10.9801 16.8671 11.0395 16.8144 11.1082L16.8142 10.9473C16.8142 10.9252 16.7977 10.9074 16.7744 10.9074H16.4192C16.3962 10.9074 16.3794 10.9252 16.3794 10.9473V12.9159C16.3795 12.9266 16.3839 12.9367 16.3918 12.9443C16.3997 12.9518 16.4104 12.956 16.4216 12.956H16.7855C16.7967 12.956 16.8074 12.9518 16.8152 12.9443C16.8231 12.9367 16.8275 12.9265 16.8275 12.9159V11.9274C16.8275 11.7951 16.8428 11.6636 16.8733 11.5806C16.9034 11.4986 16.9443 11.4332 16.9947 11.3863C17.0427 11.341 17.1015 11.3074 17.1661 11.2883C17.2267 11.2717 17.2894 11.2633 17.3525 11.2633C17.425 11.2633 17.5045 11.2811 17.5045 11.2811C17.5313 11.2839 17.5461 11.2683 17.5552 11.2454C17.579 11.185 17.6466 11.0041 17.6598 10.9681" clip-rule="evenodd" fill-rule="evenodd"></path>
<path fill="#FFFFFE" d="M14.2595 10.065C14.2145 10.052 14.1688 10.0417 14.1225 10.034C14.0602 10.0241 13.9971 10.0194 13.934 10.0201C13.6832 10.0201 13.4854 10.0876 13.3466 10.221C13.2088 10.3533 13.115 10.5549 13.068 10.8202L13.051 10.9098H12.7362C12.7362 10.9098 12.6978 10.9083 12.6897 10.9482L12.638 11.223C12.6344 11.2493 12.6462 11.2657 12.6832 11.2656H12.9896L12.6787 12.9194C12.6543 13.0526 12.6265 13.1622 12.5956 13.2452C12.5652 13.3271 12.5355 13.3885 12.4989 13.4331C12.4635 13.4762 12.4299 13.508 12.372 13.5265C12.3241 13.5418 12.2691 13.5489 12.2088 13.5489C12.1752 13.5489 12.1305 13.5435 12.0976 13.5372C12.0646 13.531 12.0475 13.524 12.0228 13.5141C12.0228 13.5141 11.9868 13.501 11.9727 13.5354C11.9611 13.5635 11.8795 13.7775 11.8698 13.804C11.86 13.8301 11.8738 13.8507 11.8912 13.8566C11.932 13.8706 11.9623 13.8794 12.0178 13.8919C12.095 13.9093 12.1601 13.9103 12.221 13.9103C12.3487 13.9103 12.465 13.8933 12.5614 13.8601C12.6585 13.8267 12.7429 13.7684 12.8177 13.6896C12.8985 13.6046 12.9493 13.5155 12.9979 13.3941C13.046 13.2737 13.0869 13.1242 13.1197 12.9501L13.4322 11.2656H13.889C13.889 11.2656 13.9275 11.2669 13.9355 11.2271L13.9872 10.9524C13.9908 10.926 13.979 10.9096 13.9419 10.9098H13.4985C13.5007 10.9002 13.5209 10.7516 13.5718 10.6117C13.5935 10.552 13.6344 10.5038 13.669 10.4708C13.7013 10.4392 13.7412 10.4156 13.7851 10.4019C13.8333 10.3877 13.8835 10.3808 13.934 10.3815C13.9757 10.3815 14.0167 10.3862 14.0479 10.3924C14.0909 10.4011 14.1076 10.4058 14.1189 10.4089C14.164 10.4221 14.1701 10.4094 14.179 10.3885L14.285 10.1111C14.2959 10.0812 14.2694 10.0687 14.2595 10.065ZM8.064 12.9229C8.064 12.9451 8.04747 12.9631 8.02426 12.9631H7.65652C7.63323 12.9631 7.6167 12.9451 7.6167 12.9229V10.1026C7.6167 10.0806 7.63323 10.0627 7.65652 10.0627H8.02426C8.04747 10.0627 8.064 10.0806 8.064 10.1026V12.9229Z" clip-rule="evenodd" fill-rule="evenodd"></path>
</svg>
