<svg xmlns="http://www.w3.org/2000/svg" fill="none" viewBox="0 0 32 32" height="32" width="32">
<g clip-path="url(#clip0_5898_28757)">
<path fill="white" d="M20.1804 12.4559C19.758 12.4559 19.4029 12.1617 19.2909 11.7617H21.6346L21.9578 11.2428H19.2893C19.3997 10.8396 19.7548 10.5487 20.1788 10.5487H21.7882L22.1098 10.0297H20.142C19.3549 10.0297 18.7165 10.6892 18.7165 11.5056C18.7165 12.322 19.3549 12.9781 20.142 12.9781H21.8362L22.1578 12.4592H20.1804V12.4559ZM13.4675 12.9748H15.1617L15.4833 12.4559H13.5074C12.9939 12.4559 12.5811 12.0278 12.5811 11.5023C12.5811 10.9767 12.9939 10.5487 13.5074 10.5487H15.1153L15.4417 10.0264H13.4707C12.6819 10.0264 12.042 10.6859 12.042 11.5023C12.042 12.3187 12.6819 12.9748 13.4707 12.9748M3.05089 12.4559H1.46545C0.955104 12.4559 0.542346 12.0278 0.542346 11.5023C0.542346 10.9767 0.955104 10.5487 1.46545 10.5487H3.04929C3.55964 10.5487 3.9756 10.9751 3.9756 11.5023C3.9756 12.0295 3.56284 12.4559 3.04929 12.4559M1.43026 12.9748H3.08929C3.87801 12.9748 4.51315 12.3154 4.51315 11.5023C4.51315 10.6892 3.87641 10.0281 3.08609 10.0281H1.42866C0.638336 10.0281 0 10.6859 0 11.5039C0 12.322 0.638336 12.9764 1.42866 12.9764L1.43026 12.9748ZM7.20568 12.0212C7.74163 12.0212 8.17038 11.575 8.17038 11.0247C8.17038 10.4743 7.74003 10.0281 7.20408 10.0281H4.80272V12.9764H5.35146V10.5503H7.16728C7.42326 10.5503 7.62964 10.7635 7.62964 11.0263C7.62964 11.2891 7.42326 11.5056 7.16728 11.5056H5.62184L7.26167 12.9781H8.05679L6.9577 12.0245H7.20728M16.28 12.4559V10.0281H15.7312V12.6955C15.7312 12.7682 15.7616 12.8393 15.8128 12.8905C15.864 12.9467 15.9376 12.9764 16.0112 12.9764H18.5117L18.8381 12.4575H16.28V12.4559ZM9.56384 11.9369H11.0261L10.2534 10.6495L8.83432 12.9764H8.18638L9.91581 10.1818C9.9894 10.0678 10.1174 10 10.255 10C10.3926 10 10.5141 10.0661 10.5893 10.1768L12.322 12.9764H11.6756L11.3717 12.4575H9.88861L9.56544 11.9386L9.56384 11.9369Z"></path>
<path fill="white" d="M4.05079 20.3407L0.836716 15.4158L0.822318 15.3943H0V21.8942H0.878312V16.9478L4.09239 21.8727L4.10679 21.8942H4.92751V15.3943H4.05079V20.3407Z"></path>
<path fill="white" d="M12.3248 21.1373C12.264 21.1439 12.1984 21.1456 12.1329 21.1456C11.7393 21.1456 11.5489 20.9142 11.5489 20.4366V17.9477H12.512V17.199H11.5489V15.9314H11.005L10.6962 17.1924L9.92188 17.4585V17.946H10.6898V20.4432C10.6898 20.9472 10.797 21.3257 11.0082 21.5687C11.2273 21.8132 11.5665 21.9355 12.0145 21.9355C12.1057 21.9355 12.1936 21.9322 12.2736 21.9273C12.36 21.9207 12.4448 21.9091 12.528 21.8909L12.5648 21.8827V21.1026L12.5136 21.1076C12.456 21.1142 12.392 21.1224 12.3264 21.134L12.3248 21.1373Z"></path>
<path fill="white" d="M21.3003 20.2333C21.1835 20.5374 21.0092 20.7853 20.7804 20.9704C20.5564 21.1505 20.3148 21.2431 20.0589 21.2431C19.7565 21.2431 19.5245 21.1423 19.3709 20.9439C19.2141 20.7423 19.1342 20.4465 19.1342 20.0664V17.199H18.2734V20.0928C18.2734 20.701 18.4126 21.1737 18.6862 21.4992C18.9678 21.8248 19.3661 21.9917 19.8717 21.9917C20.2012 21.9917 20.51 21.9124 20.7884 21.7571C21.0396 21.6199 21.2555 21.4265 21.4315 21.1852L21.5547 21.8959H22.161V17.2023H21.3003V20.2366V20.2333Z"></path>
<path fill="white" d="M22.9922 17.6006L23.4353 17.8915V21.8942H24.2961V17.2007H22.9922V17.6006Z"></path>
<path fill="white" d="M24.2819 15.6769H23.25V16.4867H24.2819V15.6769Z"></path>
<path fill="white" d="M27.3499 21.1373C27.2891 21.1439 27.2235 21.1456 27.1579 21.1456C26.7643 21.1456 26.5739 20.9142 26.5739 20.4366V17.9477H27.5371V17.199H26.5739V15.9314H26.03L25.7212 17.1924L24.9453 17.4585V17.946H25.7132V20.4432C25.7132 20.9472 25.8204 21.3257 26.0332 21.5687C26.2524 21.8132 26.5915 21.9355 27.0395 21.9355C27.1307 21.9355 27.2187 21.9322 27.2987 21.9273C27.3851 21.9207 27.4699 21.9091 27.5531 21.8909L27.5898 21.8827V21.1026L27.5387 21.1076C27.4811 21.1142 27.4171 21.1224 27.3515 21.134L27.3499 21.1373Z"></path>
<path fill="white" d="M32.0015 19.2748C32.0015 17.8336 31.36 17.1031 30.0961 17.1031C29.4433 17.1031 28.933 17.3097 28.5778 17.7179C28.2211 18.1361 28.0547 18.7029 28.0547 19.5028C28.0547 20.3027 28.2387 20.934 28.6034 21.3588C28.9746 21.7785 29.5249 21.9917 30.2401 21.9917C30.5536 21.9917 30.8464 21.962 31.112 21.9025C31.384 21.843 31.6031 21.7604 31.7663 21.6579L31.7887 21.643V20.8712L31.7231 20.9026C31.4895 21.0117 31.2576 21.0943 31.0336 21.1456C30.8096 21.1968 30.5696 21.2232 30.3185 21.2232C29.8721 21.2232 29.5329 21.1092 29.3106 20.8844C29.0946 20.6613 28.965 20.306 28.9266 19.83H32.0015V19.2714V19.2748ZM28.9266 19.1111C28.9538 18.7095 29.0642 18.3988 29.2514 18.1873C29.4513 17.9642 29.7361 17.8502 30.0961 17.8502C30.4784 17.8502 30.752 17.951 30.9136 18.1509C31.0752 18.346 31.16 18.6682 31.1664 19.1111H28.9266Z"></path>
<path fill="white" d="M7.71327 17.1032C7.06054 17.1032 6.55019 17.3097 6.19502 17.718C5.83826 18.1361 5.67188 18.7029 5.67188 19.5028C5.67188 20.3027 5.85586 20.934 6.22222 21.3588C6.59338 21.7785 7.14373 21.9917 7.85886 21.9917C8.17243 21.9917 8.4652 21.962 8.73077 21.9025C9.00274 21.843 9.22192 21.7604 9.3851 21.6579L9.4075 21.643V20.8712L9.34191 20.9026C9.10833 21.0117 8.87635 21.0943 8.65238 21.1456C8.4284 21.1968 8.18842 21.2233 7.93725 21.2233C7.49089 21.2233 7.15173 21.1092 6.92935 20.8845C6.71337 20.6613 6.58378 20.306 6.54539 19.8301H9.62028V19.2715C9.62028 17.8303 8.97874 17.0999 7.71487 17.0999L7.71327 17.1032ZM6.54379 19.1111C6.57099 18.7095 6.68137 18.3988 6.86856 18.1873C7.06854 17.9642 7.35331 17.8502 7.71327 17.8502C8.09563 17.8502 8.36921 17.951 8.53079 18.1509C8.69237 18.346 8.77716 18.6682 8.78356 19.1111H6.54379Z"></path>
<path fill="white" d="M17.2416 19.0748C17.0001 18.7823 16.5857 18.5178 16.0129 18.2865L15.357 18.022C14.9491 17.8535 14.6611 17.6948 14.5011 17.5461C14.3443 17.4023 14.2691 17.2321 14.2691 17.0271C14.2691 16.4024 14.7091 16.0983 15.613 16.0983C16.0929 16.0983 16.6257 16.2272 17.1968 16.4818L17.2624 16.5115V15.6868L17.2384 15.6736C17.0256 15.5546 16.7665 15.4604 16.4673 15.396C16.1697 15.3249 15.877 15.2885 15.5954 15.2885C14.9171 15.2885 14.3747 15.4455 13.9812 15.7562C13.5844 16.0702 13.3828 16.5032 13.3828 17.0453C13.3828 17.4254 13.5076 17.7626 13.754 18.0468C14.002 18.3212 14.4099 18.574 14.9651 18.7988L15.6226 19.0632C16.0465 19.2318 16.3425 19.3971 16.5025 19.5557C16.6577 19.7094 16.7361 19.9077 16.7361 20.1457C16.7361 20.4729 16.6081 20.7225 16.3473 20.9076C16.0897 21.0943 15.7218 21.1902 15.2578 21.1902C14.6979 21.1902 14.1011 21.058 13.4852 20.7969L13.4212 20.7704V21.5951L13.4468 21.6083C13.5924 21.681 13.77 21.7471 13.9748 21.805C14.1811 21.8645 14.4035 21.9124 14.6371 21.9471C14.8755 21.9818 15.1074 22 15.325 22C16.0433 22 16.6097 21.8364 17.0081 21.5141C17.416 21.1836 17.6224 20.7159 17.6224 20.1275C17.6224 19.7177 17.4944 19.364 17.2448 19.0748H17.2416Z"></path>
</g>
<defs>
<clipPath id="clip0_5898_28757">
<rect transform="translate(0 10)" fill="white" height="12" width="32"></rect>
</clipPath>
</defs>
</svg>
