<svg xmlns="http://www.w3.org/2000/svg" fill="none" viewBox="0 0 26 25" height="25" width="26">
<path fill="black" d="M25.7344 6.10352e-05V25.0001H0.734375V6.10352e-05H25.7344ZM13.2305 2.76373C11.5295 2.76374 9.9316 3.20182 8.54102 3.96686H13.2305C17.9387 3.96693 21.7713 7.79728 21.7715 12.5079C21.7714 17.2186 17.9412 21.0488 13.2305 21.0489C8.51972 21.0489 4.68952 17.2186 4.68945 12.5079C4.68949 11.6659 4.81444 10.8495 5.04297 10.0821H3.79199C3.59233 10.8567 3.48636 11.6707 3.48633 12.5079C3.4864 17.8875 7.84847 22.252 13.2305 22.252C18.6124 22.2519 22.9745 17.8898 22.9746 12.5079C22.9744 7.12603 18.6123 2.7638 13.2305 2.76373ZM6.76562 5.22369C6.35198 5.59166 5.96645 5.99297 5.62012 6.42584H13.2275C16.5813 6.42584 19.3094 9.15516 19.3096 12.5089C19.3093 15.8625 16.5813 18.5909 13.2275 18.5909C9.87399 18.5907 7.14575 15.8624 7.14551 12.5089C7.14556 11.6477 7.32661 10.8264 7.65137 10.0831H6.35938C6.08995 10.8408 5.94243 11.6597 5.94238 12.5089C5.94263 16.5336 9.20514 19.7938 13.2275 19.794C17.2501 19.794 20.5125 16.5314 20.5127 12.5089C20.5125 8.48631 17.2501 5.22369 13.2275 5.22369H6.76562ZM4.79102 7.64655C4.56973 8.03138 4.37248 8.43357 4.2041 8.84967H13.2334C15.2469 8.84981 16.8855 10.4885 16.8857 12.502C16.8856 14.5156 15.247 16.1542 13.2334 16.1544C11.2197 16.1543 9.58119 14.5156 9.58105 12.502C9.58115 11.5711 9.93483 10.7209 10.5098 10.0762H9.03027C8.61651 10.7907 8.37604 11.6192 8.37598 12.502C8.37611 15.1844 10.5505 17.3563 13.2305 17.3565C15.9106 17.3565 18.0858 15.1821 18.0859 12.502C18.0857 9.82198 15.9105 7.64655 13.2305 7.64655H4.79102Z"></path>
</svg>
