<svg xmlns="http://www.w3.org/2000/svg" fill="none" viewBox="0 0 138 30" height="30" width="138">
<g clip-path="url(#clip0_1676_84417)">
<path fill="white" d="M60.0449 4.76367H63.3128V16.6244L68.6943 10.694H72.8676L66.4987 17.3374L73.1166 24.2552H68.8612L63.3157 18.1325V24.2552H60.0478V4.76367H60.0449Z"></path>
<path fill="white" d="M73.5243 17.3407C73.5243 13.1419 76.5433 10.0664 80.8269 10.0664C85.1106 10.0664 88.0758 13.1448 88.0758 17.3407V18.5149H76.9563C77.3949 20.5294 78.9058 21.5933 80.8269 21.5933C82.2812 21.5933 83.3536 21.1745 84.0383 20.2776H87.524C86.5083 22.9089 84.0383 24.615 80.8241 24.615C76.5404 24.615 73.5215 21.5367 73.5215 17.3407H73.5243ZM84.6154 15.8581C84.0948 14.0105 82.6123 13.0882 80.8269 13.0882C79.0416 13.0882 77.559 14.0388 77.0384 15.8581H84.6154Z"></path>
<path fill="white" d="M90.2246 17.4829C90.2246 12.9531 92.9153 10.3359 96.9246 10.3359C100.934 10.3359 103.625 12.9248 103.625 17.4829V24.2564H100.357V17.4829C100.357 14.9025 98.9843 13.3832 96.9246 13.3832C94.8648 13.3832 93.4925 14.9025 93.4925 17.4829V24.2564H90.2246V17.4829Z"></path>
<path fill="white" d="M117.047 4.76367V17.476C117.047 19.864 115.454 21.5673 113.066 21.5673C110.678 21.5673 109.057 19.864 109.057 17.476C109.057 15.3144 110.678 13.5347 113.066 13.5347C114.085 13.5347 114.953 13.846 115.621 14.3864V11.3674C114.755 10.7931 113.697 10.4903 112.517 10.4903C109.224 10.4903 105.764 12.7029 105.764 17.3431C105.764 21.6522 108.783 24.6202 113.095 24.6202C117.407 24.6202 120.315 21.7654 120.315 17.3714V4.76367H117.047Z"></path>
<path fill="white" d="M129.754 10.0244C125.47 10.0244 122.451 13.1141 122.451 17.327C122.451 21.54 125.47 24.6296 129.754 24.6296C134.037 24.6296 137.056 21.54 137.056 17.327C137.056 13.1141 134.037 10.0244 129.754 10.0244ZM129.754 21.5541C127.42 21.5541 125.527 19.6613 125.527 17.327C125.527 14.9928 127.42 13.0999 129.754 13.0999C132.088 13.0999 133.981 14.9928 133.981 17.327C133.981 19.6613 132.088 21.5541 129.754 21.5541Z"></path>
<path fill="white" d="M48.0353 5.51562C42.4331 5.51562 38.4805 9.56163 38.4805 15.0704C38.4805 20.5792 42.4331 24.6252 48.0353 24.6252C53.6374 24.6252 57.59 20.5792 57.59 15.0704C57.59 9.56163 53.6374 5.51562 48.0353 5.51562ZM48.0353 21.3346C44.5749 21.3346 41.771 18.5307 41.771 15.0704C41.771 11.6101 44.5749 8.80618 48.0353 8.80618C51.4956 8.80618 54.2995 11.6101 54.2995 15.0704C54.2995 18.5307 51.4956 21.3346 48.0353 21.3346Z"></path>
<path fill="white" d="M30.3438 0V29.4004H0.943359V0H30.3438ZM15.6426 3.24707C13.6422 3.24707 11.7633 3.76237 10.1279 4.66211H15.6426C21.1796 4.66213 25.6865 9.16615 25.6865 14.7061C25.6865 20.2459 21.1825 24.75 15.6426 24.75C10.1027 24.75 5.59865 20.246 5.59863 14.7061C5.59863 13.7159 5.74592 12.757 6.01465 11.8545H4.54297C4.3082 12.7654 4.18359 13.7216 4.18359 14.7061C4.18361 21.0325 9.31328 26.165 15.6426 26.165C21.9719 26.165 27.1015 21.0353 27.1016 14.7061C27.1016 8.37676 21.9719 3.24709 15.6426 3.24707ZM8.04004 6.13965C7.55341 6.57253 7.10077 7.04542 6.69336 7.55469H15.6396C19.5838 7.55469 22.793 10.7629 22.793 14.707C22.7929 18.6512 19.5838 21.8594 15.6396 21.8594C11.6956 21.8593 8.48733 18.6511 8.4873 14.707C8.4873 13.6941 8.69909 12.7288 9.08105 11.8545H7.56152C7.24463 12.7457 7.07227 13.7083 7.07227 14.707C7.07229 19.4405 10.909 23.2743 15.6396 23.2744C20.3703 23.2744 24.207 19.4377 24.207 14.707C24.207 9.97632 20.3704 6.13965 15.6396 6.13965H8.04004ZM5.71777 8.98926C5.45747 9.44196 5.2254 9.91482 5.02734 10.4043H15.6455C18.0137 10.4043 19.9414 12.331 19.9414 14.6992C19.9412 17.0673 18.0136 18.9941 15.6455 18.9941C13.2776 18.9939 11.3507 17.0671 11.3506 14.6992C11.3506 13.6043 11.7671 12.605 12.4434 11.8467H10.7031C10.2165 12.687 9.93359 13.6608 9.93359 14.6992C9.93375 17.8538 12.4917 20.4082 15.6436 20.4082C18.7952 20.408 21.3524 17.8509 21.3525 14.6992C21.3525 11.5474 18.7953 8.98948 15.6436 8.98926H5.71777Z"></path>
</g>
<defs>
<clipPath id="clip0_1676_84417">
<rect transform="translate(0.943359)" fill="white" height="29.4" width="136.113"></rect>
</clipPath>
</defs>
</svg>
