<svg xmlns="http://www.w3.org/2000/svg" fill="none" viewBox="0 0 123 20" height="20" width="123">
<path fill="#020303" d="M10.3502 0C16.0752 0 20.4345 4.28041 20.4345 9.89995C20.4345 15.4408 16.1014 19.8 10.5078 19.8C4.70397 19.8 0.554688 15.257 0.554688 9.97874C0.554688 4.3591 4.91404 0 10.3502 0ZM28.0759 0.472664V17.4891H35.3241V19.3273H26.1851V0.472664H28.0759ZM48.0081 0.472621L56.8057 19.3273H54.7835L51.816 13.1299H43.6751L40.7337 19.3273H38.6329L47.5617 0.472621H48.0081ZM66.0492 0.472718C68.0188 0.472718 69.4895 0.603975 70.4086 0.945393C72.3257 1.68069 73.5075 3.36123 73.5075 5.48832C73.5075 7.27399 72.6671 8.77082 71.3277 9.61114C70.0466 10.4149 68.2129 10.546 65.7806 10.5558L63.5807 10.5565V19.3273H61.6898V0.472718H66.0492ZM81.1229 0.472664V17.4891H88.371V19.3273H79.2321V0.472664H81.1229ZM104.128 0.472664V2.3108H95.2513V8.2194H104.128V10.0575H95.2513V17.4891H104.128V19.3273H93.3605V0.472664H104.128ZM110.614 0.472664L115.131 7.82541L119.674 0.472664H121.854L116.234 9.61108L122.221 19.3273H120.015L115.131 11.4231L110.194 19.3273H107.988L114.002 9.61108L108.408 0.472664H110.614ZM10.4552 1.83824C6.30591 1.83824 2.5243 5.14697 2.5243 9.97874C2.5243 14.6267 6.20088 17.9618 10.4552 17.9618C14.8671 17.9618 18.4649 14.6005 18.4649 9.87372C18.4649 5.0944 14.6307 1.83824 10.4552 1.83824ZM47.7718 4.46418L44.5155 11.2918H50.9757L47.7718 4.46418ZM66.9158 2.31085H63.5807V8.71825C64.6573 8.74448 65.7341 8.71825 66.7058 8.71825C68.3339 8.71825 69.5945 8.61322 70.4349 7.93049C71.0914 7.40525 71.5379 6.43367 71.5379 5.48832C71.5379 4.51674 71.0651 3.57139 70.3561 3.01992C69.5157 2.38965 68.3865 2.31085 66.9158 2.31085Z" clip-rule="evenodd" fill-rule="evenodd"></path>
</svg>
