<svg xmlns="http://www.w3.org/2000/svg" fill="none" viewBox="0 0 32 32" height="32" width="32">
<path fill="url(#paint0_linear_5459_28571)" d="M29 23.8571C28.9662 24.7411 28.6446 25.4777 28.0352 26.067C27.4258 26.6563 26.6641 26.9673 25.75 27H6.25C5.33594 26.9673 4.57421 26.6563 3.96484 26.067C3.35547 25.4777 3.03385 24.7411 3 23.8571V8.14286C3.03385 7.25893 3.35547 6.52232 3.96484 5.93303C4.57421 5.34375 5.33594 5.03274 6.25 5H25.75C26.6641 5.03274 27.4258 5.34375 28.0352 5.93303C28.6446 6.52232 28.9662 7.25893 29 8.14286V23.8571ZM17.625 7.35715H6.25C5.74219 7.38989 5.47135 7.65179 5.4375 8.14286V23.8571C5.47135 24.3483 5.74219 24.6102 6.25 24.6429H17.625V7.35715ZM25.75 9.32144C25.6823 8.6012 25.276 8.20834 24.5312 8.14286H22.0938C21.349 8.20834 20.9427 8.6012 20.875 9.32144C20.9427 10.0417 21.349 10.4345 22.0938 10.5H24.5312C25.276 10.4345 25.6823 10.0417 25.75 9.32144ZM22.0938 12.8572C21.349 12.9226 20.9427 13.3155 20.875 14.0357C20.9427 14.7559 21.349 15.1488 22.0938 15.2143H24.5312C25.276 15.1488 25.6823 14.7559 25.75 14.0357C25.6823 13.3155 25.276 12.9226 24.5312 12.8572H22.0938ZM25.75 18.75C25.6823 18.0297 25.276 17.6369 24.5312 17.5714H22.0938C21.349 17.6369 20.9427 18.0297 20.875 18.75C20.9427 19.4702 21.349 19.8631 22.0938 19.9286H24.5312C25.276 19.8631 25.6823 19.4702 25.75 18.75Z"></path>
<defs>
<linearGradient gradientUnits="userSpaceOnUse" y2="15.9173" x2="29" y1="15.9173" x1="3" id="paint0_linear_5459_28571">
<stop stop-color="#F7D379"></stop>
<stop stop-color="#E9BE65" offset="0.130208"></stop>
<stop stop-color="#F5E583" offset="0.234375"></stop>
<stop stop-color="#C89447" offset="0.387985"></stop>
<stop stop-color="#DCAB57" offset="0.4606"></stop>
<stop stop-color="#D6A453" offset="0.546183"></stop>
<stop stop-color="#F7D87B" offset="0.639546"></stop>
<stop stop-color="#A57331" offset="0.735503"></stop>
<stop stop-color="#C18D42" offset="0.834053"></stop>
<stop stop-color="#C08A41" offset="1"></stop>
</linearGradient>
</defs>
</svg>
