<svg xmlns="http://www.w3.org/2000/svg" fill="none" viewBox="0 0 32 32" height="32" width="32">
<path fill="url(#paint0_linear_5459_23894)" d="M21.9983 14H18.9983C18.7331 14 18.4788 13.8946 18.2912 13.7071C18.1037 13.5196 17.9983 13.2652 17.9983 13C17.9983 12.7348 18.1037 12.4804 18.2912 12.2929C18.4788 12.1054 18.7331 12 18.9983 12H21.9983C22.2636 12 22.5179 12.1054 22.7054 12.2929C22.893 12.4804 22.9983 12.7348 22.9983 13C22.9983 13.2652 22.893 13.5196 22.7054 13.7071C22.5179 13.8946 22.2636 14 21.9983 14ZM12.9983 12H11.9983V11C11.9983 10.7348 11.893 10.4804 11.7054 10.2929C11.5179 10.1054 11.2636 10 10.9983 10C10.7331 10 10.4788 10.1054 10.2912 10.2929C10.1037 10.4804 9.99834 10.7348 9.99834 11V12H8.99834C8.73312 12 8.47877 12.1054 8.29123 12.2929C8.10369 12.4804 7.99834 12.7348 7.99834 13C7.99834 13.2652 8.10369 13.5196 8.29123 13.7071C8.47877 13.8946 8.73312 14 8.99834 14H9.99834V15C9.99834 15.2652 10.1037 15.5196 10.2912 15.7071C10.4788 15.8946 10.7331 16 10.9983 16C11.2636 16 11.5179 15.8946 11.7054 15.7071C11.893 15.5196 11.9983 15.2652 11.9983 15V14H12.9983C13.2636 14 13.5179 13.8946 13.7054 13.7071C13.893 13.5196 13.9983 13.2652 13.9983 13C13.9983 12.7348 13.893 12.4804 13.7054 12.2929C13.5179 12.1054 13.2636 12 12.9983 12ZM30.1833 25.0812C29.8065 25.6194 29.3163 26.0686 28.7473 26.3971C28.1783 26.7256 27.5443 26.9255 26.8898 26.9828C26.2352 27.0401 25.5761 26.9534 24.9587 26.7288C24.3412 26.5041 23.7805 26.147 23.3158 25.6825C23.3008 25.6675 23.2858 25.6525 23.2721 25.6362L18.3083 20H13.6833L8.72459 25.6362L8.68084 25.6825C7.83609 26.5254 6.6917 26.9992 5.49834 27C4.84138 26.9998 4.19245 26.8557 3.59713 26.5779C3.0018 26.3001 2.47452 25.8953 2.05232 25.392C1.63012 24.8886 1.32325 24.299 1.15326 23.6644C0.983268 23.0298 0.954282 22.3657 1.06834 21.7188C1.06773 21.7129 1.06773 21.7071 1.06834 21.7013L3.11459 11.19C3.41912 9.45634 4.32491 7.88546 5.67278 6.75339C7.02065 5.62133 8.72438 5.0005 10.4846 5H21.4983C23.2532 5.0028 24.9517 5.62008 26.2989 6.74466C27.6462 7.86924 28.557 9.4301 28.8733 11.1562C28.8733 11.1638 28.8733 11.1712 28.8733 11.1788L30.9196 21.7C30.9202 21.7058 30.9202 21.7117 30.9196 21.7175C31.0255 22.299 31.0149 22.8958 30.8886 23.4732C30.7622 24.0506 30.5225 24.5971 30.1833 25.0812ZM21.4983 18C22.957 18 24.356 17.4205 25.3874 16.3891C26.4189 15.3576 26.9983 13.9587 26.9983 12.5C26.9983 11.0413 26.4189 9.64236 25.3874 8.61091C24.356 7.57946 22.957 7 21.4983 7H10.4846C9.19327 7.00116 7.94374 7.45767 6.9558 8.28922C5.96787 9.12076 5.30483 10.2741 5.08334 11.5463V11.5625L3.03584 22.0737C2.94533 22.5949 3.02244 23.1313 3.25606 23.6058C3.48968 24.0803 3.86778 24.4685 4.33598 24.7145C4.80418 24.9606 5.33835 25.0518 5.86167 24.9751C6.38499 24.8983 6.87048 24.6576 7.24834 24.2875L12.4883 18.3388C12.5822 18.2323 12.6976 18.1471 12.8269 18.0886C12.9562 18.0302 13.0964 18 13.2383 18H21.4983ZM28.9608 22.0737L27.8683 16.4487C27.1964 17.5337 26.2587 18.4293 25.1441 19.0508C24.0294 19.6722 22.7745 19.9989 21.4983 20H20.9733L24.7483 24.2887C25.033 24.5656 25.3792 24.771 25.7586 24.8881C26.1379 25.0052 26.5397 25.0307 26.9308 24.9625C27.5824 24.8475 28.1619 24.4788 28.5422 23.9374C28.9224 23.3959 29.0725 22.7257 28.9596 22.0737H28.9608Z"></path>
<defs>
<linearGradient gradientUnits="userSpaceOnUse" y2="15.9173" x2="30.9919" y1="15.9173" x1="1" id="paint0_linear_5459_23894">
<stop stop-color="#F7D379"></stop>
<stop stop-color="#E9BE65" offset="0.130208"></stop>
<stop stop-color="#F5E583" offset="0.234375"></stop>
<stop stop-color="#C89447" offset="0.387985"></stop>
<stop stop-color="#DCAB57" offset="0.4606"></stop>
<stop stop-color="#D6A453" offset="0.546183"></stop>
<stop stop-color="#F7D87B" offset="0.639546"></stop>
<stop stop-color="#A57331" offset="0.735503"></stop>
<stop stop-color="#C18D42" offset="0.834053"></stop>
<stop stop-color="#C08A41" offset="1"></stop>
</linearGradient>
</defs>
</svg>
