<svg xmlns="http://www.w3.org/2000/svg" fill="none" viewBox="0 0 128 22" height="22" width="128">
<g clip-path="url(#clip0_1676_84995)">
<path fill="white" d="M-0.341797 21.43V1.70898H3.58727L12.1467 14.5766V1.70898H16.3556V21.43H12.4265L3.86717 8.5624V21.43H-0.341797Z"></path>
<path fill="white" d="M20.2812 21.43V1.70898H33.1895V5.34549H24.6317V9.68133H32.4883V13.3178H24.6317V17.9335H33.4709V21.2902L20.2812 21.43Z"></path>
<path fill="white" d="M41.6096 21.43V5.20563H35.7168V1.70898H51.5715V5.34549H45.6787V21.43H41.6096Z"></path>
<path fill="white" d="M54.2357 20.4514V18.2135C56.0595 19.0528 58.0248 19.4723 59.9886 19.4723C61.2511 19.6123 62.5136 19.1926 63.4963 18.6332C64.339 18.0737 64.7588 17.0947 64.7588 16.1156C64.7588 15.4163 64.4789 14.7169 63.9176 14.1575C63.0749 13.4581 62.0938 12.8987 61.1111 12.6189L59.0059 11.7797C57.6034 11.3601 56.3409 10.521 55.2183 9.54189C54.5155 8.7027 54.0957 7.72364 54.0957 6.60471C54.0957 5.06619 54.797 3.66755 55.9195 2.68848C57.4635 1.70942 59.1474 1.14996 60.9712 1.28982C61.9523 1.28982 62.795 1.42969 63.7777 1.56955C64.6189 1.70942 65.46 1.98915 66.1628 2.40875V4.6466C64.6189 3.94727 62.795 3.52767 61.1111 3.38781C58.1647 3.38781 56.6208 4.36686 56.6208 6.32499C56.6208 7.02432 56.9022 7.58378 57.4635 8.00337C58.3047 8.7027 59.2873 9.12229 60.2685 9.54189L62.3737 10.3811C63.7777 10.8007 65.1802 11.6399 66.3027 12.7588C67.004 13.598 67.4253 14.7169 67.4253 15.9757C67.5653 17.5142 66.864 19.0528 65.6015 20.0318C64.0576 21.1507 62.2337 21.5704 60.4099 21.5704C59.7071 21.5704 59.0059 21.5704 58.3047 21.4304C57.6034 21.2906 56.9022 21.1507 56.1994 21.0109C55.2183 21.0109 54.657 20.7311 54.2357 20.4514Z"></path>
<path fill="white" d="M70.5137 12.4786V1.70898H73.0403V12.4786C73.0403 14.8564 73.4601 16.6747 74.3028 17.7935C76.2666 19.8916 79.6344 20.1712 81.7396 18.2131C81.8795 18.0733 82.0195 17.9333 82.1609 17.7935C83.0021 16.6747 83.4235 14.8564 83.4235 12.4786V1.70898H85.9485V12.6185C85.9485 15.8354 85.2473 18.0733 83.9848 19.6118C82.7207 21.1504 80.7569 21.8497 78.2319 21.8497C75.7053 21.8497 73.7415 21.1504 72.479 19.6118C71.2164 18.0733 70.5137 15.6955 70.5137 12.4786Z"></path>
<path fill="white" d="M90.1562 21.43V1.70898H92.6828V21.43H90.1562Z"></path>
<path fill="white" d="M102.368 21.43V3.80697H96.1934V1.70898H111.207V3.80697H104.893V21.2902H102.368V21.43Z"></path>
<path fill="white" d="M114.576 21.43V1.70898H126.783V3.80697H117.101V10.2408H125.942V12.3388H117.101V19.0523H127.063V21.1504H114.576V21.43Z"></path>
</g>
<defs>
<clipPath id="clip0_1676_84995">
<rect transform="translate(0.0449219 0.849609)" fill="white" height="21" width="127.909"></rect>
</clipPath>
</defs>
</svg>
