<svg xmlns="http://www.w3.org/2000/svg" fill="none" viewBox="0 0 113 30" height="30" width="113">
<path fill="black" d="M109.626 2.70507C108.292 2.03012 106.214 1.24971 103.736 1.24971C102.908 1.24971 102.075 1.33935 101.268 1.51336C100.656 1.6241 99.9127 1.86666 99.1534 2.26214C99.1428 2.26741 98.9108 2.39396 98.9002 2.39923C98.8844 1.99321 98.8686 1.67155 98.8686 1.64519L98.721 0L97.3078 0.274193C95.7891 0.590576 93.1262 0.759313 89.6091 0.759313C86.5666 0.759313 83.9406 0.632765 83.9142 0.632765L82.4536 0.564212L82.4009 1.51863C81.2619 1.55554 80.4235 1.53973 79.5903 1.53973C78.5621 1.53973 77.3757 1.46591 77.3757 1.46591L77.7131 3.35365C77.7237 3.41166 78.715 9.08546 78.6781 15.2708V15.2971V15.3235C78.7308 17.1901 78.2931 22.6478 75.6672 23.2331L75.6408 23.2383C75.6408 23.2383 75.5248 23.2647 75.3402 23.2647C74.4913 23.2647 71.6913 22.653 71.3275 14.7487C71.2484 12.65 71.1798 6.63877 71.839 4.06552L72.2819 2.34123L70.5049 2.2305C70.431 2.22523 68.7068 2.11976 67.4096 2.11976C67.0299 2.11976 66.7294 2.13031 66.4815 2.14613H66.4552L66.587 1.24443L64.8416 1.28135C63.0435 1.31826 61.045 1.40263 60.5283 1.44481C59.9535 1.487 58.9727 1.55555 58.9727 1.55555L59.2047 3.10055C59.21 3.13746 59.4051 4.46627 59.6002 6.53858C59.8164 8.89036 60.0378 12.1966 60.0115 15.6399C58.3821 11.896 56.3995 6.79696 55.5558 2.55215L55.3132 1.33408L54.074 1.36044C53.9264 1.36571 50.4462 1.44481 49.5761 1.49227L48.1208 1.56609L48.1735 3.02146C48.1788 3.13746 48.5268 12.5604 48.1155 20.9287C46.9554 16.3728 45.5791 9.8606 45.0202 2.80526L44.9253 1.62409L43.7547 1.46063C43.6809 1.45008 41.9249 1.20753 39.8684 1.20753C38.8877 1.20753 37.9965 1.26025 37.2108 1.37099L36.1351 1.52391L35.9611 2.59434C35.94 2.73144 34.1525 13.4885 31.7954 21.7882L30.6511 21.9148C30.6248 21.9201 27.8195 22.2206 25.299 22.2206C24.6241 22.2206 24.0915 22.1995 23.6643 22.1679C23.6274 21.2979 23.6169 20.1905 23.7118 19.2414C24.4289 19.2044 25.4361 19.1623 26.5751 19.1623C28.0726 19.1623 29.4594 19.2255 30.7039 19.3574L32.0063 19.4945L32.2963 18.2184C32.3121 18.1393 32.734 16.2463 32.5389 14.2372L32.4018 12.8346L30.9939 12.9031C30.9675 12.9031 28.099 13.0455 25.2621 13.0455C24.8086 13.0455 24.3762 13.0402 23.9755 13.035C24.0493 11.3423 24.1811 8.99582 24.3867 7.493C25.3833 7.40336 26.9547 7.2979 28.5947 7.2979C29.9235 7.2979 31.0783 7.37172 32.0116 7.50882L33.6146 7.74611L33.699 6.12728C33.7464 5.21505 33.8782 3.75441 34.047 2.8369C34.2157 1.91939 34.5005 0.938602 34.5005 0.938602L32.5494 1.0177C32.4598 1.02297 23.29 1.40262 19.5461 1.36044L18.0064 1.34462L18.0538 2.87908C18.0538 2.90017 18.0855 3.88096 18.096 5.53143C17.4316 4.43463 16.4772 3.35893 15.1009 2.60488C14.5841 2.26741 12.3378 0.98078 8.03502 0.98078C6.18418 0.98078 4.18042 1.22335 2.08174 1.70319L0.832031 1.98793L0.942777 3.26401C0.958596 3.43275 2.38231 20.1747 1.83919 27.4779L1.70736 29.2602L3.47911 29.0492C7.15443 28.5799 8.7838 28.8383 8.7838 28.8383L8.5887 27.1509C8.38833 25.4952 8.20903 23.5758 8.14575 22.305C13.1235 22.305 15.5544 20.5122 16.5774 19.4048C16.7672 19.2255 17.2365 18.7404 17.7533 17.9389C17.6372 19.5947 17.4632 21.7619 17.284 23.4545C17.1363 24.8097 16.9359 26.4707 16.8674 27.0771C16.7936 27.673 16.6828 28.6485 16.6828 28.6485L18.4282 28.6274C18.4651 28.6274 22.4252 28.5694 26.0161 28.5694C27.3766 28.5694 28.5103 28.5799 29.4067 28.5905L29.0165 29.5238H37.1634C37.1634 29.5238 37.2056 26.6816 37.5905 24.5988C38.4025 24.5513 39.589 24.4933 40.7596 24.4933C41.2922 24.4933 41.772 24.5039 42.1991 24.5302C42.352 25.4688 42.5577 26.8556 42.6262 28.0579L42.7106 29.4922L44.1449 29.4394C44.166 29.4394 46.0695 29.392 47.4247 29.3814C48.7271 29.3709 50.6834 29.4711 50.6834 29.4711L50.3091 28.3637C51.3637 28.3585 51.9806 28.3321 52.5079 28.3216C53.0352 28.3163 54.6699 28.311 54.6699 28.311L54.5697 26.7396C54.4063 24.6515 54.1373 20.4594 54.0266 16.7103C55.7298 20.7916 57.781 25.7536 58.6721 28.1001L59.0465 29.0861L60.1011 29.0492C60.117 29.0492 61.7674 28.9912 63.0013 28.9912C63.7079 28.9912 65.8751 29.0176 65.8751 29.0176L65.8118 27.5306C65.8118 27.4515 65.7011 23.9924 65.6748 19.5525L65.6958 19.6948C65.8118 20.6018 66.086 22.7321 67.2988 24.7622C68.828 27.3249 71.3696 28.8963 74.6442 29.2971C74.7813 29.3182 75.0871 29.3551 75.5195 29.3551C77.4442 29.3551 83.7771 28.5588 84.4679 18.3133C84.4837 18.018 84.8001 12.4075 84.6261 6.95515C85.4012 6.80223 86.4559 6.71259 87.6897 6.69677C87.8532 12.6026 86.8197 26.0752 86.8038 26.2229L86.6668 27.9841L88.4227 27.7995C89.7515 27.6624 92.2509 27.6097 92.2773 27.6097L93.875 27.5781L93.7326 26.1491C94.4761 27.0244 96.8227 29.1705 101.985 29.1705C102.597 29.1705 103.24 29.1389 103.894 29.0756C109.573 28.5378 111.782 23.9133 112.157 21.5615C112.167 21.5035 113.016 16.9898 109.684 14.4112C108.803 13.7257 108.07 13.3408 106.114 12.8821C104.437 12.4866 102.67 11.9593 101.753 11.3792C101.421 11.1683 101.131 10.9047 100.962 10.4617C100.772 9.96606 100.767 9.32802 100.983 8.81653C101.152 8.42106 101.5 8.08358 102.027 7.81466C102.249 7.69865 103.008 7.46137 103.767 7.54574C104.811 7.66174 106.372 8.20487 107.817 9.35967C108.618 10.003 109.336 10.7623 109.336 10.7623L111.16 6.59658L112.267 4.08134L109.626 2.70507ZM38.7822 18.4768C39.1724 16.4414 39.6944 14.2741 40.1954 12.3758C40.6383 14.6643 41.0391 17.032 41.2869 18.5506C40.4854 18.54 39.5573 18.5084 38.7822 18.4768ZM12.8915 14.0421L12.8757 14.0738C12.4169 14.9491 11.2463 15.9932 8.27231 15.9932C8.0983 15.9932 7.92957 15.9879 7.77665 15.9826C7.58154 13.151 7.64481 9.24893 7.687 7.38754C8.22485 7.27153 8.74161 7.20826 9.23728 7.20826C9.88586 7.20826 10.4395 7.29263 10.8772 7.44555C12.206 7.92012 12.7702 8.93782 12.9231 9.2753C14.0568 11.7853 12.9442 13.9472 12.8915 14.0421ZM93.5745 23.9607C93.0946 16.8527 93.7221 9.31221 94.0121 6.46476C94.0385 6.46476 94.0596 6.46476 94.086 6.46476C94.4867 6.46476 94.9191 6.48057 95.3357 6.50167C94.9349 7.55628 94.7082 8.80599 94.7609 10.2666C94.7609 10.6146 94.8031 11.9751 95.5729 13.5148C96.211 14.7909 97.4607 16.3939 99.8863 17.4116C100.725 17.7649 102.38 18.1657 102.881 18.308C103.878 18.5822 104.753 18.9408 105.302 19.3152C105.718 19.5999 105.95 19.9321 106.024 20.1747C106.119 20.4858 106.109 20.8655 105.945 21.2029C105.729 21.6617 105.159 22.1152 104.316 22.3788C104.031 22.4685 103.04 22.7901 101.764 22.4896C100.704 22.2417 99.3063 21.8726 97.8509 20.6334C96.8807 19.8108 95.8102 18.6508 95.8102 18.6508L94.9666 20.6545C94.9613 20.6598 94.0649 22.7901 93.5745 23.9607Z"></path>
<path fill="white" d="M18.1276 10.2485C18.0907 9.62624 17.595 5.59763 14.3521 3.85753C14.3521 3.85753 10.7084 1.24209 2.42969 3.12984C2.42969 3.12984 3.88506 20.0722 3.32611 27.581C3.32611 27.581 6.2421 27.2382 7.1438 27.3226C7.1438 27.3226 6.75359 24.1008 6.68504 22.0865C6.66395 21.5117 6.66395 21.1162 6.66395 20.7577C6.66395 20.7577 7.30727 20.8262 8.20369 20.8209C10.1758 20.8157 13.6297 20.4782 15.549 18.3531C15.5543 18.3531 18.4703 15.8221 18.1276 10.2485ZM14.1833 14.7517C12.2956 18.3531 6.42139 17.3249 6.42139 17.3249C5.99427 13.5072 6.25265 6.25677 6.25265 6.25677C8.99991 5.33398 10.9562 5.82965 12.169 6.39914C12.3852 6.49933 13.3713 7.06881 13.9408 8.00741C16.0342 11.4876 14.1833 14.7517 14.1833 14.7517Z"></path>
<path fill="white" d="M19.5423 2.82751C19.5423 2.82751 19.711 8.27457 19.4157 15.525C19.4157 15.525 19.1152 20.4184 18.7724 23.6297C18.7724 23.6297 18.4877 26.398 18.4297 27.1468C18.4297 27.1468 27.3517 27.0203 30.737 27.1468C30.737 27.1468 30.7792 24.0568 30.8214 23.3713C30.8214 23.3713 24.8997 24.0146 22.2843 23.4557C22.2843 23.4557 21.9415 19.8964 22.4583 17.8346C22.4583 17.8346 26.7453 17.4497 30.8636 17.8768C30.8636 17.8768 31.2485 16.1578 31.0797 14.3597C31.0797 14.3597 25.9332 14.6181 22.4583 14.444C22.4583 14.444 22.627 8.13747 23.1438 6.12316C23.1438 6.12316 28.5065 5.47986 32.2345 6.0388C32.2345 6.0388 32.3663 3.54992 32.6195 2.47949C32.6247 2.49004 23.3547 2.87496 19.5423 2.82751Z"></path>
<path fill="white" d="M43.5573 2.91766C43.5573 2.91766 40.172 2.44836 37.4248 2.83329C37.4248 2.83329 34.5931 20.034 31.25 28.0543H35.711V27.9699C35.711 27.9699 36.0538 24.11 36.4387 23.2084C36.4387 23.2084 40.984 22.8234 43.4729 23.1662C43.4729 23.1662 43.9897 25.8238 44.1163 27.9699C44.1163 27.9699 47.7177 27.8434 48.6194 27.9277C48.6194 27.9225 44.633 16.4694 43.5573 2.91766ZM37.0398 19.86C37.9415 14.1123 40.3407 6.47697 40.3407 6.47697C41.4533 9.99409 42.9984 19.9443 42.9984 19.9443C41.7592 20.1605 37.0398 19.86 37.0398 19.86Z"></path>
<path fill="white" d="M49.6535 2.95545C49.6535 2.95545 50.2124 17.6673 49.1367 26.8846C49.1367 26.8846 52.5695 26.8846 53.1231 26.8424C53.1231 26.8424 52.0949 13.4594 52.7382 9.77351C52.7382 9.77351 58.4015 23.1565 60.0731 27.5701C60.0731 27.5701 61.9661 27.5173 63.2527 27.5331C63.7378 27.5384 63.9698 27.5437 64.3759 27.5331C64.3759 27.5331 63.8011 9.98443 64.8768 2.73926C64.8768 2.73926 61.0169 2.82362 60.6742 2.86581C60.6742 2.86581 62.1295 13.1166 61.1435 21.5693C61.1435 21.5693 55.6964 10.8439 54.1092 2.82362C54.1092 2.82889 50.5077 2.91326 49.6535 2.95545Z"></path>
<path fill="white" d="M66.5964 3.6019C66.5964 3.6019 66.2747 12.951 67.1553 19.2998C67.3452 20.676 67.8513 26.9879 74.875 27.8368C75.5816 27.9529 82.3312 28.5118 83.0219 18.2293C83.0219 18.2293 83.5387 9.22298 82.9376 2.96387C82.9376 2.96387 79.5048 3.1326 79.162 3.09042C79.162 3.09042 80.1903 8.88023 80.1481 15.2712C80.1481 15.2712 80.4065 23.6764 75.9877 24.6625C75.8717 24.6888 70.3666 26.0704 69.8551 14.7966C69.8551 14.7966 69.5546 7.03466 70.4088 3.68627C70.4088 3.68627 67.709 3.51753 66.5964 3.6019Z"></path>
<path fill="white" d="M88.3009 26.3328C88.3009 26.3328 89.5454 10.2447 89.113 5.23002C89.113 5.23002 85.8543 5.10346 83.8821 5.61495C83.8821 5.61495 83.7978 2.8255 83.8399 2.09782C83.8399 2.09782 93.3842 2.5724 97.5077 1.71289C97.5077 1.71289 97.6764 3.60064 97.3759 5.18783C97.3759 5.18783 93.7902 4.8029 92.6776 5.10346C92.6776 5.10346 91.2908 16.4036 92.2821 26.1377C92.2768 26.1377 89.7036 26.1904 88.3009 26.3328Z"></path>
<path fill="white" d="M103.779 27.6066C108.398 27.169 110.017 23.7204 110.523 22.1227C110.676 21.627 110.819 20.7939 110.787 20.0293C110.745 19.0168 110.481 17.5457 109.511 16.3381C108.947 15.6368 108.193 15.0462 107.001 14.6349C106.632 14.5084 105.477 14.2394 104.913 14.0918C103.705 13.7701 101.612 13.1163 100.483 12.2146C100.004 11.8297 99.6502 11.4078 99.492 10.7909C99.4076 10.4587 99.3128 10.0316 99.3444 9.54116C99.4182 8.49709 99.7873 7.30011 101.369 6.49861C102.06 6.15058 103.041 5.98713 103.826 6.06095C105.092 6.18223 107.085 6.6568 108.836 8.27035L110.339 4.84287C110.339 4.84287 106.479 1.88468 101.549 2.95511C101.549 2.95511 97.0506 3.7619 96.3177 8.52346C96.1806 9.41988 96.1015 10.9596 96.5708 12.2726C97.0242 13.5487 98.1368 15.0568 100.483 16.0639C101.427 16.4699 102.276 16.665 102.946 16.8549C103.869 17.1238 105.219 17.5615 106.284 18.1837C106.901 18.5423 107.217 19.0854 107.37 19.5125C107.76 20.604 107.739 23.3407 103.61 23.9682C103.61 23.9682 99.7926 24.6537 96.3177 21.2262C96.3177 21.2262 95.1101 24.0948 94.7305 24.9965C94.7305 25.0017 96.8924 28.2658 103.779 27.6066Z"></path>
<path fill="#D1D2D4" d="M14.3302 4.12733C14.3302 4.12733 9.38934 2.04448 3.28315 3.78459C3.28315 3.78459 4.5645 22.3405 3.79463 26.7118L2.59766 3.29947C2.59766 3.29947 9.42098 1.52772 14.3302 4.12733Z" opacity="0.8"></path>
<path fill="#D1D2D4" d="M5.99219 17.4889C5.99219 17.4889 6.47731 17.5469 6.50367 17.7156C6.50367 17.7156 10.5428 18.9917 13.3006 16.8877C15.4731 15.232 16.069 11.8625 14.9564 9.40527C14.9564 9.40527 15.9003 13.4286 13.2426 16.2022C11.782 17.7314 9.07692 17.8 5.99219 17.4889Z" opacity="0.8"></path>
<path fill="#D1D2D4" d="M31.3555 2.87207C31.3555 2.87207 27.2425 3.55756 20.3929 3.64193C20.3929 3.64193 20.5089 17.7157 18.9375 25.6833C18.9375 25.6833 19.4806 17.9741 19.681 13.2072C19.8814 8.44041 19.7074 3.04608 19.7074 3.04608L31.3555 2.87207Z" opacity="0.8"></path>
<path fill="#D1D2D4" d="M30.524 14.7451C30.524 14.7451 27.107 15.7628 21.9922 14.8822L30.524 14.7451Z" opacity="0.8"></path>
<path fill="#D1D2D4" d="M30.3289 23.7412C30.3289 23.7412 24.191 25.2546 21.9922 23.7412C21.9922 23.7412 28.0193 24.0523 30.3289 23.7412Z" opacity="0.8"></path>
<path fill="#D1D2D4" d="M43.2732 3.23608C43.2732 3.23608 40.9742 3.10953 38.1268 3.55774C38.1268 3.55774 35.2846 19.7618 32.4688 25.7046C32.4688 25.7046 34.4198 18.6756 35.6642 13.3709C36.9087 8.06619 37.5836 3.08316 37.5836 3.08316C37.5836 3.08316 41.5173 2.94606 43.2732 3.23608Z" opacity="0.8"></path>
<path fill="#D1D2D4" d="M40.687 6.33789C40.687 6.33789 42.638 12.1541 43.8825 20.5909C43.8825 20.5909 42.5379 20.8493 40.9454 20.7491C39.3477 20.6542 36.6953 20.206 36.6953 20.206L43.1495 20.1744L43.1812 19.568L40.687 6.33789Z" opacity="0.8"></path>
<path fill="#D1D2D4" d="M43.7812 22.9854L44.4193 27.5571C44.4193 27.5571 45.3473 26.8189 43.7812 22.9854Z" opacity="0.8"></path>
<path fill="#D1D2D4" d="M53.8487 3.2375C53.8487 3.2375 52.8574 3.62243 50.5267 3.78062C50.5267 3.78062 50.9116 18.4503 49.7305 24.9045C49.7305 24.9045 49.9836 19.7263 49.9836 14.8698C49.9836 10.0134 49.8254 3.14258 49.8254 3.14258L53.8487 3.2375Z" opacity="0.8"></path>
<path fill="#D1D2D4" d="M64.2997 3.07324C64.2997 3.07324 64.2365 3.29471 61.5525 3.61637C61.5525 3.61637 63.0237 14.4472 61.4576 21.9613C61.4576 21.9613 61.8742 14.8322 61.5209 9.7542C61.1728 4.67626 60.8828 3.20507 60.8828 3.20507L64.2997 3.07324Z" opacity="0.8"></path>
<path fill="#D1D2D4" d="M60.0214 26.3434C60.0214 26.3434 58.2971 19.826 53.8203 11.5156L60.0214 26.3434Z" opacity="0.8"></path>
<path fill="#D1D2D4" d="M69.9548 4.00097C69.9548 4.00097 68.1355 4.22243 67.3973 4.3859C67.3973 4.3859 67.081 12.7911 67.7823 18.0958C68.4836 23.4005 69.6647 24.9983 71.1676 26.1161C71.1676 26.1161 68.2621 25.1881 67.3973 19.5617C66.5378 13.9354 66.8226 3.86914 66.8226 3.86914L69.9548 4.00097Z" opacity="0.8"></path>
<path fill="#D1D2D4" d="M82.6412 3.33301C82.6412 3.33301 82.0664 3.59139 80.0837 3.84449C80.0837 3.84449 81.4916 11.1318 80.6901 18.6723C79.9677 25.5062 75.3538 25.7646 74.1094 24.9367C74.1094 24.9367 77.2099 25.4798 78.776 23.1175C80.3421 20.7499 80.3421 15.0023 80.3105 13.0829C80.2789 11.1635 79.4141 3.36992 79.4141 3.36992L82.6412 3.33301Z" opacity="0.8"></path>
<path fill="#D1D2D4" d="M96.7655 2.24902C96.7655 2.24902 94.3662 2.9187 90.1847 2.9187C85.9979 2.9187 84.59 2.95034 84.59 2.95034C84.59 2.95034 84.2367 4.99628 84.2683 5.28103L84.0469 2.37558C84.0469 2.37558 92.4838 2.72887 96.7655 2.24902Z" opacity="0.8"></path>
<path fill="#D1D2D4" d="M89.4478 4.99414C89.4478 4.99414 89.9909 7.93651 89.8644 12.8246C89.7378 17.7127 89.1947 23.0491 88.7148 26.0547C88.7148 26.0547 89.0681 17.0747 89.1947 14.8389C89.3212 12.5979 89.4478 4.99414 89.4478 4.99414Z" opacity="0.8"></path>
<path fill="#D1D2D4" d="M108.008 4.00048C108.008 4.00048 103.599 2.75604 100.752 3.96885C97.9097 5.18165 96.7918 7.77071 96.9183 10.2965C97.0449 12.8223 98.4845 14.3567 99.3123 14.9948C99.3123 14.9948 96.3752 14.0351 96.4385 9.6901C96.5018 5.34511 100.082 3.26753 102.191 3.14097C104.301 3.00915 105.229 2.8826 108.008 4.00048Z" opacity="0.8"></path>
<path fill="#D1D2D4" d="M106.506 17.7959C106.506 17.7959 109.317 19.1827 107.877 22.2516C106.438 25.3205 100.943 25.8004 97.3945 22.6049C97.3945 22.6049 100.891 25.1149 105.035 24.0128C108.515 23.0795 107.914 18.5816 106.506 17.7959Z" opacity="0.8"></path>
<path fill="white" d="M32.6464 2.62402C32.6464 2.62402 32.1665 3.92119 31.9292 5.56111C31.9292 5.56111 30.0889 5.38182 27.7794 5.42928C25.7334 5.47147 22.8543 5.80894 22.8543 5.80894C22.8543 5.80894 22.2268 8.25037 22.4905 14.1825C23.3236 8.34001 23.6453 6.66318 23.6453 6.66318L33.1737 6.97956L32.6464 2.62402Z" opacity="0.8"></path>
<path fill="white" d="M31.1235 14.6182C31.1235 14.6182 30.9864 16.5323 30.5645 17.4709C30.5645 17.4709 29.6312 17.3549 27.3691 17.318C24.9593 17.2758 22.2278 17.5289 22.2278 17.5289C22.2278 17.5289 21.7163 20.2287 22.2964 23.2818L23.0082 18.2355L31.3818 18.2249L31.5295 15.9892L31.1235 14.6182Z" opacity="0.8"></path>
<path fill="white" d="M30.8899 23.458C30.8899 23.458 30.6263 25.9838 30.4101 26.7326C30.4101 26.7326 25.1634 26.6746 18.6406 27.2177L30.8477 27.6501L31.1641 27.0595L30.8899 23.458Z" opacity="0.8"></path>
<path fill="white" d="M14.511 9.23807C14.511 9.23807 13.8836 6.55409 11.1996 5.69986C8.49977 4.84035 5.7736 5.9846 5.7736 5.9846C5.7736 5.9846 5.74724 11.1786 6.37473 16.6889L6.71748 6.52772L10.3981 6.35371L12.5389 7.15522L14.511 9.23807Z" opacity="0.8"></path>
<path fill="white" d="M3.17578 27.5993C3.17578 27.5993 5.04245 26.9929 6.6771 26.7978C6.6771 26.7978 6.1076 22.2682 6.26052 20.3278C6.26052 20.3278 11.6654 21.0502 14.7501 18.6931C16.543 17.3169 17.8349 14.7752 18.1776 12.6396L18.2145 16.0302L15.2089 19.6475L12.5829 20.8656L7.09893 21.3982L7.85825 27.9104L3.59764 28.327L3.33398 27.5835" opacity="0.8"></path>
<path fill="white" d="M40.5751 7.37469C40.5751 7.37469 40.2957 6.23572 40.1639 5.8877C40.1639 5.8877 37.5273 15.4899 37.3164 18.4586L40.5751 7.37469Z" opacity="0.8"></path>
<path fill="white" d="M44.629 11.291C44.629 11.291 45.3725 18.0563 48.1251 27.4951C48.1251 27.4951 45.1986 27.7113 44.0859 28.0224L48.9951 28.1384L44.629 11.291Z" opacity="0.8"></path>
<path fill="white" d="M43.3686 23.1678C43.3686 23.1678 41.117 22.825 39.2873 22.7987C37.4734 22.7723 36.1498 22.8936 36.1498 22.8936C36.1498 22.8936 35.7649 23.7056 35.4802 27.6499C35.4802 27.6499 32.5114 27.8661 31.1562 28.135L35.9969 28.3196L36.867 23.6951L43.3686 23.1678Z" opacity="0.8"></path>
<path fill="white" d="M54.2148 3.0332C54.2148 3.0332 54.257 7.6893 58.6706 16.1684L54.2148 3.0332Z" opacity="0.8"></path>
<path fill="white" d="M52.5597 13.4824C52.5597 13.4824 52.4859 20.8647 52.6863 26.4014C52.6863 26.4014 50.6139 26.6018 49.0742 26.9445L53.3981 27.1449L52.5597 13.4824Z" opacity="0.8"></path>
<path fill="white" d="M59.9805 27.6443C59.9805 27.6443 61.9631 27.175 63.8772 26.9746C63.8772 26.9746 63.7032 15.0945 64.5891 6.01953L64.7473 27.9607L59.9805 27.6443Z" opacity="0.8"></path>
<path fill="white" d="M70.4948 3.8457C70.4948 3.8457 69.4086 7.33119 69.493 13.1263C69.5773 18.9214 70.4052 23.9202 74.6922 24.6321L72.2666 22.1748L70.3841 16.6961L70.1837 11.1014L70.4948 3.8457Z" opacity="0.8"></path>
<path fill="white" d="M83.1683 5.44336C83.1683 5.44336 83.6534 18.0618 81.5389 23.0606C80.6109 25.2595 78.9129 26.9996 76.0022 27.4847C74.7209 27.7009 73.2813 27.4267 71.5781 26.9996C71.5781 26.9996 76.403 30.4851 81.0855 26.0293C85.7679 21.5736 83.4847 7.81623 83.1683 5.44336Z" opacity="0.8"></path>
<path fill="white" d="M88.9563 5.2525C88.9563 5.2525 87.0369 4.95194 85.9559 5.04685C84.3476 5.18922 83.7148 5.7429 83.7148 5.7429L88.9563 5.2525Z" opacity="0.8"></path>
<path fill="white" d="M97.546 1.70117C97.546 1.70117 97.3561 4.01604 97.1188 4.81227C97.1188 4.81227 96.4755 4.76481 95.3366 4.81227C93.2801 4.89664 92.7106 5.13393 92.7106 5.13393C92.7106 5.13393 90.9599 16.3286 91.8563 25.7305C91.8563 25.7305 88.239 26.2261 87.6484 26.6269C88.5449 26.6269 92.7897 26.6849 92.7897 26.6849L93.0217 5.57159L97.3825 5.4714L97.7094 4.98101L97.509 1.71699" opacity="0.8"></path>
<path fill="white" d="M110.463 4.80859C110.463 4.80859 109.345 6.2745 108.612 7.77732C108.612 7.77732 106.165 5.40445 103.023 5.68392C100.333 5.92121 98.3085 8.02515 99.7375 11.305L100.26 8.40481L101.936 6.83344L103.682 6.59089L108.918 9.28014L110.21 6.2745L110.463 4.80859Z" opacity="0.8"></path>
<path fill="white" d="M110.252 17.3105C110.252 17.3105 111.544 20.4902 109.693 23.3851C107.852 26.2695 105.432 27.1922 101.588 27.2977C97.744 27.4032 95.4765 25.758 95.0547 25.4785C95.0547 25.4785 99.1782 30.1241 106.439 27.6088C113.705 25.0988 110.252 17.3105 110.252 17.3105Z" opacity="0.8"></path>
</svg>
