<svg xmlns="http://www.w3.org/2000/svg" fill="none" viewBox="0 0 27 26" height="26" width="27">
<path fill="black" d="M26.0916 13C26.0916 19.9035 20.403 25.5 13.3857 25.5C6.36835 25.5 0.679688 19.9035 0.679688 13C0.679688 6.09644 6.36835 0.5 13.3857 0.5C20.403 0.5 26.0916 6.09644 26.0916 13ZM10.526 11.4354L10.3721 11.2727C9.93309 10.853 9.36056 10.6241 8.75564 10.6241C7.47078 10.6241 6.4106 11.6729 6.4106 12.9784C6.4106 14.284 7.47078 15.3328 8.75564 15.3328C9.36312 15.3328 9.93783 15.1019 10.3776 14.6787L15.2572 9.82247L15.2621 9.81758L15.2671 9.81283C16.0815 9.0468 17.1485 8.62303 18.2699 8.62303C20.6926 8.62303 22.6486 10.5917 22.6486 12.9954C22.6486 15.3991 20.6926 17.3679 18.2699 17.3679C17.1485 17.3679 16.0815 16.9442 15.2671 16.1781L15.2635 16.1747L15.2598 16.1712L15.2481 16.1596L15.2439 16.1555L15.2397 16.1512L14.9746 15.8784L14.6424 15.5366L14.9793 15.1994L15.7161 14.4619L16.0749 14.1031L16.4283 14.4669L16.6795 14.7256C17.1148 15.1291 17.6781 15.3497 18.2699 15.3497C19.5547 15.3497 20.6148 14.3009 20.6148 12.9952C20.6148 11.6897 19.5547 10.6409 18.2699 10.6409C17.6766 10.6409 17.1119 10.8625 16.6762 11.2682L11.8072 16.1144L11.8047 16.1168L11.8021 16.1192C10.9824 16.9122 9.89942 17.351 8.75564 17.351C6.33282 17.351 4.37681 15.3822 4.37681 12.9784C4.37681 10.5747 6.33282 8.60593 8.75564 8.60593C9.89942 8.60593 10.9824 9.04469 11.8021 9.83761L11.809 9.84416L11.8168 9.8517L11.8241 9.85953L11.9887 10.0335L12.3119 10.375L11.9793 10.7078L11.2425 11.4449L10.8791 11.8084L10.526 11.4354Z" clip-rule="evenodd" fill-rule="evenodd"></path>
</svg>
