<svg xmlns="http://www.w3.org/2000/svg" fill="none" viewBox="0 0 27 26" height="26" width="27">
<path fill="black" d="M26.7109 13.001C26.7109 20.1846 20.8946 26.001 13.7109 26.001C6.5273 26.001 0.710938 20.1846 0.710938 13.001C0.710938 5.81734 6.5273 0.000976562 13.7109 0.000976562C20.8946 0.000976562 26.7109 5.81734 26.7109 13.001ZM8.52396 18.1445H14.9697C15.0782 18.1445 15.1216 18.0143 15.0782 17.9275L9.86954 11.4818C9.78272 11.395 9.67421 11.4384 9.65251 11.5252L8.39374 17.9709C8.37204 18.0794 8.43715 18.1445 8.52396 18.1445ZM8.39374 8.42168H14.8395C14.9263 8.42168 14.9914 8.50849 14.9697 8.5736L13.7109 15.0193C13.6892 15.1279 13.559 15.1496 13.4939 15.0627L8.28523 8.5953C8.24182 8.53019 8.28523 8.42168 8.39374 8.42168ZM15.4906 8.50849C15.5123 8.46508 15.5557 8.39998 15.6208 8.39998H20.2652C20.352 8.39998 20.4171 8.48679 20.3954 8.5519L19.5273 12.7405C19.5056 12.8057 19.4622 12.8491 19.3971 12.8491H19.2669C16.9881 12.8491 15.165 10.7439 15.4906 8.50849Z" clip-rule="evenodd" fill-rule="evenodd"></path>
</svg>
