<svg width="124" height="46" viewBox="0 0 124 46" fill="none" xmlns="http://www.w3.org/2000/svg">
<path d="M35.5551 8.85714C35.5395 8.75855 35.4913 8.66803 35.4182 8.60007C35.3451 8.5321 35.2513 8.49061 35.1518 8.48224C34.9847 8.46844 31.7095 8.4186 31.7095 8.4186C31.7095 8.4186 28.9709 5.75826 28.7003 5.48839C28.4297 5.21775 27.9014 5.29902 27.696 5.36036C27.6937 5.36189 27.1823 5.51982 26.3206 5.78662C26.1502 5.22857 25.9295 4.68712 25.6612 4.16895C24.6875 2.30824 23.2585 1.3246 21.5335 1.32154H21.5266C21.407 1.32154 21.2889 1.33304 21.1685 1.343C21.118 1.28204 21.0661 1.22223 21.0129 1.1636C20.2616 0.3586 19.2971 -0.0324014 18.1425 0.00209875C15.9145 0.0657324 13.695 1.67497 11.8957 4.53312C10.6291 6.54486 9.66618 9.07181 9.39248 11.0283L5.00636 12.3877C3.71452 12.7932 3.67388 12.8323 3.50522 14.0506C3.37948 14.9706 0 41.101 0 41.101L28.3208 46L40.5952 42.9487C40.5952 42.9487 35.5865 9.08944 35.5551 8.85714ZM24.9014 6.22593L22.7042 6.90596C22.6873 5.77819 22.5539 4.20805 22.028 2.85181C23.7185 3.17228 24.5503 5.08512 24.9014 6.22593ZM21.2222 7.3652L16.4941 8.82954C16.9511 7.08 17.8174 5.33736 18.8823 4.19578C19.2779 3.77028 19.8315 3.29725 20.4877 3.02661C21.1041 4.31308 21.2375 6.13393 21.2222 7.36596V7.3652ZM18.1862 1.48484C18.7098 1.47334 19.1499 1.58834 19.5263 1.83597C18.9237 2.14877 18.3418 2.59804 17.7959 3.18378C16.3807 4.70179 15.2958 7.0593 14.8634 9.33324C13.5141 9.75107 12.1947 10.1605 10.9795 10.5354C11.7462 6.9558 14.7469 1.58451 18.1862 1.48484Z" fill="black"/>
<path d="M35.1533 8.4831C34.9862 8.46853 31.7117 8.4187 31.7117 8.4187C31.7117 8.4187 28.9732 5.75912 28.7025 5.48925C28.5977 5.39184 28.4644 5.33057 28.3223 5.31445L28.323 45.9978L40.5967 42.948C40.5967 42.948 35.5888 9.0903 35.5566 8.858C35.541 8.75933 35.4928 8.66871 35.4197 8.60062C35.3466 8.53252 35.2528 8.49088 35.1533 8.48233V8.4831Z" fill="black"/>
<path d="M21.5192 14.7943L20.0932 20.1273C20.0932 20.1273 18.5031 19.4043 16.6187 19.5224C13.8541 19.6979 13.8249 21.4406 13.8533 21.8784C14.0036 24.2635 20.278 24.784 20.6307 30.3715C20.9074 34.7668 18.2992 37.7737 14.541 38.0114C10.0291 38.2951 7.5459 35.6347 7.5459 35.6347L8.50194 31.5691C8.50194 31.5691 11.0013 33.4551 13.0023 33.3286C14.3095 33.2458 14.7771 32.1824 14.7296 31.4311C14.5333 28.3199 9.42347 28.5031 9.10071 23.391C8.82854 19.0892 11.6537 14.7292 17.8883 14.3366C20.2903 14.1818 21.5192 14.7943 21.5192 14.7943Z" fill="white"/>
<path d="M58.216 22L55.892 18.01H54.352V22H53.078V12.242H56.228C56.9653 12.242 57.586 12.368 58.09 12.62C58.6033 12.872 58.986 13.2127 59.238 13.642C59.49 14.0713 59.616 14.5613 59.616 15.112C59.616 15.784 59.42 16.3767 59.028 16.89C58.6453 17.4033 58.0667 17.744 57.292 17.912L59.742 22H58.216ZM54.352 16.988H56.228C56.9187 16.988 57.4367 16.82 57.782 16.484C58.1273 16.1387 58.3 15.6813 58.3 15.112C58.3 14.5333 58.1273 14.0853 57.782 13.768C57.446 13.4507 56.928 13.292 56.228 13.292H54.352V16.988ZM68.5956 17.87C68.5956 18.1127 68.5816 18.3693 68.5536 18.64H62.4216C62.4682 19.396 62.7249 19.9887 63.1916 20.418C63.6676 20.838 64.2416 21.048 64.9136 21.048C65.4642 21.048 65.9216 20.922 66.2856 20.67C66.6589 20.4087 66.9202 20.0633 67.0696 19.634H68.4416C68.2362 20.3713 67.8256 20.9733 67.2096 21.44C66.5936 21.8973 65.8282 22.126 64.9136 22.126C64.1856 22.126 63.5322 21.9627 62.9536 21.636C62.3842 21.3093 61.9362 20.8473 61.6096 20.25C61.2829 19.6433 61.1196 18.9433 61.1196 18.15C61.1196 17.3567 61.2782 16.6613 61.5956 16.064C61.9129 15.4667 62.3562 15.0093 62.9256 14.692C63.5042 14.3653 64.1669 14.202 64.9136 14.202C65.6416 14.202 66.2856 14.3607 66.8456 14.678C67.4056 14.9953 67.8349 15.434 68.1336 15.994C68.4416 16.5447 68.5956 17.17 68.5956 17.87ZM67.2796 17.604C67.2796 17.1187 67.1722 16.7033 66.9576 16.358C66.7429 16.0033 66.4489 15.7373 66.0756 15.56C65.7116 15.3733 65.3056 15.28 64.8576 15.28C64.2136 15.28 63.6629 15.4853 63.2056 15.896C62.7576 16.3067 62.5009 16.876 62.4356 17.604H67.2796ZM73.1332 20.824L75.5132 14.328H76.8712L73.8612 22H72.3772L69.3672 14.328H70.7392L73.1332 20.824ZM78.7829 13.082C78.5402 13.082 78.3349 12.998 78.1669 12.83C77.9989 12.662 77.9149 12.4567 77.9149 12.214C77.9149 11.9713 77.9989 11.766 78.1669 11.598C78.3349 11.43 78.5402 11.346 78.7829 11.346C79.0162 11.346 79.2122 11.43 79.3709 11.598C79.5389 11.766 79.6229 11.9713 79.6229 12.214C79.6229 12.4567 79.5389 12.662 79.3709 12.83C79.2122 12.998 79.0162 13.082 78.7829 13.082ZM79.3989 14.328V22H78.1249V14.328H79.3989ZM88.5702 17.87C88.5702 18.1127 88.5562 18.3693 88.5282 18.64H82.3962C82.4429 19.396 82.6995 19.9887 83.1662 20.418C83.6422 20.838 84.2162 21.048 84.8882 21.048C85.4389 21.048 85.8962 20.922 86.2602 20.67C86.6335 20.4087 86.8949 20.0633 87.0442 19.634H88.4162C88.2109 20.3713 87.8002 20.9733 87.1842 21.44C86.5682 21.8973 85.8029 22.126 84.8882 22.126C84.1602 22.126 83.5069 21.9627 82.9282 21.636C82.3589 21.3093 81.9109 20.8473 81.5842 20.25C81.2575 19.6433 81.0942 18.9433 81.0942 18.15C81.0942 17.3567 81.2529 16.6613 81.5702 16.064C81.8875 15.4667 82.3309 15.0093 82.9002 14.692C83.4789 14.3653 84.1415 14.202 84.8882 14.202C85.6162 14.202 86.2602 14.3607 86.8202 14.678C87.3802 14.9953 87.8095 15.434 88.1082 15.994C88.4162 16.5447 88.5702 17.17 88.5702 17.87ZM87.2542 17.604C87.2542 17.1187 87.1469 16.7033 86.9322 16.358C86.7175 16.0033 86.4235 15.7373 86.0502 15.56C85.6862 15.3733 85.2802 15.28 84.8322 15.28C84.1882 15.28 83.6375 15.4853 83.1802 15.896C82.7322 16.3067 82.4755 16.876 82.4102 17.604H87.2542ZM100.472 14.328L98.0778 22H96.7618L94.9138 15.91L93.0658 22H91.7498L89.3418 14.328H90.6438L92.4078 20.768L94.3118 14.328H95.6138L97.4758 20.782L99.2118 14.328H100.472ZM104.452 22.126C103.864 22.126 103.337 22.028 102.87 21.832C102.404 21.6267 102.035 21.3467 101.764 20.992C101.494 20.628 101.344 20.2127 101.316 19.746H102.632C102.67 20.1287 102.847 20.4413 103.164 20.684C103.491 20.9267 103.916 21.048 104.438 21.048C104.924 21.048 105.306 20.9407 105.586 20.726C105.866 20.5113 106.006 20.2407 106.006 19.914C106.006 19.578 105.857 19.3307 105.558 19.172C105.26 19.004 104.798 18.8407 104.172 18.682C103.603 18.5327 103.136 18.3833 102.772 18.234C102.418 18.0753 102.11 17.8467 101.848 17.548C101.596 17.24 101.47 16.8387 101.47 16.344C101.47 15.952 101.587 15.5927 101.82 15.266C102.054 14.9393 102.385 14.6827 102.814 14.496C103.244 14.3 103.734 14.202 104.284 14.202C105.134 14.202 105.82 14.4167 106.342 14.846C106.865 15.2753 107.145 15.8633 107.182 16.61H105.908C105.88 16.2087 105.717 15.8867 105.418 15.644C105.129 15.4013 104.737 15.28 104.242 15.28C103.785 15.28 103.421 15.378 103.15 15.574C102.88 15.77 102.744 16.0267 102.744 16.344C102.744 16.596 102.824 16.806 102.982 16.974C103.15 17.1327 103.356 17.2633 103.598 17.366C103.85 17.4593 104.196 17.5667 104.634 17.688C105.185 17.8373 105.633 17.9867 105.978 18.136C106.324 18.276 106.618 18.4907 106.86 18.78C107.112 19.0693 107.243 19.4473 107.252 19.914C107.252 20.334 107.136 20.712 106.902 21.048C106.669 21.384 106.338 21.65 105.908 21.846C105.488 22.0327 105.003 22.126 104.452 22.126Z" fill="black"/>
<g clip-path="url(#clip0_343_2237)">
<path d="M63.9682 31.3076C63.9305 31.1965 63.8611 31.0989 63.7685 31.0268C63.676 30.9548 63.5644 30.9114 63.4474 30.902L60.0268 30.6302L58.5466 27.3536C58.4995 27.2481 58.4228 27.1584 58.3258 27.0955C58.2289 27.0326 58.1158 26.9991 58.0002 26.999C57.8846 26.999 57.7715 27.0323 57.6745 27.0952C57.5774 27.158 57.5007 27.2475 57.4534 27.353L55.9732 30.6302L52.5526 30.902C52.4377 30.9111 52.3278 30.9531 52.2361 31.023C52.1445 31.093 52.0749 31.1878 52.0357 31.2962C51.9965 31.4046 51.9894 31.5221 52.0152 31.6344C52.041 31.7468 52.0987 31.8493 52.1812 31.9298L54.709 34.394L53.815 38.2652C53.7879 38.3824 53.7966 38.505 53.84 38.6172C53.8834 38.7294 53.9595 38.8259 54.0585 38.8943C54.1575 38.9626 54.2747 38.9997 54.395 39.0006C54.5152 39.0015 54.633 38.9663 54.733 38.8994L58 36.7214L61.267 38.8994C61.3692 38.9673 61.4897 39.0022 61.6124 38.9995C61.735 38.9968 61.8539 38.9566 61.9531 38.8844C62.0522 38.8121 62.1268 38.7112 62.1669 38.5952C62.207 38.4793 62.2106 38.3539 62.1772 38.2358L61.0798 34.3958L63.8014 31.9466C63.9796 31.7858 64.045 31.535 63.9682 31.3076Z" fill="black"/>
</g>
<g clip-path="url(#clip1_343_2237)">
<path d="M78.9682 31.3076C78.9305 31.1965 78.8611 31.0989 78.7685 31.0268C78.676 30.9548 78.5644 30.9114 78.4474 30.902L75.0268 30.6302L73.5466 27.3536C73.4995 27.2481 73.4228 27.1584 73.3258 27.0955C73.2289 27.0326 73.1158 26.9991 73.0002 26.999C72.8846 26.999 72.7715 27.0323 72.6745 27.0952C72.5774 27.158 72.5007 27.2475 72.4534 27.353L70.9732 30.6302L67.5526 30.902C67.4377 30.9111 67.3278 30.9531 67.2361 31.023C67.1445 31.093 67.0749 31.1878 67.0357 31.2962C66.9965 31.4046 66.9894 31.5221 67.0152 31.6344C67.041 31.7468 67.0987 31.8493 67.1812 31.9298L69.709 34.394L68.815 38.2652C68.7879 38.3824 68.7966 38.505 68.84 38.6172C68.8834 38.7294 68.9595 38.8259 69.0585 38.8943C69.1575 38.9626 69.2747 38.9997 69.395 39.0006C69.5152 39.0015 69.633 38.9663 69.733 38.8994L73 36.7214L76.267 38.8994C76.3692 38.9673 76.4897 39.0022 76.6124 38.9995C76.735 38.9968 76.8539 38.9566 76.9531 38.8844C77.0522 38.8121 77.1268 38.7112 77.1669 38.5952C77.207 38.4793 77.2106 38.3539 77.1772 38.2358L76.0798 34.3958L78.8014 31.9466C78.9796 31.7858 79.045 31.535 78.9682 31.3076Z" fill="black"/>
</g>
<g clip-path="url(#clip2_343_2237)">
<path d="M93.9682 31.3076C93.9305 31.1965 93.8611 31.0989 93.7685 31.0268C93.676 30.9548 93.5644 30.9114 93.4474 30.902L90.0268 30.6302L88.5466 27.3536C88.4995 27.2481 88.4228 27.1584 88.3258 27.0955C88.2289 27.0326 88.1158 26.9991 88.0002 26.999C87.8846 26.999 87.7715 27.0323 87.6745 27.0952C87.5774 27.158 87.5007 27.2475 87.4534 27.353L85.9732 30.6302L82.5526 30.902C82.4377 30.9111 82.3278 30.9531 82.2361 31.023C82.1445 31.093 82.0749 31.1878 82.0357 31.2962C81.9965 31.4046 81.9894 31.5221 82.0152 31.6344C82.041 31.7468 82.0987 31.8493 82.1812 31.9298L84.709 34.394L83.815 38.2652C83.7879 38.3824 83.7966 38.505 83.84 38.6172C83.8834 38.7294 83.9595 38.8259 84.0585 38.8943C84.1575 38.9626 84.2747 38.9997 84.395 39.0006C84.5152 39.0015 84.633 38.9663 84.733 38.8994L88 36.7214L91.267 38.8994C91.3692 38.9673 91.4897 39.0022 91.6124 38.9995C91.735 38.9968 91.8539 38.9566 91.9531 38.8844C92.0522 38.8121 92.1268 38.7112 92.1669 38.5952C92.207 38.4793 92.2106 38.3539 92.1772 38.2358L91.0798 34.3958L93.8014 31.9466C93.9796 31.7858 94.045 31.535 93.9682 31.3076Z" fill="black"/>
</g>
<g clip-path="url(#clip3_343_2237)">
<path d="M108.968 31.3076C108.931 31.1965 108.861 31.0989 108.769 31.0268C108.676 30.9548 108.564 30.9114 108.447 30.902L105.027 30.6302L103.547 27.3536C103.499 27.2481 103.423 27.1584 103.326 27.0955C103.229 27.0326 103.116 26.9991 103 26.999C102.885 26.999 102.771 27.0323 102.674 27.0952C102.577 27.158 102.501 27.2475 102.453 27.353L100.973 30.6302L97.5526 30.902C97.4377 30.9111 97.3278 30.9531 97.2361 31.023C97.1445 31.093 97.0749 31.1878 97.0357 31.2962C96.9965 31.4046 96.9894 31.5221 97.0152 31.6344C97.041 31.7468 97.0987 31.8493 97.1812 31.9298L99.709 34.394L98.815 38.2652C98.7879 38.3824 98.7966 38.505 98.84 38.6172C98.8834 38.7294 98.9595 38.8259 99.0585 38.8943C99.1575 38.9626 99.2747 38.9997 99.395 39.0006C99.5152 39.0015 99.633 38.9663 99.733 38.8994L103 36.7214L106.267 38.8994C106.369 38.9673 106.49 39.0022 106.612 38.9995C106.735 38.9968 106.854 38.9566 106.953 38.8844C107.052 38.8121 107.127 38.7112 107.167 38.5952C107.207 38.4793 107.211 38.3539 107.177 38.2358L106.08 34.3958L108.801 31.9466C108.98 31.7858 109.045 31.535 108.968 31.3076Z" fill="black"/>
</g>
<g clip-path="url(#clip4_343_2237)">
<path d="M123.968 31.3076C123.931 31.1965 123.861 31.0989 123.769 31.0268C123.676 30.9548 123.564 30.9114 123.447 30.902L120.027 30.6302L118.547 27.3536C118.499 27.2481 118.423 27.1584 118.326 27.0955C118.229 27.0326 118.116 26.9991 118 26.999C117.885 26.999 117.771 27.0323 117.674 27.0952C117.577 27.158 117.501 27.2475 117.453 27.353L115.973 30.6302L112.553 30.902C112.438 30.9111 112.328 30.9531 112.236 31.023C112.144 31.093 112.075 31.1878 112.036 31.2962C111.997 31.4046 111.989 31.5221 112.015 31.6344C112.041 31.7468 112.099 31.8493 112.181 31.9298L114.709 34.394L113.815 38.2652C113.788 38.3824 113.797 38.505 113.84 38.6172C113.883 38.7294 113.96 38.8259 114.058 38.8943C114.157 38.9626 114.275 38.9997 114.395 39.0006C114.515 39.0015 114.633 38.9663 114.733 38.8994L118 36.7214L121.267 38.8994C121.369 38.9673 121.49 39.0022 121.612 38.9995C121.735 38.9968 121.854 38.9566 121.953 38.8844C122.052 38.8121 122.127 38.7112 122.167 38.5952C122.207 38.4793 122.211 38.3539 122.177 38.2358L121.08 34.3958L123.801 31.9466C123.98 31.7858 124.045 31.535 123.968 31.3076Z" fill="black"/>
</g>
<defs>
<clipPath id="clip0_343_2237">
<rect width="12" height="12" fill="white" transform="translate(52 27)"/>
</clipPath>
<clipPath id="clip1_343_2237">
<rect width="12" height="12" fill="white" transform="translate(67 27)"/>
</clipPath>
<clipPath id="clip2_343_2237">
<rect width="12" height="12" fill="white" transform="translate(82 27)"/>
</clipPath>
<clipPath id="clip3_343_2237">
<rect width="12" height="12" fill="white" transform="translate(97 27)"/>
</clipPath>
<clipPath id="clip4_343_2237">
<rect width="12" height="12" fill="white" transform="translate(112 27)"/>
</clipPath>
</defs>
</svg>
