<svg xmlns="http://www.w3.org/2000/svg" fill="none" viewBox="0 0 32 33" height="33" width="32">
<path fill="url(#paint0_linear_5540_20203)" d="M14.6588 20.4901C15.999 19.5979 17.0165 18.298 17.5609 16.7827C18.1052 15.2674 18.1475 13.6171 17.6814 12.076C17.2153 10.5348 16.2656 9.18458 14.9728 8.2249C13.68 7.26522 12.1126 6.74707 10.5025 6.74707C8.89241 6.74707 7.32505 7.26522 6.03222 8.2249C4.73938 9.18458 3.7897 10.5348 3.32362 12.076C2.85753 13.6171 2.89978 15.2674 3.44413 16.7827C3.98847 18.298 5.006 19.5979 6.34625 20.4901C3.92187 21.3837 1.85139 23.0372 0.443753 25.2039C0.369773 25.3138 0.318386 25.4374 0.29258 25.5674C0.266774 25.6974 0.267063 25.8312 0.29343 25.9611C0.319797 26.0909 0.371717 26.2143 0.446172 26.3239C0.520626 26.4335 0.61613 26.5273 0.727132 26.5997C0.838133 26.6721 0.962419 26.7217 1.09276 26.7456C1.22311 26.7696 1.35691 26.7674 1.4864 26.7392C1.61588 26.7109 1.73847 26.6573 1.84703 26.5812C1.95558 26.5052 2.04795 26.4084 2.11875 26.2964C3.02674 24.8998 4.2692 23.7523 5.7333 22.9578C7.1974 22.1634 8.83676 21.7473 10.5025 21.7473C12.1682 21.7473 13.8076 22.1634 15.2717 22.9578C16.7358 23.7523 17.9783 24.8998 18.8863 26.2964C19.0329 26.5144 19.2595 26.6659 19.517 26.7181C19.7745 26.7704 20.0422 26.7192 20.2622 26.5757C20.4823 26.4322 20.637 26.2078 20.693 25.9511C20.749 25.6944 20.7016 25.426 20.5613 25.2039C19.1536 23.0372 17.0831 21.3837 14.6588 20.4901ZM5.0025 14.2501C5.0025 13.1623 5.32507 12.0989 5.92942 11.1945C6.53377 10.29 7.39275 9.58506 8.39774 9.16878C9.40274 8.75249 10.5086 8.64358 11.5755 8.85579C12.6424 9.06801 13.6224 9.59184 14.3916 10.361C15.1608 11.1302 15.6846 12.1102 15.8968 13.1771C16.109 14.244 16.0001 15.3499 15.5838 16.3549C15.1676 17.3599 14.4626 18.2188 13.5581 18.8232C12.6537 19.4275 11.5903 19.7501 10.5025 19.7501C9.04432 19.7485 7.64633 19.1685 6.61524 18.1374C5.58415 17.1063 5.00416 15.7083 5.0025 14.2501ZM31.27 26.5876C31.0479 26.7325 30.7773 26.7831 30.5178 26.7285C30.2583 26.6739 30.0311 26.5185 29.8863 26.2964C28.9794 24.899 27.7371 23.7509 26.2727 22.9568C24.8083 22.1627 23.1684 21.7479 21.5025 21.7501C21.2373 21.7501 20.9829 21.6448 20.7954 21.4572C20.6079 21.2697 20.5025 21.0153 20.5025 20.7501C20.5025 20.4849 20.6079 20.2305 20.7954 20.043C20.9829 19.8555 21.2373 19.7501 21.5025 19.7501C22.3125 19.7493 23.1123 19.5697 23.8447 19.224C24.5772 18.8783 25.2243 18.3751 25.7398 17.7503C26.2552 17.1256 26.6264 16.3947 26.8266 15.6098C27.0268 14.825 27.0513 14.0057 26.8981 13.2103C26.745 12.4149 26.4181 11.6632 25.9408 11.0089C25.4634 10.3545 24.8475 9.81362 24.1369 9.4249C23.4263 9.03619 22.6386 8.80921 21.8302 8.7602C21.0217 8.71118 20.2123 8.84134 19.46 9.14136C19.3373 9.19439 19.2053 9.22229 19.0717 9.22342C18.938 9.22455 18.8055 9.19889 18.682 9.14794C18.5584 9.09699 18.4463 9.0218 18.3523 8.9268C18.2584 8.8318 18.1844 8.71893 18.1347 8.59485C18.0851 8.47077 18.0608 8.338 18.0634 8.20439C18.0659 8.07077 18.0952 7.93903 18.1496 7.81693C18.2039 7.69483 18.2821 7.58486 18.3797 7.49352C18.4772 7.40218 18.5921 7.33131 18.7175 7.28511C20.4393 6.59843 22.3545 6.57372 24.0934 7.21575C25.8324 7.85778 27.272 9.12106 28.1345 10.7619C28.997 12.4027 29.2213 14.3048 28.7641 16.1013C28.3069 17.8977 27.2007 19.4612 25.6588 20.4901C28.0831 21.3837 30.1536 23.0372 31.5613 25.2039C31.7061 25.426 31.7568 25.6966 31.7022 25.9561C31.6476 26.2155 31.4921 26.4427 31.27 26.5876Z"></path>
<defs>
<linearGradient gradientUnits="userSpaceOnUse" y2="16.6793" x2="31.7236" y1="16.6793" x1="0.273437" id="paint0_linear_5540_20203">
<stop stop-color="#F7D379"></stop>
<stop stop-color="#E9BE65" offset="0.130208"></stop>
<stop stop-color="#F5E583" offset="0.234375"></stop>
<stop stop-color="#C89447" offset="0.387985"></stop>
<stop stop-color="#DCAB57" offset="0.4606"></stop>
<stop stop-color="#D6A453" offset="0.546183"></stop>
<stop stop-color="#F7D87B" offset="0.639546"></stop>
<stop stop-color="#A57331" offset="0.735503"></stop>
<stop stop-color="#C18D42" offset="0.834053"></stop>
<stop stop-color="#C08A41" offset="1"></stop>
</linearGradient>
</defs>
</svg>
