<svg xmlns="http://www.w3.org/2000/svg" fill="none" viewBox="0 0 32 32" height="32" width="32">
<path fill="url(#paint0_linear_5532_16208)" d="M27.6372 18.0513C26.8947 15.1634 25.1108 12.652 22.6285 11H30.0035C30.2687 11 30.5231 10.8947 30.7106 10.7071C30.8981 10.5196 31.0035 10.2652 31.0035 10C31.0035 9.73481 30.8981 9.48046 30.7106 9.29292C30.5231 9.10539 30.2687 9.00003 30.0035 9.00003H19.8785C19.6582 8.13962 19.1578 7.37699 18.4562 6.83239C17.7546 6.28779 16.8917 5.99219 16.0035 5.99219C15.1153 5.99219 14.2524 6.28779 13.5508 6.83239C12.8492 7.37699 12.3488 8.13962 12.1285 9.00003H2.00348C1.73826 9.00003 1.48391 9.10539 1.29637 9.29292C1.10884 9.48046 1.00348 9.73481 1.00348 10C1.00348 10.2652 1.10884 10.5196 1.29637 10.7071C1.48391 10.8947 1.73826 11 2.00348 11H9.37848C6.89618 12.652 5.11225 15.1634 4.36973 18.0513C3.40957 18.2045 2.53809 18.7022 1.91823 19.4513C1.29838 20.2004 0.972598 21.1496 1.00181 22.1215C1.03102 23.0933 1.41321 24.0213 2.07694 24.7318C2.74066 25.4424 3.64046 25.8868 4.60809 25.9821C5.57572 26.0773 6.54491 25.8169 7.33446 25.2494C8.124 24.682 8.67982 23.8464 8.898 22.8989C9.11617 21.9514 8.98176 20.9568 8.51989 20.1012C8.05803 19.2456 7.30033 18.5875 6.38848 18.25C6.81783 16.7697 7.58111 15.4076 8.61958 14.2686C9.65804 13.1295 10.944 12.244 12.3785 11.68C12.6994 12.3721 13.2116 12.9579 13.8545 13.3684C14.4975 13.779 15.2444 13.9971 16.0072 13.9971C16.7701 13.9971 17.517 13.779 18.1599 13.3684C18.8029 12.9579 19.315 12.3721 19.636 11.68C21.0691 12.2449 22.3535 13.1309 23.3907 14.2699C24.4278 15.4088 25.1899 16.7704 25.6185 18.25C24.7062 18.5864 23.9477 19.2435 23.4847 20.0986C23.0218 20.9536 22.8861 21.948 23.1031 22.8958C23.3201 23.8436 23.8749 24.6799 24.6638 25.2483C25.4526 25.8167 26.4215 26.0784 27.3893 25.9843C28.357 25.8902 29.2574 25.4469 29.922 24.7371C30.5866 24.0274 30.9699 23.0999 31.0003 22.1281C31.0307 21.1562 30.706 20.2066 30.0871 19.4567C29.4681 18.7069 28.5972 18.2081 27.6372 18.0538V18.0513ZM7.00348 22C7.00348 22.3956 6.88618 22.7823 6.66642 23.1112C6.44666 23.4401 6.1343 23.6964 5.76885 23.8478C5.4034 23.9992 5.00126 24.0388 4.6133 23.9616C4.22534 23.8844 3.86897 23.6939 3.58927 23.4142C3.30956 23.1345 3.11908 22.7782 3.04191 22.3902C2.96474 22.0022 3.00435 21.6001 3.15572 21.2347C3.3071 20.8692 3.56344 20.5569 3.89234 20.3371C4.22124 20.1173 4.60792 20 5.00348 20C5.53391 20 6.04262 20.2107 6.4177 20.5858C6.79277 20.9609 7.00348 21.4696 7.00348 22ZM16.0035 12C15.6079 12 15.2212 11.8827 14.8923 11.663C14.5634 11.4432 14.3071 11.1308 14.1557 10.7654C14.0043 10.3999 13.9647 9.99781 14.0419 9.60985C14.1191 9.22189 14.3096 8.86552 14.5893 8.58582C14.869 8.30611 15.2253 8.11563 15.6133 8.03846C16.0013 7.96129 16.4034 8.0009 16.7688 8.15227C17.1343 8.30365 17.4467 8.55999 17.6664 8.88889C17.8862 9.21779 18.0035 9.60447 18.0035 10C18.0035 10.5305 17.7928 11.0392 17.4177 11.4142C17.0426 11.7893 16.5339 12 16.0035 12ZM27.0035 24C26.6079 24 26.2212 23.8827 25.8923 23.663C25.5634 23.4432 25.3071 23.1308 25.1557 22.7654C25.0043 22.3999 24.9647 21.9978 25.0419 21.6098C25.1191 21.2219 25.3096 20.8655 25.5893 20.5858C25.869 20.3061 26.2253 20.1156 26.6133 20.0385C27.0013 19.9613 27.4034 20.0009 27.7688 20.1523C28.1343 20.3036 28.4467 20.56 28.6664 20.8889C28.8862 21.2178 29.0035 21.6045 29.0035 22C29.0035 22.5305 28.7928 23.0392 28.4177 23.4142C28.0426 23.7893 27.5339 24 27.0035 24Z"></path>
<defs>
<linearGradient gradientUnits="userSpaceOnUse" y2="15.9224" x2="31.0035" y1="15.9224" x1="1" id="paint0_linear_5532_16208">
<stop stop-color="#F7D379"></stop>
<stop stop-color="#E9BE65" offset="0.130208"></stop>
<stop stop-color="#F5E583" offset="0.234375"></stop>
<stop stop-color="#C89447" offset="0.387985"></stop>
<stop stop-color="#DCAB57" offset="0.4606"></stop>
<stop stop-color="#D6A453" offset="0.546183"></stop>
<stop stop-color="#F7D87B" offset="0.639546"></stop>
<stop stop-color="#A57331" offset="0.735503"></stop>
<stop stop-color="#C18D42" offset="0.834053"></stop>
<stop stop-color="#C08A41" offset="1"></stop>
</linearGradient>
</defs>
</svg>
