<svg xmlns="http://www.w3.org/2000/svg" fill="none" viewBox="0 0 32 32" height="32" width="32">
<path fill="white" d="M25.2849 7.47579C25.2849 7.5887 28.3333 28.1936 28.3333 28.1936L21.2769 30V5.55645C21.7285 6.00806 22.914 7.19354 22.914 7.19354C22.914 7.19354 24.8898 7.24998 25.0027 7.24998C25.172 7.24998 25.2849 7.30643 25.2849 7.47579ZM19.6398 5.55645C20.1479 5.38709 20.4865 5.33064 20.4865 5.33064C20.5431 5.27419 20.6559 5.27419 20.7124 5.27419V30L3.66406 27.0645C3.66406 27.0645 5.75276 11.1451 5.80923 10.5806C5.86567 9.84676 5.92212 9.84676 6.71245 9.56449C6.71245 9.56449 7.78503 9.22579 9.36566 8.71773C9.53502 7.53225 10.0995 6.00806 10.8898 4.76612C11.9624 3.01613 13.3173 2.05645 14.6721 2C15.406 2 15.9704 2.22581 16.422 2.73387C16.422 2.79031 16.4785 2.79031 16.5351 2.84678C16.5914 2.84678 16.6479 2.79031 16.7608 2.79031C17.7769 2.79031 18.6801 3.41128 19.2447 4.54031C19.4141 4.87903 19.527 5.21773 19.6398 5.55645ZM16.5351 6.51612C16.5351 5.78225 16.4785 4.65322 16.0834 3.8629C15.6882 4.03225 15.3494 4.31451 15.1237 4.59676C14.4462 5.27419 13.9383 6.34676 13.656 7.41934C14.6156 7.13709 15.6318 6.79837 16.5351 6.51612ZM14.6721 2.95967C12.5834 3.01613 10.777 6.29031 10.2689 8.43547C11.0028 8.20965 11.8495 7.98386 12.6398 7.7016C12.9221 6.34676 13.543 4.87903 14.4462 3.9758C14.785 3.63709 15.1237 3.35484 15.5188 3.12903C15.2366 3.01613 14.9543 2.95967 14.6721 2.95967ZM12.0753 15.3791C12.0189 15.0967 12.0753 14.0242 13.7124 13.9112C14.898 13.8548 15.8576 14.3065 15.8576 14.3065L16.7044 11.0322C16.7044 11.0322 15.9704 10.6935 14.5027 10.75C10.7205 11.0322 8.97051 13.6855 9.13986 16.2823C9.36566 19.3871 12.4705 19.2742 12.5834 21.1935C12.6398 21.6451 12.3011 22.3225 11.5108 22.3225C10.3253 22.4355 8.80115 21.3064 8.80115 21.3064L8.23664 23.7903C8.23664 23.7903 9.70437 25.3709 12.4705 25.2015C14.785 25.0886 16.3657 23.2257 16.1963 20.5725C15.9704 17.129 12.1318 16.8468 12.0753 15.3791ZM17.4383 6.23386C17.9463 6.12095 18.3979 5.9516 18.7931 5.8387C18.5672 5.16128 18.0591 3.97581 17.043 3.80645C17.3253 4.59676 17.4383 5.55645 17.4383 6.23386Z"></path>
</svg>
