<svg xmlns="http://www.w3.org/2000/svg" fill="none" viewBox="0 0 32 32" height="32" width="32">
<path fill="url(#paint0_linear_4477_25855)" d="M14.2921 19.2924L26.2921 7.29236C26.385 7.19945 26.4953 7.12575 26.6167 7.07547C26.7381 7.02519 26.8682 6.99931 26.9996 6.99931C27.131 6.99931 27.2611 7.02519 27.3825 7.07547C27.5039 7.12575 27.6142 7.19945 27.7071 7.29236C27.8 7.38527 27.8737 7.49557 27.924 7.61697C27.9743 7.73836 28.0001 7.86847 28.0001 7.99986C28.0001 8.13126 27.9743 8.26137 27.924 8.38276C27.8737 8.50415 27.8 8.61445 27.7071 8.70736L15.7071 20.7074C15.6142 20.8003 15.5039 20.874 15.3825 20.9243C15.2611 20.9745 15.131 21.0004 14.9996 21.0004C14.8682 21.0004 14.7381 20.9745 14.6167 20.9243C14.4953 20.874 14.385 20.8003 14.2921 20.7074C14.1992 20.6145 14.1255 20.5042 14.0752 20.3828C14.0249 20.2614 13.999 20.1313 13.999 19.9999C13.999 19.8685 14.0249 19.7384 14.0752 19.617C14.1255 19.4956 14.1992 19.3853 14.2921 19.2924ZM15.9996 10.9999C16.8682 10.9988 17.7312 11.1394 18.5546 11.4161C18.6796 11.4604 18.8122 11.4794 18.9446 11.472C19.077 11.4646 19.2067 11.4309 19.3259 11.373C19.4452 11.315 19.5518 11.2338 19.6394 11.1343C19.727 11.0347 19.794 10.9187 19.8364 10.793C19.8787 10.6673 19.8957 10.5345 19.8862 10.4022C19.8767 10.2699 19.841 10.1408 19.7812 10.0224C19.7213 9.90405 19.6385 9.79877 19.5376 9.7127C19.4367 9.62664 19.3197 9.56151 19.1933 9.52111C17.5997 8.98387 15.8964 8.8572 14.2409 9.15283C12.5853 9.44845 11.0311 10.1568 9.72191 11.2124C8.41274 12.268 7.39093 13.6367 6.751 15.1919C6.11108 16.7471 5.8737 18.4386 6.06083 20.1099C6.08788 20.3543 6.20406 20.5802 6.38715 20.7444C6.57024 20.9086 6.80741 20.9995 7.05333 20.9999C7.08958 20.9999 7.12708 20.9999 7.16458 20.9936C7.42812 20.9644 7.66927 20.8317 7.83499 20.6247C8.00072 20.4177 8.07746 20.1534 8.04833 19.8899C8.01579 19.5943 7.99951 19.2972 7.99958 18.9999C8.0019 16.8788 8.8455 14.8454 10.3453 13.3456C11.8451 11.8458 13.8786 11.0022 15.9996 10.9999ZM28.4671 12.6249C28.4072 12.508 28.3248 12.4041 28.2247 12.319C28.1247 12.234 28.0088 12.1694 27.8838 12.1292C27.7588 12.0889 27.6271 12.0736 27.4961 12.0843C27.3652 12.0949 27.2377 12.1312 27.1208 12.1911C27.004 12.251 26.9 12.3334 26.815 12.4335C26.7299 12.5335 26.6654 12.6494 26.6251 12.7744C26.5849 12.8994 26.5696 13.0311 26.5802 13.162C26.5909 13.293 26.6272 13.4205 26.6871 13.5374C27.4269 14.9902 27.8638 16.5782 27.9712 18.2051C28.0787 19.8319 27.8544 21.4636 27.3121 23.0011L4.67458 22.9924C4.04299 21.1819 3.85332 19.2467 4.12138 17.348C4.38943 15.4494 5.10746 13.6423 6.21559 12.0775C7.32373 10.5127 8.78986 9.23537 10.4918 8.35212C12.1937 7.46886 14.0821 7.00523 15.9996 6.99986H16.1096C17.972 7.01157 19.8055 7.46118 21.4621 8.31236C21.5793 8.37686 21.7082 8.41719 21.8413 8.43096C21.9743 8.44474 22.1088 8.43167 22.2367 8.39254C22.3647 8.35342 22.4834 8.28902 22.586 8.20317C22.6886 8.11731 22.7729 8.01175 22.834 7.89272C22.8951 7.7737 22.9316 7.64363 22.9415 7.51023C22.9514 7.37682 22.9344 7.24278 22.8916 7.11605C22.8487 6.98933 22.7809 6.87248 22.6921 6.77244C22.6033 6.67239 22.4953 6.59118 22.3746 6.53361C19.8808 5.25627 17.0611 4.75659 14.2802 5.09922C11.4993 5.44185 8.88524 6.61102 6.77608 8.4555C4.66691 10.3 3.15972 12.7349 2.44946 15.4453C1.7392 18.1556 1.85856 21.0168 2.79208 23.6586C2.92998 24.05 3.18572 24.3891 3.52415 24.6293C3.86258 24.8695 4.26709 24.9989 4.68208 24.9999H27.3158C27.7306 25.0001 28.1352 24.8714 28.4736 24.6316C28.812 24.3917 29.0674 24.0526 29.2046 23.6611C29.8353 21.8672 30.0951 19.964 29.9684 18.0667C29.8416 16.1694 29.3308 14.3176 28.4671 12.6236V12.6249Z"></path>
<defs>
<linearGradient gradientUnits="userSpaceOnUse" y2="14.9218" x2="29.9996" y1="14.9218" x1="1.99219" id="paint0_linear_4477_25855">
<stop stop-color="#F7D379"></stop>
<stop stop-color="#E9BE65" offset="0.130208"></stop>
<stop stop-color="#F5E583" offset="0.234375"></stop>
<stop stop-color="#C89447" offset="0.387985"></stop>
<stop stop-color="#DCAB57" offset="0.4606"></stop>
<stop stop-color="#D6A453" offset="0.546183"></stop>
<stop stop-color="#F7D87B" offset="0.639546"></stop>
<stop stop-color="#A57331" offset="0.735503"></stop>
<stop stop-color="#C18D42" offset="0.834053"></stop>
<stop stop-color="#C08A41" offset="1"></stop>
</linearGradient>
</defs>
</svg>
