<svg xmlns="http://www.w3.org/2000/svg" fill="none" viewBox="0 0 23 26" height="26" width="23">
<path fill="black" d="M19.249 5.17394C19.2887 5.21088 19.3149 5.26007 19.3234 5.31365C19.3405 5.43991 22.0626 23.8416 22.0626 23.8416L15.3917 25.5L0 22.8375C0 22.8375 1.83667 8.63616 1.90501 8.13616C1.99667 7.47408 2.01876 7.45283 2.72084 7.23241L5.1046 6.49366C5.25335 5.43032 5.77668 4.05698 6.46502 2.96365C7.44294 1.41031 8.64919 0.535724 9.86003 0.501141C10.4875 0.482391 11.0117 0.694891 11.42 1.13239C11.449 1.16425 11.4772 1.19676 11.5046 1.22989C11.5131 1.22919 11.5215 1.22848 11.5299 1.22776C11.5867 1.22296 11.6426 1.21823 11.6992 1.21823H11.703C12.6405 1.21989 13.4171 1.75448 13.9463 2.76573C14.0921 3.04735 14.212 3.34161 14.3046 3.6449C14.4351 3.60451 14.5508 3.56871 14.6498 3.53806C14.9063 3.45868 15.0512 3.41383 15.0521 3.41323C15.1638 3.3799 15.4509 3.33573 15.598 3.48282C15.745 3.62948 17.2334 5.07532 17.2334 5.07532C17.2334 5.07532 19.0134 5.1024 19.1042 5.1099C19.1583 5.11446 19.2093 5.13701 19.249 5.17394ZM12.3392 4.25324L13.5334 3.88365C13.3425 3.26365 12.8905 2.22406 11.9717 2.0499C12.2575 2.78698 12.33 3.64032 12.3392 4.25324ZM8.96419 5.29865L11.5338 4.50282V4.50324C11.5421 3.83365 11.4696 2.84406 11.1346 2.1449C10.778 2.29198 10.4771 2.54906 10.2621 2.78031C9.68336 3.40073 9.21253 4.34782 8.96419 5.29865ZM10.6121 1.49781C10.4075 1.36323 10.1684 1.30073 9.88378 1.30698C8.01461 1.36114 6.38377 4.28032 5.9671 6.22574C6.4463 6.0779 6.95534 5.92019 7.47877 5.75801C7.67671 5.69668 7.87672 5.63472 8.07794 5.57241C8.31294 4.33657 8.90253 3.05531 9.6717 2.23031C9.96836 1.91198 10.2846 1.66781 10.6121 1.49781ZM10.9207 11.442L11.6958 8.54364C11.6958 8.54364 11.0278 8.21072 9.72241 8.29489C6.33407 8.50822 4.79865 10.8778 4.94657 13.2157C5.04511 14.7765 5.96466 15.4291 6.77062 16.001C7.39938 16.4472 7.95899 16.8443 8.00574 17.5853C8.03157 17.9937 7.77741 18.5716 7.06699 18.6166C5.97949 18.6853 4.62115 17.6603 4.62115 17.6603L4.10156 19.8699C4.10156 19.8699 5.45115 21.3158 7.90324 21.1616C9.94575 21.0324 11.3633 19.3983 11.2128 17.0095C11.0969 15.1728 9.80368 14.3435 8.7816 13.6881C8.1138 13.2599 7.56176 12.9059 7.52949 12.3937C7.51407 12.1557 7.52991 11.2086 9.03241 11.1132C10.0566 11.0491 10.9207 11.442 10.9207 11.442Z" clip-rule="evenodd" fill-rule="evenodd" id="Subtract"></path>
</svg>
