<svg width="122" height="46" viewBox="0 0 122 46" fill="none" xmlns="http://www.w3.org/2000/svg">
<g clip-path="url(#clip0_343_2289)">
<path d="M35.6694 5.36191C35.6609 5.30823 35.6346 5.25896 35.5948 5.22196C35.555 5.18496 35.504 5.16237 35.4498 5.15781C35.3588 5.1503 33.5758 5.12317 33.5758 5.12317C33.5758 5.12317 32.0849 3.67486 31.9376 3.52794C31.7902 3.38061 31.5027 3.42485 31.3908 3.45824C31.3895 3.45908 31.1112 3.54506 30.642 3.6903C30.5493 3.3865 30.4291 3.09173 30.2831 2.80964C29.753 1.79666 28.975 1.26116 28.0359 1.25949H28.0322C27.967 1.25949 27.9028 1.26575 27.8372 1.27118C27.8097 1.23799 27.7815 1.20543 27.7525 1.17351C27.3435 0.735263 26.8184 0.5224 26.1898 0.541182C24.9769 0.575824 23.7686 1.4519 22.789 3.00789C22.0995 4.10309 21.5753 5.47877 21.4263 6.54392L19.0385 7.28394C18.3352 7.50473 18.3131 7.52602 18.2212 8.18923C18.1528 8.69009 16.313 22.9156 16.313 22.9156L31.731 25.5827L38.4132 23.9215C38.4132 23.9215 35.6865 5.48837 35.6694 5.36191ZM29.8695 3.92946L28.6732 4.29968C28.6641 3.68571 28.5914 2.83092 28.3051 2.09258C29.2254 2.26704 29.6783 3.3084 29.8695 3.92946ZM27.8665 4.54969L25.2925 5.34688C25.5412 4.39442 26.0129 3.44572 26.5926 2.82424C26.808 2.5926 27.1093 2.33508 27.4666 2.18774C27.8022 2.8881 27.8748 3.87938 27.8665 4.55011V4.54969ZM26.2136 1.34839C26.4987 1.34213 26.7383 1.40474 26.9432 1.53955C26.6152 1.70984 26.2984 1.95443 26.0012 2.2733C25.2307 3.09971 24.6401 4.38315 24.4047 5.6211C23.6701 5.84857 22.9518 6.07145 22.2903 6.27555C22.7077 4.32681 24.3413 1.40265 26.2136 1.34839Z" fill="black"/>
<path d="M35.4503 5.15862C35.3593 5.15069 33.5767 5.12356 33.5767 5.12356C33.5767 5.12356 32.0858 3.67567 31.9385 3.52876C31.8814 3.47572 31.8089 3.44237 31.7314 3.43359L31.7319 25.5818L38.4137 23.9215C38.4137 23.9215 35.6874 5.48918 35.6698 5.36272C35.6614 5.309 35.6351 5.25967 35.5953 5.2226C35.5555 5.18553 35.5045 5.16286 35.4503 5.1582V5.15862Z" fill="black"/>
<path d="M28.0276 8.59389L27.2512 11.4972C27.2512 11.4972 26.3856 11.1036 25.3597 11.1679C23.8546 11.2634 23.8387 12.2121 23.8542 12.4505C23.936 13.7489 27.3518 14.0323 27.5438 17.0742C27.6945 19.467 26.2746 21.104 24.2286 21.2334C21.7723 21.3878 20.4204 19.9395 20.4204 19.9395L20.9409 17.7261C20.9409 17.7261 22.3015 18.7529 23.3909 18.684C24.1025 18.6389 24.3571 18.06 24.3313 17.651C24.2244 15.9573 21.4426 16.057 21.2669 13.274C21.1187 10.932 22.6567 8.55841 26.0509 8.34472C27.3585 8.26041 28.0276 8.59389 28.0276 8.59389Z" fill="white"/>
<path d="M47.2128 14.6744C46.4448 14.257 46.0495 13.906 46.0495 13.4226C46.0495 12.8083 46.598 12.4134 47.4548 12.4134C48.452 12.4134 49.3422 12.8304 49.3422 12.8304L50.0443 10.6788C50.0443 10.6788 49.3986 10.1738 47.4983 10.1738C44.8533 10.1738 43.0202 11.6884 43.0202 13.8175C43.0202 15.025 43.8758 15.9469 45.0182 16.6052C45.9402 17.1315 46.2695 17.505 46.2695 18.0535C46.2695 18.624 45.8083 19.0852 44.9527 19.0852C43.6771 19.0852 42.4726 18.4266 42.4726 18.4266L41.7263 20.5778C41.7263 20.5778 42.8391 21.324 44.7114 21.324C47.4331 21.324 49.3869 19.9851 49.3869 17.5706C49.3861 16.2767 48.399 15.3543 47.2128 14.6739V14.6744ZM58.0567 10.1525C56.7177 10.1525 55.6638 10.789 54.852 11.7544L54.8082 11.7323L55.9715 5.6523H52.9421L50.0009 21.127H53.0302L54.0402 15.8372C54.4351 13.8392 55.4668 12.6108 56.4327 12.6108C57.113 12.6108 57.3768 13.0716 57.3768 13.7302C57.3768 14.1476 57.3329 14.6527 57.2453 15.0692L56.1042 21.1275H59.1335L60.3185 14.8718C60.4504 14.2127 60.5384 13.4235 60.5384 12.8959C60.5372 11.1834 59.6373 10.1521 58.0571 10.1521L58.0567 10.1525ZM67.3851 10.1525C63.741 10.1525 61.3273 13.4448 61.3273 17.1102C61.3273 19.4588 62.7756 21.3462 65.4977 21.3462C69.0755 21.3462 71.49 18.1419 71.49 14.3885C71.49 12.2156 70.2166 10.1521 67.3851 10.1521V10.1525ZM65.8926 19.0205C64.8608 19.0205 64.4217 18.1424 64.4217 17.0447C64.4217 15.3109 65.322 12.4794 66.9681 12.4794C68.0437 12.4794 68.3943 13.4018 68.3943 14.3012C68.3943 16.1669 67.4953 19.0205 65.8926 19.0205ZM79.2382 10.1525C77.1935 10.1525 76.0332 11.9522 76.0332 11.9522H75.9898L76.1655 10.3282H73.4876C73.3561 11.4259 73.114 13.0933 72.8732 14.3446L70.7659 25.429H73.7952L74.6287 20.9513H74.6951C74.6951 20.9513 75.3166 21.3462 76.4731 21.3462C80.0288 21.3462 82.3552 17.7029 82.3552 14.0149C82.3552 11.9743 81.4549 10.1525 79.2382 10.1525ZM76.3408 19.0635C75.5545 19.0635 75.0891 18.6249 75.0891 18.6249L75.5941 15.7934C75.9455 13.906 76.9331 12.6547 77.9869 12.6547C78.9089 12.6547 79.194 13.5103 79.194 14.3229C79.194 16.2763 78.0308 19.0639 76.3408 19.0639V19.0635ZM86.6793 5.80631C85.7139 5.80631 84.9455 6.57429 84.9455 7.56181C84.9455 8.46209 85.516 9.07689 86.3721 9.07689H86.4159C87.36 9.07689 88.1718 8.43997 88.1939 7.32098C88.1939 6.44282 87.6013 5.8059 86.6793 5.8059V5.80631ZM82.4433 21.127H85.4718L87.5357 10.3941H84.4843L82.4433 21.127ZM95.2401 10.372H93.1328L93.2421 9.86699C93.4179 8.83523 94.0327 7.91366 95.0423 7.91366C95.3701 7.9144 95.6958 7.96622 96.0077 8.06725L96.6004 5.69654C96.6004 5.69654 96.0736 5.43359 94.9538 5.43359C93.8782 5.43359 92.8035 5.74078 91.9908 6.44282C90.9591 7.32098 90.4762 8.59357 90.2349 9.86699L90.1477 10.372H88.7424L88.3033 12.6551H89.7086L88.1063 21.1279H91.1356L92.7379 12.6551H94.8232L95.2401 10.372ZM102.527 10.3946C102.527 10.3946 100.634 15.1652 99.7833 17.7692H99.7391C99.6815 16.9303 98.9928 10.3941 98.9928 10.3941H95.8099L97.6325 20.2489C97.6768 20.4684 97.6547 20.6007 97.5666 20.7539C97.2147 21.4342 96.6225 22.0933 95.92 22.5762C95.3495 22.9931 94.713 23.2565 94.2084 23.4318L95.0423 26.0004C95.6571 25.8689 96.9297 25.3634 98.0053 24.3542C99.3885 23.0591 100.661 21.0615 101.978 18.3398L105.688 10.3933H102.527V10.3946Z" fill="black"/>
</g>
<path d="M0.602 36.114C0.602 35.162 0.816667 34.308 1.246 33.552C1.67533 32.7867 2.25867 32.1893 2.996 31.76C3.74267 31.3307 4.56867 31.116 5.474 31.116C6.538 31.116 7.46667 31.3727 8.26 31.886C9.05333 32.3993 9.632 33.1273 9.996 34.07H8.47C8.19933 33.482 7.80733 33.0293 7.294 32.712C6.79 32.3947 6.18333 32.236 5.474 32.236C4.79267 32.236 4.18133 32.3947 3.64 32.712C3.09867 33.0293 2.674 33.482 2.366 34.07C2.058 34.6487 1.904 35.33 1.904 36.114C1.904 36.8887 2.058 37.57 2.366 38.158C2.674 38.7367 3.09867 39.1847 3.64 39.502C4.18133 39.8193 4.79267 39.978 5.474 39.978C6.18333 39.978 6.79 39.824 7.294 39.516C7.80733 39.1987 8.19933 38.746 8.47 38.158H9.996C9.632 39.0913 9.05333 39.8147 8.26 40.328C7.46667 40.832 6.538 41.084 5.474 41.084C4.56867 41.084 3.74267 40.874 2.996 40.454C2.25867 40.0247 1.67533 39.432 1.246 38.676C0.816667 37.92 0.602 37.066 0.602 36.114ZM18.8925 36.87C18.8925 37.1127 18.8785 37.3693 18.8505 37.64H12.7185C12.7651 38.396 13.0218 38.9887 13.4885 39.418C13.9645 39.838 14.5385 40.048 15.2105 40.048C15.7611 40.048 16.2185 39.922 16.5825 39.67C16.9558 39.4087 17.2171 39.0633 17.3665 38.634H18.7385C18.5331 39.3713 18.1225 39.9733 17.5065 40.44C16.8905 40.8973 16.1251 41.126 15.2105 41.126C14.4825 41.126 13.8291 40.9627 13.2505 40.636C12.6811 40.3093 12.2331 39.8473 11.9065 39.25C11.5798 38.6433 11.4165 37.9433 11.4165 37.15C11.4165 36.3567 11.5751 35.6613 11.8925 35.064C12.2098 34.4667 12.6531 34.0093 13.2225 33.692C13.8011 33.3653 14.4638 33.202 15.2105 33.202C15.9385 33.202 16.5825 33.3607 17.1425 33.678C17.7025 33.9953 18.1318 34.434 18.4305 34.994C18.7385 35.5447 18.8925 36.17 18.8925 36.87ZM17.5765 36.604C17.5765 36.1187 17.4691 35.7033 17.2545 35.358C17.0398 35.0033 16.7458 34.7373 16.3725 34.56C16.0085 34.3733 15.6025 34.28 15.1545 34.28C14.5105 34.28 13.9598 34.4853 13.5025 34.896C13.0545 35.3067 12.7978 35.876 12.7325 36.604H17.5765ZM21.8481 34.574C22.0721 34.1353 22.3894 33.7947 22.8001 33.552C23.2201 33.3093 23.7288 33.188 24.3261 33.188V34.504H23.9901C22.5621 34.504 21.8481 35.2787 21.8481 36.828V41H20.5741V33.328H21.8481V34.574ZM27.3508 34.378V38.9C27.3508 39.2733 27.4301 39.5393 27.5888 39.698C27.7474 39.8473 28.0228 39.922 28.4147 39.922H29.3528V41H28.2048C27.4954 41 26.9634 40.8367 26.6088 40.51C26.2541 40.1833 26.0768 39.6467 26.0768 38.9V34.378H25.0828V33.328H26.0768V31.396H27.3508V33.328H29.3528V34.378H27.3508ZM31.5544 32.082C31.3117 32.082 31.1064 31.998 30.9384 31.83C30.7704 31.662 30.6864 31.4567 30.6864 31.214C30.6864 30.9713 30.7704 30.766 30.9384 30.598C31.1064 30.43 31.3117 30.346 31.5544 30.346C31.7877 30.346 31.9837 30.43 32.1424 30.598C32.3104 30.766 32.3944 30.9713 32.3944 31.214C32.3944 31.4567 32.3104 31.662 32.1424 31.83C31.9837 31.998 31.7877 32.082 31.5544 32.082ZM32.1704 33.328V41H30.8964V33.328H32.1704ZM37.4637 34.378H35.8537V41H34.5797V34.378H33.5857V33.328H34.5797V32.782C34.5797 31.9233 34.799 31.298 35.2377 30.906C35.6857 30.5047 36.3997 30.304 37.3797 30.304V31.368C36.8197 31.368 36.423 31.48 36.1897 31.704C35.9657 31.9187 35.8537 32.278 35.8537 32.782V33.328H37.4637V34.378ZM39.6071 32.082C39.3644 32.082 39.1591 31.998 38.9911 31.83C38.8231 31.662 38.7391 31.4567 38.7391 31.214C38.7391 30.9713 38.8231 30.766 38.9911 30.598C39.1591 30.43 39.3644 30.346 39.6071 30.346C39.8404 30.346 40.0364 30.43 40.1951 30.598C40.3631 30.766 40.4471 30.9713 40.4471 31.214C40.4471 31.4567 40.3631 31.662 40.1951 31.83C40.0364 31.998 39.8404 32.082 39.6071 32.082ZM40.2231 33.328V41H38.9491V33.328H40.2231ZM49.3944 36.87C49.3944 37.1127 49.3804 37.3693 49.3524 37.64H43.2204C43.2671 38.396 43.5237 38.9887 43.9904 39.418C44.4664 39.838 45.0404 40.048 45.7124 40.048C46.2631 40.048 46.7204 39.922 47.0844 39.67C47.4577 39.4087 47.7191 39.0633 47.8684 38.634H49.2404C49.0351 39.3713 48.6244 39.9733 48.0084 40.44C47.3924 40.8973 46.6271 41.126 45.7124 41.126C44.9844 41.126 44.3311 40.9627 43.7524 40.636C43.1831 40.3093 42.7351 39.8473 42.4084 39.25C42.0817 38.6433 41.9184 37.9433 41.9184 37.15C41.9184 36.3567 42.0771 35.6613 42.3944 35.064C42.7117 34.4667 43.1551 34.0093 43.7244 33.692C44.3031 33.3653 44.9657 33.202 45.7124 33.202C46.4404 33.202 47.0844 33.3607 47.6444 33.678C48.2044 33.9953 48.6337 34.434 48.9324 34.994C49.2404 35.5447 49.3944 36.17 49.3944 36.87ZM48.0784 36.604C48.0784 36.1187 47.9711 35.7033 47.7564 35.358C47.5417 35.0033 47.2477 34.7373 46.8744 34.56C46.5104 34.3733 46.1044 34.28 45.6564 34.28C45.0124 34.28 44.4617 34.4853 44.0044 34.896C43.5564 35.3067 43.2997 35.876 43.2344 36.604H48.0784ZM50.6 37.136C50.6 36.352 50.7587 35.666 51.076 35.078C51.3934 34.4807 51.8274 34.0187 52.378 33.692C52.938 33.3653 53.5634 33.202 54.254 33.202C54.8514 33.202 55.4067 33.342 55.92 33.622C56.4334 33.8927 56.8254 34.252 57.096 34.7V30.64H58.384V41H57.096V39.558C56.844 40.0153 56.4707 40.3933 55.976 40.692C55.4814 40.9813 54.9027 41.126 54.24 41.126C53.5587 41.126 52.938 40.958 52.378 40.622C51.8274 40.286 51.3934 39.8147 51.076 39.208C50.7587 38.6013 50.6 37.9107 50.6 37.136ZM57.096 37.15C57.096 36.5713 56.9794 36.0673 56.746 35.638C56.5127 35.2087 56.1954 34.882 55.794 34.658C55.402 34.4247 54.968 34.308 54.492 34.308C54.016 34.308 53.582 34.42 53.19 34.644C52.798 34.868 52.4854 35.1947 52.252 35.624C52.0187 36.0533 51.902 36.5573 51.902 37.136C51.902 37.724 52.0187 38.2373 52.252 38.676C52.4854 39.1053 52.798 39.4367 53.19 39.67C53.582 39.894 54.016 40.006 54.492 40.006C54.968 40.006 55.402 39.894 55.794 39.67C56.1954 39.4367 56.5127 39.1053 56.746 38.676C56.9794 38.2373 57.096 37.7287 57.096 37.15ZM70.7934 34.098C70.7934 34.91 70.5134 35.5867 69.9534 36.128C69.4027 36.66 68.5581 36.926 67.4194 36.926H65.5434V41H64.2694V31.242H67.4194C68.5207 31.242 69.3561 31.508 69.9254 32.04C70.5041 32.572 70.7934 33.258 70.7934 34.098ZM67.4194 35.876C68.1287 35.876 68.6514 35.722 68.9874 35.414C69.3234 35.106 69.4914 34.6673 69.4914 34.098C69.4914 32.894 68.8007 32.292 67.4194 32.292H65.5434V35.876H67.4194ZM71.9008 37.136C71.9008 36.352 72.0595 35.666 72.3768 35.078C72.6942 34.4807 73.1282 34.0187 73.6788 33.692C74.2388 33.3653 74.8595 33.202 75.5408 33.202C76.2128 33.202 76.7962 33.3467 77.2908 33.636C77.7855 33.9253 78.1542 34.2893 78.3968 34.728V33.328H79.6848V41H78.3968V39.572C78.1448 40.02 77.7668 40.3933 77.2628 40.692C76.7682 40.9813 76.1895 41.126 75.5268 41.126C74.8455 41.126 74.2295 40.958 73.6788 40.622C73.1282 40.286 72.6942 39.8147 72.3768 39.208C72.0595 38.6013 71.9008 37.9107 71.9008 37.136ZM78.3968 37.15C78.3968 36.5713 78.2802 36.0673 78.0468 35.638C77.8135 35.2087 77.4962 34.882 77.0948 34.658C76.7028 34.4247 76.2688 34.308 75.7928 34.308C75.3168 34.308 74.8828 34.42 74.4908 34.644C74.0988 34.868 73.7862 35.1947 73.5528 35.624C73.3195 36.0533 73.2028 36.5573 73.2028 37.136C73.2028 37.724 73.3195 38.2373 73.5528 38.676C73.7862 39.1053 74.0988 39.4367 74.4908 39.67C74.8828 39.894 75.3168 40.006 75.7928 40.006C76.2688 40.006 76.7028 39.894 77.0948 39.67C77.4962 39.4367 77.8135 39.1053 78.0468 38.676C78.2802 38.2373 78.3968 37.7287 78.3968 37.15ZM83.1118 34.574C83.3358 34.1353 83.6531 33.7947 84.0638 33.552C84.4838 33.3093 84.9924 33.188 85.5898 33.188V34.504H85.2538C83.8258 34.504 83.1118 35.2787 83.1118 36.828V41H81.8378V33.328H83.1118V34.574ZM88.6144 34.378V38.9C88.6144 39.2733 88.6938 39.5393 88.8524 39.698C89.0111 39.8473 89.2864 39.922 89.6784 39.922H90.6164V41H89.4684C88.7591 41 88.2271 40.8367 87.8724 40.51C87.5178 40.1833 87.3404 39.6467 87.3404 38.9V34.378H86.3464V33.328H87.3404V31.396H88.6144V33.328H90.6164V34.378H88.6144ZM95.898 33.188C96.8314 33.188 97.5874 33.4727 98.166 34.042C98.7447 34.602 99.034 35.414 99.034 36.478V41H97.774V36.66C97.774 35.8947 97.5827 35.3113 97.2 34.91C96.8174 34.4993 96.2947 34.294 95.632 34.294C94.96 34.294 94.4234 34.504 94.022 34.924C93.63 35.344 93.434 35.9553 93.434 36.758V41H92.16V33.328H93.434V34.42C93.686 34.028 94.0267 33.7247 94.456 33.51C94.8947 33.2953 95.3754 33.188 95.898 33.188ZM108.115 36.87C108.115 37.1127 108.101 37.3693 108.073 37.64H101.941C101.988 38.396 102.244 38.9887 102.711 39.418C103.187 39.838 103.761 40.048 104.433 40.048C104.984 40.048 105.441 39.922 105.805 39.67C106.178 39.4087 106.44 39.0633 106.589 38.634H107.961C107.756 39.3713 107.345 39.9733 106.729 40.44C106.113 40.8973 105.348 41.126 104.433 41.126C103.705 41.126 103.052 40.9627 102.473 40.636C101.904 40.3093 101.456 39.8473 101.129 39.25C100.802 38.6433 100.639 37.9433 100.639 37.15C100.639 36.3567 100.798 35.6613 101.115 35.064C101.432 34.4667 101.876 34.0093 102.445 33.692C103.024 33.3653 103.686 33.202 104.433 33.202C105.161 33.202 105.805 33.3607 106.365 33.678C106.925 33.9953 107.354 34.434 107.653 34.994C107.961 35.5447 108.115 36.17 108.115 36.87ZM106.799 36.604C106.799 36.1187 106.692 35.7033 106.477 35.358C106.262 35.0033 105.968 34.7373 105.595 34.56C105.231 34.3733 104.825 34.28 104.377 34.28C103.733 34.28 103.182 34.4853 102.725 34.896C102.277 35.3067 102.02 35.876 101.955 36.604H106.799ZM111.071 34.574C111.295 34.1353 111.612 33.7947 112.023 33.552C112.443 33.3093 112.951 33.188 113.549 33.188V34.504H113.213C111.785 34.504 111.071 35.2787 111.071 36.828V41H109.797V33.328H111.071V34.574ZM117.735 41.126C117.147 41.126 116.62 41.028 116.153 40.832C115.687 40.6267 115.318 40.3467 115.047 39.992C114.777 39.628 114.627 39.2127 114.599 38.746H115.915C115.953 39.1287 116.13 39.4413 116.447 39.684C116.774 39.9267 117.199 40.048 117.721 40.048C118.207 40.048 118.589 39.9407 118.869 39.726C119.149 39.5113 119.289 39.2407 119.289 38.914C119.289 38.578 119.14 38.3307 118.841 38.172C118.543 38.004 118.081 37.8407 117.455 37.682C116.886 37.5327 116.419 37.3833 116.055 37.234C115.701 37.0753 115.393 36.8467 115.131 36.548C114.879 36.24 114.753 35.8387 114.753 35.344C114.753 34.952 114.87 34.5927 115.103 34.266C115.337 33.9393 115.668 33.6827 116.097 33.496C116.527 33.3 117.017 33.202 117.567 33.202C118.417 33.202 119.103 33.4167 119.625 33.846C120.148 34.2753 120.428 34.8633 120.465 35.61H119.191C119.163 35.2087 119 34.8867 118.701 34.644C118.412 34.4013 118.02 34.28 117.525 34.28C117.068 34.28 116.704 34.378 116.433 34.574C116.163 34.77 116.027 35.0267 116.027 35.344C116.027 35.596 116.107 35.806 116.265 35.974C116.433 36.1327 116.639 36.2633 116.881 36.366C117.133 36.4593 117.479 36.5667 117.917 36.688C118.468 36.8373 118.916 36.9867 119.261 37.136C119.607 37.276 119.901 37.4907 120.143 37.78C120.395 38.0693 120.526 38.4473 120.535 38.914C120.535 39.334 120.419 39.712 120.185 40.048C119.952 40.384 119.621 40.65 119.191 40.846C118.771 41.0327 118.286 41.126 117.735 41.126Z" fill="black"/>
<defs>
<clipPath id="clip0_343_2289">
<rect width="91.6784" height="26" fill="white" transform="translate(15.1609)"/>
</clipPath>
</defs>
</svg>
