<svg xmlns="http://www.w3.org/2000/svg" fill="none" viewBox="0 0 198 56" height="56" width="198">
<g clip-path="url(#clip0_28636_4336)">
<path fill="black" d="M68.8186 31.0929C67.1272 30.1768 66.2595 29.4016 66.2595 28.3401C66.2595 26.9878 67.4664 26.1201 69.3515 26.1201C71.545 26.1201 73.5051 27.0363 73.5051 27.0363L75.0511 22.3058C75.0511 22.3058 73.6284 21.1958 69.4528 21.1958C63.6344 21.1958 59.6042 24.5257 59.6042 29.2122C59.6042 31.8681 61.4849 33.8942 63.9956 35.3434C66.0217 36.5018 66.7484 37.321 66.7484 38.5279C66.7484 39.7347 65.7354 40.7962 63.8502 40.7962C61.0445 40.7962 58.3929 39.3471 58.3929 39.3471L56.75 44.0777C56.75 44.0777 59.199 45.7206 63.3173 45.7206C69.3031 45.7206 73.602 42.7739 73.602 37.4664C73.602 34.6166 71.4305 32.5905 68.823 31.0929H68.8186Z"></path>
<path fill="black" d="M92.666 21.1481C89.7193 21.1481 87.4025 22.5488 85.6186 24.6718L85.5217 24.6233L88.0808 11.251H81.4166L74.9463 45.2897H81.6104L83.8304 33.6527C84.6981 29.2614 86.9664 26.5569 89.0938 26.5569C90.5914 26.5569 91.1684 27.57 91.1684 29.0191C91.1684 29.9353 91.0715 31.0452 90.8777 31.9658L88.3671 45.2897H95.0312L97.6388 31.5297C97.9295 30.0806 98.1233 28.3452 98.1233 27.1824C98.1233 23.4165 96.1456 21.1481 92.666 21.1481Z"></path>
<path fill="black" d="M113.187 21.1477C105.171 21.1477 99.8633 28.3889 99.8633 36.4537C99.8633 41.6203 103.048 45.7694 109.038 45.7694C116.909 45.7694 122.217 38.722 122.217 30.4634C122.217 25.6844 119.415 21.1477 113.187 21.1477ZM109.906 40.6512C107.637 40.6512 106.673 38.722 106.673 36.3083C106.673 32.4939 108.65 26.2658 112.271 26.2658C114.636 26.2658 115.407 28.292 115.407 30.274C115.407 34.3791 113.429 40.6556 109.901 40.6556L109.906 40.6512Z"></path>
<path fill="black" d="M139.258 21.1477C134.761 21.1477 132.211 25.1074 132.211 25.1074H132.114L132.502 21.5353H126.613C126.322 23.949 125.794 27.6181 125.261 30.3709L120.627 54.7503H127.291L129.123 44.9017H129.269C129.269 44.9017 130.639 45.7694 133.18 45.7694C141.003 45.7694 146.121 37.753 146.121 29.6442C146.121 25.1559 144.143 21.1477 139.267 21.1477H139.258ZM132.885 40.7481C131.154 40.7481 130.132 39.7835 130.132 39.7835L131.242 33.5554C132.013 29.4019 134.189 26.6534 136.506 26.6534C138.532 26.6534 139.161 28.5342 139.161 30.3225C139.161 34.6214 136.602 40.7525 132.885 40.7525V40.7481Z"></path>
<path fill="black" d="M155.625 11.5918C153.502 11.5918 151.811 13.2832 151.811 15.4546C151.811 17.4323 153.066 18.7845 154.947 18.7845H155.044C157.118 18.7845 158.906 17.3838 158.955 14.9217C158.955 12.9925 157.651 11.5918 155.625 11.5918Z"></path>
<path fill="black" d="M146.308 45.2861H152.967L157.509 21.6775H150.796L146.308 45.2861Z"></path>
<path fill="black" d="M174.454 21.6286H169.82L170.062 20.5186C170.45 18.2503 171.802 16.2197 174.022 16.2197C175.207 16.2197 176.145 16.5589 176.145 16.5589L177.449 11.3439C177.449 11.3439 176.291 10.7625 173.828 10.7625C171.366 10.7625 169.098 11.4364 167.31 12.9824C165.041 14.9116 163.98 17.7129 163.447 20.5142L163.253 21.6242H160.161L159.196 26.6454H162.288L158.765 45.2813H165.429L168.952 26.6454H173.538L174.454 21.6242V21.6286Z"></path>
<path fill="black" d="M190.481 21.6775C190.481 21.6775 186.315 32.1692 184.447 37.8996H184.35C184.222 36.0541 182.707 21.6775 182.707 21.6775H175.708L179.716 43.3569C179.813 43.8414 179.765 44.1277 179.571 44.4669C178.8 45.9644 177.497 47.4135 175.951 48.475C174.695 49.3912 173.295 49.9726 172.185 50.3602L174.017 56.0113C175.369 55.7206 178.17 54.6106 180.536 52.3907C183.579 49.5409 186.376 45.1496 189.274 39.1637L197.432 21.6863H190.481V21.6775Z"></path>
<path fill="black" d="M33.7602 6.35891C33.7602 6.35891 33.148 6.54831 32.1261 6.86544C31.9543 6.31046 31.7033 5.62775 31.3421 4.94503C30.1837 2.73393 28.4879 1.56671 26.4398 1.56231H26.431C26.29 1.56231 26.1491 1.57552 26.0037 1.58873C25.9421 1.51826 25.8848 1.44338 25.8187 1.37731C24.929 0.421517 23.7838 -0.0453702 22.414 -0.00572881C19.7668 0.0691493 17.1329 1.98074 14.9966 5.37668C13.4903 7.76397 12.3495 10.7679 12.0235 13.0891C8.98437 14.0317 6.85696 14.688 6.81291 14.7012C5.28011 15.1813 5.23166 15.2298 5.02905 16.6745C4.87489 17.7668 0.862305 48.8016 0.862305 48.8016L34.161 54.5584V6.29284C33.9981 6.30165 33.8483 6.33248 33.7558 6.35891H33.7602ZM26.0698 8.74179C24.308 9.28796 22.3831 9.88258 20.4539 10.4816C20.9957 8.40264 22.0264 6.33248 23.2905 4.98027C23.7618 4.47815 24.4181 3.91436 25.1977 3.59282C25.9288 5.12122 26.0874 7.28387 26.0698 8.7462V8.74179ZM22.4624 1.75611C23.0835 1.74289 23.6076 1.87944 24.0525 2.17454C23.3389 2.54453 22.6474 3.07749 21.9955 3.77341C20.313 5.57489 19.0268 8.37621 18.5115 11.0762C16.9082 11.5739 15.3402 12.0585 13.8999 12.5033C14.8117 8.24848 18.375 1.87063 22.458 1.7517L22.4624 1.75611ZM17.3135 25.977C17.494 28.8091 24.9466 29.4302 25.3651 36.0635C25.6954 41.2829 22.5946 44.8551 18.1327 45.1369C12.7767 45.4761 9.82565 42.3136 9.82565 42.3136L10.962 37.4818C10.962 37.4818 13.9307 39.7237 16.3092 39.5695C17.8596 39.4726 18.4146 38.2085 18.3618 37.3144C18.1283 33.6189 12.0588 33.8348 11.6756 27.7652C11.354 22.6559 14.7103 17.4761 22.1145 17.0092C24.9686 16.8286 26.4266 17.5554 26.4266 17.5554L24.7352 23.8892C24.7352 23.8892 22.8456 23.0303 20.6081 23.1712C17.3267 23.3783 17.2914 25.4484 17.3223 25.9682L17.3135 25.977ZM27.8272 8.19562C27.8096 6.85663 27.6466 4.98908 27.0212 3.3814C29.0297 3.7602 30.0163 6.03297 30.4347 7.38958C29.6595 7.62743 28.7786 7.90052 27.8228 8.20003L27.8272 8.19562Z"></path>
<path fill="black" d="M35.2642 54.4337L49.077 50.9982C49.077 50.9982 43.1308 10.7842 43.0911 10.5111C43.0515 10.2336 42.8136 10.0839 42.611 10.0663C42.4128 10.0486 38.5236 9.99139 38.5236 9.99139C38.5236 9.99139 36.1539 7.68778 35.2598 6.81567V54.4337H35.2642Z"></path>
</g>
<defs>
<clipPath id="clip0_28636_4336">
<rect transform="translate(0.854492)" fill="white" height="56" width="196.581"></rect>
</clipPath>
</defs>
</svg>
