<svg width="132" height="27" viewBox="0 0 132 27" fill="none" xmlns="http://www.w3.org/2000/svg">
<g clip-path="url(#clip0_11763_6076)">
<path d="M10.3617 8.12075C10.3617 8.12075 9.26104 7.98602 7.74449 8.0621C7.47249 8.07636 7.19892 8.1049 6.92849 8.14769L6.17734 8.26339C5.98124 8.28083 5.79149 8.33947 5.60013 8.38385C5.24906 8.46309 4.90433 8.56771 4.57065 8.69451C3.96498 8.92592 3.37986 9.20171 2.84378 9.57417C2.57652 9.7612 2.32666 9.96566 2.09419 10.1907C1.86648 10.4095 1.65773 10.644 1.46797 10.8976C1.27188 11.1592 1.109 11.4381 0.969834 11.7313C0.808532 12.0721 0.689929 12.4303 0.599789 12.7996C0.533372 13.0706 0.511231 13.348 0.462209 13.6222C0.451138 13.6793 0.459046 13.7411 0.457465 13.7997C0.45272 13.9946 0.451138 14.1912 0.457465 14.3877C0.457465 14.3877 0.460627 14.7 0.527045 15.1882C0.593464 15.6843 0.7263 16.1677 0.93188 16.6225C0.979322 16.7304 1.03151 16.8365 1.09002 16.9411C1.41737 17.5245 1.84909 18.0126 2.38201 18.4089C2.84852 18.7559 3.36564 19.0096 3.90488 19.2156C4.0646 19.2758 4.22749 19.325 4.39037 19.3757C4.55326 19.4263 4.71456 19.4771 4.88061 19.5199C4.98497 19.5484 5.09408 19.5643 5.20162 19.5881C5.41511 19.6356 5.63018 19.672 5.84683 19.7038C9.7497 20.2521 10.2035 20.4915 10.2557 20.5439C10.27 20.5564 10.2842 20.5724 10.2984 20.5851C10.3886 20.669 10.4408 20.772 10.4376 20.9037C10.436 20.9465 10.436 20.9892 10.4376 21.032C10.4455 21.1984 10.3743 21.33 10.2652 21.4488C10.1276 21.6011 9.95369 21.6992 9.76866 21.7659C9.44607 21.8816 9.11239 21.9513 8.76766 21.956C8.56998 21.9592 8.37073 21.9576 8.17305 21.9576L7.0297 21.8451C6.86366 21.8372 6.70711 21.7848 6.54896 21.7452C6.13148 21.639 5.72506 21.4932 5.32814 21.3253C4.92171 21.1525 4.52954 20.9528 4.15474 20.7182C3.90331 20.5613 3.6487 20.4059 3.40043 20.2443C3.22489 20.1286 3.03355 20.0556 2.83113 20.0081C2.78843 19.9986 2.7394 19.9923 2.69671 20.0017C2.56545 20.0303 2.43261 20.0619 2.3314 20.1602C2.21597 20.2728 2.09736 20.3838 1.99932 20.5136C1.82221 20.753 1.64667 20.9907 1.47905 21.238C1.2023 21.6486 0.914485 22.0528 0.639323 22.4632L0.0494667 23.5204C0.0494667 23.5204 -0.132392 23.9182 0.20128 24.2701C0.300907 24.3969 0.410023 24.5142 0.53337 24.622C0.789555 24.8392 1.06946 25.0182 1.35095 25.1941C1.92499 25.554 2.54648 25.8186 3.18377 26.0405C3.54749 26.1657 3.91753 26.2703 4.29391 26.3559C4.83791 26.4812 5.38506 26.5809 5.93538 26.6682C7.5658 26.8029 9.43341 26.8013 9.43341 26.8013C9.43341 26.8013 10.0755 26.757 10.4487 26.6919C10.7586 26.6444 11.067 26.5778 11.3738 26.5113C11.6821 26.4431 11.9779 26.3401 12.2767 26.2449C12.9393 26.0326 13.5625 25.7377 14.1507 25.3669C14.5192 25.1339 14.8512 24.8581 15.1723 24.5665C15.1975 24.5443 15.2339 24.5046 15.2561 24.4793C15.3983 24.3017 15.5644 24.1432 15.6988 23.9563C15.8665 23.7216 16.0373 23.4903 16.1638 23.2304C16.3046 22.9388 16.4374 22.6439 16.5385 22.3348C16.5749 22.224 16.6098 22.1114 16.6335 21.9988C16.6588 21.8767 16.7156 21.7596 16.7062 21.6295C16.7837 21.3949 16.7632 21.1492 16.79 20.9084C16.8216 20.6199 16.752 20.333 16.7583 20.043C16.7583 20.0271 16.7569 20.0097 16.7505 19.9954C16.6888 19.8131 16.7156 19.6151 16.6429 19.4359C16.6272 19.2568 16.5718 19.0856 16.5197 18.9144C16.4294 18.6118 16.3062 18.3216 16.1542 18.0458C15.9693 17.7035 15.7415 17.3912 15.4616 17.1187C15.3446 17.0046 15.2324 16.8889 15.1074 16.7859C14.8923 16.6067 14.663 16.445 14.4258 16.3008C13.8123 15.9267 13.1513 15.6732 12.4539 15.5115C12.1139 15.4322 11.7707 15.3577 11.4228 15.3086C11.1034 15.2643 10.7823 15.2183 10.4629 15.1739C10.3301 15.155 10.1956 15.1423 10.0612 15.1279C9.70541 15.0883 9.34803 15.0503 8.99063 15.0123C8.81193 14.9932 8.63323 14.9789 8.45453 14.9568C8.3391 14.941 8.22523 14.9203 8.10821 14.914C7.88207 14.8982 7.35231 14.8014 7.15622 14.7381C6.88896 14.6525 6.67232 14.5003 6.56478 14.2261C6.52208 14.1167 6.52999 13.9139 6.57585 13.8045C6.66599 13.5969 6.82254 13.4494 7.01548 13.3432C7.31751 13.1023 8.29481 13.0738 8.29481 13.0738C8.51147 13.0706 8.72653 13.0722 8.94319 13.0722C8.94319 13.0722 10.1245 13.1974 10.5072 13.3163C11.1951 13.5287 11.8751 13.7538 12.5282 14.0597C12.748 14.1627 12.9757 14.2483 13.2003 14.3355C13.3948 14.4115 13.5925 14.467 13.8028 14.4639C14.0922 14.4606 14.3247 14.3482 14.4875 14.1025C14.5176 14.0581 14.546 14.0122 14.5746 13.9661C14.7215 13.73 14.8608 13.4875 14.9967 13.2434C15.2941 12.7093 15.5881 12.1719 15.857 11.622C15.9503 11.427 16.0437 11.2321 16.1291 11.0339C16.2159 10.8279 16.2208 10.6139 16.1765 10.3968C16.1718 10.3698 16.1638 10.3429 16.1495 10.3207C16.0878 10.2113 16.0278 10.102 15.9393 10.0085C15.7953 9.85629 15.6324 9.7295 15.4569 9.61855C15.098 9.39189 14.7184 9.20963 14.3231 9.05588C14.0875 8.96554 13.8487 8.88947 13.6146 8.80228C13.311 8.68817 13.001 8.59307 12.6879 8.51858L10.3617 8.12075Z" fill="black"/>
<path d="M43.5008 8.05197C43.5008 8.05197 42.0159 7.95688 40.8631 8.26436C40.6891 8.31192 40.5135 8.33569 40.3397 8.38006C39.7687 8.52272 39.2295 8.74461 38.7139 9.0204C38.0039 9.39921 37.3587 9.87311 36.7973 10.4532C36.6834 10.5705 36.568 10.6846 36.4525 10.7988C36.4209 10.8305 36.3861 10.859 36.3514 10.8875C36.3213 10.9129 36.2533 10.9018 36.228 10.8701C36.2074 10.8415 36.1853 10.8114 36.1663 10.7813C35.9829 10.5008 35.7615 10.2535 35.5322 10.011C35.3583 9.82874 35.1622 9.67025 34.9629 9.51492C34.547 9.19316 34.0915 8.94273 33.6156 8.724C33.2724 8.5655 32.9118 8.45456 32.5545 8.33727C32.4438 8.30082 32.3267 8.28338 32.216 8.25168C31.487 8.03613 29.3174 8.0916 29.3174 8.0916C28.7654 8.0916 28.2087 8.26595 28.2087 8.26595C27.9084 8.32777 27.6189 8.42444 27.3343 8.5338C26.8804 8.70816 26.4456 8.9253 26.0233 9.16463C25.7481 9.31996 25.4825 9.48797 25.2595 9.7162C25.209 9.76692 25.1473 9.80496 25.0887 9.84776C25.0555 9.87311 25.0096 9.85093 25.0065 9.80971C25.0018 9.71145 24.9939 9.61159 24.9955 9.51332C24.9986 9.37701 24.9796 9.24388 24.9479 9.11233C24.8989 8.91103 24.763 8.78265 24.5906 8.69548C24.5068 8.65109 24.4008 8.63841 24.3044 8.62732L22.6882 8.56709C21.85 8.56709 21.0119 8.54965 20.1753 8.58452L19.3957 8.62574C19.2708 8.64317 19.1475 8.66694 19.0447 8.75095C18.9293 8.84447 18.866 8.97285 18.7963 9.09964C18.7473 9.18998 18.7252 9.28192 18.7315 9.38494C18.7348 9.45627 18.7315 9.52917 18.7315 9.60051C18.7315 12.1285 18.7315 14.655 18.7315 17.183C18.7315 19.1405 18.7299 21.0995 18.7331 23.0586C18.7348 23.7069 18.7458 24.3566 18.7521 25.0065C18.7536 25.0509 18.7458 25.1001 18.7599 25.1412C18.8012 25.2649 18.7963 25.39 18.79 25.5153C18.7837 25.6881 18.8439 25.8276 18.9466 25.9638C19.051 26.1018 19.1822 26.1826 19.3467 26.2142C19.3989 26.2254 19.4542 26.2238 19.508 26.2238C19.6439 26.2254 19.78 26.2142 19.9128 26.2301C20.0931 26.2507 20.2734 26.2476 20.4521 26.2476C20.7953 26.2492 21.1368 26.2476 21.48 26.2492C21.6587 26.2492 21.8405 26.2349 22.0177 26.2746C22.0524 26.2824 22.0904 26.2793 22.1251 26.2793C22.6391 26.265 23.1515 26.303 23.6639 26.2523C23.86 26.2332 24.0592 26.2349 24.2569 26.2285C24.3961 26.2238 24.5195 26.173 24.6459 26.1302C24.6713 26.1223 24.695 26.1049 24.714 26.0874C24.8484 25.9591 24.9448 25.818 24.9432 25.6183C24.9432 25.295 24.9575 24.9701 24.9653 24.6451C24.9653 24.6182 24.9638 24.5912 24.9701 24.5642C25.0049 24.4217 24.9955 24.2774 24.9955 24.1332C24.9955 22.1662 24.9955 20.1993 24.9955 18.2307C24.9955 17.2528 25.1409 16.2717 25.1409 16.2717C25.2817 15.7724 25.5173 15.3192 25.8525 14.9197C25.9616 14.7897 26.0834 14.666 26.2131 14.5567C26.4771 14.3364 26.7713 14.1652 27.0891 14.0321C27.4165 13.8974 27.7629 13.8451 28.106 13.78C28.1329 13.7753 28.1597 13.7786 28.1883 13.7786C28.4034 13.7786 28.6199 13.7753 28.8365 13.7786C28.8982 13.78 28.9599 13.7927 29.0216 13.8039C29.0753 13.8118 29.1276 13.8324 29.1813 13.834C29.2731 13.8355 29.3552 13.8672 29.4439 13.8863C29.8739 13.9798 30.2504 14.1875 30.603 14.4395C30.8307 14.6027 30.9825 14.7755 31.0758 14.8816C31.5155 15.3888 31.7052 15.9056 31.7685 16.2162C31.8981 16.8645 31.8981 16.8645 31.9234 17.8408L31.9345 22.9397C31.9345 23.5721 31.9345 24.2045 31.9361 24.8353L31.9535 25.6595C31.9551 25.7768 31.9868 25.9686 32.0515 26.0494C32.1796 26.2064 32.3757 26.2935 32.5797 26.292L37.6828 26.2634C37.7319 26.2634 37.7825 26.2539 37.8268 26.2332C38.1668 26.0827 38.1147 25.639 38.1147 25.639L38.1668 16.9992C38.1684 16.6029 38.2885 16.2621 38.2885 16.2621C38.2949 16.2447 38.2996 16.2273 38.3043 16.2099C38.3882 15.9325 38.5067 15.6694 38.6475 15.4173C38.8753 15.0116 39.182 14.674 39.5599 14.3998C39.802 14.2239 40.0692 14.0955 40.346 13.9877C40.5642 13.9037 40.7918 13.8625 41.0259 13.8292C41.2789 13.7927 41.5399 13.78 41.7945 13.7912C41.8609 13.7943 42.378 13.8371 42.4444 13.8498C42.7291 13.899 42.998 13.9973 43.2589 14.1224C43.4802 14.227 43.6779 14.3665 43.8724 14.5139C43.9878 14.6011 44.0922 14.701 44.1856 14.8104C44.4908 15.1718 44.7184 15.579 44.8829 16.0213C44.9619 16.2337 44.9999 16.4556 45.0205 16.679C45.0379 16.885 45.0711 17.1086 45.0616 17.2972C45.068 17.5317 45.0806 17.7663 45.0806 18.0009C45.0837 19.2816 45.0822 20.5638 45.0822 21.846L45.1423 25.0636C45.1407 25.2094 45.1344 25.2839 45.1454 25.501C45.1454 25.501 45.1186 26.1905 45.6768 26.2191L50.4003 26.2285C50.4003 26.2285 50.9286 26.2713 51.1515 26.0827C51.3634 25.902 51.3477 25.5042 51.3477 25.5042V25.0857C51.3493 22.7654 51.441 20.0486 51.3477 17.7315C51.2306 14.8278 50.9887 13.9291 50.9887 13.9291C50.9634 13.8324 50.9413 13.7358 50.9143 13.6422C50.802 13.2618 50.6724 12.8878 50.519 12.5216C50.4162 12.2807 50.3055 12.0445 50.1758 11.8179C49.9133 11.3551 49.6224 10.9113 49.2571 10.5182C49.061 10.3074 48.8632 10.0998 48.645 9.90957C48.313 9.61793 47.9555 9.35958 47.5712 9.14244C47.5712 9.14244 46.2049 8.30874 43.5008 8.05197Z" fill="black"/>
<path d="M61.2695 14.2195C60.8836 14.4238 60.55 14.698 60.2605 15.023C60.1578 15.1372 60.0677 15.2607 59.9792 15.386C59.9016 15.4953 59.8288 15.611 59.7657 15.73C59.6993 15.8567 59.6439 15.9915 59.59 16.1246C59.511 16.3164 59.4731 16.5192 59.4209 16.719C59.4209 16.719 59.2359 17.372 59.4019 18.0107C59.4368 18.139 59.4605 18.2674 59.4921 18.3958C59.5585 18.6669 59.6754 18.9189 59.8068 19.1661C59.9806 19.4974 60.21 19.7859 60.4725 20.0443C60.7761 20.3437 61.1288 20.5784 61.521 20.7495C61.7519 20.8509 61.9858 20.9477 62.2389 20.9746C62.4618 21 62.6833 21.0411 62.9158 21.0237C63.1719 21.0428 63.4298 20.9889 63.689 20.9668C63.7413 20.9635 63.7934 20.9524 63.8441 20.9381C64.2568 20.8241 64.6411 20.6513 64.989 20.4008C65.106 20.3169 65.2167 20.2233 65.3273 20.1314C65.7306 19.797 66.0342 19.3897 66.2399 18.9094C66.3157 18.7303 66.3933 18.548 66.4233 18.3515L66.5118 17.792C66.5245 17.7207 66.5402 17.6493 66.5419 17.578C66.5419 17.4275 66.5529 17.2753 66.5292 17.1247C66.5118 17.0122 66.4961 16.8996 66.4849 16.7872C66.4724 16.6666 66.4233 16.5509 66.4138 16.4305C66.3331 16.2118 66.2667 15.9867 66.156 15.7791C66.0421 15.5651 65.9188 15.3543 65.767 15.164C65.6548 15.0246 65.5424 14.8819 65.4049 14.7647C65.2341 14.6173 65.0601 14.4762 64.8672 14.3573C64.8672 14.3573 64.154 13.7012 62.386 13.839C62.386 13.839 61.8072 13.8644 61.2695 14.2195ZM72.0894 26.221L67.3974 26.2193C67.2677 26.2224 67.1507 26.1813 67.0289 26.1512C67.0036 26.1448 66.9815 26.1274 66.9594 26.1115C66.8107 26.0021 66.6842 25.8563 66.6289 25.682C66.5766 25.5203 66.5324 25.3602 66.5419 25.1843C66.5435 25.1574 66.5371 25.1304 66.5324 25.105C66.5308 25.0972 66.5245 25.0845 66.5198 25.0845C66.5024 25.0829 66.4802 25.0782 66.4691 25.0876C66.428 25.121 66.3884 25.1574 66.3506 25.1954C66.2414 25.3032 66.1323 25.4093 66.0121 25.5076C65.6911 25.7707 65.3432 25.991 64.9636 26.1638C64.6758 26.2938 64.3816 26.4016 64.078 26.4904C63.7317 26.5918 63.3807 26.66 63.0232 26.7091C63.0232 26.7091 61.6886 26.9278 60.5152 26.6489C59.9379 26.5537 59.3751 26.4048 58.8279 26.1892C58.4752 26.0513 58.1336 25.896 57.8016 25.7152C57.452 25.5266 57.1215 25.3096 56.8052 25.0733C56.5744 24.9021 56.3529 24.7184 56.1427 24.5202C55.9782 24.3665 55.809 24.2174 55.6524 24.0558C55.2191 23.6088 54.8207 23.1317 54.4934 22.6024C54.1802 22.0968 53.9082 21.569 53.7089 21.0063C53.5413 20.5325 53.4227 20.16 53.3089 19.6401C53.2741 19.4831 53.2171 19.3279 53.2061 19.1677L53.1158 18.4736C53.0795 18.3135 53.0764 18.1517 53.0764 17.9885C53.0764 17.8823 53.0621 17.7745 53.0606 17.6652C53.0574 17.4401 53.059 17.2151 53.059 16.9899C53.0606 16.9551 53.0764 16.4669 53.0748 16.4321C53.0921 16.0644 53.1902 15.6221 53.1902 15.6221L53.3246 14.9644C53.3452 14.8233 53.3942 14.687 53.4369 14.5491C53.524 14.267 53.6094 13.9832 53.7168 13.709C53.9177 13.1955 54.1549 12.701 54.4395 12.2303C54.6973 11.8071 54.9835 11.4013 55.3188 11.0352C55.616 10.7103 55.9292 10.398 56.2708 10.1175C56.908 9.59446 57.5975 9.16493 58.3503 8.82732C58.7789 8.63554 59.22 8.48496 59.666 8.34549L60.1863 8.21394C61.9116 7.87475 62.8446 8.0919 62.8446 8.0919C63.0406 8.0919 63.6684 8.19649 63.6684 8.19649C63.8014 8.22344 63.9279 8.26466 64.0576 8.29953C64.7058 8.47704 65.3052 8.75917 65.8429 9.16493C66.009 9.28855 66.1576 9.43438 66.3126 9.57067C66.3663 9.61823 66.4154 9.67053 66.4707 9.71808C66.4802 9.726 66.5024 9.72125 66.5198 9.71967C66.5245 9.71967 66.5308 9.70698 66.5324 9.70065C66.5371 9.68321 66.5435 9.66419 66.5419 9.64676C66.5229 9.48033 66.5862 9.32659 66.6273 9.17126C66.6557 9.06507 66.7079 8.9779 66.7743 8.90024C66.8977 8.76075 67.0669 8.66882 67.2503 8.63396C67.3531 8.61335 67.4892 8.59433 67.663 8.58482C68.1296 8.57848 68.5977 8.56897 69.0658 8.5658C69.5338 8.56263 70.0035 8.56263 70.4717 8.5658L71.7668 8.58957C71.8648 8.59592 71.9533 8.60542 72.0309 8.6181C72.3645 8.67041 72.6428 8.90816 72.7425 9.2315L72.7456 9.23783C72.7599 9.28855 72.7535 9.34561 72.7551 9.39951L72.8089 11.0732L72.8026 16.3496L72.7852 22.7085L72.7946 25.2873C72.7946 25.2873 72.7978 25.3856 72.7267 25.6313C72.6618 25.8532 72.5132 26.0434 72.3076 26.1481C72.2981 26.1543 72.2871 26.1591 72.2775 26.1638C72.189 26.205 72.0894 26.221 71.9882 26.2193" fill="black"/>
<path d="M81.3396 17.0183C81.3396 17.4874 81.3063 23.2584 81.3047 23.7275C81.3047 24.2869 81.2732 24.8465 81.2842 25.4059C81.2857 25.4694 81.2842 25.5867 81.2793 25.7055C81.2683 25.9813 81.0754 26.2127 80.8082 26.2745L80.8019 26.2761L76.3312 26.2491C76.1225 26.2555 75.9169 26.2238 75.7114 26.2223C75.686 26.2207 75.664 26.2096 75.6403 26.208C74.9508 26.1668 75.0566 25.2157 75.0566 25.2157C75.0566 20.5416 75.074 16.0372 75.0772 11.363C75.0772 10.9668 75.1009 10.5706 75.0962 10.1743C75.074 9.52764 75.1943 8.9935 75.1943 8.9935C75.2133 8.89365 75.2638 8.80806 75.3555 8.75417C75.4014 8.72565 75.4489 8.70028 75.4963 8.67333C75.5516 8.64164 75.6117 8.62421 75.6766 8.62421C75.996 8.49423 78.561 8.56556 78.561 8.56556C78.9658 8.57032 79.3722 8.57824 79.7771 8.58458C79.981 8.62103 80.1882 8.61311 80.3939 8.63054C80.5931 8.64956 80.7749 8.73515 80.8999 8.90633C80.9379 8.95705 80.9663 9.01094 80.9837 9.07434C81.0233 9.22332 81.0438 9.37231 81.0422 9.52764C81.0407 9.73527 81.0454 9.9429 81.0501 10.149C81.0517 10.1616 81.0722 10.1759 81.0865 10.1854C81.0912 10.1886 81.1038 10.1822 81.1118 10.1791C81.1197 10.1759 81.1276 10.1711 81.1339 10.1648C81.1576 10.1394 81.1845 10.1125 81.2066 10.0856C81.4313 9.80026 81.7 9.56251 82.0005 9.36121C82.2029 9.22492 82.4085 9.09653 82.622 8.98082C83.0189 8.76368 83.4365 8.60201 83.8665 8.47205C84.0469 8.41816 84.2287 8.36427 84.4153 8.33732C84.6557 8.30404 84.8929 8.26917 85.1428 8.26758L86.3034 8.29294C86.6056 8.29928 86.8791 8.47522 87.0056 8.751L87.0088 8.75734C87.0483 8.84451 87.0879 8.93328 87.083 9.03154L87.0863 9.22174L87.1337 10.4184C87.1353 11.0413 87.1337 11.6642 87.1337 12.2871L87.0799 14.0115C87.0799 14.0639 87.0642 14.1463 87.0452 14.1954C86.9549 14.4141 86.7953 14.5695 86.6008 14.6946C86.5455 14.7311 86.2671 14.804 86.188 14.8056L85.4621 14.8326L84.0057 14.8658C84.0057 14.8658 82.8418 14.9752 82.4861 15.167C82.0464 15.3429 81.7365 15.6535 81.5388 16.0815C81.5324 16.0974 81.523 16.1148 81.5167 16.1306C81.5071 16.1576 81.4961 16.1846 81.4866 16.2115C81.3901 16.4683 81.3396 16.7393 81.3396 17.0135V17.0183Z" fill="black"/>
<path d="M104.172 12.9767C104.165 13.289 104.018 13.5283 103.776 13.7105C103.667 13.793 103.534 13.831 103.397 13.8342L98.6999 13.8976C98.6368 13.8976 98.5735 13.8976 98.5103 13.8976C98.3473 13.8976 98.3031 13.9182 98.3205 14.1004C98.3332 14.2351 98.3236 14.3715 98.3236 14.5062C98.3236 15.2368 98.3236 15.9676 98.3236 16.6982C98.3236 17.5557 98.3252 18.4133 98.3236 19.2706C98.3236 19.4989 98.3726 19.7176 98.4407 19.9316C98.496 20.1059 98.5894 20.2613 98.7126 20.3944C98.8107 20.5006 98.9277 20.5862 99.0638 20.6417C99.3816 20.7717 99.7073 20.7938 100.044 20.732C100.286 20.6861 100.511 20.5973 100.729 20.491C100.9 20.4103 101.067 20.3215 101.229 20.2232C101.401 20.1186 101.586 20.052 101.779 20.0108C101.909 19.9824 102.048 19.9728 102.176 20.0362C102.201 20.0473 102.228 20.052 102.253 20.06C102.372 20.0901 102.464 20.1614 102.538 20.2549C102.661 20.4103 102.788 20.5639 102.908 20.7193C103.129 21.0046 103.354 21.2867 103.568 21.5768C103.968 22.1189 104.372 22.6594 104.738 23.2268C104.856 23.4138 104.916 23.6183 104.962 23.8307C104.969 23.8575 104.97 23.8862 104.966 23.9115C104.935 24.0621 104.907 24.2126 104.825 24.3458C104.7 24.5455 104.553 24.7277 104.376 24.8831C104.187 25.0495 103.982 25.1969 103.77 25.3332C103.365 25.59 102.932 25.7866 102.487 25.9608C102.103 26.113 101.705 26.2287 101.303 26.3159C100.935 26.3968 100.565 26.4728 100.188 26.5077C99.9651 26.5299 99.7406 26.5473 99.5175 26.5727C99.1222 26.6171 98.7269 26.5901 98.3316 26.5964C98.2066 26.598 98.0801 26.579 97.9552 26.5663C97.5788 26.5282 97.2057 26.476 96.8371 26.3904C96.4608 26.3032 96.0892 26.2002 95.7302 26.0544C95.2368 25.8531 94.7703 25.6011 94.3449 25.2777C93.9416 24.9718 93.5874 24.6168 93.2901 24.2031C92.9549 23.7387 92.7034 23.2379 92.5168 22.6959C92.1278 21.5451 92.0898 19.1867 92.0898 19.1867C92.0898 18.9252 92.0913 18.6637 92.0898 18.4021L92.0249 15.0784C92.0298 14.717 92.0092 14.3572 92.0376 13.9974C92.0408 13.9562 91.9981 13.9087 91.9554 13.9055C91.9111 13.9007 91.8653 13.8991 91.821 13.8976C91.6138 13.8976 91.4067 13.8991 91.1995 13.8976L89.5106 13.7707C89.4489 13.7549 89.3935 13.7265 89.3445 13.6852C89.1437 13.5172 89.0409 13.3001 89.0188 13.0417C89.0172 13.0195 89.0172 12.9973 89.0172 12.9751C89.0172 11.7816 89.0172 10.5897 89.0172 9.39782C89.0172 9.38355 89.0156 9.36295 89.0125 9.35028C88.9839 9.14105 89.0899 8.98097 89.2227 8.83991C89.3429 8.71312 89.4916 8.62911 89.6751 8.62435L89.9944 8.58631C90.2095 8.57839 90.4262 8.56729 90.6412 8.56571C91.0113 8.56254 91.3797 8.56412 91.7499 8.56412C91.8131 8.56412 91.8764 8.56412 91.9395 8.56254C92.0045 8.55937 92.0171 8.52292 92.0155 8.45952C92.0108 8.36918 92.0249 8.28042 92.0249 8.19007C92.0234 7.3009 92.0234 6.41014 92.0234 5.52096C92.0234 5.49084 92.0234 5.45914 92.0234 5.42904L92.0661 3.97402C92.0739 3.86307 92.1689 3.76797 92.2496 3.69031C92.3555 3.59046 92.4709 3.50804 92.61 3.46048C92.6354 3.45098 92.6607 3.43988 92.6876 3.43671C92.8109 3.42086 92.9359 3.40501 93.0607 3.39551L97.7021 3.44463C97.9789 3.5112 98.1528 3.6919 98.2446 3.95658C98.2604 4.0073 98.2619 4.06279 98.2652 4.11666L98.3142 8.47695C98.3142 8.52609 98.3458 8.55937 98.3963 8.56096C98.4865 8.56254 98.5767 8.56412 98.6668 8.56412C100.171 8.56412 101.676 8.56412 103.18 8.56412C103.234 8.56412 103.288 8.56412 103.341 8.56412C103.341 8.56412 103.642 8.56412 103.839 8.74482C103.862 8.76542 103.885 8.78444 103.911 8.80346C104.025 8.88905 104.088 9.00634 104.124 9.1474C104.15 9.26627 104.164 9.38673 104.165 9.50719L104.172 12.9767Z" fill="black"/>
<path d="M112.437 17.0032C112.436 17.4723 112.403 23.2431 112.403 23.7124C112.401 24.2718 112.369 24.8314 112.382 25.3892C112.384 25.4543 112.382 25.5715 112.377 25.6904C112.366 25.9662 112.172 26.1976 111.904 26.2594C111.904 26.2594 111.901 26.261 111.898 26.261L107.427 26.2341C107.22 26.2404 107.015 26.2087 106.808 26.2056C106.784 26.2056 106.762 26.1944 106.738 26.1929C106.047 26.1516 106.154 25.2006 106.154 25.2006C106.154 20.5265 106.172 16.022 106.175 11.3479C106.175 10.9517 106.197 10.5554 106.192 10.1592C106.172 9.5125 106.292 8.97836 106.292 8.97836C106.31 8.87852 106.362 8.79293 106.452 8.73904C106.499 8.71051 106.545 8.68514 106.593 8.6582C106.648 8.62492 106.708 8.60907 106.773 8.60907C107.094 8.47909 109.659 8.55043 109.659 8.55043C110.064 8.55518 110.468 8.5631 110.873 8.56943C111.077 8.6059 111.286 8.59797 111.49 8.6154C111.691 8.63442 111.871 8.72001 111.998 8.89119C112.036 8.94191 112.063 8.99581 112.08 9.0592C112.121 9.20819 112.14 9.35717 112.14 9.5125C112.137 9.72013 112.143 9.92618 112.148 10.1338C112.148 10.1465 112.17 10.1608 112.184 10.1703C112.189 10.1734 112.2 10.1671 112.208 10.1639C112.216 10.1608 112.225 10.156 112.23 10.1497C112.255 10.1243 112.281 10.0974 112.303 10.0704C112.529 9.78512 112.798 9.54737 113.098 9.3445C113.299 9.20978 113.505 9.0814 113.72 8.96569C114.115 8.74854 114.533 8.58688 114.963 8.45691C115.143 8.40302 115.326 8.34913 115.512 8.32218C115.752 8.2889 115.991 8.25403 116.24 8.25244L117.4 8.27781C117.702 8.28414 117.977 8.46007 118.103 8.73586L118.107 8.74221C118.145 8.8278 118.186 8.91814 118.181 9.01641L118.183 9.20661L118.23 10.4033C118.232 11.0262 118.232 11.6491 118.23 12.272L118.176 13.9964C118.176 14.0487 118.162 14.1312 118.141 14.1803C118.051 14.399 117.892 14.5544 117.699 14.6795C117.642 14.716 117.363 14.7889 117.286 14.7905L116.558 14.8174L115.102 14.8507C115.102 14.8507 113.938 14.9601 113.582 15.1519C113.144 15.3278 112.833 15.6384 112.637 16.0664C112.629 16.0822 112.621 16.0981 112.614 16.1155C112.603 16.1425 112.594 16.1694 112.583 16.1964C112.486 16.4532 112.437 16.7241 112.437 16.9984V17.0032Z" fill="black"/>
<path d="M126.208 17.0032C126.207 17.4723 126.173 23.2431 126.173 23.7124C126.172 24.2718 126.14 24.8314 126.153 25.3892C126.154 25.4543 126.153 25.5715 126.148 25.6904C126.137 25.9662 125.943 26.1976 125.675 26.2594C125.675 26.2594 125.672 26.261 125.669 26.261L121.198 26.2341C120.991 26.2404 120.786 26.2087 120.578 26.2056C120.555 26.2056 120.533 26.1944 120.509 26.1929C119.818 26.1516 119.924 25.2006 119.924 25.2006C119.924 20.5265 119.943 16.022 119.946 11.3479C119.946 10.9517 119.968 10.5554 119.963 10.1592C119.943 9.5125 120.063 8.97836 120.063 8.97836C120.08 8.87852 120.133 8.79293 120.223 8.73904C120.27 8.71051 120.316 8.68514 120.363 8.6582C120.419 8.62492 120.479 8.60907 120.544 8.60907C120.865 8.47909 123.43 8.55043 123.43 8.55043C123.835 8.55518 124.239 8.5631 124.644 8.56943C124.848 8.6059 125.055 8.59797 125.261 8.6154C125.462 8.63442 125.642 8.72001 125.769 8.89119C125.807 8.94191 125.833 8.99581 125.851 9.0592C125.892 9.20819 125.911 9.35717 125.909 9.5125C125.908 9.72013 125.914 9.92618 125.919 10.1338C125.919 10.1465 125.941 10.1608 125.954 10.1703C125.958 10.1734 125.971 10.1671 125.979 10.1639C125.987 10.1608 125.995 10.156 126.001 10.1497C126.026 10.1243 126.052 10.0974 126.074 10.0704C126.3 9.78512 126.567 9.54737 126.869 9.3445C127.07 9.20978 127.276 9.0814 127.489 8.96569C127.886 8.74854 128.304 8.58688 128.734 8.45691C128.914 8.40302 129.097 8.34913 129.282 8.32218C129.523 8.2889 129.762 8.25403 130.011 8.25244L131.171 8.27781C131.473 8.28414 131.748 8.46007 131.874 8.73586L131.877 8.74221C131.915 8.8278 131.957 8.91814 131.952 9.01641L131.953 9.20661L132.001 10.4033C132.002 11.0262 132.002 11.6491 132.001 12.272L131.947 13.9964C131.947 14.0487 131.933 14.1312 131.912 14.1803C131.822 14.399 131.662 14.5544 131.469 14.6795C131.413 14.716 131.134 14.7889 131.057 14.7905L130.329 14.8174L128.873 14.8507C128.873 14.8507 127.709 14.9601 127.353 15.1519C126.915 15.3278 126.604 15.6384 126.407 16.0664C126.4 16.0822 126.392 16.0981 126.385 16.1155C126.376 16.1425 126.365 16.1694 126.355 16.1964C126.257 16.4532 126.208 16.7241 126.208 16.9984V17.0032Z" fill="black"/>
<path d="M131.887 5.72227C131.858 5.86493 131.804 5.99647 131.694 6.10108C131.577 6.21045 131.442 6.27067 131.282 6.27543C131.219 6.27701 131.156 6.27701 131.093 6.27701C127.644 6.27701 124.195 6.27701 120.746 6.27701C120.573 6.27701 120.403 6.27384 120.244 6.19935C120.118 6.1407 120.026 6.04244 119.969 5.91565C119.955 5.88393 119.95 5.8459 119.949 5.80944C119.944 5.73812 119.946 5.66521 119.946 5.59389C119.946 3.95185 119.946 2.30981 119.946 0.667769C119.946 0.59486 119.946 0.523537 119.947 0.450627C119.952 0.338094 119.998 0.242995 120.08 0.163746C120.138 0.106687 120.208 0.0638924 120.281 0.0290226C120.311 0.013173 120.349 0.00841819 120.384 0.00683291C120.464 0.00207826 120.546 0.00366295 120.627 0.00366295C122.356 0.00366295 124.086 0.00366295 125.814 0.00366295C127.516 0.00366295 129.217 0.00366295 130.92 0.00366295C130.974 0.00366295 131.028 0.00841799 131.082 0.00366295C131.26 -0.0169417 131.42 0.0527973 131.572 0.127291C131.773 0.225559 131.874 0.403078 131.89 0.626561C131.895 0.688374 131.891 0.751773 131.891 0.815173L131.887 5.72227Z" fill="black"/>
</g>
<defs>
<clipPath id="clip0_11763_6076">
<rect width="132" height="27" fill="white"/>
</clipPath>
</defs>
</svg>
