<svg xmlns="http://www.w3.org/2000/svg" fill="none" viewBox="0 0 1048 650" height="650" width="1048">
<path fill="url(#paint0_linear_139_6964)" d="M1.47266 628C2.28554 628.001 2.94434 628.66 2.94434 629.473V648.528C2.94434 649.341 2.28522 650 1.47217 650C0.659112 650 0 649.341 0 648.528V629.473C0 628.66 0.659571 628 1.47266 628ZM8.88965 648.528C8.88965 649.341 8.23054 650 7.41748 650C6.60442 650 5.94531 649.341 5.94531 648.528V628.926C5.94531 628.12 6.59618 627.464 7.40291 627.457C8.22132 627.451 8.88965 628.112 8.88965 628.93V648.528ZM14.833 648.528C14.833 649.341 14.1739 650 13.3608 650C12.5478 650 11.8887 649.341 11.8887 648.528V628.843C11.8887 628.041 12.5327 627.387 13.335 627.373C14.1577 627.359 14.833 628.021 14.833 628.844V648.528ZM20.7783 648.528C20.7783 649.341 20.1192 650 19.3062 650C18.4931 650 17.834 649.341 17.834 648.528V628.718C17.834 627.92 18.4713 627.267 19.269 627.246C20.096 627.224 20.7783 627.887 20.7783 628.715V648.528ZM26.7217 648.528C26.7217 649.341 26.0626 650 25.2495 650C24.4365 650 23.7773 649.341 23.7773 648.528V628.542C23.7773 627.748 24.4079 627.098 25.2011 627.072C26.0323 627.044 26.7217 627.71 26.7217 628.542V648.528ZM32.667 648.528C32.667 649.341 32.0079 650 31.1948 650C30.3818 650 29.7227 649.341 29.7227 648.528V628.321C29.7227 627.532 30.3465 626.884 31.1351 626.852C31.9706 626.819 32.667 627.487 32.667 628.323V648.528ZM38.6104 648.528C38.6104 649.341 37.9512 650 37.1382 650C36.3251 650 35.666 649.341 35.666 648.528V628.056C35.666 627.271 36.2832 626.625 37.0671 626.587C37.9067 626.546 38.6104 627.215 38.6104 628.056V648.528ZM44.5557 648.528C44.5557 649.341 43.8966 650 43.0835 650C42.2704 650 41.6113 649.341 41.6113 648.528V627.748C41.6113 626.968 42.2219 626.323 43.0011 626.278C43.8448 626.229 44.5557 626.899 44.5557 627.744V648.528ZM50.499 648.528C50.499 649.341 49.8399 650 49.0269 650C48.2138 650 47.5547 649.341 47.5547 648.528V627.388C47.5547 626.612 48.1586 625.97 48.9331 625.921C49.781 625.867 50.499 626.54 50.499 627.389V648.528ZM56.4443 648.528C56.4443 649.341 55.7852 650 54.9722 650C54.1591 650 53.5 649.341 53.5 648.528V626.984C53.5 626.212 54.0973 625.572 54.8671 625.517C55.719 625.456 56.4443 626.13 56.4443 626.984V648.528ZM62.3896 648.528C62.3896 649.341 61.7305 650 60.9175 650C60.1044 650 59.4453 649.341 59.4453 648.528V626.536C59.4453 625.768 60.0361 625.13 60.8011 625.069C61.6569 625.001 62.3896 625.676 62.3896 626.535V648.528ZM68.333 648.528C68.333 649.341 67.6739 650 66.8608 650C66.0478 650 65.3887 649.341 65.3887 648.528V626.041C65.3887 625.278 65.973 624.642 66.7331 624.575C67.5929 624.5 68.333 625.177 68.333 626.04V648.528ZM74.2783 648.528C74.2783 649.341 73.6192 650 72.8062 650C71.9931 650 71.334 649.341 71.334 648.528V625.497C71.334 624.739 71.9118 624.105 72.6671 624.034C73.5309 623.954 74.2783 624.632 74.2783 625.5V648.528ZM80.2217 648.528C80.2217 649.341 79.5626 650 78.7495 650C77.9365 650 77.2773 649.341 77.2773 648.528V624.911C77.2773 624.156 77.8488 623.525 78.5992 623.447C79.4667 623.358 80.2217 624.038 80.2217 624.91V648.528ZM86.167 648.528C86.167 649.341 85.5079 650 84.6948 650C83.8818 650 83.2227 649.341 83.2227 648.528V624.279C83.2227 623.529 83.7878 622.899 84.5332 622.816C85.4045 622.719 86.167 623.401 86.167 624.277V648.528ZM92.1104 648.528C92.1104 649.341 91.4512 650 90.6382 650C89.8251 650 89.166 649.341 89.166 648.528V623.597C89.166 622.852 89.7247 622.225 90.4652 622.138C91.3404 622.035 92.1104 622.719 92.1104 623.6V648.528ZM98.0557 648.528C98.0557 649.341 97.3966 650 96.5835 650C95.7704 650 95.1113 649.341 95.1113 648.528V622.87C95.1113 622.129 95.6638 621.504 96.3993 621.411C97.2781 621.3 98.0557 621.985 98.0557 622.87V648.528ZM103.999 648.528C103.999 649.341 103.34 650 102.527 650C101.714 650 101.055 649.341 101.055 648.528V622.1C101.055 621.363 101.601 620.74 102.331 620.641C103.214 620.522 103.999 621.207 103.999 622.098V648.528ZM120.944 648.528C120.944 649.341 120.285 650 119.472 650C118.659 650 118 649.341 118 648.528V619.639C118 618.914 118.529 618.298 119.245 618.186C120.137 618.046 120.944 618.736 120.944 619.639V648.528ZM126.89 648.528C126.89 649.341 126.231 650 125.417 650C124.604 650 123.945 649.341 123.945 648.528V618.689C123.945 617.968 124.468 617.354 125.179 617.237C126.075 617.089 126.89 617.779 126.89 618.687V648.528ZM132.833 648.528C132.833 649.341 132.174 650 131.361 650C130.548 650 129.889 649.341 129.889 648.528V617.688C129.889 616.971 130.405 616.36 131.111 616.24C132.01 616.086 132.833 616.779 132.833 617.691V648.528ZM138.778 648.528C138.778 649.341 138.119 650 137.306 650C136.493 650 135.834 649.341 135.834 648.528V616.642C135.834 615.93 136.345 615.321 137.046 615.195C137.948 615.032 138.778 615.725 138.778 616.642V648.528ZM144.722 648.528C144.722 649.341 144.063 650 143.25 650C142.436 650 141.777 649.341 141.777 648.528V615.554C141.777 614.846 142.282 614.239 142.978 614.107C143.883 613.936 144.722 614.629 144.722 615.551V648.528ZM150.667 648.528C150.667 649.341 150.008 650 149.195 650C148.382 650 147.723 649.341 147.723 648.528V614.412C147.723 613.709 148.222 613.104 148.912 612.969C149.821 612.792 150.667 613.488 150.667 614.414V648.528ZM156.61 648.528C156.61 649.341 155.951 650 155.138 650C154.325 650 153.666 649.341 153.666 648.528V613.226C153.666 612.527 154.159 611.924 154.845 611.785C155.757 611.6 156.61 612.296 156.61 613.227V648.528ZM162.556 648.528C162.556 649.341 161.897 650 161.083 650C160.27 650 159.611 649.341 159.611 648.528V611.998C159.611 611.302 160.099 610.702 160.779 610.557C161.694 610.363 162.556 611.06 162.556 611.995V648.528ZM168.499 648.528C168.499 649.341 167.84 650 167.027 650C166.214 650 165.555 649.341 165.555 648.528V610.715C165.555 610.024 166.036 609.427 166.712 609.28C167.629 609.08 168.499 609.779 168.499 610.718V648.528ZM174.444 648.528C174.444 649.341 173.785 650 172.972 650C172.159 650 171.5 649.341 171.5 648.528V609.39C171.5 608.703 171.976 608.108 172.646 607.956C173.567 607.747 174.444 608.446 174.444 609.39V648.528ZM180.39 648.528C180.39 649.341 179.731 650 178.917 650C178.104 650 177.445 649.341 177.445 648.528V608.02C177.445 607.337 177.916 606.744 178.581 606.587C179.504 606.369 180.39 607.069 180.39 608.018V648.528ZM186.333 648.528C186.333 649.341 185.674 650 184.861 650C184.048 650 183.389 649.341 183.389 648.528V606.598C183.389 605.919 183.854 605.329 184.513 605.169C185.44 604.945 186.333 605.647 186.333 606.6V648.528ZM192.278 648.528C192.278 649.341 191.619 650 190.806 650C189.993 650 189.334 649.341 189.334 648.528V605.132C189.334 604.457 189.794 603.869 190.448 603.705C191.377 603.473 192.278 604.174 192.278 605.132V648.528ZM198.222 648.528C198.222 649.341 197.563 650 196.75 650C195.936 650 195.277 649.341 195.277 648.528V603.622C195.277 602.951 195.732 602.365 196.381 602.197C197.312 601.955 198.222 602.657 198.222 603.619V648.528ZM204.167 648.528C204.167 649.341 203.508 650 202.695 650C201.882 650 201.223 649.341 201.223 648.528V602.059C201.223 601.392 201.671 600.809 202.316 600.639C203.25 600.391 204.167 601.094 204.167 602.061V648.528ZM210.11 648.528C210.11 649.341 209.451 650 208.638 650C207.825 650 207.166 649.341 207.166 648.528V600.454C207.166 599.791 207.61 599.211 208.249 599.035C209.185 598.778 210.11 599.482 210.11 600.453V648.528ZM216.056 648.528C216.056 649.341 215.397 650 214.583 650C213.77 650 213.111 649.341 213.111 648.528V598.802C213.111 598.143 213.55 597.565 214.184 597.386C215.122 597.121 216.056 597.826 216.056 598.802V648.528ZM221.999 648.528C221.999 649.341 221.34 650 220.527 650C219.714 650 219.055 649.341 219.055 648.528V597.101C219.055 596.446 219.488 595.871 220.117 595.689C221.058 595.417 221.999 596.122 221.999 597.102V648.528ZM238.944 648.528C238.944 649.341 238.285 650 237.472 650C236.659 650 236 649.341 236 648.528V591.999C236 591.356 236.419 590.787 237.033 590.596C237.981 590.302 238.944 591.009 238.944 592.002V648.528ZM244.89 648.528C244.89 649.341 244.231 650 243.417 650C242.604 650 241.945 649.341 241.945 648.528V590.121C241.945 589.482 242.359 588.915 242.968 588.72C243.918 588.416 244.89 589.123 244.89 590.12V648.528ZM250.833 648.528C250.833 649.341 250.174 650 249.361 650C248.548 650 247.889 649.341 247.889 648.528V588.196C247.889 587.56 248.298 586.997 248.902 586.799C249.853 586.487 250.833 587.195 250.833 588.196V648.528ZM256.778 648.528C256.778 649.341 256.119 650 255.306 650C254.493 650 253.834 649.341 253.834 648.528V586.223C253.834 585.591 254.238 585.03 254.837 584.83C255.791 584.51 256.778 585.219 256.778 586.224V648.528ZM262.722 648.528C262.722 649.341 262.063 650 261.25 650C260.436 650 259.777 649.341 259.777 648.528V584.207C259.777 583.579 260.177 583.02 260.771 582.815C261.726 582.486 262.722 583.195 262.722 584.205V648.528ZM268.667 648.528C268.667 649.341 268.008 650 267.195 650C266.382 650 265.723 649.341 265.723 648.528V582.139C265.723 581.515 266.117 580.959 266.706 580.753C267.664 580.417 268.667 581.127 268.667 582.141V648.528ZM274.61 648.528C274.61 649.341 273.951 650 273.138 650C272.325 650 271.666 649.341 271.666 648.528V580.028C271.666 579.408 272.056 578.854 272.64 578.644C273.599 578.3 274.61 579.01 274.61 580.029V648.528ZM280.556 648.528C280.556 649.341 279.897 650 279.083 650C278.27 650 277.611 649.341 277.611 648.528V577.873C277.611 577.256 277.997 576.704 278.576 576.492C279.536 576.139 280.556 576.849 280.556 577.872V648.528ZM286.499 648.528C286.499 649.341 285.84 650 285.027 650C284.214 650 283.555 649.341 283.555 648.528V575.668C283.555 575.054 283.935 574.506 284.51 574.291C285.472 573.931 286.499 574.642 286.499 575.669V648.528ZM292.444 648.528C292.444 649.341 291.785 650 290.972 650C290.159 650 289.5 649.341 289.5 648.528V573.419C289.5 572.81 289.877 572.263 290.446 572.045C291.409 571.676 292.444 572.386 292.444 573.418V648.528ZM298.39 648.528C298.39 649.341 297.731 650 296.917 650C296.104 650 295.445 649.341 295.445 648.528V571.122C295.445 570.516 295.817 569.972 296.382 569.752C297.347 569.377 298.39 570.088 298.39 571.123V648.528ZM304.333 648.528C304.333 649.341 303.674 650 302.861 650C302.048 650 301.389 649.341 301.389 648.528V568.781C301.389 568.178 301.756 567.637 302.316 567.414C303.282 567.029 304.333 567.74 304.333 568.78V648.528ZM310.278 648.528C310.278 649.341 309.619 650 308.806 650C307.993 650 307.334 649.341 307.334 648.528V566.394C307.334 565.795 307.697 565.256 308.252 565.031C309.22 564.638 310.278 565.349 310.278 566.393V648.528ZM316.222 648.528C316.222 649.341 315.563 650 314.75 650C313.936 650 313.277 649.341 313.277 648.528V563.959C313.277 563.363 313.636 562.827 314.187 562.6C315.156 562.201 316.222 562.912 316.222 563.96V648.528ZM322.167 648.528C322.167 649.341 321.508 650 320.695 650C319.882 650 319.223 649.341 319.223 648.528V561.482C319.223 560.89 319.578 560.356 320.123 560.126C321.093 559.717 322.167 560.428 322.167 561.481V648.528ZM328.11 648.528C328.11 649.341 327.451 650 326.638 650C325.825 650 325.166 649.341 325.166 648.528V558.957C325.166 558.368 325.517 557.837 326.058 557.606C327.029 557.19 328.11 557.902 328.11 558.958V648.528ZM334.056 648.528C334.056 649.341 333.397 650 332.583 650C331.77 650 331.111 649.341 331.111 648.528V556.387C331.111 555.802 331.458 555.272 331.994 555.038C332.966 554.614 334.056 555.325 334.056 556.386V648.528ZM339.999 648.528C339.999 649.341 339.34 650 338.527 650C337.714 650 337.055 649.341 337.055 648.528V553.772C337.055 553.191 337.398 552.664 337.929 552.428C338.902 551.997 339.999 552.708 339.999 553.773V648.528ZM356.944 648.528C356.944 649.341 356.285 650 355.472 650C354.659 650 354 649.341 354 648.528V546.07C354 545.498 354.332 544.978 354.85 544.737C355.826 544.284 356.944 544.995 356.944 546.071V648.528ZM362.89 648.528C362.89 649.341 362.231 650 361.417 650C360.604 650 359.945 649.341 359.945 648.528V543.281C359.945 542.712 360.273 542.194 360.788 541.951C361.764 541.49 362.89 542.201 362.89 543.281V648.528ZM368.833 648.528C368.833 649.341 368.174 650 367.361 650C366.548 650 365.889 649.341 365.889 648.528V540.45C365.889 539.885 366.213 539.369 366.723 539.124C367.7 538.654 368.833 539.365 368.833 540.449V648.528ZM374.778 648.528C374.778 649.341 374.119 650 373.306 650C372.493 650 371.834 649.341 371.834 648.528V537.571C371.834 537.009 372.155 536.496 372.66 536.249C373.638 535.773 374.778 536.484 374.778 537.572V648.528ZM380.722 648.528C380.722 649.341 380.063 650 379.25 650C378.436 650 377.777 649.341 377.777 648.528V534.652C377.777 534.093 378.095 533.582 378.596 533.333C379.574 532.848 380.722 533.558 380.722 534.65V648.528ZM386.667 648.528C386.667 649.341 386.008 650 385.195 650C384.382 650 383.723 649.341 383.723 648.528V531.684C383.723 531.128 384.036 530.62 384.533 530.37C385.512 529.879 386.667 530.59 386.667 531.685V648.528ZM392.61 648.528C392.61 649.341 391.951 650 391.138 650C390.325 650 389.666 649.341 389.666 648.528V528.674C389.666 528.121 389.976 527.615 390.469 527.364C391.448 526.864 392.61 527.574 392.61 528.673V648.528ZM398.556 648.528C398.556 649.341 397.897 650 397.083 650C396.27 650 395.611 649.341 395.611 648.528V525.62C395.611 525.07 395.918 524.567 396.406 524.314C397.386 523.807 398.556 524.518 398.556 525.62V648.528ZM404.499 648.528C404.499 649.341 403.84 650 403.027 650C402.214 650 401.555 649.341 401.555 648.528V522.523C401.555 521.976 401.858 521.474 402.342 521.22C403.322 520.706 404.499 521.416 404.499 522.522V648.528ZM410.444 648.528C410.444 649.341 409.785 650 408.972 650C408.159 650 407.5 649.341 407.5 648.528V519.382C407.5 518.838 407.8 518.339 408.28 518.084C409.26 517.563 410.444 518.272 410.444 519.382V648.528ZM416.39 648.528C416.39 649.341 415.731 650 414.917 650C414.104 650 413.445 649.341 413.445 648.528V516.197C413.445 515.656 413.742 515.159 414.218 514.902C415.199 514.373 416.39 515.082 416.39 516.196V648.528ZM422.333 648.528C422.333 649.341 421.674 650 420.861 650C420.048 650 419.389 649.341 419.389 648.528V512.973C419.389 512.435 419.682 511.94 420.154 511.681C421.135 511.145 422.333 511.853 422.333 512.971V648.528ZM428.278 648.528C428.278 649.341 427.619 650 426.806 650C425.993 650 425.334 649.341 425.334 648.528V509.699C425.334 509.164 425.624 508.672 426.092 508.413C427.073 507.87 428.278 508.579 428.278 509.7V648.528ZM434.222 648.528C434.222 649.341 433.563 650 432.75 650C431.936 650 431.277 649.341 431.277 648.528V506.388C431.277 505.856 431.565 505.366 432.029 505.105C433.01 504.555 434.222 505.263 434.222 506.387V648.528ZM440.167 648.528C440.167 649.341 439.508 650 438.695 650C437.882 650 437.223 649.341 437.223 648.528V503.031C437.223 502.502 437.507 502.014 437.967 501.753C438.948 501.197 440.167 501.905 440.167 503.033V648.528ZM446.11 648.528C446.11 649.341 445.451 650 444.638 650C443.825 650 443.166 649.341 443.166 648.528V499.636C443.166 499.109 443.447 498.623 443.904 498.361C444.885 497.796 446.11 498.503 446.11 499.635V648.528ZM452.056 648.528C452.056 649.341 451.397 650 450.583 650C449.77 650 449.111 649.341 449.111 648.528V496.196C449.111 495.672 449.39 495.188 449.842 494.925C450.823 494.354 452.056 495.061 452.056 496.196V648.528ZM457.999 648.528C457.999 649.341 457.34 650 456.527 650C455.714 650 455.055 649.341 455.055 648.528V492.715C455.055 492.194 455.33 491.712 455.779 491.448C456.76 490.869 457.999 491.576 457.999 492.714V648.528ZM474.944 648.528C474.944 649.341 474.285 650 473.472 650C472.659 650 472 649.341 472 648.528V482.564C472 482.051 472.268 481.575 472.706 481.308C473.687 480.711 474.944 481.416 474.944 482.564V648.528ZM480.89 648.528C480.89 649.341 480.231 650 479.417 650C478.604 650 477.945 649.341 477.945 648.528V478.924C477.945 478.413 478.21 477.939 478.645 477.672C479.625 477.068 480.89 477.773 480.89 478.924V648.528ZM486.833 648.528C486.833 649.341 486.174 650 485.361 650C484.548 650 483.889 649.341 483.889 648.528V475.245C483.889 474.737 484.151 474.265 484.582 473.996C485.563 473.386 486.833 474.089 486.833 475.244V648.528ZM492.778 648.528C492.778 649.341 492.119 650 491.306 650C490.493 650 489.834 649.341 489.834 648.528V471.523C489.834 471.017 490.094 470.547 490.521 470.278C491.501 469.662 492.778 470.366 492.778 471.523V648.528ZM498.722 648.528C498.722 649.341 498.063 650 497.25 650C496.436 650 495.777 649.341 495.777 648.528V467.763C495.777 467.26 496.034 466.792 496.459 466.522C497.439 465.899 498.722 466.602 498.722 467.763V648.528ZM504.667 648.528C504.667 649.341 504.008 650 503.195 650C502.382 650 501.723 649.341 501.723 648.528V463.962C501.723 463.461 501.977 462.995 502.398 462.725C503.378 462.096 504.667 462.799 504.667 463.963V648.528ZM510.61 648.528C510.61 649.341 509.951 650 509.138 650C508.325 650 507.666 649.341 507.666 648.528V460.124C507.666 459.625 507.918 459.161 508.336 458.89C509.315 458.254 510.61 458.955 510.61 460.123V648.528ZM516.556 648.528C516.556 649.341 515.897 650 515.083 650C514.27 650 513.611 649.341 513.611 648.528V456.244C513.611 455.748 513.861 455.286 514.276 455.014C515.254 454.373 516.556 455.074 516.556 456.245V648.528ZM522.499 648.528C522.499 649.341 521.84 650 521.027 650C520.214 650 519.555 649.341 519.555 648.528V452.327C519.555 451.833 519.802 451.373 520.213 451.1C521.192 450.452 522.499 451.153 522.499 452.326V648.528ZM528.444 648.528C528.444 649.341 527.785 650 526.972 650C526.159 650 525.5 649.341 525.5 648.528V448.369C525.5 447.878 525.745 447.42 526.153 447.147C527.131 446.493 528.444 447.194 528.444 448.37V648.528ZM534.39 648.528C534.39 649.341 533.731 650 532.917 650C532.104 650 531.445 649.341 531.445 648.528V444.375C531.445 443.886 531.688 443.43 532.093 443.156C533.07 442.496 534.39 443.196 534.39 444.375V648.528ZM540.333 648.528C540.333 649.341 539.674 650 538.861 650C538.048 650 537.389 649.341 537.389 648.528V440.343C537.389 439.857 537.629 439.402 538.031 439.128C539.008 438.463 540.333 439.162 540.333 440.344V648.528ZM546.278 648.528C546.278 649.341 545.619 650 544.806 650C543.993 650 543.334 649.341 543.334 648.528V436.273C543.334 435.789 543.572 435.336 543.971 435.061C544.948 434.389 546.278 435.087 546.278 436.273V648.528ZM552.222 648.528C552.222 649.341 551.563 650 550.75 650C549.936 650 549.277 649.341 549.277 648.528V432.166C549.277 431.684 549.513 431.233 549.909 430.958C550.885 430.282 552.222 430.979 552.222 432.167V648.528ZM558.167 648.528C558.167 649.341 557.508 650 556.695 650C555.882 650 555.223 649.341 555.223 648.528V428.022C555.223 427.542 555.457 427.093 555.85 426.817C556.825 426.134 558.167 426.831 558.167 428.022V648.528ZM564.11 648.528C564.11 649.341 563.451 650 562.638 650C561.825 650 561.166 649.341 561.166 648.528V423.842C561.166 423.365 561.398 422.917 561.788 422.641C562.763 421.953 564.11 422.649 564.11 423.843V648.528ZM570.056 648.528C570.056 649.341 569.397 650 568.583 650C567.77 650 567.111 649.341 567.111 648.528V419.624C567.111 419.148 567.341 418.702 567.729 418.426C568.703 417.732 570.056 418.428 570.056 419.624V648.528ZM575.999 648.528C575.999 649.341 575.34 650 574.527 650C573.714 650 573.055 649.341 573.055 648.528V415.373C573.055 414.899 573.283 414.455 573.667 414.179C574.641 413.479 575.999 414.175 575.999 415.373V648.528ZM592.944 648.528C592.944 649.341 592.285 650 591.472 650C590.659 650 590 649.341 590 648.528V403.056C590 402.588 590.223 402.148 590.6 401.871C591.572 401.157 592.944 401.85 592.944 403.056V648.528ZM598.89 648.528C598.89 649.341 598.231 650 597.417 650C596.604 650 595.945 649.341 595.945 648.528V398.67C595.945 398.204 596.166 397.766 596.541 397.488C597.512 396.768 598.89 397.46 598.89 398.669V648.528ZM604.833 648.528C604.833 649.341 604.174 650 603.361 650C602.548 650 601.889 649.341 601.889 648.528V394.248C601.889 393.784 602.108 393.347 602.48 393.069C603.45 392.345 604.833 393.037 604.833 394.248V648.528ZM610.778 648.528C610.778 649.341 610.119 650 609.306 650C608.493 650 607.834 649.341 607.834 648.528V389.793C607.834 389.331 608.051 388.896 608.421 388.618C609.391 387.888 610.778 388.578 610.778 389.793V648.528ZM616.722 648.528C616.722 649.341 616.063 650 615.25 650C614.436 650 613.777 649.341 613.777 648.528V385.303C613.777 384.843 613.993 384.409 614.36 384.132C615.329 383.397 616.722 384.088 616.722 385.304V648.528ZM622.667 648.528C622.667 649.341 622.008 650 621.195 650C620.382 650 619.723 649.341 619.723 648.528V380.785C619.723 380.326 619.937 379.894 620.301 379.615C621.27 378.876 622.667 379.566 622.667 380.784V648.528ZM628.61 648.528C628.61 649.341 627.951 650 627.138 650C626.325 650 625.666 649.341 625.666 648.528V376.23C625.666 375.773 625.878 375.342 626.24 375.064C627.208 374.32 628.61 375.01 628.61 376.231V648.528ZM634.556 648.528C634.556 649.341 633.897 650 633.083 650C632.27 650 631.611 649.341 631.611 648.528V371.646C631.611 371.191 631.822 370.761 632.182 370.482C633.149 369.733 634.556 370.422 634.556 371.645V648.528ZM640.499 648.528C640.499 649.341 639.84 650 639.027 650C638.214 650 637.555 649.341 637.555 648.528V367.027C637.555 366.573 637.764 366.145 638.121 365.866C639.088 365.113 640.499 365.801 640.499 367.027V648.528ZM646.444 648.528C646.444 649.341 645.785 650 644.972 650C644.159 650 643.5 649.341 643.5 648.528V362.379C643.5 361.927 643.708 361.501 644.063 361.222C645.029 360.464 646.444 361.152 646.444 362.379V648.528ZM652.39 648.528C652.39 649.341 651.731 650 650.917 650C650.104 650 649.445 649.341 649.445 648.528V357.699C649.445 357.248 649.651 356.823 650.005 356.544C650.97 355.782 652.39 356.468 652.39 357.698V648.528ZM658.333 648.528C658.333 649.341 657.674 650 656.861 650C656.048 650 655.389 649.341 655.389 648.528V352.99C655.389 352.541 655.593 352.117 655.944 351.838C656.909 351.072 658.333 351.758 658.333 352.99V648.528ZM664.278 648.528C664.278 649.341 663.619 650 662.806 650C661.993 650 661.334 649.341 661.334 648.528V348.25C661.334 347.803 661.537 347.38 661.886 347.101C662.85 346.33 664.278 347.015 664.278 348.249V648.528ZM670.222 648.528C670.222 649.341 669.563 650 668.75 650C667.936 650 667.277 649.341 667.277 648.528V343.482C667.277 343.037 667.479 342.616 667.826 342.336C668.789 341.562 670.222 342.247 670.222 343.482V648.528ZM676.167 648.528C676.167 649.341 675.508 650 674.695 650C673.882 650 673.223 649.341 673.223 648.528V338.683C673.223 338.239 673.423 337.819 673.768 337.539C674.73 336.76 676.167 337.445 676.167 338.683V648.528ZM682.11 648.528C682.11 649.341 681.451 650 680.638 650C679.825 650 679.166 649.341 679.166 648.528V333.857C679.166 333.414 679.365 332.996 679.708 332.716C680.67 331.934 682.11 332.618 682.11 333.858V648.528ZM688.056 648.528C688.056 649.341 687.397 650 686.583 650C685.77 650 685.111 649.341 685.111 648.528V329.002C685.111 328.561 685.309 328.143 685.65 327.864C686.611 327.077 688.056 327.76 688.056 329.002V648.528ZM693.999 648.528C693.999 649.341 693.34 650 692.527 650C691.714 650 691.055 649.341 691.055 648.528V324.12C691.055 323.681 691.251 323.264 691.59 322.985C692.551 322.195 693.999 322.878 693.999 324.121V648.528ZM710.944 648.528C710.944 649.341 710.285 650 709.472 650C708.659 650 708 649.341 708 648.528V310.054C708 309.618 708.193 309.205 708.527 308.926C709.485 308.125 710.944 308.806 710.944 310.054V648.528ZM716.89 648.528C716.89 649.341 716.231 650 715.417 650C714.604 650 713.945 649.341 713.945 648.528V305.07C713.945 304.636 714.137 304.224 714.47 303.944C715.427 303.139 716.89 303.819 716.89 305.07V648.528ZM722.833 648.528C722.833 649.341 722.174 650 721.361 650C720.548 650 719.889 649.341 719.889 648.528V300.06C719.889 299.627 720.079 299.216 720.41 298.937C721.367 298.128 722.833 298.808 722.833 300.061V648.528ZM728.778 648.528C728.778 649.341 728.119 650 727.306 650C726.493 650 725.834 649.341 725.834 648.528V295.026C725.834 294.594 726.024 294.184 726.353 293.905C727.309 293.093 728.778 293.772 728.778 295.026V648.528ZM734.722 648.528C734.722 649.341 734.063 650 733.25 650C732.436 650 731.777 649.341 731.777 648.528V289.966C731.777 289.536 731.966 289.127 732.294 288.847C733.249 288.032 734.722 288.71 734.722 289.966V648.528ZM740.667 648.528C740.667 649.341 740.008 650 739.195 650C738.382 650 737.723 649.341 737.723 648.528V284.884C737.723 284.455 737.91 284.047 738.236 283.767C739.191 282.949 740.667 283.627 740.667 284.885V648.528ZM746.61 648.528C746.61 649.341 745.951 650 745.138 650C744.325 650 743.666 649.341 743.666 648.528V279.779C743.666 279.35 743.853 278.943 744.177 278.663C745.132 277.841 746.61 278.518 746.61 279.777V648.528ZM752.556 648.528C752.556 649.341 751.897 650 751.083 650C750.27 650 749.611 649.341 749.611 648.528V274.645C749.611 274.218 749.797 273.812 750.12 273.532C751.073 272.709 752.556 273.386 752.556 274.646V648.528ZM758.499 648.528C758.499 649.341 757.84 650 757.027 650C756.214 650 755.555 649.341 755.555 648.528V269.493C755.555 269.067 755.739 268.662 756.061 268.383C757.014 267.556 758.499 268.233 758.499 269.495V648.528ZM764.444 648.528C764.444 649.341 763.785 650 762.972 650C762.159 650 761.5 649.341 761.5 648.528V264.322C761.5 263.897 761.684 263.492 762.004 263.213C762.957 262.382 764.444 263.057 764.444 264.321V648.528ZM770.39 648.528C770.39 649.341 769.731 650 768.917 650C768.104 650 767.445 649.341 767.445 648.528V259.128C767.445 258.704 767.628 258.3 767.947 258.02C768.899 257.186 770.39 257.861 770.39 259.126V648.528ZM776.333 648.528C776.333 649.341 775.674 650 774.861 650C774.048 650 773.389 649.341 773.389 648.528V253.91C773.389 253.487 773.571 253.085 773.888 252.805C774.839 251.97 776.333 252.645 776.333 253.911V648.528ZM782.278 648.528C782.278 649.341 781.619 650 780.806 650C779.993 650 779.334 649.341 779.334 648.528V248.673C779.334 248.251 779.515 247.849 779.832 247.57C780.782 246.732 782.278 247.407 782.278 248.674V648.528ZM788.222 648.528C788.222 649.341 787.563 650 786.75 650C785.936 650 785.277 649.341 785.277 648.528V243.42C785.277 242.998 785.458 242.597 785.773 242.318C786.723 241.477 788.222 242.15 788.222 243.419V648.528ZM794.167 648.528C794.167 649.341 793.508 650 792.695 650C791.882 650 791.223 649.341 791.223 648.528V238.147C791.223 237.726 791.402 237.326 791.717 237.047C792.666 236.202 794.167 236.874 794.167 238.145V648.528ZM800.11 648.528C800.11 649.341 799.451 650 798.638 650C797.825 650 797.166 649.341 797.166 648.528V232.852C797.166 232.433 797.345 232.033 797.658 231.754C798.607 230.908 800.11 231.581 800.11 232.852V648.528ZM806.056 648.528C806.056 649.341 805.397 650 804.583 650C803.77 650 803.111 649.341 803.111 648.528V227.538C803.111 227.119 803.289 226.721 803.601 226.442C804.549 225.594 806.056 226.267 806.056 227.539V648.528ZM811.999 648.528C811.999 649.341 811.34 650 810.527 650C809.714 650 809.055 649.341 809.055 648.528V222.209C809.055 221.792 809.232 221.394 809.543 221.115C810.49 220.264 811.999 220.936 811.999 222.209V648.528ZM828.944 648.528C828.944 649.341 828.285 650 827.472 650C826.659 650 826 649.341 826 648.528V206.924C826 206.509 826.175 206.113 826.483 205.834C827.429 204.978 828.944 205.649 828.944 206.926V648.528ZM834.89 648.528C834.89 649.341 834.231 650 833.417 650C832.604 650 831.945 649.341 831.945 648.528V201.532C831.945 201.117 832.12 200.721 832.427 200.442C833.373 199.583 834.89 200.254 834.89 201.531V648.528ZM840.833 648.528C840.833 649.341 840.174 650 839.361 650C838.548 650 837.889 649.341 837.889 648.528V196.126C837.889 195.712 838.063 195.317 838.369 195.038C839.315 194.176 840.833 194.846 840.833 196.125V648.528ZM846.778 648.528C846.778 649.341 846.119 650 845.306 650C844.493 650 843.834 649.341 843.834 648.528V190.701C843.834 190.288 844.008 189.893 844.313 189.615C845.258 188.752 846.778 189.422 846.778 190.702V648.528ZM852.722 648.528C852.722 649.341 852.063 650 851.25 650C850.436 650 849.777 649.341 849.777 648.528V185.265C849.777 184.853 849.951 184.459 850.255 184.18C851.199 183.317 852.722 183.987 852.722 185.267V648.528ZM858.667 648.528C858.667 649.341 858.008 650 857.195 650C856.382 650 855.723 649.341 855.723 648.528V179.815C855.723 179.403 855.895 179.01 856.199 178.731C857.143 177.865 858.667 178.534 858.667 179.815V648.528ZM864.61 648.528C864.61 649.341 863.951 650 863.138 650C862.325 650 861.666 649.341 861.666 648.528V174.355C861.666 173.944 861.838 173.551 862.141 173.272C863.085 172.403 864.61 173.072 864.61 174.354V648.528ZM870.556 648.528C870.556 649.341 869.897 650 869.083 650C868.27 650 867.611 649.341 867.611 648.528V168.879C867.611 168.468 867.783 168.075 868.085 167.797C869.029 166.927 870.556 167.595 870.556 168.878V648.528ZM876.499 648.528C876.499 649.341 875.84 650 875.027 650C874.214 650 873.555 649.341 873.555 648.528V163.39C873.555 162.98 873.726 162.588 874.027 162.31C874.97 161.439 876.499 162.108 876.499 163.391V648.528ZM882.444 648.528C882.444 649.341 881.785 650 880.972 650C880.159 650 879.5 649.341 879.5 648.528V157.891C879.5 157.481 879.671 157.09 879.972 156.812C880.914 155.94 882.444 156.608 882.444 157.892V648.528ZM888.39 648.528C888.39 649.341 887.731 650 886.917 650C886.104 650 885.445 649.341 885.445 648.528V152.384C885.445 151.974 885.616 151.583 885.916 151.305C886.858 150.431 888.39 151.098 888.39 152.383V648.528ZM894.333 648.528C894.333 649.341 893.674 650 892.861 650C892.048 650 891.389 649.341 891.389 648.528V146.866C891.389 146.456 891.559 146.066 891.859 145.787C892.8 144.912 894.333 145.579 894.333 146.865V648.528ZM900.278 648.528C900.278 649.341 899.619 650 898.806 650C897.993 650 897.334 649.341 897.334 648.528V141.335C897.334 140.927 897.504 140.537 897.803 140.258C898.744 139.382 900.278 140.049 900.278 141.336V648.528ZM906.222 648.528C906.222 649.341 905.563 650 904.75 650C903.936 650 903.277 649.341 903.277 648.528V135.799C903.277 135.39 903.447 135.001 903.745 134.722C904.687 133.845 906.222 134.512 906.222 135.799V648.528ZM912.167 648.528C912.167 649.341 911.508 650 910.695 650C909.882 650 909.223 649.341 909.223 648.528V130.251C909.223 129.843 909.392 129.454 909.69 129.175C910.631 128.297 912.167 128.964 912.167 130.251V648.528ZM918.11 648.528C918.11 649.341 917.451 650 916.638 650C915.825 650 915.166 649.341 915.166 648.528V124.699C915.166 124.291 915.335 123.902 915.633 123.624C916.573 122.744 918.11 123.41 918.11 124.698V648.528ZM924.056 648.528C924.056 649.341 923.397 650 922.583 650C921.77 650 921.111 649.341 921.111 648.528V119.135C921.111 118.728 921.28 118.339 921.577 118.06C922.518 117.18 924.056 117.847 924.056 119.135V648.528ZM928.87 111.228C929.289 110.835 929.999 110.898 929.999 111.473V648.528C929.999 649.341 929.34 650 928.527 650C927.714 650 927.055 649.341 927.055 648.528V113.971C927.055 113.306 927.33 112.671 927.815 112.217C928.167 111.887 928.518 111.558 928.87 111.228ZM946.944 648.528C946.944 649.341 946.285 650 945.472 650C944.659 650 944 649.341 944 648.528V97.6565C944 97.2503 944.168 96.8622 944.464 96.584C945.403 95.7005 946.944 96.3665 946.944 97.6563V648.528ZM952.89 648.528C952.89 649.341 952.231 650 951.417 650C950.604 650 949.945 649.341 949.945 648.528V92.066C949.945 91.6602 950.113 91.2724 950.409 90.9944C951.348 90.111 952.89 90.7775 952.89 92.067V648.528ZM958.833 648.528C958.833 649.341 958.174 650 957.361 650C956.548 650 955.889 649.341 955.889 648.528V86.4742C955.889 86.0684 956.056 85.6806 956.352 85.4023C957.291 84.5176 958.833 85.1832 958.833 86.4737V648.528ZM964.778 648.528C964.778 649.341 964.119 650 963.306 650C962.493 650 961.834 649.341 961.834 648.528V80.8732C961.834 80.4676 962.001 80.0801 962.297 79.802C963.236 78.9173 964.778 79.5832 964.778 80.8736V648.528ZM970.722 648.528C970.722 649.341 970.063 650 969.25 650C968.436 650 967.777 649.341 967.777 648.528V75.2743C967.777 74.8689 967.945 74.4815 968.24 74.2034C969.179 73.3184 970.722 73.9845 970.722 75.2749V648.528ZM976.667 648.528C976.667 649.341 976.008 650 975.195 650C974.382 650 973.723 649.341 973.723 648.528V69.6688C973.723 69.2634 973.89 68.876 974.185 68.5979C975.124 67.7124 976.667 68.3781 976.667 69.6689V648.528ZM982.61 648.528C982.61 649.341 981.951 650 981.138 650C980.325 650 979.666 649.341 979.666 648.528V64.0641C979.666 63.6588 979.833 63.2715 980.128 62.9934C981.067 62.1076 982.61 62.7733 982.61 64.0642V648.528ZM988.556 648.528C988.556 649.341 987.897 650 987.083 650C986.27 650 985.611 649.341 985.611 648.528V58.4567C985.611 58.0514 985.778 57.6641 986.073 57.3859C987.012 56.4999 988.556 57.1655 988.556 58.4565V648.528ZM994.499 648.528C994.499 649.341 993.84 650 993.027 650C992.214 650 991.555 649.341 991.555 648.528V52.8482C991.555 52.443 991.722 52.0557 992.016 51.7776C992.955 50.8915 994.499 51.5572 994.499 52.8482V648.528ZM1000.44 648.528C1000.44 649.341 999.785 650 998.972 650C998.159 650 997.5 649.341 997.5 648.528V47.2378C997.5 46.8326 997.667 46.4453 997.962 46.1672C998.901 45.2812 1000.44 45.9468 1000.44 47.2379V648.528ZM1006.39 648.528C1006.39 649.341 1005.73 650 1004.92 650C1004.1 650 1003.45 649.341 1003.45 648.528V41.6285C1003.45 41.2232 1003.61 40.836 1003.91 40.5578C1004.85 39.6717 1006.39 40.3374 1006.39 41.6285V648.528ZM1012.33 648.528C1012.33 649.341 1011.67 650 1010.86 650C1010.05 650 1009.39 649.341 1009.39 648.528V36.0202C1009.39 35.6149 1009.56 35.2275 1009.85 34.9494C1010.79 34.0632 1012.33 34.7288 1012.33 36.02V648.528ZM1018.28 648.528C1018.28 649.341 1017.62 650 1016.81 650C1015.99 650 1015.33 649.341 1015.33 648.528V30.4109C1015.33 30.0055 1015.5 29.6182 1015.8 29.34C1016.74 28.4541 1018.28 29.1198 1018.28 30.4108V648.528ZM1024.22 648.528C1024.22 649.341 1023.56 650 1022.75 650C1021.94 650 1021.28 649.341 1021.28 648.528V24.8064C1021.28 24.401 1021.44 24.0137 1021.74 23.7356C1022.68 22.8502 1024.22 23.5162 1024.22 24.8069V648.528ZM1030.17 648.528C1030.17 649.341 1029.51 650 1028.69 650C1027.88 650 1027.22 649.341 1027.22 648.528V19.2023C1027.22 18.7967 1027.39 18.4091 1027.69 18.1309C1028.62 17.2455 1030.17 17.9113 1030.17 19.2021V648.528ZM1036.11 648.528C1036.11 649.341 1035.45 650 1034.64 650C1033.83 650 1033.17 649.341 1033.17 648.528V13.6008C1033.17 13.1952 1033.33 12.8076 1033.63 12.5295C1034.57 11.6448 1036.11 12.3111 1036.11 13.6014V648.528ZM1042.06 648.528C1042.06 649.341 1041.4 650 1040.58 650C1039.77 650 1039.11 649.341 1039.11 648.528V8.00348C1039.11 7.59764 1039.28 7.20987 1039.57 6.93168C1040.51 6.04726 1042.06 6.71341 1042.06 8.00367V648.528ZM1045.86 1.01217C1046.5 0.411072 1047.59 0.128139 1047.9 0.947134C1047.96 1.11036 1048 1.28763 1048 1.47302V648.528C1048 649.341 1047.34 650 1046.53 650C1045.71 650 1045.05 649.341 1045.05 648.528V2.88288C1045.05 2.1745 1045.35 1.49761 1045.86 1.01217Z"></path>
<path fill="url(#paint1_linear_139_6964)" d="M1.47266 628C2.28554 628.001 2.94434 628.66 2.94434 629.473V648.528C2.94434 649.341 2.28522 650 1.47217 650C0.659112 650 0 649.341 0 648.528V629.473C0 628.66 0.659571 628 1.47266 628ZM8.88965 648.528C8.88965 649.341 8.23054 650 7.41748 650C6.60442 650 5.94531 649.341 5.94531 648.528V628.926C5.94531 628.12 6.59618 627.464 7.40291 627.457C8.22132 627.451 8.88965 628.112 8.88965 628.93V648.528ZM14.833 648.528C14.833 649.341 14.1739 650 13.3608 650C12.5478 650 11.8887 649.341 11.8887 648.528V628.843C11.8887 628.041 12.5327 627.387 13.335 627.373C14.1577 627.359 14.833 628.021 14.833 628.844V648.528ZM20.7783 648.528C20.7783 649.341 20.1192 650 19.3062 650C18.4931 650 17.834 649.341 17.834 648.528V628.718C17.834 627.92 18.4713 627.267 19.269 627.246C20.096 627.224 20.7783 627.887 20.7783 628.715V648.528ZM26.7217 648.528C26.7217 649.341 26.0626 650 25.2495 650C24.4365 650 23.7773 649.341 23.7773 648.528V628.542C23.7773 627.748 24.4079 627.098 25.2011 627.072C26.0323 627.044 26.7217 627.71 26.7217 628.542V648.528ZM32.667 648.528C32.667 649.341 32.0079 650 31.1948 650C30.3818 650 29.7227 649.341 29.7227 648.528V628.321C29.7227 627.532 30.3465 626.884 31.1351 626.852C31.9706 626.819 32.667 627.487 32.667 628.323V648.528ZM38.6104 648.528C38.6104 649.341 37.9512 650 37.1382 650C36.3251 650 35.666 649.341 35.666 648.528V628.056C35.666 627.271 36.2832 626.625 37.0671 626.587C37.9067 626.546 38.6104 627.215 38.6104 628.056V648.528ZM44.5557 648.528C44.5557 649.341 43.8966 650 43.0835 650C42.2704 650 41.6113 649.341 41.6113 648.528V627.748C41.6113 626.968 42.2219 626.323 43.0011 626.278C43.8448 626.229 44.5557 626.899 44.5557 627.744V648.528ZM50.499 648.528C50.499 649.341 49.8399 650 49.0269 650C48.2138 650 47.5547 649.341 47.5547 648.528V627.388C47.5547 626.612 48.1586 625.97 48.9331 625.921C49.781 625.867 50.499 626.54 50.499 627.389V648.528ZM56.4443 648.528C56.4443 649.341 55.7852 650 54.9722 650C54.1591 650 53.5 649.341 53.5 648.528V626.984C53.5 626.212 54.0973 625.572 54.8671 625.517C55.719 625.456 56.4443 626.13 56.4443 626.984V648.528ZM62.3896 648.528C62.3896 649.341 61.7305 650 60.9175 650C60.1044 650 59.4453 649.341 59.4453 648.528V626.536C59.4453 625.768 60.0361 625.13 60.8011 625.069C61.6569 625.001 62.3896 625.676 62.3896 626.535V648.528ZM68.333 648.528C68.333 649.341 67.6739 650 66.8608 650C66.0478 650 65.3887 649.341 65.3887 648.528V626.041C65.3887 625.278 65.973 624.642 66.7331 624.575C67.5929 624.5 68.333 625.177 68.333 626.04V648.528ZM74.2783 648.528C74.2783 649.341 73.6192 650 72.8062 650C71.9931 650 71.334 649.341 71.334 648.528V625.497C71.334 624.739 71.9118 624.105 72.6671 624.034C73.5309 623.954 74.2783 624.632 74.2783 625.5V648.528ZM80.2217 648.528C80.2217 649.341 79.5626 650 78.7495 650C77.9365 650 77.2773 649.341 77.2773 648.528V624.911C77.2773 624.156 77.8488 623.525 78.5992 623.447C79.4667 623.358 80.2217 624.038 80.2217 624.91V648.528ZM86.167 648.528C86.167 649.341 85.5079 650 84.6948 650C83.8818 650 83.2227 649.341 83.2227 648.528V624.279C83.2227 623.529 83.7878 622.899 84.5332 622.816C85.4045 622.719 86.167 623.401 86.167 624.277V648.528ZM92.1104 648.528C92.1104 649.341 91.4512 650 90.6382 650C89.8251 650 89.166 649.341 89.166 648.528V623.597C89.166 622.852 89.7247 622.225 90.4652 622.138C91.3404 622.035 92.1104 622.719 92.1104 623.6V648.528ZM98.0557 648.528C98.0557 649.341 97.3966 650 96.5835 650C95.7704 650 95.1113 649.341 95.1113 648.528V622.87C95.1113 622.129 95.6638 621.504 96.3993 621.411C97.2781 621.3 98.0557 621.985 98.0557 622.87V648.528ZM103.999 648.528C103.999 649.341 103.34 650 102.527 650C101.714 650 101.055 649.341 101.055 648.528V622.1C101.055 621.363 101.601 620.74 102.331 620.641C103.214 620.522 103.999 621.207 103.999 622.098V648.528ZM120.944 648.528C120.944 649.341 120.285 650 119.472 650C118.659 650 118 649.341 118 648.528V619.639C118 618.914 118.529 618.298 119.245 618.186C120.137 618.046 120.944 618.736 120.944 619.639V648.528ZM126.89 648.528C126.89 649.341 126.231 650 125.417 650C124.604 650 123.945 649.341 123.945 648.528V618.689C123.945 617.968 124.468 617.354 125.179 617.237C126.075 617.089 126.89 617.779 126.89 618.687V648.528ZM132.833 648.528C132.833 649.341 132.174 650 131.361 650C130.548 650 129.889 649.341 129.889 648.528V617.688C129.889 616.971 130.405 616.36 131.111 616.24C132.01 616.086 132.833 616.779 132.833 617.691V648.528ZM138.778 648.528C138.778 649.341 138.119 650 137.306 650C136.493 650 135.834 649.341 135.834 648.528V616.642C135.834 615.93 136.345 615.321 137.046 615.195C137.948 615.032 138.778 615.725 138.778 616.642V648.528ZM144.722 648.528C144.722 649.341 144.063 650 143.25 650C142.436 650 141.777 649.341 141.777 648.528V615.554C141.777 614.846 142.282 614.239 142.978 614.107C143.883 613.936 144.722 614.629 144.722 615.551V648.528ZM150.667 648.528C150.667 649.341 150.008 650 149.195 650C148.382 650 147.723 649.341 147.723 648.528V614.412C147.723 613.709 148.222 613.104 148.912 612.969C149.821 612.792 150.667 613.488 150.667 614.414V648.528ZM156.61 648.528C156.61 649.341 155.951 650 155.138 650C154.325 650 153.666 649.341 153.666 648.528V613.226C153.666 612.527 154.159 611.924 154.845 611.785C155.757 611.6 156.61 612.296 156.61 613.227V648.528ZM162.556 648.528C162.556 649.341 161.897 650 161.083 650C160.27 650 159.611 649.341 159.611 648.528V611.998C159.611 611.302 160.099 610.702 160.779 610.557C161.694 610.363 162.556 611.06 162.556 611.995V648.528ZM168.499 648.528C168.499 649.341 167.84 650 167.027 650C166.214 650 165.555 649.341 165.555 648.528V610.715C165.555 610.024 166.036 609.427 166.712 609.28C167.629 609.08 168.499 609.779 168.499 610.718V648.528ZM174.444 648.528C174.444 649.341 173.785 650 172.972 650C172.159 650 171.5 649.341 171.5 648.528V609.39C171.5 608.703 171.976 608.108 172.646 607.956C173.567 607.747 174.444 608.446 174.444 609.39V648.528ZM180.39 648.528C180.39 649.341 179.731 650 178.917 650C178.104 650 177.445 649.341 177.445 648.528V608.02C177.445 607.337 177.916 606.744 178.581 606.587C179.504 606.369 180.39 607.069 180.39 608.018V648.528ZM186.333 648.528C186.333 649.341 185.674 650 184.861 650C184.048 650 183.389 649.341 183.389 648.528V606.598C183.389 605.919 183.854 605.329 184.513 605.169C185.44 604.945 186.333 605.647 186.333 606.6V648.528ZM192.278 648.528C192.278 649.341 191.619 650 190.806 650C189.993 650 189.334 649.341 189.334 648.528V605.132C189.334 604.457 189.794 603.869 190.448 603.705C191.377 603.473 192.278 604.174 192.278 605.132V648.528ZM198.222 648.528C198.222 649.341 197.563 650 196.75 650C195.936 650 195.277 649.341 195.277 648.528V603.622C195.277 602.951 195.732 602.365 196.381 602.197C197.312 601.955 198.222 602.657 198.222 603.619V648.528ZM204.167 648.528C204.167 649.341 203.508 650 202.695 650C201.882 650 201.223 649.341 201.223 648.528V602.059C201.223 601.392 201.671 600.809 202.316 600.639C203.25 600.391 204.167 601.094 204.167 602.061V648.528ZM210.11 648.528C210.11 649.341 209.451 650 208.638 650C207.825 650 207.166 649.341 207.166 648.528V600.454C207.166 599.791 207.61 599.211 208.249 599.035C209.185 598.778 210.11 599.482 210.11 600.453V648.528ZM216.056 648.528C216.056 649.341 215.397 650 214.583 650C213.77 650 213.111 649.341 213.111 648.528V598.802C213.111 598.143 213.55 597.565 214.184 597.386C215.122 597.121 216.056 597.826 216.056 598.802V648.528ZM221.999 648.528C221.999 649.341 221.34 650 220.527 650C219.714 650 219.055 649.341 219.055 648.528V597.101C219.055 596.446 219.488 595.871 220.117 595.689C221.058 595.417 221.999 596.122 221.999 597.102V648.528ZM238.944 648.528C238.944 649.341 238.285 650 237.472 650C236.659 650 236 649.341 236 648.528V591.999C236 591.356 236.419 590.787 237.033 590.596C237.981 590.302 238.944 591.009 238.944 592.002V648.528ZM244.89 648.528C244.89 649.341 244.231 650 243.417 650C242.604 650 241.945 649.341 241.945 648.528V590.121C241.945 589.482 242.359 588.915 242.968 588.72C243.918 588.416 244.89 589.123 244.89 590.12V648.528ZM250.833 648.528C250.833 649.341 250.174 650 249.361 650C248.548 650 247.889 649.341 247.889 648.528V588.196C247.889 587.56 248.298 586.997 248.902 586.799C249.853 586.487 250.833 587.195 250.833 588.196V648.528ZM256.778 648.528C256.778 649.341 256.119 650 255.306 650C254.493 650 253.834 649.341 253.834 648.528V586.223C253.834 585.591 254.238 585.03 254.837 584.83C255.791 584.51 256.778 585.219 256.778 586.224V648.528ZM262.722 648.528C262.722 649.341 262.063 650 261.25 650C260.436 650 259.777 649.341 259.777 648.528V584.207C259.777 583.579 260.177 583.02 260.771 582.815C261.726 582.486 262.722 583.195 262.722 584.205V648.528ZM268.667 648.528C268.667 649.341 268.008 650 267.195 650C266.382 650 265.723 649.341 265.723 648.528V582.139C265.723 581.515 266.117 580.959 266.706 580.753C267.664 580.417 268.667 581.127 268.667 582.141V648.528ZM274.61 648.528C274.61 649.341 273.951 650 273.138 650C272.325 650 271.666 649.341 271.666 648.528V580.028C271.666 579.408 272.056 578.854 272.64 578.644C273.599 578.3 274.61 579.01 274.61 580.029V648.528ZM280.556 648.528C280.556 649.341 279.897 650 279.083 650C278.27 650 277.611 649.341 277.611 648.528V577.873C277.611 577.256 277.997 576.704 278.576 576.492C279.536 576.139 280.556 576.849 280.556 577.872V648.528ZM286.499 648.528C286.499 649.341 285.84 650 285.027 650C284.214 650 283.555 649.341 283.555 648.528V575.668C283.555 575.054 283.935 574.506 284.51 574.291C285.472 573.931 286.499 574.642 286.499 575.669V648.528ZM292.444 648.528C292.444 649.341 291.785 650 290.972 650C290.159 650 289.5 649.341 289.5 648.528V573.419C289.5 572.81 289.877 572.263 290.446 572.045C291.409 571.676 292.444 572.386 292.444 573.418V648.528ZM298.39 648.528C298.39 649.341 297.731 650 296.917 650C296.104 650 295.445 649.341 295.445 648.528V571.122C295.445 570.516 295.817 569.972 296.382 569.752C297.347 569.377 298.39 570.088 298.39 571.123V648.528ZM304.333 648.528C304.333 649.341 303.674 650 302.861 650C302.048 650 301.389 649.341 301.389 648.528V568.781C301.389 568.178 301.756 567.637 302.316 567.414C303.282 567.029 304.333 567.74 304.333 568.78V648.528ZM310.278 648.528C310.278 649.341 309.619 650 308.806 650C307.993 650 307.334 649.341 307.334 648.528V566.394C307.334 565.795 307.697 565.256 308.252 565.031C309.22 564.638 310.278 565.349 310.278 566.393V648.528ZM316.222 648.528C316.222 649.341 315.563 650 314.75 650C313.936 650 313.277 649.341 313.277 648.528V563.959C313.277 563.363 313.636 562.827 314.187 562.6C315.156 562.201 316.222 562.912 316.222 563.96V648.528ZM322.167 648.528C322.167 649.341 321.508 650 320.695 650C319.882 650 319.223 649.341 319.223 648.528V561.482C319.223 560.89 319.578 560.356 320.123 560.126C321.093 559.717 322.167 560.428 322.167 561.481V648.528ZM328.11 648.528C328.11 649.341 327.451 650 326.638 650C325.825 650 325.166 649.341 325.166 648.528V558.957C325.166 558.368 325.517 557.837 326.058 557.606C327.029 557.19 328.11 557.902 328.11 558.958V648.528ZM334.056 648.528C334.056 649.341 333.397 650 332.583 650C331.77 650 331.111 649.341 331.111 648.528V556.387C331.111 555.802 331.458 555.272 331.994 555.038C332.966 554.614 334.056 555.325 334.056 556.386V648.528ZM339.999 648.528C339.999 649.341 339.34 650 338.527 650C337.714 650 337.055 649.341 337.055 648.528V553.772C337.055 553.191 337.398 552.664 337.929 552.428C338.902 551.997 339.999 552.708 339.999 553.773V648.528ZM356.944 648.528C356.944 649.341 356.285 650 355.472 650C354.659 650 354 649.341 354 648.528V546.07C354 545.498 354.332 544.978 354.85 544.737C355.826 544.284 356.944 544.995 356.944 546.071V648.528ZM362.89 648.528C362.89 649.341 362.231 650 361.417 650C360.604 650 359.945 649.341 359.945 648.528V543.281C359.945 542.712 360.273 542.194 360.788 541.951C361.764 541.49 362.89 542.201 362.89 543.281V648.528ZM368.833 648.528C368.833 649.341 368.174 650 367.361 650C366.548 650 365.889 649.341 365.889 648.528V540.45C365.889 539.885 366.213 539.369 366.723 539.124C367.7 538.654 368.833 539.365 368.833 540.449V648.528ZM374.778 648.528C374.778 649.341 374.119 650 373.306 650C372.493 650 371.834 649.341 371.834 648.528V537.571C371.834 537.009 372.155 536.496 372.66 536.249C373.638 535.773 374.778 536.484 374.778 537.572V648.528ZM380.722 648.528C380.722 649.341 380.063 650 379.25 650C378.436 650 377.777 649.341 377.777 648.528V534.652C377.777 534.093 378.095 533.582 378.596 533.333C379.574 532.848 380.722 533.558 380.722 534.65V648.528ZM386.667 648.528C386.667 649.341 386.008 650 385.195 650C384.382 650 383.723 649.341 383.723 648.528V531.684C383.723 531.128 384.036 530.62 384.533 530.37C385.512 529.879 386.667 530.59 386.667 531.685V648.528ZM392.61 648.528C392.61 649.341 391.951 650 391.138 650C390.325 650 389.666 649.341 389.666 648.528V528.674C389.666 528.121 389.976 527.615 390.469 527.364C391.448 526.864 392.61 527.574 392.61 528.673V648.528ZM398.556 648.528C398.556 649.341 397.897 650 397.083 650C396.27 650 395.611 649.341 395.611 648.528V525.62C395.611 525.07 395.918 524.567 396.406 524.314C397.386 523.807 398.556 524.518 398.556 525.62V648.528ZM404.499 648.528C404.499 649.341 403.84 650 403.027 650C402.214 650 401.555 649.341 401.555 648.528V522.523C401.555 521.976 401.858 521.474 402.342 521.22C403.322 520.706 404.499 521.416 404.499 522.522V648.528ZM410.444 648.528C410.444 649.341 409.785 650 408.972 650C408.159 650 407.5 649.341 407.5 648.528V519.382C407.5 518.838 407.8 518.339 408.28 518.084C409.26 517.563 410.444 518.272 410.444 519.382V648.528ZM416.39 648.528C416.39 649.341 415.731 650 414.917 650C414.104 650 413.445 649.341 413.445 648.528V516.197C413.445 515.656 413.742 515.159 414.218 514.902C415.199 514.373 416.39 515.082 416.39 516.196V648.528ZM422.333 648.528C422.333 649.341 421.674 650 420.861 650C420.048 650 419.389 649.341 419.389 648.528V512.973C419.389 512.435 419.682 511.94 420.154 511.681C421.135 511.145 422.333 511.853 422.333 512.971V648.528ZM428.278 648.528C428.278 649.341 427.619 650 426.806 650C425.993 650 425.334 649.341 425.334 648.528V509.699C425.334 509.164 425.624 508.672 426.092 508.413C427.073 507.87 428.278 508.579 428.278 509.7V648.528ZM434.222 648.528C434.222 649.341 433.563 650 432.75 650C431.936 650 431.277 649.341 431.277 648.528V506.388C431.277 505.856 431.565 505.366 432.029 505.105C433.01 504.555 434.222 505.263 434.222 506.387V648.528ZM440.167 648.528C440.167 649.341 439.508 650 438.695 650C437.882 650 437.223 649.341 437.223 648.528V503.031C437.223 502.502 437.507 502.014 437.967 501.753C438.948 501.197 440.167 501.905 440.167 503.033V648.528ZM446.11 648.528C446.11 649.341 445.451 650 444.638 650C443.825 650 443.166 649.341 443.166 648.528V499.636C443.166 499.109 443.447 498.623 443.904 498.361C444.885 497.796 446.11 498.503 446.11 499.635V648.528ZM452.056 648.528C452.056 649.341 451.397 650 450.583 650C449.77 650 449.111 649.341 449.111 648.528V496.196C449.111 495.672 449.39 495.188 449.842 494.925C450.823 494.354 452.056 495.061 452.056 496.196V648.528ZM457.999 648.528C457.999 649.341 457.34 650 456.527 650C455.714 650 455.055 649.341 455.055 648.528V492.715C455.055 492.194 455.33 491.712 455.779 491.448C456.76 490.869 457.999 491.576 457.999 492.714V648.528ZM474.944 648.528C474.944 649.341 474.285 650 473.472 650C472.659 650 472 649.341 472 648.528V482.564C472 482.051 472.268 481.575 472.706 481.308C473.687 480.711 474.944 481.416 474.944 482.564V648.528ZM480.89 648.528C480.89 649.341 480.231 650 479.417 650C478.604 650 477.945 649.341 477.945 648.528V478.924C477.945 478.413 478.21 477.939 478.645 477.672C479.625 477.068 480.89 477.773 480.89 478.924V648.528ZM486.833 648.528C486.833 649.341 486.174 650 485.361 650C484.548 650 483.889 649.341 483.889 648.528V475.245C483.889 474.737 484.151 474.265 484.582 473.996C485.563 473.386 486.833 474.089 486.833 475.244V648.528ZM492.778 648.528C492.778 649.341 492.119 650 491.306 650C490.493 650 489.834 649.341 489.834 648.528V471.523C489.834 471.017 490.094 470.547 490.521 470.278C491.501 469.662 492.778 470.366 492.778 471.523V648.528ZM498.722 648.528C498.722 649.341 498.063 650 497.25 650C496.436 650 495.777 649.341 495.777 648.528V467.763C495.777 467.26 496.034 466.792 496.459 466.522C497.439 465.899 498.722 466.602 498.722 467.763V648.528ZM504.667 648.528C504.667 649.341 504.008 650 503.195 650C502.382 650 501.723 649.341 501.723 648.528V463.962C501.723 463.461 501.977 462.995 502.398 462.725C503.378 462.096 504.667 462.799 504.667 463.963V648.528ZM510.61 648.528C510.61 649.341 509.951 650 509.138 650C508.325 650 507.666 649.341 507.666 648.528V460.124C507.666 459.625 507.918 459.161 508.336 458.89C509.315 458.254 510.61 458.955 510.61 460.123V648.528ZM516.556 648.528C516.556 649.341 515.897 650 515.083 650C514.27 650 513.611 649.341 513.611 648.528V456.244C513.611 455.748 513.861 455.286 514.276 455.014C515.254 454.373 516.556 455.074 516.556 456.245V648.528ZM522.499 648.528C522.499 649.341 521.84 650 521.027 650C520.214 650 519.555 649.341 519.555 648.528V452.327C519.555 451.833 519.802 451.373 520.213 451.1C521.192 450.452 522.499 451.153 522.499 452.326V648.528ZM528.444 648.528C528.444 649.341 527.785 650 526.972 650C526.159 650 525.5 649.341 525.5 648.528V448.369C525.5 447.878 525.745 447.42 526.153 447.147C527.131 446.493 528.444 447.194 528.444 448.37V648.528ZM534.39 648.528C534.39 649.341 533.731 650 532.917 650C532.104 650 531.445 649.341 531.445 648.528V444.375C531.445 443.886 531.688 443.43 532.093 443.156C533.07 442.496 534.39 443.196 534.39 444.375V648.528ZM540.333 648.528C540.333 649.341 539.674 650 538.861 650C538.048 650 537.389 649.341 537.389 648.528V440.343C537.389 439.857 537.629 439.402 538.031 439.128C539.008 438.463 540.333 439.162 540.333 440.344V648.528ZM546.278 648.528C546.278 649.341 545.619 650 544.806 650C543.993 650 543.334 649.341 543.334 648.528V436.273C543.334 435.789 543.572 435.336 543.971 435.061C544.948 434.389 546.278 435.087 546.278 436.273V648.528ZM552.222 648.528C552.222 649.341 551.563 650 550.75 650C549.936 650 549.277 649.341 549.277 648.528V432.166C549.277 431.684 549.513 431.233 549.909 430.958C550.885 430.282 552.222 430.979 552.222 432.167V648.528ZM558.167 648.528C558.167 649.341 557.508 650 556.695 650C555.882 650 555.223 649.341 555.223 648.528V428.022C555.223 427.542 555.457 427.093 555.85 426.817C556.825 426.134 558.167 426.831 558.167 428.022V648.528ZM564.11 648.528C564.11 649.341 563.451 650 562.638 650C561.825 650 561.166 649.341 561.166 648.528V423.842C561.166 423.365 561.398 422.917 561.788 422.641C562.763 421.953 564.11 422.649 564.11 423.843V648.528ZM570.056 648.528C570.056 649.341 569.397 650 568.583 650C567.77 650 567.111 649.341 567.111 648.528V419.624C567.111 419.148 567.341 418.702 567.729 418.426C568.703 417.732 570.056 418.428 570.056 419.624V648.528ZM575.999 648.528C575.999 649.341 575.34 650 574.527 650C573.714 650 573.055 649.341 573.055 648.528V415.373C573.055 414.899 573.283 414.455 573.667 414.179C574.641 413.479 575.999 414.175 575.999 415.373V648.528ZM592.944 648.528C592.944 649.341 592.285 650 591.472 650C590.659 650 590 649.341 590 648.528V403.056C590 402.588 590.223 402.148 590.6 401.871C591.572 401.157 592.944 401.85 592.944 403.056V648.528ZM598.89 648.528C598.89 649.341 598.231 650 597.417 650C596.604 650 595.945 649.341 595.945 648.528V398.67C595.945 398.204 596.166 397.766 596.541 397.488C597.512 396.768 598.89 397.46 598.89 398.669V648.528ZM604.833 648.528C604.833 649.341 604.174 650 603.361 650C602.548 650 601.889 649.341 601.889 648.528V394.248C601.889 393.784 602.108 393.347 602.48 393.069C603.45 392.345 604.833 393.037 604.833 394.248V648.528ZM610.778 648.528C610.778 649.341 610.119 650 609.306 650C608.493 650 607.834 649.341 607.834 648.528V389.793C607.834 389.331 608.051 388.896 608.421 388.618C609.391 387.888 610.778 388.578 610.778 389.793V648.528ZM616.722 648.528C616.722 649.341 616.063 650 615.25 650C614.436 650 613.777 649.341 613.777 648.528V385.303C613.777 384.843 613.993 384.409 614.36 384.132C615.329 383.397 616.722 384.088 616.722 385.304V648.528ZM622.667 648.528C622.667 649.341 622.008 650 621.195 650C620.382 650 619.723 649.341 619.723 648.528V380.785C619.723 380.326 619.937 379.894 620.301 379.615C621.27 378.876 622.667 379.566 622.667 380.784V648.528ZM628.61 648.528C628.61 649.341 627.951 650 627.138 650C626.325 650 625.666 649.341 625.666 648.528V376.23C625.666 375.773 625.878 375.342 626.24 375.064C627.208 374.32 628.61 375.01 628.61 376.231V648.528ZM634.556 648.528C634.556 649.341 633.897 650 633.083 650C632.27 650 631.611 649.341 631.611 648.528V371.646C631.611 371.191 631.822 370.761 632.182 370.482C633.149 369.733 634.556 370.422 634.556 371.645V648.528ZM640.499 648.528C640.499 649.341 639.84 650 639.027 650C638.214 650 637.555 649.341 637.555 648.528V367.027C637.555 366.573 637.764 366.145 638.121 365.866C639.088 365.113 640.499 365.801 640.499 367.027V648.528ZM646.444 648.528C646.444 649.341 645.785 650 644.972 650C644.159 650 643.5 649.341 643.5 648.528V362.379C643.5 361.927 643.708 361.501 644.063 361.222C645.029 360.464 646.444 361.152 646.444 362.379V648.528ZM652.39 648.528C652.39 649.341 651.731 650 650.917 650C650.104 650 649.445 649.341 649.445 648.528V357.699C649.445 357.248 649.651 356.823 650.005 356.544C650.97 355.782 652.39 356.468 652.39 357.698V648.528ZM658.333 648.528C658.333 649.341 657.674 650 656.861 650C656.048 650 655.389 649.341 655.389 648.528V352.99C655.389 352.541 655.593 352.117 655.944 351.838C656.909 351.072 658.333 351.758 658.333 352.99V648.528ZM664.278 648.528C664.278 649.341 663.619 650 662.806 650C661.993 650 661.334 649.341 661.334 648.528V348.25C661.334 347.803 661.537 347.38 661.886 347.101C662.85 346.33 664.278 347.015 664.278 348.249V648.528ZM670.222 648.528C670.222 649.341 669.563 650 668.75 650C667.936 650 667.277 649.341 667.277 648.528V343.482C667.277 343.037 667.479 342.616 667.826 342.336C668.789 341.562 670.222 342.247 670.222 343.482V648.528ZM676.167 648.528C676.167 649.341 675.508 650 674.695 650C673.882 650 673.223 649.341 673.223 648.528V338.683C673.223 338.239 673.423 337.819 673.768 337.539C674.73 336.76 676.167 337.445 676.167 338.683V648.528ZM682.11 648.528C682.11 649.341 681.451 650 680.638 650C679.825 650 679.166 649.341 679.166 648.528V333.857C679.166 333.414 679.365 332.996 679.708 332.716C680.67 331.934 682.11 332.618 682.11 333.858V648.528ZM688.056 648.528C688.056 649.341 687.397 650 686.583 650C685.77 650 685.111 649.341 685.111 648.528V329.002C685.111 328.561 685.309 328.143 685.65 327.864C686.611 327.077 688.056 327.76 688.056 329.002V648.528ZM693.999 648.528C693.999 649.341 693.34 650 692.527 650C691.714 650 691.055 649.341 691.055 648.528V324.12C691.055 323.681 691.251 323.264 691.59 322.985C692.551 322.195 693.999 322.878 693.999 324.121V648.528ZM710.944 648.528C710.944 649.341 710.285 650 709.472 650C708.659 650 708 649.341 708 648.528V310.054C708 309.618 708.193 309.205 708.527 308.926C709.485 308.125 710.944 308.806 710.944 310.054V648.528ZM716.89 648.528C716.89 649.341 716.231 650 715.417 650C714.604 650 713.945 649.341 713.945 648.528V305.07C713.945 304.636 714.137 304.224 714.47 303.944C715.427 303.139 716.89 303.819 716.89 305.07V648.528ZM722.833 648.528C722.833 649.341 722.174 650 721.361 650C720.548 650 719.889 649.341 719.889 648.528V300.06C719.889 299.627 720.079 299.216 720.41 298.937C721.367 298.128 722.833 298.808 722.833 300.061V648.528ZM728.778 648.528C728.778 649.341 728.119 650 727.306 650C726.493 650 725.834 649.341 725.834 648.528V295.026C725.834 294.594 726.024 294.184 726.353 293.905C727.309 293.093 728.778 293.772 728.778 295.026V648.528ZM734.722 648.528C734.722 649.341 734.063 650 733.25 650C732.436 650 731.777 649.341 731.777 648.528V289.966C731.777 289.536 731.966 289.127 732.294 288.847C733.249 288.032 734.722 288.71 734.722 289.966V648.528ZM740.667 648.528C740.667 649.341 740.008 650 739.195 650C738.382 650 737.723 649.341 737.723 648.528V284.884C737.723 284.455 737.91 284.047 738.236 283.767C739.191 282.949 740.667 283.627 740.667 284.885V648.528ZM746.61 648.528C746.61 649.341 745.951 650 745.138 650C744.325 650 743.666 649.341 743.666 648.528V279.779C743.666 279.35 743.853 278.943 744.177 278.663C745.132 277.841 746.61 278.518 746.61 279.777V648.528ZM752.556 648.528C752.556 649.341 751.897 650 751.083 650C750.27 650 749.611 649.341 749.611 648.528V274.645C749.611 274.218 749.797 273.812 750.12 273.532C751.073 272.709 752.556 273.386 752.556 274.646V648.528ZM758.499 648.528C758.499 649.341 757.84 650 757.027 650C756.214 650 755.555 649.341 755.555 648.528V269.493C755.555 269.067 755.739 268.662 756.061 268.383C757.014 267.556 758.499 268.233 758.499 269.495V648.528ZM764.444 648.528C764.444 649.341 763.785 650 762.972 650C762.159 650 761.5 649.341 761.5 648.528V264.322C761.5 263.897 761.684 263.492 762.004 263.213C762.957 262.382 764.444 263.057 764.444 264.321V648.528ZM770.39 648.528C770.39 649.341 769.731 650 768.917 650C768.104 650 767.445 649.341 767.445 648.528V259.128C767.445 258.704 767.628 258.3 767.947 258.02C768.899 257.186 770.39 257.861 770.39 259.126V648.528ZM776.333 648.528C776.333 649.341 775.674 650 774.861 650C774.048 650 773.389 649.341 773.389 648.528V253.91C773.389 253.487 773.571 253.085 773.888 252.805C774.839 251.97 776.333 252.645 776.333 253.911V648.528ZM782.278 648.528C782.278 649.341 781.619 650 780.806 650C779.993 650 779.334 649.341 779.334 648.528V248.673C779.334 248.251 779.515 247.849 779.832 247.57C780.782 246.732 782.278 247.407 782.278 248.674V648.528ZM788.222 648.528C788.222 649.341 787.563 650 786.75 650C785.936 650 785.277 649.341 785.277 648.528V243.42C785.277 242.998 785.458 242.597 785.773 242.318C786.723 241.477 788.222 242.15 788.222 243.419V648.528ZM794.167 648.528C794.167 649.341 793.508 650 792.695 650C791.882 650 791.223 649.341 791.223 648.528V238.147C791.223 237.726 791.402 237.326 791.717 237.047C792.666 236.202 794.167 236.874 794.167 238.145V648.528ZM800.11 648.528C800.11 649.341 799.451 650 798.638 650C797.825 650 797.166 649.341 797.166 648.528V232.852C797.166 232.433 797.345 232.033 797.658 231.754C798.607 230.908 800.11 231.581 800.11 232.852V648.528ZM806.056 648.528C806.056 649.341 805.397 650 804.583 650C803.77 650 803.111 649.341 803.111 648.528V227.538C803.111 227.119 803.289 226.721 803.601 226.442C804.549 225.594 806.056 226.267 806.056 227.539V648.528ZM811.999 648.528C811.999 649.341 811.34 650 810.527 650C809.714 650 809.055 649.341 809.055 648.528V222.209C809.055 221.792 809.232 221.394 809.543 221.115C810.49 220.264 811.999 220.936 811.999 222.209V648.528ZM828.944 648.528C828.944 649.341 828.285 650 827.472 650C826.659 650 826 649.341 826 648.528V206.924C826 206.509 826.175 206.113 826.483 205.834C827.429 204.978 828.944 205.649 828.944 206.926V648.528ZM834.89 648.528C834.89 649.341 834.231 650 833.417 650C832.604 650 831.945 649.341 831.945 648.528V201.532C831.945 201.117 832.12 200.721 832.427 200.442C833.373 199.583 834.89 200.254 834.89 201.531V648.528ZM840.833 648.528C840.833 649.341 840.174 650 839.361 650C838.548 650 837.889 649.341 837.889 648.528V196.126C837.889 195.712 838.063 195.317 838.369 195.038C839.315 194.176 840.833 194.846 840.833 196.125V648.528ZM846.778 648.528C846.778 649.341 846.119 650 845.306 650C844.493 650 843.834 649.341 843.834 648.528V190.701C843.834 190.288 844.008 189.893 844.313 189.615C845.258 188.752 846.778 189.422 846.778 190.702V648.528ZM852.722 648.528C852.722 649.341 852.063 650 851.25 650C850.436 650 849.777 649.341 849.777 648.528V185.265C849.777 184.853 849.951 184.459 850.255 184.18C851.199 183.317 852.722 183.987 852.722 185.267V648.528ZM858.667 648.528C858.667 649.341 858.008 650 857.195 650C856.382 650 855.723 649.341 855.723 648.528V179.815C855.723 179.403 855.895 179.01 856.199 178.731C857.143 177.865 858.667 178.534 858.667 179.815V648.528ZM864.61 648.528C864.61 649.341 863.951 650 863.138 650C862.325 650 861.666 649.341 861.666 648.528V174.355C861.666 173.944 861.838 173.551 862.141 173.272C863.085 172.403 864.61 173.072 864.61 174.354V648.528ZM870.556 648.528C870.556 649.341 869.897 650 869.083 650C868.27 650 867.611 649.341 867.611 648.528V168.879C867.611 168.468 867.783 168.075 868.085 167.797C869.029 166.927 870.556 167.595 870.556 168.878V648.528ZM876.499 648.528C876.499 649.341 875.84 650 875.027 650C874.214 650 873.555 649.341 873.555 648.528V163.39C873.555 162.98 873.726 162.588 874.027 162.31C874.97 161.439 876.499 162.108 876.499 163.391V648.528ZM882.444 648.528C882.444 649.341 881.785 650 880.972 650C880.159 650 879.5 649.341 879.5 648.528V157.891C879.5 157.481 879.671 157.09 879.972 156.812C880.914 155.94 882.444 156.608 882.444 157.892V648.528ZM888.39 648.528C888.39 649.341 887.731 650 886.917 650C886.104 650 885.445 649.341 885.445 648.528V152.384C885.445 151.974 885.616 151.583 885.916 151.305C886.858 150.431 888.39 151.098 888.39 152.383V648.528ZM894.333 648.528C894.333 649.341 893.674 650 892.861 650C892.048 650 891.389 649.341 891.389 648.528V146.866C891.389 146.456 891.559 146.066 891.859 145.787C892.8 144.912 894.333 145.579 894.333 146.865V648.528ZM900.278 648.528C900.278 649.341 899.619 650 898.806 650C897.993 650 897.334 649.341 897.334 648.528V141.335C897.334 140.927 897.504 140.537 897.803 140.258C898.744 139.382 900.278 140.049 900.278 141.336V648.528ZM906.222 648.528C906.222 649.341 905.563 650 904.75 650C903.936 650 903.277 649.341 903.277 648.528V135.799C903.277 135.39 903.447 135.001 903.745 134.722C904.687 133.845 906.222 134.512 906.222 135.799V648.528ZM912.167 648.528C912.167 649.341 911.508 650 910.695 650C909.882 650 909.223 649.341 909.223 648.528V130.251C909.223 129.843 909.392 129.454 909.69 129.175C910.631 128.297 912.167 128.964 912.167 130.251V648.528ZM918.11 648.528C918.11 649.341 917.451 650 916.638 650C915.825 650 915.166 649.341 915.166 648.528V124.699C915.166 124.291 915.335 123.902 915.633 123.624C916.573 122.744 918.11 123.41 918.11 124.698V648.528ZM924.056 648.528C924.056 649.341 923.397 650 922.583 650C921.77 650 921.111 649.341 921.111 648.528V119.135C921.111 118.728 921.28 118.339 921.577 118.06C922.518 117.18 924.056 117.847 924.056 119.135V648.528ZM928.87 111.228C929.289 110.835 929.999 110.898 929.999 111.473V648.528C929.999 649.341 929.34 650 928.527 650C927.714 650 927.055 649.341 927.055 648.528V113.971C927.055 113.306 927.33 112.671 927.815 112.217C928.167 111.887 928.518 111.558 928.87 111.228ZM946.944 648.528C946.944 649.341 946.285 650 945.472 650C944.659 650 944 649.341 944 648.528V97.6565C944 97.2503 944.168 96.8622 944.464 96.584C945.403 95.7005 946.944 96.3665 946.944 97.6563V648.528ZM952.89 648.528C952.89 649.341 952.231 650 951.417 650C950.604 650 949.945 649.341 949.945 648.528V92.066C949.945 91.6602 950.113 91.2724 950.409 90.9944C951.348 90.111 952.89 90.7775 952.89 92.067V648.528ZM958.833 648.528C958.833 649.341 958.174 650 957.361 650C956.548 650 955.889 649.341 955.889 648.528V86.4742C955.889 86.0684 956.056 85.6806 956.352 85.4023C957.291 84.5176 958.833 85.1832 958.833 86.4737V648.528ZM964.778 648.528C964.778 649.341 964.119 650 963.306 650C962.493 650 961.834 649.341 961.834 648.528V80.8732C961.834 80.4676 962.001 80.0801 962.297 79.802C963.236 78.9173 964.778 79.5832 964.778 80.8736V648.528ZM970.722 648.528C970.722 649.341 970.063 650 969.25 650C968.436 650 967.777 649.341 967.777 648.528V75.2743C967.777 74.8689 967.945 74.4815 968.24 74.2034C969.179 73.3184 970.722 73.9845 970.722 75.2749V648.528ZM976.667 648.528C976.667 649.341 976.008 650 975.195 650C974.382 650 973.723 649.341 973.723 648.528V69.6688C973.723 69.2634 973.89 68.876 974.185 68.5979C975.124 67.7124 976.667 68.3781 976.667 69.6689V648.528ZM982.61 648.528C982.61 649.341 981.951 650 981.138 650C980.325 650 979.666 649.341 979.666 648.528V64.0641C979.666 63.6588 979.833 63.2715 980.128 62.9934C981.067 62.1076 982.61 62.7733 982.61 64.0642V648.528ZM988.556 648.528C988.556 649.341 987.897 650 987.083 650C986.27 650 985.611 649.341 985.611 648.528V58.4567C985.611 58.0514 985.778 57.6641 986.073 57.3859C987.012 56.4999 988.556 57.1655 988.556 58.4565V648.528ZM994.499 648.528C994.499 649.341 993.84 650 993.027 650C992.214 650 991.555 649.341 991.555 648.528V52.8482C991.555 52.443 991.722 52.0557 992.016 51.7776C992.955 50.8915 994.499 51.5572 994.499 52.8482V648.528ZM1000.44 648.528C1000.44 649.341 999.785 650 998.972 650C998.159 650 997.5 649.341 997.5 648.528V47.2378C997.5 46.8326 997.667 46.4453 997.962 46.1672C998.901 45.2812 1000.44 45.9468 1000.44 47.2379V648.528ZM1006.39 648.528C1006.39 649.341 1005.73 650 1004.92 650C1004.1 650 1003.45 649.341 1003.45 648.528V41.6285C1003.45 41.2232 1003.61 40.836 1003.91 40.5578C1004.85 39.6717 1006.39 40.3374 1006.39 41.6285V648.528ZM1012.33 648.528C1012.33 649.341 1011.67 650 1010.86 650C1010.05 650 1009.39 649.341 1009.39 648.528V36.0202C1009.39 35.6149 1009.56 35.2275 1009.85 34.9494C1010.79 34.0632 1012.33 34.7288 1012.33 36.02V648.528ZM1018.28 648.528C1018.28 649.341 1017.62 650 1016.81 650C1015.99 650 1015.33 649.341 1015.33 648.528V30.4109C1015.33 30.0055 1015.5 29.6182 1015.8 29.34C1016.74 28.4541 1018.28 29.1198 1018.28 30.4108V648.528ZM1024.22 648.528C1024.22 649.341 1023.56 650 1022.75 650C1021.94 650 1021.28 649.341 1021.28 648.528V24.8064C1021.28 24.401 1021.44 24.0137 1021.74 23.7356C1022.68 22.8502 1024.22 23.5162 1024.22 24.8069V648.528ZM1030.17 648.528C1030.17 649.341 1029.51 650 1028.69 650C1027.88 650 1027.22 649.341 1027.22 648.528V19.2023C1027.22 18.7967 1027.39 18.4091 1027.69 18.1309C1028.62 17.2455 1030.17 17.9113 1030.17 19.2021V648.528ZM1036.11 648.528C1036.11 649.341 1035.45 650 1034.64 650C1033.83 650 1033.17 649.341 1033.17 648.528V13.6008C1033.17 13.1952 1033.33 12.8076 1033.63 12.5295C1034.57 11.6448 1036.11 12.3111 1036.11 13.6014V648.528ZM1042.06 648.528C1042.06 649.341 1041.4 650 1040.58 650C1039.77 650 1039.11 649.341 1039.11 648.528V8.00348C1039.11 7.59764 1039.28 7.20987 1039.57 6.93168C1040.51 6.04726 1042.06 6.71341 1042.06 8.00367V648.528ZM1045.86 1.01217C1046.5 0.411072 1047.59 0.128139 1047.9 0.947134C1047.96 1.11036 1048 1.28763 1048 1.47302V648.528C1048 649.341 1047.34 650 1046.53 650C1045.71 650 1045.05 649.341 1045.05 648.528V2.88288C1045.05 2.1745 1045.35 1.49761 1045.86 1.01217Z"></path>
<defs>
<linearGradient gradientUnits="userSpaceOnUse" y2="0.380323" x2="1046.53" y1="650" x1="1046.53" id="paint0_linear_139_6964">
<stop stop-color="#F7D379"></stop>
<stop stop-color="#E9BE65" offset="0.130208"></stop>
<stop stop-color="#F5E583" offset="0.234375"></stop>
<stop stop-color="#C89447" offset="0.387985"></stop>
<stop stop-color="#DCAB57" offset="0.4606"></stop>
<stop stop-color="#D6A453" offset="0.546183"></stop>
<stop stop-color="#F7D87B" offset="0.639546"></stop>
<stop stop-color="#A57331" offset="0.735503"></stop>
<stop stop-color="#C18D42" offset="0.834053"></stop>
<stop stop-color="#C08A41" offset="1"></stop>
</linearGradient>
<linearGradient gradientUnits="userSpaceOnUse" y2="776.544" x2="-85.0759" y1="0.380234" x1="1046.53" id="paint1_linear_139_6964">
<stop stop-opacity="0" offset="0.259615"></stop>
<stop offset="1"></stop>
</linearGradient>
</defs>
</svg>
