<svg xmlns="http://www.w3.org/2000/svg" fill="none" viewBox="0 0 26 26" height="26" width="26">
<path fill="black" d="M0.474609 0.5H25.4746V25.5H0.474609V0.5ZM8.28145 4.46701C9.67208 3.70192 11.2696 3.26404 12.9706 3.26404C18.3527 3.26404 22.7146 7.62599 22.7146 13.0081C22.7146 18.3901 18.3527 22.7521 12.9706 22.7521C7.58855 22.7521 3.2266 18.3877 3.2266 13.0081C3.2266 12.1708 3.33246 11.3576 3.53215 10.5829H4.78323C4.55467 11.3504 4.42956 12.166 4.42956 13.0081C4.42956 17.7189 8.2598 21.5491 12.9706 21.5491C17.6814 21.5491 21.5117 17.7189 21.5117 13.0081C21.5117 8.29725 17.679 4.46701 12.9706 4.46701H8.28145ZM5.36059 6.92653C5.70704 6.49346 6.09199 6.09167 6.50581 5.72356H12.9681C16.9908 5.72356 20.2533 8.986 20.2533 13.0087C20.2533 17.0314 16.9908 20.2939 12.9681 20.2939C8.94542 20.2939 5.68299 17.0338 5.68299 13.0087C5.68299 12.1594 5.82975 11.3414 6.09921 10.5835H7.39119C7.06639 11.327 6.88595 12.1474 6.88595 13.0087C6.88595 16.3626 9.61427 19.0909 12.9681 19.0909C16.322 19.0909 19.0503 16.3626 19.0503 13.0087C19.0503 9.65485 16.322 6.92653 12.9681 6.92653H5.36059ZM12.9734 9.34987C14.9872 9.34987 16.6256 10.9883 16.6256 13.0021C16.6256 15.0158 14.9872 16.6543 12.9734 16.6543C10.9596 16.6543 9.32121 15.0158 9.32121 13.0021C9.32121 12.071 9.67488 11.2217 10.2499 10.5769H8.77025C8.35643 11.2915 8.11584 12.1191 8.11584 13.0021C8.11584 15.6847 10.2908 17.8572 12.971 17.8572C15.6512 17.8572 17.8262 15.6823 17.8262 13.0021C17.8262 10.3219 15.6512 8.14691 12.971 8.14691H4.531C4.30966 8.53186 4.11237 8.93365 3.94396 9.34987H12.9734Z" clip-rule="evenodd" fill-rule="evenodd" id="Subtract"></path>
</svg>
