<svg width="137" height="131" viewBox="0 0 137 131" fill="none" xmlns="http://www.w3.org/2000/svg">
<rect x="98.5" y="92.5" width="38" height="38" rx="19" fill="white" stroke="black"/>
<path d="M0.333333 3C0.333333 4.47276 1.52724 5.66667 3 5.66667C4.47276 5.66667 5.66667 4.47276 5.66667 3C5.66667 1.52724 4.47276 0.333333 3 0.333333C1.52724 0.333333 0.333333 1.52724 0.333333 3ZM95.3333 111.5C95.3333 112.973 96.5272 114.167 98 114.167C99.4728 114.167 100.667 112.973 100.667 111.5C100.667 110.027 99.4728 108.833 98 108.833C96.5272 108.833 95.3333 110.027 95.3333 111.5ZM3 3.5H5.9375V2.5H3V3.5ZM11.8125 3.5H17.6875V2.5H11.8125V3.5ZM23.5625 3.5H26.5V2.5H23.5625V3.5ZM26.5 3.5C27.5407 3.5 28.5654 3.56762 29.57 3.69865L29.6993 2.70706C28.652 2.57044 27.5841 2.5 26.5 2.5V3.5ZM35.4954 5.283C37.4056 6.07513 39.1889 7.11209 40.8062 8.35487L41.4155 7.56195C39.7298 6.26654 37.8705 5.18535 35.8784 4.35927L35.4954 5.283ZM45.1451 12.6938C46.3879 14.3111 47.4249 16.0944 48.217 18.0046L49.1407 17.6216C48.3147 15.6295 47.2335 13.7703 45.938 12.0845L45.1451 12.6938ZM49.8013 23.9301C49.9324 24.9346 50 25.9593 50 27H51C51 25.9159 50.9296 24.848 50.7929 23.8007L49.8013 23.9301ZM50 27V30.025H51V27H50ZM50 36.075V42.125H51V36.075H50ZM50 48.175V54.225H51V48.175H50ZM50 60.275V66.325H51V60.275H50ZM50 72.375V78.425H51V72.375H50ZM50 84.475V87.5H51V84.475H50ZM50 87.5C50 88.5841 50.0704 89.652 50.2071 90.6993L51.1987 90.57C51.0676 89.5654 51 88.5407 51 87.5H50ZM51.8593 96.8784C52.6853 98.8705 53.7665 100.73 55.062 102.415L55.8549 101.806C54.6121 100.189 53.5751 98.4056 52.783 96.4954L51.8593 96.8784ZM59.5845 106.938C61.2703 108.233 63.1295 109.315 65.1216 110.141L65.5046 109.217C63.5944 108.425 61.8111 107.388 60.1938 106.145L59.5845 106.938ZM71.3007 111.793C72.348 111.93 73.4159 112 74.5 112V111C73.4593 111 72.4346 110.932 71.4301 110.801L71.3007 111.793ZM74.5 112H77.4375V111H74.5V112ZM83.3125 112H89.1875V111H83.3125V112ZM95.0625 112H98V111H95.0625V112Z" fill="black"/>
<path d="M106.572 110.62C106.572 108.327 106.945 106.54 107.692 105.26C108.439 103.967 109.745 103.32 111.612 103.32C113.465 103.32 114.765 103.967 115.512 105.26C116.259 106.54 116.632 108.327 116.632 110.62C116.632 112.953 116.259 114.767 115.512 116.06C114.765 117.353 113.465 118 111.612 118C109.745 118 108.439 117.353 107.692 116.06C106.945 114.767 106.572 112.953 106.572 110.62ZM114.832 110.62C114.832 109.46 114.752 108.48 114.592 107.68C114.445 106.867 114.132 106.213 113.652 105.72C113.185 105.227 112.505 104.98 111.612 104.98C110.705 104.98 110.012 105.227 109.532 105.72C109.065 106.213 108.752 106.867 108.592 107.68C108.445 108.48 108.372 109.46 108.372 110.62C108.372 111.82 108.445 112.827 108.592 113.64C108.752 114.453 109.065 115.107 109.532 115.6C110.012 116.093 110.705 116.34 111.612 116.34C112.505 116.34 113.185 116.093 113.652 115.6C114.132 115.107 114.445 114.453 114.592 113.64C114.752 112.827 114.832 111.82 114.832 110.62ZM119.091 107.18C119.184 105.953 119.657 104.993 120.511 104.3C121.364 103.607 122.471 103.26 123.831 103.26C124.737 103.26 125.517 103.427 126.171 103.76C126.837 104.08 127.337 104.52 127.671 105.08C128.017 105.64 128.191 106.273 128.191 106.98C128.191 107.807 127.951 108.52 127.471 109.12C127.004 109.72 126.391 110.107 125.631 110.28V110.38C126.497 110.593 127.184 111.013 127.691 111.64C128.197 112.267 128.451 113.087 128.451 114.1C128.451 114.86 128.277 115.547 127.931 116.16C127.584 116.76 127.064 117.233 126.371 117.58C125.677 117.927 124.844 118.1 123.871 118.1C122.457 118.1 121.297 117.733 120.391 117C119.484 116.253 118.977 115.2 118.871 113.84H120.631C120.724 114.64 121.051 115.293 121.611 115.8C122.171 116.307 122.917 116.56 123.851 116.56C124.784 116.56 125.491 116.32 125.971 115.84C126.464 115.347 126.711 114.713 126.711 113.94C126.711 112.94 126.377 112.22 125.711 111.78C125.044 111.34 124.037 111.12 122.691 111.12H122.231V109.6H122.711C123.937 109.587 124.864 109.387 125.491 109C126.117 108.6 126.431 107.987 126.431 107.16C126.431 106.453 126.197 105.887 125.731 105.46C125.277 105.033 124.624 104.82 123.771 104.82C122.944 104.82 122.277 105.033 121.771 105.46C121.264 105.887 120.964 106.46 120.871 107.18H119.091Z" fill="black"/>
</svg>
