<svg width="137" height="68" viewBox="0 0 137 68" fill="none" xmlns="http://www.w3.org/2000/svg">
<rect x="98.5" y="0.5" width="38" height="38" rx="19" fill="white" stroke="black"/>
<path d="M109.24 18.62C109.24 16.3267 109.613 14.54 110.36 13.26C111.107 11.9667 112.413 11.32 114.28 11.32C116.133 11.32 117.433 11.9667 118.18 13.26C118.927 14.54 119.3 16.3267 119.3 18.62C119.3 20.9533 118.927 22.7667 118.18 24.06C117.433 25.3533 116.133 26 114.28 26C112.413 26 111.107 25.3533 110.36 24.06C109.613 22.7667 109.24 20.9533 109.24 18.62ZM117.5 18.62C117.5 17.46 117.42 16.48 117.26 15.68C117.113 14.8667 116.8 14.2133 116.32 13.72C115.853 13.2267 115.173 12.98 114.28 12.98C113.373 12.98 112.68 13.2267 112.2 13.72C111.733 14.2133 111.42 14.8667 111.26 15.68C111.113 16.48 111.04 17.46 111.04 18.62C111.04 19.82 111.113 20.8267 111.26 21.64C111.42 22.4533 111.733 23.1067 112.2 23.6C112.68 24.0933 113.373 24.34 114.28 24.34C115.173 24.34 115.853 24.0933 116.32 23.6C116.8 23.1067 117.113 22.4533 117.26 21.64C117.42 20.8267 117.5 19.82 117.5 18.62ZM121.319 13.2V11.54H125.079V26H123.239V13.2H121.319Z" fill="black"/>
<path d="M0.333333 65C0.333333 66.4728 1.52724 67.6667 3 67.6667C4.47276 67.6667 5.66667 66.4728 5.66667 65C5.66667 63.5272 4.47276 62.3333 3 62.3333C1.52724 62.3333 0.333333 63.5272 0.333333 65ZM95.3333 19.5C95.3333 20.9728 96.5272 22.1667 98 22.1667C99.4728 22.1667 100.667 20.9728 100.667 19.5C100.667 18.0272 99.4728 16.8333 98 16.8333C96.5272 16.8333 95.3333 18.0272 95.3333 19.5ZM3 65.5H6.09375V64.5H3V65.5ZM12.2813 65.5H18.4688V64.5H12.2813V65.5ZM24.6563 65.5H27.75V64.5H24.6563V65.5ZM27.75 65.5C28.7788 65.5 29.7922 65.4332 30.786 65.3035L30.6567 64.3119C29.7056 64.436 28.7354 64.5 27.75 64.5V65.5ZM36.65 63.7356C38.5404 62.9516 40.3048 61.9256 41.9045 60.6963L41.2952 59.9034C39.764 61.0801 38.0755 62.0619 36.2669 62.8119L36.65 63.7356ZM46.1963 56.4045C47.4256 54.8048 48.4516 53.0404 49.2356 51.15L48.3119 50.7669C47.5619 52.5755 46.5801 54.264 45.4034 55.7952L46.1963 56.4045ZM50.8035 45.286C50.9332 44.2922 51 43.2788 51 42.25H50C50 43.2354 49.936 44.2056 49.8119 45.1567L50.8035 45.286ZM51 42.25C51 41.2646 51.064 40.2944 51.1881 39.3433L50.1965 39.214C50.0668 40.2078 50 41.2212 50 42.25H51ZM52.6881 33.7331C53.4381 31.9245 54.4199 30.236 55.5966 28.7048L54.8037 28.0955C53.5744 29.6952 52.5484 31.4596 51.7644 33.35L52.6881 33.7331ZM59.7048 24.5966C61.236 23.4199 62.9245 22.4381 64.7331 21.6881L64.35 20.7644C62.4596 21.5484 60.6952 22.5744 59.0955 23.8037L59.7048 24.5966ZM70.3433 20.1881C71.2944 20.064 72.2646 20 73.25 20V19C72.2212 19 71.2078 19.0668 70.214 19.1965L70.3433 20.1881ZM73.25 20H76.3438V19H73.25V20ZM82.5313 20H88.7188V19H82.5313V20ZM94.9063 20H98V19H94.9063V20Z" fill="black"/>
</svg>
