<svg width="137" height="134" viewBox="0 0 137 134" fill="none" xmlns="http://www.w3.org/2000/svg">
<rect x="98.5" y="95.5" width="38" height="38" rx="19" fill="white" stroke="black"/>
<path d="M0.333333 3C0.333333 4.47276 1.52724 5.66667 3 5.66667C4.47276 5.66667 5.66667 4.47276 5.66667 3C5.66667 1.52724 4.47276 0.333333 3 0.333333C1.52724 0.333333 0.333333 1.52724 0.333333 3ZM95.3333 114.5C95.3333 115.973 96.5272 117.167 98 117.167C99.4728 117.167 100.667 115.973 100.667 114.5C100.667 113.027 99.4728 111.833 98 111.833C96.5272 111.833 95.3333 113.027 95.3333 114.5ZM3 3.5H5.9375V2.5H3V3.5ZM11.8125 3.5H17.6875V2.5H11.8125V3.5ZM23.5625 3.5H26.5V2.5H23.5625V3.5ZM26.5 3.5C27.5407 3.5 28.5654 3.56762 29.57 3.69865L29.6993 2.70706C28.652 2.57044 27.5841 2.5 26.5 2.5V3.5ZM35.4954 5.283C37.4056 6.07513 39.1889 7.11209 40.8062 8.35487L41.4155 7.56195C39.7298 6.26654 37.8705 5.18535 35.8784 4.35927L35.4954 5.283ZM45.1451 12.6938C46.3879 14.3111 47.4249 16.0944 48.217 18.0046L49.1407 17.6216C48.3147 15.6295 47.2335 13.7703 45.938 12.0845L45.1451 12.6938ZM49.8013 23.9301C49.9324 24.9346 50 25.9593 50 27H51C51 25.9159 50.9296 24.848 50.7929 23.8007L49.8013 23.9301ZM50 27V30.175H51V27H50ZM50 36.525V42.875H51V36.525H50ZM50 49.225V55.575H51V49.225H50ZM50 61.925V68.275H51V61.925H50ZM50 74.625V80.975H51V74.625H50ZM50 87.325V90.5H51V87.325H50ZM50 90.5C50 91.5841 50.0704 92.652 50.2071 93.6993L51.1987 93.57C51.0676 92.5654 51 91.5407 51 90.5H50ZM51.8593 99.8784C52.6853 101.87 53.7665 103.73 55.062 105.415L55.8549 104.806C54.6121 103.189 53.5751 101.406 52.783 99.4954L51.8593 99.8784ZM59.5845 109.938C61.2703 111.233 63.1295 112.315 65.1216 113.141L65.5046 112.217C63.5944 111.425 61.8111 110.388 60.1938 109.145L59.5845 109.938ZM71.3007 114.793C72.348 114.93 73.4159 115 74.5 115V114C73.4593 114 72.4346 113.932 71.4301 113.801L71.3007 114.793ZM74.5 115H77.4375V114H74.5V115ZM83.3125 115H89.1875V114H83.3125V115ZM95.0625 115H98V114H95.0625V115Z" fill="black"/>
<path d="M105.672 113.62C105.672 111.327 106.045 109.54 106.792 108.26C107.538 106.967 108.845 106.32 110.712 106.32C112.565 106.32 113.865 106.967 114.612 108.26C115.358 109.54 115.732 111.327 115.732 113.62C115.732 115.953 115.358 117.767 114.612 119.06C113.865 120.353 112.565 121 110.712 121C108.845 121 107.538 120.353 106.792 119.06C106.045 117.767 105.672 115.953 105.672 113.62ZM113.932 113.62C113.932 112.46 113.852 111.48 113.692 110.68C113.545 109.867 113.232 109.213 112.752 108.72C112.285 108.227 111.605 107.98 110.712 107.98C109.805 107.98 109.112 108.227 108.632 108.72C108.165 109.213 107.852 109.867 107.692 110.68C107.545 111.48 107.472 112.46 107.472 113.62C107.472 114.82 107.545 115.827 107.692 116.64C107.852 117.453 108.165 118.107 108.632 118.6C109.112 119.093 109.805 119.34 110.712 119.34C111.605 119.34 112.285 119.093 112.752 118.6C113.232 118.107 113.545 117.453 113.692 116.64C113.852 115.827 113.932 114.82 113.932 113.62ZM117.79 117.78V116.4L124.81 106.68H126.99V116.2H128.99V117.78H126.99V121H125.19V117.78H117.79ZM125.27 108.58L119.89 116.2H125.27V108.58Z" fill="black"/>
</svg>
