<svg width="207" height="95" viewBox="0 0 207 95" fill="none" xmlns="http://www.w3.org/2000/svg">
<rect x="168.5" y="0.5" width="38" height="38" rx="19" fill="white" stroke="black"/>
<path d="M176.709 18.62C176.709 16.3267 177.082 14.54 177.829 13.26C178.575 11.9667 179.882 11.32 181.749 11.32C183.602 11.32 184.902 11.9667 185.649 13.26C186.395 14.54 186.769 16.3267 186.769 18.62C186.769 20.9533 186.395 22.7667 185.649 24.06C184.902 25.3533 183.602 26 181.749 26C179.882 26 178.575 25.3533 177.829 24.06C177.082 22.7667 176.709 20.9533 176.709 18.62ZM184.969 18.62C184.969 17.46 184.889 16.48 184.729 15.68C184.582 14.8667 184.269 14.2133 183.789 13.72C183.322 13.2267 182.642 12.98 181.749 12.98C180.842 12.98 180.149 13.2267 179.669 13.72C179.202 14.2133 178.889 14.8667 178.729 15.68C178.582 16.48 178.509 17.46 178.509 18.62C178.509 19.82 178.582 20.8267 178.729 21.64C178.889 22.4533 179.202 23.1067 179.669 23.6C180.149 24.0933 180.842 24.34 181.749 24.34C182.642 24.34 183.322 24.0933 183.789 23.6C184.269 23.1067 184.582 22.4533 184.729 21.64C184.889 20.8267 184.969 19.82 184.969 18.62ZM189.047 24.54C190.741 23.18 192.067 22.0667 193.027 21.2C193.987 20.32 194.794 19.4067 195.447 18.46C196.114 17.5 196.447 16.56 196.447 15.64C196.447 14.7733 196.234 14.0933 195.807 13.6C195.394 13.0933 194.721 12.84 193.787 12.84C192.881 12.84 192.174 13.1267 191.667 13.7C191.174 14.26 190.907 15.0133 190.867 15.96H189.107C189.161 14.4667 189.614 13.3133 190.467 12.5C191.321 11.6867 192.421 11.28 193.767 11.28C195.141 11.28 196.227 11.66 197.027 12.42C197.841 13.18 198.247 14.2267 198.247 15.56C198.247 16.6667 197.914 17.7467 197.247 18.8C196.594 19.84 195.847 20.76 195.007 21.56C194.167 22.3467 193.094 23.2667 191.787 24.32H198.667V25.84H189.047V24.54Z" fill="black"/>
<path d="M0.333333 92C0.333333 93.4728 1.52724 94.6667 3 94.6667C4.47276 94.6667 5.66667 93.4728 5.66667 92C5.66667 90.5272 4.47276 89.3333 3 89.3333C1.52724 89.3333 0.333333 90.5272 0.333333 92ZM165.333 19.5C165.333 20.9728 166.527 22.1667 168 22.1667C169.473 22.1667 170.667 20.9728 170.667 19.5C170.667 18.0272 169.473 16.8333 168 16.8333C166.527 16.8333 165.333 18.0272 165.333 19.5ZM3 92.5H5.925V91.5H3V92.5ZM11.775 92.5H17.625V91.5H11.775V92.5ZM23.475 92.5H29.325V91.5H23.475V92.5ZM35.175 92.5H41.025V91.5H35.175V92.5ZM46.875 92.5H52.725V91.5H46.875V92.5ZM58.575 92.5H61.5V91.5H58.575V92.5ZM61.5 92.5C62.5841 92.5 63.652 92.4296 64.6993 92.2929L64.5699 91.3013C63.5654 91.4324 62.5407 91.5 61.5 91.5V92.5ZM70.8784 90.6407C72.8705 89.8147 74.7298 88.7335 76.4155 87.438L75.8062 86.6451C74.1889 87.8879 72.4056 88.9249 70.4954 89.717L70.8784 90.6407ZM80.938 82.9155C82.2335 81.2297 83.3147 79.3705 84.1407 77.3784L83.217 76.9954C82.4249 78.9056 81.3879 80.6889 80.1451 82.3062L80.938 82.9155ZM85.7929 71.1993C85.9296 70.152 86 69.0841 86 68H85C85 69.0407 84.9324 70.0654 84.8013 71.0699L85.7929 71.1993ZM86 68V64.9375H85V68H86ZM86 58.8125V52.6875H85V58.8125H86ZM86 46.5625V43.5H85V46.5625H86ZM86 43.5C86 42.4593 86.0676 41.4346 86.1987 40.43L85.2071 40.3007C85.0704 41.348 85 42.4159 85 43.5H86ZM87.783 34.5046C88.5751 32.5944 89.6121 30.8111 90.8549 29.1938L90.062 28.5845C88.7665 30.2702 87.6853 32.1295 86.8593 34.1216L87.783 34.5046ZM95.1938 24.8549C96.8111 23.6121 98.5944 22.5751 100.505 21.783L100.122 20.8593C98.1295 21.6853 96.2703 22.7665 94.5845 24.062L95.1938 24.8549ZM106.43 20.1987C107.435 20.0676 108.459 20 109.5 20V19C108.416 19 107.348 19.0704 106.301 19.2071L106.43 20.1987ZM109.5 20H112.425V19H109.5V20ZM118.275 20H124.125V19H118.275V20ZM129.975 20H135.825V19H129.975V20ZM141.675 20H147.525V19H141.675V20ZM153.375 20H159.225V19H153.375V20ZM165.075 20H168V19H165.075V20Z" fill="black"/>
</svg>
