<svg xmlns="http://www.w3.org/2000/svg" fill="none" viewBox="0 0 32 32" height="32" width="32">
<path fill="black" d="M29.0088 23.3451C29.6998 21.912 30.0388 20.3346 29.9977 18.7441C29.9567 17.1536 29.5367 15.5959 28.7727 14.2003C28.0087 12.8047 26.9228 11.6116 25.6051 10.7199C24.2873 9.82834 22.7759 9.26401 21.1963 9.07385C20.6707 7.85181 19.9065 6.74692 18.9486 5.82388C17.9907 4.90084 16.8582 4.17821 15.6175 3.6983C14.3768 3.21839 13.0528 2.99086 11.7231 3.02902C10.3933 3.06718 9.08458 3.37026 7.87345 3.92053C6.66231 4.4708 5.57314 5.25718 4.66971 6.23364C3.76628 7.21009 3.06676 8.35699 2.6121 9.60716C2.15745 10.8573 1.9568 12.1857 2.02191 13.5143C2.08702 14.843 2.41657 16.1454 2.99128 17.3451L2.08253 20.4339C1.98093 20.7787 1.97413 21.1445 2.06287 21.4928C2.1516 21.8412 2.33258 22.1592 2.58676 22.4134C2.84095 22.6676 3.15894 22.8485 3.50729 22.9373C3.85564 23.026 4.22147 23.0192 4.56628 22.9176L7.65503 22.0089C8.64682 22.4854 9.71014 22.7957 10.8025 22.9276C11.3333 24.1711 12.1106 25.2941 13.0877 26.2286C14.0647 27.1632 15.2211 27.8899 16.4869 28.3649C17.7528 28.8398 19.1018 29.0531 20.4525 28.992C21.8031 28.9308 23.1273 28.5963 24.345 28.0089L27.4338 28.9176C27.7785 29.0191 28.1441 29.0258 28.4923 28.9372C28.8405 28.8485 29.1584 28.6676 29.4125 28.4136C29.6667 28.1596 29.8477 27.8418 29.9366 27.4937C30.0254 27.1455 30.0188 26.7798 29.9175 26.4351L29.0088 23.3451ZM7.75003 19.9376C7.65447 19.9378 7.5594 19.9513 7.46753 19.9776L4.00003 21.0001L5.02128 17.5301C5.09392 17.2794 5.06565 17.0102 4.94253 16.7801C4.03792 15.0883 3.77137 13.1278 4.19149 11.2559C4.6116 9.38405 5.6904 7.72547 7.23121 6.58253C8.77203 5.4396 10.6723 4.88842 12.5855 5.02947C14.4988 5.17053 16.2976 5.99442 17.6542 7.35097C19.0107 8.70751 19.8346 10.5064 19.9757 12.4196C20.1167 14.3329 19.5655 16.2331 18.4226 17.7739C17.2797 19.3147 15.6211 20.3935 13.7492 20.8136C11.8773 21.2338 9.91681 20.9672 8.22503 20.0626C8.07955 19.9821 7.9163 19.9391 7.75003 19.9376ZM26.9738 23.5289L28 27.0001L24.53 25.9789C24.2793 25.9062 24.0102 25.9345 23.78 26.0576C21.9386 27.0409 19.7859 27.266 17.7808 26.6851C15.7757 26.1041 14.0768 24.763 13.0463 22.9476C14.4155 22.8047 15.7404 22.3804 16.9379 21.7012C18.1354 21.0221 19.1796 20.1029 20.0051 19.0011C20.8305 17.8994 21.4194 16.639 21.7347 15.2989C22.0501 13.9588 22.0851 12.5681 21.8375 11.2139C23.0305 11.4951 24.1429 12.0466 25.0889 12.826C26.0349 13.6053 26.7892 14.5916 27.2935 15.7088C27.7978 16.8259 28.0387 18.0439 27.9976 19.2689C27.9565 20.4939 27.6344 21.6931 27.0563 22.7739C26.9318 23.0054 26.9035 23.2766 26.9775 23.5289H26.9738Z"></path>
</svg>
