<svg xmlns="http://www.w3.org/2000/svg" fill="none" viewBox="0 0 31 23" height="23" width="31">
<path fill="black" d="M20.709 22.5669C20.709 22.6988 20.709 22.8307 20.709 22.9627C17.4367 22.9627 14.1644 22.9627 10.892 22.9627C10.892 18.3885 10.892 13.8144 10.892 9.2402C7.70403 8.81332 5.01833 7.40588 2.83499 5.0179C1.6006 3.55768 0.723297 1.89185 0.203125 0.0204079C2.66813 -0.00159429 5.13317 -0.00159429 7.59817 0.0204079C11.904 0.346284 15.1817 2.37497 17.4313 6.10646C18.289 7.65694 18.8918 9.30628 19.2397 11.0545C20.0025 14.8542 20.4923 18.6917 20.709 22.5669Z" clip-rule="evenodd" fill-rule="evenodd"></path>
<path fill="black" d="M22.5828 0.0041187C25.1232 -0.00686588 27.6636 0.0041187 30.2039 0.0371054C29.6081 2.16769 28.6015 4.05892 27.1845 5.71083C25.3469 7.64731 23.1133 8.81283 20.4837 9.20742C20.0528 7.18375 19.2078 5.36948 17.9487 3.76461C17.4855 3.25292 17.0065 2.75812 16.5117 2.2802C17.8078 1.26662 19.261 0.590392 20.8712 0.251519C21.4427 0.144279 22.0132 0.0618125 22.5828 0.0041187Z" clip-rule="evenodd" fill-rule="evenodd"></path>
<path fill="black" d="M20.7076 22.5669C20.7394 22.7033 20.7502 22.8462 20.7399 22.9957C17.4514 23.0067 14.1683 22.9957 10.8906 22.9627C14.163 22.9627 17.4353 22.9627 20.7076 22.9627C20.7076 22.8308 20.7076 22.6988 20.7076 22.5669Z" clip-rule="evenodd" fill-rule="evenodd"></path>
</svg>
