<svg width="28" height="26" viewBox="0 0 28 26" fill="none" xmlns="http://www.w3.org/2000/svg">
<path d="M21.1684 9.84532V22.9686C21.1684 23.451 20.776 23.8434 20.2936 23.8434H3.03103C2.54864 23.8434 2.15622 23.451 2.15622 22.9686V6.01712C2.15622 5.53472 2.54864 5.1423 3.03103 5.1423H16.2272L18.3835 2.98608H3.03129C2.62261 2.98608 2.22547 3.06635 1.85114 3.22479C1.4902 3.37746 1.16598 3.59596 0.88793 3.87402C0.609878 4.15207 0.391371 4.47602 0.238705 4.83723C0.0802673 5.21155 0 5.60869 0 6.01738V22.9689C0 23.3775 0.0802673 23.7747 0.238705 24.149C0.391371 24.51 0.609878 24.8342 0.88793 25.1122C1.16598 25.3903 1.48994 25.6088 1.85114 25.7615C2.22547 25.9199 2.62261 26.0002 3.03129 26.0002H20.2939C20.7026 26.0002 21.0997 25.9199 21.474 25.7615C21.835 25.6088 22.1592 25.3903 22.4372 25.1122C22.7153 24.8342 22.9338 24.5102 23.0865 24.149C23.2449 23.7747 23.3252 23.3775 23.3252 22.9689V8.48365L21.169 9.84532H21.1684Z" fill="#008060"/>
<path d="M27.1937 0.401282C27.1404 0.490469 27.0394 0.562868 26.9707 0.63002C26.8563 0.74229 26.7425 0.854823 26.6292 0.968142C26.4023 1.19478 26.1775 1.42378 25.9545 1.65462C25.5078 2.11734 25.0695 2.58767 24.6388 3.06508C24.2072 3.54354 23.7836 4.02908 23.3673 4.52092C22.9505 5.01328 22.5413 5.51167 22.1389 6.01584C21.7368 6.51974 21.3417 7.02942 20.953 7.54382C20.5653 8.05743 20.1839 8.57576 19.8088 9.09855C19.435 9.6195 19.0672 10.1447 18.7052 10.674C18.6276 10.7873 18.5502 10.9009 18.4733 11.0147C16.6072 13.7696 15.0853 16.6886 13.4931 19.6013C13.2187 20.1034 12.9918 20.7702 12.4233 21.0252C11.096 21.6201 10.2548 20.7371 9.81148 19.5284C9.23544 17.9579 8.82545 16.3172 7.87745 14.9133C7.46902 14.3086 6.79777 13.3063 6.10237 13.0464C5.62916 12.8696 4.99777 13.0401 5.40645 12.1944C6.03469 10.8941 7.91233 10.6903 9.0694 11.2716C10.2939 11.8869 10.7548 13.1657 11.5152 14.1948C12.0939 14.978 12.4706 14.014 12.8352 13.4747C13.3732 12.6781 13.8912 11.8628 14.4515 11.0819C15.2888 9.91513 16.2067 8.77721 17.1214 7.66973C18.3319 6.20392 19.6086 4.77274 21.0605 3.54799C22.1137 2.6598 23.1924 1.75351 24.4142 1.10743C24.8725 0.865053 25.3244 0.603527 25.7929 0.378724C26.0112 0.274061 26.2341 0.177267 26.4645 0.101983C26.6058 0.0555532 26.7525 0.0141077 26.9012 0.00282827C26.9985 -0.00451651 27.126 -0.00320481 27.195 0.0783747C27.2294 0.118771 27.2399 0.172021 27.2391 0.223697C27.2385 0.259634 27.2322 0.295308 27.2236 0.330196C27.2176 0.355116 27.2071 0.378724 27.1937 0.401282Z" fill="#008060"/>
</svg>
