<svg xmlns="http://www.w3.org/2000/svg" fill="none" viewBox="0 0 26 26" height="26" width="26">
<path fill="black" d="M25.4746 13C25.4746 19.9073 19.882 25.5 12.9746 25.5C6.06726 25.5 0.474609 19.9073 0.474609 13C0.474609 6.09266 6.06726 0.5 12.9746 0.5C19.882 0.5 25.4746 6.09266 25.4746 13ZM7.98713 17.9457H14.185C14.2893 17.9457 14.331 17.8205 14.2893 17.7371L9.28095 11.5392C9.19748 11.4558 9.09314 11.4975 9.07227 11.581L7.86192 17.7788C7.84105 17.8831 7.90366 17.9457 7.98713 17.9457ZM7.86192 8.59683H14.0597C14.1432 8.59683 14.2058 8.6803 14.185 8.7429L12.9746 14.9407C12.9537 15.0451 12.8285 15.0659 12.7659 14.9825L7.75758 8.76377C7.71584 8.70117 7.75758 8.59683 7.86192 8.59683ZM14.6858 8.6803C14.7067 8.63857 14.7484 8.57596 14.811 8.57596H19.2768C19.3602 8.57596 19.4229 8.65944 19.402 8.72204L18.5673 12.7496C18.5464 12.8122 18.5047 12.8539 18.4421 12.8539H18.3168C16.1257 12.8539 14.3728 10.8297 14.6858 8.6803Z" clip-rule="evenodd" fill-rule="evenodd" id="Vector"></path>
</svg>
