<svg xmlns="http://www.w3.org/2000/svg" fill="none" viewBox="0 0 28 24" height="24" width="28">
<path fill="black" d="M13 12C13 12.2652 12.8946 12.5196 12.7071 12.7071C12.5196 12.8946 12.2652 13 12 13H6C5.73478 13 5.48043 12.8946 5.29289 12.7071C5.10536 12.5196 5 12.2652 5 12C5 11.7348 5.10536 11.4804 5.29289 11.2929C5.48043 11.1054 5.73478 11 6 11H12C12.2652 11 12.5196 11.1054 12.7071 11.2929C12.8946 11.4804 13 11.7348 13 12ZM12 7H6C5.73478 7 5.48043 7.10536 5.29289 7.29289C5.10536 7.48043 5 7.73478 5 8C5 8.26522 5.10536 8.51957 5.29289 8.70711C5.48043 8.89464 5.73478 9 6 9H12C12.2652 9 12.5196 8.89464 12.7071 8.70711C12.8946 8.51957 13 8.26522 13 8C13 7.73478 12.8946 7.48043 12.7071 7.29289C12.5196 7.10536 12.2652 7 12 7ZM26 15.1838V23C26.0016 23.1763 25.9565 23.3499 25.8694 23.5032C25.7823 23.6564 25.6562 23.7839 25.5039 23.8728C25.3516 23.9616 25.1786 24.0086 25.0023 24.009C24.826 24.0094 24.6527 23.9632 24.5 23.875L21.5 22.1575L18.5 23.875C18.3473 23.9632 18.174 24.0094 17.9977 24.009C17.8214 24.0086 17.6484 23.9616 17.4961 23.8728C17.3438 23.7839 17.2177 23.6564 17.1306 23.5032C17.0435 23.3499 16.9984 23.1763 17 23V20H2C1.46957 20 0.960859 19.7893 0.585786 19.4142C0.210714 19.0391 0 18.5304 0 18V2C0 1.46957 0.210714 0.960859 0.585786 0.585786C0.960859 0.210714 1.46957 0 2 0H24C24.5304 0 25.0391 0.210714 25.4142 0.585786C25.7893 0.960859 26 1.46957 26 2V5.81625C26.6321 6.42161 27.1352 7.14866 27.4789 7.95361C27.8225 8.75856 27.9997 9.62475 27.9997 10.5C27.9997 11.3752 27.8225 12.2414 27.4789 13.0464C27.1352 13.8513 26.6321 14.5784 26 15.1838ZM17 18V15.1838C15.9103 14.1328 15.2216 12.7344 15.0527 11.2299C14.8839 9.72538 15.2456 8.20914 16.0753 6.94279C16.905 5.67645 18.1507 4.73945 19.5975 4.29348C21.0443 3.84751 22.6013 3.92055 24 4.5V2H2V18H17ZM24 16.5C23.208 16.8309 22.3583 17.0013 21.5 17.0013C20.6417 17.0013 19.792 16.8309 19 16.5V21.2775L21 20.1325C21.1511 20.0461 21.3222 20.0007 21.4963 20.0007C21.6703 20.0007 21.8414 20.0461 21.9925 20.1325L23.9925 21.2775L24 16.5ZM26 10.5C26 9.60998 25.7361 8.73995 25.2416 7.99993C24.7471 7.25991 24.0443 6.68314 23.2221 6.34254C22.3998 6.00195 21.495 5.91283 20.6221 6.08647C19.7492 6.2601 18.9474 6.68868 18.318 7.31802C17.6887 7.94736 17.2601 8.74918 17.0865 9.62209C16.9128 10.495 17.0019 11.3998 17.3425 12.2221C17.6831 13.0443 18.2599 13.7471 18.9999 14.2416C19.74 14.7361 20.61 15 21.5 15C22.0909 15 22.6761 14.8836 23.2221 14.6575C23.768 14.4313 24.2641 14.0998 24.682 13.682C25.0998 13.2641 25.4313 12.768 25.6575 12.2221C25.8836 11.6761 26 11.0909 26 10.5Z"></path>
</svg>
