<svg xmlns="http://www.w3.org/2000/svg" fill="none" viewBox="0 0 26 26" height="26" width="26">
<path fill="black" d="M9.50018 11.5538C9.65224 11.466 9.77849 11.3397 9.86626 11.1876C9.95403 11.0356 10.0002 10.8631 10.0002 10.6875V1.6875C9.99929 1.52807 9.96029 1.37116 9.88644 1.22986C9.81258 1.08857 9.70601 0.966979 9.57562 0.875238C9.44522 0.783497 9.29478 0.724263 9.13684 0.702477C8.9789 0.680692 8.81804 0.696986 8.66768 0.75C5.74891 1.78302 3.29433 3.8233 1.7452 6.50409C0.196079 9.18487 -0.345994 12.3303 0.216433 15.375C0.245586 15.5324 0.31212 15.6806 0.41044 15.807C0.508761 15.9333 0.635992 16.0343 0.781433 16.1012C0.912502 16.1625 1.05549 16.1941 1.20018 16.1938C1.3757 16.1938 1.54814 16.1477 1.70018 16.06L9.50018 11.5538ZM8.00018 3.2025V10.11L2.01518 13.5637C2.00018 13.375 2.00018 13.185 2.00018 13C2.00196 10.973 2.56305 8.9857 3.62168 7.25705C4.6803 5.5284 6.19541 4.12539 8.00018 3.2025ZM13.0002 0C12.735 0 12.4806 0.105357 12.2931 0.292893C12.1055 0.48043 12.0002 0.734784 12.0002 1V12.4775L2.14893 18.2162C2.03462 18.2825 1.93457 18.3708 1.85457 18.4759C1.77456 18.5811 1.7162 18.7011 1.68284 18.8289C1.64948 18.9568 1.64179 19.09 1.66022 19.2208C1.67864 19.3517 1.72281 19.4776 1.79018 19.5912C2.94482 21.5541 4.59482 23.1793 6.575 24.304C8.55519 25.4286 10.7961 26.0134 13.0733 25.9998C15.3506 25.9861 17.5843 25.3745 19.5508 24.2261C21.5174 23.0777 23.1478 21.4329 24.2788 19.4563C25.4098 17.4797 26.0017 15.2407 25.9953 12.9634C25.9889 10.6861 25.3844 8.45049 24.2423 6.48029C23.1002 4.51009 21.4606 2.87448 19.4876 1.73719C17.5146 0.599904 15.2775 0.000849411 13.0002 0ZM13.0002 24C11.2545 23.9953 9.5347 23.5774 7.98151 22.7805C6.42832 21.9836 5.08585 20.8303 4.06393 19.415L13.5039 13.915C13.6558 13.8273 13.7819 13.7012 13.8697 13.5494C13.9575 13.3976 14.0038 13.2254 14.0039 13.05V2.045C16.8245 2.3009 19.4376 3.6348 21.2993 5.769C23.161 7.9032 24.1279 10.6732 23.9985 13.5024C23.8692 16.3315 22.6536 19.0018 20.6049 20.9572C18.5562 22.9126 15.8323 24.0025 13.0002 24Z"></path>
</svg>
