<svg width="40" height="22" viewBox="0 0 40 22" fill="none" xmlns="http://www.w3.org/2000/svg">
<path d="M2.95598 12.1212L4.75598 19.7212C5.15598 21.7212 2.25598 22.5212 1.75598 20.5212L0.0559876 12.9212C-0.444012 10.9212 2.55599 10.2212 3.05599 12.1212H2.95598ZM11.856 9.3212L15.656 13.1212C17.056 14.5212 14.856 16.7212 13.456 15.3212L9.65598 11.4212C8.25598 10.1212 10.356 7.9212 11.856 9.3212ZM16.056 0.0211964C23.656 1.1212 31.056 2.6212 38.456 4.5212C40.356 5.0212 39.456 7.9212 37.556 7.5212C30.256 5.5212 22.756 4.1212 15.256 3.0212C13.256 2.7212 14.256 -0.278804 16.056 0.0211964Z" fill="#DFB757"/>
</svg>
