<svg xmlns="http://www.w3.org/2000/svg" fill="none" viewBox="0 0 26 22" height="22" width="26">
<path fill="black" d="M24 0H2C1.46957 0 0.960859 0.210714 0.585786 0.585786C0.210714 0.960859 0 1.46957 0 2V20C0 20.5304 0.210714 21.0391 0.585786 21.4142C0.960859 21.7893 1.46957 22 2 22H24C24.5304 22 25.0391 21.7893 25.4142 21.4142C25.7893 21.0391 26 20.5304 26 20V2C26 1.46957 25.7893 0.960859 25.4142 0.585786C25.0391 0.210714 24.5304 0 24 0ZM24 2V7H2V2H24ZM2 9H9V20H2V9ZM24 20H11V9H24V20Z"></path>
</svg>
