<svg width="6" height="29" viewBox="0 0 6 29" fill="none" xmlns="http://www.w3.org/2000/svg">
<path d="M0.333333 3C0.333333 4.47276 1.52724 5.66667 3 5.66667C4.47276 5.66667 5.66667 4.47276 5.66667 3C5.66667 1.52724 4.47276 0.333333 3 0.333333C1.52724 0.333333 0.333333 1.52724 0.333333 3ZM0.333333 26C0.333333 27.4728 1.52724 28.6667 3 28.6667C4.47276 28.6667 5.66667 27.4728 5.66667 26C5.66667 24.5272 4.47276 23.3333 3 23.3333C1.52724 23.3333 0.333333 24.5272 0.333333 26ZM2.5 3V5.875H3.5V3H2.5ZM2.5 11.625V17.375H3.5V11.625H2.5ZM2.5 23.125V26H3.5V23.125H2.5Z" fill="white"/>
</svg>
