<svg xmlns="http://www.w3.org/2000/svg" fill="none" viewBox="0 0 71 20" height="20" width="71">
<path fill="black" d="M4.66594 3.1291L7.24219 10.2322L9.94156 3.1291H13.7734L7.22093 19.5778H3.43094L5.36906 14.481L0.710938 3.1291H4.66594ZM45.139 2.87723C48.599 2.87723 51.1222 5.56223 51.1222 9.23722C51.1222 12.9122 48.599 15.5978 45.139 15.5978C43.8622 15.5978 42.7872 15.2597 41.9665 14.6078L41.9134 14.5647L41.8678 14.5272V19.5741H38.1753V3.1291H41.4403V4.35848L41.459 4.33723C42.2634 3.41973 43.4803 2.91223 44.9841 2.8791L45.0634 2.87785H45.139V2.87723ZM20.4991 2.87723C24.3091 2.87723 27.0097 5.50973 27.0097 9.23722C27.0097 12.9491 24.3003 15.5978 20.4991 15.5978C16.6766 15.5978 13.9628 12.9528 13.9628 9.23722C13.9628 5.50598 16.6672 2.87723 20.4991 2.87723ZM33.1615 0.422852V3.1291H36.199V6.31848H33.1615V10.721C33.1615 11.706 33.6397 12.2479 34.5109 12.281L34.5534 12.2816L34.5965 12.2822C35.1872 12.2822 35.6347 12.1272 36.0353 11.7422L36.0728 11.7053L36.1722 11.6035H36.1997V15.1216L36.0865 15.176C35.4784 15.4666 35.104 15.5978 34.0678 15.5978C31.1403 15.5978 29.5328 14.0041 29.4703 11.0279L29.4691 10.9372V10.8466L29.4684 6.31848H28.1322V3.1291H29.5691V0.422852H33.1609H33.1615ZM59.1909 2.87723C63.0009 2.87723 65.7015 5.50973 65.7015 9.23722C65.7015 12.9491 62.9922 15.5978 59.1909 15.5978C55.3684 15.5978 52.6547 12.9528 52.6547 9.23722C52.6547 5.50598 55.3597 2.87723 59.1909 2.87723ZM68.7115 11.551C69.829 11.551 70.7347 12.4572 70.7347 13.5741C70.7347 14.6916 69.8284 15.5978 68.7115 15.5978C67.594 15.5978 66.6884 14.6916 66.6884 13.5741C66.6884 12.4566 67.5947 11.551 68.7115 11.551ZM44.5859 6.19285C42.9222 6.19285 41.7922 7.4241 41.7922 9.23722C41.7922 11.051 42.9222 12.2822 44.5859 12.2822C46.2709 12.2822 47.4047 11.0547 47.4047 9.23722C47.4047 7.42035 46.2709 6.19285 44.5859 6.19285ZM20.4984 6.19285C18.8297 6.19285 17.6803 7.43035 17.6803 9.23722C17.6803 11.0447 18.8297 12.2822 20.4991 12.2822C22.1466 12.2822 23.2928 11.041 23.2928 9.23722C23.2928 7.4341 22.1466 6.19285 20.4991 6.19285H20.4984ZM59.1909 6.19285C57.5222 6.19285 56.3722 7.43035 56.3722 9.23722C56.3722 11.0447 57.5222 12.2822 59.1909 12.2822C60.8384 12.2822 61.9847 11.041 61.9847 9.23722C61.9847 7.4341 60.8384 6.19285 59.1909 6.19285Z" clip-rule="evenodd" fill-rule="evenodd"></path>
</svg>
