<svg width="64" height="64" viewBox="0 0 64 64" fill="none" xmlns="http://www.w3.org/2000/svg">
<g clip-path="url(#clip0_2817_5728)">
<path d="M61.1875 22.1562H59.4381L59.6109 16.0588L52.0339 11.9662L47.9412 4.38918L39.333 4.63318L32 0.117676L24.667 4.63305L16.0588 4.38905L11.9661 11.9661L4.38912 16.0587L4.562 22.156H2.8125C1.26163 22.156 0 23.4178 0 24.9685V39.0311C0 40.5818 1.26163 41.8436 2.8125 41.8436H4.562L4.38912 47.9409L11.9661 52.0336L16.0589 59.6106L24.6671 59.3666L32 63.8822L39.3329 59.3668L47.9411 59.6108L52.0337 52.0338L59.6107 47.9412L59.438 41.8438H61.1875C62.7383 41.8438 64 40.5821 64 39.0313V24.9688C64 23.4179 62.7383 22.1562 61.1875 22.1562ZM6.29612 17.1598L13.3497 13.3497L17.1597 6.29605L25.1735 6.52318L32 2.31968L38.8265 6.5233L46.84 6.29618L50.6501 13.3498L57.7038 17.1599L57.5622 22.1563H53.2736C49.4406 13.8778 41.1585 8.56243 32 8.56243C27.7456 8.56243 23.5786 9.71493 19.9494 11.8952L20.915 13.5023C24.2526 11.4973 28.0858 10.4374 32 10.4374C40.1316 10.4374 47.5124 14.9921 51.188 22.1562H12.812C14.368 19.1286 16.6274 16.4994 19.409 14.4947L18.3126 12.9734C15.0311 15.3386 12.4201 18.5047 10.7279 22.1562H6.43775L6.29612 17.1598ZM57.7039 46.8401L50.6502 50.6502L46.8401 57.7038L38.8266 57.4767L32 61.6802L25.1735 57.4766L17.1597 57.7037L13.3497 50.6501L6.29612 46.8399L6.43775 41.8436H10.7264C14.5594 50.1221 22.8415 55.4374 32 55.4374C41.1586 55.4374 49.4406 50.1221 53.2736 41.8437H57.5622L57.7039 46.8401ZM62.125 39.0312C62.125 39.5482 61.7045 39.9687 61.1875 39.9687H34.8125V41.8437H51.1879C47.5124 49.0078 40.1318 53.5624 32 53.5624C23.8682 53.5624 16.4875 49.0078 12.812 41.8437H29.1875V39.9687H2.8125C2.29562 39.9687 1.875 39.5482 1.875 39.0312V24.9687C1.875 24.4517 2.29562 24.0312 2.8125 24.0312H61.1875C61.7045 24.0312 62.125 24.4517 62.125 24.9687V39.0312Z" fill="black"/>
<path d="M31.0625 39.9688H32.9375V41.8438H31.0625V39.9688Z" fill="black"/>
<path d="M37.6248 14.1873H39.4998V16.0623H37.6248V14.1873Z" fill="black"/>
<path d="M41.3748 16.0625H43.2498V17.9375H41.3748V16.0625Z" fill="black"/>
<path d="M30.2963 27.2741L26.8821 36.2388L28.6343 36.9062L29.4481 34.7696H32.7346L33.5402 36.9045L35.2945 36.2425L31.9092 27.2722L30.2963 27.2741ZM30.1621 32.8946L31.0987 30.4352L32.0268 32.8946H30.1621Z" fill="black"/>
<path d="M44.3632 32.948L40.7977 27.2735L39.0088 27.2729V36.7265H40.8838V30.9349L44.4494 36.6095H46.2382V27.259H44.3632V32.948Z" fill="black"/>
<path d="M52.9126 27.259H49.8884V36.5018H52.9818L52.9901 36.5017C55.2123 36.4625 56.8254 34.5192 56.8254 31.8803C56.8254 29.1163 55.2529 27.259 52.9126 27.259ZM52.9644 34.6269H51.7634V29.1342H52.9126C53.8977 29.1342 54.9504 29.8555 54.9504 31.8805C54.9504 33.7387 53.9223 34.6058 52.9644 34.6269Z" fill="black"/>
<path d="M12.5656 31.4249C12.8414 31.0028 13.0019 30.4988 13.0019 29.9579C13.0019 28.4777 11.7977 27.2734 10.3173 27.2734H7.17456V36.7408H10.7027C12.3464 36.7408 13.6838 35.3994 13.6838 33.7506C13.6838 32.8111 13.2469 31.9717 12.5656 31.4249ZM9.04956 29.1484H10.3174C10.7638 29.1484 11.1271 29.5116 11.1271 29.9579C11.1271 30.4054 10.7639 30.7696 10.3176 30.7696H9.04956V29.1484ZM10.7027 34.8659H9.04956V32.6446H10.7027C11.3126 32.6446 11.8088 33.1408 11.8088 33.7507C11.8088 34.3657 11.3126 34.8659 10.7027 34.8659Z" fill="black"/>
<path d="M23.314 30.1843C23.314 28.5793 21.9582 27.2737 20.2917 27.2737H17.3356L17.334 36.7409L19.209 36.7412L19.2096 33.5967L22.0357 36.9376L23.4672 35.7266L21.1415 32.9772C22.3954 32.6226 23.314 31.5052 23.314 30.1843ZM19.2102 29.1486H20.2916C20.9135 29.1486 21.4389 29.6228 21.4389 30.1842C21.4389 30.7456 20.9135 31.2198 20.2865 31.2198L19.2097 31.2257L19.2102 29.1486Z" fill="black"/>
</g>
<defs>
<clipPath id="clip0_2817_5728">
<rect width="64" height="64" fill="white"/>
</clipPath>
</defs>
</svg>
