<svg width="386" height="98" viewBox="0 0 386 98" fill="none" xmlns="http://www.w3.org/2000/svg">
<path d="M151.489 0H155.747C159.428 0 161.665 1.15131 164.047 5.46874L187.935 48.7149C188.44 49.6504 188.223 50.3699 187.069 50.3699H177.903C176.965 50.3699 176.604 50.1541 176.243 49.4345L171.119 40.152H137.2L132.22 49.4345C131.859 50.1541 131.426 50.3699 130.56 50.3699H121.179C119.952 50.3699 119.735 49.6504 120.24 48.7149L143.912 5.46874C146.293 1.15131 148.458 0 151.489 0ZM153.077 10.7216L141.747 31.805H166.573L155.098 10.7216C154.881 10.3618 154.665 10.2179 154.304 10.2179H153.871C153.51 10.2179 153.294 10.3618 153.077 10.7216Z" fill="white"/>
<path d="M205.949 0H244.198C245.281 0 245.786 0.503701 245.786 1.58306V8.41898C245.786 9.49833 245.281 10.002 244.198 10.002H208.042C205.299 10.002 204.217 11.5131 204.217 14.0316V16.4782C204.217 19.1406 205.443 20.5078 207.969 20.5078H235.033C243.332 20.5078 247.662 24.9691 247.662 32.8844V38.6409C247.662 45.6208 243.621 50.3699 234.888 50.3699H194.907C193.824 50.3699 193.247 49.8662 193.247 48.7869V41.951C193.247 40.8716 193.824 40.3679 194.907 40.3679H232.795C235.538 40.3679 236.62 38.8568 236.62 36.3383V33.3881C236.62 30.7257 235.393 29.3585 232.868 29.3585H205.804C197.505 29.3585 193.175 24.8971 193.175 16.9819V11.729C193.175 4.74917 197.216 0 205.949 0Z" fill="white"/>
<path d="M257.58 0H265.374C266.456 0 266.962 0.503701 266.962 1.58306V20.2919H300.737V1.58306C300.737 0.503701 301.242 0 302.324 0H310.119C311.201 0 311.778 0.503701 311.778 1.58306V48.7869C311.778 49.8662 311.201 50.3699 310.119 50.3699H302.324C301.242 50.3699 300.737 49.8662 300.737 48.7869V29.6463H266.962V48.7869C266.962 49.8662 266.456 50.3699 265.374 50.3699H257.58C256.497 50.3699 255.92 49.8662 255.92 48.7869V1.58306C255.92 0.503701 256.497 0 257.58 0Z" fill="white"/>
<path d="M349.108 0H353.366C357.046 0 359.284 1.15131 361.665 5.46874L385.553 48.7149C386.058 49.6504 385.842 50.3699 384.687 50.3699H375.522C374.583 50.3699 374.222 50.1541 373.862 49.4345L368.738 40.152H334.818L329.839 49.4345C329.478 50.1541 329.045 50.3699 328.179 50.3699H318.797C317.57 50.3699 317.354 49.6504 317.859 48.7149L341.53 5.46874C343.912 1.15131 346.077 0 349.108 0ZM350.695 10.7216L339.365 31.805H364.191L352.716 10.7216C352.5 10.3618 352.283 10.2179 351.922 10.2179H351.489C351.128 10.2179 350.912 10.3618 350.695 10.7216Z" fill="white"/>
<path d="M270.991 66.2932H291.235C291.908 66.2932 292.222 66.6062 292.222 67.2768V71.658C292.222 72.3286 291.908 72.6862 291.235 72.6862H271.26C266.637 72.6862 265.29 74.0274 265.29 78.7663V85.1146C265.29 89.8535 266.637 91.2394 271.26 91.2394H291.235C291.908 91.2394 292.222 91.5524 292.222 92.223V96.6042C292.222 97.2748 291.908 97.5877 291.235 97.5877H270.991C261.924 97.5877 258.422 94.3689 258.422 85.7852V78.0957C258.422 69.5121 261.924 66.2932 270.991 66.2932Z" fill="white"/>
<path d="M298.038 66.2932H302.885C303.559 66.2932 303.873 66.6062 303.873 67.2768V96.6042C303.873 97.2748 303.559 97.5877 302.885 97.5877H298.038C297.364 97.5877 297.005 97.2748 297.005 96.6042V67.2768C297.005 66.6062 297.364 66.2932 298.038 66.2932Z" fill="white"/>
<path d="M308.951 66.2932H344.008C344.681 66.2932 345.04 66.6062 345.04 67.2768V71.658C345.04 72.3286 344.681 72.6862 344.008 72.6862H329.913V96.6042C329.913 97.2748 329.599 97.5877 328.926 97.5877H324.033C323.36 97.5877 323.046 97.2748 323.046 96.6042V72.6862H308.951C308.278 72.6862 307.919 72.3286 307.919 71.658V67.2768C307.919 66.6062 308.278 66.2932 308.951 66.2932Z" fill="white"/>
<path d="M347.152 66.2932H353.167C353.705 66.2932 353.975 66.4273 354.244 66.8297L366.229 82.9687L378.303 66.8297C378.572 66.4273 378.842 66.2932 379.38 66.2932H385.261C385.754 66.2932 385.979 66.785 385.665 67.1873L369.55 88.0206V96.6042C369.55 97.2748 369.236 97.5877 368.563 97.5877H363.715C363.042 97.5877 362.683 97.2748 362.683 96.6042V88.0206L346.748 67.1873C346.434 66.785 346.613 66.2932 347.152 66.2932Z" fill="white"/>
<g clip-path="url(#clip0_2872_4293)">
<path d="M66.9639 97.7832V73.9981H68.8635V71.1175H71.9193V73.9156H75.0578V95.9724H76.2967H77.618V90.0467H80.839V88.2362H84.1426V89.7998H85.4639V86.7547H90.7496V84.9442H92.8971V86.5078H94.2184V76.7141H95.6225V72.6814L96.4483 72.0229L97.3569 72.6814V76.2203H98.2655V74.3272H102.25V76.2612H103.365V92.9273H103.923V79.5327H106.463V77.002H110.303V79.0389H110.922V96.5075H120.523V93.4212H121.267V65.2125H122.258V64.1631H124.116V60.583H126.284V61.0768H127.709V63.978H128.7V86.4463H130.744V84.718H133.036V83.7921H137.062V95.4584H139.23V82.4958H141.832V80.3354H145.424V82.1255H146.477V96.5077H148.46V76.1998H150.69V73.1752H154.53V75.9529H155.149V86.6315H156.76V82.2489H158.432V79.4713L159.547 78.7923L160.477 79.4713V81.9403H163.698V88.1747H164.441V72.3727H171.44V95.2732H173.918V89.9647H175.343V86.4463H176.644V83.7921H179.307V86.6315H182.218V96.1991H183.643V82.2489H190.457V96.1991H192.935V65.5828H195.97V60.8299H199.439V65.4594H200.244V96.2608H200.863V82.3107H208.42V95.3967H210.774V93.2362H214.862V94.2239H217.897V96.9398H219.198V82.0638L221.335 79.9342H225.207V92.4338H226.879V94.7794H235.737V96.5077H237.038V89.903H240.445V88.1747H243.851V89.4709H245.214V75.8294H246.887V74.4714H248.311H250.17V97.5571C250.17 97.5571 66.9844 97.7627 66.9639 97.7832Z" fill="white"/>
</g>
<g clip-path="url(#clip1_2872_4293)">
<path fill-rule="evenodd" clip-rule="evenodd" d="M52.5639 0.142822H45.5553V31.1606L33.9306 2.4014L27.4325 5.02566L39.3583 34.5299L16.8471 12.0288L11.8914 16.9824L33.4673 38.5486L5.5065 26.3377L2.70053 32.7571L32.2864 45.6777H0V52.6831H32.2863L2.70054 65.6035L5.5065 72.023L33.4673 59.8122L11.8914 81.3784L16.8471 86.3317L39.3583 63.8308L27.4325 93.3352L33.9306 95.9592L45.5553 67.2002V98.2179H52.5639V67.2002L64.1886 95.9592L70.6865 93.3352L58.7611 63.8308L81.2721 86.3317L86.2276 81.3784L64.6517 59.8122L92.6127 72.023L95.4185 65.6035L65.8331 52.6831H98.1192V45.6777H65.8326L95.4185 32.7571L92.6127 26.3377L64.6517 38.5486L86.2276 16.9823L81.2721 12.0288L58.7611 34.5298L70.6865 5.02566L64.1886 2.4014L52.5639 31.1606V0.142822Z" fill="white"/>
</g>
<g clip-path="url(#clip2_2872_4293)">
<path fill-rule="evenodd" clip-rule="evenodd" d="M52.5639 97.9995H45.5553V66.9818L33.9306 95.7409L27.4325 93.1167L39.3583 63.6125L16.8471 86.1135L11.8914 81.16L33.4673 59.5938L5.5065 71.8046L2.70053 65.3852L32.2864 52.4647H0V45.4592H32.2863L2.70054 32.5388L5.5065 26.1193L33.4673 38.3302L11.8914 16.7639L16.8471 11.8107L39.3583 34.3115L27.4325 4.80711L33.9306 2.18311L45.5553 30.9422V-0.0755539H52.5639V30.9422L64.1886 2.18311L70.6865 4.80711L58.7611 34.3115L81.2721 11.8107L86.2276 16.7639L64.6517 38.3302L92.6127 26.1193L95.4185 32.5388L65.8331 45.4592H98.1192V52.4647H65.8326L95.4185 65.3852L92.6127 71.8046L64.6517 59.5938L86.2276 81.16L81.2721 86.1135L58.7611 63.6125L70.6865 93.1167L64.1886 95.7409L52.5639 66.9818V97.9995Z" fill="white"/>
</g>
<defs>
<clipPath id="clip0_2872_4293">
<rect width="130.312" height="37.2827" fill="white" transform="translate(119.986 60.583)"/>
</clipPath>
<clipPath id="clip1_2872_4293">
<rect width="98.1192" height="52.4702" fill="white" transform="translate(0 0.142822)"/>
</clipPath>
<clipPath id="clip2_2872_4293">
<rect width="98.1192" height="52.4702" fill="white" transform="matrix(1 0 0 -1 0 97.9995)"/>
</clipPath>
</defs>
</svg>
