<svg width="385" height="184" viewBox="0 0 385 184" fill="none" xmlns="http://www.w3.org/2000/svg">
<g filter="url(#filter0_dd_2220_4130)">
<rect x="16" y="8" width="353" height="152" rx="15" fill="white"/>
</g>
<g clip-path="url(#clip0_2220_4130)">
<path d="M235.255 120.029C235.255 121.249 235.255 122.17 235.255 123.091C235.255 124.012 235.288 124.921 235.212 125.847C234.982 125.911 234.749 125.955 234.512 125.979C230.668 125.979 226.823 125.979 222.978 125.979C222.815 125.958 222.656 125.915 222.504 125.852C222.454 125.724 222.42 125.589 222.401 125.451C222.401 97.4958 222.401 69.5394 222.401 41.5821C222.418 41.3923 222.45 41.2042 222.496 41.0199C222.689 40.9535 222.889 40.9084 223.09 40.8853C226.891 40.8853 230.69 40.8853 234.49 40.8853C234.672 40.9006 234.853 40.9297 235.032 40.9724C235.104 41.2137 235.158 41.4609 235.192 41.7115C235.22 42.1048 235.192 42.5034 235.192 42.8993V68.7439C235.192 69.2164 235.217 69.6863 235.23 70.1957C235.38 70.1929 235.53 70.168 235.674 70.1218C235.82 70.0391 235.953 69.9341 236.07 69.8104C239.954 65.8852 244.625 63.755 249.886 62.9473C256.23 61.9918 262.284 62.9737 268.016 65.9961C272.966 68.6093 276.743 72.5793 279.629 77.5048C282.22 81.94 283.784 86.9553 284.192 92.1443C284.774 98.9387 283.606 105.371 280.557 111.382C276.75 118.878 270.887 123.807 263.222 126.388C260.168 127.459 256.967 127.994 253.748 127.972C249.767 127.905 245.853 126.882 242.306 124.979C240.184 123.839 238.184 122.464 236.341 120.877C236.06 120.642 235.761 120.425 235.255 120.029ZM271.083 95.1033C271.111 93.3679 270.911 91.6365 270.489 89.9586C268.906 83.8874 265.426 79.5479 259.837 77.2012C256.749 75.9195 253.38 75.5872 250.12 76.2431C244.26 77.3464 239.954 80.7304 237.256 86.2949C235.532 89.8461 234.905 93.875 235.463 97.8196C236.215 103.529 238.75 108.101 243.322 111.308C247.083 113.948 251.256 114.885 255.737 114.241C261.446 113.417 265.767 110.368 268.668 105.142C270.371 102.077 271.116 98.7223 271.083 95.1033Z" fill="#372583"/>
<path d="M159.009 109.85C158.758 110.46 158.582 110.951 158.364 111.418C156.418 115.563 153.599 118.93 150.089 121.657C145.978 124.876 141.135 126.9 136.047 127.525C130.743 128.196 125.515 127.805 120.532 125.72C111.563 121.972 105.62 115.161 102.588 105.545C101.236 101.183 100.739 96.5766 101.129 92.0065C102.132 79.1937 110.284 68.8304 120.146 64.7469C122.875 63.6449 125.741 62.963 128.654 62.7223C130.859 62.497 133.079 62.5067 135.282 62.7513C143.409 63.7042 150.202 67.2677 155.297 74.1334C156.348 75.5588 157.232 77.1125 157.93 78.7606C158.133 79.2358 158.299 79.7319 158.499 80.2625C158.31 80.4436 158.11 80.6112 157.9 80.7641C154.724 82.7122 151.548 84.6541 148.371 86.5897C148.162 86.703 147.947 86.8034 147.727 86.8907C147.291 86.6058 147.203 86.1515 147.022 85.7691C146.279 84.1433 145.315 82.6396 144.161 81.3053C141.811 78.626 138.873 77.0501 135.52 76.3269C132.686 75.7088 129.752 75.8183 126.967 76.6463C123.052 77.7512 119.653 80.3182 117.405 83.8683C115.393 87.0004 114.274 90.6729 114.179 94.4525C114.083 98.2325 115.017 101.962 116.869 105.202C119.484 109.708 123.268 112.516 128.168 113.667C130.994 114.332 133.795 114.348 136.571 113.403C138.437 112.759 140.183 111.776 141.729 110.5C143.79 108.772 145.623 106.763 147.18 104.526C147.479 104.109 147.782 103.697 148.09 103.275C148.273 103.312 148.451 103.37 148.622 103.446C152.04 105.545 155.455 107.654 159.009 109.85Z" fill="#372583"/>
<path d="M176.359 125.948C176.178 126.005 175.993 126.045 175.805 126.067C171.96 126.067 168.119 126.067 164.282 126.067C164.102 126.046 163.925 126.007 163.753 125.951C163.682 125.705 163.631 125.453 163.6 125.198C163.572 124.718 163.585 124.232 163.585 123.749C163.585 104.101 163.585 84.4565 163.585 64.8142C163.585 64.2546 163.464 63.6659 163.785 63.1565C164.856 62.9796 175.131 62.9875 176.239 63.175C176.3 63.4521 176.342 63.7335 176.364 64.017C176.377 65.2471 176.364 66.4771 176.364 67.7125V68.9901C176.638 69.2145 176.791 69.0376 176.939 68.8951C178.11 67.7592 179.394 66.7583 180.768 65.9096C183.119 64.4805 185.721 63.569 188.417 63.2304C189.784 63.0569 191.163 62.9951 192.54 63.0456C192.854 63.0727 193.167 63.1212 193.475 63.1908C193.537 63.3351 193.582 63.4866 193.61 63.6422C193.62 67.8656 193.624 72.089 193.623 76.3124C193.61 76.4776 193.583 76.6411 193.54 76.8009C193.124 77.1756 192.642 77.0487 192.199 77.099C190.624 77.2731 189.041 77.3919 187.474 77.627C185.9 77.8715 184.382 78.4146 182.992 79.2293C179.745 81.0982 177.819 83.9806 177.124 87.7921C176.982 88.6574 176.891 89.5308 176.851 90.4079C176.495 96.1572 176.58 101.917 176.54 107.674C176.505 112.508 176.481 117.342 176.467 122.176C176.467 123.1 176.492 124.024 176.482 124.945C176.459 125.282 176.418 125.616 176.359 125.948Z" fill="#372583"/>
<path d="M211.685 125.958C211.253 126.01 210.97 126.066 210.681 126.076C206.619 126.198 200.247 126.129 199.113 125.95C199.046 125.714 198.996 125.473 198.963 125.229C198.933 124.881 198.948 124.527 198.948 124.173V64.9689C198.948 64.3618 198.897 63.7468 199.056 63.1766C200.104 62.9892 210.34 62.976 211.567 63.1582C211.626 63.3908 211.671 63.6271 211.702 63.8656C211.727 64.1691 211.702 64.478 211.702 64.7868C211.702 84.6527 211.702 104.519 211.702 124.387C211.715 124.865 211.697 125.345 211.685 125.958Z" fill="#372583"/>
<path d="M205.418 39.988C210.045 39.93 213.576 43.9871 213.549 48.7965C213.544 49.9288 213.326 51.049 212.908 52.0922C212.489 53.1353 211.878 54.0807 211.11 54.8736C210.342 55.6666 209.432 56.2913 208.433 56.7117C207.434 57.132 206.366 57.3396 205.29 57.3225C201.463 57.2882 197.175 54.4743 197.193 48.6592C197.21 43.1926 201.167 39.8825 205.418 39.988Z" fill="#372583"/>
</g>
<defs>
<filter id="filter0_dd_2220_4130" x="0" y="0" width="385" height="184" filterUnits="userSpaceOnUse" color-interpolation-filters="sRGB">
<feFlood flood-opacity="0" result="BackgroundImageFix"/>
<feColorMatrix in="SourceAlpha" type="matrix" values="0 0 0 0 0 0 0 0 0 0 0 0 0 0 0 0 0 0 127 0" result="hardAlpha"/>
<feOffset dy="8"/>
<feGaussianBlur stdDeviation="8"/>
<feColorMatrix type="matrix" values="0 0 0 0 0 0 0 0 0 0 0 0 0 0 0 0 0 0 0.08 0"/>
<feBlend mode="normal" in2="BackgroundImageFix" result="effect1_dropShadow_2220_4130"/>
<feColorMatrix in="SourceAlpha" type="matrix" values="0 0 0 0 0 0 0 0 0 0 0 0 0 0 0 0 0 0 127 0" result="hardAlpha"/>
<feOffset/>
<feGaussianBlur stdDeviation="2"/>
<feColorMatrix type="matrix" values="0 0 0 0 0 0 0 0 0 0 0 0 0 0 0 0 0 0 0.04 0"/>
<feBlend mode="normal" in2="effect1_dropShadow_2220_4130" result="effect2_dropShadow_2220_4130"/>
<feBlend mode="normal" in="SourceGraphic" in2="effect2_dropShadow_2220_4130" result="shape"/>
</filter>
<clipPath id="clip0_2220_4130">
<rect width="183.333" height="88" fill="white" transform="translate(101 40)"/>
</clipPath>
</defs>
</svg>
