<svg width="385" height="184" viewBox="0 0 385 184" fill="none" xmlns="http://www.w3.org/2000/svg">
<g filter="url(#filter0_dd_2220_4159)">
<rect x="16" y="8" width="353" height="152" rx="15" fill="white"/>
</g>
<g clip-path="url(#clip0_2220_4159)">
<path d="M159.088 72.5013C161.711 72.5013 163.897 73.1469 165.646 74.438C167.394 75.7291 168.55 77.4887 169.112 79.7169H165.365C164.886 78.5299 164.095 77.5824 162.991 76.8744C161.909 76.1664 160.618 75.8124 159.12 75.8124C157.745 75.8124 156.507 76.1352 155.404 76.7807C154.321 77.4262 153.468 78.3425 152.843 79.5295C152.239 80.7164 151.937 82.1116 151.937 83.7151C151.937 85.4018 152.25 86.8492 152.874 88.057C153.499 89.2647 154.373 90.1913 155.497 90.8368C156.642 91.4617 157.964 91.7739 159.463 91.7739C161.295 91.7739 162.867 91.2117 164.178 90.0873C165.49 88.9421 166.281 87.3801 166.551 85.4018H158.464V82.778H169.549V86.1827C169.299 87.8069 168.717 89.2856 167.8 90.6182C166.905 91.9301 165.708 92.9819 164.209 93.7732C162.731 94.5645 161.035 94.96 159.12 94.96C156.975 94.96 155.081 94.4812 153.436 93.5232C151.792 92.5652 150.522 91.2431 149.627 89.5562C148.731 87.8488 148.284 85.9016 148.284 83.7151C148.284 81.5286 148.731 79.5919 149.627 77.9052C150.522 76.1976 151.781 74.8753 153.405 73.9382C155.05 72.9803 156.944 72.5013 159.088 72.5013Z" fill="#1A1A1A"/>
<path d="M178.133 80.9038C178.716 79.7793 179.549 78.8942 180.631 78.2487C181.714 77.5823 182.963 77.2491 184.378 77.2491V81.1224H183.317C181.755 81.1224 180.496 81.5077 179.538 82.2782C178.601 83.0278 178.133 84.2773 178.133 86.0265V94.7413H174.573V77.5303H178.133V80.9038Z" fill="#1A1A1A"/>
<path d="M195.366 77.3116C196.927 77.3116 198.26 77.6969 199.363 78.4674C200.466 79.2379 201.247 80.2582 201.705 81.5285V77.5303H205.265V94.7413H201.705V90.7433C201.247 92.0134 200.466 93.0338 199.363 93.8042C198.26 94.5746 196.927 94.9599 195.366 94.9599C193.867 94.9599 192.524 94.606 191.338 93.898C190.172 93.1901 189.256 92.1696 188.59 90.8367C187.924 89.5042 187.591 87.932 187.591 86.1202C187.591 84.3293 187.924 82.7675 188.59 81.4348C189.256 80.1021 190.172 79.0817 191.338 78.3736C192.524 77.6657 193.867 77.3116 195.366 77.3116ZM196.459 80.4352C194.877 80.4352 193.607 80.9454 192.649 81.9658C191.713 82.9654 191.244 84.3502 191.244 86.1202C191.244 87.8902 191.713 89.2855 192.649 90.3059C193.607 91.3054 194.877 91.8052 196.459 91.8052C197.458 91.8052 198.353 91.5761 199.144 91.1178C199.935 90.639 200.56 89.9726 201.018 89.1188C201.476 88.2651 201.705 87.2656 201.705 86.1202C201.705 84.9957 201.476 84.0066 201.018 83.1528C200.56 82.2782 199.935 81.6118 199.144 81.1537C198.353 80.6747 197.458 80.4352 196.459 80.4352Z" fill="#1A1A1A"/>
<path d="M217.857 77.3117C219.418 77.3117 220.751 77.6969 221.854 78.4674C222.957 79.2379 223.727 80.2582 224.165 81.5285V71.6267H227.756V94.7413H224.165V90.7433C223.727 92.0134 222.957 93.0338 221.854 93.8042C220.751 94.5746 219.418 94.96 217.857 94.96C216.358 94.96 215.016 94.606 213.829 93.898C212.663 93.1901 211.747 92.1697 211.081 90.8368C210.415 89.5042 210.082 87.932 210.082 86.1202C210.082 84.3294 210.415 82.7675 211.081 81.4348C211.747 80.1021 212.663 79.0817 213.829 78.3737C215.016 77.6657 216.358 77.3117 217.857 77.3117ZM218.95 80.4353C217.368 80.4353 216.098 80.9454 215.14 81.9658C214.204 82.9654 213.735 84.3502 213.735 86.1202C213.735 87.8902 214.204 89.2855 215.14 90.306C216.098 91.3055 217.368 91.8052 218.95 91.8052C219.949 91.8052 220.844 91.5761 221.635 91.1179C222.427 90.639 223.051 89.9726 223.509 89.1188C223.967 88.2651 224.196 87.2656 224.196 86.1202C224.196 84.9957 223.967 84.0066 223.509 83.1528C223.051 82.2782 222.427 81.6118 221.635 81.1537C220.844 80.6747 219.949 80.4353 218.95 80.4353Z" fill="#1A1A1A"/>
<path d="M232.947 72.5325C232.947 71.9286 233.156 71.4288 233.572 71.0332C233.988 70.6375 234.54 70.4397 235.227 70.4397C235.914 70.4397 236.466 70.6375 236.882 71.0332C237.319 71.4288 237.538 71.9286 237.538 72.5325C237.538 73.1364 237.319 73.6258 236.882 74.0006C236.466 74.3755 235.914 74.5629 235.227 74.5629C234.54 74.5629 233.988 74.3755 233.572 74.0006C233.156 73.6258 232.947 73.1364 232.947 72.5325ZM237.007 77.5303V94.7413H233.447V77.5303H237.007Z" fill="#1A1A1A"/>
<path d="M250.603 77.3116C252.269 77.3116 253.767 77.6657 255.1 78.3736C256.432 79.0817 257.473 80.1021 258.222 81.4348C258.972 82.7675 259.347 84.3293 259.347 86.1202C259.347 87.932 258.972 89.5042 258.222 90.8367C257.473 92.1696 256.432 93.1901 255.1 93.898C253.767 94.606 252.269 94.9599 250.603 94.9599C248.938 94.9599 247.439 94.606 246.106 93.898C244.795 93.1901 243.754 92.1696 242.984 90.8367C242.234 89.4833 241.86 87.9111 241.86 86.1202C241.86 84.3293 242.234 82.7675 242.984 81.4348C243.754 80.1021 244.795 79.0817 246.106 78.3736C247.439 77.6657 248.938 77.3116 250.603 77.3116ZM250.603 80.404C249.687 80.404 248.844 80.6122 248.074 81.0287C247.304 81.4452 246.679 82.0907 246.2 82.9654C245.742 83.8192 245.513 84.8708 245.513 86.1202C245.513 87.3904 245.742 88.4524 246.2 89.3061C246.679 90.1602 247.304 90.7952 248.074 91.2116C248.844 91.628 249.687 91.8363 250.603 91.8363C251.519 91.8363 252.362 91.628 253.132 91.2116C253.903 90.7952 254.517 90.1602 254.975 89.3061C255.454 88.4524 255.693 87.3904 255.693 86.1202C255.693 84.8708 255.454 83.8192 254.975 82.9654C254.517 82.0907 253.903 81.4452 253.132 81.0287C252.362 80.6122 251.519 80.404 250.603 80.404Z" fill="#1A1A1A"/>
<path d="M280.051 77.5303V94.7413H276.461V90.993C276.023 92.2634 275.263 93.2525 274.181 93.9604C273.098 94.6475 271.839 94.9913 270.403 94.9913C268.404 94.9913 266.801 94.3458 265.594 93.0547C264.386 91.7634 263.783 89.9206 263.783 87.5258V77.5303H267.342V87.1509C267.342 88.7129 267.738 89.9206 268.529 90.7743C269.32 91.6074 270.403 92.0239 271.776 92.0239C273.192 92.0239 274.326 91.5656 275.18 90.6495C276.034 89.7333 276.461 88.4004 276.461 86.6512V77.5303H280.051Z" fill="#1A1A1A"/>
<path d="M291.386 77.3116C293.406 77.3116 295.019 77.8322 296.226 78.8734C297.455 79.8938 298.204 81.2682 298.475 82.9966H295.102C294.956 82.0595 294.55 81.3098 293.884 80.7476C293.239 80.1645 292.375 79.873 291.292 79.873C290.397 79.873 289.7 80.0916 289.2 80.529C288.721 80.9454 288.482 81.5181 288.482 82.2469C288.482 82.7883 288.659 83.2257 289.013 83.5589C289.367 83.892 289.804 84.1523 290.325 84.3397C290.866 84.5271 291.625 84.7354 292.604 84.9645C293.895 85.256 294.936 85.558 295.727 85.8703C296.538 86.1827 297.225 86.6825 297.788 87.3695C298.37 88.036 298.662 88.9521 298.662 90.1183C298.662 91.5552 298.11 92.7214 297.007 93.6169C295.925 94.5122 294.457 94.9599 292.604 94.9599C290.46 94.9599 288.721 94.4602 287.389 93.4607C286.078 92.4612 285.287 91.0659 285.016 89.2751H288.482C288.586 90.2121 289.002 90.9721 289.731 91.5552C290.46 92.1383 291.417 92.4298 292.604 92.4298C293.457 92.4298 294.124 92.2111 294.602 91.7738C295.102 91.3159 295.352 90.7433 295.352 90.0559C295.352 89.4519 295.165 88.973 294.79 88.6191C294.415 88.2651 293.947 87.9945 293.385 87.8069C292.823 87.5986 292.052 87.3904 291.074 87.1822C289.825 86.8907 288.805 86.5991 288.014 86.3076C287.243 86.0161 286.577 85.5475 286.015 84.902C285.474 84.2356 285.203 83.3402 285.203 82.2157C285.203 80.758 285.745 79.5815 286.827 78.686C287.93 77.7698 289.45 77.3116 291.386 77.3116Z" fill="#1A1A1A"/>
<path fill-rule="evenodd" clip-rule="evenodd" d="M138.31 55.0951H80V80.82C80 93.7295 87.9645 105.302 100.024 109.915L109.155 113.405L118.286 109.915C130.345 105.302 138.31 93.7295 138.31 80.82V55.0951ZM121.16 75.6751C121.16 82.3039 115.785 87.6802 109.155 87.6802C102.525 87.6802 97.1499 82.3039 97.1499 75.6751C97.1499 69.0462 102.525 63.6701 109.155 63.6701H121.16V75.6751ZM109.155 80.82C111.997 80.82 114.3 78.5155 114.3 75.6751C114.3 72.8346 111.997 70.5301 109.155 70.5301C106.313 70.5301 104.01 72.8346 104.01 75.6751C104.01 78.5155 106.313 80.82 109.155 80.82ZM97.1499 97.97C97.1499 94.1817 100.221 91.11 104.01 91.11H121.16C121.16 94.8985 118.088 97.97 114.3 97.97H97.1499Z" fill="#F55533"/>
</g>
<defs>
<filter id="filter0_dd_2220_4159" x="0" y="0" width="385" height="184" filterUnits="userSpaceOnUse" color-interpolation-filters="sRGB">
<feFlood flood-opacity="0" result="BackgroundImageFix"/>
<feColorMatrix in="SourceAlpha" type="matrix" values="0 0 0 0 0 0 0 0 0 0 0 0 0 0 0 0 0 0 127 0" result="hardAlpha"/>
<feOffset dy="8"/>
<feGaussianBlur stdDeviation="8"/>
<feColorMatrix type="matrix" values="0 0 0 0 0 0 0 0 0 0 0 0 0 0 0 0 0 0 0.08 0"/>
<feBlend mode="normal" in2="BackgroundImageFix" result="effect1_dropShadow_2220_4159"/>
<feColorMatrix in="SourceAlpha" type="matrix" values="0 0 0 0 0 0 0 0 0 0 0 0 0 0 0 0 0 0 127 0" result="hardAlpha"/>
<feOffset/>
<feGaussianBlur stdDeviation="2"/>
<feColorMatrix type="matrix" values="0 0 0 0 0 0 0 0 0 0 0 0 0 0 0 0 0 0 0.04 0"/>
<feBlend mode="normal" in2="effect1_dropShadow_2220_4159" result="effect2_dropShadow_2220_4159"/>
<feBlend mode="normal" in="SourceGraphic" in2="effect2_dropShadow_2220_4159" result="shape"/>
</filter>
<clipPath id="clip0_2220_4159">
<rect width="225" height="58.5" fill="white" transform="translate(80 55)"/>
</clipPath>
</defs>
</svg>
