<svg width="512" height="58" viewBox="0 0 512 58" fill="none" xmlns="http://www.w3.org/2000/svg">
<path d="M17.0495 47.813H38.4644V58H17.0495C14.6884 58 12.4646 57.5618 10.378 56.6856C8.34631 55.7545 6.56174 54.5222 5.02426 52.9887C3.48678 51.4551 2.25131 49.6752 1.31784 47.6487C0.439279 45.5675 0 43.3494 0 40.9943V0.410764H10.2132V40.9943C10.2132 42.9112 10.8722 44.5269 12.19 45.8414C13.5078 47.1558 15.1277 47.813 17.0495 47.813Z" fill="white"/>
<path d="M71.3756 58C67.4221 57.9452 63.6882 57.1785 60.174 55.6997C56.6597 54.1662 53.6122 52.1124 51.0315 49.5382C48.4507 46.9093 46.3916 43.8423 44.8541 40.3371C43.3715 36.8319 42.6303 33.1076 42.6303 29.1643C42.6303 25.1662 43.3715 21.4145 44.8541 17.9093C46.3916 14.4042 48.4507 11.3645 51.0315 8.79037C53.6672 6.16147 56.7421 4.10765 60.2563 2.6289C63.7706 1.09537 67.5319 0.328613 71.5403 0.328613H92.3786V10.5156H71.5403C68.9596 10.5156 66.5161 11.0085 64.2099 11.9943C61.9585 12.9802 59.9818 14.322 58.2796 16.0198C56.6323 17.6629 55.3144 19.6346 54.3261 21.9348C53.3377 24.1804 52.8435 26.5902 52.8435 29.1643C52.8435 31.7384 53.3377 34.1756 54.3261 36.4759C55.3144 38.7214 56.6323 40.6931 58.2796 42.3909C59.9818 44.034 61.9585 45.3484 64.2099 46.3343C66.5161 47.3201 68.9596 47.813 71.5403 47.813H92.3786V58H71.3756ZM84.4716 34.2578V24.0708H65.2806V34.2578H84.4716Z" fill="white"/>
<path d="M161.656 58H151.443V17.2521C151.443 15.1161 151.223 13.4183 150.784 12.1586C150.344 10.8442 149.411 10.187 147.983 10.187C146.83 10.187 145.705 10.5977 144.606 11.4193C143.508 12.186 142.492 13.1171 141.559 14.2125C140.625 15.3078 139.774 16.4306 139.006 17.5807C138.292 18.7309 137.688 19.6893 137.193 20.4561L112.813 58H100.623L125.003 20.4561C127.09 17.2247 129.039 14.3494 130.851 11.83C132.718 9.2559 134.585 7.09254 136.452 5.33994C138.374 3.58735 140.406 2.2729 142.547 1.3966C144.744 0.465534 147.242 0 150.042 0C153.502 0 156.302 1.50614 158.444 4.51841C160.585 7.53069 161.656 11.7753 161.656 17.2521V58Z" fill="white"/>
<path d="M169.878 58V47.813H190.716C193.297 47.813 195.713 47.3201 197.964 46.3343C200.27 45.3484 202.247 44.034 203.894 42.3909C205.596 40.6931 206.942 38.7214 207.93 36.4759C208.919 34.1756 209.413 31.7384 209.413 29.1643C209.413 26.5902 208.919 24.1804 207.93 21.9348C206.942 19.6346 205.596 17.6629 203.894 16.0198C202.247 14.322 200.27 12.9802 197.964 11.9943C195.713 11.0085 193.297 10.5156 190.716 10.5156H169.878V0.328613H190.716C194.724 0.328613 198.486 1.09537 202 2.6289C205.514 4.10765 208.562 6.16147 211.142 8.79037C213.778 11.3645 215.837 14.4042 217.32 17.9093C218.857 21.4145 219.626 25.1662 219.626 29.1643C219.626 33.1076 218.857 36.8319 217.32 40.3371C215.837 43.8423 213.805 46.9093 211.225 49.5382C208.644 52.1124 205.596 54.1662 202.082 55.6997C198.623 57.1785 194.916 57.9452 190.963 58H169.878Z" fill="white"/>
<path d="M283.797 40.9943C283.797 44.1709 283.44 46.8546 282.726 49.0453C282.012 51.1813 281.133 52.9339 280.09 54.3031C279.047 55.6176 277.921 56.576 276.713 57.1785C275.505 57.7262 274.407 58 273.419 58C271.387 58 269.63 57.7535 268.147 57.2606C266.665 56.7677 265.264 55.864 263.947 54.5496C262.629 53.2351 261.283 51.4004 259.911 49.0453C258.593 46.6903 257.055 43.6506 255.298 39.9263L247.062 22.6742C246.623 21.7979 246.101 20.7025 245.497 19.3881C244.893 18.0189 244.234 16.7044 243.52 15.4448C242.861 14.1303 242.175 13.0076 241.461 12.0765C240.802 11.1454 240.198 10.6251 239.649 10.5156C239.155 10.406 238.743 10.8442 238.413 11.83C238.139 12.8159 238.029 14.6232 238.084 17.2521V58H227.871V17.2521C227.871 14.0755 228.228 11.4193 228.942 9.28328C229.655 7.09254 230.506 5.33994 231.495 4.0255C232.538 2.71105 233.664 1.77998 234.872 1.23229C236.08 0.629839 237.178 0.328613 238.166 0.328613C240.198 0.328613 241.955 0.575072 243.438 1.06799C244.92 1.56091 246.321 2.46459 247.638 3.77904C248.956 5.09348 250.274 6.92823 251.592 9.28328C252.965 11.5836 254.53 14.5958 256.287 18.3201L264.853 36.2295C265.347 37.3248 265.896 38.5571 266.5 39.9263C267.159 41.2408 267.818 42.5005 268.477 43.7054C269.191 44.8555 269.849 45.8414 270.453 46.6629C271.112 47.4296 271.689 47.813 272.183 47.813C272.677 47.7583 273.034 47.238 273.254 46.2521C273.528 45.2115 273.638 43.4589 273.583 40.9943V0.328613H283.797V40.9943Z" fill="white"/>
<path d="M320.803 58C316.849 57.9452 313.115 57.1785 309.601 55.6997C306.087 54.1662 303.039 52.1124 300.459 49.5382C297.878 46.9093 295.819 43.8423 294.281 40.3371C292.799 36.8319 292.057 33.1076 292.057 29.1643C292.057 25.1662 292.799 21.4145 294.281 17.9093C295.819 14.4042 297.878 11.3645 300.459 8.79037C303.094 6.16147 306.169 4.10765 309.684 2.6289C313.198 1.09537 316.959 0.328613 320.968 0.328613H341.806V10.5156H320.968C318.387 10.5156 315.943 11.0085 313.637 11.9943C311.386 12.9802 309.409 14.322 307.707 16.0198C306.06 17.6629 304.742 19.6346 303.753 21.9348C302.765 24.1804 302.271 26.5902 302.271 29.1643C302.271 31.7384 302.765 34.1756 303.753 36.4759C304.742 38.7214 306.06 40.6931 307.707 42.3909C309.409 44.034 311.386 45.3484 313.637 46.3343C315.943 47.3201 318.387 47.813 320.968 47.813H341.806V58H320.803ZM333.899 34.2578V24.0708H314.708V34.2578H333.899Z" fill="white"/>
<path d="M395.319 0.328613V10.5156H364.927C363.444 10.5156 362.209 10.8442 361.22 11.5014C360.232 12.1586 359.491 13.0076 358.996 14.0482C358.502 15.034 358.255 16.1294 358.255 17.3343C358.255 18.4844 358.502 19.5798 358.996 20.6204C359.491 21.6062 360.232 22.4278 361.22 23.085C362.209 23.7422 363.444 24.0708 364.927 24.0708H383.87C386.232 24.0708 388.428 24.509 390.46 25.3853C392.546 26.2616 394.358 27.4665 395.896 29C397.433 30.5335 398.641 32.3409 399.52 34.4221C400.453 36.4485 400.92 38.6393 400.92 40.9943C400.92 43.3494 400.453 45.5675 399.52 47.6487C398.641 49.6752 397.433 51.4551 395.896 52.9887C394.358 54.5222 392.546 55.7545 390.46 56.6856C388.428 57.5618 386.232 58 383.87 58H351.913V47.813H383.87C385.353 47.813 386.589 47.4844 387.577 46.8272C388.62 46.17 389.389 45.3484 389.883 44.3626C390.377 43.322 390.624 42.2266 390.624 41.0765C390.624 39.8716 390.377 38.7762 389.883 37.7904C389.389 36.7498 388.62 35.9008 387.577 35.2436C386.589 34.5864 385.353 34.2578 383.87 34.2578H364.515C362.209 34.203 360.04 33.7375 358.008 32.8612C356.031 31.9301 354.274 30.6978 352.737 29.1643C351.254 27.6308 350.073 25.8508 349.195 23.8244C348.371 21.7432 347.959 19.5524 347.959 17.2521C347.959 14.8971 348.399 12.7063 349.277 10.6799C350.156 8.59868 351.364 6.79131 352.901 5.25779C354.439 3.72427 356.223 2.51936 358.255 1.64306C360.342 0.766761 362.565 0.328613 364.927 0.328613H395.319Z" fill="white"/>
<path d="M423.847 10.5156H405.068V0.328613H452.922V10.5156H434.06V58H423.847V10.5156Z" fill="white"/>
<path d="M506.399 0.328613V10.5156H476.007C474.524 10.5156 473.289 10.8442 472.3 11.5014C471.312 12.1586 470.57 13.0076 470.076 14.0482C469.582 15.034 469.335 16.1294 469.335 17.3343C469.335 18.4844 469.582 19.5798 470.076 20.6204C470.57 21.6062 471.312 22.4278 472.3 23.085C473.289 23.7422 474.524 24.0708 476.007 24.0708H494.95C497.312 24.0708 499.508 24.509 501.54 25.3853C503.626 26.2616 505.438 27.4665 506.976 29C508.513 30.5335 509.721 32.3409 510.6 34.4221C511.533 36.4485 512 38.6393 512 40.9943C512 43.3494 511.533 45.5675 510.6 47.6487C509.721 49.6752 508.513 51.4551 506.976 52.9887C505.438 54.5222 503.626 55.7545 501.54 56.6856C499.508 57.5618 497.312 58 494.95 58H462.993V47.813H494.95C496.433 47.813 497.668 47.4844 498.657 46.8272C499.7 46.17 500.469 45.3484 500.963 44.3626C501.457 43.322 501.704 42.2266 501.704 41.0765C501.704 39.8716 501.457 38.7762 500.963 37.7904C500.469 36.7498 499.7 35.9008 498.657 35.2436C497.668 34.5864 496.433 34.2578 494.95 34.2578H475.595C473.288 34.203 471.12 33.7375 469.088 32.8612C467.111 31.9301 465.354 30.6978 463.817 29.1643C462.334 27.6308 461.153 25.8508 460.275 23.8244C459.451 21.7432 459.039 19.5524 459.039 17.2521C459.039 14.8971 459.479 12.7063 460.357 10.6799C461.236 8.59868 462.444 6.79131 463.981 5.25779C465.519 3.72427 467.303 2.51936 469.335 1.64306C471.422 0.766761 473.645 0.328613 476.007 0.328613H506.399Z" fill="white"/>
</svg>
