<svg width="307" height="79" viewBox="0 0 307 79" fill="none" xmlns="http://www.w3.org/2000/svg">
<path d="M111.056 29.154L104.114 58.7386H102.466L111.397 19.9971H113.443L125.675 50.6606L137.849 19.9971H139.613L148.375 58.7386H142.799L136.201 29.2113L124.539 58.9645H123.231L111.056 29.154Z" fill="white"/>
<path d="M168.169 41.1558V58.7346H162.879V41.5536L151.103 20.219H157.815L167.828 39.1059L178.354 20.219H179.777L168.172 41.1558H168.169Z" fill="white"/>
<path d="M191.596 40.7565V58.7332H186.307V20.2209H196.832C200.076 20.2209 202.807 21.1312 204.91 22.8945C207.014 24.6578 208.096 26.8189 208.096 29.4925C208.096 34.2698 205.14 37.5132 199.223 39.3338L217.826 58.7332H211.286L194.56 40.7565H191.603H191.596ZM191.596 21.755V39.2192H194.668C199.732 39.2192 202.463 36.0904 202.463 30.1735C202.463 24.2566 199.961 21.755 193.077 21.755H191.596Z" fill="white"/>
<path d="M249.694 45.9901L245.085 58.7342H243.494L257.887 19.9927H259.252L274.158 58.7342H268.581L263.804 45.9901H249.694ZM263.234 44.51L256.579 27.5009L250.207 44.51H263.234Z" fill="white"/>
<path d="M285.762 39.6777V58.7366H280.472V20.2209H285.762V38.1976H301.122V20.2209H306.47V58.7366H301.122V39.6777H285.762Z" fill="white"/>
<path d="M223.094 39.3338C229.011 37.5132 231.967 34.2698 231.967 29.4925C231.967 26.8189 230.885 24.6578 228.781 22.8945C226.677 21.1312 223.947 20.2209 220.703 20.2209H215.471V21.755H216.951C223.835 21.755 226.337 23.9734 226.337 30.1735C226.337 36.3736 223.606 39.2192 218.542 39.2192H215.471V40.7565H218.427L235.153 58.7332H241.694L223.09 39.3338H223.094Z" fill="white"/>
<path d="M0 78.9564H78.9564V0H0V4.26828H74.6881V74.6881H4.26828V11.3618H67.5945V67.5945H11.3618V18.452H60.5043V60.501L18.452 60.5043V25.4613H53.4951V53.4951H25.4613V32.6358H46.3172V46.3206H32.6358V39.7294H39.7294V39.227H31.3816V47.5748H47.5748V31.3816H23.6205V55.3359H55.3359V23.6205H15.6908V63.2656H18.9544H60.002H63.2656V15.6908H7.8454V71.111H71.111V7.8454H0V78.9564Z" fill="white"/>
</svg>
