<svg width="293" height="80" viewBox="0 0 293 80" fill="none" xmlns="http://www.w3.org/2000/svg">
<path d="M22.2363 57.994C25.2891 63.1783 28.1636 68.2055 29.4714 72.6978C29.9087 74.1881 29.3185 75.6997 27.9301 76.1115L16.0244 79.6527C14.7931 80.0136 13.7146 79.1899 13.3282 77.9076C13.2518 77.6783 13.2263 77.4193 13.2008 77.1391C12.738 71.9547 11.5322 66.643 10.0206 61.5097C6.86587 50.9627 2.39911 41.1842 0.399264 34.5138C-1.03587 29.6904 1.52869 25.0963 5.99545 23.763L18.4149 20.0691C28.9364 16.9398 36.5069 23.6612 39.0206 32.0809C41.6658 40.9592 38.8932 51.8416 28.0872 55.0473C23.9304 56.2786 23.595 55.612 22.2872 55.9984C21.7734 56.1513 21.6715 56.5376 21.8499 57.1024C21.9263 57.3571 22.0537 57.6416 22.2108 57.9728L22.2363 57.9982V57.994ZM19.4636 53.2683C19.8246 53.0644 20.2576 52.8564 20.7459 52.7035C21.2597 52.5507 21.9008 52.4743 22.6693 52.2407C26.8007 51.0094 31.9595 47.3154 29.9299 40.4879C28.9788 37.2822 25.7731 34.5096 21.3319 35.8428C18.4319 36.7132 14.8398 40.3096 17.1496 48.0584C17.7143 49.9819 18.3554 51.4977 19.4849 53.2937L19.4594 53.2683H19.4636Z" fill="white"/>
<path d="M77.0004 50.1134C75.1024 45.7231 69.5317 43.3114 65.5023 44.1861C62.9377 44.7508 60.7044 46.4704 61.3965 49.8587V49.9351C62.2669 53.9391 66.2453 54.2193 69.8926 53.4253C72.92 52.7842 75.8709 51.3448 76.9749 50.1389L77.0004 50.1134ZM88.5197 52.8351C89.6236 57.9175 87.4157 61.0978 82.8216 62.0998L64.9843 65.9509C57.6176 67.5431 52.947 62.8726 51.359 55.4549C49.6649 47.655 54.4883 41.2903 62.5981 39.5198C68.5764 38.2375 74.6354 40.6237 78.4058 44.5003C78.3548 43.6553 78.2784 42.7807 78.0704 41.8296C76.6862 35.4649 73.7607 33.0022 69.0137 34.0297C65.7528 34.7218 60.7511 37.0826 57.9275 37.6982C53.0786 38.7512 49.1511 33.1296 48.0981 28.2552C47.9453 27.5377 47.8688 26.8201 47.8179 26.1492C49.6903 26.2257 51.2571 26.0473 52.7177 25.7883C56.9509 24.8627 63.0864 22.3746 67.655 21.398C71.3235 20.604 74.9411 20.4978 78.4313 22.3746C81.0765 23.7842 82.5116 26.1705 83.0764 28.8157C83.2037 29.4059 83.3056 29.9961 83.3311 30.6117C83.5604 34.1783 83.9468 36.9764 84.4605 39.3372C85.6919 45.0862 87.5389 48.1645 88.5409 52.8606L88.5154 52.8351H88.5197Z" fill="white"/>
<path d="M95.3977 60.0703C94.2428 60.2232 93.2407 59.3273 93.0624 57.8879C93.0369 57.6586 93.0369 57.3741 93.0369 57.1194C93.5252 50.8311 93.0115 43.7234 92.1113 36.794C90.7271 26.0941 88.4683 15.8019 87.67 9.59007C87.0289 4.58408 89.4661 1.40385 94.0857 0.813658L100.115 0.0451394C101.835 -0.184143 102.837 0.482478 102.989 1.53548C103.117 2.43562 102.501 4.28262 102.399 5.43752C101.733 12.5707 101.936 19.5511 102.837 26.5315C104.042 35.8981 106.48 45.2137 109.664 54.8605C109.766 55.0389 109.792 55.2979 109.817 55.4762C109.995 56.9113 109.201 58.2743 107.817 58.4526L95.3977 60.0449V60.0703Z" fill="white"/>
<path d="M215.945 51.9354C227.685 54.6146 226.827 54.4278 233.765 53.8122H234.168C235.026 53.999 235.535 55.2048 235.293 56.3045L233.175 65.7094C232.907 66.9152 231.808 67.5606 230.763 67.3186L202.515 60.9666C201.228 60.6736 199.835 59.4933 200.264 57.5911L201.283 53.0606C202.676 46.87 221.142 41.5371 226.53 35.1851L218.034 33.2829C213.826 32.3446 210.531 33.7372 208.922 33.3891C207.661 33.0961 207.126 32.0771 207.393 30.8967L210.022 19.267C210.289 18.0611 211.414 17.4158 212.514 17.6578L235.158 22.7487C238.72 23.5512 241.293 25.7251 240.41 29.5847L239.658 32.8796C238.185 39.3929 217.015 47.3498 215.996 51.9354H215.94H215.945Z" fill="white"/>
<path d="M272.976 62.8513C273.489 56.8857 268.806 50.9244 263.902 49.4808C260.76 48.5509 257.266 49.1283 256.013 53.2639V53.3616C254.54 58.2657 258.769 60.9618 263.227 62.2441C266.946 63.3353 271.018 63.5264 272.976 62.8513ZM283.973 72.6934C282.147 78.9477 277.816 81.1259 272.203 79.4615L250.332 73.0501C241.322 70.4219 238.949 62.4989 241.611 53.3913C244.4 43.8039 253.508 39.6981 263.448 42.5853C270.789 44.7338 275.986 50.9881 277.846 57.4632C278.296 56.4993 278.742 55.5058 279.064 54.3212C281.34 46.4958 279.608 42.0716 273.74 40.3392C269.766 39.1843 262.836 38.7682 259.376 37.7407C253.41 36.0083 252.451 27.4782 254.213 21.4829C254.468 20.587 254.79 19.7845 255.143 19.0117C257.164 20.1963 258.989 20.9691 260.756 21.5126C265.949 23.0199 274.16 23.9498 279.769 25.5845C284.291 26.9007 288.299 28.9515 291.025 33.0871C293.076 36.2291 293.237 39.6938 292.308 42.9335C292.083 43.6723 291.828 44.3771 291.505 45.048C289.611 49.0901 288.393 52.3893 287.531 55.3105C285.48 62.363 285.637 66.8213 283.973 72.5958V72.6934Z" fill="white"/>
<path d="M152.043 26.0445C157.228 38.1928 150.383 48.9269 140.945 53.5521C131.486 58.1904 119.443 56.7459 114.237 44.6063C109.031 32.4058 115.888 21.7021 125.335 17.0421C134.773 12.4169 146.804 13.8353 152.006 26.0358L152.038 26.0489L152.043 26.0445ZM126.357 38.6757C129.762 46.6687 135.321 48.7311 139.2 46.821C143.079 44.9109 145.29 38.989 141.882 31.057C138.478 23.064 132.862 20.9972 128.983 22.9074C125.103 24.8175 122.953 30.6828 126.365 38.6975L126.357 38.6714V38.6757Z" fill="white"/>
<path d="M159.678 25.908C167.253 14.8527 180.903 15.2118 190.746 21.1114C200.611 27.0281 206.678 38.4596 199.126 49.532C191.523 60.6301 177.882 60.2496 168.002 54.3586C158.16 48.459 152.08 37.0446 159.682 25.9465L159.673 25.9123L159.678 25.908ZM186.504 41.9481C191.487 34.6847 189.923 28.6569 185.873 26.2372C181.818 23.8175 175.239 25.006 170.311 32.2437C165.328 39.507 166.924 45.5819 170.974 48.0058C175.029 50.4255 181.521 49.2157 186.522 41.9267L186.508 41.9481H186.504Z" fill="white"/>
</svg>
