<svg width="385" height="184" viewBox="0 0 385 184" fill="none" xmlns="http://www.w3.org/2000/svg">
<g filter="url(#filter0_dd_2220_4516)">
<rect x="16" y="8" width="353" height="152" rx="15" fill="white"/>
</g>
<g clip-path="url(#clip0_2220_4516)">
<path d="M122.91 83.5218C122.91 82.1491 124.028 81.0281 125.397 81.0281C126.766 81.0281 127.884 82.1491 127.884 83.5218C127.884 84.8947 126.766 86.0158 125.397 86.0158C124.028 86.0158 122.91 84.8947 122.91 83.5218Z" fill="#FDC417"/>
<path d="M81.8061 83.5218C81.8061 84.8947 80.6882 86.0158 79.3194 86.0158C77.9506 86.0158 76.8327 84.8947 76.8327 83.5218C76.8327 82.1491 77.9506 81.0281 79.3194 81.0281C80.6882 81.0281 81.8061 82.1491 81.8061 83.5218Z" fill="#FDC417"/>
<path d="M99.8796 60.416C99.8796 59.0432 100.998 57.9221 102.366 57.9221C103.735 57.9221 104.853 59.0432 104.853 60.416C104.853 61.7888 103.735 62.9099 102.366 62.9099C100.998 62.9099 99.8796 61.7888 99.8796 60.416Z" fill="#FDC417"/>
<path d="M104.853 106.634C104.853 108.007 103.735 109.128 102.366 109.128C100.998 109.128 99.8796 108.007 99.8796 106.634C99.8796 105.261 100.998 104.14 102.366 104.14C103.735 104.14 104.853 105.261 104.853 106.634Z" fill="#FDC417"/>
<path d="M104.853 83.5218C104.853 84.8947 103.735 86.0158 102.366 86.0158C100.998 86.0158 99.8796 84.8947 99.8796 83.5218C99.8796 82.1491 100.998 81.0281 102.366 81.0281C103.735 81.0281 104.853 82.1491 104.853 83.5218Z" fill="#FDC417"/>
<path d="M99.0809 80.299C99.0809 80.299 99.2634 80.4363 99.3546 80.4363C99.4459 80.4363 99.5142 80.4134 99.5828 80.3447C100.997 79.1322 103.005 79.338 103.028 79.338H104.397H104.488H112.176H125.545C127.849 79.338 129.72 81.214 129.72 83.5251C129.72 85.8359 127.849 87.712 125.545 87.712C123.24 87.712 121.37 85.8359 121.37 83.5251C121.37 82.6784 121.621 81.8776 122.077 81.1913C122.191 81.0311 122.145 80.8024 121.986 80.688C121.826 80.5734 121.598 80.6193 121.484 80.7795C120.936 81.603 120.64 82.5411 120.64 83.5251C120.64 86.2478 122.853 88.4443 125.545 88.4443C128.237 88.4443 130.45 86.2249 130.45 83.5251C130.45 80.8253 128.237 78.6059 125.545 78.6059H112.313C112.313 78.6059 112.153 78.583 112.085 78.6059H103.073C102.822 78.583 100.701 78.4228 99.1036 79.7955C98.944 79.9328 98.9211 80.1618 99.058 80.3218" fill="#B01C1A"/>
<path d="M99.4215 77.4819C99.4215 77.4819 99.5355 77.4819 99.604 77.436C100.904 76.704 103.665 76.8413 103.71 76.8413H103.961H105.353H125.589C128.669 76.9098 131.269 79.0606 131.931 82.0806C132.319 83.8196 131.999 85.6042 131.041 87.1144C130.083 88.6244 128.6 89.654 126.866 90.0429C124.836 90.5004 122.76 89.9742 121.14 88.6473C120.843 88.3956 120.547 88.0981 120.296 87.8006C119.612 86.9771 119.133 86.016 118.904 84.9635C118.63 83.7052 118.722 82.401 119.155 81.2113V81.1427C119.247 80.9596 119.155 80.7308 118.973 80.6621C118.79 80.5935 118.562 80.6621 118.494 80.8681V80.9367C117.969 82.2638 117.878 83.7281 118.174 85.1238C118.425 86.2906 118.95 87.3431 119.726 88.281C119.999 88.6244 120.319 88.9446 120.661 89.2192C122.007 90.3631 123.672 90.9581 125.383 90.9581C125.931 90.9581 126.456 90.8894 127.003 90.775C128.942 90.3404 130.585 89.1963 131.634 87.526C132.707 85.8558 133.049 83.8654 132.615 81.9206C131.885 78.58 128.988 76.1777 125.566 76.1092H103.688C103.459 76.1092 100.676 75.9719 99.1934 76.7954C99.0109 76.8871 98.9423 77.1158 99.0565 77.2988C99.1248 77.4133 99.239 77.4819 99.3759 77.4819" fill="#B01C1A"/>
<path d="M127.438 109.491C127.369 110.064 127.278 110.658 127.187 111.253C127.141 111.459 127.278 111.642 127.483 111.688C127.483 111.688 127.529 111.688 127.552 111.688C127.734 111.688 127.871 111.574 127.917 111.39C128.031 110.727 128.145 110.064 128.19 109.423C128.829 109.354 129.468 109.263 130.13 109.148C130.335 109.102 130.472 108.919 130.426 108.714C130.381 108.508 130.198 108.37 129.993 108.416C129.24 108.553 128.51 108.668 127.803 108.714C127.027 108.782 126.251 108.828 125.476 108.828H125.43H125.407C124.7 108.828 123.993 108.805 123.194 108.736C122.442 108.668 121.689 108.576 120.913 108.439C120.16 108.302 119.384 108.119 118.654 107.936C117.879 107.73 117.126 107.478 116.419 107.204C115.643 106.906 114.89 106.563 114.16 106.197C113.476 105.854 112.791 105.465 112.153 105.076V103.177C112.563 103.451 112.997 103.726 113.43 104C114.297 104.504 115.187 104.961 116.099 105.35C116.898 105.693 117.719 105.991 118.54 106.243C119.316 106.471 120.114 106.677 120.913 106.837C121.689 106.997 122.487 107.089 123.285 107.181C124.038 107.249 124.746 107.272 125.43 107.272C125.476 107.272 125.521 107.272 125.567 107.272C125.59 107.272 125.635 107.272 125.658 107.272C126.457 107.272 127.255 107.226 128.031 107.135C129.605 106.975 131.156 106.631 132.662 106.151C132.844 106.082 132.959 105.876 132.89 105.693C132.822 105.51 132.616 105.396 132.434 105.465C130.974 105.922 129.468 106.242 127.962 106.426C127.209 106.517 126.434 106.563 125.658 106.563C125.613 106.563 125.59 106.563 125.544 106.563C125.498 106.563 125.476 106.563 125.43 106.563C124.768 106.563 124.084 106.54 123.354 106.471C122.578 106.403 121.803 106.288 121.05 106.151C120.274 105.991 119.498 105.808 118.746 105.579C117.947 105.327 117.149 105.03 116.373 104.71C115.506 104.344 114.639 103.886 113.795 103.405C113.225 103.085 112.677 102.719 112.153 102.33V100.317C113.179 101.14 114.251 101.85 115.392 102.467C116.305 102.948 117.24 103.382 118.198 103.726C118.997 104.023 119.864 104.275 120.73 104.458C121.552 104.641 122.373 104.778 123.172 104.87C123.924 104.938 124.677 104.984 125.43 104.984C125.453 104.984 125.476 104.984 125.521 104.984C125.521 104.984 125.544 104.984 125.567 104.984C126.343 104.984 127.141 104.938 127.939 104.847C130.381 104.549 132.753 103.863 134.943 102.765C135.126 102.673 135.194 102.445 135.103 102.261C135.012 102.078 134.784 102.01 134.601 102.101C132.479 103.154 130.198 103.84 127.848 104.115C127.073 104.206 126.32 104.252 125.567 104.252C125.567 104.252 125.521 104.252 125.498 104.252H125.453C124.746 104.252 123.993 104.206 123.263 104.137C122.487 104.046 121.711 103.932 120.913 103.749C120.069 103.566 119.248 103.314 118.472 103.039C117.559 102.696 116.647 102.307 115.78 101.827C114.502 101.14 113.316 100.317 112.198 99.3785V97.2279C113.704 98.6923 115.415 99.9048 117.308 100.82C118.221 101.255 119.202 101.621 120.206 101.918C121.05 102.17 121.94 102.353 122.807 102.467C123.628 102.582 124.449 102.65 125.27 102.65C125.293 102.65 125.316 102.65 125.362 102.65C125.407 102.65 125.453 102.65 125.476 102.65C126.183 102.65 126.913 102.605 127.666 102.513C131.065 102.124 134.304 100.797 137.042 98.715C137.202 98.6006 137.225 98.349 137.111 98.1887C136.997 98.0287 136.746 98.0058 136.586 98.1202C133.962 100.134 130.86 101.392 127.574 101.781C126.844 101.872 126.137 101.895 125.476 101.895C125.453 101.895 125.407 101.895 125.384 101.895C125.362 101.895 125.316 101.895 125.293 101.895C124.495 101.895 123.696 101.827 122.92 101.712C122.077 101.598 121.255 101.415 120.434 101.186C119.476 100.911 118.54 100.545 117.65 100.134C115.597 99.1498 113.772 97.8227 112.221 96.1525V93.6815C114 96.0381 116.373 97.8915 119.111 99.0354C120.069 99.4244 121.073 99.7446 122.077 99.9506C122.943 100.134 123.81 100.248 124.7 100.294C124.997 100.294 125.248 100.294 125.498 100.294C126.046 100.294 126.594 100.271 127.164 100.202C131.795 99.7446 136.061 97.3194 138.867 93.5442C138.981 93.3842 138.959 93.1552 138.799 93.0179C138.639 92.9035 138.411 92.9265 138.274 93.0867C135.605 96.6787 131.521 99.0125 127.095 99.4473C126.571 99.4929 126.023 99.5158 125.498 99.5158C125.27 99.5158 125.019 99.5158 124.746 99.5158C123.902 99.4702 123.057 99.3785 122.236 99.1956C121.278 98.9896 120.32 98.6923 119.407 98.326C116.464 97.1135 114 95.0544 112.221 92.3773V88.9683C113.772 92.7662 116.92 95.7865 120.799 97.1365C121.757 97.4796 122.761 97.7083 123.787 97.8227C124.381 97.8915 124.951 97.9371 125.498 97.9371C125.772 97.9371 126.069 97.9371 126.411 97.9144C133.939 97.4337 139.825 91.1419 139.825 83.5685C139.825 75.9954 134.19 69.9781 126.89 69.2687C127.073 68.7654 127.232 68.2392 127.392 67.7129C131.658 68.2162 135.582 70.4815 138.206 73.9362C138.274 74.0277 138.388 74.0735 138.502 74.0735C138.571 74.0735 138.662 74.0506 138.73 74.0048C138.89 73.8904 138.913 73.6617 138.799 73.4788C136.084 69.8865 132.023 67.53 127.597 66.9808C127.734 66.4774 127.848 65.9512 127.939 65.425C131.042 65.8368 133.985 67.0494 136.495 68.9485C136.563 68.9942 136.632 69.0171 136.723 69.0171C136.837 69.0171 136.951 68.9712 137.019 68.8798C137.133 68.7196 137.111 68.4908 136.951 68.3535C134.35 66.3859 131.293 65.1275 128.076 64.6928C128.168 64.1666 128.236 63.6403 128.282 63.1141C130.472 63.4115 132.571 64.0522 134.533 65.0131C134.578 65.036 134.647 65.0589 134.692 65.0589C134.829 65.0589 134.966 64.9902 135.012 64.853C135.103 64.6699 135.012 64.4411 134.852 64.3496C132.799 63.3429 130.609 62.6794 128.35 62.3819C128.396 61.8328 128.419 61.2837 128.419 60.7804C129.765 60.9405 131.065 61.238 132.343 61.6269C132.388 61.6269 132.411 61.6269 132.457 61.6269C132.616 61.6269 132.753 61.5354 132.799 61.3752C132.867 61.1922 132.753 60.9863 132.548 60.9176C131.225 60.5058 129.833 60.2084 128.419 60.0253C128.419 59.4991 128.396 58.95 128.35 58.4009C128.852 58.4695 129.377 58.5381 129.924 58.6296C129.924 58.6296 129.97 58.6296 129.993 58.6296C130.175 58.6296 130.312 58.5152 130.358 58.3322C130.403 58.1263 130.267 57.9432 130.061 57.8975C129.445 57.7831 128.875 57.7145 128.305 57.6458C128.236 57.0738 128.168 56.5018 128.054 55.8841C128.008 55.6782 127.825 55.5409 127.62 55.5866C127.415 55.6324 127.278 55.8154 127.324 56.0214C127.438 56.7306 127.529 57.3713 127.597 58.0119C127.666 58.7898 127.711 59.5677 127.711 60.3456V60.3914C127.711 61.1236 127.689 61.8557 127.597 62.6336C127.529 63.3886 127.438 64.1437 127.301 64.9216C127.164 65.6766 126.981 66.4545 126.799 67.1867C126.594 67.9646 126.343 68.7196 126.069 69.429C125.772 70.2069 125.453 70.9619 125.065 71.694C124.723 72.3804 124.335 73.0669 123.947 73.7075H122.054C122.327 73.2956 122.601 72.8608 122.875 72.4262C123.377 71.5567 123.833 70.6644 124.221 69.7492C124.563 68.9485 124.86 68.1248 125.111 67.301C125.339 66.5232 125.544 65.7224 125.704 64.9216C125.863 64.1437 125.955 63.3429 126.046 62.5421C126.114 61.7871 126.137 61.0778 126.137 60.3914C126.137 60.3456 126.137 60.2999 126.137 60.2541C126.137 60.2312 126.137 60.1855 126.137 60.1626C126.137 59.3618 126.092 58.561 126 57.7831C125.841 56.273 125.521 54.763 125.088 53.3444C125.019 53.1614 124.814 53.047 124.632 53.0927C124.426 53.1614 124.335 53.3673 124.381 53.5503C124.814 54.946 125.111 56.3874 125.27 57.8517C125.362 58.6068 125.407 59.3847 125.407 60.1626C125.407 60.2084 125.407 60.2312 125.407 60.277C125.407 60.3228 125.407 60.3456 125.407 60.3914C125.407 61.0549 125.384 61.7413 125.316 62.4735C125.248 63.2514 125.133 64.0293 124.997 64.7843C124.837 65.5622 124.654 66.363 124.426 67.0952C124.175 67.896 123.879 68.6967 123.559 69.4746C123.194 70.3442 122.738 71.2135 122.259 72.06C121.94 72.6321 121.574 73.1812 121.187 73.7075H119.179C120 72.6779 120.708 71.6025 121.324 70.4585C121.803 69.5433 122.236 68.6052 122.578 67.6444C122.875 66.8435 123.126 65.9741 123.308 65.1046C123.491 64.281 123.628 63.4573 123.719 62.6565C123.81 61.9015 123.833 61.1464 123.833 60.3914C123.833 60.3685 123.833 60.3456 123.833 60.2999C123.833 60.2999 123.833 60.277 123.833 60.2541C123.833 59.4762 123.787 58.6754 123.696 57.8746C123.422 55.4951 122.761 53.1842 121.711 51.0336C121.62 50.8505 121.415 50.7819 121.232 50.8734C121.05 50.9649 120.981 51.1937 121.073 51.3767C122.077 53.4359 122.715 55.6553 122.989 57.9661C123.08 58.7441 123.126 59.4991 123.126 60.2541C123.126 60.2541 123.126 60.2999 123.126 60.3227V60.3685C123.126 61.0778 123.08 61.8328 123.012 62.565C122.92 63.3429 122.807 64.1208 122.624 64.9216C122.442 65.7681 122.19 66.5918 121.917 67.3698C121.574 68.285 121.187 69.2002 120.708 70.0696C120.023 71.3508 119.202 72.5406 118.267 73.6617H116.122C117.582 72.1517 118.791 70.4356 119.704 68.5367C120.137 67.6215 120.502 66.6376 120.799 65.6309C121.05 64.7843 121.232 63.892 121.346 63.0226C121.46 62.1989 121.529 61.3752 121.529 60.5516C121.529 60.5287 121.529 60.5058 121.529 60.46C121.529 60.4143 121.529 60.3685 121.529 60.3456C121.529 59.6364 121.483 58.9042 121.392 58.1492C121.004 54.8087 119.749 51.6284 117.742 48.9515C117.628 48.7913 117.4 48.7456 117.217 48.8829C117.057 48.9972 117.012 49.2261 117.149 49.4091C119.065 51.9945 120.297 55.0604 120.662 58.2636C120.753 58.9729 120.776 59.6821 120.776 60.3685C120.776 60.3914 120.776 60.4372 120.776 60.46C120.776 60.4829 120.776 60.5287 120.776 60.5516C120.776 61.3524 120.708 62.1531 120.594 62.9311C120.479 63.7776 120.297 64.6013 120.069 65.425C119.795 66.3859 119.43 67.324 119.019 68.2162C118.038 70.2754 116.715 72.1058 115.05 73.6617H112.586C114.936 71.8771 116.784 69.4975 117.924 66.752C118.312 65.791 118.632 64.7843 118.837 63.7776C119.019 62.9082 119.133 62.0387 119.179 61.1464C119.179 60.849 119.179 60.5973 119.179 60.3456C119.179 59.7965 119.156 59.2474 119.088 58.6754C118.632 54.1223 116.305 49.9124 112.677 47.0982C112.518 46.9838 112.289 47.0067 112.153 47.1669C112.038 47.327 112.061 47.5558 112.221 47.6931C115.689 50.37 117.924 54.3969 118.358 58.7441C118.403 59.2703 118.426 59.8194 118.426 60.3456C118.426 60.5744 118.426 60.8261 118.426 61.1007C118.381 61.9472 118.289 62.7938 118.107 63.6175C117.902 64.5784 117.605 65.5394 117.24 66.4545C116.031 69.406 113.978 71.8771 111.308 73.6617H107.909C111.696 72.1058 114.708 68.9485 116.054 65.0589C116.396 64.0979 116.624 63.0912 116.738 62.0616C116.807 61.4667 116.852 60.8947 116.852 60.3456C116.852 60.0711 116.852 59.7736 116.829 59.4533C116.35 51.903 110.077 46 102.525 46C94.9738 46 88.9738 51.6513 88.2667 58.9729C87.7646 58.7898 87.24 58.6296 86.7153 58.4695C87.2171 54.2367 89.43 50.3243 92.8065 47.716C92.9663 47.6016 92.989 47.3499 92.875 47.1897C92.7609 47.0296 92.51 47.0067 92.3503 47.1211C88.8369 49.8438 86.5328 53.8706 85.9853 58.2636C85.4834 58.1263 84.9586 58.0119 84.4339 57.9204C84.8446 54.8316 86.0309 51.903 87.9015 49.4091C88.0157 49.2489 87.9928 49.0201 87.8332 48.8829C87.6734 48.7685 87.4453 48.7913 87.3084 48.9515C85.3921 51.5369 84.1373 54.5799 83.7039 57.7831C83.1792 57.6916 82.6545 57.6229 82.1298 57.5772C82.4263 55.4036 83.0423 53.3215 84.0005 51.3539C84.0917 51.1708 84.0005 50.942 83.8408 50.8505C83.6583 50.759 83.4301 50.8505 83.3617 51.0107C82.3807 53.047 81.7191 55.2206 81.4225 57.4857C80.8522 57.4399 80.3275 57.417 79.8256 57.417C79.9853 56.09 80.2818 54.7859 80.6697 53.5275C80.7381 53.3444 80.6241 53.1385 80.4187 53.0699C80.2362 53.0012 80.0309 53.1156 79.9624 53.3215C79.5518 54.6486 79.2552 56.0442 79.0955 57.4399C78.5708 57.4399 78.0233 57.4628 77.4758 57.5085C77.5214 57.0052 77.6127 56.5018 77.7039 55.9527C77.7495 55.7468 77.6127 55.5638 77.4073 55.518C77.202 55.4722 77.0195 55.6095 76.9739 55.8154C76.8598 56.4332 76.7914 57.0052 76.7229 57.5772C76.1526 57.6458 75.5822 57.7145 74.9663 57.8289C74.7609 57.8746 74.6241 58.0577 74.6697 58.2636C74.6925 58.4466 74.8522 58.561 75.0347 58.561C75.0347 58.561 75.0803 58.561 75.1032 58.561C75.8104 58.4466 76.4492 58.3551 77.1108 58.2865C77.8864 58.2178 78.6621 58.1721 79.4377 58.1721H79.4834H79.5062C80.2134 58.1721 80.9206 58.1949 81.7191 58.2636C82.4719 58.3322 83.2248 58.4237 84.0005 58.561C84.7533 58.6983 85.529 58.8813 86.259 59.0644C87.0346 59.2703 87.7875 59.522 88.4948 59.7965C89.2705 60.094 90.0232 60.4372 90.7534 60.8032C91.4378 61.1464 92.1221 61.5354 92.7609 61.9244V63.8234C92.3503 63.5488 91.9167 63.2743 91.4834 62.9997C90.6165 62.4963 89.7267 62.0387 88.8142 61.6498C88.0157 61.3066 87.1944 61.0091 86.3732 60.7575C85.5974 60.5287 84.7989 60.3227 84.0005 60.1626C83.2248 60.0024 82.4263 59.9109 81.6278 59.8194C80.875 59.7508 80.1678 59.7279 79.4834 59.7279C79.4377 59.7279 79.3921 59.7279 79.3465 59.7279C79.3237 59.7279 79.2781 59.7279 79.2552 59.7279C78.4568 59.7279 77.6583 59.7736 76.8826 59.8652C75.3541 60.0253 73.8712 60.3456 72.434 60.8032C72.2514 60.8719 72.1374 61.0778 72.183 61.2608C72.2286 61.421 72.3883 61.5125 72.5252 61.5125C72.5708 61.5125 72.5937 61.5125 72.6393 61.5125C74.0309 61.0778 75.491 60.7804 76.9511 60.6202C77.7039 60.5287 78.4796 60.4829 79.2552 60.4829C79.3009 60.4829 79.3237 60.4829 79.3693 60.4829C79.4149 60.4829 79.4377 60.4829 79.4834 60.4829C80.145 60.4829 80.8294 60.5058 81.5594 60.5744C82.3351 60.6431 83.1107 60.7575 83.8636 60.8947C84.6393 61.0549 85.4377 61.238 86.1678 61.4667C86.9663 61.7184 87.7646 61.993 88.5405 62.3362C89.4073 62.7022 90.2742 63.1599 91.1184 63.6403C91.6886 63.9835 92.2361 64.3267 92.7609 64.7157V66.7291C91.7342 65.9054 90.6621 65.1962 89.5213 64.5784C88.6088 64.0979 87.6734 63.6632 86.7153 63.32C85.9167 63.0226 85.0499 62.7709 84.183 62.5879C83.3617 62.4048 82.5404 62.2675 81.7419 62.176C80.9891 62.0845 80.2362 62.0616 79.4834 62.0616C79.4606 62.0616 79.4377 62.0616 79.3921 62.0616C79.3921 62.0616 79.3693 62.0616 79.3465 62.0616C78.5708 62.0616 77.7723 62.1074 76.9739 62.1989C74.5784 62.4735 72.2743 63.1599 70.107 64.2123C69.9245 64.3039 69.856 64.5326 69.9473 64.7157C70.0157 64.853 70.1526 64.9216 70.2667 64.9216C70.3123 64.9216 70.3807 64.9216 70.4264 64.8758C72.5024 63.8462 74.7381 63.2056 77.0423 62.9311C77.818 62.8395 78.5708 62.7938 79.3237 62.7938C79.3237 62.7938 79.3693 62.7938 79.3921 62.7938H79.4377C80.145 62.7938 80.8978 62.8395 81.6278 62.9082C82.4035 62.9997 83.1792 63.1141 83.9777 63.2971C84.8218 63.4802 85.6431 63.7319 86.4188 64.0064C87.3313 64.3496 88.2438 64.7386 89.1107 65.219C90.3884 65.9054 91.5746 66.7291 92.6926 67.6671V69.8179C91.1867 68.3306 89.4757 67.141 87.5821 66.2257C86.6696 65.791 85.6887 65.425 84.6849 65.1275C83.8408 64.8758 82.951 64.6928 82.0841 64.5784C81.2628 64.464 80.4416 64.3954 79.6203 64.3954C79.5974 64.3954 79.5746 64.3954 79.529 64.3954C79.4834 64.3954 79.4377 64.3954 79.4149 64.3954C78.7077 64.3954 77.9777 64.4411 77.2248 64.5326C73.8712 64.9216 70.6773 66.2029 67.9625 68.2392C67.8028 68.3535 67.7572 68.5823 67.8941 68.7654C67.9625 68.8569 68.0766 68.9027 68.1906 68.9027C68.2591 68.9027 68.3503 68.8798 68.4188 68.834C71.0195 66.8665 74.0765 65.6309 77.3161 65.2648C78.0461 65.1733 78.7533 65.1504 79.4149 65.1504C79.4377 65.1504 79.4834 65.1504 79.5062 65.1504C79.529 65.1504 79.5746 65.1504 79.5974 65.1504C80.3959 65.1504 81.1944 65.219 81.9701 65.3334C82.8142 65.4478 83.6354 65.6309 84.4567 65.8597C85.4149 66.1342 86.3503 66.5003 87.2401 66.9121C89.2932 67.896 91.1184 69.2229 92.6696 70.8933V73.3642C90.8903 71.0077 88.5176 69.1544 85.7799 68.0104C84.8218 67.6215 83.818 67.301 82.8142 67.0952C81.9472 66.9121 81.0803 66.7977 80.1906 66.752C79.894 66.752 79.6431 66.752 79.3921 66.752C78.8446 66.752 78.2971 66.7749 77.7267 66.8435C73.1412 67.301 68.8978 69.6806 66.0918 73.3871C65.9777 73.5473 66.0005 73.776 66.1602 73.9133C66.2287 73.9592 66.2971 73.9821 66.3883 73.9821C66.5024 73.9821 66.6165 73.9363 66.6849 73.8448C69.3541 70.2983 73.4149 68.0104 77.7952 67.5756C78.3199 67.53 78.8674 67.5071 79.3921 67.5071C79.6203 67.5071 79.8712 67.5071 80.145 67.5071C80.9891 67.5527 81.8332 67.6444 82.6545 67.8273C83.6126 68.0333 84.5708 68.3306 85.4834 68.6967C88.4263 69.9094 90.8903 71.9685 92.6696 74.6454V78.0546C91.1184 74.2565 87.97 71.2365 84.0917 69.8865C83.1335 69.5433 82.1298 69.3146 81.1031 69.2002C80.51 69.1315 79.9396 69.0856 79.3921 69.0856C79.1183 69.0856 78.8218 69.0856 78.4796 69.1085C70.9511 69.5892 65.0652 75.881 65.0652 83.4542C65.0652 91.0275 70.7001 97.0448 78.0005 97.7542C77.818 98.2575 77.6583 98.7837 77.4986 99.31C73.1868 98.8067 69.2401 96.4958 66.6165 92.9952C66.5024 92.835 66.2743 92.7892 66.0918 92.9265C65.9321 93.0408 65.8864 93.2696 66.0233 93.4527C68.7382 97.0906 72.8218 99.4929 77.2933 100.042C77.1564 100.545 77.0423 101.072 76.9511 101.598C73.8028 101.186 70.8142 99.9277 68.2819 97.9829C68.1222 97.8685 67.8941 97.8915 67.7572 98.0515C67.6431 98.2117 67.6659 98.4404 67.8256 98.5777C70.4492 100.591 73.5518 101.895 76.8142 102.33C76.7229 102.856 76.6545 103.382 76.6088 103.909C74.3731 103.611 72.2286 102.948 70.221 101.941C70.0385 101.85 69.8104 101.941 69.7191 102.101C69.6279 102.284 69.7191 102.513 69.8788 102.605C71.9777 103.657 74.2134 104.344 76.5404 104.641C76.4948 105.19 76.472 105.739 76.472 106.243C75.0803 106.06 73.7115 105.762 72.3883 105.35C72.2058 105.282 71.9777 105.396 71.9321 105.579C71.8636 105.762 71.9777 105.991 72.1602 106.037C73.5518 106.494 75.0119 106.792 76.4492 106.975C76.4492 107.501 76.472 108.05 76.5176 108.599C75.9473 108.53 75.3769 108.439 74.7838 108.347C74.5784 108.302 74.3959 108.439 74.3503 108.645C74.3047 108.851 74.4416 109.034 74.6469 109.08C75.3085 109.194 75.9701 109.286 76.586 109.354C76.6545 109.995 76.7457 110.658 76.8598 111.322C76.8826 111.505 77.0423 111.619 77.2248 111.619C77.2248 111.619 77.2704 111.619 77.2933 111.619C77.4986 111.574 77.6355 111.39 77.5898 111.185C77.4529 110.43 77.3389 109.697 77.2933 108.988C77.2248 108.21 77.1792 107.432 77.1792 106.654V106.609C77.1792 105.876 77.202 105.144 77.2933 104.366C77.3617 103.611 77.4529 102.856 77.5898 102.078C77.7267 101.323 77.9092 100.545 78.0917 99.8133C78.2971 99.0354 78.548 98.2804 78.8218 97.571C79.1183 96.7931 79.4606 96.0381 79.8256 95.306C80.1678 94.6196 80.5556 93.9331 80.9434 93.2925H82.837C82.5632 93.7044 82.2894 94.1392 82.0157 94.5737C81.5138 95.4433 81.0575 96.3356 80.6697 97.2508C80.3275 98.0515 80.0309 98.8752 79.7799 99.699C79.5518 100.477 79.3465 101.278 79.1868 102.078C79.0271 102.856 78.9358 103.657 78.8446 104.458C78.7762 105.213 78.7533 105.922 78.7533 106.609C78.7533 106.654 78.7533 106.7 78.7533 106.746C78.7533 106.769 78.7533 106.815 78.7533 106.837C78.7533 107.638 78.799 108.439 78.8902 109.217C79.0727 110.796 79.3921 112.374 79.8712 113.884C79.9168 114.045 80.0765 114.136 80.2134 114.136C80.259 114.136 80.2818 114.136 80.3275 114.136C80.51 114.067 80.6241 113.861 80.5556 113.679C80.0765 112.214 79.7571 110.681 79.5974 109.148C79.5062 108.393 79.4606 107.615 79.4606 106.837C79.4606 106.837 79.4606 106.769 79.4606 106.723C79.4606 106.677 79.4606 106.654 79.4606 106.609C79.4606 105.945 79.4834 105.259 79.5518 104.526C79.6203 103.749 79.7343 102.971 79.8712 102.216C80.0309 101.438 80.2134 100.637 80.4416 99.9048C80.6925 99.104 80.9891 98.3033 81.3085 97.5254C81.6735 96.6558 82.1298 95.7865 82.6088 94.94C82.951 94.3679 83.2932 93.8187 83.6811 93.2925H85.6887C84.8674 94.3221 84.1602 95.3975 83.5442 96.5415C83.0651 97.4567 82.6545 98.3948 82.2894 99.3556C81.9929 100.156 81.7419 101.026 81.5594 101.895C81.3769 102.719 81.24 103.543 81.1488 104.344C81.0575 105.099 81.0347 105.854 81.0347 106.609C81.0347 106.631 81.0347 106.654 81.0347 106.7C81.0347 106.7 81.0347 106.723 81.0347 106.746C81.0347 107.524 81.0803 108.325 81.1716 109.125C81.4682 111.596 82.1754 113.976 83.2932 116.195C83.3617 116.332 83.4758 116.401 83.6126 116.401C83.6583 116.401 83.7267 116.401 83.7723 116.355C83.9548 116.264 84.0233 116.035 83.932 115.852C82.8598 113.701 82.1754 111.413 81.9016 109.011C81.8104 108.233 81.7647 107.478 81.7647 106.723C81.7647 106.7 81.7647 106.677 81.7647 106.654V106.609C81.7647 105.899 81.8104 105.144 81.8788 104.412C81.9701 103.634 82.0841 102.856 82.2666 102.056C82.4491 101.209 82.7001 100.385 82.9739 99.6073C83.316 98.6923 83.7039 97.7771 84.183 96.8848C84.8674 95.6033 85.6887 94.4137 86.624 93.2925H88.7686C87.3084 94.8027 86.0994 96.5185 85.1868 98.4177C84.7533 99.3329 84.3883 100.317 84.0917 101.323C83.8408 102.17 83.6583 103.062 83.5442 103.932C83.4301 104.755 83.3617 105.579 83.3617 106.403C83.3617 106.426 83.3617 106.449 83.3617 106.494C83.3617 106.54 83.3617 106.586 83.3617 106.609C83.3617 107.318 83.4073 108.05 83.4986 108.805C83.8864 112.26 85.2324 115.532 87.354 118.277C87.4226 118.369 87.5365 118.415 87.6507 118.415C87.719 118.415 87.8103 118.392 87.8788 118.346C88.0384 118.231 88.0613 117.98 87.9471 117.82C85.894 115.189 84.6164 112.031 84.2514 108.714C84.1602 107.981 84.1373 107.295 84.1373 106.609C84.1373 106.586 84.1373 106.54 84.1373 106.517C84.1373 106.494 84.1373 106.449 84.1373 106.426C84.1373 105.625 84.2058 104.824 84.3199 104.046C84.4339 103.2 84.6164 102.376 84.8446 101.552C85.1183 100.591 85.4834 99.6531 85.894 98.7608C86.8751 96.7017 88.1982 94.8712 89.8636 93.3154H92.3273C89.9775 95.1 88.1296 97.4796 86.989 100.225C86.6013 101.186 86.2819 102.193 86.0765 103.2C85.894 104.069 85.7799 104.938 85.7343 105.831C85.7343 106.128 85.7343 106.38 85.7343 106.631C85.7343 107.181 85.7571 107.73 85.8256 108.302C86.2819 113.015 88.7686 117.339 92.6013 120.131C92.6696 120.176 92.7382 120.199 92.8065 120.199C92.9207 120.199 93.0346 120.154 93.1032 120.039C93.2171 119.879 93.1944 119.65 93.0119 119.536C89.3388 116.859 86.989 112.74 86.5328 108.233C86.4871 107.707 86.4644 107.158 86.4644 106.631C86.4644 106.403 86.4644 106.151 86.4644 105.876C86.51 105.03 86.6013 104.183 86.7838 103.36C86.989 102.399 87.2857 101.438 87.6507 100.522C88.8598 97.571 90.913 95.1 93.5821 93.3154H96.9815C93.1944 94.8712 90.183 98.0287 88.8369 101.918C88.4948 102.879 88.2667 103.886 88.1525 104.915C88.084 105.51 88.0384 106.082 88.0384 106.631C88.0384 106.906 88.0384 107.204 88.0613 107.547C88.5405 115.097 94.8142 121 102.365 121C109.917 121 115.917 115.349 116.624 108.027C117.126 108.21 117.65 108.37 118.175 108.53C117.65 112.923 115.324 116.927 111.742 119.536C111.582 119.65 111.537 119.879 111.651 120.039C111.719 120.131 111.833 120.199 111.947 120.199C112.016 120.199 112.107 120.199 112.153 120.131C115.871 117.408 118.312 113.267 118.883 108.714C119.384 108.851 119.909 108.965 120.434 109.057C120 112.237 118.746 115.257 116.784 117.82C116.67 117.98 116.692 118.209 116.852 118.346C116.92 118.392 116.989 118.415 117.08 118.415C117.194 118.415 117.308 118.369 117.377 118.277C119.43 115.623 120.73 112.489 121.187 109.194C121.711 109.286 122.236 109.354 122.761 109.4C122.464 111.665 121.78 113.816 120.776 115.852C120.685 116.035 120.776 116.264 120.936 116.355C120.981 116.378 121.05 116.401 121.095 116.401C121.232 116.401 121.369 116.332 121.415 116.195C122.464 114.09 123.172 111.825 123.491 109.469C124.061 109.514 124.586 109.537 125.088 109.537C124.905 110.933 124.609 112.306 124.175 113.656C124.107 113.839 124.221 114.067 124.403 114.113C124.449 114.113 124.472 114.113 124.518 114.113C124.677 114.113 124.814 114.022 124.86 113.861C125.316 112.443 125.635 111.001 125.818 109.514C126.343 109.514 126.89 109.491 127.438 109.446M102.365 120.222C95.2019 120.222 89.2475 114.616 88.7913 107.455C88.7913 107.135 88.7686 106.86 88.7686 106.586C88.7686 106.06 88.7913 105.533 88.8598 104.961C88.9738 104 89.2019 103.039 89.4986 102.124C90.8446 98.2117 93.9928 95.0544 97.894 93.7044C98.3959 93.5442 98.8978 93.3842 99.3996 93.2696H102.411C102.411 93.2696 104.327 93.1781 105.514 92.7662C105.696 92.6977 105.81 92.4917 105.742 92.3088C105.673 92.1256 105.468 92.0112 105.286 92.08C104.236 92.446 102.525 92.5375 102.388 92.5604H79.1868C74.9891 92.4917 71.4073 89.5631 70.4948 85.4448C69.9701 83.0881 70.4036 80.6629 71.7039 78.6037C73.0043 76.5675 75.0119 75.149 77.3845 74.6227C78.5024 74.371 79.6203 74.3481 80.7381 74.5083C82.2666 74.76 83.7267 75.3777 84.9358 76.3615C85.5062 76.7962 86.008 77.3225 86.4415 77.8717C87.2857 78.9469 87.8559 80.1825 88.1525 81.5094C88.1982 81.6925 88.2211 81.8756 88.2667 82.0585C88.4036 82.9967 88.4036 83.9348 88.2667 84.85C88.2211 85.1931 88.1296 85.5592 88.0384 85.9023C87.9928 86.1083 88.1069 86.2912 88.2894 86.36C88.3123 86.36 88.358 86.36 88.3807 86.36C88.5405 86.36 88.6773 86.2456 88.723 86.0854C88.8142 85.7194 88.9055 85.3304 88.9738 84.9644C89.1336 83.9575 89.1336 82.9508 88.9738 81.9442C88.9511 81.7383 88.9055 81.5323 88.8598 81.3494C88.5405 79.885 87.9015 78.5579 86.989 77.414C86.51 76.8192 85.9623 76.27 85.3693 75.7896C84.0461 74.7371 82.4719 74.0506 80.8294 73.799C79.6203 73.6158 78.3883 73.6388 77.202 73.9133C74.6469 74.4854 72.4796 76.0183 71.0651 78.2148C69.6507 80.4342 69.1944 83.0425 69.7648 85.605C70.7458 90.0665 74.6013 93.224 79.164 93.2925H80.0309C79.7343 93.7731 79.4606 94.2765 79.2096 94.7798C73.0499 94.734 68.0309 89.6775 68.0309 83.4771C68.0309 77.2767 73.0727 72.1746 79.3009 72.1746C79.3009 72.1746 79.3465 72.1746 79.3693 72.1746C79.3921 72.1746 79.4149 72.1746 79.4377 72.1746C80.3731 72.1746 81.3085 72.3119 82.1982 72.5406C86.0994 73.5702 89.1563 76.636 90.183 80.5485C90.4111 81.4408 90.548 82.379 90.548 83.3169C90.548 83.3398 90.548 83.3627 90.548 83.3856C90.548 83.3856 90.548 83.4315 90.548 83.4542C90.548 83.4771 90.548 83.5 90.548 83.5229C90.548 83.5458 90.548 83.5685 90.548 83.5915C90.548 84.5296 90.4111 85.4677 90.183 86.36C90.1373 86.5658 90.2513 86.749 90.434 86.8175C90.4567 86.8175 90.5023 86.8175 90.5253 86.8175C90.6848 86.8175 90.8446 86.7031 90.8903 86.5429C91.1411 85.5821 91.278 84.5983 91.278 83.5915V83.5458C91.278 83.5458 91.278 83.5 91.278 83.4542C91.278 83.4085 91.278 83.4085 91.278 83.3627V83.3169C91.278 82.3102 91.1411 81.3265 90.8673 80.3654C89.7723 76.2012 86.5101 72.9296 82.3579 71.8312C81.3997 71.5796 80.4187 71.4423 79.4149 71.4423H79.3693C79.3693 71.4423 79.3237 71.4423 79.278 71.4423C72.6621 71.4423 67.2781 76.8421 67.2781 83.4771C67.2781 90.1123 72.4111 95.2602 78.8218 95.489C78.5708 95.9923 78.3655 96.5185 78.1602 97.0448C71.1564 96.4729 65.6811 90.5698 65.6811 83.4542C65.6811 76.3385 71.2705 70.2983 78.4111 69.8408C78.7305 69.8408 79.0043 69.8179 79.278 69.8179C79.8028 69.8179 80.3503 69.8408 80.8978 69.9094C81.856 70.0237 82.8142 70.2525 83.7267 70.55C87.6278 71.9 90.7761 75.0573 92.1221 78.9698C92.2817 79.4731 92.4415 79.9765 92.5557 80.4798V82.9279C92.5557 83.0881 92.4871 84.7354 93.0346 86.4973C93.0803 86.6575 93.24 86.749 93.3769 86.749C93.4226 86.749 93.4453 86.749 93.4909 86.749C93.6734 86.6802 93.7875 86.4744 93.7419 86.2912C93.2171 84.621 93.3084 82.9967 93.3084 82.9738V81.6696V80.4342V74.5083V60.1855C93.3769 55.9756 96.2969 52.3835 100.403 51.4683C105.263 50.3929 110.099 53.4817 111.194 58.3551C111.445 59.4762 111.468 60.5973 111.308 61.7184C111.08 63.2514 110.442 64.6928 109.483 65.9283C108.959 66.4088 108.434 66.935 107.955 67.4613C106.883 68.3077 105.673 68.8798 104.327 69.1773C104.145 69.2229 103.962 69.2458 103.78 69.2917C102.844 69.429 101.909 69.429 100.997 69.2917C100.654 69.2458 100.289 69.1544 99.9471 69.0629C99.7419 69.0171 99.5594 69.1315 99.4909 69.3146C99.4453 69.5204 99.5594 69.7035 99.7419 69.7721C100.107 69.8635 100.495 69.9552 100.86 70.0237C101.362 70.0925 101.864 70.1381 102.365 70.1381C102.867 70.1381 103.369 70.0925 103.894 70.0237C104.099 70.0008 104.305 69.9552 104.487 69.9094C105.924 69.5892 107.248 68.9712 108.411 68.056C109.004 67.5756 109.552 67.0265 110.031 66.4317C111.057 65.1046 111.742 63.5488 112.016 61.8786C112.198 60.666 112.175 59.4533 111.902 58.2407C110.738 52.9555 105.514 49.615 100.244 50.7819C95.795 51.7657 92.6469 55.6324 92.5784 60.2084V61.0778C92.0992 60.7804 91.5973 60.5058 91.0955 60.2541C91.1411 54.0766 96.183 49.043 102.365 49.043C108.548 49.043 113.635 54.0995 113.635 60.3456C113.635 60.3456 113.635 60.3914 113.635 60.4143C113.635 60.4143 113.635 60.46 113.635 60.4829C113.635 61.421 113.499 62.3591 113.27 63.2514C112.244 67.1637 109.164 70.2298 105.286 71.2594C104.396 71.4881 103.46 71.6254 102.525 71.6254H102.274C101.339 71.6254 100.403 71.4881 99.5138 71.2594C99.3084 71.2135 99.1259 71.3279 99.0576 71.511C99.0119 71.7169 99.1259 71.9 99.3084 71.9685C100.267 72.2202 101.248 72.3575 102.251 72.3575H102.525C103.529 72.3575 104.51 72.2202 105.468 71.9685C109.62 70.8704 112.883 67.5985 113.978 63.4344C114.229 62.4735 114.365 61.4896 114.365 60.4829V60.4372C114.365 60.4372 114.365 60.3685 114.365 60.3456C114.365 53.7105 108.981 48.3109 102.365 48.3109C95.7494 48.3109 90.6165 53.4588 90.3884 59.888C89.8863 59.6364 89.3617 59.4304 88.8369 59.2245C89.4073 52.2004 95.2932 46.7093 102.388 46.7093C109.483 46.7093 115.506 52.3148 115.962 59.4762C115.962 59.7965 115.985 60.0711 115.985 60.3456C115.985 60.8719 115.962 61.421 115.894 61.9701C115.78 62.9311 115.552 63.892 115.255 64.8072C113.909 68.7196 110.761 71.8771 106.86 73.2269C106.358 73.3871 105.856 73.5473 105.354 73.6617H103.666C103.438 73.6617 101.065 73.4787 99.2857 74.1421C99.1032 74.2108 98.989 74.4167 99.0576 74.6227C99.1032 74.7827 99.2628 74.8744 99.3996 74.8744C99.4453 74.8744 99.4909 74.8744 99.5365 74.8744C101.225 74.2567 103.597 74.4396 103.62 74.4396H104.168H105.4H125.613C129.81 74.5083 133.392 77.4369 134.304 81.5552C135.377 86.4285 132.297 91.2792 127.438 92.3773C126.32 92.629 125.202 92.6519 124.084 92.4917C122.555 92.24 121.095 91.6223 119.886 90.6385C119.316 90.2038 118.814 89.6775 118.381 89.1283C117.537 88.0531 116.966 86.8175 116.67 85.4906C116.624 85.3075 116.601 85.1244 116.555 84.9415C116.419 84.0033 116.419 83.0652 116.555 82.15C116.601 81.8069 116.692 81.4408 116.784 81.0977C116.829 80.8917 116.715 80.7087 116.533 80.64C116.327 80.5942 116.145 80.7087 116.077 80.8917C115.985 81.2577 115.894 81.6467 115.825 82.0129C115.666 83.0196 115.666 84.0262 115.825 85.0329C115.848 85.239 115.894 85.4448 115.94 85.6279C116.259 87.0921 116.898 88.4192 117.81 89.5631C118.289 90.1581 118.837 90.7071 119.43 91.1877C120.753 92.24 122.327 92.9265 123.97 93.1781C124.472 93.2469 124.974 93.2925 125.476 93.2925C126.183 93.2925 126.89 93.224 127.597 93.0637C132.867 91.8969 136.198 86.6575 135.035 81.3721C134.054 76.9106 130.198 73.7531 125.635 73.6846H124.768C125.065 73.2042 125.339 72.7008 125.59 72.1973C131.749 72.2431 136.768 77.2996 136.768 83.5C136.768 89.7004 131.727 94.8027 125.498 94.8027C125.498 94.8027 125.453 94.8027 125.43 94.8027C125.407 94.8027 125.384 94.8027 125.362 94.8027C124.426 94.8027 123.491 94.6654 122.601 94.4365C118.7 93.4069 115.643 90.3181 114.616 86.4285C114.388 85.5363 114.251 84.5983 114.251 83.6602C114.251 83.6602 114.251 83.6144 114.251 83.5915C114.251 83.5915 114.251 83.5458 114.251 83.5229C114.251 83.5 114.251 83.4771 114.251 83.4542C114.251 83.4542 114.251 83.4085 114.251 83.3856C114.251 82.4475 114.388 81.5094 114.616 80.6171C114.662 80.4112 114.548 80.2281 114.365 80.1596C114.16 80.1138 113.978 80.2281 113.909 80.4113C113.658 81.3721 113.521 82.356 113.521 83.3627V83.4085C113.521 83.4085 113.521 83.4771 113.521 83.5C113.521 83.5229 113.521 83.5685 113.521 83.5915V83.6373C113.521 84.644 113.658 85.6279 113.909 86.5887C115.004 90.7529 118.267 94.0248 122.419 95.1229C123.377 95.3746 124.358 95.5119 125.362 95.5119H125.407C125.407 95.5119 125.453 95.5119 125.498 95.5119C132.114 95.5119 137.498 90.1123 137.498 83.4771C137.498 76.8421 132.365 71.694 125.955 71.4652C126.206 70.9619 126.411 70.4356 126.616 69.9094C133.62 70.4815 139.095 76.3844 139.095 83.5C139.095 90.6156 133.506 96.6558 126.365 97.1135C126.046 97.1135 125.772 97.1365 125.498 97.1365C124.974 97.1365 124.449 97.1135 123.879 97.0448C122.92 96.9304 121.962 96.7017 121.05 96.4042C117.149 95.0544 114 91.8969 112.654 87.9844C112.495 87.481 112.335 86.9777 112.221 86.4744V84.1865C112.221 84.1865 112.267 81.761 111.719 80.3425C111.651 80.1596 111.423 80.0681 111.24 80.1367C111.057 80.2052 110.966 80.4342 111.035 80.6171C111.537 81.8983 111.491 84.1635 111.491 84.1865V86.5429V92.469V106.792C111.423 111.001 108.502 114.594 104.396 115.509C99.5365 116.584 94.7001 113.495 93.605 108.622C93.354 107.501 93.3313 106.38 93.4909 105.259C93.7419 103.726 94.3578 102.261 95.3388 101.049C95.795 100.454 96.2057 99.9963 96.8217 99.5617C97.894 98.715 99.1259 98.1431 100.449 97.8456C100.632 97.7998 100.814 97.7771 100.997 97.7312C101.932 97.594 102.867 97.594 103.78 97.7312C104.122 97.7771 104.487 97.8685 104.829 97.96C104.852 97.96 104.898 97.96 104.92 97.96C105.08 97.96 105.217 97.8456 105.263 97.6854C105.308 97.4796 105.194 97.2965 105.012 97.2279C104.647 97.1365 104.259 97.0448 103.894 96.9762C102.89 96.816 101.886 96.816 100.883 96.9762C100.677 96.9992 100.472 97.0448 100.289 97.0906C98.8521 97.4108 97.529 98.0287 96.3655 98.944C95.7038 99.4244 95.2248 99.9506 94.7457 100.568C93.6963 101.895 93.0119 103.474 92.7609 105.121C92.5784 106.334 92.6013 107.57 92.875 108.759C93.8788 113.335 97.9396 116.447 102.411 116.447C103.118 116.447 103.825 116.378 104.533 116.218C108.981 115.234 112.13 111.368 112.198 106.792V105.922C112.677 106.22 113.179 106.494 113.681 106.746C113.635 112.923 108.594 117.957 102.411 117.957C96.2286 117.957 91.1411 112.901 91.1411 106.654C91.1411 106.654 91.1411 106.609 91.1411 106.586C91.1411 106.563 91.1411 106.54 91.1411 106.517C91.1411 105.579 91.278 104.641 91.5061 103.749C92.5328 99.8362 95.6125 96.7702 99.4909 95.7406C100.381 95.5119 101.316 95.3746 102.251 95.3746H102.502C103.438 95.3746 104.373 95.5119 105.263 95.7406C105.286 95.7406 105.331 95.7406 105.354 95.7406C105.514 95.7406 105.673 95.6262 105.719 95.466C105.765 95.2602 105.651 95.0771 105.468 95.0085C104.51 94.7569 103.529 94.6196 102.525 94.6196H102.251C101.248 94.6196 100.267 94.7569 99.3084 95.0085C95.1563 96.1069 91.894 99.3785 90.799 103.543C90.548 104.504 90.4111 105.487 90.4111 106.494V106.54C90.4111 106.54 90.4111 106.586 90.4111 106.631C90.4111 113.267 95.795 118.666 102.411 118.666C109.027 118.666 114.16 113.518 114.388 107.089C114.89 107.341 115.415 107.547 115.94 107.752C115.369 114.777 109.483 120.268 102.411 120.268" fill="#B01C1A"/>
<path d="M105.105 86.7502C104.215 87.711 102.436 87.711 102.413 87.711H79.166C76.8619 87.711 74.9912 85.835 74.9912 83.5241C74.9912 81.2133 76.8619 79.3371 79.166 79.3371C81.4702 79.3371 83.3409 81.2133 83.3409 83.5241C83.3409 84.3706 83.09 85.1714 82.6337 85.8579C82.5196 86.0181 82.5653 86.2469 82.725 86.3612C82.8847 86.4756 83.1128 86.4298 83.2269 86.2698C83.7744 85.446 84.071 84.5079 84.071 83.5241C84.071 80.8014 81.858 78.605 79.166 78.605C76.474 78.605 74.2611 80.8244 74.2611 83.5241C74.2611 86.2239 76.474 88.4433 79.166 88.4433H92.398C92.398 88.4433 92.4663 88.4433 92.5119 88.4433C92.5575 88.4433 92.5805 88.4433 92.6261 88.4433H102.413C102.55 88.4433 104.512 88.4433 105.63 87.2535C105.767 87.1162 105.767 86.8646 105.63 86.7273C105.493 86.59 105.242 86.59 105.105 86.7273" fill="#B01C1A"/>
<path d="M105.168 89.6101C104.164 90.1134 102.522 90.2049 102.408 90.2278H79.1608C76.1037 90.159 73.4802 88.0084 72.8186 84.9882C72.0201 81.3961 74.3015 77.804 77.8832 77.0032C79.9136 76.5457 81.9896 77.049 83.5866 78.3988C83.8604 78.6963 84.157 78.9938 84.4535 79.2684C85.1379 80.0919 85.5942 81.053 85.8452 82.0826C86.119 83.3409 86.0277 84.6451 85.5942 85.8349V85.9034C85.503 86.0865 85.5942 86.3153 85.7767 86.3838C85.8224 86.3838 85.868 86.4067 85.9136 86.4067C86.0505 86.4067 86.2102 86.3153 86.2559 86.178V86.1094C86.7805 84.7824 86.8717 83.318 86.5523 81.9224C86.3015 80.7555 85.7767 79.6801 85.0011 78.7649C84.7273 78.4217 84.4079 78.1015 84.0657 77.8269C82.2862 76.3396 79.9821 75.7678 77.7235 76.2711C73.7311 77.1634 71.2216 81.1215 72.0885 85.1255C72.8186 88.4659 75.7159 90.8684 79.138 90.9369H102.431C102.431 90.9369 104.301 90.8455 105.51 90.2507C105.693 90.159 105.761 89.9303 105.67 89.7471C105.579 89.5642 105.351 89.4955 105.168 89.5871" fill="#B01C1A"/>
<path d="M99.6319 64.3282C100.453 64.8773 101.389 65.1747 102.37 65.1747C105.084 65.1747 107.274 62.9554 107.274 60.2556C107.274 57.5558 105.062 55.3364 102.37 55.3364C99.6776 55.3364 97.4647 57.5558 97.4647 60.2556V73.5259C97.4647 73.5259 97.4417 73.6861 97.4647 73.7547V83.2726C97.4647 83.2726 97.5103 85.4919 98.6965 86.7505C98.7651 86.819 98.8563 86.8649 98.9703 86.8649C99.0615 86.8649 99.1528 86.8419 99.2213 86.7732C99.3809 86.6359 99.3809 86.4072 99.2213 86.2469C98.2403 85.1947 98.1947 83.2726 98.1947 83.2499V73.6632V60.2327C98.1947 57.9218 100.065 56.0457 102.37 56.0457C104.674 56.0457 106.544 57.9218 106.544 60.2327C106.544 62.5436 104.674 64.4197 102.37 64.4197C101.525 64.4197 100.727 64.168 100.043 63.7104C99.8828 63.596 99.6547 63.6418 99.5407 63.8019C99.4265 63.9621 99.4722 64.1909 99.6319 64.3053" fill="#B01C1A"/>
<path d="M96.0072 86.8641C96.0072 86.8641 96.0984 86.8641 96.167 86.8412C96.3495 86.7497 96.4407 86.5439 96.3495 86.3608C95.7105 84.8964 95.7105 83.1576 95.7105 83.1347V60.2549C95.779 57.1661 97.9234 54.5578 100.935 53.8943C104.517 53.0935 108.098 55.3815 108.897 58.9736C109.353 61.0099 108.851 63.092 107.505 64.6936C107.209 64.9681 106.912 65.2656 106.638 65.563C105.817 66.2494 104.859 66.707 103.832 66.9587C102.578 67.2333 101.277 67.1418 100.091 66.707H100.022C99.8399 66.6155 99.6117 66.707 99.5432 66.8901C99.4749 67.073 99.5432 67.3018 99.7486 67.3705H99.817C100.638 67.7137 101.505 67.851 102.372 67.851C102.92 67.851 103.444 67.7824 103.969 67.668C105.133 67.4164 106.182 66.8901 107.117 66.1121C107.46 65.8376 107.779 65.5173 108.053 65.174C109.536 63.3894 110.106 61.0786 109.604 58.8135C108.714 54.8095 104.768 52.2927 100.775 53.1621C97.4445 53.8943 95.049 56.8 94.9805 60.232V83.1118C94.9805 83.1118 94.9805 85.0337 95.6649 86.6353C95.7334 86.7726 95.8703 86.8641 96.0072 86.8641Z" fill="#B01C1A"/>
<path d="M106.534 85.5813V93.3831V106.814C106.534 109.125 104.664 111.001 102.359 111.001C100.055 111.001 98.1845 109.125 98.1845 106.814C98.1845 104.503 100.055 102.627 102.359 102.627C103.204 102.627 104.002 102.878 104.686 103.336C104.846 103.45 105.074 103.405 105.188 103.244C105.302 103.084 105.257 102.855 105.097 102.741C104.276 102.192 103.341 101.894 102.359 101.894C99.6447 101.894 97.4545 104.114 97.4545 106.814C97.4545 109.514 99.6674 111.733 102.359 111.733C105.052 111.733 107.264 109.514 107.264 106.814V93.5204C107.264 93.5204 107.264 93.3831 107.264 93.3146V85.7871C107.264 85.7871 107.264 85.6956 107.264 85.6498V85.5583V84.2313V83.7738C107.264 83.7738 107.173 81.4627 105.964 80.1815C105.827 80.0442 105.599 80.0215 105.439 80.1815C105.302 80.3188 105.28 80.5475 105.439 80.7077C106.466 81.7831 106.534 83.7965 106.534 83.7965V85.5813Z" fill="#B01C1A"/>
<path d="M109.017 80.2988C108.925 80.1159 108.697 80.0472 108.515 80.1388C108.332 80.2303 108.264 80.459 108.355 80.6422C108.925 81.832 109.017 83.9597 109.017 83.9597V106.817C108.948 109.905 106.804 112.514 103.792 113.177C102.058 113.566 100.279 113.246 98.7732 112.285C97.2674 111.324 96.2409 109.837 95.853 108.098C95.3968 106.062 95.9215 103.979 97.2447 102.378C97.564 102.035 97.7922 101.806 98.1115 101.508C98.9328 100.822 99.8909 100.364 100.941 100.113C102.195 99.8382 103.496 99.9299 104.682 100.364H104.75C104.933 100.456 105.161 100.364 105.229 100.182C105.298 99.9984 105.207 99.7697 105.024 99.7009H104.956C103.632 99.1747 102.172 99.0832 100.781 99.4036C99.6172 99.6553 98.5678 100.182 97.6324 100.959C97.313 101.28 97.0849 101.508 96.7428 101.852C95.2599 103.636 94.6895 105.947 95.1913 108.212C95.6249 110.157 96.7655 111.804 98.4309 112.857C99.6401 113.635 101.009 114.024 102.401 114.024C102.948 114.024 103.473 113.955 104.02 113.841C107.351 113.109 109.747 110.203 109.815 106.771V83.8911C109.815 83.8911 109.724 81.5801 109.085 80.2532" fill="#B01C1A"/>
<path d="M184.607 63.9829H162.022V65.6989H167.337V102.65H162.022V104.366H179.816V102.65H174.501V87.7778H184.607C191.109 87.7778 196.424 82.447 196.424 75.8803C196.424 69.3139 191.177 63.9829 184.607 63.9829ZM189.238 81.4401C189.238 84.3001 187.413 86.1305 184.607 86.1305H174.501V65.6989H184.607C187.185 65.6989 189.238 67.8268 189.238 70.3893V81.4401Z" fill="#B01C1A"/>
<path d="M212.205 91.4387H197.422V92.9268H212.205V91.4387Z" fill="#B01C1A"/>
<path d="M231.311 65.7035H247.691V64.0562H215.228C212.764 64.0562 210.391 65.1086 208.863 67.0535C206.17 70.5083 208.087 73.986 211.144 74.0089C212.946 74.0089 214.543 72.6133 214.748 70.8058C214.999 68.4262 213.015 66.55 210.71 66.8017C211.509 66.1153 212.535 65.7035 213.79 65.7035C217.212 65.7722 220.703 65.7035 224.125 65.7035V102.723H218.764V104.37H236.672V102.723H231.311V65.7035Z" fill="#B01C1A"/>
<path d="M264.236 62.6809C258.191 77.0952 252.601 89.8621 247.058 102.721H241.4V104.368H253.833V102.721H248.928L253.103 92.9279H264.031V91.4408H253.742L255.316 87.78L256 86.1327L261.476 73.4344L266.905 86.1327L267.635 87.78L273.977 102.721H269.073V104.368H287.05V102.721H281.392L264.213 62.6809H264.236Z" fill="#B01C1A"/>
<path d="M315.625 94.4176C313.642 94.4176 312.021 96.0193 312.021 98.0326C312.021 100.138 313.915 101.876 316.013 101.579C315.26 102.311 314.188 102.723 312.865 102.723H302.827V64.0562H290.44V65.7035H295.754V102.723H290.44V104.393H312.865C316.515 104.393 319.14 101.762 319.14 98.0326C319.14 96.0193 317.542 94.4176 315.602 94.4176" fill="#B01C1A"/>
</g>
<defs>
<filter id="filter0_dd_2220_4516" x="0" y="0" width="385" height="184" filterUnits="userSpaceOnUse" color-interpolation-filters="sRGB">
<feFlood flood-opacity="0" result="BackgroundImageFix"/>
<feColorMatrix in="SourceAlpha" type="matrix" values="0 0 0 0 0 0 0 0 0 0 0 0 0 0 0 0 0 0 127 0" result="hardAlpha"/>
<feOffset dy="8"/>
<feGaussianBlur stdDeviation="8"/>
<feColorMatrix type="matrix" values="0 0 0 0 0 0 0 0 0 0 0 0 0 0 0 0 0 0 0.08 0"/>
<feBlend mode="normal" in2="BackgroundImageFix" result="effect1_dropShadow_2220_4516"/>
<feColorMatrix in="SourceAlpha" type="matrix" values="0 0 0 0 0 0 0 0 0 0 0 0 0 0 0 0 0 0 127 0" result="hardAlpha"/>
<feOffset/>
<feGaussianBlur stdDeviation="2"/>
<feColorMatrix type="matrix" values="0 0 0 0 0 0 0 0 0 0 0 0 0 0 0 0 0 0 0.04 0"/>
<feBlend mode="normal" in2="effect1_dropShadow_2220_4516" result="effect2_dropShadow_2220_4516"/>
<feBlend mode="normal" in="SourceGraphic" in2="effect2_dropShadow_2220_4516" result="shape"/>
</filter>
<clipPath id="clip0_2220_4516">
<rect width="254.167" height="75" fill="white" transform="translate(65 46)"/>
</clipPath>
</defs>
</svg>
