<svg width="438" height="80" viewBox="0 0 438 80" fill="none" xmlns="http://www.w3.org/2000/svg">
<path d="M0 19.0336V4.02782H37.3163C43.4968 4.02782 48.7638 6.23571 53.1174 10.6515C57.5098 15.0282 59.7061 20.3232 59.7061 26.5365C59.7061 32.7499 57.5098 38.0645 53.1174 42.4802C48.7638 46.8569 43.4968 49.0453 37.3163 49.0453H33.5847L59.7061 79.0569H40.115L14.9265 50.921V79.0569H0V34.0395H37.3163C39.3765 34.0395 41.1257 33.3165 42.5639 31.8706C44.041 30.3857 44.7795 28.6077 44.7795 26.5365C44.7795 24.4654 44.041 22.7069 42.5639 21.2611C41.1257 19.7761 39.3765 19.0336 37.3163 19.0336H0Z" fill="white"/>
<path d="M61.6302 79.0569L95.2148 0.276367L128.8 79.0569H112.94L95.2148 38.7288L77.4896 79.0569H61.6302Z" fill="white"/>
<path d="M131.715 19.0336V4.02782H183.958V19.0336H131.715ZM183.958 34.0395V49.0453H146.641V79.0569H131.715V34.0395H183.958Z" fill="white"/>
<path d="M250.661 4.02782V19.0336H228.271V79.0569H213.344V19.0336H190.954V4.02782H250.661Z" fill="white"/>
<path d="M238.708 79.0569L272.292 0.276367L305.877 79.0569H290.018L272.292 38.7288L254.567 79.0569H238.708Z" fill="white"/>
<path d="M308.209 79.0569L341.794 0.276367L375.379 79.0569H359.519L341.794 38.7288L324.069 79.0569H308.209Z" fill="white"/>
<path d="M378.294 19.0336V4.02782H415.61C421.791 4.02782 427.058 6.23571 431.411 10.6515C435.804 15.0282 438 20.3232 438 26.5365C438 32.7499 435.804 38.0645 431.411 42.4802C427.058 46.8569 421.791 49.0453 415.61 49.0453H411.879L438 79.0569H418.409L393.22 50.921V79.0569H378.294V34.0395H415.61C417.67 34.0395 419.42 33.3165 420.858 31.8706C422.335 30.3857 423.073 28.6077 423.073 26.5365C423.073 24.4654 422.335 22.7069 420.858 21.2611C419.42 19.7761 417.67 19.0336 415.61 19.0336H378.294Z" fill="white"/>
</svg>
