<svg width="385" height="184" viewBox="0 0 385 184" fill="none" xmlns="http://www.w3.org/2000/svg">
<g filter="url(#filter0_dd_2221_4566)">
<rect x="16" y="8" width="353" height="152" rx="15" fill="white"/>
</g>
<path d="M90.5764 76.4263C91.0051 78.1411 92.0054 79.713 93.7202 79.713C95.435 79.713 96.4353 78.1411 96.864 76.2834C97.4356 75.9976 97.7214 75.426 97.5785 74.7115C97.5785 74.4257 97.4356 74.1399 97.1498 73.997C97.2927 71.9964 95.7208 70.2816 93.7202 70.1387C91.7196 70.4245 90.2906 72.1393 90.2906 74.1399C90.0048 74.1399 89.719 74.4257 89.719 74.8544C89.5761 75.426 90.0048 76.1405 90.5764 76.4263Z" fill="#0065F2"/>
<path d="M100.294 81.8566C99.0076 81.285 97.7215 80.7134 96.2925 80.2847H96.1496C96.1496 81.1421 94.8635 86.1436 94.8635 86.1436L94.149 82.1424L94.5777 81.1421L93.8632 80.5705H93.4345L92.8629 81.285L93.2916 82.2853L92.5771 86.2865C92.5771 86.2865 91.4339 81.1421 91.291 80.4276H91.1481C89.7191 80.8563 88.4329 81.285 87.1468 81.9995C86.2894 82.8569 85.8607 84.0001 85.8607 85.1433C86.5752 86.0007 87.5755 86.8581 88.5759 87.4297V86.4294C88.5759 86.0007 88.7188 85.572 89.0046 85.1433V87.7155C90.5765 88.5729 92.1484 89.0016 93.8632 89.0016C95.4351 89.0016 96.8641 88.7158 98.2931 88.0013V85.2862C98.5789 85.7149 98.5789 86.0007 98.5789 86.5723V88.0013C99.5792 87.4297 100.579 86.7152 101.437 85.8578V85.7149C101.58 84.143 101.151 82.8569 100.294 81.8566Z" fill="#0065F2"/>
<path d="M111.726 101.577L104.438 90.1447C111.011 84.2858 111.583 74.1399 105.581 67.5665C99.5791 60.9931 89.5761 60.4215 83.0027 66.2804C76.4292 72.1393 75.8576 82.2852 81.8595 88.8586C86.4323 94.003 93.5773 95.5749 99.8649 93.0027L107.153 104.435C108.01 105.721 109.582 106.007 110.868 105.292C112.154 104.435 112.583 102.72 111.726 101.577ZM99.8649 87.8583C94.5776 91.2879 87.4326 89.716 84.1459 84.2858C80.8592 78.8556 82.2882 71.8535 87.7184 68.5668C93.1486 65.2801 100.151 66.7091 103.437 72.1393C105.009 74.7115 105.581 77.8553 105.009 80.7133C104.152 83.5713 102.437 86.1435 99.8649 87.8583Z" fill="#0065F2"/>
<path d="M117.299 85.1431L120.3 81.7135C121.729 83.4283 123.872 84.5715 126.159 84.4286C128.445 84.4286 129.731 83.4283 129.731 81.8564C129.731 80.5703 128.874 79.7129 127.016 79.2842L124.301 78.7126C120.443 77.8552 118.442 75.7117 118.442 72.5679C118.442 68.4238 122.014 65.28 127.302 65.28C130.588 65.28 133.732 66.5661 135.161 68.5667L132.017 71.7105C130.874 70.1386 129.017 69.2812 127.159 69.2812C125.015 69.2812 123.729 70.4244 123.729 71.9963C123.729 73.5682 124.587 74.1398 126.444 74.5685L129.159 75.1401C133.018 75.9975 135.161 78.141 135.161 81.2848C135.161 85.4289 131.589 88.5727 126.159 88.5727C122.443 88.7156 118.871 87.4295 117.299 85.1431Z" fill="#0065F2"/>
<path d="M137.305 80.8562C137.448 76.5692 140.877 73.1396 145.164 72.9967C149.308 72.9967 152.595 76.4263 152.595 81.5707H141.878C142.02 83.5713 143.735 85.2861 145.736 85.1432C145.736 85.1432 145.736 85.1432 145.879 85.1432C147.308 85.2861 148.594 84.4287 149.308 83.1426L152.595 84.8574C151.309 87.2867 148.594 88.8586 145.736 88.5728C141.306 88.8586 137.591 85.429 137.305 80.9991C137.305 80.9991 137.305 80.9991 137.305 80.8562ZM142.02 79.1414H148.022C148.022 77.5695 146.736 76.1405 145.164 76.1405C143.449 76.1405 142.02 77.4266 142.02 79.1414Z" fill="#0065F2"/>
<path d="M154.739 84.5716C154.739 81.142 158.311 80.4275 161.455 79.9988C163.313 79.713 164.17 79.5701 164.17 78.284C164.17 76.9979 163.455 76.5692 161.884 76.5692C160.597 76.4263 159.168 77.1408 158.597 78.284L155.453 76.4263C156.596 74.1399 159.311 72.9967 162.455 72.9967C166.313 72.9967 168.886 74.8544 168.886 78.8556V88.287H164.313V86.1435C163.455 87.7154 161.598 88.7157 159.74 88.5728C156.596 88.7157 154.739 87.1438 154.739 84.5716ZM164.313 82.8568V81.142C163.884 81.8565 163.17 81.9994 162.026 82.2852C160.883 82.571 159.311 82.7139 159.311 84.1429C159.311 85.1432 160.026 85.8577 161.312 85.8577C162.741 86.0006 164.17 84.8574 164.313 83.4284C164.313 83.1426 164.313 82.9997 164.313 82.8568Z" fill="#0065F2"/>
<path d="M173.173 73.4253H174.745C175.745 73.5682 176.745 73.4253 177.746 73.1395V75.8546C178.889 73.9969 180.889 72.8537 183.033 72.9966C185.176 72.8537 187.177 74.1398 187.749 76.1404C188.892 74.1398 191.035 72.9966 193.322 73.1395C196.465 73.1395 198.466 74.9972 198.466 78.5697V88.4298H193.75V79.57C193.75 77.7123 193.036 76.9978 191.607 76.9978C189.463 76.9978 188.177 78.5697 188.177 81.1419V88.2869H183.462V79.57C183.462 77.7123 182.747 76.9978 181.318 76.9978C179.317 76.9978 177.888 78.5697 177.888 81.1419V88.2869H173.173V73.4253Z" fill="#0065F2"/>
<path d="M202.896 65.7088H204.468C205.468 65.7088 206.611 65.7088 207.612 65.423V88.287H202.896V65.7088Z" fill="#0065F2"/>
<path d="M210.613 80.8562C210.755 76.5692 214.185 73.1396 218.472 72.9967C222.616 72.9967 226.046 76.4263 226.046 81.5707H215.328C215.471 83.5713 217.186 85.2861 219.187 85.1432C220.616 85.2861 222.045 84.4287 222.616 83.1426L225.903 84.8574C224.617 87.2867 221.902 88.8586 219.044 88.5728C214.614 88.8586 210.898 85.429 210.613 80.9991C210.613 80.9991 210.613 80.9991 210.613 80.8562ZM215.328 79.1414H221.33C221.33 77.5695 220.187 76.1405 218.472 76.1405C216.9 76.1405 215.471 77.4266 215.328 79.1414Z" fill="#0065F2"/>
<path d="M227.903 86.4294L230.19 83.7143C231.333 84.8575 232.762 85.4291 234.334 85.2862C236.049 85.2862 236.906 84.7146 236.906 83.8572C236.906 83.2856 236.477 82.8569 235.191 82.5711L232.762 82.1424C229.904 81.7137 228.475 79.9989 228.475 77.9983C228.475 74.9974 231.476 72.8539 235.334 72.8539C237.621 72.711 239.764 73.5684 241.193 75.2832L238.764 77.8554C237.906 76.7122 236.62 76.1406 235.191 76.1406C233.762 76.1406 232.905 76.7122 232.905 77.5696C232.905 78.2841 233.334 78.5699 235.048 78.9986L237.049 79.4273C239.907 79.9989 241.336 81.4279 241.336 83.5714C241.336 86.7152 238.192 88.7158 233.905 88.7158C231.333 88.7158 228.904 87.8584 227.903 86.4294Z" fill="#0065F2"/>
<path d="M243.337 86.4294L245.623 83.7143C246.766 84.8575 248.195 85.4291 249.767 85.2862C251.482 85.2862 252.339 84.7146 252.339 83.8572C252.339 83.2856 251.911 82.8569 250.625 82.5711L248.195 82.1424C245.337 81.7137 243.908 79.9989 243.908 77.9983C243.908 74.9974 246.909 72.8539 250.767 72.8539C253.054 72.711 255.197 73.5684 256.626 75.2832L254.197 77.8554C253.34 76.7122 252.054 76.1406 250.625 76.1406C249.196 76.1406 248.338 76.7122 248.338 77.5696C248.338 78.2841 248.767 78.5699 250.482 78.9986L252.482 79.4273C255.34 79.9989 256.769 81.4279 256.769 83.5714C256.769 86.7152 253.625 88.7158 249.338 88.7158C246.766 88.7158 244.337 87.8584 243.337 86.4294Z" fill="#0065F2"/>
<path d="M259.913 86.0005C259.913 84.5715 261.056 83.2854 262.628 83.2854C264.057 83.2854 265.343 84.4286 265.343 86.0005C265.343 87.4295 264.2 88.7156 262.628 88.7156C261.056 88.7156 259.913 87.5724 259.913 86.0005Z" fill="#0065F2"/>
<path d="M275.775 65.7089H280.919L289.208 88.2871H283.777L282.348 83.8572H274.203L272.774 88.2871H267.63L275.775 65.7089ZM275.203 80.1418H281.205L278.204 71.282L275.203 80.1418Z" fill="#0065F2"/>
<path d="M291.637 65.7089H296.781V88.2871H291.637V65.7089Z" fill="#0065F2"/>
<path d="M307.785 69.567C307.785 71.8534 306.07 73.854 303.498 73.854C301.211 73.854 299.211 72.1392 299.211 69.567C299.211 67.2806 301.211 65.28 303.498 65.28C306.07 65.28 307.785 67.2806 307.785 69.567ZM300.354 69.567C300.354 71.2818 301.783 72.9966 303.498 72.9966C305.212 72.9966 306.641 71.5676 306.641 69.567C306.641 67.5664 305.212 66.1374 303.498 66.1374C301.783 66.1374 300.354 67.5664 300.354 69.567ZM302.926 71.8534H302.069V67.5664C302.354 67.5664 302.926 67.5664 303.783 67.5664C304.641 67.5664 304.927 67.5664 305.212 67.8522C305.498 68.138 305.498 68.4238 305.498 68.7096C305.498 69.2812 305.212 69.567 304.641 69.567C304.927 69.8528 305.212 70.1386 305.498 70.7102C305.498 71.2818 305.784 71.5676 305.784 71.8534H304.641C304.641 71.5676 304.355 71.2818 304.355 70.7102C304.355 70.1386 304.069 70.1386 303.498 70.1386H302.926V71.8534ZM302.926 69.2812H303.498C304.069 69.2812 304.355 68.9954 304.355 68.7096C304.355 68.4238 304.069 68.138 303.498 68.138C303.212 68.138 302.926 68.138 302.926 68.138V69.2812Z" fill="#0065F2"/>
<defs>
<filter id="filter0_dd_2221_4566" x="0" y="0" width="385" height="184" filterUnits="userSpaceOnUse" color-interpolation-filters="sRGB">
<feFlood flood-opacity="0" result="BackgroundImageFix"/>
<feColorMatrix in="SourceAlpha" type="matrix" values="0 0 0 0 0 0 0 0 0 0 0 0 0 0 0 0 0 0 127 0" result="hardAlpha"/>
<feOffset dy="8"/>
<feGaussianBlur stdDeviation="8"/>
<feColorMatrix type="matrix" values="0 0 0 0 0 0 0 0 0 0 0 0 0 0 0 0 0 0 0.08 0"/>
<feBlend mode="normal" in2="BackgroundImageFix" result="effect1_dropShadow_2221_4566"/>
<feColorMatrix in="SourceAlpha" type="matrix" values="0 0 0 0 0 0 0 0 0 0 0 0 0 0 0 0 0 0 127 0" result="hardAlpha"/>
<feOffset/>
<feGaussianBlur stdDeviation="2"/>
<feColorMatrix type="matrix" values="0 0 0 0 0 0 0 0 0 0 0 0 0 0 0 0 0 0 0.04 0"/>
<feBlend mode="normal" in2="effect1_dropShadow_2221_4566" result="effect2_dropShadow_2221_4566"/>
<feBlend mode="normal" in="SourceGraphic" in2="effect2_dropShadow_2221_4566" result="shape"/>
</filter>
</defs>
</svg>
