<svg width="317" height="117" viewBox="0 0 317 117" fill="none" xmlns="http://www.w3.org/2000/svg">
<path d="M81.3643 49.1665C81.8649 48.9772 82.2229 48.8208 82.5972 48.74C84.4626 48.3374 85.3301 49.2227 84.8512 51.0636C84.6579 51.8071 84.3585 52.5224 84.1256 53.2564C83.9216 53.899 83.3265 54.4683 83.9188 55.611C85.93 54.4708 88.075 53.6318 89.2627 51.4201C89.7774 50.4614 90.1888 49.4406 90.7712 48.5271C91.2094 47.8398 91.9576 47.4496 92.7763 47.8485C93.612 48.2557 93.6537 49.0247 93.3956 49.8413C93.1278 50.6886 92.8802 51.5422 92.569 52.5749C93.7001 52.5823 94.3493 51.9222 95.0976 51.5247C96.0592 51.0139 96.9866 50.4255 97.9829 49.9962C100.362 48.971 100.876 49.1881 102.067 51.6044C103.386 51.3205 104.332 50.2591 105.561 49.7806C106.035 49.5958 106.444 49.1988 106.927 49.0871C107.94 48.8525 109.056 48.0082 109.995 49.0056C110.894 49.9592 110.26 51.0339 109.876 52.0643C109.506 53.0611 109.259 54.1037 108.861 55.4543C111.544 54.782 113.443 53.4928 114.747 51.6034C117.136 48.1415 120.665 48.7298 123.96 48.8955C125.698 48.9829 126.648 50.4737 126.416 52.5641C127.76 51.3692 128.207 49.8844 128.92 48.5612C129.811 46.9071 130.639 46.6681 132.115 47.8393C132.851 48.4227 133.488 48.3837 134.247 48.1742C135.176 47.9177 136.091 47.6589 137.085 47.7885C139.337 48.0823 140.029 49.3234 138.992 51.2397C138.539 52.077 137.953 52.7536 136.955 52.8001C135.626 52.8621 136.078 51.4352 135.398 50.7945C133.54 51.0777 132.205 52.2669 131.025 53.6102C129.714 55.1023 128.544 56.7182 127.269 58.2432C126.581 59.0665 125.852 60.1693 124.587 59.5963C123.247 58.9891 124.294 57.8281 124.397 56.5303C122.008 59.4269 119.275 60.4517 115.966 59.5151C115.243 59.3104 114.37 59.0089 113.957 58.4586C112.894 57.0437 111.945 57.4015 110.735 58.1939C109.897 58.7427 108.956 59.1945 107.85 59.1081C105.214 58.9021 104.617 58.109 105.128 55.5066C105.27 54.7827 105.829 54.1199 105.453 53.0655C103.398 54.249 101.608 55.6485 99.9047 57.1506C99.1278 57.8355 98.3615 58.5201 97.4212 58.9455C96.5391 59.3444 95.6146 59.3011 94.9226 58.5713C94.186 57.7945 94.7054 57.035 95.1358 56.2988C95.4826 55.7057 96.0682 55.2358 96.1542 54.1436C93.8818 55.4282 92.1613 57.1148 90.2295 58.4915C89.761 58.8254 89.3538 59.2686 88.8488 59.5235C87.1467 60.3829 86.3129 59.9714 85.8386 58.0039C84.0053 58.8949 81.8782 59.7653 80.2145 58.4405C78.4364 57.0246 80.2224 54.8965 80.219 52.7977C77.9246 54.5607 75.6716 55.8967 73.7962 57.7389C73.2881 58.2381 72.7634 58.699 72.0863 58.9594C71.1786 59.3086 70.2826 59.3025 69.5595 58.6223C68.7229 57.8353 69.402 57.0718 69.785 56.3717C70.2021 55.6091 70.7156 54.8993 70.9218 53.8832C68.905 55.3861 66.8874 56.8877 64.873 58.3936C64.6677 58.547 64.4974 58.75 64.2842 58.8892C63.3223 59.5173 62.2714 60.395 61.153 59.5812C60.0354 58.7679 61.163 57.7178 61.2755 56.5069C59.501 58.4925 57.4478 59.5602 54.9517 59.7995C53.0859 59.9783 51.4115 59.5499 50.2772 58.1005C49.1927 56.7147 49.4986 55.1134 50.2116 53.5531C52.0182 49.6 56.6423 47.4764 60.8042 48.8258C62.5356 49.3871 63.4273 50.6155 63.2846 52.5796C63.8469 51.3867 64.3655 50.1704 64.9862 49.0088C65.4306 48.1772 66.1172 47.4944 67.1638 47.8801C68.2954 48.2971 68.1236 49.235 67.8492 50.1516C67.6133 50.9392 67.3964 51.7325 67.1254 52.6838C68.3746 52.6694 69.1667 51.8852 70.0141 51.3234C70.8804 50.749 71.7737 50.2771 72.7509 49.9388C75.2211 49.0836 75.7534 49.331 76.5448 51.8152C78.116 50.9496 79.6726 50.092 81.3643 49.1665ZM117.905 57.0201C119.994 56.4006 121.73 55.341 122.54 53.1884C122.743 52.6479 122.85 52.0417 122.383 51.5624C121.917 51.0837 121.35 51.1701 120.776 51.3806C118.93 52.0577 117.62 53.3429 116.871 55.1107C116.585 55.7854 116.254 56.8228 117.905 57.0201ZM53.61 55.3259C53.386 56.332 53.4035 57.1472 54.8076 57.0381C57.0052 56.8674 59.4489 53.7285 59.1038 51.3738C56.3273 51.1756 54.8175 52.8125 53.61 55.3259Z" fill="#FDFCF7"/>
<path d="M52.0056 31.3792C47.358 41.8364 43.8609 52.5826 39.4717 62.9799C35.7061 71.9002 31.8597 80.7651 26.9299 89.1155C26.0529 90.601 24.9667 91.9631 23.9771 93.3821C23.5634 93.9753 22.9751 94.3584 22.3894 94.7602C21.4601 95.3978 20.5703 95.2933 19.7081 94.6865C18.8993 94.1172 18.6534 93.3584 18.8005 92.3402C19.3131 88.7915 21.0368 85.6666 22.2742 82.3851C25.4413 73.986 29.1347 65.7948 33.2231 57.8135C36.7498 50.9288 40.6004 44.2015 44.711 37.6332C47.7105 32.8402 48.8504 27.3266 50.501 22.0287C51.8288 17.7673 53.056 13.4613 53.795 9.04047C53.8571 8.66912 54.0538 8.31651 54.2112 7.96565C54.5374 7.23875 54.9246 6.50483 55.889 6.71215C56.8937 6.92812 57.3329 7.60822 57.3522 8.6719C57.4115 11.9358 56.2204 14.9561 55.6046 18.0875C55.1214 20.5447 54.2972 22.8994 53.4801 25.258C52.8076 27.199 52.2675 29.176 52.0056 31.3792ZM37.0267 58.1026C36.7468 58.5237 36.4031 58.9158 36.1968 59.3702C33.7106 64.8461 31.2175 70.3192 28.7837 75.8185C27.3347 79.0925 25.9872 82.4114 24.5941 85.71C25.1533 85.3428 25.4977 84.8796 25.734 84.3666C28.5167 78.3248 31.7239 72.4762 34.054 66.2292C35.069 63.5077 36.5594 60.972 37.0267 58.1026Z" fill="#FDFCF7"/>
<path d="M60.5425 2.54952C69.9276 1.96649 79.1317 1.25162 88.3383 0.635834C101.25 -0.227771 114.145 -0.0233199 127.041 0.16875C136.387 0.307945 145.735 1.00614 154.936 2.94163C156.623 3.2965 158.376 3.33032 159.996 4.01774C160.844 4.37742 161.513 4.91381 161.156 5.90769C160.835 6.79916 160.028 6.83334 159.208 6.60879C151.672 4.54449 143.919 4.11371 136.182 3.59932C124.773 2.84084 113.346 2.71631 101.922 2.96576C90.9497 3.20535 79.9876 3.86879 69.0592 4.8463C57.6355 5.86811 46.211 6.90258 34.8354 8.46311C30.0204 9.12365 25.1397 9.52214 20.3556 10.3373C14.6892 11.3027 8.9845 12.3192 3.57374 14.4275C3.21489 14.5673 2.85463 14.7042 2.49099 14.8309C1.59991 15.1414 0.642723 15.3827 0.151723 14.3047C-0.357143 13.1874 0.5087 12.7421 1.34765 12.2798C3.74152 10.9608 6.38221 10.3384 8.99072 9.76108C15.432 8.3356 21.9335 7.1948 28.4766 6.32627C38.2002 5.03556 47.9233 3.73714 57.714 3.03458C58.6057 2.9706 59.4851 2.7361 60.5425 2.54952Z" fill="#FDFCF7"/>
<path d="M267.455 75.1575C268.02 75.6323 268.148 76.2157 268.369 76.8254C270.053 76.4793 271.215 75.2617 272.682 74.6763C273.457 74.3675 274.175 73.9515 275.059 74.0137C276.339 74.1038 277.008 74.6269 276.59 75.9973C276.13 77.5054 275.657 79.0096 275.207 80.4615C276.118 81.1296 276.566 80.4443 277.058 80.1426C278.042 79.539 278.977 78.8571 279.937 78.214C280.628 77.7508 281.403 77.5003 282.042 78.1675C282.762 78.9186 282.188 79.6574 281.669 80.1961C279.81 82.1227 277.58 83.5604 275.008 84.245C272.261 84.9759 271.025 83.7143 271.459 80.9366C271.565 80.2558 271.656 79.5725 271.822 78.4139C269.539 79.8644 267.715 81.2993 265.971 82.8457C265.589 83.1839 265.274 83.6871 264.832 83.8497C263.746 84.2488 262.573 85.1912 261.463 84.0355C260.446 82.9757 261.394 82.0222 261.866 81.0781C262.035 80.7399 262.214 80.4067 262.118 79.7385C260.646 80.8428 259.164 81.9358 257.705 83.0569C257.095 83.525 256.566 84.1019 255.939 84.5418C255.011 85.1927 253.901 85.6771 252.911 84.9136C251.655 83.9453 252.906 82.9708 252.835 81.6349C252.393 82.1888 252.003 82.798 251.498 83.2872C249.349 85.3673 245.58 85.7392 243.106 84.1888C241.732 83.3281 241.265 82.1398 241.601 80.5725C242.371 76.9871 244.942 74.71 248.574 74.426C248.765 74.411 248.957 74.3856 249.147 74.3578C253.176 73.7694 253.52 73.9424 255.235 77.4573C256.097 76.6882 256.334 75.594 256.814 74.6371C257.323 73.6223 258.067 72.9127 259.271 73.4371C260.431 73.9427 260.02 74.8745 259.721 75.7468C259.479 76.4546 259.29 77.1808 258.978 78.235C261.079 77.1199 262.869 76.1901 264.638 75.2224C265.533 74.7326 266.407 74.4504 267.455 75.1575ZM250.448 76.6722C248.009 76.8766 246.464 78.2586 245.621 80.4606C245.323 81.2379 245.072 82.1992 246.467 82.2307C248.102 82.2677 251.304 79.2131 251.353 77.5952C251.366 77.1446 251.065 76.9149 250.448 76.6722Z" fill="#FDFCF7"/>
<path d="M148.054 48.6528C150.611 49.4524 151.431 50.7947 150.957 53.1553C150.061 57.6226 144.759 60.8271 140.455 59.5034C137.835 58.6976 136.763 56.842 137.791 54.3498C138.65 52.2668 139.85 50.1248 142.054 49.3494C143.86 48.7143 145.936 48.8461 148.054 48.6528ZM141.753 54.791C141.507 55.4336 141.009 56.1391 141.692 56.7252C142.349 57.2897 143.15 57.0952 143.835 56.668C145.148 55.85 146.343 54.8977 147.083 53.4891C147.404 52.878 147.928 52.2568 147.213 51.6005C146.598 51.0362 145.89 51.1971 145.246 51.5419C143.888 52.2686 142.564 53.0502 141.753 54.791Z" fill="#FDFCF7"/>
<path d="M288.048 58.626C287.094 59.153 286.761 59.8063 287.007 60.7994C287.477 62.6978 288.395 64.4007 289.422 66.0451C290.648 68.0094 292.042 69.8512 293.629 71.5388C294.004 71.9379 293.965 72.1904 293.613 72.5662C291.913 74.3834 290.294 76.2713 288.829 78.2856C288.33 78.9719 287.868 79.689 287.585 80.4986C287.31 81.282 287.63 81.6631 288.464 81.612C289.792 81.5307 290.91 80.8576 292.065 80.3197C296.125 78.4285 300.166 76.4942 304.215 74.5784C304.538 74.4254 304.871 74.2728 305.109 74.0075C306.106 72.8919 307.154 71.811 308.052 70.6187C308.797 69.6292 309.307 68.4735 309.811 67.3345C310.777 65.1522 311.523 62.9145 311.463 60.4842C311.457 60.2484 311.464 60.0026 311.402 59.7794C311.089 58.6625 311.759 57.8714 312.279 56.9013C312.693 57.6123 312.606 58.2923 312.597 58.9335C312.562 61.5445 311.757 63.9811 310.806 66.3748C310.377 67.4571 309.907 68.5245 309.336 69.543C309.281 69.6401 309.193 69.7386 309.278 69.8985C309.663 69.7793 310.016 69.5527 310.429 69.4898C311.243 69.3657 311.588 69.7175 311.41 70.5325C311.225 71.3826 310.755 72.1 310.26 72.7861C309.408 73.9659 308.319 74.8353 306.892 75.2691C305.947 75.5564 305.332 76.2332 305.018 77.1802C304.159 79.7732 303.084 82.2736 301.769 84.6683C301.532 85.0992 301.238 85.4997 300.954 85.903C300.835 86.0725 300.708 86.3172 300.444 86.2035C300.223 86.1079 300.285 85.8659 300.295 85.6738C300.333 84.8996 300.507 84.1453 300.72 83.4082C301.144 81.9465 301.446 80.4566 301.818 78.9833C302.017 78.1947 302.346 77.4577 302.832 76.6777C301.471 77.304 300.383 78.1757 299.232 78.9462C297.002 80.4395 294.785 81.9444 292.306 83.0276C290.205 83.9458 288.084 84.296 285.85 83.6354C285.642 83.5739 285.431 83.5202 285.227 83.4453C283.186 82.6927 282.63 81.2793 283.591 79.3207C284.534 77.3974 286.054 75.954 287.588 74.5285C288.514 73.6686 289.491 72.8649 290.503 72.1059C290.657 71.9907 290.848 71.9062 290.933 71.6663C290.133 70.57 289.3 69.4729 288.516 68.3415C286.983 66.1286 285.64 63.8119 284.773 61.2445C284.377 60.0744 284.127 58.8847 284.216 57.643C284.284 56.6928 284.571 55.8221 285.219 55.1014C286.291 53.9094 287.787 53.644 289.446 54.36C291.347 55.1808 292.893 56.5036 294.36 57.9205C297.411 60.8674 300.006 64.1998 302.477 67.6325C303.296 68.7698 304.056 69.9495 304.878 71.0837C305.181 71.5015 305.153 71.7635 304.736 72.0524C304.433 72.2626 304.173 72.5341 303.838 72.827C303.195 71.7094 302.388 70.8042 301.558 69.9134C298.929 67.092 296.079 64.5034 293.224 61.9192C292.17 60.9653 291.104 60.0244 290.039 59.0829C289.476 58.5847 288.855 58.2945 288.048 58.626Z" fill="#FDFCF7"/>
<path d="M296.552 54.7724C296.466 55.2362 296.385 55.6551 296.302 56.0909C296.102 56.0069 296.148 55.895 296.158 55.8141C296.454 53.4479 296.564 51.0504 297.339 48.7643C297.524 48.2196 297.743 47.6889 298.072 47.2165C298.78 46.2004 299.724 46.0405 300.727 46.761C301.461 47.2886 301.996 48.0002 302.48 48.7484C303.853 50.8691 304.771 53.2026 305.557 55.5829C306.331 57.9256 306.946 60.317 307.272 62.7689C307.449 64.0974 307.614 65.4336 307.517 66.7788C307.453 67.6603 307.117 68.4788 306.931 69.3418C306.642 69.2506 306.68 69.0653 306.653 68.9219C305.76 64.1397 304.173 59.5906 302.029 55.2329C301.47 54.0982 300.825 53.0096 299.895 52.1227C298.911 51.1838 298.028 51.3139 297.358 52.504C296.966 53.1992 296.773 53.968 296.552 54.7724Z" fill="#FDFCF7"/>
<path d="M173.89 44.0189C180.879 43.194 186.878 45.1347 191.559 50.4827C194.462 53.7997 196.342 57.7777 198.083 61.7806C200.029 66.2577 202.161 70.6433 204.242 75.056C206.977 80.8576 209.628 86.6986 212.32 92.5208C212.503 92.9161 212.717 93.2971 212.944 93.7376C213.998 93.2735 214.018 92.259 214.357 91.4964C217.638 84.1198 220.741 76.6603 224.177 69.3577C226.882 63.6109 229.353 57.7621 232.057 52.0179C232.352 51.3905 232.527 50.549 233.476 50.7738C234.253 50.958 234.204 51.7127 234.297 52.3499C235.087 57.7315 235.81 63.1374 236.747 68.4808C238.438 78.1322 239.585 87.8718 241.529 97.4769C242.722 103.374 245.025 108.686 250.434 111.951C254.934 114.666 259.808 115.976 265.114 114.939C266.938 114.582 267.942 113.44 268.019 111.616C268.121 109.209 268.148 106.796 268.121 104.387C268.103 102.802 270.51 100.76 272.592 100.747L275.443 100.537C275.464 100.539 286.465 101.154 291.829 97.4769C297.437 93.6321 301.246 82.6903 301.274 82.6107L302.43 82.4173C302.43 82.4173 300.001 94.1884 294.527 98.6097C288.453 103.515 274.912 102.376 274.829 102.368C271.256 102.336 269.469 103.342 269.959 107.736C270.146 109.408 270.173 111.047 269.805 112.709C269.273 115.114 267.649 116.636 265.127 116.644C260.982 116.657 256.853 117.417 252.687 116.704C243.672 115.161 238.764 109.183 236.146 101.071C234.094 94.7114 233.785 87.9811 232.897 81.3822C232.163 75.9229 231.316 70.4786 230.283 64.9495C224.409 78.3564 217.941 91.4699 212.703 105.138L211.927 105.227L193.681 65.6126L193.339 65.681C192.727 72.2818 192.121 78.8836 191.501 85.4837C191.112 89.6337 190.662 93.7785 190.315 97.932C190.042 101.205 190.185 101.363 193.175 102.675C193.416 102.781 193.673 102.849 194.017 102.966C192.171 104.26 180.458 104.217 179.209 103.206C179.499 102.411 180.253 102.57 180.842 102.447C183.579 101.875 185.275 100.433 185.635 97.472C185.899 95.3075 186.246 93.1561 186.331 90.7982C187.183 83.7547 188.068 76.8917 188.667 69.9935C188.932 66.934 189.51 63.9004 189.975 60.8597L189.979 60.8333C190.154 59.6877 190.326 58.5698 189.708 57.4847C187.236 53.1452 184.473 49.0866 179.686 46.9534C179.296 46.7795 178.948 46.4096 178.353 46.7005C178.502 47.4464 179.588 48.1891 178.536 49.0238C177.631 49.7407 176.86 49.2916 176.074 48.7943C175.07 48.1589 174.586 48.5425 174.317 49.6165C173.998 50.8886 174.529 51.9657 175.212 52.8411C175.922 53.7493 177 53.1861 177.898 52.888C179.113 52.4843 180.303 52.0024 181.513 51.5833C182.253 51.3273 183.148 51.0267 183.502 52.0052C183.876 53.0369 183.006 53.4698 182.21 53.805C180.852 54.3772 179.48 54.9158 178.125 55.4974C176.982 55.9887 176.753 56.6988 177.205 57.9554C178.378 61.2178 177.418 63.1489 174.114 64.1624C172.169 64.7591 170.2 65.4468 168.099 65.2991C166.669 65.1986 165.378 64.6872 164.816 63.3148C164.231 61.8867 164.947 60.6312 166.004 59.7064C167.061 58.7821 168.223 57.9434 169.439 57.2406C172.461 55.4937 172.484 55.5289 170.738 51.9437C169.591 53.349 168.508 54.6426 167.463 55.9661C166.427 57.2791 165.348 58.5385 164.006 59.5618C162.776 60.5001 161.503 61.211 159.936 60.4808C158.488 59.8062 158.628 58.4599 158.841 56.9329C157.689 57.469 156.929 58.0933 156.222 58.7845C155.665 59.3295 155.073 59.8234 154.336 60.0931C152.536 60.7521 150.857 59.7216 150.817 57.847C150.75 54.6611 151.857 51.7034 152.832 48.7425C153.133 47.8276 153.851 47.0146 155.04 47.3157C156.375 47.6544 156.136 48.817 155.995 49.7025C155.708 51.4993 155.233 53.2663 155.025 55.1585C156.749 53.9816 158 52.408 159.245 50.8314C159.523 50.4793 159.717 50.0468 160.038 49.7454C160.895 48.9407 161.88 48.1005 163.091 48.7991C164.283 49.4862 164.216 50.6955 163.825 51.887C163.47 52.9687 163.115 54.0544 163.108 55.5999C164.976 54.2809 165.879 52.4941 167.124 51.0511C168.715 49.2062 170.157 47.2314 171.634 45.2904C172.216 44.5259 172.918 44.1337 173.89 44.0189ZM172.245 58.5618L172.202 58.6116L169.31 61.888L169.259 61.9456L169.278 62.0198L169.47 62.7904L169.505 62.929L169.644 62.8968L172.921 62.1253L172.975 62.1136L173.006 62.0687C173.166 61.8454 173.414 61.5106 173.641 61.2327C173.755 61.0935 173.862 60.9715 173.948 60.8851C173.991 60.8416 174.025 60.8097 174.051 60.7904C174.063 60.7816 174.07 60.7774 174.074 60.7757C174.138 60.7671 174.186 60.7328 174.218 60.6956C174.253 60.6552 174.276 60.6061 174.292 60.5609C174.325 60.4693 174.346 60.353 174.358 60.2415C174.383 60.0157 174.382 59.7671 174.382 59.6712C174.382 59.6102 174.354 59.5559 174.333 59.5218C174.31 59.4823 174.279 59.4402 174.244 59.3988C174.173 59.3151 174.078 59.2186 173.976 59.1224C173.772 58.9293 173.527 58.7241 173.365 58.5941L173.325 58.5618H172.245Z" fill="#FDFCF7"/>
</svg>
