<svg width="64" height="64" viewBox="0 0 64 64" fill="none" xmlns="http://www.w3.org/2000/svg">
<g clip-path="url(#clip0_2816_5710)">
<path d="M63.8766 34.9562C63.302 29.1764 60.7198 23.7274 56.6055 19.613C53.0895 16.0971 48.7859 13.8377 44.2576 12.833V9.65697C46.1071 9.19684 47.4819 7.52269 47.4819 5.53278C47.4819 3.18924 45.5753 1.28271 43.2318 1.28271H34.2317C31.8881 1.28271 29.9816 3.18924 29.9816 5.53278C29.9816 7.52256 31.3564 9.19671 33.2058 9.65697V12.8419C28.6913 13.8508 24.402 16.1071 20.896 19.6131C20.1287 20.3804 19.4212 21.1853 18.7735 22.0218C18.7422 22.0194 18.7108 22.017 18.6788 22.017H9.77103C9.08077 22.017 8.52101 22.5767 8.52101 23.2671C8.52101 23.9574 9.08077 24.5171 9.77103 24.5171H17.0726C16.1561 26.0515 15.4171 27.6629 14.8546 29.3217H1.25002C0.559759 29.3217 0 29.8813 0 30.5717C0 31.2621 0.559759 31.8217 1.25002 31.8217H14.1482C13.788 33.4031 13.5812 35.0125 13.5278 36.6264H8.00012C7.30986 36.6264 6.75011 37.186 6.75011 37.8764C6.75011 38.5668 7.30986 39.1264 8.00012 39.1264H13.5677C13.6732 40.7445 13.9333 42.354 14.3482 43.9311H6.2501C5.55984 43.9311 5.00008 44.4908 5.00008 45.1812C5.00008 45.8715 5.55984 46.4312 6.2501 46.4312H15.146C16.3723 49.6751 18.2887 52.7155 20.896 55.3228C25.0143 59.4411 30.4688 62.0239 36.2547 62.5955C37.0805 62.677 37.9068 62.7174 38.7321 62.7174C43.6099 62.7174 48.4258 61.3058 52.5121 58.6447C53.0906 58.268 53.2542 57.4936 52.8774 56.9151C52.5007 56.3366 51.7263 56.1729 51.1478 56.5497C42.203 62.3744 30.2237 61.115 22.6637 53.555C13.7933 44.6846 13.7933 30.2515 22.6637 21.381C31.534 12.5108 45.9671 12.5108 54.8376 21.381C62.3876 28.9311 63.6539 40.9002 57.8484 49.8406C57.4724 50.4196 57.637 51.1939 58.2159 51.5698C58.7952 51.9458 59.5692 51.7811 59.9451 51.2021C63.0469 46.4252 64.4431 40.6557 63.8766 34.9562ZM32.4816 5.53291C32.4816 4.56789 33.2666 3.78288 34.2317 3.78288H43.2318C44.1968 3.78288 44.9818 4.56789 44.9818 5.53291C44.9818 6.49792 44.1968 7.28293 43.2318 7.28293H43.0075H34.4558H34.2317C33.2666 7.28293 32.4816 6.4978 32.4816 5.53291ZM35.7058 12.4121V9.78297H41.7575V12.4076C39.748 12.1686 37.715 12.1701 35.7058 12.4121Z" fill="black"/>
<path d="M55.7222 53.1882C55.3922 53.1882 55.0709 53.322 54.8385 53.5545C54.6048 53.787 54.4722 54.1095 54.4722 54.4382C54.4722 54.767 54.6048 55.0895 54.8385 55.322C55.0709 55.5557 55.3923 55.6882 55.7222 55.6882C56.0509 55.6882 56.3722 55.5557 56.6059 55.322C56.8384 55.0895 56.9722 54.767 56.9722 54.4382C56.9722 54.1095 56.8385 53.787 56.6059 53.5545C56.3722 53.322 56.0508 53.1882 55.7222 53.1882Z" fill="black"/>
<path d="M38.7508 18.0764C28.0584 18.0764 19.3594 26.7753 19.3594 37.4678C19.3594 48.1604 28.0584 56.8593 38.7508 56.8593C49.4432 56.8593 58.1422 48.1604 58.1422 37.4678C58.1422 26.7753 49.4432 18.0764 38.7508 18.0764ZM38.7508 54.3592C29.4368 54.3592 21.8594 46.7817 21.8594 37.4678C21.8594 28.1539 29.4368 20.5765 38.7508 20.5765C48.0648 20.5765 55.6422 28.1539 55.6422 37.4678C55.6422 46.7817 48.0648 54.3592 38.7508 54.3592Z" fill="black"/>
<path d="M46.6579 27.7929L40.4666 33.9841C39.9488 33.7281 39.3665 33.5834 38.7508 33.5834C38.1351 33.5834 37.5528 33.7281 37.035 33.9841L34.2641 31.2132C33.7759 30.725 32.9846 30.725 32.4962 31.2132C32.0081 31.7013 32.0081 32.4928 32.4962 32.9809L35.2671 35.7519C35.011 36.2696 34.8665 36.852 34.8665 37.4676C34.8665 39.6094 36.6089 41.3519 38.7508 41.3519C40.8927 41.3519 42.6351 39.6094 42.6351 37.4676C42.6351 36.852 42.4905 36.2696 42.2345 35.7519L48.2441 29.7423L48.4257 29.5606C48.9139 29.0725 48.9139 28.281 48.4257 27.7929C47.9376 27.3047 47.1463 27.3047 46.6579 27.7929ZM38.7508 38.852C37.9876 38.852 37.3666 38.231 37.3666 37.4678C37.3666 36.7045 37.9876 36.0835 38.7508 36.0835C39.5141 36.0835 40.1351 36.7045 40.1351 37.4678C40.1351 38.231 39.5141 38.852 38.7508 38.852Z" fill="black"/>
<path d="M52.1159 36.2329H50.9578C50.2675 36.2329 49.7078 36.7925 49.7078 37.4829C49.7078 38.1733 50.2675 38.7329 50.9578 38.7329H52.1159C52.8061 38.7329 53.3659 38.1733 53.3659 37.4829C53.3659 36.7925 52.8061 36.2329 52.1159 36.2329Z" fill="black"/>
<path d="M26.5437 36.2026H25.3857C24.6955 36.2026 24.1357 36.7623 24.1357 37.4526C24.1357 38.143 24.6955 38.7026 25.3857 38.7026H26.5437C27.234 38.7026 27.7937 38.143 27.7937 37.4526C27.7937 36.7623 27.234 36.2026 26.5437 36.2026Z" fill="black"/>
<path d="M38.7659 26.5108C39.4561 26.5108 40.0159 25.9512 40.0159 25.2608V24.1028C40.0159 23.4124 39.4561 22.8528 38.7659 22.8528C38.0756 22.8528 37.5159 23.4124 37.5159 24.1028V25.2608C37.5159 25.9512 38.0756 26.5108 38.7659 26.5108Z" fill="black"/>
<path d="M38.7354 48.4248C38.0451 48.4248 37.4854 48.9844 37.4854 49.6748V50.8328C37.4854 51.5232 38.0451 52.0828 38.7354 52.0828C39.4256 52.0828 39.9854 51.5232 39.9854 50.8328V49.6748C39.9854 48.9844 39.4256 48.4248 38.7354 48.4248Z" fill="black"/>
<path d="M1.25 43.9307C0.92125 43.9307 0.59875 44.0644 0.36625 44.2969C0.13375 44.5294 0 44.8519 0 45.1807C0 45.5107 0.133625 45.8319 0.36625 46.0644C0.598875 46.2969 0.92125 46.4307 1.25 46.4307C1.57875 46.4307 1.90125 46.2969 2.13363 46.0644C2.36613 45.8319 2.5 45.5094 2.5 45.1807C2.5 44.8519 2.36625 44.5294 2.13363 44.2969C1.90125 44.0644 1.57875 43.9307 1.25 43.9307Z" fill="black"/>
</g>
<defs>
<clipPath id="clip0_2816_5710">
<rect width="64" height="64" fill="white"/>
</clipPath>
</defs>
</svg>
