<svg width="64" height="64" viewBox="0 0 64 64" fill="none" xmlns="http://www.w3.org/2000/svg">
<g clip-path="url(#clip0_2817_5723)">
<path d="M64 31.9982C64 30.4768 63.1931 29.0904 61.8381 28.2864L58.2744 26.1898C59.6473 25.3746 60.8706 24.6475 61.841 24.0702C63.1933 23.2633 64 21.8769 64 20.3612C64 18.8455 63.1931 17.4591 61.841 16.6507C57.3864 14.0015 42.2812 5.02505 34.8352 0.756454C33.1107 -0.233683 31.0142 -0.273365 29.1505 0.765045C29.1505 0.765045 8.90046 12.6592 2.16177 16.6495C0.806864 17.4534 0 18.8398 0 20.3612C0 21.8769 0.806864 23.2633 2.15905 24.0717C3.12927 24.6486 4.35246 25.3756 5.72496 26.1903L2.16191 28.2864C0.806864 29.0904 0 30.4768 0 31.9982C0 33.5139 0.806864 34.9003 2.15905 35.7087C3.12927 36.2856 4.35246 37.0126 5.72496 37.8273L2.16191 39.9234C0.806864 40.7274 0 42.1138 0 43.6352C0 45.1509 0.806864 46.5373 2.15905 47.3457C7.92328 50.7733 22.0909 59.1844 29.1648 63.24C30.0312 63.7371 31.0143 63.9999 32.0001 63.9999C32.9858 63.9999 33.9689 63.7371 34.8382 63.2384C41.9092 59.1842 56.0769 50.7733 61.8411 47.3442C63.1934 46.5373 64.0001 45.1509 64.0001 43.6352C64.0001 42.1138 63.1933 40.7274 61.8382 39.9234L58.2745 37.8268C59.6474 37.0116 60.8707 36.2845 61.8411 35.7072C63.1933 34.9003 64 33.5139 64 31.9982ZM3.64773 21.5752C3.42614 21.4417 2.90905 21.0581 2.90905 20.3636C2.90905 19.6661 3.42327 19.2856 3.64487 19.1548C10.375 15.169 30.5966 3.29255 30.5937 3.29391C31.5199 2.77259 32.5312 2.7925 33.3892 3.28396C40.8153 7.5411 55.9063 16.507 60.3523 19.1519C60.5739 19.2854 61.091 19.669 61.091 20.3635C61.091 21.058 60.5739 21.4416 60.3523 21.5737C54.5966 24.997 40.446 33.3991 33.3921 37.4417C32.517 37.9418 31.4801 37.9403 30.6108 37.4431C23.554 33.3991 9.40337 24.9972 3.64773 21.5752ZM60.3551 42.4274C60.5767 42.5581 61.091 42.9388 61.091 43.6363C61.091 44.3309 60.5739 44.7144 60.3523 44.8465C54.5966 48.2698 40.446 56.6719 33.3921 60.7145C32.517 61.2145 31.4801 61.213 30.6108 60.7159C23.554 56.6719 9.40337 48.2698 3.64773 44.8479C3.42614 44.7144 2.90905 44.3308 2.90905 43.6363C2.90905 42.9388 3.42327 42.5582 3.64487 42.4274L8.5811 39.5228C15.2531 43.4774 24.0543 48.6737 29.1648 51.6035C30.0312 52.1007 31.0143 52.3634 32.0001 52.3634C32.9858 52.3634 33.9689 52.1007 34.8382 51.6021C39.9465 48.6733 48.7469 43.4778 55.4186 39.5226L60.3551 42.4274ZM60.3523 33.2102C54.5966 36.6335 40.446 45.0355 33.3921 49.0782C32.517 49.5782 31.4801 49.5767 30.6108 49.0795C23.554 45.0354 9.40337 36.6335 3.64773 33.2116C3.42614 33.0781 2.90905 32.6945 2.90905 32C2.90905 31.3025 3.42327 30.9219 3.64487 30.7911L8.5811 27.8864C15.2531 31.8411 24.0543 37.0374 29.1648 39.9672C30.0312 40.4643 31.0143 40.7271 32.0001 40.7271C32.9858 40.7271 33.9689 40.4643 34.8382 39.9658C39.9465 37.037 48.7469 31.8415 55.4186 27.8863L60.3553 30.7911C60.5769 30.9217 61.0911 31.3025 61.0911 32C61.091 32.6945 60.5739 33.0781 60.3523 33.2102Z" fill="black"/>
</g>
<defs>
<clipPath id="clip0_2817_5723">
<rect width="64" height="64" fill="white"/>
</clipPath>
</defs>
</svg>
