<svg width="92" height="57" viewBox="0 0 92 57" fill="none" xmlns="http://www.w3.org/2000/svg">
<path d="M24.5678 57C19.4757 57 15.0924 55.7928 11.4177 53.3785C7.74305 50.9641 4.90831 47.6312 2.91349 43.3798C0.971163 39.076 0 34.116 0 28.5C0 22.884 0.971163 17.9503 2.91349 13.6989C4.90831 9.39503 7.7168 6.03591 11.339 3.62155C15.0136 1.20718 19.4232 0 24.5678 0C29.6598 0 34.0169 1.20718 37.6391 3.62155C41.3138 6.03591 44.1223 9.39503 46.0646 13.6989C48.0594 17.9503 49.0568 22.884 49.0568 28.5C49.0568 34.116 48.0594 39.076 46.0646 43.3798C44.1223 47.6312 41.3138 50.9641 37.6391 53.3785C34.0169 55.7928 29.6598 57 24.5678 57ZM24.5678 47.4738C27.245 47.4738 29.6073 46.7127 31.6546 45.1906C33.7545 43.616 35.3556 41.4116 36.458 38.5774C37.6129 35.7431 38.1903 32.384 38.1903 28.5C38.1903 24.5635 37.6129 21.2044 36.458 18.4227C35.3556 15.5884 33.7545 13.4102 31.6546 11.8881C29.6073 10.366 27.245 9.60497 24.5678 9.60497C21.8905 9.60497 19.502 10.366 17.4022 11.8881C15.3549 13.4102 13.7538 15.5884 12.5989 18.4227C11.444 21.2044 10.8665 24.5635 10.8665 28.5C10.8665 32.384 11.444 35.7431 12.5989 38.5774C13.7538 41.4116 15.3549 43.616 17.4022 45.1906C19.502 46.7127 21.8905 47.4738 24.5678 47.4738Z" fill="#111013" fill-opacity="0.08"/>
<path d="M72.8655 57C69.2958 57 66.0148 56.3439 63.0226 55.0318C60.0304 53.7196 57.6418 51.7251 55.857 49.0483C54.0722 46.3715 53.1273 42.9862 53.0223 38.8923H63.4163C63.4688 40.6243 63.8625 42.1989 64.5975 43.616C65.3849 44.9807 66.4611 46.0829 67.8259 46.9227C69.2433 47.7099 70.9231 48.1036 72.8655 48.1036C74.7028 48.1036 76.2777 47.7362 77.59 47.0014C78.9024 46.2666 79.8998 45.2956 80.5823 44.0884C81.2647 42.8812 81.6059 41.4903 81.6059 39.9157C81.6059 38.0262 81.1597 36.4779 80.2673 35.2707C79.3749 34.0111 78.115 33.0663 76.4876 32.4365C74.9128 31.7541 73.0755 31.413 70.9756 31.413H66.881V22.674H70.9756C73.5479 22.674 75.7002 22.0967 77.4326 20.942C79.1649 19.7348 80.0311 17.924 80.0311 15.5097C80.0311 13.5677 79.3749 11.9931 78.0625 10.7859C76.8026 9.57873 75.044 8.97514 72.7867 8.97514C70.3195 8.97514 68.3771 9.70994 66.9598 11.1796C65.5949 12.6492 64.8337 14.4599 64.6762 16.6119H54.3609C54.5184 13.1478 55.3845 10.1823 56.9594 7.71547C58.5343 5.19613 60.6603 3.28038 63.3376 1.96823C66.0673 0.656077 69.2433 0 72.8655 0C76.6451 0 79.8473 0.682319 82.4721 2.04696C85.0969 3.35912 87.0917 5.14365 88.4566 7.40055C89.8214 9.60497 90.5039 12.0456 90.5039 14.7224C90.5039 16.8218 90.0839 18.7113 89.244 20.3909C88.4566 22.018 87.3804 23.3826 86.0155 24.4848C84.7032 25.587 83.2333 26.4006 81.6059 26.9254C83.6533 27.2928 85.4381 28.0801 86.9605 29.2873C88.5353 30.4945 89.7689 32.0428 90.6614 33.9323C91.5538 35.7693 92 37.895 92 40.3094C92 43.3011 91.2651 46.0829 89.7952 48.6547C88.3253 51.174 86.173 53.1948 83.3383 54.7169C80.5035 56.239 77.0126 57 72.8655 57Z" fill="#111013" fill-opacity="0.08"/>
</svg>
