<svg width="71" height="57" viewBox="0 0 71 57" fill="none" xmlns="http://www.w3.org/2000/svg">
<path d="M24.36 57C19.311 57 14.9647 55.7928 11.3212 53.3785C7.67757 50.9641 4.8668 47.6312 2.88885 43.3798C0.962949 39.076 0 34.116 0 28.5C0 22.884 0.962949 17.9503 2.88885 13.6989C4.8668 9.39503 7.65154 6.03591 11.2431 3.62155C14.8867 1.20718 19.259 0 24.36 0C29.409 0 33.7292 1.20718 37.3208 3.62155C40.9644 6.03591 43.7491 9.39503 45.675 13.6989C47.653 17.9503 48.6419 22.884 48.6419 28.5C48.6419 34.116 47.653 39.076 45.675 43.3798C43.7491 47.6312 40.9644 50.9641 37.3208 53.3785C33.7292 55.7928 29.409 57 24.36 57ZM24.36 47.4738C27.0146 47.4738 29.3569 46.7127 31.3869 45.1906C33.469 43.616 35.0565 41.4116 36.1496 38.5774C37.2948 35.7431 37.8673 32.384 37.8673 28.5C37.8673 24.5635 37.2948 21.2044 36.1496 18.4227C35.0565 15.5884 33.469 13.4102 31.3869 11.8881C29.3569 10.366 27.0146 9.60497 24.36 9.60497C21.7054 9.60497 19.3371 10.366 17.255 11.8881C15.225 13.4102 13.6374 15.5884 12.4923 18.4227C11.3472 21.2044 10.7746 24.5635 10.7746 28.5C10.7746 32.384 11.3472 35.7431 12.4923 38.5774C13.6374 41.4116 15.225 43.616 17.255 45.1906C19.3371 46.7127 21.7054 47.4738 24.36 47.4738Z" fill="#111013" fill-opacity="0.08"/>
<path d="M60.1473 56.0553V13.1478L51.0123 15.2735V7.00691L64.5977 0.944749H71V56.0553H60.1473Z" fill="#111013" fill-opacity="0.08"/>
</svg>
