<svg width="90" height="57" viewBox="0 0 90 57" fill="none" xmlns="http://www.w3.org/2000/svg">
<path d="M24.4929 57C19.4164 57 15.0464 55.7928 11.3829 53.3785C7.71946 50.9641 4.89335 47.6312 2.90461 43.3798C0.968204 39.076 0 34.116 0 28.5C0 22.884 0.968204 17.9503 2.90461 13.6989C4.89335 9.39503 7.69329 6.03591 11.3044 3.62155C14.9679 1.20718 19.3641 0 24.4929 0C29.5695 0 33.9133 1.20718 37.5244 3.62155C41.1879 6.03591 43.9878 9.39503 45.9242 13.6989C47.913 17.9503 48.9074 22.884 48.9074 28.5C48.9074 34.116 47.913 39.076 45.9242 43.3798C43.9878 47.6312 41.1879 50.9641 37.5244 53.3785C33.9133 55.7928 29.5695 57 24.4929 57ZM24.4929 47.4738C27.162 47.4738 29.5171 46.7127 31.5582 45.1906C33.6516 43.616 35.2478 41.4116 36.3469 38.5774C37.4983 35.7431 38.074 32.384 38.074 28.5C38.074 24.5635 37.4983 21.2044 36.3469 18.4227C35.2478 15.5884 33.6516 13.4102 31.5582 11.8881C29.5171 10.366 27.162 9.60497 24.4929 9.60497C21.8238 9.60497 19.4426 10.366 17.3492 11.8881C15.3081 13.4102 13.7119 15.5884 12.5605 18.4227C11.4091 21.2044 10.8334 24.5635 10.8334 28.5C10.8334 32.384 11.4091 35.7431 12.5605 38.5774C13.7119 41.4116 15.3081 43.616 17.3492 45.1906C19.4426 46.7127 21.8238 47.4738 24.4929 47.4738Z" fill="#111013" fill-opacity="0.08"/>
<path d="M51.8475 56.0553V48.2611C55.197 45.5843 58.4156 42.9075 61.5034 40.2307C64.6435 37.5539 67.4696 34.9033 69.9817 32.279C72.4938 29.6022 74.4564 27.0041 75.8695 24.4848C77.3348 21.9655 78.0675 19.5249 78.0675 17.163C78.0675 15.6934 77.8059 14.355 77.2825 13.1478C76.7592 11.8881 75.948 10.8909 74.8489 10.1561C73.7499 9.36878 72.2845 8.97514 70.4528 8.97514C68.6733 8.97514 67.1556 9.39503 65.8996 10.2348C64.6435 11.0746 63.7015 12.203 63.0735 13.6202C62.4454 14.9848 62.1314 16.5331 62.1314 18.2652H51.926C52.0307 14.2238 52.9204 10.8384 54.5951 8.10911C56.2699 5.37983 58.5203 3.35912 61.3464 2.04696C64.1725 0.682319 67.3126 0 70.7668 0C74.6396 0 77.8844 0.734807 80.5011 2.20442C83.1702 3.62155 85.1852 5.56354 86.5459 8.03039C87.9589 10.4972 88.6655 13.3315 88.6655 16.5331C88.6655 18.9475 88.2206 21.3094 87.3309 23.6188C86.4935 25.9282 85.316 28.1851 83.7983 30.3895C82.2805 32.5414 80.5535 34.6146 78.6171 36.6091C76.6807 38.6036 74.6657 40.5193 72.5723 42.3564C70.5313 44.1409 68.5425 45.8204 66.6061 47.395H90V56.0553H51.8475Z" fill="#111013" fill-opacity="0.08"/>
</svg>
