<svg width="97" height="57" viewBox="0 0 97 57" fill="none" xmlns="http://www.w3.org/2000/svg">
<path d="M24.5379 57C19.452 57 15.074 55.7928 11.4038 53.3785C7.73362 50.9641 4.90233 47.6312 2.90994 43.3798C0.96998 39.076 0 34.116 0 28.5C0 22.884 0.96998 17.9503 2.90994 13.6989C4.90233 9.39503 7.70741 6.03591 11.3252 3.62155C14.9954 1.20718 19.3996 0 24.5379 0C29.6237 0 33.9755 1.20718 37.5933 3.62155C41.2635 6.03591 44.0685 9.39503 46.0085 13.6989C48.0009 17.9503 48.9971 22.884 48.9971 28.5C48.9971 34.116 48.0009 39.076 46.0085 43.3798C44.0685 47.6312 41.2635 50.9641 37.5933 53.3785C33.9755 55.7928 29.6237 57 24.5379 57ZM24.5379 47.4738C27.2119 47.4738 29.5713 46.7127 31.6161 45.1906C33.7133 43.616 35.3125 41.4116 36.4136 38.5774C37.567 35.7431 38.1438 32.384 38.1438 28.5C38.1438 24.5635 37.567 21.2044 36.4136 18.4227C35.3125 15.5884 33.7133 13.4102 31.6161 11.8881C29.5713 10.366 27.2119 9.60497 24.5379 9.60497C21.8639 9.60497 19.4782 10.366 17.381 11.8881C15.3362 13.4102 13.737 15.5884 12.5835 18.4227C11.43 21.2044 10.8533 24.5635 10.8533 28.5C10.8533 32.384 11.43 35.7431 12.5835 38.5774C13.737 41.4116 15.3362 43.616 17.381 45.1906C19.4782 46.7127 21.8639 47.4738 24.5379 47.4738Z" fill="#111013" fill-opacity="0.08"/>
<path d="M79.2258 56.0553V46.0566H52.1712V37.6326L72.7767 0.944749H89.7645V36.8453H97V46.0566H89.7645V56.0553H79.2258ZM63.4964 36.8453H79.9336V7.40055H79.619L63.4964 36.8453Z" fill="#111013" fill-opacity="0.08"/>
</svg>
